<?xml version="1.0" encoding="UTF-8" standalone="no"?>
<svg
   xmlns:dc="http://purl.org/dc/elements/1.1/"
   xmlns:cc="http://creativecommons.org/ns#"
   xmlns:rdf="http://www.w3.org/1999/02/22-rdf-syntax-ns#"
   xmlns:svg="http://www.w3.org/2000/svg"
   xmlns="http://www.w3.org/2000/svg"
   version="1.0"
   width="48"
   height="48"
   id="svg2817">
  <defs
     id="defs221" />
  <metadata
     id="metadata57">
    <rdf:RDF>
      <cc:Work
         rdf:about="">
        <dc:format>image/svg+xml</dc:format>
        <dc:type
           rdf:resource="http://purl.org/dc/dcmitype/StillImage" />
        <dc:title />
      </cc:Work>
    </rdf:RDF>
  </metadata>
  <text
     fill="#000000"
     font-family="'Bitstream Vera Sans'"
     x="877.22626"
     y="10.812601"
     xml:space="preserve"
     font-size="12.666px"
     opacity=".8"
     id="text4087-2-6-5"><tspan
       x="877.22626"
       y="10.812601"
       id="tspan4089-7-2-9" /></text>
  <text
     fill="#000000"
     font-family="'Bitstream Vera Sans'"
     x="901.18719"
     y="-29.929106"
     xml:space="preserve"
     font-size="12.666px"
     opacity=".8"
     id="text4087-2-6-5-5"><tspan
       x="901.18719"
       y="-29.929106"
       id="tspan4089-7-2-9-6" /></text>
  <text
     fill="#000000"
     font-family="'Bitstream Vera Sans'"
     x="-569.37115"
     y="-60.007248"
     xml:space="preserve"
     font-size="12.666px"
     opacity=".8"
     id="text4087-2-6-5-2"><tspan
       x="-569.37115"
       y="-60.007248"
       id="tspan4089-7-2-9-2" /></text>
  <text
     fill="#000000"
     font-family="'Bitstream Vera Sans'"
     x="-2393.0571"
     y="685.5462"
     xml:space="preserve"
     font-size="12.666px"
     opacity=".8"
     id="text4087-2-6-5-59"><tspan
       x="-2393.0571"
       y="685.5462"
       id="tspan4089-7-2-9-4" /></text>
  <text
     fill="#000000"
     font-family="'Bitstream Vera Sans'"
     x="-454.88007"
     y="-445.32822"
     xml:space="preserve"
     font-size="12.666px"
     opacity=".8"
     id="text4087-2-6-5-1"><tspan
       x="-454.88007"
       y="-445.32822"
       id="tspan4089-7-2-9-7" /></text>
  <text
     fill="#000000"
     font-family="'Bitstream Vera Sans'"
     x="352.72208"
     y="-858.79834"
     xml:space="preserve"
     font-size="12.666px"
     opacity=".8"
     id="text4087-2-6-5-7"><tspan
       x="352.72208"
       y="-858.79834"
       id="tspan4089-7-2-9-1" /></text>
  <text
     fill="#000000"
     font-family="'Bitstream Vera Sans'"
     x="376.68301"
     y="-899.54004"
     xml:space="preserve"
     font-size="12.666px"
     opacity=".8"
     id="text4087-2-6-5-5-3"><tspan
       x="376.68301"
       y="-899.54004"
       id="tspan4089-7-2-9-6-5" /></text>
  <text
     fill="#000000"
     font-family="'Bitstream Vera Sans'"
     x="-1114.7802"
     y="-906.74994"
     xml:space="preserve"
     font-size="12.666px"
     opacity=".8"
     id="text4087-2-6-5-3"><tspan
       x="-1114.7802"
       y="-906.74994"
       id="tspan4089-7-2-9-18" /></text>
  <text
     fill="#000000"
     font-family="'Bitstream Vera Sans'"
     x="345.7626"
     y="-1179.9841"
     xml:space="preserve"
     font-size="12.666px"
     opacity=".8"
     id="text4087-2-6-5-4"><tspan
       x="345.7626"
       y="-1179.9841"
       id="tspan4089-7-2-9-9" /></text>
  <text
     fill="#000000"
     font-family="'Bitstream Vera Sans'"
     x="1831.8861"
     y="-553.29272"
     xml:space="preserve"
     font-size="12.666px"
     opacity=".8"
     id="text4087-2-6-5-7-1"><tspan
       x="1831.8861"
       y="-553.29272"
       id="tspan4089-7-2-9-1-8" /></text>
  <text
     fill="#000000"
     font-family="'Bitstream Vera Sans'"
     x="1855.8469"
     y="-594.03448"
     xml:space="preserve"
     font-size="12.666px"
     opacity=".8"
     id="text4087-2-6-5-5-5"><tspan
       x="1855.8469"
       y="-594.03448"
       id="tspan4089-7-2-9-6-9" /></text>
  <text
     fill="#000000"
     font-family="'Bitstream Vera Sans'"
     x="364.38376"
     y="-601.24438"
     xml:space="preserve"
     font-size="12.666px"
     opacity=".8"
     id="text4087-2-6-5-75"><tspan
       x="364.38376"
       y="-601.24438"
       id="tspan4089-7-2-9-3" /></text>
  <text
     fill="#000000"
     font-family="'Bitstream Vera Sans'"
     x="1824.9266"
     y="-874.47839"
     xml:space="preserve"
     font-size="12.666px"
     opacity=".8"
     id="text4087-2-6-5-4-8"><tspan
       x="1824.9266"
       y="-874.47839"
       id="tspan4089-7-2-9-9-8" /></text>
  <text
     fill="#000000"
     font-family="'Bitstream Vera Sans'"
     x="-573.43256"
     y="-649.33569"
     xml:space="preserve"
     font-size="12.666px"
     opacity=".8"
     id="text4087-2-6-5-45"><tspan
       x="-573.43256"
       y="-649.33569"
       id="tspan4089-7-2-9-75" /></text>
  <text
     fill="#000000"
     font-family="'Bitstream Vera Sans'"
     x="-2397.1182"
     y="96.217857"
     xml:space="preserve"
     font-size="12.666px"
     opacity=".8"
     id="text4087-2-6-5-59-7"><tspan
       x="-2397.1182"
       y="96.217857"
       id="tspan4089-7-2-9-4-0" /></text>
  <text
     fill="#000000"
     font-family="'Bitstream Vera Sans'"
     x="-682.36279"
     y="189.09"
     xml:space="preserve"
     font-size="12.666px"
     opacity=".8"
     id="text4087-2-6-5-8"><tspan
       x="-682.36279"
       y="189.09"
       id="tspan4089-7-2-9-19" /></text>
  <text
     fill="#000000"
     font-family="'Bitstream Vera Sans'"
     x="426.66153"
     y="9.9078522"
     xml:space="preserve"
     font-size="12.666px"
     opacity=".8"
     id="text4087-2-6-5-7-5"><tspan
       x="426.66153"
       y="9.9078522"
       id="tspan4089-7-2-9-1-2" /></text>
  <text
     fill="#000000"
     font-family="'Bitstream Vera Sans'"
     x="450.62247"
     y="-30.833855"
     xml:space="preserve"
     font-size="12.666px"
     opacity=".8"
     id="text4087-2-6-5-5-0"><tspan
       x="450.62247"
       y="-30.833855"
       id="tspan4089-7-2-9-6-2" /></text>
  <text
     fill="#000000"
     font-family="'Bitstream Vera Sans'"
     x="-1040.8407"
     y="-38.043827"
     xml:space="preserve"
     font-size="12.666px"
     opacity=".8"
     id="text4087-2-6-5-26"><tspan
       x="-1040.8407"
       y="-38.043827"
       id="tspan4089-7-2-9-90" /></text>
  <text
     fill="#000000"
     font-family="'Bitstream Vera Sans'"
     x="419.70206"
     y="-311.27789"
     xml:space="preserve"
     font-size="12.666px"
     opacity=".8"
     id="text4087-2-6-5-4-3"><tspan
       x="419.70206"
       y="-311.27789"
       id="tspan4089-7-2-9-9-5" /></text>
  <text
     fill="#000000"
     font-family="'Bitstream Vera Sans'"
     x="-608.03253"
     y="-40.758072"
     xml:space="preserve"
     font-size="12.666px"
     opacity=".8"
     id="text4087-2-6-5-55"><tspan
       x="-608.03253"
       y="-40.758072"
       id="tspan4089-7-2-9-32" /></text>
  <text
     fill="#000000"
     font-family="'Bitstream Vera Sans'"
     x="-2431.7185"
     y="704.79541"
     xml:space="preserve"
     font-size="12.666px"
     opacity=".8"
     id="text4087-2-6-5-59-9"><tspan
       x="-2431.7185"
       y="704.79541"
       id="tspan4089-7-2-9-4-1" /></text>
  <text
     fill="#000000"
     font-family="'Bitstream Vera Sans'"
     x="-456.93948"
     y="-902.28857"
     xml:space="preserve"
     font-size="12.666px"
     opacity=".8"
     id="text4087-2-6-5-1-8"><tspan
       x="-456.93948"
       y="-902.28857"
       id="tspan4089-7-2-9-7-8" /></text>
  <text
     fill="#000000"
     font-family="'Bitstream Vera Sans'"
     x="350.66266"
     y="-1315.7588"
     xml:space="preserve"
     font-size="12.666px"
     opacity=".8"
     id="text4087-2-6-5-7-8"><tspan
       x="350.66266"
       y="-1315.7588"
       id="tspan4089-7-2-9-1-9" /></text>
  <text
     fill="#000000"
     font-family="'Bitstream Vera Sans'"
     x="374.62357"
     y="-1356.5005"
     xml:space="preserve"
     font-size="12.666px"
     opacity=".8"
     id="text4087-2-6-5-5-52"><tspan
       x="374.62357"
       y="-1356.5005"
       id="tspan4089-7-2-9-6-4" /></text>
  <text
     fill="#000000"
     font-family="'Bitstream Vera Sans'"
     x="-1116.8396"
     y="-1363.7104"
     xml:space="preserve"
     font-size="12.666px"
     opacity=".8"
     id="text4087-2-6-5-3-4"><tspan
       x="-1116.8396"
       y="-1363.7104"
       id="tspan4089-7-2-9-18-3" /></text>
  <text
     fill="#000000"
     font-family="'Bitstream Vera Sans'"
     x="343.70316"
     y="-1636.9446"
     xml:space="preserve"
     font-size="12.666px"
     opacity=".8"
     id="text4087-2-6-5-4-7"><tspan
       x="343.70316"
       y="-1636.9446"
       id="tspan4089-7-2-9-9-54" /></text>
  <text
     fill="#000000"
     font-family="'Bitstream Vera Sans'"
     x="1829.8265"
     y="-1010.2533"
     xml:space="preserve"
     font-size="12.666px"
     opacity=".8"
     id="text4087-2-6-5-7-1-2"><tspan
       x="1829.8265"
       y="-1010.2533"
       id="tspan4089-7-2-9-1-8-0" /></text>
  <text
     fill="#000000"
     font-family="'Bitstream Vera Sans'"
     x="1853.7874"
     y="-1050.9949"
     xml:space="preserve"
     font-size="12.666px"
     opacity=".8"
     id="text4087-2-6-5-5-5-6"><tspan
       x="1853.7874"
       y="-1050.9949"
       id="tspan4089-7-2-9-6-9-8" /></text>
  <text
     fill="#000000"
     font-family="'Bitstream Vera Sans'"
     x="362.32431"
     y="-1058.2048"
     xml:space="preserve"
     font-size="12.666px"
     opacity=".8"
     id="text4087-2-6-5-75-4"><tspan
       x="362.32431"
       y="-1058.2048"
       id="tspan4089-7-2-9-3-9" /></text>
  <text
     fill="#000000"
     font-family="'Bitstream Vera Sans'"
     x="1822.8671"
     y="-1331.439"
     xml:space="preserve"
     font-size="12.666px"
     opacity=".8"
     id="text4087-2-6-5-4-8-1"><tspan
       x="1822.8671"
       y="-1331.439"
       id="tspan4089-7-2-9-9-8-8" /></text>
  <text
     fill="#000000"
     font-family="'Bitstream Vera Sans'"
     x="-575.492"
     y="-1106.2961"
     xml:space="preserve"
     font-size="12.666px"
     opacity=".8"
     id="text4087-2-6-5-45-0"><tspan
       x="-575.492"
       y="-1106.2961"
       id="tspan4089-7-2-9-75-2" /></text>
  <text
     fill="#000000"
     font-family="'Bitstream Vera Sans'"
     x="-2399.1777"
     y="-360.74261"
     xml:space="preserve"
     font-size="12.666px"
     opacity=".8"
     id="text4087-2-6-5-59-5"><tspan
       x="-2399.1777"
       y="-360.74261"
       id="tspan4089-7-2-9-4-00" /></text>
  <text
     fill="#000000"
     font-family="'Bitstream Vera Sans'"
     x="-684.42224"
     y="-267.87045"
     xml:space="preserve"
     font-size="12.666px"
     opacity=".8"
     id="text4087-2-6-5-264"><tspan
       x="-684.42224"
       y="-267.87045"
       id="tspan4089-7-2-9-8" /></text>
  <text
     fill="#000000"
     font-family="'Bitstream Vera Sans'"
     x="155.5923"
     y="-26.956278"
     xml:space="preserve"
     font-size="12.666px"
     opacity=".8"
     id="text4087-2-6-5-42"><tspan
       x="155.5923"
       y="-26.956278"
       id="tspan4089-7-2-9-93" /></text>
  <text
     fill="#000000"
     font-family="'Bitstream Vera Sans'"
     x="179.55324"
     y="-67.697998"
     xml:space="preserve"
     font-size="12.666px"
     opacity=".8"
     id="text4087-2-6-5-5-05"><tspan
       x="179.55324"
       y="-67.697998"
       id="tspan4089-7-2-9-6-49" /></text>
  <text
     fill="#000000"
     font-family="'Bitstream Vera Sans'"
     x="-1090.2634"
     y="-261.72662"
     xml:space="preserve"
     font-size="12.666px"
     opacity=".8"
     id="text4087-2-6-5-1-4"><tspan
       x="-1090.2634"
       y="-261.72662"
       id="tspan4089-7-2-9-7-7" /></text>
  <text
     fill="#000000"
     font-family="'Bitstream Vera Sans'"
     x="-282.66141"
     y="-675.19678"
     xml:space="preserve"
     font-size="12.666px"
     opacity=".8"
     id="text4087-2-6-5-7-56"><tspan
       x="-282.66141"
       y="-675.19678"
       id="tspan4089-7-2-9-1-1" /></text>
  <text
     fill="#000000"
     font-family="'Bitstream Vera Sans'"
     x="-258.70047"
     y="-715.93848"
     xml:space="preserve"
     font-size="12.666px"
     opacity=".8"
     id="text4087-2-6-5-5-8"><tspan
       x="-258.70047"
       y="-715.93848"
       id="tspan4089-7-2-9-6-7" /></text>
  <text
     fill="#000000"
     font-family="'Bitstream Vera Sans'"
     x="-1750.1636"
     y="-723.14838"
     xml:space="preserve"
     font-size="12.666px"
     opacity=".8"
     id="text4087-2-6-5-3-42"><tspan
       x="-1750.1636"
       y="-723.14838"
       id="tspan4089-7-2-9-18-39" /></text>
  <text
     fill="#000000"
     font-family="'Bitstream Vera Sans'"
     x="-289.62085"
     y="-996.38251"
     xml:space="preserve"
     font-size="12.666px"
     opacity=".8"
     id="text4087-2-6-5-4-4"><tspan
       x="-289.62085"
       y="-996.38251"
       id="tspan4089-7-2-9-9-3" /></text>
  <text
     fill="#000000"
     font-family="'Bitstream Vera Sans'"
     x="1196.5026"
     y="-369.69113"
     xml:space="preserve"
     font-size="12.666px"
     opacity=".8"
     id="text4087-2-6-5-7-1-0"><tspan
       x="1196.5026"
       y="-369.69113"
       id="tspan4089-7-2-9-1-8-5" /></text>
  <text
     fill="#000000"
     font-family="'Bitstream Vera Sans'"
     x="1220.4634"
     y="-410.43286"
     xml:space="preserve"
     font-size="12.666px"
     opacity=".8"
     id="text4087-2-6-5-5-5-5"><tspan
       x="1220.4634"
       y="-410.43286"
       id="tspan4089-7-2-9-6-9-2" /></text>
  <text
     fill="#000000"
     font-family="'Bitstream Vera Sans'"
     x="-270.99973"
     y="-417.64282"
     xml:space="preserve"
     font-size="12.666px"
     opacity=".8"
     id="text4087-2-6-5-75-9"><tspan
       x="-270.99973"
       y="-417.64282"
       id="tspan4089-7-2-9-3-1" /></text>
  <text
     fill="#000000"
     font-family="'Bitstream Vera Sans'"
     x="1189.5431"
     y="-690.87689"
     xml:space="preserve"
     font-size="12.666px"
     opacity=".8"
     id="text4087-2-6-5-4-8-18"><tspan
       x="1189.5431"
       y="-690.87689"
       id="tspan4089-7-2-9-9-8-4" /></text>
  <text
     fill="#000000"
     font-family="'Bitstream Vera Sans'"
     x="-1208.816"
     y="-465.7341"
     xml:space="preserve"
     font-size="12.666px"
     opacity=".8"
     id="text4087-2-6-5-45-3"><tspan
       x="-1208.816"
       y="-465.7341"
       id="tspan4089-7-2-9-75-7" /></text>
  <text
     fill="#000000"
     font-family="'Bitstream Vera Sans'"
     x="-3032.5017"
     y="279.81946"
     xml:space="preserve"
     font-size="12.666px"
     opacity=".8"
     id="text4087-2-6-5-59-8"><tspan
       x="-3032.5017"
       y="279.81946"
       id="tspan4089-7-2-9-4-2" /></text>
  <g
     transform="matrix(.90475 0 0 .90475 -716.75 -676.29)"
     id="layer4-0">
    <text
       fill="#000000"
       font-family="'Bitstream Vera Sans'"
       x="-664.2738"
       y="1159.4154"
       xml:space="preserve"
       font-size="14px"
       opacity=".8"
       id="text4087-2-6-5-20"><tspan
         x="-664.2738"
         y="1159.4154"
         id="tspan4089-7-2-9-82" /></text>
  </g>
  <text
     fill="#000000"
     font-family="'Bitstream Vera Sans'"
     x="877.22626"
     y="18.050589"
     xml:space="preserve"
     font-size="12.666px"
     opacity=".8"
     id="text4087-2-6-5-9"><tspan
       x="877.22626"
       y="18.050589"
       id="tspan4089-7-2-9-43" /></text>
  <text
     fill="#000000"
     font-family="'Bitstream Vera Sans'"
     x="901.18719"
     y="-22.691116"
     xml:space="preserve"
     font-size="12.666px"
     opacity=".8"
     id="text4087-2-6-5-5-51"><tspan
       x="901.18719"
       y="-22.691116"
       id="tspan4089-7-2-9-6-74" /></text>
  <text
     fill="#000000"
     font-family="'Bitstream Vera Sans'"
     x="-569.37115"
     y="-52.76926"
     xml:space="preserve"
     font-size="12.666px"
     opacity=".8"
     id="text4087-2-6-5-2-3"><tspan
       x="-569.37115"
       y="-52.76926"
       id="tspan4089-7-2-9-2-1" /></text>
  <text
     fill="#000000"
     font-family="'Bitstream Vera Sans'"
     x="-2393.0571"
     y="692.78418"
     xml:space="preserve"
     font-size="12.666px"
     opacity=".8"
     id="text4087-2-6-5-59-4"><tspan
       x="-2393.0571"
       y="692.78418"
       id="tspan4089-7-2-9-4-6" /></text>
  <text
     fill="#000000"
     font-family="'Bitstream Vera Sans'"
     x="-454.88007"
     y="-438.09021"
     xml:space="preserve"
     font-size="12.666px"
     opacity=".8"
     id="text4087-2-6-5-1-9"><tspan
       x="-454.88007"
       y="-438.09021"
       id="tspan4089-7-2-9-7-4" /></text>
  <text
     fill="#000000"
     font-family="'Bitstream Vera Sans'"
     x="352.72208"
     y="-851.5603"
     xml:space="preserve"
     font-size="12.666px"
     opacity=".8"
     id="text4087-2-6-5-7-2"><tspan
       x="352.72208"
       y="-851.5603"
       id="tspan4089-7-2-9-1-26" /></text>
  <text
     fill="#000000"
     font-family="'Bitstream Vera Sans'"
     x="376.68301"
     y="-892.30206"
     xml:space="preserve"
     font-size="12.666px"
     opacity=".8"
     id="text4087-2-6-5-5-3-4"><tspan
       x="376.68301"
       y="-892.30206"
       id="tspan4089-7-2-9-6-5-1" /></text>
  <text
     fill="#000000"
     font-family="'Bitstream Vera Sans'"
     x="-1114.7802"
     y="-899.51196"
     xml:space="preserve"
     font-size="12.666px"
     opacity=".8"
     id="text4087-2-6-5-3-2"><tspan
       x="-1114.7802"
       y="-899.51196"
       id="tspan4089-7-2-9-18-8" /></text>
  <text
     fill="#000000"
     font-family="'Bitstream Vera Sans'"
     x="345.7626"
     y="-1172.7461"
     xml:space="preserve"
     font-size="12.666px"
     opacity=".8"
     id="text4087-2-6-5-4-89"><tspan
       x="345.7626"
       y="-1172.7461"
       id="tspan4089-7-2-9-9-2" /></text>
  <text
     fill="#000000"
     font-family="'Bitstream Vera Sans'"
     x="1831.8861"
     y="-546.05475"
     xml:space="preserve"
     font-size="12.666px"
     opacity=".8"
     id="text4087-2-6-5-7-1-8"><tspan
       x="1831.8861"
       y="-546.05475"
       id="tspan4089-7-2-9-1-8-8" /></text>
  <text
     fill="#000000"
     font-family="'Bitstream Vera Sans'"
     x="1855.8469"
     y="-586.79651"
     xml:space="preserve"
     font-size="12.666px"
     opacity=".8"
     id="text4087-2-6-5-5-5-8"><tspan
       x="1855.8469"
       y="-586.79651"
       id="tspan4089-7-2-9-6-9-6" /></text>
  <text
     fill="#000000"
     font-family="'Bitstream Vera Sans'"
     x="364.38376"
     y="-594.00641"
     xml:space="preserve"
     font-size="12.666px"
     opacity=".8"
     id="text4087-2-6-5-75-8"><tspan
       x="364.38376"
       y="-594.00641"
       id="tspan4089-7-2-9-3-3" /></text>
  <text
     fill="#000000"
     font-family="'Bitstream Vera Sans'"
     x="1824.9266"
     y="-867.24036"
     xml:space="preserve"
     font-size="12.666px"
     opacity=".8"
     id="text4087-2-6-5-4-8-8"><tspan
       x="1824.9266"
       y="-867.24036"
       id="tspan4089-7-2-9-9-8-3" /></text>
  <text
     fill="#000000"
     font-family="'Bitstream Vera Sans'"
     x="-573.43256"
     y="-642.09772"
     xml:space="preserve"
     font-size="12.666px"
     opacity=".8"
     id="text4087-2-6-5-45-33"><tspan
       x="-573.43256"
       y="-642.09772"
       id="tspan4089-7-2-9-75-8" /></text>
  <text
     fill="#000000"
     font-family="'Bitstream Vera Sans'"
     x="-2397.1182"
     y="103.45585"
     xml:space="preserve"
     font-size="12.666px"
     opacity=".8"
     id="text4087-2-6-5-59-7-0"><tspan
       x="-2397.1182"
       y="103.45585"
       id="tspan4089-7-2-9-4-0-4" /></text>
  <text
     fill="#000000"
     font-family="'Bitstream Vera Sans'"
     x="-682.36279"
     y="196.32799"
     xml:space="preserve"
     font-size="12.666px"
     opacity=".8"
     id="text4087-2-6-5-8-7"><tspan
       x="-682.36279"
       y="196.32799"
       id="tspan4089-7-2-9-19-6" /></text>
  <text
     fill="#000000"
     font-family="'Bitstream Vera Sans'"
     x="426.66153"
     y="17.14584"
     xml:space="preserve"
     font-size="12.666px"
     opacity=".8"
     id="text4087-2-6-5-7-5-8"><tspan
       x="426.66153"
       y="17.14584"
       id="tspan4089-7-2-9-1-2-9" /></text>
  <text
     fill="#000000"
     font-family="'Bitstream Vera Sans'"
     x="450.62247"
     y="-23.595865"
     xml:space="preserve"
     font-size="12.666px"
     opacity=".8"
     id="text4087-2-6-5-5-0-0"><tspan
       x="450.62247"
       y="-23.595865"
       id="tspan4089-7-2-9-6-2-6" /></text>
  <text
     fill="#000000"
     font-family="'Bitstream Vera Sans'"
     x="-1040.8407"
     y="-30.805836"
     xml:space="preserve"
     font-size="12.666px"
     opacity=".8"
     id="text4087-2-6-5-26-8"><tspan
       x="-1040.8407"
       y="-30.805836"
       id="tspan4089-7-2-9-90-7" /></text>
  <text
     fill="#000000"
     font-family="'Bitstream Vera Sans'"
     x="419.70206"
     y="-304.03989"
     xml:space="preserve"
     font-size="12.666px"
     opacity=".8"
     id="text4087-2-6-5-4-3-9"><tspan
       x="419.70206"
       y="-304.03989"
       id="tspan4089-7-2-9-9-5-0" /></text>
  <text
     fill="#000000"
     font-family="'Bitstream Vera Sans'"
     x="-608.03253"
     y="-33.520081"
     xml:space="preserve"
     font-size="12.666px"
     opacity=".8"
     id="text4087-2-6-5-55-3"><tspan
       x="-608.03253"
       y="-33.520081"
       id="tspan4089-7-2-9-32-3" /></text>
  <text
     fill="#000000"
     font-family="'Bitstream Vera Sans'"
     x="-2431.7185"
     y="712.03345"
     xml:space="preserve"
     font-size="12.666px"
     opacity=".8"
     id="text4087-2-6-5-59-9-3"><tspan
       x="-2431.7185"
       y="712.03345"
       id="tspan4089-7-2-9-4-1-7" /></text>
  <text
     fill="#000000"
     font-family="'Bitstream Vera Sans'"
     x="-456.93948"
     y="-895.0506"
     xml:space="preserve"
     font-size="12.666px"
     opacity=".8"
     id="text4087-2-6-5-1-8-3"><tspan
       x="-456.93948"
       y="-895.0506"
       id="tspan4089-7-2-9-7-8-2" /></text>
  <text
     fill="#000000"
     font-family="'Bitstream Vera Sans'"
     x="350.66266"
     y="-1308.5208"
     xml:space="preserve"
     font-size="12.666px"
     opacity=".8"
     id="text4087-2-6-5-7-8-6"><tspan
       x="350.66266"
       y="-1308.5208"
       id="tspan4089-7-2-9-1-9-5" /></text>
  <text
     fill="#000000"
     font-family="'Bitstream Vera Sans'"
     x="374.62357"
     y="-1349.2626"
     xml:space="preserve"
     font-size="12.666px"
     opacity=".8"
     id="text4087-2-6-5-5-52-2"><tspan
       x="374.62357"
       y="-1349.2626"
       id="tspan4089-7-2-9-6-4-6" /></text>
  <text
     fill="#000000"
     font-family="'Bitstream Vera Sans'"
     x="-1116.8396"
     y="-1356.4724"
     xml:space="preserve"
     font-size="12.666px"
     opacity=".8"
     id="text4087-2-6-5-3-4-5"><tspan
       x="-1116.8396"
       y="-1356.4724"
       id="tspan4089-7-2-9-18-3-8" /></text>
  <text
     fill="#000000"
     font-family="'Bitstream Vera Sans'"
     x="343.70316"
     y="-1629.7065"
     xml:space="preserve"
     font-size="12.666px"
     opacity=".8"
     id="text4087-2-6-5-4-7-7"><tspan
       x="343.70316"
       y="-1629.7065"
       id="tspan4089-7-2-9-9-54-9" /></text>
  <text
     fill="#000000"
     font-family="'Bitstream Vera Sans'"
     x="1829.8265"
     y="-1003.0153"
     xml:space="preserve"
     font-size="12.666px"
     opacity=".8"
     id="text4087-2-6-5-7-1-2-6"><tspan
       x="1829.8265"
       y="-1003.0153"
       id="tspan4089-7-2-9-1-8-0-0" /></text>
  <text
     fill="#000000"
     font-family="'Bitstream Vera Sans'"
     x="1853.7874"
     y="-1043.757"
     xml:space="preserve"
     font-size="12.666px"
     opacity=".8"
     id="text4087-2-6-5-5-5-6-4"><tspan
       x="1853.7874"
       y="-1043.757"
       id="tspan4089-7-2-9-6-9-8-1" /></text>
  <text
     fill="#000000"
     font-family="'Bitstream Vera Sans'"
     x="362.32431"
     y="-1050.9668"
     xml:space="preserve"
     font-size="12.666px"
     opacity=".8"
     id="text4087-2-6-5-75-4-0"><tspan
       x="362.32431"
       y="-1050.9668"
       id="tspan4089-7-2-9-3-9-4" /></text>
  <text
     fill="#000000"
     font-family="'Bitstream Vera Sans'"
     x="1822.8671"
     y="-1324.2009"
     xml:space="preserve"
     font-size="12.666px"
     opacity=".8"
     id="text4087-2-6-5-4-8-1-8"><tspan
       x="1822.8671"
       y="-1324.2009"
       id="tspan4089-7-2-9-9-8-8-7" /></text>
  <text
     fill="#000000"
     font-family="'Bitstream Vera Sans'"
     x="-575.492"
     y="-1099.0581"
     xml:space="preserve"
     font-size="12.666px"
     opacity=".8"
     id="text4087-2-6-5-45-0-0"><tspan
       x="-575.492"
       y="-1099.0581"
       id="tspan4089-7-2-9-75-2-8" /></text>
  <text
     fill="#000000"
     font-family="'Bitstream Vera Sans'"
     x="-2399.1777"
     y="-353.50461"
     xml:space="preserve"
     font-size="12.666px"
     opacity=".8"
     id="text4087-2-6-5-59-5-6"><tspan
       x="-2399.1777"
       y="-353.50461"
       id="tspan4089-7-2-9-4-00-2" /></text>
  <text
     fill="#000000"
     font-family="'Bitstream Vera Sans'"
     x="-684.42224"
     y="-260.63245"
     xml:space="preserve"
     font-size="12.666px"
     opacity=".8"
     id="text4087-2-6-5-264-4"><tspan
       x="-684.42224"
       y="-260.63245"
       id="tspan4089-7-2-9-8-7" /></text>
  <text
     fill="#000000"
     font-family="'Bitstream Vera Sans'"
     x="155.5923"
     y="-19.71829"
     xml:space="preserve"
     font-size="12.666px"
     opacity=".8"
     id="text4087-2-6-5-42-9"><tspan
       x="155.5923"
       y="-19.71829"
       id="tspan4089-7-2-9-93-3" /></text>
  <text
     fill="#000000"
     font-family="'Bitstream Vera Sans'"
     x="179.55324"
     y="-60.460011"
     xml:space="preserve"
     font-size="12.666px"
     opacity=".8"
     id="text4087-2-6-5-5-05-9"><tspan
       x="179.55324"
       y="-60.460011"
       id="tspan4089-7-2-9-6-49-2" /></text>
  <text
     fill="#000000"
     font-family="'Bitstream Vera Sans'"
     x="-1090.2634"
     y="-254.4886"
     xml:space="preserve"
     font-size="12.666px"
     opacity=".8"
     id="text4087-2-6-5-1-4-8"><tspan
       x="-1090.2634"
       y="-254.4886"
       id="tspan4089-7-2-9-7-7-3" /></text>
  <text
     fill="#000000"
     font-family="'Bitstream Vera Sans'"
     x="-282.66141"
     y="-667.9588"
     xml:space="preserve"
     font-size="12.666px"
     opacity=".8"
     id="text4087-2-6-5-7-56-0"><tspan
       x="-282.66141"
       y="-667.9588"
       id="tspan4089-7-2-9-1-1-1" /></text>
  <text
     fill="#000000"
     font-family="'Bitstream Vera Sans'"
     x="-258.70047"
     y="-708.7005"
     xml:space="preserve"
     font-size="12.666px"
     opacity=".8"
     id="text4087-2-6-5-5-8-7"><tspan
       x="-258.70047"
       y="-708.7005"
       id="tspan4089-7-2-9-6-7-8" /></text>
  <text
     fill="#000000"
     font-family="'Bitstream Vera Sans'"
     x="-1750.1636"
     y="-715.91046"
     xml:space="preserve"
     font-size="12.666px"
     opacity=".8"
     id="text4087-2-6-5-3-42-9"><tspan
       x="-1750.1636"
       y="-715.91046"
       id="tspan4089-7-2-9-18-39-1" /></text>
  <text
     fill="#000000"
     font-family="'Bitstream Vera Sans'"
     x="-289.62085"
     y="-989.14447"
     xml:space="preserve"
     font-size="12.666px"
     opacity=".8"
     id="text4087-2-6-5-4-4-5"><tspan
       x="-289.62085"
       y="-989.14447"
       id="tspan4089-7-2-9-9-3-4" /></text>
  <text
     fill="#000000"
     font-family="'Bitstream Vera Sans'"
     x="1196.5026"
     y="-362.45316"
     xml:space="preserve"
     font-size="12.666px"
     opacity=".8"
     id="text4087-2-6-5-7-1-0-9"><tspan
       x="1196.5026"
       y="-362.45316"
       id="tspan4089-7-2-9-1-8-5-2" /></text>
  <text
     fill="#000000"
     font-family="'Bitstream Vera Sans'"
     x="1220.4634"
     y="-403.19489"
     xml:space="preserve"
     font-size="12.666px"
     opacity=".8"
     id="text4087-2-6-5-5-5-5-5"><tspan
       x="1220.4634"
       y="-403.19489"
       id="tspan4089-7-2-9-6-9-2-7" /></text>
  <text
     fill="#000000"
     font-family="'Bitstream Vera Sans'"
     x="-270.99973"
     y="-410.40482"
     xml:space="preserve"
     font-size="12.666px"
     opacity=".8"
     id="text4087-2-6-5-75-9-4"><tspan
       x="-270.99973"
       y="-410.40482"
       id="tspan4089-7-2-9-3-1-9" /></text>
  <text
     fill="#000000"
     font-family="'Bitstream Vera Sans'"
     x="1189.5431"
     y="-683.63892"
     xml:space="preserve"
     font-size="12.666px"
     opacity=".8"
     id="text4087-2-6-5-4-8-18-9"><tspan
       x="1189.5431"
       y="-683.63892"
       id="tspan4089-7-2-9-9-8-4-4" /></text>
  <text
     fill="#000000"
     font-family="'Bitstream Vera Sans'"
     x="-1208.816"
     y="-458.49609"
     xml:space="preserve"
     font-size="12.666px"
     opacity=".8"
     id="text4087-2-6-5-45-3-5"><tspan
       x="-1208.816"
       y="-458.49609"
       id="tspan4089-7-2-9-75-7-9" /></text>
  <text
     fill="#000000"
     font-family="'Bitstream Vera Sans'"
     x="-3032.5017"
     y="287.05743"
     xml:space="preserve"
     font-size="12.666px"
     opacity=".8"
     id="text4087-2-6-5-59-8-3"><tspan
       x="-3032.5017"
       y="287.05743"
       id="tspan4089-7-2-9-4-2-5" /></text>
  <g
     transform="matrix(.90475 0 0 .90475 -716.75 -669.05)"
     id="layer4-0-7">
    <text
       fill="#000000"
       font-family="'Bitstream Vera Sans'"
       x="-664.2738"
       y="1159.4154"
       xml:space="preserve"
       font-size="14px"
       opacity=".8"
       id="text4087-2-6-5-20-0"><tspan
         x="-664.2738"
         y="1159.4154"
         id="tspan4089-7-2-9-82-8" /></text>
  </g>
  <text
     fill="#000000"
     font-family="'Droid Sans'"
     x="435.90427"
     y="-361.22546"
     xml:space="preserve"
     font-size="12.666px"
     id="text7276"><tspan
       x="435.90427"
       y="-361.22546"
       id="tspan7278" /><tspan
       x="435.90427"
       y="-345.3924"
       id="tspan7280" /></text>
  <text
     fill="#000000"
     font-family="'Bitstream Vera Sans'"
     x="901.0882"
     y="-843.27002"
     xml:space="preserve"
     font-size="12.666px"
     opacity=".8"
     id="text4087-2-6-5-51"><tspan
       x="901.0882"
       y="-843.27002"
       id="tspan4089-7-2-9-97" /></text>
  <text
     fill="#000000"
     font-family="'Bitstream Vera Sans'"
     x="-922.59778"
     y="-97.716553"
     xml:space="preserve"
     font-size="12.666px"
     opacity=".8"
     id="text4087-2-6-5-59-2"><tspan
       x="-922.59778"
       y="-97.716553"
       id="tspan4089-7-2-9-4-4" /></text>
  <text
     fill="#000000"
     font-family="'Bitstream Vera Sans'"
     x="1628.1677"
     y="-1128.2659"
     xml:space="preserve"
     font-size="12.666px"
     opacity=".8"
     id="text4087-2-6-5-7-7"><tspan
       x="1628.1677"
       y="-1128.2659"
       id="tspan4089-7-2-9-1-6" /></text>
  <text
     fill="#000000"
     font-family="'Bitstream Vera Sans'"
     x="1652.1285"
     y="-1169.0076"
     xml:space="preserve"
     font-size="12.666px"
     opacity=".8"
     id="text4087-2-6-5-5-6"><tspan
       x="1652.1285"
       y="-1169.0076"
       id="tspan4089-7-2-9-6-53" /></text>
  <text
     fill="#000000"
     font-family="'Bitstream Vera Sans'"
     x="160.66542"
     y="-1176.2175"
     xml:space="preserve"
     font-size="12.666px"
     opacity=".8"
     id="text4087-2-6-5-54"><tspan
       x="160.66542"
       y="-1176.2175"
       id="tspan4089-7-2-9-0" /></text>
  <text
     fill="#000000"
     font-family="'Bitstream Vera Sans'"
     x="1621.2083"
     y="-1449.4517"
     xml:space="preserve"
     font-size="12.666px"
     opacity=".8"
     id="text4087-2-6-5-4-1"><tspan
       x="1621.2083"
       y="-1449.4517"
       id="tspan4089-7-2-9-9-28" /></text>
  <path
     id="path4081"
     d="m 19.899,4.00091 c -0.425,0.0462 -0.799,0.3931 -0.877,0.8125 l -0.845,4.2812 c -1.517,0.5923 -2.943,1.4062 -4.195,2.4062 l -4.1635,-1.4062 c -0.4326,-0.1489 -0.9572,0.0441 -1.1896,0.4374 l -4.0072,6.9378 c -0.2257,0.399 -0.1289,0.951 0.2192,1.25 l 3.3184,2.906 c -0.11686,0.77924 -0.18783,1.5632 -0.18783,2.375 0,0.81174 0.071027,1.5957 0.18783,2.375 l -3.3184,2.906 c -0.3481,0.299 -0.4449,0.851 -0.2192,1.25 l 4.0071,6.9374 c 0.2324,0.39342 0.75706,0.58638 1.1896,0.43749 l 4.1637,-1.4062 c 1.2514,0.99995 2.6776,1.8138 4.195,2.4062 l 0.84526,4.2812 c 0.08565,0.44814 0.51346,0.80628 0.97048,0.81248 l 8.0143,0 c 0.45701,-0.006 0.88479,-0.36434 0.97048,-0.81248 l 0.84526,-4.2812 c 1.5174,-0.59236 2.9436,-1.4063 4.195,-2.4062 l 4.1637,1.4062 c 0.43256,0.14889 0.95722,-0.0441 1.1896,-0.43749 l 4.0071,-6.9374 c 0.22571,-0.399 0.1289,-0.95119 -0.21914,-1.25 l -3.317,-2.906 c 0.11686,-0.77924 0.18784,-1.5632 0.18784,-2.375 0,-0.81174 -0.07103,-1.5957 -0.18784,-2.375 l 3.3184,-2.9062 c 0.34804,-0.29878 0.44485,-0.85097 0.21914,-1.25 l -4.007,-6.9378 c -0.232,-0.3934 -0.757,-0.5863 -1.189,-0.4374 l -4.1637,1.4062 c -1.252,-1 -2.678,-1.8139 -4.195,-2.4062 l -0.845,-4.2812 c -0.086,-0.4481 -0.514,-0.8063 -0.971,-0.8125 l -8.0143,0 c -0.03126,-10e-4 -0.06261,-10e-4 -0.09387,0 z"
     style="fill:#5f7c8a;enable-background:new" />
  <path
     id="path4047"
     style="opacity:0.2;enable-background:new"
     d="m 24,16.99981 c 4.4183,0 8,3.5817 8,8 0,4.4183 -3.5817,8 -8,8 -4.4183,0 -8,-3.5817 -8,-8 0,-4.4183 3.5817,-8 8,-8 z" />
  <path
     id="path4035"
     d="m 24,15.99981 c 4.4183,0 8,3.5817 8,8 0,4.4183 -3.5817,8 -8,8 -4.4183,0 -8,-3.5817 -8,-8 0,-4.4183 3.5817,-8 8,-8 z"
     style="fill:#ffffff;enable-background:new" />
  <path
     id="path4258"
     d="m 19.795,4.00051 c -0.436,0.0457 -0.82,0.3889 -0.899,0.8038 l -0.867,4.2353 c -1.556,0.5861 -3.019,1.3912 -4.302,2.3802 l -4.2695,-1.3909 c -0.4436,-0.1473 -0.9816,0.0436 -1.2199,0.4328 l -4.1092,6.8631 c 0.055884,0.09895 0.13549,0.17342 0.22472,0.24732 l 0.16051,0.12366 3.7239,-6.2448 c 0.2384,-0.389 0.7764,-0.5799 1.22,-0.433 l 4.2697,1.3912 c 1.2833,-0.98924 2.7457,-1.7944 4.3018,-2.3804 l 0.86677,-4.2353 c 0.07962,-0.41492 0.4633,-0.75808 0.89888,-0.80378 0.03205,-9.893e-4 0.0642,-9.893e-4 0.09626,0 l 8.2183,0 c 0.46865,0.00594 0.90731,0.36044 0.99518,0.80378 l 0.86677,4.2353 c 1.5561,0.58601 3.0185,1.3912 4.3018,2.3804 l 4.2697,-1.3912 c 0.44357,-0.14729 0.98158,0.04363 1.2199,0.4328 l 3.7239,6.2448 0.16051,-0.12366 c 0.08927,-0.0739 0.16883,-0.14837 0.22472,-0.24732 l -4.11,-6.8631 c -0.238,-0.3892 -0.776,-0.5801 -1.22,-0.4328 l -4.269,1.3909 c -1.283,-0.989 -2.746,-1.7941 -4.302,-2.3802 l -0.867,-4.2353 c -0.088,-0.4433 -0.526,-0.7976 -0.995,-0.8038 l -8.2183,0 c -0.03205,-9.893e-4 -0.06421,-9.893e-4 -0.09626,0 z m -15.763,13.973 c 0.018799,0.11692 0.038934,0.23845 0.096257,0.34006 C 4.072373,18.21462 4.052238,18.08494 4.032,17.97351 Z m 39.936,0 c -0.02024,0.11143 -0.04048,0.24112 -0.09626,0.34006 0.05743,-0.10161 0.07756,-0.22314 0.09626,-0.34006 z m -36.308,4.359 c -0.032668,0.31731 -0.046536,0.63829 -0.064206,0.95836 0.00616,0.16677 0.022498,0.32868 0.032051,0.49464 0.026401,-0.45654 0.059069,-0.91396 0.12841,-1.3602 l -0.0963,-0.093 z m 32.681,0 -0.09626,0.09269 c 0.06934,0.44629 0.10201,0.90371 0.12841,1.3602 0.0092,-0.16595 0.02589,-0.32786 0.03205,-0.49464 -0.01767,-0.32007 -0.03154,-0.64105 -0.06421,-0.95836 z m -32.681,3.895 -3.3066,2.783 c -0.089271,0.0739 -0.16883,0.14837 -0.22472,0.24732 l 0.38523,0.61829 3.2424,-2.7514 C 7.710596,26.83062 7.690564,26.52493 7.660053,26.22819 Z m 32.681,0 c -0.03061,0.29673 -0.05064,0.60243 -0.09626,0.89653 l 3.2424,2.7514 0.38523,-0.61829 C 43.81649,29.1582 43.73688,29.08373 43.64765,29.00983 l -3.308,-2.783 z M 4,29.84451 c 0.0031,0.054 0.0198,0.103 0.0321,0.155 -0.0134,-0.053 -0.0274,-0.1 -0.0321,-0.155 z m 40,0 c -0.005,0.055 -0.019,0.102 -0.032,0.155 0.012,-0.052 0.029,-0.101 0.032,-0.155 z"
     style="opacity:0.2;fill:#ffffff;enable-background:new" />
  <path
     id="path4098"
     style="opacity:0.2;enable-background:new"
     d="m 4.6289,18.45272 -0.00781,0.01563 c -0.22571,0.399 -0.12734,0.95122 0.2207,1.25 l 3.2109,2.8125 c 0.03,-0.304 0.0624,-0.607 0.1075,-0.907 l -3.3184,-2.906 C 4.75478,18.64315 4.68339,18.55224 4.6289,18.45223 Z m 38.742,0 c -0.05449,0.10002 -0.12588,0.19093 -0.21289,0.26562 l -3.318,2.906 c 0.04502,0.30033 0.07745,0.6032 0.10742,0.90625 l 3.2109,-2.8125 c 0.34804,-0.29878 0.44642,-0.851 0.2207,-1.25 l -0.0078,-0.01563 z m -35.379,6.047 c -0.00594,0.16702 -0.021484,0.33077 -0.021484,0.5 0,0.49837 0.034327,0.98598 0.082031,1.4688 l 0.1075,-0.094 c -0.0925,-0.617 -0.1454,-1.241 -0.168,-1.875 z m 32.016,0 c -0.02256,0.63414 -0.07547,1.2582 -0.16797,1.875 l 0.10742,0.09375 c 0.0477,-0.48277 0.08203,-0.97038 0.08203,-1.4688 0,-0.16923 -0.01554,-0.33298 -0.02148,-0.5 z m -35.379,6.047 C 4.46542,30.84678 4.4518,31.23184 4.62109,31.5311 l 4.0078,6.9375 c 0.2324,0.39342 0.75689,0.58639 1.1895,0.4375 l 4.1636,-1.406 c 1.2514,0.99995 2.6779,1.8139 4.1953,2.4062 l 0.84375,4.2812 c 0.08565,0.44814 0.51369,0.80629 0.9707,0.8125 l 8.0156,0 c 0.45702,-0.006 0.88501,-0.36436 0.9707,-0.8125 l 0.84375,-4.2812 c 1.517,-0.593 2.943,-1.407 4.195,-2.407 l 4.1641,1.4062 c 0.43256,0.14889 0.95705,-0.04411 1.1895,-0.4375 l 4.0078,-6.9375 c 0.16928,-0.29925 0.15566,-0.68432 -0.0078,-0.98438 l -4,6.9219 c -0.2324,0.39339 -0.75689,0.58639 -1.1895,0.4375 l -4.164,-1.406 c -1.2514,0.99995 -2.6779,1.8139 -4.1953,2.4062 l -0.84375,4.2812 c -0.086,0.449 -0.514,0.807 -0.971,0.813 l -8.0156,0 c -0.45702,-0.0062 -0.88505,-0.36436 -0.9707,-0.8125 l -0.84375,-4.2812 c -1.517,-0.593 -2.943,-1.407 -4.195,-2.407 l -4.1641,1.4062 c -0.43256,0.14889 -0.95705,-0.04408 -1.1895,-0.4375 l -4,-6.9219 z" />
</svg>
