<?xml version="1.0" encoding="UTF-8" standalone="no"?>
<svg
   xmlns:dc="http://purl.org/dc/elements/1.1/"
   xmlns:cc="http://creativecommons.org/ns#"
   xmlns:rdf="http://www.w3.org/1999/02/22-rdf-syntax-ns#"
   xmlns:svg="http://www.w3.org/2000/svg"
   xmlns="http://www.w3.org/2000/svg"
   version="1.0"
   width="48"
   height="48"
   id="svg2817">
  <defs
     id="defs218" />
  <metadata
     id="metadata57">
    <rdf:RDF>
      <cc:Work
         rdf:about="">
        <dc:format>image/svg+xml</dc:format>
        <dc:type
           rdf:resource="http://purl.org/dc/dcmitype/StillImage" />
        <dc:title />
      </cc:Work>
    </rdf:RDF>
  </metadata>
  <text
     fill="#000000"
     font-family="'Bitstream Vera Sans'"
     x="877.22626"
     y="10.812601"
     xml:space="preserve"
     font-size="12.666px"
     opacity=".8"
     id="text4087-2-6-5"><tspan
       x="877.22626"
       y="10.812601"
       id="tspan4089-7-2-9" /></text>
  <text
     fill="#000000"
     font-family="'Bitstream Vera Sans'"
     x="901.18719"
     y="-29.929106"
     xml:space="preserve"
     font-size="12.666px"
     opacity=".8"
     id="text4087-2-6-5-5"><tspan
       x="901.18719"
       y="-29.929106"
       id="tspan4089-7-2-9-6" /></text>
  <text
     fill="#000000"
     font-family="'Bitstream Vera Sans'"
     x="-569.37115"
     y="-60.007248"
     xml:space="preserve"
     font-size="12.666px"
     opacity=".8"
     id="text4087-2-6-5-2"><tspan
       x="-569.37115"
       y="-60.007248"
       id="tspan4089-7-2-9-2" /></text>
  <text
     fill="#000000"
     font-family="'Bitstream Vera Sans'"
     x="-2393.0571"
     y="685.5462"
     xml:space="preserve"
     font-size="12.666px"
     opacity=".8"
     id="text4087-2-6-5-59"><tspan
       x="-2393.0571"
       y="685.5462"
       id="tspan4089-7-2-9-4" /></text>
  <text
     fill="#000000"
     font-family="'Bitstream Vera Sans'"
     x="-454.88007"
     y="-445.32822"
     xml:space="preserve"
     font-size="12.666px"
     opacity=".8"
     id="text4087-2-6-5-1"><tspan
       x="-454.88007"
       y="-445.32822"
       id="tspan4089-7-2-9-7" /></text>
  <text
     fill="#000000"
     font-family="'Bitstream Vera Sans'"
     x="352.72208"
     y="-858.79834"
     xml:space="preserve"
     font-size="12.666px"
     opacity=".8"
     id="text4087-2-6-5-7"><tspan
       x="352.72208"
       y="-858.79834"
       id="tspan4089-7-2-9-1" /></text>
  <text
     fill="#000000"
     font-family="'Bitstream Vera Sans'"
     x="376.68301"
     y="-899.54004"
     xml:space="preserve"
     font-size="12.666px"
     opacity=".8"
     id="text4087-2-6-5-5-3"><tspan
       x="376.68301"
       y="-899.54004"
       id="tspan4089-7-2-9-6-5" /></text>
  <text
     fill="#000000"
     font-family="'Bitstream Vera Sans'"
     x="-1114.7802"
     y="-906.74994"
     xml:space="preserve"
     font-size="12.666px"
     opacity=".8"
     id="text4087-2-6-5-3"><tspan
       x="-1114.7802"
       y="-906.74994"
       id="tspan4089-7-2-9-18" /></text>
  <text
     fill="#000000"
     font-family="'Bitstream Vera Sans'"
     x="345.7626"
     y="-1179.9841"
     xml:space="preserve"
     font-size="12.666px"
     opacity=".8"
     id="text4087-2-6-5-4"><tspan
       x="345.7626"
       y="-1179.9841"
       id="tspan4089-7-2-9-9" /></text>
  <text
     fill="#000000"
     font-family="'Bitstream Vera Sans'"
     x="1831.8861"
     y="-553.29272"
     xml:space="preserve"
     font-size="12.666px"
     opacity=".8"
     id="text4087-2-6-5-7-1"><tspan
       x="1831.8861"
       y="-553.29272"
       id="tspan4089-7-2-9-1-8" /></text>
  <text
     fill="#000000"
     font-family="'Bitstream Vera Sans'"
     x="1855.8469"
     y="-594.03448"
     xml:space="preserve"
     font-size="12.666px"
     opacity=".8"
     id="text4087-2-6-5-5-5"><tspan
       x="1855.8469"
       y="-594.03448"
       id="tspan4089-7-2-9-6-9" /></text>
  <text
     fill="#000000"
     font-family="'Bitstream Vera Sans'"
     x="364.38376"
     y="-601.24438"
     xml:space="preserve"
     font-size="12.666px"
     opacity=".8"
     id="text4087-2-6-5-75"><tspan
       x="364.38376"
       y="-601.24438"
       id="tspan4089-7-2-9-3" /></text>
  <text
     fill="#000000"
     font-family="'Bitstream Vera Sans'"
     x="1824.9266"
     y="-874.47839"
     xml:space="preserve"
     font-size="12.666px"
     opacity=".8"
     id="text4087-2-6-5-4-8"><tspan
       x="1824.9266"
       y="-874.47839"
       id="tspan4089-7-2-9-9-8" /></text>
  <text
     fill="#000000"
     font-family="'Bitstream Vera Sans'"
     x="-573.43256"
     y="-649.33569"
     xml:space="preserve"
     font-size="12.666px"
     opacity=".8"
     id="text4087-2-6-5-45"><tspan
       x="-573.43256"
       y="-649.33569"
       id="tspan4089-7-2-9-75" /></text>
  <text
     fill="#000000"
     font-family="'Bitstream Vera Sans'"
     x="-2397.1182"
     y="96.217857"
     xml:space="preserve"
     font-size="12.666px"
     opacity=".8"
     id="text4087-2-6-5-59-7"><tspan
       x="-2397.1182"
       y="96.217857"
       id="tspan4089-7-2-9-4-0" /></text>
  <text
     fill="#000000"
     font-family="'Bitstream Vera Sans'"
     x="-682.36279"
     y="189.09"
     xml:space="preserve"
     font-size="12.666px"
     opacity=".8"
     id="text4087-2-6-5-8"><tspan
       x="-682.36279"
       y="189.09"
       id="tspan4089-7-2-9-19" /></text>
  <text
     fill="#000000"
     font-family="'Bitstream Vera Sans'"
     x="426.66153"
     y="9.9078522"
     xml:space="preserve"
     font-size="12.666px"
     opacity=".8"
     id="text4087-2-6-5-7-5"><tspan
       x="426.66153"
       y="9.9078522"
       id="tspan4089-7-2-9-1-2" /></text>
  <text
     fill="#000000"
     font-family="'Bitstream Vera Sans'"
     x="450.62247"
     y="-30.833855"
     xml:space="preserve"
     font-size="12.666px"
     opacity=".8"
     id="text4087-2-6-5-5-0"><tspan
       x="450.62247"
       y="-30.833855"
       id="tspan4089-7-2-9-6-2" /></text>
  <text
     fill="#000000"
     font-family="'Bitstream Vera Sans'"
     x="-1040.8407"
     y="-38.043827"
     xml:space="preserve"
     font-size="12.666px"
     opacity=".8"
     id="text4087-2-6-5-26"><tspan
       x="-1040.8407"
       y="-38.043827"
       id="tspan4089-7-2-9-90" /></text>
  <text
     fill="#000000"
     font-family="'Bitstream Vera Sans'"
     x="419.70206"
     y="-311.27789"
     xml:space="preserve"
     font-size="12.666px"
     opacity=".8"
     id="text4087-2-6-5-4-3"><tspan
       x="419.70206"
       y="-311.27789"
       id="tspan4089-7-2-9-9-5" /></text>
  <text
     fill="#000000"
     font-family="'Bitstream Vera Sans'"
     x="-608.03253"
     y="-40.758072"
     xml:space="preserve"
     font-size="12.666px"
     opacity=".8"
     id="text4087-2-6-5-55"><tspan
       x="-608.03253"
       y="-40.758072"
       id="tspan4089-7-2-9-32" /></text>
  <text
     fill="#000000"
     font-family="'Bitstream Vera Sans'"
     x="-2431.7185"
     y="704.79541"
     xml:space="preserve"
     font-size="12.666px"
     opacity=".8"
     id="text4087-2-6-5-59-9"><tspan
       x="-2431.7185"
       y="704.79541"
       id="tspan4089-7-2-9-4-1" /></text>
  <text
     fill="#000000"
     font-family="'Bitstream Vera Sans'"
     x="-456.93948"
     y="-902.28857"
     xml:space="preserve"
     font-size="12.666px"
     opacity=".8"
     id="text4087-2-6-5-1-8"><tspan
       x="-456.93948"
       y="-902.28857"
       id="tspan4089-7-2-9-7-8" /></text>
  <text
     fill="#000000"
     font-family="'Bitstream Vera Sans'"
     x="350.66266"
     y="-1315.7588"
     xml:space="preserve"
     font-size="12.666px"
     opacity=".8"
     id="text4087-2-6-5-7-8"><tspan
       x="350.66266"
       y="-1315.7588"
       id="tspan4089-7-2-9-1-9" /></text>
  <text
     fill="#000000"
     font-family="'Bitstream Vera Sans'"
     x="374.62357"
     y="-1356.5005"
     xml:space="preserve"
     font-size="12.666px"
     opacity=".8"
     id="text4087-2-6-5-5-52"><tspan
       x="374.62357"
       y="-1356.5005"
       id="tspan4089-7-2-9-6-4" /></text>
  <text
     fill="#000000"
     font-family="'Bitstream Vera Sans'"
     x="-1116.8396"
     y="-1363.7104"
     xml:space="preserve"
     font-size="12.666px"
     opacity=".8"
     id="text4087-2-6-5-3-4"><tspan
       x="-1116.8396"
       y="-1363.7104"
       id="tspan4089-7-2-9-18-3" /></text>
  <text
     fill="#000000"
     font-family="'Bitstream Vera Sans'"
     x="343.70316"
     y="-1636.9446"
     xml:space="preserve"
     font-size="12.666px"
     opacity=".8"
     id="text4087-2-6-5-4-7"><tspan
       x="343.70316"
       y="-1636.9446"
       id="tspan4089-7-2-9-9-54" /></text>
  <text
     fill="#000000"
     font-family="'Bitstream Vera Sans'"
     x="1829.8265"
     y="-1010.2533"
     xml:space="preserve"
     font-size="12.666px"
     opacity=".8"
     id="text4087-2-6-5-7-1-2"><tspan
       x="1829.8265"
       y="-1010.2533"
       id="tspan4089-7-2-9-1-8-0" /></text>
  <text
     fill="#000000"
     font-family="'Bitstream Vera Sans'"
     x="1853.7874"
     y="-1050.9949"
     xml:space="preserve"
     font-size="12.666px"
     opacity=".8"
     id="text4087-2-6-5-5-5-6"><tspan
       x="1853.7874"
       y="-1050.9949"
       id="tspan4089-7-2-9-6-9-8" /></text>
  <text
     fill="#000000"
     font-family="'Bitstream Vera Sans'"
     x="362.32431"
     y="-1058.2048"
     xml:space="preserve"
     font-size="12.666px"
     opacity=".8"
     id="text4087-2-6-5-75-4"><tspan
       x="362.32431"
       y="-1058.2048"
       id="tspan4089-7-2-9-3-9" /></text>
  <text
     fill="#000000"
     font-family="'Bitstream Vera Sans'"
     x="1822.8671"
     y="-1331.439"
     xml:space="preserve"
     font-size="12.666px"
     opacity=".8"
     id="text4087-2-6-5-4-8-1"><tspan
       x="1822.8671"
       y="-1331.439"
       id="tspan4089-7-2-9-9-8-8" /></text>
  <text
     fill="#000000"
     font-family="'Bitstream Vera Sans'"
     x="-575.492"
     y="-1106.2961"
     xml:space="preserve"
     font-size="12.666px"
     opacity=".8"
     id="text4087-2-6-5-45-0"><tspan
       x="-575.492"
       y="-1106.2961"
       id="tspan4089-7-2-9-75-2" /></text>
  <text
     fill="#000000"
     font-family="'Bitstream Vera Sans'"
     x="-2399.1777"
     y="-360.74261"
     xml:space="preserve"
     font-size="12.666px"
     opacity=".8"
     id="text4087-2-6-5-59-5"><tspan
       x="-2399.1777"
       y="-360.74261"
       id="tspan4089-7-2-9-4-00" /></text>
  <text
     fill="#000000"
     font-family="'Bitstream Vera Sans'"
     x="-684.42224"
     y="-267.87045"
     xml:space="preserve"
     font-size="12.666px"
     opacity=".8"
     id="text4087-2-6-5-264"><tspan
       x="-684.42224"
       y="-267.87045"
       id="tspan4089-7-2-9-8" /></text>
  <text
     fill="#000000"
     font-family="'Bitstream Vera Sans'"
     x="155.5923"
     y="-26.956278"
     xml:space="preserve"
     font-size="12.666px"
     opacity=".8"
     id="text4087-2-6-5-42"><tspan
       x="155.5923"
       y="-26.956278"
       id="tspan4089-7-2-9-93" /></text>
  <text
     fill="#000000"
     font-family="'Bitstream Vera Sans'"
     x="179.55324"
     y="-67.697998"
     xml:space="preserve"
     font-size="12.666px"
     opacity=".8"
     id="text4087-2-6-5-5-05"><tspan
       x="179.55324"
       y="-67.697998"
       id="tspan4089-7-2-9-6-49" /></text>
  <text
     fill="#000000"
     font-family="'Bitstream Vera Sans'"
     x="-1090.2634"
     y="-261.72662"
     xml:space="preserve"
     font-size="12.666px"
     opacity=".8"
     id="text4087-2-6-5-1-4"><tspan
       x="-1090.2634"
       y="-261.72662"
       id="tspan4089-7-2-9-7-7" /></text>
  <text
     fill="#000000"
     font-family="'Bitstream Vera Sans'"
     x="-282.66141"
     y="-675.19678"
     xml:space="preserve"
     font-size="12.666px"
     opacity=".8"
     id="text4087-2-6-5-7-56"><tspan
       x="-282.66141"
       y="-675.19678"
       id="tspan4089-7-2-9-1-1" /></text>
  <text
     fill="#000000"
     font-family="'Bitstream Vera Sans'"
     x="-258.70047"
     y="-715.93848"
     xml:space="preserve"
     font-size="12.666px"
     opacity=".8"
     id="text4087-2-6-5-5-8"><tspan
       x="-258.70047"
       y="-715.93848"
       id="tspan4089-7-2-9-6-7" /></text>
  <text
     fill="#000000"
     font-family="'Bitstream Vera Sans'"
     x="-1750.1636"
     y="-723.14838"
     xml:space="preserve"
     font-size="12.666px"
     opacity=".8"
     id="text4087-2-6-5-3-42"><tspan
       x="-1750.1636"
       y="-723.14838"
       id="tspan4089-7-2-9-18-39" /></text>
  <text
     fill="#000000"
     font-family="'Bitstream Vera Sans'"
     x="-289.62085"
     y="-996.38251"
     xml:space="preserve"
     font-size="12.666px"
     opacity=".8"
     id="text4087-2-6-5-4-4"><tspan
       x="-289.62085"
       y="-996.38251"
       id="tspan4089-7-2-9-9-3" /></text>
  <text
     fill="#000000"
     font-family="'Bitstream Vera Sans'"
     x="1196.5026"
     y="-369.69113"
     xml:space="preserve"
     font-size="12.666px"
     opacity=".8"
     id="text4087-2-6-5-7-1-0"><tspan
       x="1196.5026"
       y="-369.69113"
       id="tspan4089-7-2-9-1-8-5" /></text>
  <text
     fill="#000000"
     font-family="'Bitstream Vera Sans'"
     x="1220.4634"
     y="-410.43286"
     xml:space="preserve"
     font-size="12.666px"
     opacity=".8"
     id="text4087-2-6-5-5-5-5"><tspan
       x="1220.4634"
       y="-410.43286"
       id="tspan4089-7-2-9-6-9-2" /></text>
  <text
     fill="#000000"
     font-family="'Bitstream Vera Sans'"
     x="-270.99973"
     y="-417.64282"
     xml:space="preserve"
     font-size="12.666px"
     opacity=".8"
     id="text4087-2-6-5-75-9"><tspan
       x="-270.99973"
       y="-417.64282"
       id="tspan4089-7-2-9-3-1" /></text>
  <text
     fill="#000000"
     font-family="'Bitstream Vera Sans'"
     x="1189.5431"
     y="-690.87689"
     xml:space="preserve"
     font-size="12.666px"
     opacity=".8"
     id="text4087-2-6-5-4-8-18"><tspan
       x="1189.5431"
       y="-690.87689"
       id="tspan4089-7-2-9-9-8-4" /></text>
  <text
     fill="#000000"
     font-family="'Bitstream Vera Sans'"
     x="-1208.816"
     y="-465.7341"
     xml:space="preserve"
     font-size="12.666px"
     opacity=".8"
     id="text4087-2-6-5-45-3"><tspan
       x="-1208.816"
       y="-465.7341"
       id="tspan4089-7-2-9-75-7" /></text>
  <text
     fill="#000000"
     font-family="'Bitstream Vera Sans'"
     x="-3032.5017"
     y="279.81946"
     xml:space="preserve"
     font-size="12.666px"
     opacity=".8"
     id="text4087-2-6-5-59-8"><tspan
       x="-3032.5017"
       y="279.81946"
       id="tspan4089-7-2-9-4-2" /></text>
  <g
     transform="matrix(.90475 0 0 .90475 -716.75 -676.29)"
     id="layer4-0">
    <text
       fill="#000000"
       font-family="'Bitstream Vera Sans'"
       x="-664.2738"
       y="1159.4154"
       xml:space="preserve"
       font-size="14px"
       opacity=".8"
       id="text4087-2-6-5-20"><tspan
         x="-664.2738"
         y="1159.4154"
         id="tspan4089-7-2-9-82" /></text>
  </g>
  <text
     fill="#000000"
     font-family="'Bitstream Vera Sans'"
     x="877.22626"
     y="18.050589"
     xml:space="preserve"
     font-size="12.666px"
     opacity=".8"
     id="text4087-2-6-5-9"><tspan
       x="877.22626"
       y="18.050589"
       id="tspan4089-7-2-9-43" /></text>
  <text
     fill="#000000"
     font-family="'Bitstream Vera Sans'"
     x="901.18719"
     y="-22.691116"
     xml:space="preserve"
     font-size="12.666px"
     opacity=".8"
     id="text4087-2-6-5-5-51"><tspan
       x="901.18719"
       y="-22.691116"
       id="tspan4089-7-2-9-6-74" /></text>
  <text
     fill="#000000"
     font-family="'Bitstream Vera Sans'"
     x="-569.37115"
     y="-52.76926"
     xml:space="preserve"
     font-size="12.666px"
     opacity=".8"
     id="text4087-2-6-5-2-3"><tspan
       x="-569.37115"
       y="-52.76926"
       id="tspan4089-7-2-9-2-1" /></text>
  <text
     fill="#000000"
     font-family="'Bitstream Vera Sans'"
     x="-2393.0571"
     y="692.78418"
     xml:space="preserve"
     font-size="12.666px"
     opacity=".8"
     id="text4087-2-6-5-59-4"><tspan
       x="-2393.0571"
       y="692.78418"
       id="tspan4089-7-2-9-4-6" /></text>
  <text
     fill="#000000"
     font-family="'Bitstream Vera Sans'"
     x="-454.88007"
     y="-438.09021"
     xml:space="preserve"
     font-size="12.666px"
     opacity=".8"
     id="text4087-2-6-5-1-9"><tspan
       x="-454.88007"
       y="-438.09021"
       id="tspan4089-7-2-9-7-4" /></text>
  <text
     fill="#000000"
     font-family="'Bitstream Vera Sans'"
     x="352.72208"
     y="-851.5603"
     xml:space="preserve"
     font-size="12.666px"
     opacity=".8"
     id="text4087-2-6-5-7-2"><tspan
       x="352.72208"
       y="-851.5603"
       id="tspan4089-7-2-9-1-26" /></text>
  <text
     fill="#000000"
     font-family="'Bitstream Vera Sans'"
     x="376.68301"
     y="-892.30206"
     xml:space="preserve"
     font-size="12.666px"
     opacity=".8"
     id="text4087-2-6-5-5-3-4"><tspan
       x="376.68301"
       y="-892.30206"
       id="tspan4089-7-2-9-6-5-1" /></text>
  <text
     fill="#000000"
     font-family="'Bitstream Vera Sans'"
     x="-1114.7802"
     y="-899.51196"
     xml:space="preserve"
     font-size="12.666px"
     opacity=".8"
     id="text4087-2-6-5-3-2"><tspan
       x="-1114.7802"
       y="-899.51196"
       id="tspan4089-7-2-9-18-8" /></text>
  <text
     fill="#000000"
     font-family="'Bitstream Vera Sans'"
     x="345.7626"
     y="-1172.7461"
     xml:space="preserve"
     font-size="12.666px"
     opacity=".8"
     id="text4087-2-6-5-4-89"><tspan
       x="345.7626"
       y="-1172.7461"
       id="tspan4089-7-2-9-9-2" /></text>
  <text
     fill="#000000"
     font-family="'Bitstream Vera Sans'"
     x="1831.8861"
     y="-546.05475"
     xml:space="preserve"
     font-size="12.666px"
     opacity=".8"
     id="text4087-2-6-5-7-1-8"><tspan
       x="1831.8861"
       y="-546.05475"
       id="tspan4089-7-2-9-1-8-8" /></text>
  <text
     fill="#000000"
     font-family="'Bitstream Vera Sans'"
     x="1855.8469"
     y="-586.79651"
     xml:space="preserve"
     font-size="12.666px"
     opacity=".8"
     id="text4087-2-6-5-5-5-8"><tspan
       x="1855.8469"
       y="-586.79651"
       id="tspan4089-7-2-9-6-9-6" /></text>
  <text
     fill="#000000"
     font-family="'Bitstream Vera Sans'"
     x="364.38376"
     y="-594.00641"
     xml:space="preserve"
     font-size="12.666px"
     opacity=".8"
     id="text4087-2-6-5-75-8"><tspan
       x="364.38376"
       y="-594.00641"
       id="tspan4089-7-2-9-3-3" /></text>
  <text
     fill="#000000"
     font-family="'Bitstream Vera Sans'"
     x="1824.9266"
     y="-867.24036"
     xml:space="preserve"
     font-size="12.666px"
     opacity=".8"
     id="text4087-2-6-5-4-8-8"><tspan
       x="1824.9266"
       y="-867.24036"
       id="tspan4089-7-2-9-9-8-3" /></text>
  <text
     fill="#000000"
     font-family="'Bitstream Vera Sans'"
     x="-573.43256"
     y="-642.09772"
     xml:space="preserve"
     font-size="12.666px"
     opacity=".8"
     id="text4087-2-6-5-45-33"><tspan
       x="-573.43256"
       y="-642.09772"
       id="tspan4089-7-2-9-75-8" /></text>
  <text
     fill="#000000"
     font-family="'Bitstream Vera Sans'"
     x="-2397.1182"
     y="103.45585"
     xml:space="preserve"
     font-size="12.666px"
     opacity=".8"
     id="text4087-2-6-5-59-7-0"><tspan
       x="-2397.1182"
       y="103.45585"
       id="tspan4089-7-2-9-4-0-4" /></text>
  <text
     fill="#000000"
     font-family="'Bitstream Vera Sans'"
     x="-682.36279"
     y="196.32799"
     xml:space="preserve"
     font-size="12.666px"
     opacity=".8"
     id="text4087-2-6-5-8-7"><tspan
       x="-682.36279"
       y="196.32799"
       id="tspan4089-7-2-9-19-6" /></text>
  <text
     fill="#000000"
     font-family="'Bitstream Vera Sans'"
     x="426.66153"
     y="17.14584"
     xml:space="preserve"
     font-size="12.666px"
     opacity=".8"
     id="text4087-2-6-5-7-5-8"><tspan
       x="426.66153"
       y="17.14584"
       id="tspan4089-7-2-9-1-2-9" /></text>
  <text
     fill="#000000"
     font-family="'Bitstream Vera Sans'"
     x="450.62247"
     y="-23.595865"
     xml:space="preserve"
     font-size="12.666px"
     opacity=".8"
     id="text4087-2-6-5-5-0-0"><tspan
       x="450.62247"
       y="-23.595865"
       id="tspan4089-7-2-9-6-2-6" /></text>
  <text
     fill="#000000"
     font-family="'Bitstream Vera Sans'"
     x="-1040.8407"
     y="-30.805836"
     xml:space="preserve"
     font-size="12.666px"
     opacity=".8"
     id="text4087-2-6-5-26-8"><tspan
       x="-1040.8407"
       y="-30.805836"
       id="tspan4089-7-2-9-90-7" /></text>
  <text
     fill="#000000"
     font-family="'Bitstream Vera Sans'"
     x="419.70206"
     y="-304.03989"
     xml:space="preserve"
     font-size="12.666px"
     opacity=".8"
     id="text4087-2-6-5-4-3-9"><tspan
       x="419.70206"
       y="-304.03989"
       id="tspan4089-7-2-9-9-5-0" /></text>
  <text
     fill="#000000"
     font-family="'Bitstream Vera Sans'"
     x="-608.03253"
     y="-33.520081"
     xml:space="preserve"
     font-size="12.666px"
     opacity=".8"
     id="text4087-2-6-5-55-3"><tspan
       x="-608.03253"
       y="-33.520081"
       id="tspan4089-7-2-9-32-3" /></text>
  <text
     fill="#000000"
     font-family="'Bitstream Vera Sans'"
     x="-2431.7185"
     y="712.03345"
     xml:space="preserve"
     font-size="12.666px"
     opacity=".8"
     id="text4087-2-6-5-59-9-3"><tspan
       x="-2431.7185"
       y="712.03345"
       id="tspan4089-7-2-9-4-1-7" /></text>
  <text
     fill="#000000"
     font-family="'Bitstream Vera Sans'"
     x="-456.93948"
     y="-895.0506"
     xml:space="preserve"
     font-size="12.666px"
     opacity=".8"
     id="text4087-2-6-5-1-8-3"><tspan
       x="-456.93948"
       y="-895.0506"
       id="tspan4089-7-2-9-7-8-2" /></text>
  <text
     fill="#000000"
     font-family="'Bitstream Vera Sans'"
     x="350.66266"
     y="-1308.5208"
     xml:space="preserve"
     font-size="12.666px"
     opacity=".8"
     id="text4087-2-6-5-7-8-6"><tspan
       x="350.66266"
       y="-1308.5208"
       id="tspan4089-7-2-9-1-9-5" /></text>
  <text
     fill="#000000"
     font-family="'Bitstream Vera Sans'"
     x="374.62357"
     y="-1349.2626"
     xml:space="preserve"
     font-size="12.666px"
     opacity=".8"
     id="text4087-2-6-5-5-52-2"><tspan
       x="374.62357"
       y="-1349.2626"
       id="tspan4089-7-2-9-6-4-6" /></text>
  <text
     fill="#000000"
     font-family="'Bitstream Vera Sans'"
     x="-1116.8396"
     y="-1356.4724"
     xml:space="preserve"
     font-size="12.666px"
     opacity=".8"
     id="text4087-2-6-5-3-4-5"><tspan
       x="-1116.8396"
       y="-1356.4724"
       id="tspan4089-7-2-9-18-3-8" /></text>
  <text
     fill="#000000"
     font-family="'Bitstream Vera Sans'"
     x="343.70316"
     y="-1629.7065"
     xml:space="preserve"
     font-size="12.666px"
     opacity=".8"
     id="text4087-2-6-5-4-7-7"><tspan
       x="343.70316"
       y="-1629.7065"
       id="tspan4089-7-2-9-9-54-9" /></text>
  <text
     fill="#000000"
     font-family="'Bitstream Vera Sans'"
     x="1829.8265"
     y="-1003.0153"
     xml:space="preserve"
     font-size="12.666px"
     opacity=".8"
     id="text4087-2-6-5-7-1-2-6"><tspan
       x="1829.8265"
       y="-1003.0153"
       id="tspan4089-7-2-9-1-8-0-0" /></text>
  <text
     fill="#000000"
     font-family="'Bitstream Vera Sans'"
     x="1853.7874"
     y="-1043.757"
     xml:space="preserve"
     font-size="12.666px"
     opacity=".8"
     id="text4087-2-6-5-5-5-6-4"><tspan
       x="1853.7874"
       y="-1043.757"
       id="tspan4089-7-2-9-6-9-8-1" /></text>
  <text
     fill="#000000"
     font-family="'Bitstream Vera Sans'"
     x="362.32431"
     y="-1050.9668"
     xml:space="preserve"
     font-size="12.666px"
     opacity=".8"
     id="text4087-2-6-5-75-4-0"><tspan
       x="362.32431"
       y="-1050.9668"
       id="tspan4089-7-2-9-3-9-4" /></text>
  <text
     fill="#000000"
     font-family="'Bitstream Vera Sans'"
     x="1822.8671"
     y="-1324.2009"
     xml:space="preserve"
     font-size="12.666px"
     opacity=".8"
     id="text4087-2-6-5-4-8-1-8"><tspan
       x="1822.8671"
       y="-1324.2009"
       id="tspan4089-7-2-9-9-8-8-7" /></text>
  <text
     fill="#000000"
     font-family="'Bitstream Vera Sans'"
     x="-575.492"
     y="-1099.0581"
     xml:space="preserve"
     font-size="12.666px"
     opacity=".8"
     id="text4087-2-6-5-45-0-0"><tspan
       x="-575.492"
       y="-1099.0581"
       id="tspan4089-7-2-9-75-2-8" /></text>
  <text
     fill="#000000"
     font-family="'Bitstream Vera Sans'"
     x="-2399.1777"
     y="-353.50461"
     xml:space="preserve"
     font-size="12.666px"
     opacity=".8"
     id="text4087-2-6-5-59-5-6"><tspan
       x="-2399.1777"
       y="-353.50461"
       id="tspan4089-7-2-9-4-00-2" /></text>
  <text
     fill="#000000"
     font-family="'Bitstream Vera Sans'"
     x="-684.42224"
     y="-260.63245"
     xml:space="preserve"
     font-size="12.666px"
     opacity=".8"
     id="text4087-2-6-5-264-4"><tspan
       x="-684.42224"
       y="-260.63245"
       id="tspan4089-7-2-9-8-7" /></text>
  <text
     fill="#000000"
     font-family="'Bitstream Vera Sans'"
     x="155.5923"
     y="-19.71829"
     xml:space="preserve"
     font-size="12.666px"
     opacity=".8"
     id="text4087-2-6-5-42-9"><tspan
       x="155.5923"
       y="-19.71829"
       id="tspan4089-7-2-9-93-3" /></text>
  <text
     fill="#000000"
     font-family="'Bitstream Vera Sans'"
     x="179.55324"
     y="-60.460011"
     xml:space="preserve"
     font-size="12.666px"
     opacity=".8"
     id="text4087-2-6-5-5-05-9"><tspan
       x="179.55324"
       y="-60.460011"
       id="tspan4089-7-2-9-6-49-2" /></text>
  <text
     fill="#000000"
     font-family="'Bitstream Vera Sans'"
     x="-1090.2634"
     y="-254.4886"
     xml:space="preserve"
     font-size="12.666px"
     opacity=".8"
     id="text4087-2-6-5-1-4-8"><tspan
       x="-1090.2634"
       y="-254.4886"
       id="tspan4089-7-2-9-7-7-3" /></text>
  <text
     fill="#000000"
     font-family="'Bitstream Vera Sans'"
     x="-282.66141"
     y="-667.9588"
     xml:space="preserve"
     font-size="12.666px"
     opacity=".8"
     id="text4087-2-6-5-7-56-0"><tspan
       x="-282.66141"
       y="-667.9588"
       id="tspan4089-7-2-9-1-1-1" /></text>
  <text
     fill="#000000"
     font-family="'Bitstream Vera Sans'"
     x="-258.70047"
     y="-708.7005"
     xml:space="preserve"
     font-size="12.666px"
     opacity=".8"
     id="text4087-2-6-5-5-8-7"><tspan
       x="-258.70047"
       y="-708.7005"
       id="tspan4089-7-2-9-6-7-8" /></text>
  <text
     fill="#000000"
     font-family="'Bitstream Vera Sans'"
     x="-1750.1636"
     y="-715.91046"
     xml:space="preserve"
     font-size="12.666px"
     opacity=".8"
     id="text4087-2-6-5-3-42-9"><tspan
       x="-1750.1636"
       y="-715.91046"
       id="tspan4089-7-2-9-18-39-1" /></text>
  <text
     fill="#000000"
     font-family="'Bitstream Vera Sans'"
     x="-289.62085"
     y="-989.14447"
     xml:space="preserve"
     font-size="12.666px"
     opacity=".8"
     id="text4087-2-6-5-4-4-5"><tspan
       x="-289.62085"
       y="-989.14447"
       id="tspan4089-7-2-9-9-3-4" /></text>
  <text
     fill="#000000"
     font-family="'Bitstream Vera Sans'"
     x="1196.5026"
     y="-362.45316"
     xml:space="preserve"
     font-size="12.666px"
     opacity=".8"
     id="text4087-2-6-5-7-1-0-9"><tspan
       x="1196.5026"
       y="-362.45316"
       id="tspan4089-7-2-9-1-8-5-2" /></text>
  <text
     fill="#000000"
     font-family="'Bitstream Vera Sans'"
     x="1220.4634"
     y="-403.19489"
     xml:space="preserve"
     font-size="12.666px"
     opacity=".8"
     id="text4087-2-6-5-5-5-5-5"><tspan
       x="1220.4634"
       y="-403.19489"
       id="tspan4089-7-2-9-6-9-2-7" /></text>
  <text
     fill="#000000"
     font-family="'Bitstream Vera Sans'"
     x="-270.99973"
     y="-410.40482"
     xml:space="preserve"
     font-size="12.666px"
     opacity=".8"
     id="text4087-2-6-5-75-9-4"><tspan
       x="-270.99973"
       y="-410.40482"
       id="tspan4089-7-2-9-3-1-9" /></text>
  <text
     fill="#000000"
     font-family="'Bitstream Vera Sans'"
     x="1189.5431"
     y="-683.63892"
     xml:space="preserve"
     font-size="12.666px"
     opacity=".8"
     id="text4087-2-6-5-4-8-18-9"><tspan
       x="1189.5431"
       y="-683.63892"
       id="tspan4089-7-2-9-9-8-4-4" /></text>
  <text
     fill="#000000"
     font-family="'Bitstream Vera Sans'"
     x="-1208.816"
     y="-458.49609"
     xml:space="preserve"
     font-size="12.666px"
     opacity=".8"
     id="text4087-2-6-5-45-3-5"><tspan
       x="-1208.816"
       y="-458.49609"
       id="tspan4089-7-2-9-75-7-9" /></text>
  <text
     fill="#000000"
     font-family="'Bitstream Vera Sans'"
     x="-3032.5017"
     y="287.05743"
     xml:space="preserve"
     font-size="12.666px"
     opacity=".8"
     id="text4087-2-6-5-59-8-3"><tspan
       x="-3032.5017"
       y="287.05743"
       id="tspan4089-7-2-9-4-2-5" /></text>
  <g
     transform="matrix(.90475 0 0 .90475 -716.75 -669.05)"
     id="layer4-0-7">
    <text
       fill="#000000"
       font-family="'Bitstream Vera Sans'"
       x="-664.2738"
       y="1159.4154"
       xml:space="preserve"
       font-size="14px"
       opacity=".8"
       id="text4087-2-6-5-20-0"><tspan
         x="-664.2738"
         y="1159.4154"
         id="tspan4089-7-2-9-82-8" /></text>
  </g>
  <text
     fill="#000000"
     font-family="'Droid Sans'"
     x="435.90427"
     y="-361.22546"
     xml:space="preserve"
     font-size="12.666px"
     id="text7276"><tspan
       x="435.90427"
       y="-361.22546"
       id="tspan7278" /><tspan
       x="435.90427"
       y="-345.3924"
       id="tspan7280" /></text>
  <text
     fill="#000000"
     font-family="'Bitstream Vera Sans'"
     x="901.0882"
     y="-843.27002"
     xml:space="preserve"
     font-size="12.666px"
     opacity=".8"
     id="text4087-2-6-5-51"><tspan
       x="901.0882"
       y="-843.27002"
       id="tspan4089-7-2-9-97" /></text>
  <text
     fill="#000000"
     font-family="'Bitstream Vera Sans'"
     x="-922.59778"
     y="-97.716553"
     xml:space="preserve"
     font-size="12.666px"
     opacity=".8"
     id="text4087-2-6-5-59-2"><tspan
       x="-922.59778"
       y="-97.716553"
       id="tspan4089-7-2-9-4-4" /></text>
  <text
     fill="#000000"
     font-family="'Bitstream Vera Sans'"
     x="1628.1677"
     y="-1128.2659"
     xml:space="preserve"
     font-size="12.666px"
     opacity=".8"
     id="text4087-2-6-5-7-7"><tspan
       x="1628.1677"
       y="-1128.2659"
       id="tspan4089-7-2-9-1-6" /></text>
  <text
     fill="#000000"
     font-family="'Bitstream Vera Sans'"
     x="1652.1285"
     y="-1169.0076"
     xml:space="preserve"
     font-size="12.666px"
     opacity=".8"
     id="text4087-2-6-5-5-6"><tspan
       x="1652.1285"
       y="-1169.0076"
       id="tspan4089-7-2-9-6-53" /></text>
  <text
     fill="#000000"
     font-family="'Bitstream Vera Sans'"
     x="160.66542"
     y="-1176.2175"
     xml:space="preserve"
     font-size="12.666px"
     opacity=".8"
     id="text4087-2-6-5-54"><tspan
       x="160.66542"
       y="-1176.2175"
       id="tspan4089-7-2-9-0" /></text>
  <text
     fill="#000000"
     font-family="'Bitstream Vera Sans'"
     x="1621.2083"
     y="-1449.4517"
     xml:space="preserve"
     font-size="12.666px"
     opacity=".8"
     id="text4087-2-6-5-4-1"><tspan
       x="1621.2083"
       y="-1449.4517"
       id="tspan4089-7-2-9-9-28" /></text>
  <path
     id="path4352"
     d="M 19.898,4 C 19.474,4.0462 19.099,4.3931 19.021,4.8125 L 18.178,9.0938 C 16.66,9.6861 15.234,10.5 13.982,11.5 L 9.8184,10.094 C 9.3858,9.9449 8.8613,10.138 8.6289,10.531 l -4.0078,6.938 c -0.2257,0.399 -0.1273,0.951 0.2207,1.25 l 3.3184,2.906 C 8.0433,22.404 7.9707,23.188 7.9707,24 c 0,0.812 0.0726,1.596 0.1895,2.375 l -3.3184,2.906 c -0.348,0.299 -0.4464,0.851 -0.2207,1.25 l 4.0078,6.938 c 0.2324,0.393 0.7569,0.586 1.1895,0.437 L 13.982,36.5 c 1.252,1 2.678,1.814 4.196,2.406 l 0.843,4.282 c 0.086,0.448 0.514,0.806 0.971,0.812 l 8.016,0 c 0.457,-0.006 0.885,-0.364 0.971,-0.812 l 0.843,-4.282 C 31.34,38.314 32.766,37.5 34.018,36.5 l 4.164,1.406 c 0.432,0.149 0.957,-0.044 1.189,-0.437 l 4.008,-6.938 c 0.226,-0.399 0.127,-0.951 -0.221,-1.25 L 39.84,26.375 c 0.117,-0.779 0.189,-1.563 0.189,-2.375 0,-0.812 -0.072,-1.596 -0.189,-2.375 l 3.318,-2.906 c 0.348,-0.299 0.447,-0.851 0.221,-1.25 L 39.371,10.531 C 39.139,10.138 38.614,9.9449 38.182,10.094 L 34.018,11.5 C 32.766,10.5 31.34,9.6861 29.822,9.0938 L 28.979,4.8125 C 28.893,4.3644 28.465,4.0062 28.008,4 L 19.992,4 C 19.961,3.999 19.93,3.999 19.898,4 Z"
     style="enable-background:new;fill:#6eaa36;fill-opacity:1" />
  <path
     style="opacity:0.2;fill:#000000;fill-opacity:1;enable-background:new"
     d="m 21,15 0,7 7,-7 5.5,0.9 -9.5,9.1 9.5,9 -5.5,1 -7,-7 0,6 -4,1 0,-19.1 4,-0.9 z"
     id="path4354" />
  <path
     id="path4081"
     d="m 21,14 0,7 7,-7 5.5,0.9 -9.5,9.1 9.5,9 -5.5,1 -7,-7 0,6 -4,1 0,-19.1 4,-0.9 z"
     style="enable-background:new;fill:#ffffff;fill-opacity:1" />
  <path
     id="path4356"
     d="M 19.898438 4 C 19.474438 4.0462 19.099484 4.3931 19.021484 4.8125 L 18.177734 9.09375 C 16.659734 9.68605 15.234422 10.5 13.982422 11.5 L 9.8183594 10.09375 C 9.3857594 9.94465 8.8613062 10.13825 8.6289062 10.53125 L 4.6210938 17.46875 C 4.4518188 17.768 4.4649984 18.153031 4.6289062 18.453125 L 8.6289062 11.53125 C 8.8613062 11.13825 9.3857594 10.94465 9.8183594 11.09375 L 13.982422 12.5 C 15.234422 11.5 16.659734 10.68605 18.177734 10.09375 L 19.021484 5.8125 C 19.099484 5.3931 19.474438 5.0462 19.898438 5 C 19.930437 4.999 19.961187 4.999 19.992188 5 L 28.007812 5 C 28.464812 5.0062 28.892516 5.3644 28.978516 5.8125 L 29.822266 10.09375 C 31.340266 10.68605 32.765578 11.5 34.017578 12.5 L 38.181641 11.09375 C 38.613641 10.94465 39.139094 11.13825 39.371094 11.53125 L 43.371094 18.453125 C 43.535156 18.153031 43.548406 17.768 43.378906 17.46875 L 39.371094 10.53125 C 39.139094 10.13825 38.613641 9.94465 38.181641 10.09375 L 34.017578 11.5 C 32.765578 10.5 31.340266 9.68605 29.822266 9.09375 L 28.978516 4.8125 C 28.892516 4.3644 28.464812 4.0062 28.007812 4 L 19.992188 4 C 19.961187 3.999 19.930437 3.999 19.898438 4 z M 8.0527344 22.53125 C 8.0044588 23.014485 7.9707031 23.500952 7.9707031 24 C 7.9707031 24.169281 7.9861333 24.332944 7.9921875 24.5 C 8.0151738 23.865731 8.0676269 23.241598 8.1601562 22.625 L 8.0527344 22.53125 z M 39.947266 22.53125 L 39.839844 22.625 C 39.932452 23.241598 39.984979 23.865731 40.007812 24.5 C 40.013826 24.332944 40.029297 24.169281 40.029297 24 C 40.029297 23.500952 39.99539 23.014485 39.947266 22.53125 z M 8.0527344 26.46875 L 4.8417969 29.28125 C 4.4937969 29.58025 4.3953937 30.13225 4.6210938 30.53125 L 4.6289062 30.546875 C 4.6835422 30.446844 4.7547969 30.356 4.8417969 30.28125 L 8.1601562 27.375 C 8.115102 27.074767 8.0830079 26.771785 8.0527344 26.46875 z M 39.947266 26.46875 C 39.917087 26.771785 39.884937 27.074767 39.839844 27.375 L 43.158203 30.28125 C 43.245203 30.356 43.316406 30.446844 43.371094 30.546875 L 43.378906 30.53125 C 43.604906 30.13225 43.506203 29.58025 43.158203 29.28125 L 39.947266 26.46875 z "
     style="enable-background:new;fill:#ffffff;fill-opacity:1;opacity:0.2" />
  <path
     id="path4361"
     d="m 4.6289062,18.453125 -0.00781,0.01563 c -0.2257,0.399 -0.1272969,0.951 0.2207031,1.25 l 3.2109375,2.8125 C 8.0830079,22.228215 8.115102,21.925233 8.1601562,21.625 L 4.8417969,18.71875 C 4.7547969,18.644 4.6835422,18.553156 4.6289062,18.453125 Z m 38.7421878,0 C 43.316406,18.553156 43.245203,18.644 43.158203,18.71875 L 39.839844,21.625 c 0.04509,0.300233 0.07724,0.603215 0.107422,0.90625 l 3.210937,-2.8125 c 0.348,-0.299 0.446703,-0.851 0.220703,-1.25 l -0.0078,-0.01563 z M 7.9921875,24.5 c -0.00605,0.167056 -0.021484,0.330719 -0.021484,0.5 0,0.499048 0.033756,0.985515 0.082031,1.46875 L 8.1601562,26.375 C 8.0676269,25.758402 8.0151738,25.134269 7.9921875,24.5 Z m 32.0156245,0 c -0.02283,0.634269 -0.07536,1.258402 -0.167968,1.875 l 0.107422,0.09375 c 0.04812,-0.483235 0.08203,-0.969702 0.08203,-1.46875 0,-0.169281 -0.01547,-0.332944 -0.02148,-0.5 z M 4.6289062,30.546875 C 4.4649984,30.846969 4.4518187,31.232 4.6210938,31.53125 l 4.0078124,6.9375 c 0.2324001,0.393 0.7568532,0.5865 1.1894532,0.4375 L 13.982422,37.5 c 1.252,1 2.677312,1.81425 4.195312,2.40625 l 0.84375,4.28125 c 0.086,0.448 0.513703,0.8065 0.970704,0.8125 l 8.015624,0 c 0.457001,-0.006 0.884704,-0.3645 0.970704,-0.8125 l 0.84375,-4.28125 c 1.518,-0.592 2.943312,-1.40625 4.195312,-2.40625 l 4.164063,1.40625 c 0.432,0.149 0.957453,-0.0445 1.189453,-0.4375 l 4.007812,-6.9375 c 0.1695,-0.29925 0.15625,-0.684281 -0.0078,-0.984375 l -4,6.921875 c -0.232,0.393 -0.757453,0.5865 -1.189453,0.4375 L 34.017578,36.5 c -1.252,1 -2.677312,1.81425 -4.195312,2.40625 l -0.84375,4.28125 c -0.086,0.448 -0.513703,0.8065 -0.970704,0.8125 l -8.015624,0 c -0.457001,-0.006 -0.884704,-0.3645 -0.970704,-0.8125 l -0.84375,-4.28125 C 16.659734,38.31425 15.234422,37.5 13.982422,36.5 l -4.1640626,1.40625 c -0.4326,0.149 -0.9570531,-0.0445 -1.1894532,-0.4375 l -4,-6.921875 z"
     style="opacity:0.2;fill:#000000;fill-opacity:1;enable-background:new" />
</svg>
