<?xml version="1.0" encoding="UTF-8" standalone="no"?>
<svg
   xmlns:dc="http://purl.org/dc/elements/1.1/"
   xmlns:cc="http://creativecommons.org/ns#"
   xmlns:rdf="http://www.w3.org/1999/02/22-rdf-syntax-ns#"
   xmlns:svg="http://www.w3.org/2000/svg"
   xmlns="http://www.w3.org/2000/svg"
   width="48"
   height="48"
   viewBox="0 0 48 48.000001"
   id="svg4222"
   version="1.1">
  <defs
     id="defs4224" />
  <metadata
     id="metadata4227">
    <rdf:RDF>
      <cc:Work
         rdf:about="">
        <dc:format>image/svg+xml</dc:format>
        <dc:type
           rdf:resource="http://purl.org/dc/dcmitype/StillImage" />
        <dc:title />
      </cc:Work>
    </rdf:RDF>
  </metadata>
  <path
     id="rect4203"
     d="M 6,6 C 4.892,6 4,6.892 4,8 l 0,2 0,28 0,2 c 0,1.108 0.892,2 2,2 l 36,0 c 1.108,0 2,-0.892 2,-2 l 0,-2 0,-28 0,-2 C 44,6.892 43.108,6 42,6 L 6,6 Z"
     style="fill:#4ab3e4;fill-opacity:1;stroke:none" />
  <path
     id="rect3328"
     d="M 6,42 C 4.892,42 4,41.108 4,40 l 0,-6 40,0 0,6 c 0,1.108 -0.892,2 -2,2 z"
     style="fill:#4d4d4d;fill-opacity:1;stroke:none" />
  <path
     id="path3345"
     d="M 6,6 C 4.892,6 4,6.892 4,8 L 4,9 C 4,7.892 4.892,7 6,7 l 36,0 c 1.108,0 2,0.892 2,2 L 44,8 C 44,6.892 43.108,6 42,6 Z"
     style="opacity:0.1;fill:#ffffff;fill-opacity:1;stroke:none" />
  <circle
     style="opacity:0.2;fill:#000000;fill-opacity:1;stroke:none;stroke-width:2;stroke-linecap:round;stroke-linejoin:round;stroke-miterlimit:4;stroke-dasharray:none;stroke-opacity:1"
     id="circle4144"
     cx="26"
     cy="38.999981"
     r="2" />
  <circle
     r="2"
     cy="37.999981"
     cx="26"
     id="path4136"
     style="opacity:0.72000002;fill:#ffffff;fill-opacity:1;stroke:none;stroke-width:2;stroke-linecap:round;stroke-linejoin:round;stroke-miterlimit:4;stroke-dasharray:none;stroke-opacity:1" />
  <circle
     r="2"
     cy="38.999981"
     cx="32"
     id="circle4146"
     style="opacity:0.2;fill:#000000;fill-opacity:1;stroke:none;stroke-width:2;stroke-linecap:round;stroke-linejoin:round;stroke-miterlimit:4;stroke-dasharray:none;stroke-opacity:1" />
  <circle
     style="opacity:0.72000002;fill:#ffffff;fill-opacity:1;stroke:none;stroke-width:2;stroke-linecap:round;stroke-linejoin:round;stroke-miterlimit:4;stroke-dasharray:none;stroke-opacity:1"
     id="circle4140"
     cx="32"
     cy="37.999981"
     r="2" />
  <circle
     style="opacity:0.2;fill:#000000;fill-opacity:1;stroke:none;stroke-width:2;stroke-linecap:round;stroke-linejoin:round;stroke-miterlimit:4;stroke-dasharray:none;stroke-opacity:1"
     id="circle4148"
     cx="38"
     cy="38.999981"
     r="2" />
  <circle
     r="2"
     cy="37.999981"
     cx="38"
     id="circle4142"
     style="opacity:0.72000002;fill:#ffffff;fill-opacity:1;stroke:none;stroke-width:2;stroke-linecap:round;stroke-linejoin:round;stroke-miterlimit:4;stroke-dasharray:none;stroke-opacity:1" />
  <path
     id="path4142"
     d="m 4,40 0,1 c 0,1.108 0.892,2 2,2 l 36,0 c 1.108,0 2,-0.892 2,-2 l 0,-1 c 0,1.108 -0.892,2 -2,2 L 6,42 C 4.892,42 4,41.108 4,40 Z"
     style="opacity:0.2;fill:#000000;fill-opacity:1;stroke:none" />
</svg>
