<?xml version="1.0" encoding="UTF-8" standalone="no"?>
<svg
   xmlns:dc="http://purl.org/dc/elements/1.1/"
   xmlns:cc="http://creativecommons.org/ns#"
   xmlns:rdf="http://www.w3.org/1999/02/22-rdf-syntax-ns#"
   xmlns:svg="http://www.w3.org/2000/svg"
   xmlns="http://www.w3.org/2000/svg"
   xmlns:sodipodi="http://sodipodi.sourceforge.net/DTD/sodipodi-0.dtd"
   xmlns:inkscape="http://www.inkscape.org/namespaces/inkscape"
   viewBox="0 0 48 48.000001"
   version="1.1"
   width="48"
   height="48"
   id="svg4222"
   inkscape:version="0.91 r13725"
   sodipodi:docname="org.kde.plasma.showdesktop.svg">
  <sodipodi:namedview
     pagecolor="#ffffff"
     bordercolor="#666666"
     borderopacity="1"
     objecttolerance="10"
     gridtolerance="10"
     guidetolerance="10"
     inkscape:pageopacity="0"
     inkscape:pageshadow="2"
     inkscape:window-width="1535"
     inkscape:window-height="876"
     id="namedview10"
     showgrid="false"
     inkscape:zoom="4.9166667"
     inkscape:cx="-12.101695"
     inkscape:cy="24"
     inkscape:window-x="65"
     inkscape:window-y="24"
     inkscape:window-maximized="1"
     inkscape:current-layer="svg4222" />
  <defs
     id="defs12" />
  <metadata
     id="metadata4227">
    <rdf:RDF>
      <cc:Work
         rdf:about="">
        <dc:format>image/svg+xml</dc:format>
        <dc:type
           rdf:resource="http://purl.org/dc/dcmitype/StillImage" />
        <dc:title />
      </cc:Work>
    </rdf:RDF>
  </metadata>
  <path
     id="rect4203"
     d="m 4,10 0,30 c 0,1.108 0.892,2 2,2 l 36,0 c 1.108,0 2,-0.892 2,-2 l 0,-30 z"
     style="fill:#4ab3e4" />
  <path
     id="rect3328"
     d="M 6,6 C 4.892,6 4,6.892 4,8 l 0,2 40,0 0,-2 C 44,6.892 43.108,6 42,6 Z"
     style="fill:#5d5d5d;fill-opacity:1" />
  <path
     id="path3345"
     d="M 6,6 C 4.892,6 4,6.892 4,8 L 4,9 C 4,7.892 4.892,7 6,7 l 36,0 c 1.108,0 2,0.892 2,2 L 44,8 C 44,6.892 43.108,6 42,6 Z"
     style="opacity:0.1;fill:#ffffff" />
  <path
     id="rect4155"
     d="m 16,38 c -1.108,0 -2,0.892 -2,2 l 0,2 20,0 0,-2 c 0,-1.108 -0.892,-2 -2,-2 l -16,0 z"
     style="fill:#5d5d5d;fill-opacity:1" />
  <path
     id="path4148"
     d="m 4,40 0,1 c 0,1.108 0.892,2 2,2 l 36,0 c 1.108,0 2,-0.892 2,-2 l 0,-1 c 0,1.108 -0.892,2 -2,2 L 6,42 C 4.892,42 4,41.108 4,40 Z"
     style="opacity:0.2" />
</svg>
