<?xml version="1.0" encoding="UTF-8" standalone="no"?>
<svg
   xmlns:dc="http://purl.org/dc/elements/1.1/"
   xmlns:cc="http://creativecommons.org/ns#"
   xmlns:rdf="http://www.w3.org/1999/02/22-rdf-syntax-ns#"
   xmlns:svg="http://www.w3.org/2000/svg"
   xmlns="http://www.w3.org/2000/svg"
   viewBox="0 0 48 48"
   version="1.1"
   width="48"
   height="48"
   id="svg3067">
  <defs
     id="defs11" />
  <metadata
     id="metadata3077">
    <rdf:RDF>
      <cc:Work
         rdf:about="">
        <dc:format>image/svg+xml</dc:format>
        <dc:type
           rdf:resource="http://purl.org/dc/dcmitype/StillImage" />
        <dc:title />
      </cc:Work>
    </rdf:RDF>
  </metadata>
  <path
     fill="#efb055"
     d="m8.8149 24.576c0 8.313-10.123 14.424-1.0123 14.424h32.394c9.111 0-1.012-6.111-1.012-14.424 0-9.273-4.049-19.576-15.185-19.576s-15.185 10.303-15.185 19.576z"
     id="path4137" />
  <path
     d="m17 39c1.0342 2.3167 3.7612 4 7 4s5.9658-1.6833 7-4h-14z"
     fill="#ce903c"
     id="path4135" />
  <path
     fill="#fff"
     d="m24 5c-11.136 0-15.186 10.303-15.186 19.576 0.0005 6.146-5.5242 11.085-4.7281 13.244 0.5755-2.487 4.7286-6.905 4.7286-12.244 0-9.273 4.0495-19.576 15.186-19.576s15.186 10.303 15.186 19.576c0 5.339 4.153 9.757 4.728 12.244 0.796-2.159-4.728-7.098-4.728-13.244 0-9.273-4.05-19.576-15.186-19.576z"
     opacity=".1"
     id="path4148" />
  <path
     style="opacity:0.2"
     d="M 4.0859,37.82 C 3.7652,39.206 4.5421,40 7.8027,40 l 32.394,0 c 3.261,0 4.038,-0.794 3.717,-2.18 -0.281,0.762 -1.341,1.18 -3.717,1.18 L 7.8027,39 C 5.427,39 4.3664,38.582 4.0856,37.82 Z"
     id="path4153" />
  <path
     style="opacity:0.2"
     d="m 17,40 c 1.034,2.317 3.761,4 7,4 3.239,0 5.966,-1.683 7,-4 l -0.594,0 C 29.117,41.782 26.748,43 24,43 21.252,43 18.883,41.782 17.594,40 L 17,40 Z"
     id="path4158" />
</svg>
