<?xml version="1.0" encoding="UTF-8" standalone="no"?>
<svg
   xmlns:dc="http://purl.org/dc/elements/1.1/"
   xmlns:cc="http://creativecommons.org/ns#"
   xmlns:rdf="http://www.w3.org/1999/02/22-rdf-syntax-ns#"
   xmlns:svg="http://www.w3.org/2000/svg"
   xmlns="http://www.w3.org/2000/svg"
   version="1.0"
   width="48"
   height="48"
   id="svg2817">
  <defs
     id="defs227" />
  <metadata
     id="metadata57">
    <rdf:RDF>
      <cc:Work
         rdf:about="">
        <dc:format>image/svg+xml</dc:format>
        <dc:type
           rdf:resource="http://purl.org/dc/dcmitype/StillImage" />
        <dc:title />
      </cc:Work>
    </rdf:RDF>
  </metadata>
  <text
     fill="#000000"
     font-family="'Bitstream Vera Sans'"
     x="877.22626"
     y="10.812601"
     xml:space="preserve"
     font-size="12.666px"
     opacity=".8"
     id="text4087-2-6-5"><tspan
       x="877.22626"
       y="10.812601"
       id="tspan4089-7-2-9" /></text>
  <text
     fill="#000000"
     font-family="'Bitstream Vera Sans'"
     x="901.18719"
     y="-29.929106"
     xml:space="preserve"
     font-size="12.666px"
     opacity=".8"
     id="text4087-2-6-5-5"><tspan
       x="901.18719"
       y="-29.929106"
       id="tspan4089-7-2-9-6" /></text>
  <text
     fill="#000000"
     font-family="'Bitstream Vera Sans'"
     x="-569.37115"
     y="-60.007248"
     xml:space="preserve"
     font-size="12.666px"
     opacity=".8"
     id="text4087-2-6-5-2"><tspan
       x="-569.37115"
       y="-60.007248"
       id="tspan4089-7-2-9-2" /></text>
  <text
     fill="#000000"
     font-family="'Bitstream Vera Sans'"
     x="-2393.0571"
     y="685.5462"
     xml:space="preserve"
     font-size="12.666px"
     opacity=".8"
     id="text4087-2-6-5-59"><tspan
       x="-2393.0571"
       y="685.5462"
       id="tspan4089-7-2-9-4" /></text>
  <text
     fill="#000000"
     font-family="'Bitstream Vera Sans'"
     x="-454.88007"
     y="-445.32822"
     xml:space="preserve"
     font-size="12.666px"
     opacity=".8"
     id="text4087-2-6-5-1"><tspan
       x="-454.88007"
       y="-445.32822"
       id="tspan4089-7-2-9-7" /></text>
  <text
     fill="#000000"
     font-family="'Bitstream Vera Sans'"
     x="352.72208"
     y="-858.79834"
     xml:space="preserve"
     font-size="12.666px"
     opacity=".8"
     id="text4087-2-6-5-7"><tspan
       x="352.72208"
       y="-858.79834"
       id="tspan4089-7-2-9-1" /></text>
  <text
     fill="#000000"
     font-family="'Bitstream Vera Sans'"
     x="376.68301"
     y="-899.54004"
     xml:space="preserve"
     font-size="12.666px"
     opacity=".8"
     id="text4087-2-6-5-5-3"><tspan
       x="376.68301"
       y="-899.54004"
       id="tspan4089-7-2-9-6-5" /></text>
  <text
     fill="#000000"
     font-family="'Bitstream Vera Sans'"
     x="-1114.7802"
     y="-906.74994"
     xml:space="preserve"
     font-size="12.666px"
     opacity=".8"
     id="text4087-2-6-5-3"><tspan
       x="-1114.7802"
       y="-906.74994"
       id="tspan4089-7-2-9-18" /></text>
  <text
     fill="#000000"
     font-family="'Bitstream Vera Sans'"
     x="345.7626"
     y="-1179.9841"
     xml:space="preserve"
     font-size="12.666px"
     opacity=".8"
     id="text4087-2-6-5-4"><tspan
       x="345.7626"
       y="-1179.9841"
       id="tspan4089-7-2-9-9" /></text>
  <text
     fill="#000000"
     font-family="'Bitstream Vera Sans'"
     x="1831.8861"
     y="-553.29272"
     xml:space="preserve"
     font-size="12.666px"
     opacity=".8"
     id="text4087-2-6-5-7-1"><tspan
       x="1831.8861"
       y="-553.29272"
       id="tspan4089-7-2-9-1-8" /></text>
  <text
     fill="#000000"
     font-family="'Bitstream Vera Sans'"
     x="1855.8469"
     y="-594.03448"
     xml:space="preserve"
     font-size="12.666px"
     opacity=".8"
     id="text4087-2-6-5-5-5"><tspan
       x="1855.8469"
       y="-594.03448"
       id="tspan4089-7-2-9-6-9" /></text>
  <text
     fill="#000000"
     font-family="'Bitstream Vera Sans'"
     x="364.38376"
     y="-601.24438"
     xml:space="preserve"
     font-size="12.666px"
     opacity=".8"
     id="text4087-2-6-5-75"><tspan
       x="364.38376"
       y="-601.24438"
       id="tspan4089-7-2-9-3" /></text>
  <text
     fill="#000000"
     font-family="'Bitstream Vera Sans'"
     x="1824.9266"
     y="-874.47839"
     xml:space="preserve"
     font-size="12.666px"
     opacity=".8"
     id="text4087-2-6-5-4-8"><tspan
       x="1824.9266"
       y="-874.47839"
       id="tspan4089-7-2-9-9-8" /></text>
  <text
     fill="#000000"
     font-family="'Bitstream Vera Sans'"
     x="-573.43256"
     y="-649.33569"
     xml:space="preserve"
     font-size="12.666px"
     opacity=".8"
     id="text4087-2-6-5-45"><tspan
       x="-573.43256"
       y="-649.33569"
       id="tspan4089-7-2-9-75" /></text>
  <text
     fill="#000000"
     font-family="'Bitstream Vera Sans'"
     x="-2397.1182"
     y="96.217857"
     xml:space="preserve"
     font-size="12.666px"
     opacity=".8"
     id="text4087-2-6-5-59-7"><tspan
       x="-2397.1182"
       y="96.217857"
       id="tspan4089-7-2-9-4-0" /></text>
  <text
     fill="#000000"
     font-family="'Bitstream Vera Sans'"
     x="-682.36279"
     y="189.09"
     xml:space="preserve"
     font-size="12.666px"
     opacity=".8"
     id="text4087-2-6-5-8"><tspan
       x="-682.36279"
       y="189.09"
       id="tspan4089-7-2-9-19" /></text>
  <text
     fill="#000000"
     font-family="'Bitstream Vera Sans'"
     x="426.66153"
     y="9.9078522"
     xml:space="preserve"
     font-size="12.666px"
     opacity=".8"
     id="text4087-2-6-5-7-5"><tspan
       x="426.66153"
       y="9.9078522"
       id="tspan4089-7-2-9-1-2" /></text>
  <text
     fill="#000000"
     font-family="'Bitstream Vera Sans'"
     x="450.62247"
     y="-30.833855"
     xml:space="preserve"
     font-size="12.666px"
     opacity=".8"
     id="text4087-2-6-5-5-0"><tspan
       x="450.62247"
       y="-30.833855"
       id="tspan4089-7-2-9-6-2" /></text>
  <text
     fill="#000000"
     font-family="'Bitstream Vera Sans'"
     x="-1040.8407"
     y="-38.043827"
     xml:space="preserve"
     font-size="12.666px"
     opacity=".8"
     id="text4087-2-6-5-26"><tspan
       x="-1040.8407"
       y="-38.043827"
       id="tspan4089-7-2-9-90" /></text>
  <text
     fill="#000000"
     font-family="'Bitstream Vera Sans'"
     x="419.70206"
     y="-311.27789"
     xml:space="preserve"
     font-size="12.666px"
     opacity=".8"
     id="text4087-2-6-5-4-3"><tspan
       x="419.70206"
       y="-311.27789"
       id="tspan4089-7-2-9-9-5" /></text>
  <text
     fill="#000000"
     font-family="'Bitstream Vera Sans'"
     x="-608.03253"
     y="-40.758072"
     xml:space="preserve"
     font-size="12.666px"
     opacity=".8"
     id="text4087-2-6-5-55"><tspan
       x="-608.03253"
       y="-40.758072"
       id="tspan4089-7-2-9-32" /></text>
  <text
     fill="#000000"
     font-family="'Bitstream Vera Sans'"
     x="-2431.7185"
     y="704.79541"
     xml:space="preserve"
     font-size="12.666px"
     opacity=".8"
     id="text4087-2-6-5-59-9"><tspan
       x="-2431.7185"
       y="704.79541"
       id="tspan4089-7-2-9-4-1" /></text>
  <text
     fill="#000000"
     font-family="'Bitstream Vera Sans'"
     x="-456.93948"
     y="-902.28857"
     xml:space="preserve"
     font-size="12.666px"
     opacity=".8"
     id="text4087-2-6-5-1-8"><tspan
       x="-456.93948"
       y="-902.28857"
       id="tspan4089-7-2-9-7-8" /></text>
  <text
     fill="#000000"
     font-family="'Bitstream Vera Sans'"
     x="350.66266"
     y="-1315.7588"
     xml:space="preserve"
     font-size="12.666px"
     opacity=".8"
     id="text4087-2-6-5-7-8"><tspan
       x="350.66266"
       y="-1315.7588"
       id="tspan4089-7-2-9-1-9" /></text>
  <text
     fill="#000000"
     font-family="'Bitstream Vera Sans'"
     x="374.62357"
     y="-1356.5005"
     xml:space="preserve"
     font-size="12.666px"
     opacity=".8"
     id="text4087-2-6-5-5-52"><tspan
       x="374.62357"
       y="-1356.5005"
       id="tspan4089-7-2-9-6-4" /></text>
  <text
     fill="#000000"
     font-family="'Bitstream Vera Sans'"
     x="-1116.8396"
     y="-1363.7104"
     xml:space="preserve"
     font-size="12.666px"
     opacity=".8"
     id="text4087-2-6-5-3-4"><tspan
       x="-1116.8396"
       y="-1363.7104"
       id="tspan4089-7-2-9-18-3" /></text>
  <text
     fill="#000000"
     font-family="'Bitstream Vera Sans'"
     x="343.70316"
     y="-1636.9446"
     xml:space="preserve"
     font-size="12.666px"
     opacity=".8"
     id="text4087-2-6-5-4-7"><tspan
       x="343.70316"
       y="-1636.9446"
       id="tspan4089-7-2-9-9-54" /></text>
  <text
     fill="#000000"
     font-family="'Bitstream Vera Sans'"
     x="1829.8265"
     y="-1010.2533"
     xml:space="preserve"
     font-size="12.666px"
     opacity=".8"
     id="text4087-2-6-5-7-1-2"><tspan
       x="1829.8265"
       y="-1010.2533"
       id="tspan4089-7-2-9-1-8-0" /></text>
  <text
     fill="#000000"
     font-family="'Bitstream Vera Sans'"
     x="1853.7874"
     y="-1050.9949"
     xml:space="preserve"
     font-size="12.666px"
     opacity=".8"
     id="text4087-2-6-5-5-5-6"><tspan
       x="1853.7874"
       y="-1050.9949"
       id="tspan4089-7-2-9-6-9-8" /></text>
  <text
     fill="#000000"
     font-family="'Bitstream Vera Sans'"
     x="362.32431"
     y="-1058.2048"
     xml:space="preserve"
     font-size="12.666px"
     opacity=".8"
     id="text4087-2-6-5-75-4"><tspan
       x="362.32431"
       y="-1058.2048"
       id="tspan4089-7-2-9-3-9" /></text>
  <text
     fill="#000000"
     font-family="'Bitstream Vera Sans'"
     x="1822.8671"
     y="-1331.439"
     xml:space="preserve"
     font-size="12.666px"
     opacity=".8"
     id="text4087-2-6-5-4-8-1"><tspan
       x="1822.8671"
       y="-1331.439"
       id="tspan4089-7-2-9-9-8-8" /></text>
  <text
     fill="#000000"
     font-family="'Bitstream Vera Sans'"
     x="-575.492"
     y="-1106.2961"
     xml:space="preserve"
     font-size="12.666px"
     opacity=".8"
     id="text4087-2-6-5-45-0"><tspan
       x="-575.492"
       y="-1106.2961"
       id="tspan4089-7-2-9-75-2" /></text>
  <text
     fill="#000000"
     font-family="'Bitstream Vera Sans'"
     x="-2399.1777"
     y="-360.74261"
     xml:space="preserve"
     font-size="12.666px"
     opacity=".8"
     id="text4087-2-6-5-59-5"><tspan
       x="-2399.1777"
       y="-360.74261"
       id="tspan4089-7-2-9-4-00" /></text>
  <text
     fill="#000000"
     font-family="'Bitstream Vera Sans'"
     x="-684.42224"
     y="-267.87045"
     xml:space="preserve"
     font-size="12.666px"
     opacity=".8"
     id="text4087-2-6-5-264"><tspan
       x="-684.42224"
       y="-267.87045"
       id="tspan4089-7-2-9-8" /></text>
  <text
     fill="#000000"
     font-family="'Bitstream Vera Sans'"
     x="155.5923"
     y="-26.956278"
     xml:space="preserve"
     font-size="12.666px"
     opacity=".8"
     id="text4087-2-6-5-42"><tspan
       x="155.5923"
       y="-26.956278"
       id="tspan4089-7-2-9-93" /></text>
  <text
     fill="#000000"
     font-family="'Bitstream Vera Sans'"
     x="179.55324"
     y="-67.697998"
     xml:space="preserve"
     font-size="12.666px"
     opacity=".8"
     id="text4087-2-6-5-5-05"><tspan
       x="179.55324"
       y="-67.697998"
       id="tspan4089-7-2-9-6-49" /></text>
  <text
     fill="#000000"
     font-family="'Bitstream Vera Sans'"
     x="-1090.2634"
     y="-261.72662"
     xml:space="preserve"
     font-size="12.666px"
     opacity=".8"
     id="text4087-2-6-5-1-4"><tspan
       x="-1090.2634"
       y="-261.72662"
       id="tspan4089-7-2-9-7-7" /></text>
  <text
     fill="#000000"
     font-family="'Bitstream Vera Sans'"
     x="-282.66141"
     y="-675.19678"
     xml:space="preserve"
     font-size="12.666px"
     opacity=".8"
     id="text4087-2-6-5-7-56"><tspan
       x="-282.66141"
       y="-675.19678"
       id="tspan4089-7-2-9-1-1" /></text>
  <text
     fill="#000000"
     font-family="'Bitstream Vera Sans'"
     x="-258.70047"
     y="-715.93848"
     xml:space="preserve"
     font-size="12.666px"
     opacity=".8"
     id="text4087-2-6-5-5-8"><tspan
       x="-258.70047"
       y="-715.93848"
       id="tspan4089-7-2-9-6-7" /></text>
  <text
     fill="#000000"
     font-family="'Bitstream Vera Sans'"
     x="-1750.1636"
     y="-723.14838"
     xml:space="preserve"
     font-size="12.666px"
     opacity=".8"
     id="text4087-2-6-5-3-42"><tspan
       x="-1750.1636"
       y="-723.14838"
       id="tspan4089-7-2-9-18-39" /></text>
  <text
     fill="#000000"
     font-family="'Bitstream Vera Sans'"
     x="-289.62085"
     y="-996.38251"
     xml:space="preserve"
     font-size="12.666px"
     opacity=".8"
     id="text4087-2-6-5-4-4"><tspan
       x="-289.62085"
       y="-996.38251"
       id="tspan4089-7-2-9-9-3" /></text>
  <text
     fill="#000000"
     font-family="'Bitstream Vera Sans'"
     x="1196.5026"
     y="-369.69113"
     xml:space="preserve"
     font-size="12.666px"
     opacity=".8"
     id="text4087-2-6-5-7-1-0"><tspan
       x="1196.5026"
       y="-369.69113"
       id="tspan4089-7-2-9-1-8-5" /></text>
  <text
     fill="#000000"
     font-family="'Bitstream Vera Sans'"
     x="1220.4634"
     y="-410.43286"
     xml:space="preserve"
     font-size="12.666px"
     opacity=".8"
     id="text4087-2-6-5-5-5-5"><tspan
       x="1220.4634"
       y="-410.43286"
       id="tspan4089-7-2-9-6-9-2" /></text>
  <text
     fill="#000000"
     font-family="'Bitstream Vera Sans'"
     x="-270.99973"
     y="-417.64282"
     xml:space="preserve"
     font-size="12.666px"
     opacity=".8"
     id="text4087-2-6-5-75-9"><tspan
       x="-270.99973"
       y="-417.64282"
       id="tspan4089-7-2-9-3-1" /></text>
  <text
     fill="#000000"
     font-family="'Bitstream Vera Sans'"
     x="1189.5431"
     y="-690.87689"
     xml:space="preserve"
     font-size="12.666px"
     opacity=".8"
     id="text4087-2-6-5-4-8-18"><tspan
       x="1189.5431"
       y="-690.87689"
       id="tspan4089-7-2-9-9-8-4" /></text>
  <text
     fill="#000000"
     font-family="'Bitstream Vera Sans'"
     x="-1208.816"
     y="-465.7341"
     xml:space="preserve"
     font-size="12.666px"
     opacity=".8"
     id="text4087-2-6-5-45-3"><tspan
       x="-1208.816"
       y="-465.7341"
       id="tspan4089-7-2-9-75-7" /></text>
  <text
     fill="#000000"
     font-family="'Bitstream Vera Sans'"
     x="-3032.5017"
     y="279.81946"
     xml:space="preserve"
     font-size="12.666px"
     opacity=".8"
     id="text4087-2-6-5-59-8"><tspan
       x="-3032.5017"
       y="279.81946"
       id="tspan4089-7-2-9-4-2" /></text>
  <g
     transform="matrix(.90475 0 0 .90475 -716.75 -676.29)"
     id="layer4-0">
    <text
       fill="#000000"
       font-family="'Bitstream Vera Sans'"
       x="-664.2738"
       y="1159.4154"
       xml:space="preserve"
       font-size="14px"
       opacity=".8"
       id="text4087-2-6-5-20"><tspan
         x="-664.2738"
         y="1159.4154"
         id="tspan4089-7-2-9-82" /></text>
  </g>
  <text
     fill="#000000"
     font-family="'Bitstream Vera Sans'"
     x="877.22626"
     y="18.050589"
     xml:space="preserve"
     font-size="12.666px"
     opacity=".8"
     id="text4087-2-6-5-9"><tspan
       x="877.22626"
       y="18.050589"
       id="tspan4089-7-2-9-43" /></text>
  <text
     fill="#000000"
     font-family="'Bitstream Vera Sans'"
     x="901.18719"
     y="-22.691116"
     xml:space="preserve"
     font-size="12.666px"
     opacity=".8"
     id="text4087-2-6-5-5-51"><tspan
       x="901.18719"
       y="-22.691116"
       id="tspan4089-7-2-9-6-74" /></text>
  <text
     fill="#000000"
     font-family="'Bitstream Vera Sans'"
     x="-569.37115"
     y="-52.76926"
     xml:space="preserve"
     font-size="12.666px"
     opacity=".8"
     id="text4087-2-6-5-2-3"><tspan
       x="-569.37115"
       y="-52.76926"
       id="tspan4089-7-2-9-2-1" /></text>
  <text
     fill="#000000"
     font-family="'Bitstream Vera Sans'"
     x="-2393.0571"
     y="692.78418"
     xml:space="preserve"
     font-size="12.666px"
     opacity=".8"
     id="text4087-2-6-5-59-4"><tspan
       x="-2393.0571"
       y="692.78418"
       id="tspan4089-7-2-9-4-6" /></text>
  <text
     fill="#000000"
     font-family="'Bitstream Vera Sans'"
     x="-454.88007"
     y="-438.09021"
     xml:space="preserve"
     font-size="12.666px"
     opacity=".8"
     id="text4087-2-6-5-1-9"><tspan
       x="-454.88007"
       y="-438.09021"
       id="tspan4089-7-2-9-7-4" /></text>
  <text
     fill="#000000"
     font-family="'Bitstream Vera Sans'"
     x="352.72208"
     y="-851.5603"
     xml:space="preserve"
     font-size="12.666px"
     opacity=".8"
     id="text4087-2-6-5-7-2"><tspan
       x="352.72208"
       y="-851.5603"
       id="tspan4089-7-2-9-1-26" /></text>
  <text
     fill="#000000"
     font-family="'Bitstream Vera Sans'"
     x="376.68301"
     y="-892.30206"
     xml:space="preserve"
     font-size="12.666px"
     opacity=".8"
     id="text4087-2-6-5-5-3-4"><tspan
       x="376.68301"
       y="-892.30206"
       id="tspan4089-7-2-9-6-5-1" /></text>
  <text
     fill="#000000"
     font-family="'Bitstream Vera Sans'"
     x="-1114.7802"
     y="-899.51196"
     xml:space="preserve"
     font-size="12.666px"
     opacity=".8"
     id="text4087-2-6-5-3-2"><tspan
       x="-1114.7802"
       y="-899.51196"
       id="tspan4089-7-2-9-18-8" /></text>
  <text
     fill="#000000"
     font-family="'Bitstream Vera Sans'"
     x="345.7626"
     y="-1172.7461"
     xml:space="preserve"
     font-size="12.666px"
     opacity=".8"
     id="text4087-2-6-5-4-89"><tspan
       x="345.7626"
       y="-1172.7461"
       id="tspan4089-7-2-9-9-2" /></text>
  <text
     fill="#000000"
     font-family="'Bitstream Vera Sans'"
     x="1831.8861"
     y="-546.05475"
     xml:space="preserve"
     font-size="12.666px"
     opacity=".8"
     id="text4087-2-6-5-7-1-8"><tspan
       x="1831.8861"
       y="-546.05475"
       id="tspan4089-7-2-9-1-8-8" /></text>
  <text
     fill="#000000"
     font-family="'Bitstream Vera Sans'"
     x="1855.8469"
     y="-586.79651"
     xml:space="preserve"
     font-size="12.666px"
     opacity=".8"
     id="text4087-2-6-5-5-5-8"><tspan
       x="1855.8469"
       y="-586.79651"
       id="tspan4089-7-2-9-6-9-6" /></text>
  <text
     fill="#000000"
     font-family="'Bitstream Vera Sans'"
     x="364.38376"
     y="-594.00641"
     xml:space="preserve"
     font-size="12.666px"
     opacity=".8"
     id="text4087-2-6-5-75-8"><tspan
       x="364.38376"
       y="-594.00641"
       id="tspan4089-7-2-9-3-3" /></text>
  <text
     fill="#000000"
     font-family="'Bitstream Vera Sans'"
     x="1824.9266"
     y="-867.24036"
     xml:space="preserve"
     font-size="12.666px"
     opacity=".8"
     id="text4087-2-6-5-4-8-8"><tspan
       x="1824.9266"
       y="-867.24036"
       id="tspan4089-7-2-9-9-8-3" /></text>
  <text
     fill="#000000"
     font-family="'Bitstream Vera Sans'"
     x="-573.43256"
     y="-642.09772"
     xml:space="preserve"
     font-size="12.666px"
     opacity=".8"
     id="text4087-2-6-5-45-33"><tspan
       x="-573.43256"
       y="-642.09772"
       id="tspan4089-7-2-9-75-8" /></text>
  <text
     fill="#000000"
     font-family="'Bitstream Vera Sans'"
     x="-2397.1182"
     y="103.45585"
     xml:space="preserve"
     font-size="12.666px"
     opacity=".8"
     id="text4087-2-6-5-59-7-0"><tspan
       x="-2397.1182"
       y="103.45585"
       id="tspan4089-7-2-9-4-0-4" /></text>
  <text
     fill="#000000"
     font-family="'Bitstream Vera Sans'"
     x="-682.36279"
     y="196.32799"
     xml:space="preserve"
     font-size="12.666px"
     opacity=".8"
     id="text4087-2-6-5-8-7"><tspan
       x="-682.36279"
       y="196.32799"
       id="tspan4089-7-2-9-19-6" /></text>
  <text
     fill="#000000"
     font-family="'Bitstream Vera Sans'"
     x="426.66153"
     y="17.14584"
     xml:space="preserve"
     font-size="12.666px"
     opacity=".8"
     id="text4087-2-6-5-7-5-8"><tspan
       x="426.66153"
       y="17.14584"
       id="tspan4089-7-2-9-1-2-9" /></text>
  <text
     fill="#000000"
     font-family="'Bitstream Vera Sans'"
     x="450.62247"
     y="-23.595865"
     xml:space="preserve"
     font-size="12.666px"
     opacity=".8"
     id="text4087-2-6-5-5-0-0"><tspan
       x="450.62247"
       y="-23.595865"
       id="tspan4089-7-2-9-6-2-6" /></text>
  <text
     fill="#000000"
     font-family="'Bitstream Vera Sans'"
     x="-1040.8407"
     y="-30.805836"
     xml:space="preserve"
     font-size="12.666px"
     opacity=".8"
     id="text4087-2-6-5-26-8"><tspan
       x="-1040.8407"
       y="-30.805836"
       id="tspan4089-7-2-9-90-7" /></text>
  <text
     fill="#000000"
     font-family="'Bitstream Vera Sans'"
     x="419.70206"
     y="-304.03989"
     xml:space="preserve"
     font-size="12.666px"
     opacity=".8"
     id="text4087-2-6-5-4-3-9"><tspan
       x="419.70206"
       y="-304.03989"
       id="tspan4089-7-2-9-9-5-0" /></text>
  <text
     fill="#000000"
     font-family="'Bitstream Vera Sans'"
     x="-608.03253"
     y="-33.520081"
     xml:space="preserve"
     font-size="12.666px"
     opacity=".8"
     id="text4087-2-6-5-55-3"><tspan
       x="-608.03253"
       y="-33.520081"
       id="tspan4089-7-2-9-32-3" /></text>
  <text
     fill="#000000"
     font-family="'Bitstream Vera Sans'"
     x="-2431.7185"
     y="712.03345"
     xml:space="preserve"
     font-size="12.666px"
     opacity=".8"
     id="text4087-2-6-5-59-9-3"><tspan
       x="-2431.7185"
       y="712.03345"
       id="tspan4089-7-2-9-4-1-7" /></text>
  <text
     fill="#000000"
     font-family="'Bitstream Vera Sans'"
     x="-456.93948"
     y="-895.0506"
     xml:space="preserve"
     font-size="12.666px"
     opacity=".8"
     id="text4087-2-6-5-1-8-3"><tspan
       x="-456.93948"
       y="-895.0506"
       id="tspan4089-7-2-9-7-8-2" /></text>
  <text
     fill="#000000"
     font-family="'Bitstream Vera Sans'"
     x="350.66266"
     y="-1308.5208"
     xml:space="preserve"
     font-size="12.666px"
     opacity=".8"
     id="text4087-2-6-5-7-8-6"><tspan
       x="350.66266"
       y="-1308.5208"
       id="tspan4089-7-2-9-1-9-5" /></text>
  <text
     fill="#000000"
     font-family="'Bitstream Vera Sans'"
     x="374.62357"
     y="-1349.2626"
     xml:space="preserve"
     font-size="12.666px"
     opacity=".8"
     id="text4087-2-6-5-5-52-2"><tspan
       x="374.62357"
       y="-1349.2626"
       id="tspan4089-7-2-9-6-4-6" /></text>
  <text
     fill="#000000"
     font-family="'Bitstream Vera Sans'"
     x="-1116.8396"
     y="-1356.4724"
     xml:space="preserve"
     font-size="12.666px"
     opacity=".8"
     id="text4087-2-6-5-3-4-5"><tspan
       x="-1116.8396"
       y="-1356.4724"
       id="tspan4089-7-2-9-18-3-8" /></text>
  <text
     fill="#000000"
     font-family="'Bitstream Vera Sans'"
     x="343.70316"
     y="-1629.7065"
     xml:space="preserve"
     font-size="12.666px"
     opacity=".8"
     id="text4087-2-6-5-4-7-7"><tspan
       x="343.70316"
       y="-1629.7065"
       id="tspan4089-7-2-9-9-54-9" /></text>
  <text
     fill="#000000"
     font-family="'Bitstream Vera Sans'"
     x="1829.8265"
     y="-1003.0153"
     xml:space="preserve"
     font-size="12.666px"
     opacity=".8"
     id="text4087-2-6-5-7-1-2-6"><tspan
       x="1829.8265"
       y="-1003.0153"
       id="tspan4089-7-2-9-1-8-0-0" /></text>
  <text
     fill="#000000"
     font-family="'Bitstream Vera Sans'"
     x="1853.7874"
     y="-1043.757"
     xml:space="preserve"
     font-size="12.666px"
     opacity=".8"
     id="text4087-2-6-5-5-5-6-4"><tspan
       x="1853.7874"
       y="-1043.757"
       id="tspan4089-7-2-9-6-9-8-1" /></text>
  <text
     fill="#000000"
     font-family="'Bitstream Vera Sans'"
     x="362.32431"
     y="-1050.9668"
     xml:space="preserve"
     font-size="12.666px"
     opacity=".8"
     id="text4087-2-6-5-75-4-0"><tspan
       x="362.32431"
       y="-1050.9668"
       id="tspan4089-7-2-9-3-9-4" /></text>
  <text
     fill="#000000"
     font-family="'Bitstream Vera Sans'"
     x="1822.8671"
     y="-1324.2009"
     xml:space="preserve"
     font-size="12.666px"
     opacity=".8"
     id="text4087-2-6-5-4-8-1-8"><tspan
       x="1822.8671"
       y="-1324.2009"
       id="tspan4089-7-2-9-9-8-8-7" /></text>
  <text
     fill="#000000"
     font-family="'Bitstream Vera Sans'"
     x="-575.492"
     y="-1099.0581"
     xml:space="preserve"
     font-size="12.666px"
     opacity=".8"
     id="text4087-2-6-5-45-0-0"><tspan
       x="-575.492"
       y="-1099.0581"
       id="tspan4089-7-2-9-75-2-8" /></text>
  <text
     fill="#000000"
     font-family="'Bitstream Vera Sans'"
     x="-2399.1777"
     y="-353.50461"
     xml:space="preserve"
     font-size="12.666px"
     opacity=".8"
     id="text4087-2-6-5-59-5-6"><tspan
       x="-2399.1777"
       y="-353.50461"
       id="tspan4089-7-2-9-4-00-2" /></text>
  <text
     fill="#000000"
     font-family="'Bitstream Vera Sans'"
     x="-684.42224"
     y="-260.63245"
     xml:space="preserve"
     font-size="12.666px"
     opacity=".8"
     id="text4087-2-6-5-264-4"><tspan
       x="-684.42224"
       y="-260.63245"
       id="tspan4089-7-2-9-8-7" /></text>
  <text
     fill="#000000"
     font-family="'Bitstream Vera Sans'"
     x="155.5923"
     y="-19.71829"
     xml:space="preserve"
     font-size="12.666px"
     opacity=".8"
     id="text4087-2-6-5-42-9"><tspan
       x="155.5923"
       y="-19.71829"
       id="tspan4089-7-2-9-93-3" /></text>
  <text
     fill="#000000"
     font-family="'Bitstream Vera Sans'"
     x="179.55324"
     y="-60.460011"
     xml:space="preserve"
     font-size="12.666px"
     opacity=".8"
     id="text4087-2-6-5-5-05-9"><tspan
       x="179.55324"
       y="-60.460011"
       id="tspan4089-7-2-9-6-49-2" /></text>
  <text
     fill="#000000"
     font-family="'Bitstream Vera Sans'"
     x="-1090.2634"
     y="-254.4886"
     xml:space="preserve"
     font-size="12.666px"
     opacity=".8"
     id="text4087-2-6-5-1-4-8"><tspan
       x="-1090.2634"
       y="-254.4886"
       id="tspan4089-7-2-9-7-7-3" /></text>
  <text
     fill="#000000"
     font-family="'Bitstream Vera Sans'"
     x="-282.66141"
     y="-667.9588"
     xml:space="preserve"
     font-size="12.666px"
     opacity=".8"
     id="text4087-2-6-5-7-56-0"><tspan
       x="-282.66141"
       y="-667.9588"
       id="tspan4089-7-2-9-1-1-1" /></text>
  <text
     fill="#000000"
     font-family="'Bitstream Vera Sans'"
     x="-258.70047"
     y="-708.7005"
     xml:space="preserve"
     font-size="12.666px"
     opacity=".8"
     id="text4087-2-6-5-5-8-7"><tspan
       x="-258.70047"
       y="-708.7005"
       id="tspan4089-7-2-9-6-7-8" /></text>
  <text
     fill="#000000"
     font-family="'Bitstream Vera Sans'"
     x="-1750.1636"
     y="-715.91046"
     xml:space="preserve"
     font-size="12.666px"
     opacity=".8"
     id="text4087-2-6-5-3-42-9"><tspan
       x="-1750.1636"
       y="-715.91046"
       id="tspan4089-7-2-9-18-39-1" /></text>
  <text
     fill="#000000"
     font-family="'Bitstream Vera Sans'"
     x="-289.62085"
     y="-989.14447"
     xml:space="preserve"
     font-size="12.666px"
     opacity=".8"
     id="text4087-2-6-5-4-4-5"><tspan
       x="-289.62085"
       y="-989.14447"
       id="tspan4089-7-2-9-9-3-4" /></text>
  <text
     fill="#000000"
     font-family="'Bitstream Vera Sans'"
     x="1196.5026"
     y="-362.45316"
     xml:space="preserve"
     font-size="12.666px"
     opacity=".8"
     id="text4087-2-6-5-7-1-0-9"><tspan
       x="1196.5026"
       y="-362.45316"
       id="tspan4089-7-2-9-1-8-5-2" /></text>
  <text
     fill="#000000"
     font-family="'Bitstream Vera Sans'"
     x="1220.4634"
     y="-403.19489"
     xml:space="preserve"
     font-size="12.666px"
     opacity=".8"
     id="text4087-2-6-5-5-5-5-5"><tspan
       x="1220.4634"
       y="-403.19489"
       id="tspan4089-7-2-9-6-9-2-7" /></text>
  <text
     fill="#000000"
     font-family="'Bitstream Vera Sans'"
     x="-270.99973"
     y="-410.40482"
     xml:space="preserve"
     font-size="12.666px"
     opacity=".8"
     id="text4087-2-6-5-75-9-4"><tspan
       x="-270.99973"
       y="-410.40482"
       id="tspan4089-7-2-9-3-1-9" /></text>
  <text
     fill="#000000"
     font-family="'Bitstream Vera Sans'"
     x="1189.5431"
     y="-683.63892"
     xml:space="preserve"
     font-size="12.666px"
     opacity=".8"
     id="text4087-2-6-5-4-8-18-9"><tspan
       x="1189.5431"
       y="-683.63892"
       id="tspan4089-7-2-9-9-8-4-4" /></text>
  <text
     fill="#000000"
     font-family="'Bitstream Vera Sans'"
     x="-1208.816"
     y="-458.49609"
     xml:space="preserve"
     font-size="12.666px"
     opacity=".8"
     id="text4087-2-6-5-45-3-5"><tspan
       x="-1208.816"
       y="-458.49609"
       id="tspan4089-7-2-9-75-7-9" /></text>
  <text
     fill="#000000"
     font-family="'Bitstream Vera Sans'"
     x="-3032.5017"
     y="287.05743"
     xml:space="preserve"
     font-size="12.666px"
     opacity=".8"
     id="text4087-2-6-5-59-8-3"><tspan
       x="-3032.5017"
       y="287.05743"
       id="tspan4089-7-2-9-4-2-5" /></text>
  <g
     transform="matrix(.90475 0 0 .90475 -716.75 -669.05)"
     id="layer4-0-7">
    <text
       fill="#000000"
       font-family="'Bitstream Vera Sans'"
       x="-664.2738"
       y="1159.4154"
       xml:space="preserve"
       font-size="14px"
       opacity=".8"
       id="text4087-2-6-5-20-0"><tspan
         x="-664.2738"
         y="1159.4154"
         id="tspan4089-7-2-9-82-8" /></text>
  </g>
  <text
     fill="#000000"
     font-family="'Droid Sans'"
     x="435.90427"
     y="-361.22546"
     xml:space="preserve"
     font-size="12.666px"
     id="text7276"><tspan
       x="435.90427"
       y="-361.22546"
       id="tspan7278" /><tspan
       x="435.90427"
       y="-345.3924"
       id="tspan7280" /></text>
  <text
     fill="#000000"
     font-family="'Bitstream Vera Sans'"
     x="901.0882"
     y="-843.27002"
     xml:space="preserve"
     font-size="12.666px"
     opacity=".8"
     id="text4087-2-6-5-51"><tspan
       x="901.0882"
       y="-843.27002"
       id="tspan4089-7-2-9-97" /></text>
  <text
     fill="#000000"
     font-family="'Bitstream Vera Sans'"
     x="-922.59778"
     y="-97.716553"
     xml:space="preserve"
     font-size="12.666px"
     opacity=".8"
     id="text4087-2-6-5-59-2"><tspan
       x="-922.59778"
       y="-97.716553"
       id="tspan4089-7-2-9-4-4" /></text>
  <text
     fill="#000000"
     font-family="'Bitstream Vera Sans'"
     x="1628.1677"
     y="-1128.2659"
     xml:space="preserve"
     font-size="12.666px"
     opacity=".8"
     id="text4087-2-6-5-7-7"><tspan
       x="1628.1677"
       y="-1128.2659"
       id="tspan4089-7-2-9-1-6" /></text>
  <text
     fill="#000000"
     font-family="'Bitstream Vera Sans'"
     x="1652.1285"
     y="-1169.0076"
     xml:space="preserve"
     font-size="12.666px"
     opacity=".8"
     id="text4087-2-6-5-5-6"><tspan
       x="1652.1285"
       y="-1169.0076"
       id="tspan4089-7-2-9-6-53" /></text>
  <text
     fill="#000000"
     font-family="'Bitstream Vera Sans'"
     x="160.66542"
     y="-1176.2175"
     xml:space="preserve"
     font-size="12.666px"
     opacity=".8"
     id="text4087-2-6-5-54"><tspan
       x="160.66542"
       y="-1176.2175"
       id="tspan4089-7-2-9-0" /></text>
  <text
     fill="#000000"
     font-family="'Bitstream Vera Sans'"
     x="1621.2083"
     y="-1449.4517"
     xml:space="preserve"
     font-size="12.666px"
     opacity=".8"
     id="text4087-2-6-5-4-1"><tspan
       x="1621.2083"
       y="-1449.4517"
       id="tspan4089-7-2-9-9-28" /></text>
  <path
     id="rect4500"
     d="m 16.939,32.684 c -1.0714,-0.0568 -2.3,0.43472 -3.2793,1.4141 l -4.242,4.242 c -1.567,1.567 -1.8823,3.774 -0.7071,4.949 1.1752,1.175 3.3821,0.86 4.9491,-0.707 l 4.2422,-4.2422 c 1.5669,-1.5669 1.8822,-3.774 0.70703,-4.9492 -0.4407,-0.4407 -1.0271,-0.67295 -1.6699,-0.70703 z m 13.439,0 c -0.64283,0.03408 -1.2273,0.26633 -1.668,0.70703 -1.1752,1.1752 -0.85992,3.3823 0.70703,4.9492 l 4.2422,4.2422 c 1.5669,1.5669 3.774,1.8822 4.9492,0.70703 1.1752,-1.17517 0.85992,-3.3823 -0.70703,-4.9492 l -4.2422,-4.2422 c -0.97934,-0.97934 -2.2099,-1.4709 -3.2812,-1.4141 z"
     style="fill:#ec9a64" />
  <path
     id="path4471"
     d="m 19.27,35.779966 c -0.13987,0.87662 -0.60118,1.7945 -1.3672,2.5605 l -4.2422,4.2422 c -1.568,1.567 -3.7749,1.882 -4.9501,0.707 -0.3739,-0.374 -0.5803,-0.858 -0.6601,-1.387 -0.14573,0.91599 0.059816,1.7864 0.66016,2.3867 1.1752,1.1752 3.3823,0.85992 4.9492,-0.70703 l 4.2422,-4.2422 c 1.068,-1.068 1.5378,-2.4272 1.3672,-3.5605 z m 8.7812,0 c -0.17058,1.1334 0.29916,2.4925 1.3672,3.5605 l 4.2422,4.2422 c 1.5669,1.5669 3.774,1.8822 4.9492,0.70703 0.60034,-0.60034 0.80588,-1.4707 0.66016,-2.3867 -0.0798,0.52909 -0.28617,1.0127 -0.66016,1.3867 -1.1752,1.1752 -3.3823,0.85992 -4.9492,-0.70703 l -4.242,-4.242 c -0.766,-0.766 -1.227,-1.684 -1.367,-2.561 z"
     style="opacity:0.2" />
  <path
     id="path4493"
     d="m 8,4 a 7,7 0 0 0 -7,7 7,7 0 0 0 7,7 7,7 0 0 0 7,-7 7,7 0 0 0 -7,-7 z m 32,0 a 7,7 0 0 0 -7,7 7,7 0 0 0 7,7 7,7 0 0 0 7,-7 7,7 0 0 0 -7,-7 z"
     style="fill:#e74c3c" />
  <path
     id="path4509"
     d="M 8,4 A 7,7 0 0 0 1,11 7,7 0 0 0 1.0234,11.459 7,7 0 0 1 8,5 7,7 0 0 1 14.977,11.541 7,7 0 0 0 15,11 7,7 0 0 0 8,4 Z m 32,0 a 7,7 0 0 0 -7,7 7,7 0 0 0 0.02344,0.45898 7,7 0 0 1 6.977,-6.459 7,7 0 0 1 6.977,6.541 7,7 0 0 0 0.023,-0.541 7,7 0 0 0 -7,-7 z"
     style="opacity:0.2;fill:#ffffff" />
  <rect
     id="rect4203-9"
     transform="matrix(0,-1,-1,0,0,0)"
     rx="20"
     ry="20"
     height="40"
     width="40"
     y="-44"
     x="-44"
     style="fill:#e74c3c" />
  <path
     id="rect4063"
     d="m 24,4.0182 c -11.07,0 -19.982,8.9119 -19.982,19.982 0,0.16757 -0.004,0.33299 0,0.49955 0.2644,-10.837 9.08,-19.483 19.982,-19.483 10.902,0 19.718,8.6458 19.982,19.482 0.004,-0.16656 0,-0.33198 0,-0.49955 C 43.982,12.9302 35.07,4.0182 24,4.0182 Z"
     style="opacity:0.2;fill:#ffffff" />
  <rect
     id="rect4514"
     ry="18"
     rx="18"
     transform="matrix(0,-1,-1,0,0,0)"
     height="36"
     width="36"
     y="-42"
     x="-42"
     style="opacity:0.8;fill:#ffffff" />
  <g
     transform="translate(0,1)"
     id="g4522">
    <path
       id="path4518"
       d="m 24,6 a 2,2 0 0 0 -2,2 2,2 0 0 0 2,2 2,2 0 0 0 2,-2 2,2 0 0 0 -2,-2 z m -10.592,5.3926 a 1,1 0 0 0 -0.72266,0.29297 1,1 0 0 0 0,1.4141 1,1 0 0 0 1.4141,0 1,1 0 0 0 0,-1.4141 1,1 0 0 0 -0.69141,-0.29297 z m 21.213,0 a 1,1 0 0 0 -0.7207,0.29297 1,1 0 0 0 0,1.4141 1,1 0 0 0 1.4141,0 1,1 0 0 0 0,-1.4141 1,1 0 0 0 -0.69336,-0.29297 z M 9,20.9996 a 2,2 0 0 0 -2,2 2,2 0 0 0 2,2 2,2 0 0 0 2,-2 2,2 0 0 0 -2,-2 z m 30,0 a 2,2 0 0 0 -2,2 2,2 0 0 0 2,2 2,2 0 0 0 2,-2 2,2 0 0 0 -2,-2 z m -25.592,11.607 a 1,1 0 0 0 -0.72266,0.29297 1,1 0 0 0 0,1.4141 1,1 0 0 0 1.4141,0 1,1 0 0 0 0,-1.4141 1,1 0 0 0 -0.69141,-0.29297 z m 21.213,0 a 1,1 0 0 0 -0.7207,0.29297 1,1 0 0 0 0,1.4141 1,1 0 0 0 1.4141,0 1,1 0 0 0 0,-1.4141 1,1 0 0 0 -0.69336,-0.29297 z M 24,35.9996 a 2,2 0 0 0 -2,2 2,2 0 0 0 2,2 2,2 0 0 0 2,-2 2,2 0 0 0 -2,-2 z"
       style="opacity:0.8" />
  </g>
  <path
     id="rect4556"
     d="m 22.181,24.767 3.0212,5.2329 c 0.55349,0.95867 1.7711,1.2837 2.7307,0.72966 0.95956,-0.554 1.2869,-1.771 0.73343,-2.7297 l -2.9998,-5.1957 6.9282,-4 c 0.47978,-0.277 0.64312,-0.88609 0.36623,-1.3657 -0.27689,-0.47958 -0.88605,-0.64268 -1.3658,-0.36568 l -8.3101,4.7979 c -1.1337,0.56455 -1.5636,2.0417 -1.1041,2.8963 z"
     style="opacity:0.8" />
  <path
     id="rect4466"
     d="M 4.0117,24.5 C 4.0076,24.667 4,24.832 4,25 c 0,11.08 8.92,20 20,20 11.08,0 20,-8.92 20,-20 0,-0.16787 -0.0076,-0.33314 -0.01172,-0.5 -0.264,10.846 -9.076,19.5 -19.988,19.5 -10.912,0 -19.724,-8.654 -19.988,-19.5 z"
     style="opacity:0.2" />
</svg>
