<?xml version="1.0" encoding="UTF-8" standalone="no"?>
<svg
   xmlns:dc="http://purl.org/dc/elements/1.1/"
   xmlns:cc="http://creativecommons.org/ns#"
   xmlns:rdf="http://www.w3.org/1999/02/22-rdf-syntax-ns#"
   xmlns:svg="http://www.w3.org/2000/svg"
   xmlns="http://www.w3.org/2000/svg"
   version="1.1"
   id="svg2"
   viewBox="0 0 48 48.000001"
   height="48"
   width="48">
  <defs
     id="defs4" />
  <metadata
     id="metadata7">
    <rdf:RDF>
      <cc:Work
         rdf:about="">
        <dc:format>image/svg+xml</dc:format>
        <dc:type
           rdf:resource="http://purl.org/dc/dcmitype/StillImage" />
        <dc:title />
      </cc:Work>
    </rdf:RDF>
  </metadata>
  <g
     transform="translate(0,-1004.3622)"
     id="layer1">
    <path
       id="rect4136"
       d="m 30.216836,1019.3169 c -1.566924,-1.5669 -4.089881,-1.5669 -5.656854,0 l -12.727883,12.728 c -1.048649,1.0486 -1.379647,2.5213 -1.024779,3.8531 l -4.6321155,4.6321 c -1.5669232,1.567 -1.5669515,4.0899 2.26e-5,5.6569 1.5669239,1.5669 4.0898809,1.5669 5.6568539,0 l 4.632116,-4.6321 c 1.331854,0.3549 2.804524,0.024 3.853143,-1.0248 l 12.727933,-12.7279 c 1.566972,-1.5669 1.566951,-4.0899 2.7e-5,-5.6568 l -2.828464,-2.8285 z"
       style="opacity:1;fill:#cccccc;fill-opacity:1;stroke:none;stroke-width:10;stroke-linecap:round;stroke-linejoin:round;stroke-miterlimit:4;stroke-dasharray:none;stroke-opacity:1" />
    <path
       id="path4199"
       d="m 27.388724,1018.1415 c -1.022476,0 -2.044646,0.3923 -2.828132,1.1758 l -12.728559,12.7285 c -0.905528,0.9055 -1.273186,2.1266 -1.128862,3.3008 0.106569,-0.8404 0.479595,-1.6515 1.128867,-2.3008 l 12.728558,-12.7286 c 1.566903,-1.5668 4.089274,-1.5668 5.656199,1e-4 l 2.828125,2.8281 c 0.655288,0.6552 1.019723,1.4784 1.126993,2.3281 0.149236,-1.1824 -0.215221,-2.4164 -1.126927,-3.3281 l -2.828126,-2.8282 c -0.783533,-0.7834 -1.80566,-1.1757 -2.828136,-1.1757 z m -16.708988,17.8828 -4.503917,4.5059 c -0.9117287,0.9117 -1.2762168,2.1457 -1.1269416,3.3281 0.1072504,-0.8498 0.471752,-1.6729 1.1269465,-2.3281 l 4.6308421,-4.6328 c -0.07632,-0.2867 -0.114451,-0.5791 -0.12693,-0.8731 z"
       style="opacity:0.2;fill:#ffffff;fill-opacity:1;stroke:none;stroke-width:10;stroke-linecap:round;stroke-linejoin:round;stroke-miterlimit:4;stroke-dasharray:none;stroke-opacity:1" />
    <path
       id="path4204"
       d="m 34.171908,1025.4741 c -0.107251,0.8498 -0.471731,1.6729 -1.126946,2.3281 l -12.728559,12.7286 c -1.048619,1.0488 -2.51969,1.3803 -3.851543,1.0254 l -4.632822,4.6308 c -1.566973,1.5669 -4.0892747,1.5669 -5.65627,0 -0.6551676,-0.6553 -1.0196515,-1.4784 -1.1269224,-2.3281 -0.1492356,1.1824 0.215261,2.4163 1.1269274,3.3281 1.5669946,1.5669 4.089296,1.5669 5.656269,0 l 4.632822,-4.6308 c 1.331854,0.3549 2.802925,0.023 3.851544,-1.0254 l 12.728559,-12.7286 c 0.911686,-0.9116 1.276144,-2.1457 1.126941,-3.3281 z m -23.468742,9.8731 c -0.02851,0.2247 -0.03306,0.4514 -0.02343,0.6777 l 0.126925,-0.1269 c -0.04861,-0.1816 -0.0807,-0.3653 -0.10349,-0.5508 z"
       style="opacity:0.2;fill:#000000;fill-opacity:1;stroke:none;stroke-width:10;stroke-linecap:round;stroke-linejoin:round;stroke-miterlimit:4;stroke-dasharray:none;stroke-opacity:1" />
    <rect
       transform="matrix(0.70710678,0.70710678,-0.70710678,0.70710678,0,0)"
       style="opacity:1;fill:#ffbc48;fill-opacity:1;stroke:none;stroke-width:10;stroke-linecap:round;stroke-linejoin:round;stroke-miterlimit:4;stroke-dasharray:none;stroke-opacity:1"
       id="rect4140"
       width="18"
       height="24"
       x="735.13245"
       y="688.39935"
       ry="8"
       rx="8" />
    <path
       id="rect4311"
       d="m 42.443359,1019.8173 c -0.117464,1.8751 -0.887127,3.7172 -2.326171,5.1562 l -5.658204,5.6582 c -3.133897,3.1339 -8.178602,3.1339 -11.3125,0 l -1.414062,-1.416 c -1.439044,-1.439 -2.210661,-3.2811 -2.328125,-5.1562 -0.138345,2.2084 0.633272,4.4614 2.328125,6.1562 l 1.414062,1.4141 c 3.133898,3.1339 8.178603,3.1339 11.3125,0 l 5.658204,-5.6563 c 1.694852,-1.6948 2.464516,-3.9478 2.326171,-6.1562 z"
       style="opacity:0.2;fill:#000000;fill-opacity:1;stroke:none;stroke-width:10;stroke-linecap:round;stroke-linejoin:round;stroke-miterlimit:4;stroke-dasharray:none;stroke-opacity:1" />
    <path
       id="rect4306"
       transform="translate(0,1004.3622)"
       d="M 33.044922 5.5332031 C 30.999969 5.5332031 28.95562 6.3158639 27.388672 7.8828125 L 21.732422 13.541016 C 20.037569 15.235869 19.265952 17.488836 19.404297 19.697266 C 19.521761 17.82216 20.293378 15.98006 21.732422 14.541016 L 27.388672 8.8847656 C 30.522569 5.7508684 35.567275 5.7508684 38.701172 8.8847656 L 40.117188 10.298828 C 41.556232 11.737872 42.325895 13.579972 42.443359 15.455078 C 42.581704 13.246648 41.81204 10.993681 40.117188 9.2988281 L 38.701172 7.8828125 C 37.134223 6.3158639 35.089875 5.5332031 33.044922 5.5332031 z "
       style="opacity:0.2;fill:#ffffff;fill-opacity:1;stroke:none;stroke-width:10;stroke-linecap:round;stroke-linejoin:round;stroke-miterlimit:4;stroke-dasharray:none;stroke-opacity:1" />
    <rect
       transform="matrix(0.70710678,0.70710678,-0.70710678,0.70710678,0,0)"
       rx="1"
       ry="1"
       y="706.39935"
       x="732.13245"
       height="6"
       width="24"
       id="rect4142"
       style="opacity:1;fill:#ffbc48;fill-opacity:1;stroke:none;stroke-width:10;stroke-linecap:round;stroke-linejoin:round;stroke-miterlimit:4;stroke-dasharray:none;stroke-opacity:1" />
    <rect
       transform="matrix(0.70710678,0.70710678,-0.70710678,0.70710678,0,0)"
       ry="2"
       rx="2"
       y="717.39935"
       x="742.13245"
       height="16"
       width="4"
       id="rect4151"
       style="opacity:1;fill:#4e79ff;fill-opacity:1;stroke:none;stroke-width:10;stroke-linecap:round;stroke-linejoin:round;stroke-miterlimit:4;stroke-dasharray:none;stroke-opacity:1" />
    <path
       id="rect4189"
       d="m 18.195333,1017.6083 c -0.255584,0 -0.511173,0.099 -0.70704,0.2949 l -2.828074,2.8281 c -0.330572,0.3306 -0.365966,0.8234 -0.138703,1.2071 0.04197,-0.071 0.07719,-0.1456 0.138635,-0.207 l 2.828145,-2.8282 c 0.391737,-0.3917 1.02233,-0.3917 1.414068,0 l 15.555663,15.5557 c 0.06161,0.062 0.09642,0.1374 0.138473,0.2092 0.22724,-0.3837 0.191826,-0.8765 -0.138704,-1.207 l -15.556639,-15.5567 c -0.19587,-0.1958 -0.451374,-0.2949 -0.707028,-0.2949 z"
       style="opacity:0.2;fill:#ffffff;fill-opacity:1;stroke:none;stroke-width:10;stroke-linecap:round;stroke-linejoin:round;stroke-miterlimit:4;stroke-dasharray:none;stroke-opacity:1" />
    <path
       id="rect4194"
       d="m 14.521512,1021.9388 c -0.226646,0.3836 -0.191575,0.8767 0.138702,1.207 l 15.556642,15.5566 c 0.391737,0.3917 1.02233,0.3917 1.414067,0 l 2.828073,-2.8281 c 0.33029,-0.3303 0.365329,-0.8234 0.138703,-1.207 -0.04208,0.071 -0.07747,0.1458 -0.138706,0.207 l -2.828073,2.8281 c -0.391737,0.3917 -1.02233,0.3918 -1.414067,0 l -15.556641,-15.5566 c -0.06121,-0.061 -0.09648,-0.1361 -0.13891,-0.2068 z"
       style="opacity:0.2;fill:#000000;fill-opacity:1;stroke:none;stroke-width:10;stroke-linecap:round;stroke-linejoin:round;stroke-miterlimit:4;stroke-dasharray:none;stroke-opacity:1" />
  </g>
</svg>
