<?xml version="1.0" encoding="UTF-8" standalone="no"?>
<svg
   xmlns:dc="http://purl.org/dc/elements/1.1/"
   xmlns:cc="http://creativecommons.org/ns#"
   xmlns:rdf="http://www.w3.org/1999/02/22-rdf-syntax-ns#"
   xmlns:svg="http://www.w3.org/2000/svg"
   xmlns="http://www.w3.org/2000/svg"
   version="1.0"
   width="48"
   height="48"
   id="svg2817">
  <defs
     id="defs221" />
  <metadata
     id="metadata57">
    <rdf:RDF>
      <cc:Work
         rdf:about="">
        <dc:format>image/svg+xml</dc:format>
        <dc:type
           rdf:resource="http://purl.org/dc/dcmitype/StillImage" />
        <dc:title />
      </cc:Work>
    </rdf:RDF>
  </metadata>
  <text
     fill="#000000"
     font-family="'Bitstream Vera Sans'"
     x="877.22626"
     y="10.812601"
     xml:space="preserve"
     font-size="12.666px"
     opacity=".8"
     id="text4087-2-6-5"><tspan
       x="877.22626"
       y="10.812601"
       id="tspan4089-7-2-9" /></text>
  <text
     fill="#000000"
     font-family="'Bitstream Vera Sans'"
     x="901.18719"
     y="-29.929106"
     xml:space="preserve"
     font-size="12.666px"
     opacity=".8"
     id="text4087-2-6-5-5"><tspan
       x="901.18719"
       y="-29.929106"
       id="tspan4089-7-2-9-6" /></text>
  <text
     fill="#000000"
     font-family="'Bitstream Vera Sans'"
     x="-569.37115"
     y="-60.007248"
     xml:space="preserve"
     font-size="12.666px"
     opacity=".8"
     id="text4087-2-6-5-2"><tspan
       x="-569.37115"
       y="-60.007248"
       id="tspan4089-7-2-9-2" /></text>
  <text
     fill="#000000"
     font-family="'Bitstream Vera Sans'"
     x="-2393.0571"
     y="685.5462"
     xml:space="preserve"
     font-size="12.666px"
     opacity=".8"
     id="text4087-2-6-5-59"><tspan
       x="-2393.0571"
       y="685.5462"
       id="tspan4089-7-2-9-4" /></text>
  <text
     fill="#000000"
     font-family="'Bitstream Vera Sans'"
     x="-454.88007"
     y="-445.32822"
     xml:space="preserve"
     font-size="12.666px"
     opacity=".8"
     id="text4087-2-6-5-1"><tspan
       x="-454.88007"
       y="-445.32822"
       id="tspan4089-7-2-9-7" /></text>
  <text
     fill="#000000"
     font-family="'Bitstream Vera Sans'"
     x="352.72208"
     y="-858.79834"
     xml:space="preserve"
     font-size="12.666px"
     opacity=".8"
     id="text4087-2-6-5-7"><tspan
       x="352.72208"
       y="-858.79834"
       id="tspan4089-7-2-9-1" /></text>
  <text
     fill="#000000"
     font-family="'Bitstream Vera Sans'"
     x="376.68301"
     y="-899.54004"
     xml:space="preserve"
     font-size="12.666px"
     opacity=".8"
     id="text4087-2-6-5-5-3"><tspan
       x="376.68301"
       y="-899.54004"
       id="tspan4089-7-2-9-6-5" /></text>
  <text
     fill="#000000"
     font-family="'Bitstream Vera Sans'"
     x="-1114.7802"
     y="-906.74994"
     xml:space="preserve"
     font-size="12.666px"
     opacity=".8"
     id="text4087-2-6-5-3"><tspan
       x="-1114.7802"
       y="-906.74994"
       id="tspan4089-7-2-9-18" /></text>
  <text
     fill="#000000"
     font-family="'Bitstream Vera Sans'"
     x="345.7626"
     y="-1179.9841"
     xml:space="preserve"
     font-size="12.666px"
     opacity=".8"
     id="text4087-2-6-5-4"><tspan
       x="345.7626"
       y="-1179.9841"
       id="tspan4089-7-2-9-9" /></text>
  <text
     fill="#000000"
     font-family="'Bitstream Vera Sans'"
     x="1831.8861"
     y="-553.29272"
     xml:space="preserve"
     font-size="12.666px"
     opacity=".8"
     id="text4087-2-6-5-7-1"><tspan
       x="1831.8861"
       y="-553.29272"
       id="tspan4089-7-2-9-1-8" /></text>
  <text
     fill="#000000"
     font-family="'Bitstream Vera Sans'"
     x="1855.8469"
     y="-594.03448"
     xml:space="preserve"
     font-size="12.666px"
     opacity=".8"
     id="text4087-2-6-5-5-5"><tspan
       x="1855.8469"
       y="-594.03448"
       id="tspan4089-7-2-9-6-9" /></text>
  <text
     fill="#000000"
     font-family="'Bitstream Vera Sans'"
     x="364.38376"
     y="-601.24438"
     xml:space="preserve"
     font-size="12.666px"
     opacity=".8"
     id="text4087-2-6-5-75"><tspan
       x="364.38376"
       y="-601.24438"
       id="tspan4089-7-2-9-3" /></text>
  <text
     fill="#000000"
     font-family="'Bitstream Vera Sans'"
     x="1824.9266"
     y="-874.47839"
     xml:space="preserve"
     font-size="12.666px"
     opacity=".8"
     id="text4087-2-6-5-4-8"><tspan
       x="1824.9266"
       y="-874.47839"
       id="tspan4089-7-2-9-9-8" /></text>
  <text
     fill="#000000"
     font-family="'Bitstream Vera Sans'"
     x="-573.43256"
     y="-649.33569"
     xml:space="preserve"
     font-size="12.666px"
     opacity=".8"
     id="text4087-2-6-5-45"><tspan
       x="-573.43256"
       y="-649.33569"
       id="tspan4089-7-2-9-75" /></text>
  <text
     fill="#000000"
     font-family="'Bitstream Vera Sans'"
     x="-2397.1182"
     y="96.217857"
     xml:space="preserve"
     font-size="12.666px"
     opacity=".8"
     id="text4087-2-6-5-59-7"><tspan
       x="-2397.1182"
       y="96.217857"
       id="tspan4089-7-2-9-4-0" /></text>
  <text
     fill="#000000"
     font-family="'Bitstream Vera Sans'"
     x="-682.36279"
     y="189.09"
     xml:space="preserve"
     font-size="12.666px"
     opacity=".8"
     id="text4087-2-6-5-8"><tspan
       x="-682.36279"
       y="189.09"
       id="tspan4089-7-2-9-19" /></text>
  <text
     fill="#000000"
     font-family="'Bitstream Vera Sans'"
     x="426.66153"
     y="9.9078522"
     xml:space="preserve"
     font-size="12.666px"
     opacity=".8"
     id="text4087-2-6-5-7-5"><tspan
       x="426.66153"
       y="9.9078522"
       id="tspan4089-7-2-9-1-2" /></text>
  <text
     fill="#000000"
     font-family="'Bitstream Vera Sans'"
     x="450.62247"
     y="-30.833855"
     xml:space="preserve"
     font-size="12.666px"
     opacity=".8"
     id="text4087-2-6-5-5-0"><tspan
       x="450.62247"
       y="-30.833855"
       id="tspan4089-7-2-9-6-2" /></text>
  <text
     fill="#000000"
     font-family="'Bitstream Vera Sans'"
     x="-1040.8407"
     y="-38.043827"
     xml:space="preserve"
     font-size="12.666px"
     opacity=".8"
     id="text4087-2-6-5-26"><tspan
       x="-1040.8407"
       y="-38.043827"
       id="tspan4089-7-2-9-90" /></text>
  <text
     fill="#000000"
     font-family="'Bitstream Vera Sans'"
     x="419.70206"
     y="-311.27789"
     xml:space="preserve"
     font-size="12.666px"
     opacity=".8"
     id="text4087-2-6-5-4-3"><tspan
       x="419.70206"
       y="-311.27789"
       id="tspan4089-7-2-9-9-5" /></text>
  <text
     fill="#000000"
     font-family="'Bitstream Vera Sans'"
     x="-608.03253"
     y="-40.758072"
     xml:space="preserve"
     font-size="12.666px"
     opacity=".8"
     id="text4087-2-6-5-55"><tspan
       x="-608.03253"
       y="-40.758072"
       id="tspan4089-7-2-9-32" /></text>
  <text
     fill="#000000"
     font-family="'Bitstream Vera Sans'"
     x="-2431.7185"
     y="704.79541"
     xml:space="preserve"
     font-size="12.666px"
     opacity=".8"
     id="text4087-2-6-5-59-9"><tspan
       x="-2431.7185"
       y="704.79541"
       id="tspan4089-7-2-9-4-1" /></text>
  <text
     fill="#000000"
     font-family="'Bitstream Vera Sans'"
     x="-456.93948"
     y="-902.28857"
     xml:space="preserve"
     font-size="12.666px"
     opacity=".8"
     id="text4087-2-6-5-1-8"><tspan
       x="-456.93948"
       y="-902.28857"
       id="tspan4089-7-2-9-7-8" /></text>
  <text
     fill="#000000"
     font-family="'Bitstream Vera Sans'"
     x="350.66266"
     y="-1315.7588"
     xml:space="preserve"
     font-size="12.666px"
     opacity=".8"
     id="text4087-2-6-5-7-8"><tspan
       x="350.66266"
       y="-1315.7588"
       id="tspan4089-7-2-9-1-9" /></text>
  <text
     fill="#000000"
     font-family="'Bitstream Vera Sans'"
     x="374.62357"
     y="-1356.5005"
     xml:space="preserve"
     font-size="12.666px"
     opacity=".8"
     id="text4087-2-6-5-5-52"><tspan
       x="374.62357"
       y="-1356.5005"
       id="tspan4089-7-2-9-6-4" /></text>
  <text
     fill="#000000"
     font-family="'Bitstream Vera Sans'"
     x="-1116.8396"
     y="-1363.7104"
     xml:space="preserve"
     font-size="12.666px"
     opacity=".8"
     id="text4087-2-6-5-3-4"><tspan
       x="-1116.8396"
       y="-1363.7104"
       id="tspan4089-7-2-9-18-3" /></text>
  <text
     fill="#000000"
     font-family="'Bitstream Vera Sans'"
     x="343.70316"
     y="-1636.9446"
     xml:space="preserve"
     font-size="12.666px"
     opacity=".8"
     id="text4087-2-6-5-4-7"><tspan
       x="343.70316"
       y="-1636.9446"
       id="tspan4089-7-2-9-9-54" /></text>
  <text
     fill="#000000"
     font-family="'Bitstream Vera Sans'"
     x="1829.8265"
     y="-1010.2533"
     xml:space="preserve"
     font-size="12.666px"
     opacity=".8"
     id="text4087-2-6-5-7-1-2"><tspan
       x="1829.8265"
       y="-1010.2533"
       id="tspan4089-7-2-9-1-8-0" /></text>
  <text
     fill="#000000"
     font-family="'Bitstream Vera Sans'"
     x="1853.7874"
     y="-1050.9949"
     xml:space="preserve"
     font-size="12.666px"
     opacity=".8"
     id="text4087-2-6-5-5-5-6"><tspan
       x="1853.7874"
       y="-1050.9949"
       id="tspan4089-7-2-9-6-9-8" /></text>
  <text
     fill="#000000"
     font-family="'Bitstream Vera Sans'"
     x="362.32431"
     y="-1058.2048"
     xml:space="preserve"
     font-size="12.666px"
     opacity=".8"
     id="text4087-2-6-5-75-4"><tspan
       x="362.32431"
       y="-1058.2048"
       id="tspan4089-7-2-9-3-9" /></text>
  <text
     fill="#000000"
     font-family="'Bitstream Vera Sans'"
     x="1822.8671"
     y="-1331.439"
     xml:space="preserve"
     font-size="12.666px"
     opacity=".8"
     id="text4087-2-6-5-4-8-1"><tspan
       x="1822.8671"
       y="-1331.439"
       id="tspan4089-7-2-9-9-8-8" /></text>
  <text
     fill="#000000"
     font-family="'Bitstream Vera Sans'"
     x="-575.492"
     y="-1106.2961"
     xml:space="preserve"
     font-size="12.666px"
     opacity=".8"
     id="text4087-2-6-5-45-0"><tspan
       x="-575.492"
       y="-1106.2961"
       id="tspan4089-7-2-9-75-2" /></text>
  <text
     fill="#000000"
     font-family="'Bitstream Vera Sans'"
     x="-2399.1777"
     y="-360.74261"
     xml:space="preserve"
     font-size="12.666px"
     opacity=".8"
     id="text4087-2-6-5-59-5"><tspan
       x="-2399.1777"
       y="-360.74261"
       id="tspan4089-7-2-9-4-00" /></text>
  <text
     fill="#000000"
     font-family="'Bitstream Vera Sans'"
     x="-684.42224"
     y="-267.87045"
     xml:space="preserve"
     font-size="12.666px"
     opacity=".8"
     id="text4087-2-6-5-264"><tspan
       x="-684.42224"
       y="-267.87045"
       id="tspan4089-7-2-9-8" /></text>
  <text
     fill="#000000"
     font-family="'Bitstream Vera Sans'"
     x="155.5923"
     y="-26.956278"
     xml:space="preserve"
     font-size="12.666px"
     opacity=".8"
     id="text4087-2-6-5-42"><tspan
       x="155.5923"
       y="-26.956278"
       id="tspan4089-7-2-9-93" /></text>
  <text
     fill="#000000"
     font-family="'Bitstream Vera Sans'"
     x="179.55324"
     y="-67.697998"
     xml:space="preserve"
     font-size="12.666px"
     opacity=".8"
     id="text4087-2-6-5-5-05"><tspan
       x="179.55324"
       y="-67.697998"
       id="tspan4089-7-2-9-6-49" /></text>
  <text
     fill="#000000"
     font-family="'Bitstream Vera Sans'"
     x="-1090.2634"
     y="-261.72662"
     xml:space="preserve"
     font-size="12.666px"
     opacity=".8"
     id="text4087-2-6-5-1-4"><tspan
       x="-1090.2634"
       y="-261.72662"
       id="tspan4089-7-2-9-7-7" /></text>
  <text
     fill="#000000"
     font-family="'Bitstream Vera Sans'"
     x="-282.66141"
     y="-675.19678"
     xml:space="preserve"
     font-size="12.666px"
     opacity=".8"
     id="text4087-2-6-5-7-56"><tspan
       x="-282.66141"
       y="-675.19678"
       id="tspan4089-7-2-9-1-1" /></text>
  <text
     fill="#000000"
     font-family="'Bitstream Vera Sans'"
     x="-258.70047"
     y="-715.93848"
     xml:space="preserve"
     font-size="12.666px"
     opacity=".8"
     id="text4087-2-6-5-5-8"><tspan
       x="-258.70047"
       y="-715.93848"
       id="tspan4089-7-2-9-6-7" /></text>
  <text
     fill="#000000"
     font-family="'Bitstream Vera Sans'"
     x="-1750.1636"
     y="-723.14838"
     xml:space="preserve"
     font-size="12.666px"
     opacity=".8"
     id="text4087-2-6-5-3-42"><tspan
       x="-1750.1636"
       y="-723.14838"
       id="tspan4089-7-2-9-18-39" /></text>
  <text
     fill="#000000"
     font-family="'Bitstream Vera Sans'"
     x="-289.62085"
     y="-996.38251"
     xml:space="preserve"
     font-size="12.666px"
     opacity=".8"
     id="text4087-2-6-5-4-4"><tspan
       x="-289.62085"
       y="-996.38251"
       id="tspan4089-7-2-9-9-3" /></text>
  <text
     fill="#000000"
     font-family="'Bitstream Vera Sans'"
     x="1196.5026"
     y="-369.69113"
     xml:space="preserve"
     font-size="12.666px"
     opacity=".8"
     id="text4087-2-6-5-7-1-0"><tspan
       x="1196.5026"
       y="-369.69113"
       id="tspan4089-7-2-9-1-8-5" /></text>
  <text
     fill="#000000"
     font-family="'Bitstream Vera Sans'"
     x="1220.4634"
     y="-410.43286"
     xml:space="preserve"
     font-size="12.666px"
     opacity=".8"
     id="text4087-2-6-5-5-5-5"><tspan
       x="1220.4634"
       y="-410.43286"
       id="tspan4089-7-2-9-6-9-2" /></text>
  <text
     fill="#000000"
     font-family="'Bitstream Vera Sans'"
     x="-270.99973"
     y="-417.64282"
     xml:space="preserve"
     font-size="12.666px"
     opacity=".8"
     id="text4087-2-6-5-75-9"><tspan
       x="-270.99973"
       y="-417.64282"
       id="tspan4089-7-2-9-3-1" /></text>
  <text
     fill="#000000"
     font-family="'Bitstream Vera Sans'"
     x="1189.5431"
     y="-690.87689"
     xml:space="preserve"
     font-size="12.666px"
     opacity=".8"
     id="text4087-2-6-5-4-8-18"><tspan
       x="1189.5431"
       y="-690.87689"
       id="tspan4089-7-2-9-9-8-4" /></text>
  <text
     fill="#000000"
     font-family="'Bitstream Vera Sans'"
     x="-1208.816"
     y="-465.7341"
     xml:space="preserve"
     font-size="12.666px"
     opacity=".8"
     id="text4087-2-6-5-45-3"><tspan
       x="-1208.816"
       y="-465.7341"
       id="tspan4089-7-2-9-75-7" /></text>
  <text
     fill="#000000"
     font-family="'Bitstream Vera Sans'"
     x="-3032.5017"
     y="279.81946"
     xml:space="preserve"
     font-size="12.666px"
     opacity=".8"
     id="text4087-2-6-5-59-8"><tspan
       x="-3032.5017"
       y="279.81946"
       id="tspan4089-7-2-9-4-2" /></text>
  <g
     transform="matrix(.90475 0 0 .90475 -716.75 -676.29)"
     id="layer4-0">
    <text
       fill="#000000"
       font-family="'Bitstream Vera Sans'"
       x="-664.2738"
       y="1159.4154"
       xml:space="preserve"
       font-size="14px"
       opacity=".8"
       id="text4087-2-6-5-20"><tspan
         x="-664.2738"
         y="1159.4154"
         id="tspan4089-7-2-9-82" /></text>
  </g>
  <text
     fill="#000000"
     font-family="'Bitstream Vera Sans'"
     x="877.22626"
     y="18.050589"
     xml:space="preserve"
     font-size="12.666px"
     opacity=".8"
     id="text4087-2-6-5-9"><tspan
       x="877.22626"
       y="18.050589"
       id="tspan4089-7-2-9-43" /></text>
  <text
     fill="#000000"
     font-family="'Bitstream Vera Sans'"
     x="901.18719"
     y="-22.691116"
     xml:space="preserve"
     font-size="12.666px"
     opacity=".8"
     id="text4087-2-6-5-5-51"><tspan
       x="901.18719"
       y="-22.691116"
       id="tspan4089-7-2-9-6-74" /></text>
  <text
     fill="#000000"
     font-family="'Bitstream Vera Sans'"
     x="-569.37115"
     y="-52.76926"
     xml:space="preserve"
     font-size="12.666px"
     opacity=".8"
     id="text4087-2-6-5-2-3"><tspan
       x="-569.37115"
       y="-52.76926"
       id="tspan4089-7-2-9-2-1" /></text>
  <text
     fill="#000000"
     font-family="'Bitstream Vera Sans'"
     x="-2393.0571"
     y="692.78418"
     xml:space="preserve"
     font-size="12.666px"
     opacity=".8"
     id="text4087-2-6-5-59-4"><tspan
       x="-2393.0571"
       y="692.78418"
       id="tspan4089-7-2-9-4-6" /></text>
  <text
     fill="#000000"
     font-family="'Bitstream Vera Sans'"
     x="-454.88007"
     y="-438.09021"
     xml:space="preserve"
     font-size="12.666px"
     opacity=".8"
     id="text4087-2-6-5-1-9"><tspan
       x="-454.88007"
       y="-438.09021"
       id="tspan4089-7-2-9-7-4" /></text>
  <text
     fill="#000000"
     font-family="'Bitstream Vera Sans'"
     x="352.72208"
     y="-851.5603"
     xml:space="preserve"
     font-size="12.666px"
     opacity=".8"
     id="text4087-2-6-5-7-2"><tspan
       x="352.72208"
       y="-851.5603"
       id="tspan4089-7-2-9-1-26" /></text>
  <text
     fill="#000000"
     font-family="'Bitstream Vera Sans'"
     x="376.68301"
     y="-892.30206"
     xml:space="preserve"
     font-size="12.666px"
     opacity=".8"
     id="text4087-2-6-5-5-3-4"><tspan
       x="376.68301"
       y="-892.30206"
       id="tspan4089-7-2-9-6-5-1" /></text>
  <text
     fill="#000000"
     font-family="'Bitstream Vera Sans'"
     x="-1114.7802"
     y="-899.51196"
     xml:space="preserve"
     font-size="12.666px"
     opacity=".8"
     id="text4087-2-6-5-3-2"><tspan
       x="-1114.7802"
       y="-899.51196"
       id="tspan4089-7-2-9-18-8" /></text>
  <text
     fill="#000000"
     font-family="'Bitstream Vera Sans'"
     x="345.7626"
     y="-1172.7461"
     xml:space="preserve"
     font-size="12.666px"
     opacity=".8"
     id="text4087-2-6-5-4-89"><tspan
       x="345.7626"
       y="-1172.7461"
       id="tspan4089-7-2-9-9-2" /></text>
  <text
     fill="#000000"
     font-family="'Bitstream Vera Sans'"
     x="1831.8861"
     y="-546.05475"
     xml:space="preserve"
     font-size="12.666px"
     opacity=".8"
     id="text4087-2-6-5-7-1-8"><tspan
       x="1831.8861"
       y="-546.05475"
       id="tspan4089-7-2-9-1-8-8" /></text>
  <text
     fill="#000000"
     font-family="'Bitstream Vera Sans'"
     x="1855.8469"
     y="-586.79651"
     xml:space="preserve"
     font-size="12.666px"
     opacity=".8"
     id="text4087-2-6-5-5-5-8"><tspan
       x="1855.8469"
       y="-586.79651"
       id="tspan4089-7-2-9-6-9-6" /></text>
  <text
     fill="#000000"
     font-family="'Bitstream Vera Sans'"
     x="364.38376"
     y="-594.00641"
     xml:space="preserve"
     font-size="12.666px"
     opacity=".8"
     id="text4087-2-6-5-75-8"><tspan
       x="364.38376"
       y="-594.00641"
       id="tspan4089-7-2-9-3-3" /></text>
  <text
     fill="#000000"
     font-family="'Bitstream Vera Sans'"
     x="1824.9266"
     y="-867.24036"
     xml:space="preserve"
     font-size="12.666px"
     opacity=".8"
     id="text4087-2-6-5-4-8-8"><tspan
       x="1824.9266"
       y="-867.24036"
       id="tspan4089-7-2-9-9-8-3" /></text>
  <text
     fill="#000000"
     font-family="'Bitstream Vera Sans'"
     x="-573.43256"
     y="-642.09772"
     xml:space="preserve"
     font-size="12.666px"
     opacity=".8"
     id="text4087-2-6-5-45-33"><tspan
       x="-573.43256"
       y="-642.09772"
       id="tspan4089-7-2-9-75-8" /></text>
  <text
     fill="#000000"
     font-family="'Bitstream Vera Sans'"
     x="-2397.1182"
     y="103.45585"
     xml:space="preserve"
     font-size="12.666px"
     opacity=".8"
     id="text4087-2-6-5-59-7-0"><tspan
       x="-2397.1182"
       y="103.45585"
       id="tspan4089-7-2-9-4-0-4" /></text>
  <text
     fill="#000000"
     font-family="'Bitstream Vera Sans'"
     x="-682.36279"
     y="196.32799"
     xml:space="preserve"
     font-size="12.666px"
     opacity=".8"
     id="text4087-2-6-5-8-7"><tspan
       x="-682.36279"
       y="196.32799"
       id="tspan4089-7-2-9-19-6" /></text>
  <text
     fill="#000000"
     font-family="'Bitstream Vera Sans'"
     x="426.66153"
     y="17.14584"
     xml:space="preserve"
     font-size="12.666px"
     opacity=".8"
     id="text4087-2-6-5-7-5-8"><tspan
       x="426.66153"
       y="17.14584"
       id="tspan4089-7-2-9-1-2-9" /></text>
  <text
     fill="#000000"
     font-family="'Bitstream Vera Sans'"
     x="450.62247"
     y="-23.595865"
     xml:space="preserve"
     font-size="12.666px"
     opacity=".8"
     id="text4087-2-6-5-5-0-0"><tspan
       x="450.62247"
       y="-23.595865"
       id="tspan4089-7-2-9-6-2-6" /></text>
  <text
     fill="#000000"
     font-family="'Bitstream Vera Sans'"
     x="-1040.8407"
     y="-30.805836"
     xml:space="preserve"
     font-size="12.666px"
     opacity=".8"
     id="text4087-2-6-5-26-8"><tspan
       x="-1040.8407"
       y="-30.805836"
       id="tspan4089-7-2-9-90-7" /></text>
  <text
     fill="#000000"
     font-family="'Bitstream Vera Sans'"
     x="419.70206"
     y="-304.03989"
     xml:space="preserve"
     font-size="12.666px"
     opacity=".8"
     id="text4087-2-6-5-4-3-9"><tspan
       x="419.70206"
       y="-304.03989"
       id="tspan4089-7-2-9-9-5-0" /></text>
  <text
     fill="#000000"
     font-family="'Bitstream Vera Sans'"
     x="-608.03253"
     y="-33.520081"
     xml:space="preserve"
     font-size="12.666px"
     opacity=".8"
     id="text4087-2-6-5-55-3"><tspan
       x="-608.03253"
       y="-33.520081"
       id="tspan4089-7-2-9-32-3" /></text>
  <text
     fill="#000000"
     font-family="'Bitstream Vera Sans'"
     x="-2431.7185"
     y="712.03345"
     xml:space="preserve"
     font-size="12.666px"
     opacity=".8"
     id="text4087-2-6-5-59-9-3"><tspan
       x="-2431.7185"
       y="712.03345"
       id="tspan4089-7-2-9-4-1-7" /></text>
  <text
     fill="#000000"
     font-family="'Bitstream Vera Sans'"
     x="-456.93948"
     y="-895.0506"
     xml:space="preserve"
     font-size="12.666px"
     opacity=".8"
     id="text4087-2-6-5-1-8-3"><tspan
       x="-456.93948"
       y="-895.0506"
       id="tspan4089-7-2-9-7-8-2" /></text>
  <text
     fill="#000000"
     font-family="'Bitstream Vera Sans'"
     x="350.66266"
     y="-1308.5208"
     xml:space="preserve"
     font-size="12.666px"
     opacity=".8"
     id="text4087-2-6-5-7-8-6"><tspan
       x="350.66266"
       y="-1308.5208"
       id="tspan4089-7-2-9-1-9-5" /></text>
  <text
     fill="#000000"
     font-family="'Bitstream Vera Sans'"
     x="374.62357"
     y="-1349.2626"
     xml:space="preserve"
     font-size="12.666px"
     opacity=".8"
     id="text4087-2-6-5-5-52-2"><tspan
       x="374.62357"
       y="-1349.2626"
       id="tspan4089-7-2-9-6-4-6" /></text>
  <text
     fill="#000000"
     font-family="'Bitstream Vera Sans'"
     x="-1116.8396"
     y="-1356.4724"
     xml:space="preserve"
     font-size="12.666px"
     opacity=".8"
     id="text4087-2-6-5-3-4-5"><tspan
       x="-1116.8396"
       y="-1356.4724"
       id="tspan4089-7-2-9-18-3-8" /></text>
  <text
     fill="#000000"
     font-family="'Bitstream Vera Sans'"
     x="343.70316"
     y="-1629.7065"
     xml:space="preserve"
     font-size="12.666px"
     opacity=".8"
     id="text4087-2-6-5-4-7-7"><tspan
       x="343.70316"
       y="-1629.7065"
       id="tspan4089-7-2-9-9-54-9" /></text>
  <text
     fill="#000000"
     font-family="'Bitstream Vera Sans'"
     x="1829.8265"
     y="-1003.0153"
     xml:space="preserve"
     font-size="12.666px"
     opacity=".8"
     id="text4087-2-6-5-7-1-2-6"><tspan
       x="1829.8265"
       y="-1003.0153"
       id="tspan4089-7-2-9-1-8-0-0" /></text>
  <text
     fill="#000000"
     font-family="'Bitstream Vera Sans'"
     x="1853.7874"
     y="-1043.757"
     xml:space="preserve"
     font-size="12.666px"
     opacity=".8"
     id="text4087-2-6-5-5-5-6-4"><tspan
       x="1853.7874"
       y="-1043.757"
       id="tspan4089-7-2-9-6-9-8-1" /></text>
  <text
     fill="#000000"
     font-family="'Bitstream Vera Sans'"
     x="362.32431"
     y="-1050.9668"
     xml:space="preserve"
     font-size="12.666px"
     opacity=".8"
     id="text4087-2-6-5-75-4-0"><tspan
       x="362.32431"
       y="-1050.9668"
       id="tspan4089-7-2-9-3-9-4" /></text>
  <text
     fill="#000000"
     font-family="'Bitstream Vera Sans'"
     x="1822.8671"
     y="-1324.2009"
     xml:space="preserve"
     font-size="12.666px"
     opacity=".8"
     id="text4087-2-6-5-4-8-1-8"><tspan
       x="1822.8671"
       y="-1324.2009"
       id="tspan4089-7-2-9-9-8-8-7" /></text>
  <text
     fill="#000000"
     font-family="'Bitstream Vera Sans'"
     x="-575.492"
     y="-1099.0581"
     xml:space="preserve"
     font-size="12.666px"
     opacity=".8"
     id="text4087-2-6-5-45-0-0"><tspan
       x="-575.492"
       y="-1099.0581"
       id="tspan4089-7-2-9-75-2-8" /></text>
  <text
     fill="#000000"
     font-family="'Bitstream Vera Sans'"
     x="-2399.1777"
     y="-353.50461"
     xml:space="preserve"
     font-size="12.666px"
     opacity=".8"
     id="text4087-2-6-5-59-5-6"><tspan
       x="-2399.1777"
       y="-353.50461"
       id="tspan4089-7-2-9-4-00-2" /></text>
  <text
     fill="#000000"
     font-family="'Bitstream Vera Sans'"
     x="-684.42224"
     y="-260.63245"
     xml:space="preserve"
     font-size="12.666px"
     opacity=".8"
     id="text4087-2-6-5-264-4"><tspan
       x="-684.42224"
       y="-260.63245"
       id="tspan4089-7-2-9-8-7" /></text>
  <text
     fill="#000000"
     font-family="'Bitstream Vera Sans'"
     x="155.5923"
     y="-19.71829"
     xml:space="preserve"
     font-size="12.666px"
     opacity=".8"
     id="text4087-2-6-5-42-9"><tspan
       x="155.5923"
       y="-19.71829"
       id="tspan4089-7-2-9-93-3" /></text>
  <text
     fill="#000000"
     font-family="'Bitstream Vera Sans'"
     x="179.55324"
     y="-60.460011"
     xml:space="preserve"
     font-size="12.666px"
     opacity=".8"
     id="text4087-2-6-5-5-05-9"><tspan
       x="179.55324"
       y="-60.460011"
       id="tspan4089-7-2-9-6-49-2" /></text>
  <text
     fill="#000000"
     font-family="'Bitstream Vera Sans'"
     x="-1090.2634"
     y="-254.4886"
     xml:space="preserve"
     font-size="12.666px"
     opacity=".8"
     id="text4087-2-6-5-1-4-8"><tspan
       x="-1090.2634"
       y="-254.4886"
       id="tspan4089-7-2-9-7-7-3" /></text>
  <text
     fill="#000000"
     font-family="'Bitstream Vera Sans'"
     x="-282.66141"
     y="-667.9588"
     xml:space="preserve"
     font-size="12.666px"
     opacity=".8"
     id="text4087-2-6-5-7-56-0"><tspan
       x="-282.66141"
       y="-667.9588"
       id="tspan4089-7-2-9-1-1-1" /></text>
  <text
     fill="#000000"
     font-family="'Bitstream Vera Sans'"
     x="-258.70047"
     y="-708.7005"
     xml:space="preserve"
     font-size="12.666px"
     opacity=".8"
     id="text4087-2-6-5-5-8-7"><tspan
       x="-258.70047"
       y="-708.7005"
       id="tspan4089-7-2-9-6-7-8" /></text>
  <text
     fill="#000000"
     font-family="'Bitstream Vera Sans'"
     x="-1750.1636"
     y="-715.91046"
     xml:space="preserve"
     font-size="12.666px"
     opacity=".8"
     id="text4087-2-6-5-3-42-9"><tspan
       x="-1750.1636"
       y="-715.91046"
       id="tspan4089-7-2-9-18-39-1" /></text>
  <text
     fill="#000000"
     font-family="'Bitstream Vera Sans'"
     x="-289.62085"
     y="-989.14447"
     xml:space="preserve"
     font-size="12.666px"
     opacity=".8"
     id="text4087-2-6-5-4-4-5"><tspan
       x="-289.62085"
       y="-989.14447"
       id="tspan4089-7-2-9-9-3-4" /></text>
  <text
     fill="#000000"
     font-family="'Bitstream Vera Sans'"
     x="1196.5026"
     y="-362.45316"
     xml:space="preserve"
     font-size="12.666px"
     opacity=".8"
     id="text4087-2-6-5-7-1-0-9"><tspan
       x="1196.5026"
       y="-362.45316"
       id="tspan4089-7-2-9-1-8-5-2" /></text>
  <text
     fill="#000000"
     font-family="'Bitstream Vera Sans'"
     x="1220.4634"
     y="-403.19489"
     xml:space="preserve"
     font-size="12.666px"
     opacity=".8"
     id="text4087-2-6-5-5-5-5-5"><tspan
       x="1220.4634"
       y="-403.19489"
       id="tspan4089-7-2-9-6-9-2-7" /></text>
  <text
     fill="#000000"
     font-family="'Bitstream Vera Sans'"
     x="-270.99973"
     y="-410.40482"
     xml:space="preserve"
     font-size="12.666px"
     opacity=".8"
     id="text4087-2-6-5-75-9-4"><tspan
       x="-270.99973"
       y="-410.40482"
       id="tspan4089-7-2-9-3-1-9" /></text>
  <text
     fill="#000000"
     font-family="'Bitstream Vera Sans'"
     x="1189.5431"
     y="-683.63892"
     xml:space="preserve"
     font-size="12.666px"
     opacity=".8"
     id="text4087-2-6-5-4-8-18-9"><tspan
       x="1189.5431"
       y="-683.63892"
       id="tspan4089-7-2-9-9-8-4-4" /></text>
  <text
     fill="#000000"
     font-family="'Bitstream Vera Sans'"
     x="-1208.816"
     y="-458.49609"
     xml:space="preserve"
     font-size="12.666px"
     opacity=".8"
     id="text4087-2-6-5-45-3-5"><tspan
       x="-1208.816"
       y="-458.49609"
       id="tspan4089-7-2-9-75-7-9" /></text>
  <text
     fill="#000000"
     font-family="'Bitstream Vera Sans'"
     x="-3032.5017"
     y="287.05743"
     xml:space="preserve"
     font-size="12.666px"
     opacity=".8"
     id="text4087-2-6-5-59-8-3"><tspan
       x="-3032.5017"
       y="287.05743"
       id="tspan4089-7-2-9-4-2-5" /></text>
  <g
     transform="matrix(.90475 0 0 .90475 -716.75 -669.05)"
     id="layer4-0-7">
    <text
       fill="#000000"
       font-family="'Bitstream Vera Sans'"
       x="-664.2738"
       y="1159.4154"
       xml:space="preserve"
       font-size="14px"
       opacity=".8"
       id="text4087-2-6-5-20-0"><tspan
         x="-664.2738"
         y="1159.4154"
         id="tspan4089-7-2-9-82-8" /></text>
  </g>
  <text
     fill="#000000"
     font-family="'Droid Sans'"
     x="435.90427"
     y="-361.22546"
     xml:space="preserve"
     font-size="12.666px"
     id="text7276"><tspan
       x="435.90427"
       y="-361.22546"
       id="tspan7278" /><tspan
       x="435.90427"
       y="-345.3924"
       id="tspan7280" /></text>
  <text
     fill="#000000"
     font-family="'Bitstream Vera Sans'"
     x="901.0882"
     y="-843.27002"
     xml:space="preserve"
     font-size="12.666px"
     opacity=".8"
     id="text4087-2-6-5-51"><tspan
       x="901.0882"
       y="-843.27002"
       id="tspan4089-7-2-9-97" /></text>
  <text
     fill="#000000"
     font-family="'Bitstream Vera Sans'"
     x="-922.59778"
     y="-97.716553"
     xml:space="preserve"
     font-size="12.666px"
     opacity=".8"
     id="text4087-2-6-5-59-2"><tspan
       x="-922.59778"
       y="-97.716553"
       id="tspan4089-7-2-9-4-4" /></text>
  <text
     fill="#000000"
     font-family="'Bitstream Vera Sans'"
     x="1628.1677"
     y="-1128.2659"
     xml:space="preserve"
     font-size="12.666px"
     opacity=".8"
     id="text4087-2-6-5-7-7"><tspan
       x="1628.1677"
       y="-1128.2659"
       id="tspan4089-7-2-9-1-6" /></text>
  <text
     fill="#000000"
     font-family="'Bitstream Vera Sans'"
     x="1652.1285"
     y="-1169.0076"
     xml:space="preserve"
     font-size="12.666px"
     opacity=".8"
     id="text4087-2-6-5-5-6"><tspan
       x="1652.1285"
       y="-1169.0076"
       id="tspan4089-7-2-9-6-53" /></text>
  <text
     fill="#000000"
     font-family="'Bitstream Vera Sans'"
     x="160.66542"
     y="-1176.2175"
     xml:space="preserve"
     font-size="12.666px"
     opacity=".8"
     id="text4087-2-6-5-54"><tspan
       x="160.66542"
       y="-1176.2175"
       id="tspan4089-7-2-9-0" /></text>
  <text
     fill="#000000"
     font-family="'Bitstream Vera Sans'"
     x="1621.2083"
     y="-1449.4517"
     xml:space="preserve"
     font-size="12.666px"
     opacity=".8"
     id="text4087-2-6-5-4-1"><tspan
       x="1621.2083"
       y="-1449.4517"
       id="tspan4089-7-2-9-9-28" /></text>
  <rect
     id="rect4203"
     transform="matrix(0,-1,-1,0,0,0)"
     rx="20"
     ry="20"
     height="40"
     width="40"
     y="-44"
     x="-44"
     style="fill:#02a8f3" />
  <path
     id="path4436"
     d="m 24.038,11 c -5.9053,0 -10.953,3.6737 -12.99,8.8415 -0.10842,0.26286 -0.20364,0.5321 -0.29603,0.80272 -0.01814,0.05601 -0.03904,0.11043 -0.05648,0.16675 -0.443,1.353 -0.696,2.79 -0.696,4.289 0,7.667 6.261,13.9 13.962,13.9 5.8496,0 10.862,-3.6008 12.938,-8.6903 5.41e-4,-0.0013 0.0014,-0.0025 0.002,-0.0039 0.14915,-0.3505 0.275,-0.71169 0.39535,-1.0761 0.45047,-1.364 0.70307,-2.8173 0.70307,-4.3296 0,-7.6653 -6.2626,-13.9 -13.962,-13.9 z m -1.0049,2.1697 0,4.6786 c -1.3331,-0.04682 -2.6079,-0.18745 -3.786,-0.40911 0.17695,-0.41285 0.36246,-0.81047 0.56479,-1.173 0.93268,-1.6714 2.059,-2.714 3.2213,-3.0965 z m 1.9943,0.07756 c 0.10479,0.01728 0.21139,0.0294 0.3155,0.04847 1.0502,0.45757 2.0595,1.4505 2.9077,2.9704 0.19858,0.35586 0.38089,0.74546 0.55505,1.1498 -1.1728,0.22747 -2.4465,0.37511 -3.7782,0.4285 l 0,-4.5972 z m -6.2497,0.95783 c -0.25015,0.34771 -0.49137,0.70759 -0.70891,1.0974 -0.28958,0.51894 -0.54855,1.0811 -0.78681,1.6675 -0.58376,-0.17046 -1.1238,-0.36342 -1.6282,-0.57198 0.91023,-0.8897 1.9651,-1.6283 3.1239,-2.1929 z m 10.723,0.2986 c 0.5446,0.21747 0.96212,0.42034 1.3808,0.62433 0.5316,0.36927 1.0323,0.779 1.4957,1.2273 -0.49827,0.21091 -1.0342,0.40654 -1.6126,0.57974 -0.23449,-0.5732 -0.48751,-1.1241 -0.77123,-1.6326 -0.15492,-0.27763 -0.32181,-0.54086 -0.49273,-0.79884 z m 4.1794,3.3505 c 1.2724,1.7245 2.089,3.7985 2.2747,6.0591 l -3.7549,0 c -0.07331,-1.8155 -0.34687,-3.5327 -0.78876,-5.0936 0.79638,-0.24303 1.5443,-0.52189 2.228,-0.83955 0.01852,-0.04329 0.02899,-0.08449 0.0409,-0.12603 z m -19.382,0.13185 c 0.71581,0.3316 1.5046,0.6188 2.3429,0.86864 -0.43613,1.5517 -0.70626,3.2566 -0.77902,5.0587 l -3.7412,0 c 0.18105,-2.203 0.96025,-4.2292 2.1774,-5.9273 z m 15.177,1.3243 c 0.39681,1.3904 0.65384,2.9469 0.72838,4.603 l -5.1766,0 0,-4.0834 c 1.5669,-0.05722 3.064,-0.23341 4.4482,-0.51963 z m -10.897,0.02908 c 1.3875,0.27872 2.8869,0.44505 4.4541,0.49442 l 0,4.0795 -5.1746,0 c 0.07403,-1.6448 0.3284,-3.1908 0.7206,-4.5739 z m -6.4581,6.5594 3.7412,0 c 0.07476,1.8516 0.35663,3.6027 0.81408,5.1886 -0.81939,0.24261 -1.5884,0.52322 -2.2923,0.84343 -1.2636,-1.7185 -2.076,-3.7826 -2.2631,-6.032 z m 5.7375,0 5.1746,0 0,4.2191 c -1.5539,0.0488 -3.0414,0.21214 -4.419,0.48667 -0.41328,-1.4161 -0.6793,-3.0093 -0.75565,-4.7058 z m 7.1689,0 5.1766,0 c -0.07686,1.7078 -0.34545,3.3117 -0.76344,4.7349 -1.3744,-0.28197 -2.8594,-0.45525 -4.4132,-0.51188 l 0,-4.223 z m 7.1728,0 3.7549,0 c -0.18924,2.2758 -1.0187,4.3618 -2.3078,6.0921 -0.0037,-0.0061 -0.0039,-0.01334 -0.0078,-0.01939 -0.69354,-0.32222 -1.4538,-0.60388 -2.2631,-0.84925 0.46332,-1.5949 0.74852,-3.3585 0.82382,-5.2235 z m -9.1671,6.2046 0,4.5371 c -1.1617,-0.38308 -2.2888,-1.4217 -3.2213,-3.0926 -0.18163,-0.32548 -0.34894,-0.67878 -0.51026,-1.0451 1.1631,-0.21596 2.4189,-0.35321 3.7315,-0.39942 z m 1.9943,0.0039 c 1.3124,0.05215 2.5669,0.19492 3.7257,0.41687 -0.15872,0.35879 -0.32422,0.70432 -0.50247,1.0238 -0.9328,1.6716 -2.0604,2.7099 -3.2232,3.0926 l 0,-4.5332 z m -7.6928,0.85894 c 0.22485,0.54063 0.46521,1.0632 0.73423,1.5453 0.21151,0.37903 0.44331,0.73284 0.68554,1.0722 -1.1008,-0.53939 -2.1046,-1.2381 -2.9817,-2.0727 0.48839,-0.19652 1.0024,-0.38324 1.5619,-0.54484 z m 13.38,0.0349 c 0.55357,0.16405 1.063,0.35193 1.5444,0.55066 -0.87127,0.8207 -1.8652,1.5082 -2.9544,2.0397 0.2432,-0.34281 0.47651,-0.69842 0.68943,-1.08 0.26327,-0.47179 0.49958,-0.98249 0.72059,-1.5104 z"
     style="color:#000000;text-indent:0;text-decoration:none;text-decoration-line:none;text-decoration-style:solid;text-decoration-color:#000000;text-transform:none;block-progression:tb;white-space:normal;opacity:0.2;isolation:auto;mix-blend-mode:normal;solid-color:#000000;fill-rule:evenodd;color-rendering:auto;image-rendering:auto;shape-rendering:auto" />
  <path
     id="path4693"
     d="m 24.038,10 c -5.9053,0 -10.953,3.6737 -12.99,8.8415 -0.10842,0.26286 -0.20364,0.5321 -0.29603,0.80272 -0.01814,0.05601 -0.03904,0.11043 -0.05648,0.16675 -0.443,1.353 -0.696,2.79 -0.696,4.289 0,7.667 6.261,13.9 13.962,13.9 5.8496,0 10.862,-3.6008 12.938,-8.6903 5.41e-4,-0.0013 0.0014,-0.0025 0.002,-0.0039 0.14915,-0.3505 0.275,-0.71169 0.39535,-1.0761 0.45047,-1.364 0.70307,-2.8173 0.70307,-4.3296 0,-7.6653 -6.2626,-13.9 -13.962,-13.9 z m -1.0049,2.1697 0,4.6786 c -1.3331,-0.04682 -2.6079,-0.18745 -3.786,-0.40911 0.17695,-0.41285 0.36246,-0.81047 0.56479,-1.173 0.93268,-1.6714 2.059,-2.714 3.2213,-3.0965 z m 1.9943,0.07756 c 0.10479,0.01728 0.21139,0.0294 0.3155,0.04847 1.0502,0.45757 2.0595,1.4505 2.9077,2.9704 0.19858,0.35586 0.38089,0.74546 0.55505,1.1498 -1.1728,0.22747 -2.4465,0.37511 -3.7782,0.4285 l 0,-4.5972 z m -6.2497,0.95783 c -0.25015,0.34771 -0.49137,0.70759 -0.70891,1.0974 -0.28958,0.51894 -0.54855,1.0811 -0.78681,1.6675 -0.58376,-0.17046 -1.1238,-0.36342 -1.6282,-0.57198 0.91023,-0.8897 1.9651,-1.6283 3.1239,-2.1929 z m 10.723,0.2986 c 0.5446,0.21747 0.96212,0.42034 1.3808,0.62433 0.5316,0.36927 1.0323,0.779 1.4957,1.2273 -0.49827,0.21091 -1.0342,0.40654 -1.6126,0.57974 -0.23449,-0.5732 -0.48751,-1.1241 -0.77123,-1.6326 -0.15492,-0.27763 -0.32181,-0.54086 -0.49273,-0.79884 z m 4.1794,3.3505 c 1.2724,1.7245 2.089,3.7985 2.2747,6.0591 l -3.7549,0 c -0.07331,-1.8155 -0.34687,-3.5327 -0.78876,-5.0936 0.79638,-0.24303 1.5443,-0.52189 2.228,-0.83955 0.01852,-0.04329 0.02899,-0.08449 0.0409,-0.12603 z m -19.382,0.13185 c 0.71581,0.3316 1.5046,0.6188 2.3429,0.86864 -0.43613,1.5517 -0.70626,3.2566 -0.77902,5.0587 l -3.7412,0 c 0.18105,-2.203 0.96025,-4.2292 2.1774,-5.9273 z m 15.177,1.3243 c 0.39681,1.3904 0.65384,2.9469 0.72838,4.603 l -5.1766,0 0,-4.0834 c 1.5669,-0.05722 3.064,-0.23341 4.4482,-0.51963 z m -10.897,0.02908 c 1.3875,0.27872 2.8869,0.44505 4.4541,0.49442 l 0,4.0795 -5.1746,0 c 0.07403,-1.6448 0.3284,-3.1908 0.7206,-4.5739 z m -6.4581,6.5594 3.7412,0 c 0.07476,1.8516 0.35663,3.6027 0.81408,5.1886 -0.81939,0.24261 -1.5884,0.52322 -2.2923,0.84343 -1.2636,-1.7185 -2.076,-3.7826 -2.2631,-6.032 z m 5.7375,0 5.1746,0 0,4.2191 c -1.5539,0.0488 -3.0414,0.21214 -4.419,0.48667 -0.41328,-1.4161 -0.6793,-3.0093 -0.75565,-4.7058 z m 7.1689,0 5.1766,0 c -0.07686,1.7078 -0.34545,3.3117 -0.76344,4.7349 -1.3744,-0.28197 -2.8594,-0.45525 -4.4132,-0.51188 l 0,-4.223 z m 7.1728,0 3.7549,0 c -0.18924,2.2758 -1.0187,4.3618 -2.3078,6.0921 -0.0037,-0.0061 -0.0039,-0.01334 -0.0078,-0.01939 -0.69354,-0.32222 -1.4538,-0.60388 -2.2631,-0.84925 0.46332,-1.5949 0.74852,-3.3585 0.82382,-5.2235 z m -9.1671,6.2046 0,4.5371 c -1.1617,-0.38308 -2.2888,-1.4217 -3.2213,-3.0926 -0.18163,-0.32548 -0.34894,-0.67878 -0.51026,-1.0451 1.1631,-0.21596 2.4189,-0.35321 3.7315,-0.39942 z m 1.9943,0.0039 c 1.3124,0.05215 2.5669,0.19492 3.7257,0.41687 -0.15872,0.35879 -0.32422,0.70432 -0.50247,1.0238 -0.9328,1.6716 -2.0604,2.7099 -3.2232,3.0926 l 0,-4.5332 z m -7.6928,0.85894 c 0.22485,0.54063 0.46521,1.0632 0.73423,1.5453 0.21151,0.37903 0.44331,0.73284 0.68554,1.0722 -1.1008,-0.53939 -2.1046,-1.2381 -2.9817,-2.0727 0.48839,-0.19652 1.0024,-0.38324 1.5619,-0.54484 z m 13.38,0.0349 c 0.55357,0.16405 1.063,0.35193 1.5444,0.55066 -0.87127,0.8207 -1.8652,1.5082 -2.9544,2.0397 0.2432,-0.34281 0.47651,-0.69842 0.68943,-1.08 0.26327,-0.47179 0.49958,-0.98249 0.72059,-1.5104 z"
     style="color:#000000;text-indent:0;text-decoration:none;text-decoration-line:none;text-decoration-style:solid;text-decoration-color:#000000;text-transform:none;block-progression:tb;white-space:normal;isolation:auto;mix-blend-mode:normal;solid-color:#000000;fill:#ffffff;fill-rule:evenodd;color-rendering:auto;image-rendering:auto;shape-rendering:auto" />
  <path
     id="rect4438"
     d="M 24,4 C 12.92,4 4,12.92 4,24 4,24.168 4.0076,24.333 4.0117,24.5 4.2764,13.654 13.088,5 23.9997,5 c 10.9117,0 19.724,8.654 19.988,19.5 0.004,-0.167 0.012,-0.332 0.012,-0.5 0,-11.08 -8.92,-20 -20,-20 z"
     style="opacity:0.2;fill:#ffffff" />
  <path
     id="rect4701"
     d="M 4.0117,24.5 C 4.0076,24.667 4,24.832 4,25 c 0,11.08 8.92,20 20,20 11.08,0 20,-8.92 20,-20 0,-0.16787 -0.0076,-0.33314 -0.01172,-0.5 -0.264,10.846 -9.076,19.5 -19.988,19.5 -10.912,0 -19.724,-8.654 -19.988,-19.5 z"
     style="opacity:0.2" />
</svg>
