<?xml version="1.0" encoding="UTF-8" standalone="no"?>
<svg
   xmlns:dc="http://purl.org/dc/elements/1.1/"
   xmlns:cc="http://creativecommons.org/ns#"
   xmlns:rdf="http://www.w3.org/1999/02/22-rdf-syntax-ns#"
   xmlns:svg="http://www.w3.org/2000/svg"
   xmlns="http://www.w3.org/2000/svg"
   id="svg2"
   preserveAspectRatio="xMidYMid"
   version="1.1"
   viewBox="0 0 48 48"
   height="48"
   width="48">
  <metadata
     id="metadata33">
    <rdf:RDF>
      <cc:Work
         rdf:about="">
        <dc:format>image/svg+xml</dc:format>
        <dc:type
           rdf:resource="http://purl.org/dc/dcmitype/StillImage" />
        <dc:title />
      </cc:Work>
    </rdf:RDF>
  </metadata>
  <defs
     id="defs4">
    <linearGradient
       gradientUnits="userSpaceOnUse"
       gradientTransform="matrix(0.18885351,0,0,0.12862752,3.966219,8.9999997)"
       id="linearGradient-1"
       y2="127.76156"
       x2="211.76385"
       y1="127.76156"
       x1="1.3210427">
      <stop
         id="stop7"
         offset="0%"
         stop-opacity="0.1"
         stop-color="#000000" />
      <stop
         id="stop9"
         offset="100%"
         stop-opacity="0.2"
         stop-color="#000000" />
    </linearGradient>
  </defs>
  <path
     d="M 41.5,39 6.5000001,39 C 5.1428573,39 4.0000002,37.903302 4.0000002,36.523584 l 0,-25.047169 C 4.0000002,10.132075 5.107143,9 6.5000001,9 L 41.5,9 c 1.357142,0 2.5,1.096698 2.5,2.476415 l 0,25.047169 C 44,37.903302 42.892857,39 41.5,39 l 0,0 z"
     id="path13"
     style="fill:#cccccc;fill-opacity:1" />
  <path
     id="path17"
     d="M 6.4999994,10 C 5.2775389,10 4.2759797,10.190451 4.048904,11.163435 4.017233,11.299142 4,11.450468 4,11.618268 L 4,36.540387 C 4,37.911279 5.107037,39 6.4999999,39 L 9,39 9,11.618268 C 9,11.451301 8.982136,11.298959 8.94914,11.163435 8.7220595,10.190457 7.722457,9.9999999 6.4999994,10 Z"
     style="fill:#d54b3d" />
  <path
     id="path21"
     d="M 41.500001,10.000004 C 40.107038,10.000004 39,10.174943 39,11.544175 l 0,27.42073 0,0.0351 2.500001,0 C 42.892964,39.000004 44,37.9126 44,36.543368 l 0,-24.999189 c 0,-1.369232 -1.107036,-1.544171 -2.499999,-1.544171 z"
     style="fill:#d54b3d" />
  <path
     id="path27"
     d="M 6.5 9 C 5.1071429 9 4 10.132223 4 11.476562 L 4 11.898438 C 4.0928206 12.253521 4.2198174 12.596512 4.3984375 12.880859 C 4.5711714 13.156724 4.7978444 13.405194 5.0742188 13.607422 L 23.939453 27.148438 L 34.996094 19.197266 L 42.947266 13.501953 C 43.480106 13.12425 43.841395 12.57658 44 11.990234 L 44 11.476562 C 44 10.096846 42.857142 9 41.5 9 L 41.148438 9 C 40.737566 9.0729623 40.294369 9.2306275 39.988281 9.4570312 L 23.939453 21.027344 L 8 9.5976562 C 7.6790493 9.3602588 7.0405723 9.1104515 6.515625 9 L 6.5 9 z "
     style="fill:#d54b3d" />
  <path
     id="path4175"
     d="m 4,36.523438 0,1 C 4,38.903155 5.1428572,40 6.5,40 l 35,0 c 1.392857,0 2.5,-1.096845 2.5,-2.476562 l 0,-1 C 44,37.903155 42.892857,39 41.5,39 l -35,0 C 5.1428572,39 4,37.903155 4,36.523438 Z"
     style="opacity:0.2;fill:#000000;fill-opacity:1" />
  <path
     id="path4180"
     d="M 6.5,9 C 5.1071429,9 4,10.132223 4,11.476562 l 0,1 C 4,11.132223 5.1071429,10 6.5,10 l 35,0 c 1.357142,0 2.5,1.096846 2.5,2.476562 l 0,-1 C 44,10.096846 42.857142,9 41.5,9 l -35,0 z"
     style="opacity:0.1;fill:#ffffff;fill-opacity:1" />
</svg>
