<?xml version="1.0" encoding="UTF-8" standalone="no"?>
<svg
   xmlns:dc="http://purl.org/dc/elements/1.1/"
   xmlns:cc="http://creativecommons.org/ns#"
   xmlns:rdf="http://www.w3.org/1999/02/22-rdf-syntax-ns#"
   xmlns:svg="http://www.w3.org/2000/svg"
   xmlns="http://www.w3.org/2000/svg"
   version="1.0"
   width="48"
   height="48"
   id="svg2817">
  <metadata
     id="metadata57">
    <rdf:RDF>
      <cc:Work
         rdf:about="">
        <dc:format>image/svg+xml</dc:format>
        <dc:type
           rdf:resource="http://purl.org/dc/dcmitype/StillImage" />
        <dc:title />
      </cc:Work>
    </rdf:RDF>
  </metadata>
  <defs
     id="defs2819">
    <style
       type="text/css"
       id="current-color-scheme">.ColorScheme-Text {
        color:#31363b;
      }
      .ColorScheme-Background{
        color:#eff0f1;
      }
      .ColorScheme-ViewText {
        color:#31363b;
      }
      .ColorScheme-ViewBackground{
        color:#fcfcfc;
      }
      .ColorScheme-ViewHover {
        color:#3daee9;
      }
      .ColorScheme-ViewFocus{
        color:#3daee9;
      }
      .ColorScheme-ButtonText {
        color:#31363b;
      }
      .ColorScheme-ButtonBackground{
        color:#eff0f1;
      }
      .ColorScheme-ButtonHover {
        color:#3daee9;
      }
      .ColorScheme-ButtonFocus{
        color:#3daee9;
      }</style>
  </defs>
  <text
     fill="#000000"
     font-family="'Bitstream Vera Sans'"
     x="877.22626"
     y="10.812601"
     xml:space="preserve"
     font-size="12.666px"
     opacity=".8"
     id="text4087-2-6-5"><tspan
       x="877.22626"
       y="10.812601"
       id="tspan4089-7-2-9" /></text>
  <text
     fill="#000000"
     font-family="'Bitstream Vera Sans'"
     x="901.18719"
     y="-29.929106"
     xml:space="preserve"
     font-size="12.666px"
     opacity=".8"
     id="text4087-2-6-5-5"><tspan
       x="901.18719"
       y="-29.929106"
       id="tspan4089-7-2-9-6" /></text>
  <text
     fill="#000000"
     font-family="'Bitstream Vera Sans'"
     x="-569.37115"
     y="-60.007248"
     xml:space="preserve"
     font-size="12.666px"
     opacity=".8"
     id="text4087-2-6-5-2"><tspan
       x="-569.37115"
       y="-60.007248"
       id="tspan4089-7-2-9-2" /></text>
  <text
     fill="#000000"
     font-family="'Bitstream Vera Sans'"
     x="-2393.0571"
     y="685.5462"
     xml:space="preserve"
     font-size="12.666px"
     opacity=".8"
     id="text4087-2-6-5-59"><tspan
       x="-2393.0571"
       y="685.5462"
       id="tspan4089-7-2-9-4" /></text>
  <text
     fill="#000000"
     font-family="'Bitstream Vera Sans'"
     x="-454.88007"
     y="-445.32822"
     xml:space="preserve"
     font-size="12.666px"
     opacity=".8"
     id="text4087-2-6-5-1"><tspan
       x="-454.88007"
       y="-445.32822"
       id="tspan4089-7-2-9-7" /></text>
  <text
     fill="#000000"
     font-family="'Bitstream Vera Sans'"
     x="352.72208"
     y="-858.79834"
     xml:space="preserve"
     font-size="12.666px"
     opacity=".8"
     id="text4087-2-6-5-7"><tspan
       x="352.72208"
       y="-858.79834"
       id="tspan4089-7-2-9-1" /></text>
  <text
     fill="#000000"
     font-family="'Bitstream Vera Sans'"
     x="376.68301"
     y="-899.54004"
     xml:space="preserve"
     font-size="12.666px"
     opacity=".8"
     id="text4087-2-6-5-5-3"><tspan
       x="376.68301"
       y="-899.54004"
       id="tspan4089-7-2-9-6-5" /></text>
  <text
     fill="#000000"
     font-family="'Bitstream Vera Sans'"
     x="-1114.7802"
     y="-906.74994"
     xml:space="preserve"
     font-size="12.666px"
     opacity=".8"
     id="text4087-2-6-5-3"><tspan
       x="-1114.7802"
       y="-906.74994"
       id="tspan4089-7-2-9-18" /></text>
  <text
     fill="#000000"
     font-family="'Bitstream Vera Sans'"
     x="345.7626"
     y="-1179.9841"
     xml:space="preserve"
     font-size="12.666px"
     opacity=".8"
     id="text4087-2-6-5-4"><tspan
       x="345.7626"
       y="-1179.9841"
       id="tspan4089-7-2-9-9" /></text>
  <text
     fill="#000000"
     font-family="'Bitstream Vera Sans'"
     x="1831.8861"
     y="-553.29272"
     xml:space="preserve"
     font-size="12.666px"
     opacity=".8"
     id="text4087-2-6-5-7-1"><tspan
       x="1831.8861"
       y="-553.29272"
       id="tspan4089-7-2-9-1-8" /></text>
  <text
     fill="#000000"
     font-family="'Bitstream Vera Sans'"
     x="1855.8469"
     y="-594.03448"
     xml:space="preserve"
     font-size="12.666px"
     opacity=".8"
     id="text4087-2-6-5-5-5"><tspan
       x="1855.8469"
       y="-594.03448"
       id="tspan4089-7-2-9-6-9" /></text>
  <text
     fill="#000000"
     font-family="'Bitstream Vera Sans'"
     x="364.38376"
     y="-601.24438"
     xml:space="preserve"
     font-size="12.666px"
     opacity=".8"
     id="text4087-2-6-5-75"><tspan
       x="364.38376"
       y="-601.24438"
       id="tspan4089-7-2-9-3" /></text>
  <text
     fill="#000000"
     font-family="'Bitstream Vera Sans'"
     x="1824.9266"
     y="-874.47839"
     xml:space="preserve"
     font-size="12.666px"
     opacity=".8"
     id="text4087-2-6-5-4-8"><tspan
       x="1824.9266"
       y="-874.47839"
       id="tspan4089-7-2-9-9-8" /></text>
  <text
     fill="#000000"
     font-family="'Bitstream Vera Sans'"
     x="-573.43256"
     y="-649.33569"
     xml:space="preserve"
     font-size="12.666px"
     opacity=".8"
     id="text4087-2-6-5-45"><tspan
       x="-573.43256"
       y="-649.33569"
       id="tspan4089-7-2-9-75" /></text>
  <text
     fill="#000000"
     font-family="'Bitstream Vera Sans'"
     x="-2397.1182"
     y="96.217857"
     xml:space="preserve"
     font-size="12.666px"
     opacity=".8"
     id="text4087-2-6-5-59-7"><tspan
       x="-2397.1182"
       y="96.217857"
       id="tspan4089-7-2-9-4-0" /></text>
  <text
     fill="#000000"
     font-family="'Bitstream Vera Sans'"
     x="-682.36279"
     y="189.09"
     xml:space="preserve"
     font-size="12.666px"
     opacity=".8"
     id="text4087-2-6-5-8"><tspan
       x="-682.36279"
       y="189.09"
       id="tspan4089-7-2-9-19" /></text>
  <text
     fill="#000000"
     font-family="'Bitstream Vera Sans'"
     x="426.66153"
     y="9.9078522"
     xml:space="preserve"
     font-size="12.666px"
     opacity=".8"
     id="text4087-2-6-5-7-5"><tspan
       x="426.66153"
       y="9.9078522"
       id="tspan4089-7-2-9-1-2" /></text>
  <text
     fill="#000000"
     font-family="'Bitstream Vera Sans'"
     x="450.62247"
     y="-30.833855"
     xml:space="preserve"
     font-size="12.666px"
     opacity=".8"
     id="text4087-2-6-5-5-0"><tspan
       x="450.62247"
       y="-30.833855"
       id="tspan4089-7-2-9-6-2" /></text>
  <text
     fill="#000000"
     font-family="'Bitstream Vera Sans'"
     x="-1040.8407"
     y="-38.043827"
     xml:space="preserve"
     font-size="12.666px"
     opacity=".8"
     id="text4087-2-6-5-26"><tspan
       x="-1040.8407"
       y="-38.043827"
       id="tspan4089-7-2-9-90" /></text>
  <text
     fill="#000000"
     font-family="'Bitstream Vera Sans'"
     x="419.70206"
     y="-311.27789"
     xml:space="preserve"
     font-size="12.666px"
     opacity=".8"
     id="text4087-2-6-5-4-3"><tspan
       x="419.70206"
       y="-311.27789"
       id="tspan4089-7-2-9-9-5" /></text>
  <text
     fill="#000000"
     font-family="'Bitstream Vera Sans'"
     x="-608.03253"
     y="-40.758072"
     xml:space="preserve"
     font-size="12.666px"
     opacity=".8"
     id="text4087-2-6-5-55"><tspan
       x="-608.03253"
       y="-40.758072"
       id="tspan4089-7-2-9-32" /></text>
  <text
     fill="#000000"
     font-family="'Bitstream Vera Sans'"
     x="-2431.7185"
     y="704.79541"
     xml:space="preserve"
     font-size="12.666px"
     opacity=".8"
     id="text4087-2-6-5-59-9"><tspan
       x="-2431.7185"
       y="704.79541"
       id="tspan4089-7-2-9-4-1" /></text>
  <text
     fill="#000000"
     font-family="'Bitstream Vera Sans'"
     x="-456.93948"
     y="-902.28857"
     xml:space="preserve"
     font-size="12.666px"
     opacity=".8"
     id="text4087-2-6-5-1-8"><tspan
       x="-456.93948"
       y="-902.28857"
       id="tspan4089-7-2-9-7-8" /></text>
  <text
     fill="#000000"
     font-family="'Bitstream Vera Sans'"
     x="350.66266"
     y="-1315.7588"
     xml:space="preserve"
     font-size="12.666px"
     opacity=".8"
     id="text4087-2-6-5-7-8"><tspan
       x="350.66266"
       y="-1315.7588"
       id="tspan4089-7-2-9-1-9" /></text>
  <text
     fill="#000000"
     font-family="'Bitstream Vera Sans'"
     x="374.62357"
     y="-1356.5005"
     xml:space="preserve"
     font-size="12.666px"
     opacity=".8"
     id="text4087-2-6-5-5-52"><tspan
       x="374.62357"
       y="-1356.5005"
       id="tspan4089-7-2-9-6-4" /></text>
  <text
     fill="#000000"
     font-family="'Bitstream Vera Sans'"
     x="-1116.8396"
     y="-1363.7104"
     xml:space="preserve"
     font-size="12.666px"
     opacity=".8"
     id="text4087-2-6-5-3-4"><tspan
       x="-1116.8396"
       y="-1363.7104"
       id="tspan4089-7-2-9-18-3" /></text>
  <text
     fill="#000000"
     font-family="'Bitstream Vera Sans'"
     x="343.70316"
     y="-1636.9446"
     xml:space="preserve"
     font-size="12.666px"
     opacity=".8"
     id="text4087-2-6-5-4-7"><tspan
       x="343.70316"
       y="-1636.9446"
       id="tspan4089-7-2-9-9-54" /></text>
  <text
     fill="#000000"
     font-family="'Bitstream Vera Sans'"
     x="1829.8265"
     y="-1010.2533"
     xml:space="preserve"
     font-size="12.666px"
     opacity=".8"
     id="text4087-2-6-5-7-1-2"><tspan
       x="1829.8265"
       y="-1010.2533"
       id="tspan4089-7-2-9-1-8-0" /></text>
  <text
     fill="#000000"
     font-family="'Bitstream Vera Sans'"
     x="1853.7874"
     y="-1050.9949"
     xml:space="preserve"
     font-size="12.666px"
     opacity=".8"
     id="text4087-2-6-5-5-5-6"><tspan
       x="1853.7874"
       y="-1050.9949"
       id="tspan4089-7-2-9-6-9-8" /></text>
  <text
     fill="#000000"
     font-family="'Bitstream Vera Sans'"
     x="362.32431"
     y="-1058.2048"
     xml:space="preserve"
     font-size="12.666px"
     opacity=".8"
     id="text4087-2-6-5-75-4"><tspan
       x="362.32431"
       y="-1058.2048"
       id="tspan4089-7-2-9-3-9" /></text>
  <text
     fill="#000000"
     font-family="'Bitstream Vera Sans'"
     x="1822.8671"
     y="-1331.439"
     xml:space="preserve"
     font-size="12.666px"
     opacity=".8"
     id="text4087-2-6-5-4-8-1"><tspan
       x="1822.8671"
       y="-1331.439"
       id="tspan4089-7-2-9-9-8-8" /></text>
  <text
     fill="#000000"
     font-family="'Bitstream Vera Sans'"
     x="-575.492"
     y="-1106.2961"
     xml:space="preserve"
     font-size="12.666px"
     opacity=".8"
     id="text4087-2-6-5-45-0"><tspan
       x="-575.492"
       y="-1106.2961"
       id="tspan4089-7-2-9-75-2" /></text>
  <text
     fill="#000000"
     font-family="'Bitstream Vera Sans'"
     x="-2399.1777"
     y="-360.74261"
     xml:space="preserve"
     font-size="12.666px"
     opacity=".8"
     id="text4087-2-6-5-59-5"><tspan
       x="-2399.1777"
       y="-360.74261"
       id="tspan4089-7-2-9-4-00" /></text>
  <text
     fill="#000000"
     font-family="'Bitstream Vera Sans'"
     x="-684.42224"
     y="-267.87045"
     xml:space="preserve"
     font-size="12.666px"
     opacity=".8"
     id="text4087-2-6-5-264"><tspan
       x="-684.42224"
       y="-267.87045"
       id="tspan4089-7-2-9-8" /></text>
  <text
     fill="#000000"
     font-family="'Bitstream Vera Sans'"
     x="155.5923"
     y="-26.956278"
     xml:space="preserve"
     font-size="12.666px"
     opacity=".8"
     id="text4087-2-6-5-42"><tspan
       x="155.5923"
       y="-26.956278"
       id="tspan4089-7-2-9-93" /></text>
  <text
     fill="#000000"
     font-family="'Bitstream Vera Sans'"
     x="179.55324"
     y="-67.697998"
     xml:space="preserve"
     font-size="12.666px"
     opacity=".8"
     id="text4087-2-6-5-5-05"><tspan
       x="179.55324"
       y="-67.697998"
       id="tspan4089-7-2-9-6-49" /></text>
  <text
     fill="#000000"
     font-family="'Bitstream Vera Sans'"
     x="-1090.2634"
     y="-261.72662"
     xml:space="preserve"
     font-size="12.666px"
     opacity=".8"
     id="text4087-2-6-5-1-4"><tspan
       x="-1090.2634"
       y="-261.72662"
       id="tspan4089-7-2-9-7-7" /></text>
  <text
     fill="#000000"
     font-family="'Bitstream Vera Sans'"
     x="-282.66141"
     y="-675.19678"
     xml:space="preserve"
     font-size="12.666px"
     opacity=".8"
     id="text4087-2-6-5-7-56"><tspan
       x="-282.66141"
       y="-675.19678"
       id="tspan4089-7-2-9-1-1" /></text>
  <text
     fill="#000000"
     font-family="'Bitstream Vera Sans'"
     x="-258.70047"
     y="-715.93848"
     xml:space="preserve"
     font-size="12.666px"
     opacity=".8"
     id="text4087-2-6-5-5-8"><tspan
       x="-258.70047"
       y="-715.93848"
       id="tspan4089-7-2-9-6-7" /></text>
  <text
     fill="#000000"
     font-family="'Bitstream Vera Sans'"
     x="-1750.1636"
     y="-723.14838"
     xml:space="preserve"
     font-size="12.666px"
     opacity=".8"
     id="text4087-2-6-5-3-42"><tspan
       x="-1750.1636"
       y="-723.14838"
       id="tspan4089-7-2-9-18-39" /></text>
  <text
     fill="#000000"
     font-family="'Bitstream Vera Sans'"
     x="-289.62085"
     y="-996.38251"
     xml:space="preserve"
     font-size="12.666px"
     opacity=".8"
     id="text4087-2-6-5-4-4"><tspan
       x="-289.62085"
       y="-996.38251"
       id="tspan4089-7-2-9-9-3" /></text>
  <text
     fill="#000000"
     font-family="'Bitstream Vera Sans'"
     x="1196.5026"
     y="-369.69113"
     xml:space="preserve"
     font-size="12.666px"
     opacity=".8"
     id="text4087-2-6-5-7-1-0"><tspan
       x="1196.5026"
       y="-369.69113"
       id="tspan4089-7-2-9-1-8-5" /></text>
  <text
     fill="#000000"
     font-family="'Bitstream Vera Sans'"
     x="1220.4634"
     y="-410.43286"
     xml:space="preserve"
     font-size="12.666px"
     opacity=".8"
     id="text4087-2-6-5-5-5-5"><tspan
       x="1220.4634"
       y="-410.43286"
       id="tspan4089-7-2-9-6-9-2" /></text>
  <text
     fill="#000000"
     font-family="'Bitstream Vera Sans'"
     x="-270.99973"
     y="-417.64282"
     xml:space="preserve"
     font-size="12.666px"
     opacity=".8"
     id="text4087-2-6-5-75-9"><tspan
       x="-270.99973"
       y="-417.64282"
       id="tspan4089-7-2-9-3-1" /></text>
  <text
     fill="#000000"
     font-family="'Bitstream Vera Sans'"
     x="1189.5431"
     y="-690.87689"
     xml:space="preserve"
     font-size="12.666px"
     opacity=".8"
     id="text4087-2-6-5-4-8-18"><tspan
       x="1189.5431"
       y="-690.87689"
       id="tspan4089-7-2-9-9-8-4" /></text>
  <text
     fill="#000000"
     font-family="'Bitstream Vera Sans'"
     x="-1208.816"
     y="-465.7341"
     xml:space="preserve"
     font-size="12.666px"
     opacity=".8"
     id="text4087-2-6-5-45-3"><tspan
       x="-1208.816"
       y="-465.7341"
       id="tspan4089-7-2-9-75-7" /></text>
  <text
     fill="#000000"
     font-family="'Bitstream Vera Sans'"
     x="-3032.5017"
     y="279.81946"
     xml:space="preserve"
     font-size="12.666px"
     opacity=".8"
     id="text4087-2-6-5-59-8"><tspan
       x="-3032.5017"
       y="279.81946"
       id="tspan4089-7-2-9-4-2" /></text>
  <g
     transform="matrix(.90475 0 0 .90475 -716.75 -676.29)"
     id="layer4-0">
    <text
       fill="#000000"
       font-family="'Bitstream Vera Sans'"
       x="-664.2738"
       y="1159.4154"
       xml:space="preserve"
       font-size="14px"
       opacity=".8"
       id="text4087-2-6-5-20"><tspan
         x="-664.2738"
         y="1159.4154"
         id="tspan4089-7-2-9-82" /></text>
  </g>
  <text
     fill="#000000"
     font-family="'Bitstream Vera Sans'"
     x="877.22626"
     y="18.050589"
     xml:space="preserve"
     font-size="12.666px"
     opacity=".8"
     id="text4087-2-6-5-9"><tspan
       x="877.22626"
       y="18.050589"
       id="tspan4089-7-2-9-43" /></text>
  <text
     fill="#000000"
     font-family="'Bitstream Vera Sans'"
     x="901.18719"
     y="-22.691116"
     xml:space="preserve"
     font-size="12.666px"
     opacity=".8"
     id="text4087-2-6-5-5-51"><tspan
       x="901.18719"
       y="-22.691116"
       id="tspan4089-7-2-9-6-74" /></text>
  <text
     fill="#000000"
     font-family="'Bitstream Vera Sans'"
     x="-569.37115"
     y="-52.76926"
     xml:space="preserve"
     font-size="12.666px"
     opacity=".8"
     id="text4087-2-6-5-2-3"><tspan
       x="-569.37115"
       y="-52.76926"
       id="tspan4089-7-2-9-2-1" /></text>
  <text
     fill="#000000"
     font-family="'Bitstream Vera Sans'"
     x="-2393.0571"
     y="692.78418"
     xml:space="preserve"
     font-size="12.666px"
     opacity=".8"
     id="text4087-2-6-5-59-4"><tspan
       x="-2393.0571"
       y="692.78418"
       id="tspan4089-7-2-9-4-6" /></text>
  <text
     fill="#000000"
     font-family="'Bitstream Vera Sans'"
     x="-454.88007"
     y="-438.09021"
     xml:space="preserve"
     font-size="12.666px"
     opacity=".8"
     id="text4087-2-6-5-1-9"><tspan
       x="-454.88007"
       y="-438.09021"
       id="tspan4089-7-2-9-7-4" /></text>
  <text
     fill="#000000"
     font-family="'Bitstream Vera Sans'"
     x="352.72208"
     y="-851.5603"
     xml:space="preserve"
     font-size="12.666px"
     opacity=".8"
     id="text4087-2-6-5-7-2"><tspan
       x="352.72208"
       y="-851.5603"
       id="tspan4089-7-2-9-1-26" /></text>
  <text
     fill="#000000"
     font-family="'Bitstream Vera Sans'"
     x="376.68301"
     y="-892.30206"
     xml:space="preserve"
     font-size="12.666px"
     opacity=".8"
     id="text4087-2-6-5-5-3-4"><tspan
       x="376.68301"
       y="-892.30206"
       id="tspan4089-7-2-9-6-5-1" /></text>
  <text
     fill="#000000"
     font-family="'Bitstream Vera Sans'"
     x="-1114.7802"
     y="-899.51196"
     xml:space="preserve"
     font-size="12.666px"
     opacity=".8"
     id="text4087-2-6-5-3-2"><tspan
       x="-1114.7802"
       y="-899.51196"
       id="tspan4089-7-2-9-18-8" /></text>
  <text
     fill="#000000"
     font-family="'Bitstream Vera Sans'"
     x="345.7626"
     y="-1172.7461"
     xml:space="preserve"
     font-size="12.666px"
     opacity=".8"
     id="text4087-2-6-5-4-89"><tspan
       x="345.7626"
       y="-1172.7461"
       id="tspan4089-7-2-9-9-2" /></text>
  <text
     fill="#000000"
     font-family="'Bitstream Vera Sans'"
     x="1831.8861"
     y="-546.05475"
     xml:space="preserve"
     font-size="12.666px"
     opacity=".8"
     id="text4087-2-6-5-7-1-8"><tspan
       x="1831.8861"
       y="-546.05475"
       id="tspan4089-7-2-9-1-8-8" /></text>
  <text
     fill="#000000"
     font-family="'Bitstream Vera Sans'"
     x="1855.8469"
     y="-586.79651"
     xml:space="preserve"
     font-size="12.666px"
     opacity=".8"
     id="text4087-2-6-5-5-5-8"><tspan
       x="1855.8469"
       y="-586.79651"
       id="tspan4089-7-2-9-6-9-6" /></text>
  <text
     fill="#000000"
     font-family="'Bitstream Vera Sans'"
     x="364.38376"
     y="-594.00641"
     xml:space="preserve"
     font-size="12.666px"
     opacity=".8"
     id="text4087-2-6-5-75-8"><tspan
       x="364.38376"
       y="-594.00641"
       id="tspan4089-7-2-9-3-3" /></text>
  <text
     fill="#000000"
     font-family="'Bitstream Vera Sans'"
     x="1824.9266"
     y="-867.24036"
     xml:space="preserve"
     font-size="12.666px"
     opacity=".8"
     id="text4087-2-6-5-4-8-8"><tspan
       x="1824.9266"
       y="-867.24036"
       id="tspan4089-7-2-9-9-8-3" /></text>
  <text
     fill="#000000"
     font-family="'Bitstream Vera Sans'"
     x="-573.43256"
     y="-642.09772"
     xml:space="preserve"
     font-size="12.666px"
     opacity=".8"
     id="text4087-2-6-5-45-33"><tspan
       x="-573.43256"
       y="-642.09772"
       id="tspan4089-7-2-9-75-8" /></text>
  <text
     fill="#000000"
     font-family="'Bitstream Vera Sans'"
     x="-2397.1182"
     y="103.45585"
     xml:space="preserve"
     font-size="12.666px"
     opacity=".8"
     id="text4087-2-6-5-59-7-0"><tspan
       x="-2397.1182"
       y="103.45585"
       id="tspan4089-7-2-9-4-0-4" /></text>
  <text
     fill="#000000"
     font-family="'Bitstream Vera Sans'"
     x="-682.36279"
     y="196.32799"
     xml:space="preserve"
     font-size="12.666px"
     opacity=".8"
     id="text4087-2-6-5-8-7"><tspan
       x="-682.36279"
       y="196.32799"
       id="tspan4089-7-2-9-19-6" /></text>
  <text
     fill="#000000"
     font-family="'Bitstream Vera Sans'"
     x="426.66153"
     y="17.14584"
     xml:space="preserve"
     font-size="12.666px"
     opacity=".8"
     id="text4087-2-6-5-7-5-8"><tspan
       x="426.66153"
       y="17.14584"
       id="tspan4089-7-2-9-1-2-9" /></text>
  <text
     fill="#000000"
     font-family="'Bitstream Vera Sans'"
     x="450.62247"
     y="-23.595865"
     xml:space="preserve"
     font-size="12.666px"
     opacity=".8"
     id="text4087-2-6-5-5-0-0"><tspan
       x="450.62247"
       y="-23.595865"
       id="tspan4089-7-2-9-6-2-6" /></text>
  <text
     fill="#000000"
     font-family="'Bitstream Vera Sans'"
     x="-1040.8407"
     y="-30.805836"
     xml:space="preserve"
     font-size="12.666px"
     opacity=".8"
     id="text4087-2-6-5-26-8"><tspan
       x="-1040.8407"
       y="-30.805836"
       id="tspan4089-7-2-9-90-7" /></text>
  <text
     fill="#000000"
     font-family="'Bitstream Vera Sans'"
     x="419.70206"
     y="-304.03989"
     xml:space="preserve"
     font-size="12.666px"
     opacity=".8"
     id="text4087-2-6-5-4-3-9"><tspan
       x="419.70206"
       y="-304.03989"
       id="tspan4089-7-2-9-9-5-0" /></text>
  <text
     fill="#000000"
     font-family="'Bitstream Vera Sans'"
     x="-608.03253"
     y="-33.520081"
     xml:space="preserve"
     font-size="12.666px"
     opacity=".8"
     id="text4087-2-6-5-55-3"><tspan
       x="-608.03253"
       y="-33.520081"
       id="tspan4089-7-2-9-32-3" /></text>
  <text
     fill="#000000"
     font-family="'Bitstream Vera Sans'"
     x="-2431.7185"
     y="712.03345"
     xml:space="preserve"
     font-size="12.666px"
     opacity=".8"
     id="text4087-2-6-5-59-9-3"><tspan
       x="-2431.7185"
       y="712.03345"
       id="tspan4089-7-2-9-4-1-7" /></text>
  <text
     fill="#000000"
     font-family="'Bitstream Vera Sans'"
     x="-456.93948"
     y="-895.0506"
     xml:space="preserve"
     font-size="12.666px"
     opacity=".8"
     id="text4087-2-6-5-1-8-3"><tspan
       x="-456.93948"
       y="-895.0506"
       id="tspan4089-7-2-9-7-8-2" /></text>
  <text
     fill="#000000"
     font-family="'Bitstream Vera Sans'"
     x="350.66266"
     y="-1308.5208"
     xml:space="preserve"
     font-size="12.666px"
     opacity=".8"
     id="text4087-2-6-5-7-8-6"><tspan
       x="350.66266"
       y="-1308.5208"
       id="tspan4089-7-2-9-1-9-5" /></text>
  <text
     fill="#000000"
     font-family="'Bitstream Vera Sans'"
     x="374.62357"
     y="-1349.2626"
     xml:space="preserve"
     font-size="12.666px"
     opacity=".8"
     id="text4087-2-6-5-5-52-2"><tspan
       x="374.62357"
       y="-1349.2626"
       id="tspan4089-7-2-9-6-4-6" /></text>
  <text
     fill="#000000"
     font-family="'Bitstream Vera Sans'"
     x="-1116.8396"
     y="-1356.4724"
     xml:space="preserve"
     font-size="12.666px"
     opacity=".8"
     id="text4087-2-6-5-3-4-5"><tspan
       x="-1116.8396"
       y="-1356.4724"
       id="tspan4089-7-2-9-18-3-8" /></text>
  <text
     fill="#000000"
     font-family="'Bitstream Vera Sans'"
     x="343.70316"
     y="-1629.7065"
     xml:space="preserve"
     font-size="12.666px"
     opacity=".8"
     id="text4087-2-6-5-4-7-7"><tspan
       x="343.70316"
       y="-1629.7065"
       id="tspan4089-7-2-9-9-54-9" /></text>
  <text
     fill="#000000"
     font-family="'Bitstream Vera Sans'"
     x="1829.8265"
     y="-1003.0153"
     xml:space="preserve"
     font-size="12.666px"
     opacity=".8"
     id="text4087-2-6-5-7-1-2-6"><tspan
       x="1829.8265"
       y="-1003.0153"
       id="tspan4089-7-2-9-1-8-0-0" /></text>
  <text
     fill="#000000"
     font-family="'Bitstream Vera Sans'"
     x="1853.7874"
     y="-1043.757"
     xml:space="preserve"
     font-size="12.666px"
     opacity=".8"
     id="text4087-2-6-5-5-5-6-4"><tspan
       x="1853.7874"
       y="-1043.757"
       id="tspan4089-7-2-9-6-9-8-1" /></text>
  <text
     fill="#000000"
     font-family="'Bitstream Vera Sans'"
     x="362.32431"
     y="-1050.9668"
     xml:space="preserve"
     font-size="12.666px"
     opacity=".8"
     id="text4087-2-6-5-75-4-0"><tspan
       x="362.32431"
       y="-1050.9668"
       id="tspan4089-7-2-9-3-9-4" /></text>
  <text
     fill="#000000"
     font-family="'Bitstream Vera Sans'"
     x="1822.8671"
     y="-1324.2009"
     xml:space="preserve"
     font-size="12.666px"
     opacity=".8"
     id="text4087-2-6-5-4-8-1-8"><tspan
       x="1822.8671"
       y="-1324.2009"
       id="tspan4089-7-2-9-9-8-8-7" /></text>
  <text
     fill="#000000"
     font-family="'Bitstream Vera Sans'"
     x="-575.492"
     y="-1099.0581"
     xml:space="preserve"
     font-size="12.666px"
     opacity=".8"
     id="text4087-2-6-5-45-0-0"><tspan
       x="-575.492"
       y="-1099.0581"
       id="tspan4089-7-2-9-75-2-8" /></text>
  <text
     fill="#000000"
     font-family="'Bitstream Vera Sans'"
     x="-2399.1777"
     y="-353.50461"
     xml:space="preserve"
     font-size="12.666px"
     opacity=".8"
     id="text4087-2-6-5-59-5-6"><tspan
       x="-2399.1777"
       y="-353.50461"
       id="tspan4089-7-2-9-4-00-2" /></text>
  <text
     fill="#000000"
     font-family="'Bitstream Vera Sans'"
     x="-684.42224"
     y="-260.63245"
     xml:space="preserve"
     font-size="12.666px"
     opacity=".8"
     id="text4087-2-6-5-264-4"><tspan
       x="-684.42224"
       y="-260.63245"
       id="tspan4089-7-2-9-8-7" /></text>
  <text
     fill="#000000"
     font-family="'Bitstream Vera Sans'"
     x="155.5923"
     y="-19.71829"
     xml:space="preserve"
     font-size="12.666px"
     opacity=".8"
     id="text4087-2-6-5-42-9"><tspan
       x="155.5923"
       y="-19.71829"
       id="tspan4089-7-2-9-93-3" /></text>
  <text
     fill="#000000"
     font-family="'Bitstream Vera Sans'"
     x="179.55324"
     y="-60.460011"
     xml:space="preserve"
     font-size="12.666px"
     opacity=".8"
     id="text4087-2-6-5-5-05-9"><tspan
       x="179.55324"
       y="-60.460011"
       id="tspan4089-7-2-9-6-49-2" /></text>
  <text
     fill="#000000"
     font-family="'Bitstream Vera Sans'"
     x="-1090.2634"
     y="-254.4886"
     xml:space="preserve"
     font-size="12.666px"
     opacity=".8"
     id="text4087-2-6-5-1-4-8"><tspan
       x="-1090.2634"
       y="-254.4886"
       id="tspan4089-7-2-9-7-7-3" /></text>
  <text
     fill="#000000"
     font-family="'Bitstream Vera Sans'"
     x="-282.66141"
     y="-667.9588"
     xml:space="preserve"
     font-size="12.666px"
     opacity=".8"
     id="text4087-2-6-5-7-56-0"><tspan
       x="-282.66141"
       y="-667.9588"
       id="tspan4089-7-2-9-1-1-1" /></text>
  <text
     fill="#000000"
     font-family="'Bitstream Vera Sans'"
     x="-258.70047"
     y="-708.7005"
     xml:space="preserve"
     font-size="12.666px"
     opacity=".8"
     id="text4087-2-6-5-5-8-7"><tspan
       x="-258.70047"
       y="-708.7005"
       id="tspan4089-7-2-9-6-7-8" /></text>
  <text
     fill="#000000"
     font-family="'Bitstream Vera Sans'"
     x="-1750.1636"
     y="-715.91046"
     xml:space="preserve"
     font-size="12.666px"
     opacity=".8"
     id="text4087-2-6-5-3-42-9"><tspan
       x="-1750.1636"
       y="-715.91046"
       id="tspan4089-7-2-9-18-39-1" /></text>
  <text
     fill="#000000"
     font-family="'Bitstream Vera Sans'"
     x="-289.62085"
     y="-989.14447"
     xml:space="preserve"
     font-size="12.666px"
     opacity=".8"
     id="text4087-2-6-5-4-4-5"><tspan
       x="-289.62085"
       y="-989.14447"
       id="tspan4089-7-2-9-9-3-4" /></text>
  <text
     fill="#000000"
     font-family="'Bitstream Vera Sans'"
     x="1196.5026"
     y="-362.45316"
     xml:space="preserve"
     font-size="12.666px"
     opacity=".8"
     id="text4087-2-6-5-7-1-0-9"><tspan
       x="1196.5026"
       y="-362.45316"
       id="tspan4089-7-2-9-1-8-5-2" /></text>
  <text
     fill="#000000"
     font-family="'Bitstream Vera Sans'"
     x="1220.4634"
     y="-403.19489"
     xml:space="preserve"
     font-size="12.666px"
     opacity=".8"
     id="text4087-2-6-5-5-5-5-5"><tspan
       x="1220.4634"
       y="-403.19489"
       id="tspan4089-7-2-9-6-9-2-7" /></text>
  <text
     fill="#000000"
     font-family="'Bitstream Vera Sans'"
     x="-270.99973"
     y="-410.40482"
     xml:space="preserve"
     font-size="12.666px"
     opacity=".8"
     id="text4087-2-6-5-75-9-4"><tspan
       x="-270.99973"
       y="-410.40482"
       id="tspan4089-7-2-9-3-1-9" /></text>
  <text
     fill="#000000"
     font-family="'Bitstream Vera Sans'"
     x="1189.5431"
     y="-683.63892"
     xml:space="preserve"
     font-size="12.666px"
     opacity=".8"
     id="text4087-2-6-5-4-8-18-9"><tspan
       x="1189.5431"
       y="-683.63892"
       id="tspan4089-7-2-9-9-8-4-4" /></text>
  <text
     fill="#000000"
     font-family="'Bitstream Vera Sans'"
     x="-1208.816"
     y="-458.49609"
     xml:space="preserve"
     font-size="12.666px"
     opacity=".8"
     id="text4087-2-6-5-45-3-5"><tspan
       x="-1208.816"
       y="-458.49609"
       id="tspan4089-7-2-9-75-7-9" /></text>
  <text
     fill="#000000"
     font-family="'Bitstream Vera Sans'"
     x="-3032.5017"
     y="287.05743"
     xml:space="preserve"
     font-size="12.666px"
     opacity=".8"
     id="text4087-2-6-5-59-8-3"><tspan
       x="-3032.5017"
       y="287.05743"
       id="tspan4089-7-2-9-4-2-5" /></text>
  <g
     transform="matrix(.90475 0 0 .90475 -716.75 -669.05)"
     id="layer4-0-7">
    <text
       fill="#000000"
       font-family="'Bitstream Vera Sans'"
       x="-664.2738"
       y="1159.4154"
       xml:space="preserve"
       font-size="14px"
       opacity=".8"
       id="text4087-2-6-5-20-0"><tspan
         x="-664.2738"
         y="1159.4154"
         id="tspan4089-7-2-9-82-8" /></text>
  </g>
  <text
     fill="#000000"
     font-family="'Droid Sans'"
     x="435.90427"
     y="-361.22546"
     xml:space="preserve"
     font-size="12.666px"
     id="text7276"><tspan
       x="435.90427"
       y="-361.22546"
       id="tspan7278" /><tspan
       x="435.90427"
       y="-345.3924"
       id="tspan7280" /></text>
  <text
     fill="#000000"
     font-family="'Bitstream Vera Sans'"
     x="901.0882"
     y="-843.27002"
     xml:space="preserve"
     font-size="12.666px"
     opacity=".8"
     id="text4087-2-6-5-51"><tspan
       x="901.0882"
       y="-843.27002"
       id="tspan4089-7-2-9-97" /></text>
  <text
     fill="#000000"
     font-family="'Bitstream Vera Sans'"
     x="-922.59778"
     y="-97.716553"
     xml:space="preserve"
     font-size="12.666px"
     opacity=".8"
     id="text4087-2-6-5-59-2"><tspan
       x="-922.59778"
       y="-97.716553"
       id="tspan4089-7-2-9-4-4" /></text>
  <text
     fill="#000000"
     font-family="'Bitstream Vera Sans'"
     x="1628.1677"
     y="-1128.2659"
     xml:space="preserve"
     font-size="12.666px"
     opacity=".8"
     id="text4087-2-6-5-7-7"><tspan
       x="1628.1677"
       y="-1128.2659"
       id="tspan4089-7-2-9-1-6" /></text>
  <text
     fill="#000000"
     font-family="'Bitstream Vera Sans'"
     x="1652.1285"
     y="-1169.0076"
     xml:space="preserve"
     font-size="12.666px"
     opacity=".8"
     id="text4087-2-6-5-5-6"><tspan
       x="1652.1285"
       y="-1169.0076"
       id="tspan4089-7-2-9-6-53" /></text>
  <text
     fill="#000000"
     font-family="'Bitstream Vera Sans'"
     x="160.66542"
     y="-1176.2175"
     xml:space="preserve"
     font-size="12.666px"
     opacity=".8"
     id="text4087-2-6-5-54"><tspan
       x="160.66542"
       y="-1176.2175"
       id="tspan4089-7-2-9-0" /></text>
  <text
     fill="#000000"
     font-family="'Bitstream Vera Sans'"
     x="1621.2083"
     y="-1449.4517"
     xml:space="preserve"
     font-size="12.666px"
     opacity=".8"
     id="text4087-2-6-5-4-1"><tspan
       x="1621.2083"
       y="-1449.4517"
       id="tspan4089-7-2-9-9-28" /></text>
  <rect
     x="869.19"
     y="-421.36"
     width="20"
     height="60"
     ry="10"
     fill-opacity="0"
     id="rect3024" />
  <rect
     id="rect4203"
     transform="matrix(0,-1,-1,0,0,0)"
     rx="2"
     ry="2"
     height="32"
     width="40"
     y="-40"
     x="-44"
     style="fill:#9ea7a9" />
  <path
     id="rect4196"
     d="M 10,4 C 8.892,4 8,4.892 8,6 L 8,7 C 8,5.892 8.892,5 10,5 l 28,0 c 1.108,0 2,0.892 2,2 L 40,6 C 40,4.892 39.108,4 38,4 L 10,4 Z"
     style="opacity:0.2;fill:#ffffff" />
  <path
     id="rect4443"
     d="m 13,7 22,0 c 1.108,0 2,0.892 2,2 l 0,22 c 0,1.108 -0.892,2 -2,2 l -22,0 c -1.108,0 -2,-0.892 -2,-2 L 11,9 c 0,-1.108 0.892,-2 2,-2 z"
     style="opacity:0.2" />
  <g
     id="g5046"
     transform="translate(0,1)"
     style="opacity:0.2">
    <path
       id="path5048"
       d="m 13,36 4,0 c 1.108,0 2,0.892 2,2 0,1.108 -0.892,2 -2,2 l -4,0 c -1.108,0 -2,-0.892 -2,-2 0,-1.108 0.892,-2 2,-2 z"
       style="opacity:1" />
    <path
       id="path5050"
       d="m 31,36 4,0 c 1.108,0 2,0.892 2,2 0,1.108 -0.892,2 -2,2 l -4,0 c -1.108,0 -2,-0.892 -2,-2 0,-1.108 0.892,-2 2,-2 z"
       style="opacity:1" />
  </g>
  <g
     id="g5042">
    <path
       id="rect4446"
       d="m 13,36 4,0 c 1.108,0 2,0.892 2,2 0,1.108 -0.892,2 -2,2 l -4,0 c -1.108,0 -2,-0.892 -2,-2 0,-1.108 0.892,-2 2,-2 z"
       style="fill:#92e763" />
    <path
       id="path4449"
       d="m 31,36 4,0 c 1.108,0 2,0.892 2,2 0,1.108 -0.892,2 -2,2 l -4,0 c -1.108,0 -2,-0.892 -2,-2 0,-1.108 0.892,-2 2,-2 z"
       style="fill:#e76363" />
  </g>
  <path
     id="path4483"
     d="m 25.825,10 -3.8649,0.35154 0,15.063 3.8236,-0.54683 0,-6.422 5.1449,7.1251 4.03,-1.2109 -5.2688,-6.8517 5.3101,-6.461 -4.1126,-0.89066 -5.1036,6.4611 0.04124,-6.6173 z m -8.762,3.672 c -0.04363,0.0081 -0.09098,0.01545 -0.12386,0.04715 l -1.5195,1.4375 c -0.06378,0.06096 -0.07155,0.15323 -0.02473,0.22656 l 1.7755,2.7735 c -0.31527,0.50138 -0.57128,1.0392 -0.75151,1.6093 l -3.262,0.64063 c -0.09081,0.0175 -0.15691,0.09928 -0.15691,0.18728 l 0,2.0313 c 0,0.08592 0.06902,0.15948 0.1569,0.17971 l 3.1629,0.72654 c 0.16913,0.66017 0.43042,1.2918 0.77627,1.8673 l -1.8333,2.6407 c -0.05115,0.07336 -0.04116,0.17214 0.02473,0.23436 l 1.5195,1.4375 c 0.06396,0.06026 0.16219,0.06788 0.23949,0.02311 l 2.8739,-1.6485 c 0.56367,0.30785 1.1739,0.55448 1.8168,0.71875 l 0.66893,3.0469 c 0.02,0.088 0.098,0.15 0.191,0.15 l 2.1471,0 c 0.0901,0 0.16854,-0.0571 0.18994,-0.14065 l 0.79279,-3.0625 c 0.66304,-0.16914 1.2882,-0.42017 1.8664,-0.74222 l 2.8326,1.7579 c 0.07805,0.04782 0.18156,0.03856 0.24776,-0.02316 l 1.5113,-1.4375 c 0.06418,-0.06096 0.08008,-0.15338 0.03309,-0.22657 l -1.0323,-1.6093 -0.33859,0.10151 c -0.04891,0.01463 -0.10306,-0.0081 -0.13213,-0.04715 0,0 -0.65208,-0.90749 -1.503,-2.0859 -1.0177,1.8838 -3.0931,3.1719 -5.4835,3.1719 -3.3967,0 -6.1524,-2.607 -6.1524,-5.8204 0,-2.3637 1.4941,-4.3939 3.6336,-5.3048 l 0,-1.5 c -0.38939,0.12891 -0.76558,0.28446 -1.1231,0.46873 -4.49e-4,-3.17e-4 7.32e-4,-0.0081 0,-0.0081 l -2.8986,-1.7969 c -0.03895,-0.02387 -0.08022,-0.02774 -0.12388,-0.02313 z"
     style="color:#31363b;opacity:0.2"
     class="ColorScheme-Text" />
  <path
     id="path2876"
     d="m 25.825,9 -3.8649,0.35154 0,15.063 3.8236,-0.54683 0,-6.422 5.1449,7.1251 4.03,-1.2109 -5.2688,-6.8517 5.3101,-6.461 -4.1126,-0.89066 -5.1036,6.4611 0.04124,-6.6173 z m -8.762,3.672 c -0.04363,0.0081 -0.09098,0.01545 -0.12386,0.04715 l -1.5195,1.4375 c -0.06378,0.06096 -0.07155,0.15323 -0.02473,0.22656 l 1.7755,2.7735 c -0.31527,0.50138 -0.57128,1.0392 -0.75151,1.6093 l -3.262,0.64063 c -0.09081,0.0175 -0.15691,0.09928 -0.15691,0.18728 l 0,2.0313 c 0,0.08592 0.06902,0.15948 0.1569,0.17971 l 3.1629,0.72654 c 0.16913,0.66017 0.43042,1.2918 0.77627,1.8673 l -1.8333,2.6407 c -0.05115,0.07336 -0.04116,0.17214 0.02473,0.23436 l 1.5195,1.4375 c 0.06396,0.06026 0.16219,0.06788 0.23949,0.02311 l 2.8739,-1.6485 c 0.56367,0.30785 1.1739,0.55448 1.8168,0.71875 l 0.66893,3.0469 c 0.02,0.088 0.098,0.15 0.191,0.15 l 2.1471,0 c 0.0901,0 0.16854,-0.0571 0.18994,-0.14065 l 0.79279,-3.0625 c 0.66304,-0.16914 1.2882,-0.42017 1.8664,-0.74222 l 2.8326,1.7579 c 0.07805,0.04782 0.18156,0.03856 0.24776,-0.02316 l 1.5113,-1.4375 c 0.06418,-0.06096 0.08008,-0.15338 0.03309,-0.22657 l -1.0323,-1.6093 -0.33859,0.10151 c -0.04891,0.01463 -0.10306,-0.0081 -0.13213,-0.04715 0,0 -0.65208,-0.90749 -1.503,-2.0859 -1.0177,1.8838 -3.0931,3.1719 -5.4835,3.1719 -3.3967,0 -6.1524,-2.607 -6.1524,-5.8204 0,-2.3637 1.4941,-4.3939 3.6336,-5.3048 l 0,-1.5 c -0.38939,0.12891 -0.76558,0.28446 -1.1231,0.46873 -4.49e-4,-3.17e-4 7.32e-4,-0.0081 0,-0.0081 l -2.8986,-1.7969 c -0.03895,-0.02387 -0.08022,-0.02774 -0.12388,-0.02313 z"
     style="color:#31363b;fill:#ffffff"
     class="ColorScheme-Text" />
  <path
     id="rect4453"
     d="m 8,42 0,1 c 0,1.108 0.892,2 2,2 l 28,0 c 1.108,0 2,-0.892 2,-2 l 0,-1 c 0,1.108 -0.892,2 -2,2 L 10,44 C 8.892,44 8,43.108 8,42 Z"
     style="opacity:0.2" />
</svg>
