<?xml version="1.0" encoding="UTF-8" standalone="no"?>
<svg
   xmlns:dc="http://purl.org/dc/elements/1.1/"
   xmlns:cc="http://creativecommons.org/ns#"
   xmlns:rdf="http://www.w3.org/1999/02/22-rdf-syntax-ns#"
   xmlns:svg="http://www.w3.org/2000/svg"
   xmlns="http://www.w3.org/2000/svg"
   version="1.0"
   width="48"
   height="48"
   id="svg2817">
  <defs
     id="defs14">
    <linearGradient
       x1="23.868"
       y1="24.055"
       x2="24.132"
       gradientUnits="userSpaceOnUse"
       y2="5.0393"
       id="linearGradient4156">
      <stop
         offset="0"
         id="stop4152" />
      <stop
         offset="1"
         stop-opacity="0"
         id="stop4154" />
    </linearGradient>
  </defs>
  <metadata
     id="metadata57">
    <rdf:RDF>
      <cc:Work
         rdf:about="">
        <dc:format>image/svg+xml</dc:format>
        <dc:type
           rdf:resource="http://purl.org/dc/dcmitype/StillImage" />
        <dc:title />
      </cc:Work>
    </rdf:RDF>
  </metadata>
  <path
     d="m6 5c-1.108 0-2 0.892-2 2v17h40v-17c0-1.108-0.892-2-2-2h-36z"
     opacity=".05"
     id="path4026" />
  <rect
     fill="#fabd7f"
     x="-44"
     y="-44"
     width="40"
     height="40"
     ry="2"
     rx="2"
     transform="matrix(0,-1,-1,0,0,0)"
     id="rect4203" />
  <path
     fill="#3f3f3f"
     d="m22 12c-0.554 0-1 0.446-1 1v16h-4l7 9 7-9h-4v-16c0-0.554-0.446-1-1-1h-4z"
     id="path3937" />
  <path
     style="opacity:0.2"
     fill="#fff"
     d="m4 7v-1c0-1.108 0.892-2 2-2h36c1.108 0 2 0.892 2 2v1c0-1.108-0.892-2-2-2h-36c-1.108 0-2 0.892-2 2z"
     opacity=".1"
     id="path4068" />
  <path
     style="opacity:0.2"
     d="m 4,42 0,1 c 0,1.108 0.892,2 2,2 l 36,0 c 1.108,0 2,-0.892 2,-2 l 0,-1 c 0,1.108 -0.892,2 -2,2 L 6,44 C 4.892,44 4,43.108 4,42 Z"
     id="rect4177" />
</svg>
