<?xml version="1.0" encoding="UTF-8" standalone="no"?>
<svg
   xmlns:dc="http://purl.org/dc/elements/1.1/"
   xmlns:cc="http://creativecommons.org/ns#"
   xmlns:rdf="http://www.w3.org/1999/02/22-rdf-syntax-ns#"
   xmlns:svg="http://www.w3.org/2000/svg"
   xmlns="http://www.w3.org/2000/svg"
   version="1.0"
   width="48"
   height="48"
   id="svg2817">
  <defs
     id="defs17" />
  <metadata
     id="metadata57">
    <rdf:RDF>
      <cc:Work
         rdf:about="">
        <dc:format>image/svg+xml</dc:format>
        <dc:type
           rdf:resource="http://purl.org/dc/dcmitype/StillImage" />
        <dc:title />
      </cc:Work>
    </rdf:RDF>
  </metadata>
  <rect
     fill="#858a89"
     x="-44"
     y="-44"
     width="40"
     height="40"
     transform="matrix(0,-1,-1,0,0,0)"
     rx="2"
     ry="2"
     id="rect4203" />
  <path
     d="m6 4c-1.108 0-2 0.892-2 2v1c0-1.108 0.892-2 2-2h36c1.108 0 2 0.892 2 2v-1c0-1.108-0.892-2-2-2h-36z"
     fill="#fff"
     opacity=".2"
     id="rect4592" />
  <rect
     x="5"
     y="32"
     width="18"
     height="10"
     ry="2"
     rx="2"
     opacity=".2"
     id="rect4186" />
  <rect
     x="25"
     y="32"
     width="18"
     height="10"
     ry="2"
     rx="2"
     opacity=".2"
     id="rect4188" />
  <rect
     x="37"
     y="10"
     width="6"
     height="1"
     opacity=".2"
     id="rect4190" />
  <rect
     x="37"
     y="13"
     width="6"
     height="1"
     opacity=".2"
     id="rect4192" />
  <rect
     x="37"
     y="16"
     width="6"
     height="1"
     opacity=".2"
     id="rect4194" />
  <rect
     x="37"
     y="19"
     width="6"
     height="1"
     opacity=".2"
     id="rect4204" />
  <rect
     x="37"
     y="22"
     width="6"
     height="1"
     opacity=".2"
     id="rect4206" />
  <rect
     x="37"
     y="25"
     width="6"
     height="1"
     opacity=".2"
     id="rect4208" />
  <path
     style="opacity:0.2"
     d="m 4,42 0,1 c 0,1.108 0.892,2 2,2 l 36,0 c 1.108,0 2,-0.892 2,-2 l 0,-1 c 0,1.108 -0.892,2 -2,2 L 6,44 C 4.892,44 4,43.108 4,42 Z"
     id="rect4182" />
</svg>
