<?xml version="1.0" encoding="UTF-8" standalone="no"?>
<svg
   xmlns:dc="http://purl.org/dc/elements/1.1/"
   xmlns:cc="http://creativecommons.org/ns#"
   xmlns:rdf="http://www.w3.org/1999/02/22-rdf-syntax-ns#"
   xmlns:svg="http://www.w3.org/2000/svg"
   xmlns="http://www.w3.org/2000/svg"
   viewBox="0 0 48.000001 48.000001"
   version="1.1"
   width="48"
   height="48"
   id="svg4468">
  <defs
     id="defs4470">
    <linearGradient
       gradientTransform="translate(0,-1004.4)"
       x1="24.198"
       y1="1026.2"
       x2="23.878"
       gradientUnits="userSpaceOnUse"
       y2="1010.4"
       id="linearGradient5346">
      <stop
         offset="0"
         id="stop5342" />
      <stop
         offset="1"
         stop-opacity="0"
         id="stop5344" />
    </linearGradient>
  </defs>
  <metadata
     id="metadata4473">
    <rdf:RDF>
      <cc:Work
         rdf:about="">
        <dc:format>image/svg+xml</dc:format>
        <dc:type
           rdf:resource="http://purl.org/dc/dcmitype/StillImage" />
        <dc:title />
      </cc:Work>
    </rdf:RDF>
  </metadata>
  <rect
     id="rect4777"
     ry="2"
     rx="2"
     transform="matrix(0,-1,-1,0,0,0)"
     height="24"
     width="32"
     y="-36"
     x="-42.000023"
     style="fill:#7e7e7e" />
  <rect
     id="rect4203-7"
     transform="matrix(0,-1,-1,0,0,0)"
     rx="2"
     ry="2"
     height="40"
     width="32"
     y="-44"
     x="-38.000023"
     style="fill:#757575" />
  <rect
     id="rect3282"
     ry="0"
     rx="0"
     transform="matrix(0,-1,-1,0,0,0)"
     height="34"
     width="26"
     y="-41"
     x="-35.000023"
     style="fill:#464646" />
  <path
     id="rect4414"
     d="M 6,6 C 4.892,6 4,6.892 4,8 L 4,9 C 4,7.892 4.892,7 6,7 l 36,0 c 1.108,0 2,0.892 2,2 L 44,8 C 44,6.892 43.108,6 42,6 L 6,6 Z"
     style="opacity:0.2;fill:#ffffff" />
  <path
     id="rect4779"
     d="m 12,40 0,1 c 0,1.108 0.892,2 2,2 l 20,0 c 1.108,0 2,-0.892 2,-2 l 0,-1 c 0,1.108 -0.892,2 -2,2 l -20,0 c -1.108,0 -2,-0.892 -2,-2 z"
     style="opacity:0.2" />
  <path
     id="rect4077"
     d="m 4,36 0,1 c 0,1.108 0.892,2 2,2 l 36,0 c 1.108,0 2,-0.892 2,-2 l 0,-1 c 0,1.108 -0.892,2 -2,2 L 6,38 C 4.892,38 4,37.108 4,36 Z"
     style="opacity:0.2" />
</svg>
