<?xml version="1.0" encoding="UTF-8" standalone="no"?>
<!-- Created with Inkscape (http://www.inkscape.org/) -->

<svg
   xmlns:osb="http://www.openswatchbook.org/uri/2009/osb"
   xmlns:dc="http://purl.org/dc/elements/1.1/"
   xmlns:cc="http://creativecommons.org/ns#"
   xmlns:rdf="http://www.w3.org/1999/02/22-rdf-syntax-ns#"
   xmlns:svg="http://www.w3.org/2000/svg"
   xmlns="http://www.w3.org/2000/svg"
   xmlns:sodipodi="http://sodipodi.sourceforge.net/DTD/sodipodi-0.dtd"
   xmlns:inkscape="http://www.inkscape.org/namespaces/inkscape"
   width="80"
   height="16"
   id="svg4428"
   version="1.1"
   inkscape:version="0.91 r13725"
   sodipodi:docname="close.svg">
  <defs
     id="defs4430">
    <linearGradient
       osb:paint="solid"
       id="linearGradient5606">
      <stop
         style="stop-color:#000000;stop-opacity:1;"
         offset="0"
         id="stop5608" />
    </linearGradient>
  </defs>
  <sodipodi:namedview
     id="base"
     pagecolor="#bdc3c7"
     bordercolor="#666666"
     borderopacity="1.0"
     inkscape:pageopacity="1"
     inkscape:pageshadow="2"
     inkscape:zoom="3.12"
     inkscape:cx="82.421048"
     inkscape:cy="3.2085336"
     inkscape:document-units="px"
     inkscape:current-layer="layer1"
     showgrid="false"
     inkscape:snap-bbox="true"
     inkscape:window-width="1600"
     inkscape:window-height="847"
     inkscape:window-x="0"
     inkscape:window-y="0"
     inkscape:window-maximized="1"
     showborder="true"
     inkscape:showpageshadow="false">
    <inkscape:grid
       type="xygrid"
       id="grid4436"
       empspacing="5"
       visible="true"
       enabled="true"
       snapvisiblegridlinesonly="true" />
  </sodipodi:namedview>
  <metadata
     id="metadata4433">
    <rdf:RDF>
      <cc:Work
         rdf:about="">
        <dc:format>image/svg+xml</dc:format>
        <dc:type
           rdf:resource="http://purl.org/dc/dcmitype/StillImage" />
        <dc:title></dc:title>
      </cc:Work>
    </rdf:RDF>
  </metadata>
  <g
     inkscape:label="Layer 1"
     inkscape:groupmode="layer"
     id="layer1"
     transform="translate(0,-1036.3622)">
    <g
       id="4"
       inkscape:label="#g3842"
       transform="translate(81,-3)" />
    <g
       id="active-center"
       inkscape:label="#g4186"
       transform="translate(23,6.0000174)">
      <rect
         transform="matrix(0,-1,1,0,0,0)"
         y="-23"
         x="-1046.3622"
         height="16"
         width="16"
         id="rect4246"
         style="opacity:0.00100002;fill:#000000;fill-opacity:1;stroke:none;stroke-width:0.5;stroke-linecap:round;stroke-linejoin:round;stroke-miterlimit:4;stroke-dasharray:none;stroke-opacity:1" />
      <g
         transform="matrix(0.70710678,-0.70710678,0.70710678,0.70710678,-26.313708,1038.3622)"
         id="g4242"
         style="enable-background:new">
        <g
           id="layer12"
           inkscape:label="actions"
           style="display:inline"
           transform="translate(-285.00081,-0.99666)">
          <path
             inkscape:connector-curvature="0"
             d="m 292.00081,3.99666 0,4 -4,0 0,2 4,0 0,4 2,0 0,-4 4,0 0,-2 -4,0 0,-4 -2,0 z"
             id="rect31992"
             style="color:#bebebe;display:inline;overflow:visible;visibility:visible;opacity:0.5;fill:#000000;fill-opacity:1;stroke:none;stroke-width:1;marker:none" />
        </g>
      </g>
    </g>
    <g
       transform="translate(39,6.0000174)"
       inkscape:label="#g4186"
       id="hover-center">
      <rect
         style="opacity:0.00100002;fill:#000000;fill-opacity:1;stroke:none;stroke-width:0.5;stroke-linecap:round;stroke-linejoin:round;stroke-miterlimit:4;stroke-dasharray:none;stroke-opacity:1"
         id="rect4194"
         width="16"
         height="16"
         x="-1046.3622"
         y="-23"
         transform="matrix(0,-1,1,0,0,0)" />
      <g
         style="enable-background:new"
         id="g4196"
         transform="matrix(0.70710678,-0.70710678,0.70710678,0.70710678,-26.313708,1038.3622)">
        <g
           transform="translate(-285.00081,-0.99666)"
           style="display:inline"
           inkscape:label="actions"
           id="g4198">
          <path
             style="color:#bebebe;display:inline;overflow:visible;visibility:visible;opacity:0.7;fill:#000000;fill-opacity:1;stroke:none;stroke-width:1;marker:none"
             id="path4200"
             d="m 292.00081,3.99666 0,4 -4,0 0,2 4,0 0,4 2,0 0,-4 4,0 0,-2 -4,0 0,-4 -2,0 z"
             inkscape:connector-curvature="0" />
        </g>
      </g>
    </g>
    <g
       id="pressed-center"
       inkscape:label="#g4186"
       transform="translate(55,6.0000174)">
      <rect
         transform="matrix(0,-1,1,0,0,0)"
         y="-23"
         x="-1046.3622"
         height="16"
         width="16"
         id="rect4204"
         style="opacity:0.00100002;fill:#000000;fill-opacity:1;stroke:none;stroke-width:0.5;stroke-linecap:round;stroke-linejoin:round;stroke-miterlimit:4;stroke-dasharray:none;stroke-opacity:1" />
      <g
         transform="matrix(0.70710678,-0.70710678,0.70710678,0.70710678,-26.313708,1038.3622)"
         id="g4206"
         style="enable-background:new">
        <g
           id="g4208"
           inkscape:label="actions"
           style="display:inline"
           transform="translate(-285.00081,-0.99666)">
          <path
             inkscape:connector-curvature="0"
             d="m 292.00081,3.99666 0,4 -4,0 0,2 4,0 0,4 2,0 0,-4 4,0 0,-2 -4,0 0,-4 -2,0 z"
             id="path4210"
             style="color:#bebebe;display:inline;overflow:visible;visibility:visible;opacity:0.5;fill:#000000;fill-opacity:1;stroke:none;stroke-width:1;marker:none" />
        </g>
      </g>
    </g>
    <g
       transform="translate(71,6.0000174)"
       inkscape:label="#g4186"
       id="inactive-center">
      <rect
         style="opacity:0.00100002;fill:#000000;fill-opacity:1;stroke:none;stroke-width:0.5;stroke-linecap:round;stroke-linejoin:round;stroke-miterlimit:4;stroke-dasharray:none;stroke-opacity:1"
         id="rect4214"
         width="16"
         height="16"
         x="-1046.3622"
         y="-23"
         transform="matrix(0,-1,1,0,0,0)" />
      <g
         style="enable-background:new"
         id="g4216"
         transform="matrix(0.70710678,-0.70710678,0.70710678,0.70710678,-26.313708,1038.3622)">
        <g
           transform="translate(-285.00081,-0.99666)"
           style="display:inline"
           inkscape:label="actions"
           id="g4218">
          <path
             style="color:#bebebe;display:inline;overflow:visible;visibility:visible;opacity:0.3;fill:#000000;fill-opacity:1;stroke:none;stroke-width:1;marker:none"
             id="path4220"
             d="m 292.00081,3.99666 0,4 -4,0 0,2 4,0 0,4 2,0 0,-4 4,0 0,-2 -4,0 0,-4 -2,0 z"
             inkscape:connector-curvature="0" />
        </g>
      </g>
    </g>
    <g
       id="deactivated-center"
       inkscape:label="#g4186"
       transform="translate(87,6.0000174)">
      <rect
         transform="matrix(0,-1,1,0,0,0)"
         y="-23"
         x="-1046.3622"
         height="16"
         width="16"
         id="rect4224"
         style="opacity:0.00100002;fill:#000000;fill-opacity:1;stroke:none;stroke-width:0.5;stroke-linecap:round;stroke-linejoin:round;stroke-miterlimit:4;stroke-dasharray:none;stroke-opacity:1" />
      <g
         transform="matrix(0.70710678,-0.70710678,0.70710678,0.70710678,-26.313708,1038.3622)"
         id="g4226"
         style="enable-background:new">
        <g
           id="g4228"
           inkscape:label="actions"
           style="display:inline"
           transform="translate(-285.00081,-0.99666)">
          <path
             inkscape:connector-curvature="0"
             d="m 292.00081,3.99666 0,4 -4,0 0,2 4,0 0,4 2,0 0,-4 4,0 0,-2 -4,0 0,-4 -2,0 z"
             id="path4230"
             style="color:#bebebe;display:inline;overflow:visible;visibility:visible;opacity:0.1;fill:#000000;fill-opacity:1;stroke:none;stroke-width:1;marker:none" />
        </g>
      </g>
    </g>
  </g>
</svg>
