<?xml version="1.0" encoding="UTF-8" standalone="no"?>
<!-- Created with Inkscape (http://www.inkscape.org/) -->

<svg
   xmlns:osb="http://www.openswatchbook.org/uri/2009/osb"
   xmlns:dc="http://purl.org/dc/elements/1.1/"
   xmlns:cc="http://creativecommons.org/ns#"
   xmlns:rdf="http://www.w3.org/1999/02/22-rdf-syntax-ns#"
   xmlns:svg="http://www.w3.org/2000/svg"
   xmlns="http://www.w3.org/2000/svg"
   xmlns:sodipodi="http://sodipodi.sourceforge.net/DTD/sodipodi-0.dtd"
   xmlns:inkscape="http://www.inkscape.org/namespaces/inkscape"
   width="80"
   height="16"
   id="svg4428"
   version="1.1"
   inkscape:version="0.91 r13725"
   sodipodi:docname="keepabove.svg">
  <defs
     id="defs4430">
    <linearGradient
       osb:paint="solid"
       id="linearGradient5606">
      <stop
         style="stop-color:#000000;stop-opacity:1;"
         offset="0"
         id="stop5608" />
    </linearGradient>
  </defs>
  <sodipodi:namedview
     id="base"
     pagecolor="#bdc3c7"
     bordercolor="#666666"
     borderopacity="1.0"
     inkscape:pageopacity="1"
     inkscape:pageshadow="2"
     inkscape:zoom="3.2796268"
     inkscape:cx="74.977038"
     inkscape:cy="19.569785"
     inkscape:document-units="px"
     inkscape:current-layer="layer1"
     showgrid="false"
     inkscape:snap-bbox="true"
     inkscape:window-width="1600"
     inkscape:window-height="847"
     inkscape:window-x="0"
     inkscape:window-y="0"
     inkscape:window-maximized="1"
     showborder="true"
     inkscape:showpageshadow="false">
    <inkscape:grid
       type="xygrid"
       id="grid4436"
       empspacing="5"
       visible="true"
       enabled="true"
       snapvisiblegridlinesonly="true" />
  </sodipodi:namedview>
  <metadata
     id="metadata4433">
    <rdf:RDF>
      <cc:Work
         rdf:about="">
        <dc:format>image/svg+xml</dc:format>
        <dc:type
           rdf:resource="http://purl.org/dc/dcmitype/StillImage" />
        <dc:title></dc:title>
      </cc:Work>
    </rdf:RDF>
  </metadata>
  <g
     inkscape:label="Layer 1"
     inkscape:groupmode="layer"
     id="layer1"
     transform="translate(0,-1036.3622)">
    <g
       id="4"
       inkscape:label="#g3842"
       transform="translate(81,-3)" />
    <g
       id="active-center"
       transform="translate(23,6.0000174)"
       inkscape:label="#g4186">
      <rect
         transform="matrix(0,1,1,0,0,0)"
         y="-23"
         x="1030.3622"
         height="16"
         width="16"
         id="rect4188"
         style="opacity:0.00100002;fill:#000000;fill-opacity:1;stroke:none;stroke-width:0.5;stroke-linecap:round;stroke-linejoin:round;stroke-miterlimit:4;stroke-dasharray:none;stroke-opacity:1" />
      <g
         style="enable-background:new"
         id="g4190"
         transform="matrix(0.70710678,-0.70710678,-0.70710678,-0.70710678,-14.757359,1046.0901)">
        <g
           transform="translate(-285.00081,-0.99666)"
           style="display:inline"
           inkscape:label="actions"
           id="g4192">
          <path
             inkscape:connector-curvature="0"
             id="path4194"
             transform="matrix(0.70710678,-0.70710678,0.70710678,0.70710678,292.41501,-12.4592)"
             d="M -17.585938,7.34375 -19,8.7578125 -14.757812,13 -10.515625,8.7578125 -11.929688,7.34375 -14.757812,10.171875 -17.585938,7.34375 Z m 0,4 L -19,12.757812 -14.757812,17 l 4.242187,-4.242188 -1.414063,-1.414062 -2.828124,2.828125 -2.828126,-2.828125 z"
             style="color:#bebebe;display:inline;overflow:visible;visibility:visible;opacity:0.5;fill:#000000;fill-opacity:1;stroke:none;stroke-width:1;marker:none" />
        </g>
      </g>
    </g>
    <g
       style="enable-background:new"
       id="g4193"
       transform="matrix(0.70710678,0.70710678,-0.70710678,0.70710678,-14.757359,1024.8062)">
      <g
         transform="translate(-285.00081,-0.99666)"
         style="display:inline"
         inkscape:label="actions"
         id="g4195" />
    </g>
    <g
       transform="matrix(0.70710678,0.70710678,-0.70710678,0.70710678,24.242641,1024.8062)"
       id="g4199"
       style="enable-background:new">
      <g
         id="g4201"
         inkscape:label="actions"
         style="display:inline"
         transform="translate(-285.00081,-0.99666)" />
    </g>
    <g
       transform="matrix(0.70710678,0.70710678,-0.70710678,0.70710678,66.242641,1024.8062)"
       id="g4205"
       style="enable-background:new">
      <g
         id="g4207"
         inkscape:label="actions"
         style="display:inline"
         transform="translate(-285.00081,-0.99666)" />
    </g>
    <g
       style="enable-background:new"
       id="g4211"
       transform="matrix(0.70710678,0.70710678,-0.70710678,0.70710678,110.24264,1024.8062)">
      <g
         transform="translate(-285.00081,-0.99666)"
         style="display:inline"
         inkscape:label="actions"
         id="g4214" />
    </g>
    <g
       style="enable-background:new"
       id="g4218"
       transform="matrix(0.70710678,0.70710678,-0.70710678,0.70710678,160.24264,1024.8062)">
      <g
         transform="translate(-285.00081,-0.99666)"
         style="display:inline"
         inkscape:label="actions"
         id="g4221" />
    </g>
    <g
       transform="translate(39,6.0000174)"
       id="hover-center"
       inkscape:label="#g4194">
      <rect
         style="opacity:0.00100002;fill:#000000;fill-opacity:1;stroke:none;stroke-width:0.5;stroke-linecap:round;stroke-linejoin:round;stroke-miterlimit:4;stroke-dasharray:none;stroke-opacity:1"
         id="rect4196"
         width="16"
         height="16"
         x="1030.3622"
         y="-23"
         transform="matrix(0,1,1,0,0,0)" />
      <g
         transform="matrix(0.70710678,-0.70710678,-0.70710678,-0.70710678,-14.757359,1046.0901)"
         id="g4198"
         style="enable-background:new">
        <g
           id="g4203"
           inkscape:label="actions"
           style="display:inline"
           transform="translate(-285.00081,-0.99666)">
          <path
             style="color:#bebebe;display:inline;overflow:visible;visibility:visible;opacity:0.7;fill:#000000;fill-opacity:1;stroke:none;stroke-width:1;marker:none"
             d="M -17.585938,7.34375 -19,8.7578125 -14.757812,13 -10.515625,8.7578125 -11.929688,7.34375 -14.757812,10.171875 -17.585938,7.34375 Z m 0,4 L -19,12.757812 -14.757812,17 l 4.242187,-4.242188 -1.414063,-1.414062 -2.828124,2.828125 -2.828126,-2.828125 z"
             transform="matrix(0.70710678,-0.70710678,0.70710678,0.70710678,292.41501,-12.4592)"
             id="path4205"
             inkscape:connector-curvature="0" />
        </g>
      </g>
    </g>
    <g
       id="pressed-center"
       transform="translate(55,6.0000174)"
       inkscape:label="#g4208">
      <rect
         transform="matrix(0,1,1,0,0,0)"
         y="-23"
         x="1030.3622"
         height="16"
         width="16"
         id="rect4210"
         style="opacity:0.00100002;fill:#000000;fill-opacity:1;stroke:none;stroke-width:0.5;stroke-linecap:round;stroke-linejoin:round;stroke-miterlimit:4;stroke-dasharray:none;stroke-opacity:1" />
      <g
         style="enable-background:new"
         id="g4215"
         transform="matrix(0.70710678,-0.70710678,-0.70710678,-0.70710678,-14.757359,1046.0901)">
        <g
           transform="translate(-285.00081,-0.99666)"
           style="display:inline"
           inkscape:label="actions"
           id="g4217">
          <path
             inkscape:connector-curvature="0"
             id="path4219"
             transform="matrix(0.70710678,-0.70710678,0.70710678,0.70710678,292.41501,-12.4592)"
             d="M -17.585938,7.34375 -19,8.7578125 -14.757812,13 -10.515625,8.7578125 -11.929688,7.34375 -14.757812,10.171875 -17.585938,7.34375 Z m 0,4 L -19,12.757812 -14.757812,17 l 4.242187,-4.242188 -1.414063,-1.414062 -2.828124,2.828125 -2.828126,-2.828125 z"
             style="color:#bebebe;display:inline;overflow:visible;visibility:visible;opacity:0.5;fill:#000000;fill-opacity:1;stroke:none;stroke-width:1;marker:none" />
        </g>
      </g>
    </g>
    <g
       transform="translate(71,6.0000174)"
       id="inactive-center"
       inkscape:label="#g4223">
      <rect
         style="opacity:0.00100002;fill:#000000;fill-opacity:1;stroke:none;stroke-width:0.5;stroke-linecap:round;stroke-linejoin:round;stroke-miterlimit:4;stroke-dasharray:none;stroke-opacity:1"
         id="rect4225"
         width="16"
         height="16"
         x="1030.3622"
         y="-23"
         transform="matrix(0,1,1,0,0,0)" />
      <g
         transform="matrix(0.70710678,-0.70710678,-0.70710678,-0.70710678,-14.757359,1046.0901)"
         id="g4227"
         style="enable-background:new">
        <g
           id="g4229"
           inkscape:label="actions"
           style="display:inline"
           transform="translate(-285.00081,-0.99666)">
          <path
             style="color:#bebebe;display:inline;overflow:visible;visibility:visible;opacity:0.3;fill:#000000;fill-opacity:1;stroke:none;stroke-width:1;marker:none"
             d="M -17.585938,7.34375 -19,8.7578125 -14.757812,13 -10.515625,8.7578125 -11.929688,7.34375 -14.757812,10.171875 -17.585938,7.34375 Z m 0,4 L -19,12.757812 -14.757812,17 l 4.242187,-4.242188 -1.414063,-1.414062 -2.828124,2.828125 -2.828126,-2.828125 z"
             transform="matrix(0.70710678,-0.70710678,0.70710678,0.70710678,292.41501,-12.4592)"
             id="path4231"
             inkscape:connector-curvature="0" />
        </g>
      </g>
    </g>
    <g
       id="deactivated-center"
       transform="translate(87,6.0000174)"
       inkscape:label="#g4233">
      <rect
         transform="matrix(0,1,1,0,0,0)"
         y="-23"
         x="1030.3622"
         height="16"
         width="16"
         id="rect4235"
         style="opacity:0.00100002;fill:#000000;fill-opacity:1;stroke:none;stroke-width:0.5;stroke-linecap:round;stroke-linejoin:round;stroke-miterlimit:4;stroke-dasharray:none;stroke-opacity:1" />
      <g
         style="enable-background:new"
         id="g4237"
         transform="matrix(0.70710678,-0.70710678,-0.70710678,-0.70710678,-14.757359,1046.0901)">
        <g
           transform="translate(-285.00081,-0.99666)"
           style="display:inline"
           inkscape:label="actions"
           id="g4239">
          <path
             inkscape:connector-curvature="0"
             id="path4241"
             transform="matrix(0.70710678,-0.70710678,0.70710678,0.70710678,292.41501,-12.4592)"
             d="M -17.585938,7.34375 -19,8.7578125 -14.757812,13 -10.515625,8.7578125 -11.929688,7.34375 -14.757812,10.171875 -17.585938,7.34375 Z m 0,4 L -19,12.757812 -14.757812,17 l 4.242187,-4.242188 -1.414063,-1.414062 -2.828124,2.828125 -2.828126,-2.828125 z"
             style="color:#bebebe;display:inline;overflow:visible;visibility:visible;opacity:0.1;fill:#000000;fill-opacity:1;stroke:none;stroke-width:1;marker:none" />
        </g>
      </g>
    </g>
  </g>
</svg>
