<?xml version="1.0" encoding="UTF-8" standalone="no"?>
<svg
   xmlns:dc="http://purl.org/dc/elements/1.1/"
   xmlns:cc="http://creativecommons.org/ns#"
   xmlns:rdf="http://www.w3.org/1999/02/22-rdf-syntax-ns#"
   xmlns:svg="http://www.w3.org/2000/svg"
   xmlns="http://www.w3.org/2000/svg"
   version="1.0"
   width="22"
   height="22"
   id="svg2817">
  <defs
     id="defs14" />
  <metadata
     id="metadata57">
    <rdf:RDF>
      <cc:Work
         rdf:about="">
        <dc:format>image/svg+xml</dc:format>
        <dc:type
           rdf:resource="http://purl.org/dc/dcmitype/StillImage" />
        <dc:title></dc:title>
      </cc:Work>
    </rdf:RDF>
  </metadata>
  <g
     transform="translate(-1,-1)"
     id="g4184">
    <rect
       style="fill:#cccccc;fill-opacity:1"
       id="rect4203"
       transform="matrix(0,-1,-1,0,0,0)"
       rx="1"
       ry="1"
       height="20"
       width="20"
       y="-22"
       x="-22" />
    <path
       style="fill:#3f3f3f"
       id="path3937"
       d="M 10.857143,5 C 10.540571,5 9.989933,5.2403237 10,5.5384615 L 10,14 l -2,0 4,5 4,-5 -2,0 0,-8.4615385 C 14,5.2401538 13.459429,5 13.142857,5 Z" />
    <path
       style="opacity:0.1;fill:#ffffff"
       id="path4068"
       d="M 2,3.5 2,3 C 2,2.446 2.446,2 3,2 l 18,0 c 0.554,0 1,0.446 1,1 l 0,0.5 c 0,-0.554 -0.446,-1 -1,-1 l -18,0 c -0.554,0 -1,0.446 -1,1 z" />
    <path
       style="opacity:0.3"
       id="rect4177"
       d="M 2,20.5 2,21 c 0,0.554 0.446,1 1,1 l 18,0 c 0.554,0 1,-0.446 1,-1 l 0,-0.5 c 0,0.554 -0.446,1 -1,1 l -18,0 c -0.554,0 -1,-0.446 -1,-1 z" />
    <circle
       id="path4058"
       style="fill:#f2ab56;fill-opacity:1;enable-background:new"
       cx="18"
       cy="18"
       r="5" />
    <path
       id="path5125-3"
       d="m 17.223,15 -0.06613,0.7902 a 2.35715,2.35715 0 0 0 -0.6889,0.398445 l -0.7182,-0.338175 -0.75,1.2991 0.65205,0.45285 a 2.35715,2.35715 0 0 0 -0.036,0.3976 2.35715,2.35715 0 0 0 0.0343,0.399275 l -0.6505,0.4515 0.75,1.2991 0.7165,-0.33733 a 2.35715,2.35715 0 0 0 0.69055,0.395925 l 0.06613,0.79185 1.5,0 0.06612,-0.7902 a 2.35715,2.35715 0 0 0 0.6889,-0.39844 l 0.7182,0.33817 0.75,-1.2991 -0.65205,-0.45285 a 2.35715,2.35715 0 0 0 0.036,-0.397595 2.35715,2.35715 0 0 0 -0.0343,-0.399275 l 0.6504,-0.451175 -0.75,-1.2991 -0.7165,0.337335 a 2.35715,2.35715 0 0 0 -0.6905,-0.395 l -0.06612,-0.79185 -1.5,0 z m 0.75,2.14285 A 0.85715,0.85715 0 0 1 18.83015,18 0.85715,0.85715 0 0 1 17.973,18.85715 0.85715,0.85715 0 0 1 17.11585,18 0.85715,0.85715 0 0 1 17.973,17.14285 Z"
       style="fill:#ffffff;enable-background:new" />
    <path
       id="circle4454"
       style="opacity:0.3;enable-background:new"
       d="M 22.9895,17.707 A 5,5 0 0 1 18,22.5 5,5 0 0 1 13.0105,17.793 5,5 0 0 0 13,18 a 5,5 0 0 0 5,5 5,5 0 0 0 5,-5 5,5 0 0 0 -0.0105,-0.293 z" />
  </g>
</svg>
