<svg xmlns="http://www.w3.org/2000/svg" width="16" height="16" version="1.1" viewBox="0 0 16 16">
 <defs>
  <style id="current-color-scheme" type="text/css">
   .ColorScheme-Text { color:#414c52; } .ColorScheme-Highlight { color:#00bcd4; }
  </style>
 </defs>
 <path style="fill:currentColor" class="ColorScheme-Text" d="M 11.001953,3.995117 A 1,1 0 0 0 10.294922,4.2880857 L 8.001953,6.5810541 5.7187501,4.2978513 a 1,1 0 0 0 -0.00977,-0.00977 1,1 0 0 0 -0.7011719,-0.2890625 l -0.00977,0.013672 a 1,1 0 0 0 -1,1 1,1 0 0 0 0.2929688,0.7070312 L 6.583985,8.0126951 4.2910158,10.305664 a 1,1 0 0 0 -0.2890626,0.699219 1,1 0 0 0 1,1 1,1 0 0 0 0.7070313,-0.292969 L 8.001953,9.4189451 10.285156,11.702148 a 1,1 0 0 0 0.716797,0.302735 1,1 0 0 0 1,-1 1,1 0 0 0 -0.292968,-0.707032 L 9.408203,7.9990231 11.691406,5.7158201 a 1,1 0 0 0 0.310547,-0.7207031 1,1 0 0 0 -1,-1 z"/>
</svg>
