<svg xmlns="http://www.w3.org/2000/svg" width="16" height="16" version="1.1" viewBox="0 0 16 16">
 <defs>
  <style id="current-color-scheme" type="text/css">
   .ColorScheme-Text { color:#414c52; } .ColorScheme-Highlight { color:#00bcd4; }
  </style>
 </defs>
 <path style="fill:currentColor" class="ColorScheme-Text" d="m 6,0.9960936 c -1,0 -1,1 -1,1 l -3,0 c 0,0 -1,0.00351 -1,1.0039063 l 0,1 13,-0.00391 0,-0.9960937 c 0,-1 -1,-1.0039063 -1,-1.0039063 l -3,0 c 0,0 0,-1 -1,-1 l -3,0 z M 2,4.9999999 2,14 c 5e-5,0.52358 0.47642,0.99995 1,1 l 9,0 c 0.52358,-5e-5 0.99995,-0.47642 1,-1 l 0,-9.0000001 -11,0 z"/>
</svg>
