<svg xmlns="http://www.w3.org/2000/svg" width="16" height="16" version="1.1" viewBox="0 0 16 16">
 <defs>
  <style id="current-color-scheme" type="text/css">
   .ColorScheme-Text { color:#414c52; } .ColorScheme-Highlight { color:#00bcd4; }
  </style>
 </defs>
 <path style="fill:currentColor" class="ColorScheme-Text" d="M 8,1 C 5.79,1 4,2.79 4,5 L 6,5 C 6,3.9 6.9,3 8,3 9.1,3 10,3.9 10,5 10,5.55 9.780156,6.050156 9.410156,6.410156 L 8.169922,7.669922 C 7.449922,8.399922 7,9.4 7,10.5 L 7,11 9,11 C 9,9.5 9.449922,8.899922 10.169922,8.169922 L 11.070312,7.25 C 11.640312,6.68 12,5.88 12,5 12,2.79 10.21,1 8,1 Z m -1,12 0,2 2,0 0,-2 -2,0 z"/>
</svg>
