<svg xmlns="http://www.w3.org/2000/svg" width="16" height="16" version="1.1" viewBox="0 0 16 16">
 <defs>
  <style id="current-color-scheme" type="text/css">
   .ColorScheme-Text { color:#414c52; } .ColorScheme-Highlight { color:#00bcd4; }
  </style>
 </defs>
 <path style="fill:currentColor" class="ColorScheme-Text" d="M 5,2 5,4 2.9316406,4 C 1.8618406,4 1,4.9391187 1,6.105469 l 0,5.789062 C 1,13.060831 1.8618906,14 2.9316406,14 L 13.068359,14 C 14.138159,14 15,13.060881 15,11.894531 L 15,6.105469 C 15,4.9391687 14.138109,4 13.068359,4 L 11,4 l 0,2 1.998047,0 c -0.002,0.009 0.002,0.0263 0.002,0.105469 l 0,5.789062 c 0,0.0791 -0.004,0.0966 -0.002,0.105469 L 3.0039062,12 C 3.0049063,11.991 3,11.973701 3,11.894531 L 3,6.105469 C 3,6.026269 3.0049062,6.00887 3.0039062,6 L 5,6 5,8 9,5 5,2 Z"/>
</svg>
