<svg xmlns="http://www.w3.org/2000/svg" width="16" height="16" version="1.1" viewBox="0 0 16 16">
 <defs>
  <style id="current-color-scheme" type="text/css">
   .ColorScheme-Text { color:#cfd8dc; } .ColorScheme-Highlight { color:#00bcd4; }
  </style>
 </defs>
 <path style="fill:currentColor" class="ColorScheme-Text" d="m 6.2519515,0.9990235 -0.154297,1.84375 A 5.5,5.5 0 0 0 4.4902327,3.772461 l -1.6757812,-0.7890625 -1.75,3.03125 1.5214844,1.056641 a 5.5,5.5 0 0 0 -0.083984,0.927734 5.5,5.5 0 0 0 0.080078,0.931641 l -1.5175781,1.052734 1.75,3.0312505 1.671875,-0.787109 a 5.5,5.5 0 0 0 1.611328,0.923828 l 0.150391,1.849609 3.5,0 0.154297,-1.84375 A 5.5,5.5 0 0 0 11.509763,12.22754 l 1.675783,0.789062 1.75,-3.0312505 -1.521485,-1.05664 a 5.5,5.5 0 0 0 0.08399,-0.927735 5.5,5.5 0 0 0 -0.08008,-0.93164 l 1.517578,-1.052735 -1.75,-3.0312499 -1.671875,0.7871094 A 5.5,5.5 0 0 0 9.9023425,2.8486329 l -0.150391,-1.8496094 -3.5,0 z m 1.75,5 a 2,2 0 0 1 1.9999995,2 2,2 0 0 1 -1.9999995,2 2,2 0 0 1 -2,-2 2,2 0 0 1 2,-2 z"/>
</svg>
