<svg xmlns="http://www.w3.org/2000/svg" id="svg16" width="32" height="32" version="1">
 <rect style="opacity:0.2;fill:#000000;fill-opacity:1" id="rect4148" width="28" height="28" x="-31" y="-30" rx="14" ry="14" transform="matrix(0,-1,-1,0,0,0)"/>
 <rect id="rect2" width="28" height="28" x="-30" y="-30" rx="14" ry="14" transform="matrix(0,-1,-1,0,0,0)" style="fill:#db3c30;fill-opacity:1"/>
 <path id="path4171" d="M 8,11.909088 13.090912,17 8.0000066,22.090904 10.909096,24.999994 16,19.909088 21.090912,25 24,22.090912 18.909088,17 23.999994,11.909096 21.090904,9.0000066 16,14.090912 10.909088,9 Z" style="opacity:0.2;fill:#000000;fill-opacity:1;stroke-width:2.59999728"/>
 <path style="fill:#ffffff;stroke-width:2.59999728" id="path18-6" d="M 8,10.909088 13.090912,16 8.0000066,21.090904 10.909096,23.999994 16,18.909088 21.090912,24 24,21.090912 18.909088,16 23.999994,10.909096 21.090904,8.0000066 16,13.090912 10.909088,8 Z"/>
 <path style="fill:#ffffff;fill-opacity:1;opacity:0.2" id="rect4152" d="M 16 2 C 8.244 2 2 8.244 2 16 C 2 16.168842 2.0195214 16.33264 2.0253906 16.5 C 2.2891326 8.9794325 8.4128418 3 16 3 C 23.587158 3 29.710867 8.9794325 29.974609 16.5 C 29.980479 16.33264 30 16.168842 30 16 C 30 8.244 23.756 2 16 2 z"/>
</svg>
