<?xml version="1.0" encoding="UTF-8" standalone="no"?>
<svg
   xmlns:dc="http://purl.org/dc/elements/1.1/"
   xmlns:cc="http://creativecommons.org/ns#"
   xmlns:rdf="http://www.w3.org/1999/02/22-rdf-syntax-ns#"
   xmlns:svg="http://www.w3.org/2000/svg"
   xmlns="http://www.w3.org/2000/svg"
   version="1.1"
   id="svg2"
   height="22"
   viewBox="0 0 6.208889 6.208889"
   width="22">
  <metadata
     id="metadata10">
    <rdf:RDF>
      <cc:Work
         rdf:about="">
        <dc:format>image/svg+xml</dc:format>
        <dc:type
           rdf:resource="http://purl.org/dc/dcmitype/StillImage" />
        <dc:title />
      </cc:Work>
    </rdf:RDF>
  </metadata>
  <defs
     id="defs8" />
  <path
     id="path4146"
     transform="scale(0.28222222,0.28222222)"
     d="M 7.5058594 4 A 1.0086832 0.99999998 0 0 0 6.6328125 4.4980469 L 3.1367188 10.498047 A 1.0086832 0.99999998 0 0 0 3.1367188 11.501953 L 6.6328125 17.501953 A 1.0086832 0.99999998 0 0 0 7.5058594 18 L 14.494141 18 A 1.0086832 0.99999998 0 0 0 15.365234 17.501953 L 18.863281 11.501953 A 1.0086832 0.99999998 0 0 0 18.863281 10.498047 L 15.365234 4.4980469 A 1.0086832 0.99999998 0 0 0 14.494141 4 L 7.5058594 4 z M 8.3457031 6 A 0.75651235 0.71428584 0 0 1 8.3789062 6 L 13.621094 6 A 0.75651235 0.71428584 0 0 1 14.257812 6.328125 A 0.75651235 0.71428584 0 0 1 14.257812 6.3300781 L 11 9.5859375 L 7.7421875 6.328125 A 0.75651235 0.71428584 0 0 1 8.3457031 6 z M 6.6679688 8.0820312 L 9.5859375 11 L 6.6679688 13.917969 L 5.1015625 11.359375 A 0.75651235 0.71428584 0 0 1 5.1015625 10.640625 L 6.6679688 8.0820312 z M 15.332031 8.0820312 L 16.898438 10.640625 A 0.75651235 0.71428584 0 0 1 16.898438 11.359375 L 15.332031 13.917969 L 12.414062 11 L 15.332031 8.0820312 z M 11 12.414062 L 14.255859 15.669922 A 0.75651235 0.71428584 0 0 1 13.621094 16 L 8.3789062 16 A 0.75651235 0.71428584 0 0 1 7.7421875 15.671875 L 11 12.414062 z "
     style="color:#000000;display:inline;visibility:visible;opacity:0.72000002;color-interpolation:sRGB;color-interpolation-filters:linearRGB;fill:#ffffff;fill-opacity:1;fill-rule:nonzero;stroke:none;color-rendering:auto;image-rendering:auto;shape-rendering:auto" />
</svg>
