<?xml version="1.0" encoding="UTF-8" standalone="no"?>
<svg
   xmlns:dc="http://purl.org/dc/elements/1.1/"
   xmlns:cc="http://creativecommons.org/ns#"
   xmlns:rdf="http://www.w3.org/1999/02/22-rdf-syntax-ns#"
   xmlns:svg="http://www.w3.org/2000/svg"
   xmlns="http://www.w3.org/2000/svg"
   version="1.1"
   width="22"
   height="22"
   style="enable-background:new"
   id="svg7384">
  <defs
     id="defs11" />
  <metadata
     id="metadata90">
    <rdf:RDF>
      <cc:Work
         rdf:about="">
        <dc:format>image/svg+xml</dc:format>
        <dc:type
           rdf:resource="http://purl.org/dc/dcmitype/StillImage" />
        <dc:title>Paper Symbolic Icon Theme</dc:title>
      </cc:Work>
    </rdf:RDF>
  </metadata>
  <title
     id="title8473">Paper Symbolic Icon Theme</title>
  <path
     id="rect3762"
     d="M 11,3.71875 C 10.23205,4.47655 9.483725,5.2555 8.703125,6 L 6,6 6,8.703125 C 5.2554,9.483725 4.47665,10.232 3.71875,11 4.47665,11.76805 5.25545,12.516175 6,13.296875 L 6,16 8.703125,16 C 9.483725,16.7446 10.232,17.52335 11,18.28125 11.76805,17.52335 12.516175,16.74455 13.296875,16 L 16,16 16,13.296875 C 16.7446,12.516275 17.52335,11.768 18.28125,11 17.52335,10.23195 16.74455,9.483825 16,8.703125 L 16,6 13.296875,6 C 12.516275,5.2554 11.768,4.47665 11,3.71875 Z M 11,6.5 c 2.4853,0 4.5,2.0147 4.5,4.5 0,2.4853 -2.0147,4.5 -4.5,4.5 C 8.5147,15.5 6.5,13.4853 6.5,11 6.5,8.5147 8.5147,6.5 11,6.5 Z M 11,8 c -1.65685,0 -3,1.34315 -3,3 0,1.65685 1.34315,3 3,3 l 0,-6 z"
     style="fill:#ffffff" />
</svg>
