<?xml version="1.0" encoding="UTF-8" standalone="no"?>
<svg
   xmlns:dc="http://purl.org/dc/elements/1.1/"
   xmlns:cc="http://creativecommons.org/ns#"
   xmlns:rdf="http://www.w3.org/1999/02/22-rdf-syntax-ns#"
   xmlns:svg="http://www.w3.org/2000/svg"
   xmlns="http://www.w3.org/2000/svg"
   width="22"
   viewBox="0 0 6.208889 6.208889"
   height="22"
   id="svg2"
   version="1.1">
  <metadata
     id="metadata10">
    <rdf:RDF>
      <cc:Work
         rdf:about="">
        <dc:format>image/svg+xml</dc:format>
        <dc:type
           rdf:resource="http://purl.org/dc/dcmitype/StillImage" />
        <dc:title />
      </cc:Work>
    </rdf:RDF>
  </metadata>
  <defs
     id="defs8" />
  <path
     style="color:#000000;display:inline;visibility:visible;opacity:0.72000002;color-interpolation:sRGB;color-interpolation-filters:linearRGB;fill:#ffffff;fill-opacity:1;fill-rule:nonzero;stroke:none;color-rendering:auto;image-rendering:auto;shape-rendering:auto"
     d="M 2.118196,1.1288889 A 0.28467281,0.28222221 0 0 0 1.8718027,1.2694488 L 0.88512743,2.9627821 a 0.28467281,0.28222221 0 0 0 0,0.2833246 L 1.8718027,4.93944 A 0.28467281,0.28222221 0 0 0 2.118196,5.08 l 1.9722483,0 A 0.28467281,0.28222221 0 0 0 4.3362861,4.93944 L 5.3235127,3.2461067 a 0.28467281,0.28222221 0 0 0 0,-0.2833246 L 4.3362861,1.2694488 A 0.28467281,0.28222221 0 0 0 4.0904443,1.1288889 l -1.9722483,0 z m 0.2370225,0.5644444 a 0.21350459,0.20158734 0 0 1 0.00937,0 l 1.4794618,0 a 0.21350459,0.20158734 0 0 1 0.179696,0.092604 0.21350459,0.20158734 0 0 1 0,5.512e-4 L 3.1043201,2.7053646 2.184893,1.7859375 A 0.21350459,0.20158734 0 0 1 2.3552185,1.6933333 Z M 1.8817246,2.2809288 2.7052402,3.1044444 1.8817246,3.9279601 1.4396499,3.205868 a 0.21350459,0.20158734 0 0 1 0,-0.2028472 l 0.4420747,-0.722092 z m 2.4451909,0 0.4420748,0.722092 a 0.21350459,0.20158734 0 0 1 0,0.2028472 L 4.3269155,3.9279601 3.5033998,3.1044444 4.3269155,2.2809288 Z M 3.1043201,3.5035241 4.0231958,4.4224002 A 0.21350459,0.20158734 0 0 1 3.844051,4.5155552 l -1.4794618,0 A 0.21350459,0.20158734 0 0 1 2.184893,4.4229514 L 3.1043201,3.5035241 Z"
     id="path4146" />
  <path
     style="opacity:1;fill:#5294e2;fill-opacity:1;stroke:none;stroke-width:2;stroke-linecap:round;stroke-linejoin:round;stroke-miterlimit:4;stroke-dasharray:none;stroke-opacity:1"
     d="M 4.9511117,1.1290697 A 0.17020962,0.15160508 0 0 0 4.8204754,1.3555663 l 0.2685853,0.4133195 0.2672556,0.4133194 a 0.17020962,0.15160508 0 0 0 0.294513,0 L 5.9194146,1.7688858 6.1866701,1.3555663 A 0.17020962,0.15160508 0 0 0 6.0394137,1.1290697 l -0.5358408,0 -0.5358409,0 a 0.17020962,0.15160508 0 0 0 -0.016621,0 z"
     id="path4134" />
</svg>
