<?xml version="1.0" encoding="UTF-8" standalone="no"?>
<svg
   xmlns:osb="http://www.openswatchbook.org/uri/2009/osb"
   xmlns:dc="http://purl.org/dc/elements/1.1/"
   xmlns:cc="http://creativecommons.org/ns#"
   xmlns:rdf="http://www.w3.org/1999/02/22-rdf-syntax-ns#"
   xmlns:svg="http://www.w3.org/2000/svg"
   xmlns="http://www.w3.org/2000/svg"
   width="22"
   viewBox="0 0 22 22"
   version="1.1"
   id="svg6530"
   height="22">
  <defs
     id="defs6532">
    <linearGradient
       osb:paint="solid"
       id="linearGradient5606">
      <stop
         style="stop-color:#000000;stop-opacity:1;"
         offset="0"
         id="stop5608" />
    </linearGradient>
  </defs>
  <metadata
     id="metadata6535">
    <rdf:RDF>
      <cc:Work
         rdf:about="">
        <dc:format>image/svg+xml</dc:format>
        <dc:type
           rdf:resource="http://purl.org/dc/dcmitype/StillImage" />
        <dc:title />
      </cc:Work>
    </rdf:RDF>
  </metadata>
  <g
     transform="translate(-569,-933.27262)"
     style="display:inline"
     id="layer1">
    <path
       id="path4145"
       transform="translate(569,933.27262)"
       d="M 11 3 C 7.68617 3 5 5.30968 5 8.15625 C 5 9.84414 5.9264494 11.317693 7.3808594 12.257812 C 8.0498794 12.691873 8.96875 13.250054 8.96875 14.021484 L 9.03125 15 L 12.966797 15 L 13.033203 14.021484 C 13.085703 13.251354 13.951321 12.691873 14.619141 12.257812 C 16.074801 11.317694 17 9.84414 17 8.15625 C 17 5.30968 14.31398 3 11 3 z M 11 5 C 13.208 5 15 6.3506156 15 8.0097656 C 15 8.9576356 14.424036 9.830227 13.416016 10.398438 C 11.912016 11.252276 11.342153 12.20669 11.132812 13 L 10.867188 13 C 10.659166 12.20669 10.088654 11.252277 8.5839844 10.398438 C 7.5786544 9.829717 7 8.9571456 7 8.0097656 C 7 6.3506156 8.79267 5 11 5 z M 9 16 L 9 17 L 13 17 L 13 16 L 9 16 z M 10 18 L 10 19 L 12 19 L 12 18 L 10 18 z "
       style="opacity:0.72;fill:#ffffff;fill-opacity:1;stroke:none" />
    <rect
       y="933.27264"
       x="569"
       width="22"
       style="color:#bebebe;display:inline;overflow:visible;visibility:visible;fill:none;stroke:none;stroke-width:1;marker:none;enable-background:new"
       id="rect9072"
       height="22" />
  </g>
  <g
     transform="translate(-569,-480.91046)"
     id="layer2" />
</svg>
