<?xml version="1.0" encoding="UTF-8" standalone="no"?>
<svg
   xmlns:dc="http://purl.org/dc/elements/1.1/"
   xmlns:cc="http://creativecommons.org/ns#"
   xmlns:rdf="http://www.w3.org/1999/02/22-rdf-syntax-ns#"
   xmlns:svg="http://www.w3.org/2000/svg"
   xmlns="http://www.w3.org/2000/svg"
   xmlns:sodipodi="http://sodipodi.sourceforge.net/DTD/sodipodi-0.dtd"
   xmlns:inkscape="http://www.inkscape.org/namespaces/inkscape"
   width="48"
   height="48"
   version="1"
   id="svg12"
   sodipodi:docname="start_queue.svg"
   inkscape:version="0.91 r13725">
  <metadata
     id="metadata18">
    <rdf:RDF>
      <cc:Work
         rdf:about="">
        <dc:format>image/svg+xml</dc:format>
        <dc:type
           rdf:resource="http://purl.org/dc/dcmitype/StillImage" />
        <dc:title />
      </cc:Work>
    </rdf:RDF>
  </metadata>
  <defs
     id="defs16" />
  <sodipodi:namedview
     pagecolor="#ffffff"
     bordercolor="#666666"
     borderopacity="1"
     objecttolerance="10"
     gridtolerance="10"
     guidetolerance="10"
     inkscape:pageopacity="0"
     inkscape:pageshadow="2"
     inkscape:window-width="1920"
     inkscape:window-height="1018"
     id="namedview14"
     showgrid="false"
     inkscape:zoom="9.8333332"
     inkscape:cx="4.591279"
     inkscape:cy="21.202231"
     inkscape:window-x="0"
     inkscape:window-y="32"
     inkscape:window-maximized="1"
     inkscape:current-layer="svg12" />
  <rect
     width="40"
     height="40"
     x="-44"
     y="-44"
     rx="20"
     ry="20"
     transform="matrix(0,-1,-1,0,0,0)"
     id="rect2"
     style="fill:#a6369e;fill-opacity:1" />
  <path
     style="opacity:0.2;fill:#ffffff"
     inkscape:connector-curvature="0"
     d="M 24,4 C 12.92,4 4,12.92 4,24 4,24.168 3.996,24.333 4,24.5 4.2644,13.654 13.088,5 24,5 34.912,5 43.736,13.654 44,24.5 44.004,24.333 44,24.168 44,24 44,12.92 35.08,4 24,4 Z"
     id="path4" />
  <path
     style="opacity:0.2"
     inkscape:connector-curvature="0"
     d="M 4.0117,24.5 C 4.0076,24.667 4,24.832 4,25 4,36.08 12.92,45 24,45 35.08,45 44,36.08 44,25 44,24.832 43.992,24.667 43.988,24.5 43.724,35.346 34.912,44 24,44 13.088,44 4.276,35.346 4.012,24.5 Z"
     id="path6" />
  <path
     style="opacity:0.2"
     inkscape:connector-curvature="0"
     d="M 18.495,16 A 1.4613,1.4593 0 0 0 17,17.46 l 0,15.082 a 1.4613,1.4593 0 0 0 2.1917,1.2635 l 6.5391,-3.7695 6.5391,-3.7714 a 1.4613,1.4593 0 0 0 0,-2.5269 l -6.539,-3.772 -6.539,-3.77 a 1.4613,1.4593 0 0 0 -0.697,-0.196 z"
     id="path8" />
  <path
     style="fill:#ffffff"
     inkscape:connector-curvature="0"
     d="M 18.495,15 A 1.4613,1.4593 0 0 0 17,16.46 l 0,15.082 a 1.4613,1.4593 0 0 0 2.1917,1.2635 l 6.5391,-3.7695 6.5391,-3.7714 a 1.4613,1.4593 0 0 0 0,-2.5269 l -6.539,-3.772 -6.539,-3.77 a 1.4613,1.4593 0 0 0 -0.697,-0.196 z"
     id="path10" />
  <g
     id="g844"
     transform="matrix(0.49995556,0,0,0.49995556,26.001067,25.502)">
    <rect
       style="opacity:0.2;fill:#000000;fill-opacity:0.98431373"
       id="rect4144"
       transform="matrix(0,-1,-1,0,0,0)"
       ry="20.001778"
       rx="20.001778"
       y="-44.001778"
       x="-45"
       height="40.003555"
       width="40.003555" />
    <rect
       width="40.003555"
       height="40.003555"
       x="-42.999821"
       y="-44.001778"
       rx="20.001778"
       ry="20.001778"
       transform="matrix(0,-1,-1,0,0,0)"
       id="rect834"
       style="fill:#23c197;fill-opacity:0.98431373" />
    <path
       d="m 19.681495,12.997586 a 1.6441128,1.6214757 0 0 0 -1.682029,1.622253 l 0,16.758101 a 1.6441128,1.6214757 0 0 0 2.465888,1.403916 l 7.357161,-4.188414 7.35716,-4.190526 a 1.6441128,1.6214757 0 0 0 0,-2.80772 l -7.357048,-4.191192 -7.357048,-4.18897 a 1.6441128,1.6214757 0 0 0 -0.784197,-0.217782 z"
       id="path842"
       inkscape:connector-curvature="0"
       style="fill:#ffffff" />
  </g>
</svg>
