<?xml version="1.0" encoding="UTF-8" standalone="no"?>
<svg
   xmlns:dc="http://purl.org/dc/elements/1.1/"
   xmlns:cc="http://creativecommons.org/ns#"
   xmlns:rdf="http://www.w3.org/1999/02/22-rdf-syntax-ns#"
   xmlns:svg="http://www.w3.org/2000/svg"
   xmlns="http://www.w3.org/2000/svg"
   version="1.1"
   width="22"
   height="22"
   style="enable-background:new"
   id="svg7384">
  <metadata
     id="metadata90">
    <rdf:RDF>
      <cc:Work
         rdf:about="">
        <dc:format>image/svg+xml</dc:format>
        <dc:type
           rdf:resource="http://purl.org/dc/dcmitype/StillImage" />
        <dc:title>Paper Symbolic Icon Theme</dc:title>
      </cc:Work>
    </rdf:RDF>
  </metadata>
  <title
     id="title8473">Paper Symbolic Icon Theme</title>
  <defs
     id="defs7386">
    <filter
       style="color-interpolation-filters:sRGB"
       id="filter7554">
      <feBlend
         mode="darken"
         in2="BackgroundImage"
         id="feBlend7556" />
    </filter>
  </defs>
  <g
     transform="matrix(1.0666667,0,0,1.0909091,-514.33335,-196.81818)"
     id="layer1">
    <path
       style="opacity:0.5"
       transform="translate(484,182)"
       d="M 8,3 A 5,5 0 0 0 3.2676,6.3984 4,4 0 0 0 1,10 4,4 0 0 0 5,14 4,4 0 0 0 7.6582,12.982 5,5 0 0 0 8,13 5,5 0 0 0 10.113,12.525 4,4 0 0 0 12,13 4,4 0 0 0 16,9 4,4 0 0 0 12,5 4,4 0 0 0 11.992,5 5,5 0 0 0 8,3 Z"
       id="path4148" />
  </g>
</svg>
