<?xml version="1.0" encoding="UTF-8" standalone="no"?>
<svg
   xmlns:dc="http://purl.org/dc/elements/1.1/"
   xmlns:cc="http://creativecommons.org/ns#"
   xmlns:rdf="http://www.w3.org/1999/02/22-rdf-syntax-ns#"
   xmlns:svg="http://www.w3.org/2000/svg"
   xmlns="http://www.w3.org/2000/svg"
   version="1.1"
   id="svg4134"
   viewBox="0 0 22 22"
   height="22"
   width="22">
  <defs
     id="defs4136" />
  <metadata
     id="metadata4139">
    <rdf:RDF>
      <cc:Work
         rdf:about="">
        <dc:format>image/svg+xml</dc:format>
        <dc:type
           rdf:resource="http://purl.org/dc/dcmitype/StillImage" />
        <dc:title />
      </cc:Work>
    </rdf:RDF>
  </metadata>
  <g
     transform="translate(0,-1030.3622)"
     id="layer1">
    <path
       id="path14"
       d="m 17.576926,1036.144 c -0.120677,-0.6358 -0.521222,-0.9512 -0.876835,-1.0779 -1.501147,-0.6011 -2.80215,-0.6581 -4.448367,-0.7047 -0.07061,-0.4458 -0.396694,-0.5899 -0.757442,-0.7302 -0.967985,-0.3738 -2.4674635,-0.2806 -2.8487521,-0.1788 -0.3055444,0.082 -0.6470352,0.2471 -0.8319025,0.5041 -0.1258123,0.1751 -0.2105431,0.3925 -0.2105431,0.7029 0,0.1751 0.00514,0.5874 0.00899,0.9512 0.00514,0.3639 0.01027,0.4944 0.01027,0.4944 0,0.3241 -0.276017,0.257 -0.616224,0.257 l -1.5700874,0 c -1.4933162,0 -1.5005055,1.6615 -1.399342,2.7655 0.055203,0.4123 0.526358,3.3131 0.9731204,4.196 0.1758806,0.3391 0.2914226,0.4856 0.6316296,0.6358 0.757442,0.3105 2.4931396,0.6545 3.3045012,0.7563 0.8075102,0.097 1.3197459,0.3055 1.6201559,-0.3005 0,0 0.06034,-0.1503 0.145069,-0.3738 0.261895,-0.7612 0.296558,-1.4355 0.296558,-1.926 0,-0.053 0.0796,-0.053 0.0796,0 0,0.3452 -0.06933,1.5671 0.89866,1.8974 0.381289,0.1304 1.173394,0.2422 1.975769,0.3341 0.72663,0.078 1.252988,0.3539 1.252988,2.1396 0,1.0866 -0.234935,1.2319 -1.484072,1.2319 -1.007783,0 -1.394207,0.024 -1.394207,-0.7426 0,-0.6209 0.6419,-0.5526 1.11819,-0.5526 0.210543,0 0.0552,-0.1503 0.0552,-0.534 0,-0.3825 0.250341,-0.601 0.01541,-0.606 -1.644548,-0.043 -2.612533,-0.01 -2.612533,1.9645 0,1.7857 0.71636,2.1148 3.049025,2.1148 1.829415,0 2.47645,-0.058 3.228757,-2.2986 0.151488,-0.442 0.512236,-1.7956 0.733049,-4.0606 0.139935,-1.4356 -0.130947,-5.7632 -0.346626,-6.8585 z m -3.188959,4.7872 c -0.225949,-0.01 -0.441627,0 -0.647035,0.034 0.06034,-0.4359 0.250341,-0.9798 0.923052,-0.955 0.747172,0.024 0.852443,0.6979 0.852443,1.1549 -0.315814,-0.1366 -0.702238,-0.2185 -1.12846,-0.2334 z"
       style="fill:#000000;fill-opacity:1;opacity:0.5" />
  </g>
</svg>
