<?xml version="1.0" encoding="UTF-8" standalone="no"?>
<svg
   xmlns:dc="http://purl.org/dc/elements/1.1/"
   xmlns:cc="http://creativecommons.org/ns#"
   xmlns:rdf="http://www.w3.org/1999/02/22-rdf-syntax-ns#"
   xmlns:svg="http://www.w3.org/2000/svg"
   xmlns="http://www.w3.org/2000/svg"
   id="svg2"
   viewBox="0 0 22 22"
   version="1.1"
   width="22"
   height="22">
  <metadata
     id="metadata14">
    <rdf:RDF>
      <cc:Work
         rdf:about="">
        <dc:format>image/svg+xml</dc:format>
        <dc:type
           rdf:resource="http://purl.org/dc/dcmitype/StillImage" />
        <dc:title />
      </cc:Work>
    </rdf:RDF>
  </metadata>
  <defs
     id="defs12" />
  <path
     style="fill:#000000;fill-opacity:1;fill-rule:evenodd;opacity:0.5"
     d="m 11,3 c -2,0 -5,9 -5,16 2,-3 5,-6 6,-6 1,0 2.111328,2 4.111328,5 C 15.999718,12 13,3 11,3 Z M 7.4941406,6.140625 A 6,6 0 0 0 5,11 6,6 0 0 0 5.5078125,13.398438 C 5.8284125,11.517437 6.279275,9.6880125 6.796875,8.0703125 7.017375,7.3811125 7.2521406,6.741125 7.4941406,6.140625 Z m 7.0429684,0.021484 c 0.232,0.5609 0.459829,1.1379312 0.673829,1.7695312 0.548999,1.6244 1.026187,3.4427188 1.367187,5.2617188 A 6,6 0 0 0 17,11 6,6 0 0 0 14.537109,6.1621094 Z M 12,14 c -0.055,0 -0.03256,0.006 0.02344,0.04102 C 12.087438,14.012016 12.104,14 12,14 Z m 0.02344,0.04102 c -0.089,0.041 -0.289625,0.121156 -0.515626,0.285156 -0.387999,0.281 -0.889781,0.719859 -1.425781,1.255859 -0.3289998,0.329 -0.6706247,0.701797 -1.0156248,1.091797 A 6,6 0 0 0 11,17 6,6 0 0 0 13.792969,16.306641 c -0.336,-0.507 -0.649063,-0.977032 -0.914063,-1.332032 -0.304,-0.407 -0.566187,-0.701562 -0.742187,-0.851562 -0.061,-0.051 -0.08328,-0.06403 -0.113281,-0.08203 z"
     id="path6" />
</svg>
