<?xml version="1.0" encoding="UTF-8" standalone="no"?>
<svg
   xmlns:dc="http://purl.org/dc/elements/1.1/"
   xmlns:cc="http://creativecommons.org/ns#"
   xmlns:rdf="http://www.w3.org/1999/02/22-rdf-syntax-ns#"
   xmlns:svg="http://www.w3.org/2000/svg"
   xmlns="http://www.w3.org/2000/svg"
   width="22"
   viewBox="0 0 22 22"
   height="22"
   version="1.1"
   id="svg6530">
  <defs
     id="defs10" />
  <metadata
     id="metadata6535">
    <rdf:RDF>
      <cc:Work
         rdf:about="">
        <dc:format>image/svg+xml</dc:format>
        <dc:type
           rdf:resource="http://purl.org/dc/dcmitype/StillImage" />
        <dc:title />
      </cc:Work>
    </rdf:RDF>
  </metadata>
  <g
     style="fill:#ffffff"
     transform="translate(-81,-649.36)"
     id="layer1">
    <path
       d="m 85.091,657.45 0,5.818 2.909,0 4,4.091 0,-14 -4,4.091 z"
       id="path6042" />
    <path
       style="opacity:0.35"
       d="m 94,653.36 0,1.5 c 2.32,0.74 4,2.93 4,5.5 0,2.57 -1.68,4.76 -4,5.5 l 0,1.5 c 3.15,-0.78 5.5,-3.6 5.5,-7 0,-3.4 -2.35,-6.22 -5.5,-7 z"
       id="path6044" />
    <path
       style="opacity:0.35"
       d="m 95.79,660.36 c 0,-1.3 -0.72,-2.42 -1.79,-3 l 0,6 c 1.06,-0.58 1.79,-1.7 1.79,-3 z"
       id="path6046" />
  </g>
</svg>
