<?xml version="1.0" encoding="UTF-8" standalone="no"?>
<svg
   xmlns:dc="http://purl.org/dc/elements/1.1/"
   xmlns:cc="http://creativecommons.org/ns#"
   xmlns:rdf="http://www.w3.org/1999/02/22-rdf-syntax-ns#"
   xmlns:svg="http://www.w3.org/2000/svg"
   xmlns="http://www.w3.org/2000/svg"
   width="22"
   viewBox="0 0 22 22"
   height="22"
   version="1.1"
   id="svg6530">
  <defs
     id="defs9" />
  <metadata
     id="metadata6535">
    <rdf:RDF>
      <cc:Work
         rdf:about="">
        <dc:format>image/svg+xml</dc:format>
        <dc:type
           rdf:resource="http://purl.org/dc/dcmitype/StillImage" />
        <dc:title />
      </cc:Work>
    </rdf:RDF>
  </metadata>
  <g
     style="fill:#e74c3c"
     transform="translate(-128.99998,-673.36)"
     id="layer1">
    <path
       style="opacity:0.35"
       class="error"
       d="m 142,677.36 0,1 3,0 c 0,0 -3e-5,0.446 -3e-5,1 l 0,11 c 0,0.554 -0.446,1 -1,1 l -8,0 c -0.554,0 -1,-0.446 -1,-1 l 0,-11 c 0,-0.554 3e-5,-1 3e-5,-1 l 3,0 0,-1 z"
       id="path6709" />
    <path
       class="error"
       d="m 145,688.36 0,2 c 0,0.554 -0.446,1 -1,1 l -8,0 c -0.554,0 -1,-0.446 -1,-1 l 0,-2 z"
       id="path6711" />
  </g>
</svg>
