<?xml version="1.0" encoding="UTF-8" standalone="no"?>
<!-- Created with Inkscape (http://www.inkscape.org/) -->

<svg
   xmlns:dc="http://purl.org/dc/elements/1.1/"
   xmlns:cc="http://creativecommons.org/ns#"
   xmlns:rdf="http://www.w3.org/1999/02/22-rdf-syntax-ns#"
   xmlns:svg="http://www.w3.org/2000/svg"
   xmlns="http://www.w3.org/2000/svg"
   xmlns:sodipodi="http://sodipodi.sourceforge.net/DTD/sodipodi-0.dtd"
   xmlns:inkscape="http://www.inkscape.org/namespaces/inkscape"
   width="22"
   height="22"
   viewBox="0 0 22 22"
   id="svg4157"
   version="1.1"
   inkscape:version="0.91 r13725"
   sodipodi:docname="akregator.svg">
  <defs
     id="defs4159" />
  <sodipodi:namedview
     id="base"
     pagecolor="#d19eff"
     bordercolor="#000000"
     borderopacity="1"
     inkscape:pageopacity="0"
     inkscape:pageshadow="2"
     inkscape:zoom="5.7195172"
     inkscape:cx="-84.757592"
     inkscape:cy="8.2262931"
     inkscape:document-units="px"
     inkscape:current-layer="layer1"
     showgrid="true"
     units="px"
     inkscape:window-width="1600"
     inkscape:window-height="849"
     inkscape:window-x="0"
     inkscape:window-y="0"
     inkscape:window-maximized="1">
    <inkscape:grid
       type="xygrid"
       id="grid4705" />
  </sodipodi:namedview>
  <metadata
     id="metadata4162">
    <rdf:RDF>
      <cc:Work
         rdf:about="">
        <dc:format>image/svg+xml</dc:format>
        <dc:type
           rdf:resource="http://purl.org/dc/dcmitype/StillImage" />
        <dc:title />
      </cc:Work>
    </rdf:RDF>
  </metadata>
  <g
     inkscape:label="Layer 1"
     inkscape:groupmode="layer"
     id="layer1"
     transform="translate(0,-1030.3622)">
    <g
       inkscape:label="#akregator"
       id="akregator"
       transform="translate(0,1028.3622)">
      <rect
         style="fill:#ffffff;fill-opacity:0;stroke:none"
         id="rect4153"
         width="22"
         height="22"
         x="0"
         y="2" />
      <path
         inkscape:connector-curvature="0"
         id="path4155"
         style="color:#7b7c7e;opacity:1;fill:#e74c3c;fill-opacity:1;fill-rule:nonzero;stroke:none"
         d="M 5.3896175,16.2186 C 4.0700125,16.2186 3,17.29 3,18.610301 3,19.9279 4.0700125,21 5.3896175,21 c 1.319586,0 2.389598,-1.0721 2.389598,-2.389699 0,-1.320301 -1.070012,-2.391701 -2.389598,-2.391701 z M 3,9.9848001 3,12.48 c 4.7055745,0 8.5197,3.8141 8.5197,8.52 l 2.492562,0 C 14.012262,14.917901 9.0818743,9.9848001 3,9.9848001 Z M 3,5 3,7.4920001 C 10.458804,7.4920001 16.507437,13.5389 16.507437,21 L 19,21 C 19,12.1619 11.835755,5 3,5"
         class="ColorScheme-Text" />
    </g>
  </g>
</svg>
