<?xml version="1.0" encoding="UTF-8" standalone="no"?>
<svg
   xmlns:osb="http://www.openswatchbook.org/uri/2009/osb"
   xmlns:dc="http://purl.org/dc/elements/1.1/"
   xmlns:cc="http://creativecommons.org/ns#"
   xmlns:rdf="http://www.w3.org/1999/02/22-rdf-syntax-ns#"
   xmlns:svg="http://www.w3.org/2000/svg"
   xmlns="http://www.w3.org/2000/svg"
   width="22"
   version="1.1"
   style="enable-background:new"
   id="svg7384"
   height="22">
  <metadata
     id="metadata90">
    <rdf:RDF>
      <cc:Work
         rdf:about="">
        <dc:format>image/svg+xml</dc:format>
        <dc:type
           rdf:resource="http://purl.org/dc/dcmitype/StillImage" />
        <dc:title>Paper Symbolic Icon Theme</dc:title>
      </cc:Work>
    </rdf:RDF>
  </metadata>
  <title
     id="title8473">Paper Symbolic Icon Theme</title>
  <defs
     id="defs7386">
    <linearGradient
       osb:paint="solid"
       id="linearGradient5606">
      <stop
         style="stop-color:#ffffff;stop-opacity:1;"
         offset="0"
         id="stop5608" />
    </linearGradient>
    <filter
       style="color-interpolation-filters:sRGB"
       id="filter7554">
      <feBlend
         mode="darken"
         in2="BackgroundImage"
         id="feBlend7556" />
    </filter>
  </defs>
  <g
     transform="translate(-265.0002,419)"
     style="display:inline"
     id="layer9">
    <path
       id="path4152"
       d="m 280.0002,-408 c 0,-1.73333 -0.16571,-3.22666 -2,-4 l 0,8 c 1.81714,-0.77334 2,-2.26667 2,-4 z"
       style="opacity:0.72;fill:#ffffff;fill-opacity:1;stroke:none" />
    <path
       id="path4150"
       d="m 268.0002,-411 0,6 3,0 5,5 0,-16 -5,5 z"
       style="opacity:0.72;fill:#ffffff;fill-opacity:1;stroke:none" />
    <path
       id="path5075"
       d="m 278.0002,-416 0,2 c 2.65143,0.84571 4,3.06286 4,6 0,2.93714 -1.34857,5.15429 -4,6 l 0,2 c 3.6,-0.89143 6.4673,-4.11429 6.4673,-8 0,-3.88571 -2.8673,-7.10857 -6.4673,-8 z"
       style="opacity:0.72;fill:#ffffff;fill-opacity:1;stroke:none" />
  </g>
  <g
     transform="translate(-265.0002,419)"
     style="display:inline;filter:url(#filter7554)"
     id="layer10" />
  <g
     transform="translate(-24,-198)"
     style="display:inline"
     id="layer1" />
  <g
     transform="translate(-265.0002,419)"
     style="display:inline"
     id="layer14" />
  <g
     transform="translate(-265.0002,419)"
     style="display:inline"
     id="layer15" />
  <g
     transform="translate(-265.0002,419)"
     style="display:inline"
     id="g71291" />
  <g
     transform="translate(-24,-48)"
     style="display:inline"
     id="layer2" />
  <g
     transform="translate(-24,-48)"
     style="display:inline"
     id="g6058" />
  <g
     transform="translate(-265.0002,419)"
     style="display:inline"
     id="layer12" />
</svg>
