<?xml version="1.0" encoding="UTF-8" standalone="no"?>
<svg
   xmlns:osb="http://www.openswatchbook.org/uri/2009/osb"
   xmlns:dc="http://purl.org/dc/elements/1.1/"
   xmlns:cc="http://creativecommons.org/ns#"
   xmlns:rdf="http://www.w3.org/1999/02/22-rdf-syntax-ns#"
   xmlns:svg="http://www.w3.org/2000/svg"
   xmlns="http://www.w3.org/2000/svg"
   width="22"
   version="1.1"
   style="enable-background:new"
   id="svg7384"
   height="22">
  <metadata
     id="metadata90">
    <rdf:RDF>
      <cc:Work
         rdf:about="">
        <dc:format>image/svg+xml</dc:format>
        <dc:type
           rdf:resource="http://purl.org/dc/dcmitype/StillImage" />
        <dc:title>Paper Symbolic Icon Theme</dc:title>
      </cc:Work>
    </rdf:RDF>
  </metadata>
  <title
     id="title8473">Paper Symbolic Icon Theme</title>
  <defs
     id="defs7386">
    <linearGradient
       osb:paint="solid"
       id="linearGradient5606">
      <stop
         style="stop-color:#ffffff;stop-opacity:1;"
         offset="0"
         id="stop5608" />
    </linearGradient>
    <filter
       style="color-interpolation-filters:sRGB"
       id="filter7554">
      <feBlend
         mode="darken"
         in2="BackgroundImage"
         id="feBlend7556" />
    </filter>
  </defs>
  <g
     transform="translate(-305.00041,105.00336)"
     style="display:inline"
     id="layer9" />
  <g
     transform="translate(-305.00041,105.00336)"
     style="display:inline;filter:url(#filter7554)"
     id="layer10">
    <path
       style="display:inline;opacity:0.72;fill:#ffffff;fill-opacity:1;stroke:none;enable-background:new"
       d="m 312.00041,-102.00336 c -1,0 -1,1 -1,1 l 0,14 c 0,0 0,1 1,1 l 8,0 c 1,0 1,-1 1,-1 l 0,-14 c 0,0 0,-1 -1,-1 l -8,0 z m 7,3 0,9 -6,0 0,-8.998047 6,-0.002 z m -3,10 a 1,1 0 0 1 1,1 1,1 0 0 1 -1,1 1,1 0 0 1 -1,-1 1,1 0 0 1 1,-1 z"
       id="path6665" />
  </g>
  <g
     transform="translate(-64.000214,-511.99664)"
     style="display:inline"
     id="layer1" />
  <g
     transform="translate(-305.00041,105.00336)"
     style="display:inline"
     id="layer14" />
  <g
     transform="translate(-305.00041,105.00336)"
     style="display:inline"
     id="layer15" />
  <g
     transform="translate(-305.00041,105.00336)"
     style="display:inline"
     id="g71291" />
  <g
     transform="translate(-64.000214,-361.99664)"
     style="display:inline"
     id="layer2" />
  <g
     transform="translate(-64.000214,-361.99664)"
     style="display:inline"
     id="g6058" />
  <g
     transform="translate(-305.00041,105.00336)"
     style="display:inline"
     id="layer12" />
</svg>
