<?xml version="1.0" encoding="UTF-8" standalone="no"?>
<svg
   xmlns:dc="http://purl.org/dc/elements/1.1/"
   xmlns:cc="http://creativecommons.org/ns#"
   xmlns:rdf="http://www.w3.org/1999/02/22-rdf-syntax-ns#"
   xmlns:svg="http://www.w3.org/2000/svg"
   xmlns="http://www.w3.org/2000/svg"
   version="1.1"
   id="svg2"
   viewBox="0 0 22 176">
  <metadata
     id="metadata26">
    <rdf:RDF>
      <cc:Work
         rdf:about="">
        <dc:format>image/svg+xml</dc:format>
        <dc:type
           rdf:resource="http://purl.org/dc/dcmitype/StillImage" />
        <dc:title />
      </cc:Work>
    </rdf:RDF>
  </metadata>
  <defs
     id="defs3051">
    <style
       id="current-color-scheme"
       type="text/css">
      .ColorScheme-Text {
        color:#4d4d4d;
      }
      </style>
  </defs>
  <g
     id="g6"
     transform="translate(-421.71426,-523.79071)">
    <path
       id="path8"
       class="ColorScheme-Text"
       d="m 432.71429,526.615 a 8.0000019,8.0000153 0 0 0 -7.40234,5 l 1.08789,0 a 7,7 0 0 1 6.31445,-4 7,7 0 0 1 6.31055,4 l 1.08789,0 a 8.0000019,8.0000153 0 0 0 -7.39844,-5 z m -7.73047,10 a 8.0000019,8.0000153 0 0 0 7.73047,6 8.0000019,8.0000153 0 0 0 7.73047,-6 l -1.03906,0 a 7,7 0 0 1 -6.69141,5 7,7 0 0 1 -6.69531,-5 l -1.03516,0 z"
       style="opacity:0.72;fill:#ffffff;fill-opacity:1;stroke:none" />
    <path
       id="path10"
       class="ColorScheme-Text"
       d="m 438.36998,551.16488 a 8.0000019,8.0000153 45 0 1 1.69872,8.76978 l -0.76926,-0.76926 a 7,7 0 0 0 -1.63656,-7.29342 7,7 0 0 0 -7.29066,-1.6338 l -0.76926,-0.76926 a 8.0000019,8.0000153 45 0 1 8.76702,1.69596 z m -1.6048,12.53733 a 8.0000019,8.0000153 45 0 1 -9.7089,-1.22363 8.0000019,8.0000153 45 0 1 -1.22363,-9.7089 l 0.73473,0.73473 a 7,7 0 0 0 1.196,8.26707 7,7 0 0 0 8.26984,1.19876 l 0.73196,0.73197 z"
       style="opacity:0.72;fill:#ffffff;fill-opacity:1;stroke:none" />
    <path
       id="path12"
       class="ColorScheme-Text"
       d="m 440.71429,578.74287 a 8.0000153,8.0000019 0 0 0 -5,-7.40235 l 0,1.08789 a 7,7 0 0 1 4,6.31446 7,7 0 0 1 -4,6.31054 l 0,1.08789 a 8.0000153,8.0000019 0 0 0 5,-7.39843 z m -10,-7.73047 a 8.0000153,8.0000019 0 0 0 -6,7.73047 8.0000153,8.0000019 0 0 0 6,7.73047 l 0,-1.03907 a 7,7 0 0 1 -5,-6.6914 7,7 0 0 1 5,-6.69532 l 0,-1.03515 z"
       style="opacity:0.72;fill:#ffffff;fill-opacity:1;stroke:none" />
    <path
       id="path14"
       style="opacity:0.72;fill:#ffffff;fill-opacity:1;stroke:none"
       class="ColorScheme-Text"
       d="m 427.05744,595.0497 a 8.0000153,8.0000019 45 0 0 -1.69872,8.76978 l 0.76926,-0.76926 a 7,7 0 0 1 1.63656,-7.29342 7,7 0 0 1 7.29066,-1.6338 l 0.76926,-0.76926 a 8.0000153,8.0000019 45 0 0 -8.76702,1.69596 z m 1.6048,12.53733 a 8.0000153,8.0000019 45 0 0 9.7089,-1.22363 8.0000153,8.0000019 45 0 0 1.22363,-9.7089 l -0.73473,0.73473 a 7,7 0 0 1 -1.196,8.26707 7,7 0 0 1 -8.26984,1.19876 l -0.73196,0.73197 z" />
    <path
       id="path16"
       class="ColorScheme-Text"
       d="m 432.71429,614.76033 a 8.0000019,8.0000153 0 0 0 -7.40234,5 l 1.08789,0 a 7,7 0 0 1 6.31445,-4 7,7 0 0 1 6.31055,4 l 1.08789,0 a 8.0000019,8.0000153 0 0 0 -7.39844,-5 z m -7.73047,10 a 8.0000019,8.0000153 0 0 0 7.73047,6 8.0000019,8.0000153 0 0 0 7.73047,-6 l -1.03906,0 a 7,7 0 0 1 -6.69141,5 7,7 0 0 1 -6.69531,-5 l -1.03516,0 z"
       style="opacity:0.72;fill:#ffffff;fill-opacity:1;stroke:none" />
    <path
       id="path18"
       class="ColorScheme-Text"
       d="m 438.36998,639.02297 a 8.0000019,8.0000153 45 0 1 1.69872,8.76978 l -0.76926,-0.76926 a 7,7 0 0 0 -1.63656,-7.29342 7,7 0 0 0 -7.29066,-1.6338 l -0.76926,-0.76926 a 8.0000019,8.0000153 45 0 1 8.76702,1.69596 z m -1.6048,12.53733 a 8.0000019,8.0000153 45 0 1 -9.7089,-1.22363 8.0000019,8.0000153 45 0 1 -1.22363,-9.7089 l 0.73473,0.73473 a 7,7 0 0 0 1.196,8.26707 7,7 0 0 0 8.26984,1.19876 l 0.73196,0.73197 z"
       style="opacity:0.72;fill:#ffffff;fill-opacity:1;stroke:none" />
    <path
       id="path20"
       class="ColorScheme-Text"
       d="m 440.71429,666.64509 a 8.0000153,8.0000019 0 0 0 -5,-7.40235 l 0,1.08789 a 7,7 0 0 1 4,6.31446 7,7 0 0 1 -4,6.31054 l 0,1.08789 a 8.0000153,8.0000019 0 0 0 5,-7.39843 z m -10,-7.73047 a 8.0000153,8.0000019 0 0 0 -6,7.73047 8.0000153,8.0000019 0 0 0 6,7.73047 l 0,-1.03907 a 7,7 0 0 1 -5,-6.6914 7,7 0 0 1 5,-6.69532 l 0,-1.03515 z"
       style="opacity:0.72;fill:#ffffff;fill-opacity:1;stroke:none" />
    <path
       id="path22"
       class="ColorScheme-Text"
       d="m 427.05744,683.17293 a 8.0000153,8.0000019 45 0 0 -1.69872,8.76978 l 0.76926,-0.76926 a 7,7 0 0 1 1.63656,-7.29342 7,7 0 0 1 7.29066,-1.6338 l 0.76926,-0.76926 a 8.0000153,8.0000019 45 0 0 -8.76702,1.69596 z m 1.6048,12.53733 a 8.0000153,8.0000019 45 0 0 9.7089,-1.22363 8.0000153,8.0000019 45 0 0 1.22363,-9.7089 l -0.73473,0.73473 a 7,7 0 0 1 -1.196,8.26707 7,7 0 0 1 -8.26984,1.19876 l -0.73196,0.73197 z"
       style="opacity:0.72;fill:#ffffff;fill-opacity:1;stroke:none" />
  </g>
</svg>
