<?xml version="1.0" encoding="UTF-8" standalone="no"?>
<svg
   xmlns:dc="http://purl.org/dc/elements/1.1/"
   xmlns:cc="http://creativecommons.org/ns#"
   xmlns:rdf="http://www.w3.org/1999/02/22-rdf-syntax-ns#"
   xmlns:svg="http://www.w3.org/2000/svg"
   xmlns="http://www.w3.org/2000/svg"
   xmlns:sodipodi="http://sodipodi.sourceforge.net/DTD/sodipodi-0.dtd"
   xmlns:inkscape="http://www.inkscape.org/namespaces/inkscape"
   height="48"
   width="48"
   version="1"
   id="svg22"
   sodipodi:docname="eq2.svg"
   inkscape:version="0.92.1 r15371">
  <metadata
     id="metadata28">
    <rdf:RDF>
      <cc:Work
         rdf:about="">
        <dc:format>image/svg+xml</dc:format>
        <dc:type
           rdf:resource="http://purl.org/dc/dcmitype/StillImage" />
        <dc:title />
      </cc:Work>
    </rdf:RDF>
  </metadata>
  <defs
     id="defs26" />
  <sodipodi:namedview
     pagecolor="#ffffff"
     bordercolor="#666666"
     borderopacity="1"
     objecttolerance="10"
     gridtolerance="10"
     guidetolerance="10"
     inkscape:pageopacity="0"
     inkscape:pageshadow="2"
     inkscape:window-width="1600"
     inkscape:window-height="822"
     id="namedview24"
     showgrid="false"
     inkscape:zoom="12.14"
     inkscape:cx="7.8550247"
     inkscape:cy="30.589786"
     inkscape:window-x="0"
     inkscape:window-y="0"
     inkscape:window-maximized="1"
     inkscape:current-layer="svg22" />
  <rect
     transform="matrix(0,-1,-1,0,0,0)"
     rx="2"
     ry="2"
     height="40"
     width="40"
     y="-44"
     x="-44"
     fill="#e94a63"
     id="rect2"
     style="fill:#3f3f3f;fill-opacity:1" />
  <path
     id="path4524"
     d="M 12,20.899506 12,35 c 0,1.108 0.892,2 2,2 1.108,0 2,-0.892 2,-2 V 20.899506 Z m 10,7.495881 V 35 c 0,1.108 0.892,2 2,2 1.108,0 2,-0.892 2,-2 V 28.724876 Z M 32,21.558484 V 35 c 0,1.108 0.892,2 2,2 1.108,0 2,-0.892 2,-2 V 21.723229 Z"
     style="opacity:1;fill:#007dba;fill-opacity:1"
     inkscape:connector-curvature="0"
     sodipodi:nodetypes="cssscccssscccssscc" />
  <path
     opacity=".2"
     fill="#fff"
     d="m6 4c-1.108 0-2 0.892-2 2v1c0-1.108 0.892-2 2-2h36c1.108 0 2 0.892 2 2v-1c0-1.108-0.892-2-2-2h-36z"
     id="path4"
     style="opacity:0.1" />
  <path
     opacity=".2"
     d="m6 45c-1.108 0-2-0.892-2-2v-1c0 1.108 0.892 2 2 2h36c1.108 0 2-0.892 2-2v1c0 1.108-0.892 2-2 2h-36z"
     id="path6" />
  <path
     d="M 14 13 C 12.892 13 12 13.892 12 15 L 12 20.900391 L 16 20.900391 L 16 15 C 16 13.892 15.108 13 14 13 z M 24 13 C 22.892 13 22 13.892 22 15 L 22 28.394531 L 26 28.724609 L 26 15 C 26 13.892 25.108 13 24 13 z M 34 13 C 32.892 13 32 13.892 32 15 L 32 21.558594 L 36 21.722656 L 36 15 C 36 13.892 35.108 13 34 13 z "
     id="path8"
     style="opacity:0.3;fill:#000000;fill-opacity:1" />
  <path
     opacity=".2"
     d="m18 22a4 4 0 0 1 -4 4 4 4 0 0 1 -4 -4 4 4 0 0 1 4 -4 4 4 0 0 1 4 4z"
     id="path10" />
  <path
     d="m18 21a4 4 0 0 1 -4 4 4 4 0 0 1 -4 -4 4 4 0 0 1 4 -4 4 4 0 0 1 4 4z"
     fill="#fff"
     id="path12"
     style="fill:#4f4f4f;fill-opacity:1" />
  <path
     opacity=".2"
     d="m28 30a4 4 0 0 1 -4 4 4 4 0 0 1 -4 -4 4 4 0 0 1 4 -4 4 4 0 0 1 4 4z"
     id="path14" />
  <path
     fill="#fff"
     d="m28 29a4 4 0 0 1 -4 4 4 4 0 0 1 -4 -4 4 4 0 0 1 4 -4 4 4 0 0 1 4 4z"
     id="path16"
     style="fill:#4f4f4f;fill-opacity:1" />
  <path
     opacity=".2"
     d="m38 23a4 4 0 0 1 -4 4 4 4 0 0 1 -4 -4 4 4 0 0 1 4 -4 4 4 0 0 1 4 4z"
     id="path18" />
  <path
     fill="#fff"
     d="m38 22a4 4 0 0 1 -4 4 4 4 0 0 1 -4 -4 4 4 0 0 1 4 -4 4 4 0 0 1 4 4z"
     id="path20"
     style="fill:#4f4f4f;fill-opacity:1" />
</svg>
