<?xml version="1.0" encoding="UTF-8" standalone="no"?>
<svg
   xmlns:dc="http://purl.org/dc/elements/1.1/"
   xmlns:cc="http://creativecommons.org/ns#"
   xmlns:rdf="http://www.w3.org/1999/02/22-rdf-syntax-ns#"
   xmlns:svg="http://www.w3.org/2000/svg"
   xmlns="http://www.w3.org/2000/svg"
   xmlns:sodipodi="http://sodipodi.sourceforge.net/DTD/sodipodi-0.dtd"
   xmlns:inkscape="http://www.inkscape.org/namespaces/inkscape"
   height="48"
   width="48"
   version="1"
   id="svg2"
   inkscape:version="0.91 r13725"
   sodipodi:docname="google-gboard.svg">
  <metadata
     id="metadata64">
    <rdf:RDF>
      <cc:Work
         rdf:about="">
        <dc:format>image/svg+xml</dc:format>
        <dc:type
           rdf:resource="http://purl.org/dc/dcmitype/StillImage" />
      </cc:Work>
    </rdf:RDF>
  </metadata>
  <defs
     id="defs62" />
  <sodipodi:namedview
     pagecolor="#ffffff"
     bordercolor="#666666"
     borderopacity="1"
     objecttolerance="10"
     gridtolerance="10"
     guidetolerance="10"
     inkscape:pageopacity="0"
     inkscape:pageshadow="2"
     inkscape:window-width="1920"
     inkscape:window-height="1018"
     id="namedview60"
     showgrid="false"
     inkscape:zoom="13.01"
     inkscape:cx="7.8970023"
     inkscape:cy="24"
     inkscape:window-x="0"
     inkscape:window-y="32"
     inkscape:window-maximized="1"
     inkscape:current-layer="svg2" />
  <rect
     ry="2"
     rx="2"
     transform="matrix(0,-1,-1,0,0,0)"
     height="36"
     width="24"
     y="-42"
     x="-41"
     fill="#5f7c8a"
     id="rect4"
     style="fill:#4f4f4f;fill-opacity:1" />
  <path
     opacity=".2"
     d="m8 17c-1.108 0-2 0.892-2 2v1c0-1.108 0.892-2 2-2h32c1.108 0 2 0.892 2 2v-1c0-1.108-0.892-2-2-2h-32z"
     fill="#fff"
     id="path6"
     style="opacity:0.1" />
  <path
     opacity=".2"
     d="m6 39v1c0 1.108 0.892 2 2 2h32c1.108 0 2-0.892 2-2v-1c0 1.108-0.892 2-2 2h-32c-1.108 0-2-0.892-2-2z"
     id="path8" />
  <path
     opacity=".2"
     d="m34 24a2 2 0 0 1 -2 2 2 2 0 0 1 -2 -2 2 2 0 0 1 2 -2 2 2 0 0 1 2 2z"
     id="path10" />
  <path
     fill="#fff"
     d="m34 23a2 2 0 0 1 -2 2 2 2 0 0 1 -2 -2 2 2 0 0 1 2 -2 2 2 0 0 1 2 2z"
     id="path12" />
  <path
     opacity=".2"
     d="m18 24a2 2 0 0 1 -2 2 2 2 0 0 1 -2 -2 2 2 0 0 1 2 -2 2 2 0 0 1 2 2z"
     id="path14" />
  <path
     fill="#fff"
     d="m18 23a2 2 0 0 1 -2 2 2 2 0 0 1 -2 -2 2 2 0 0 1 2 -2 2 2 0 0 1 2 2z"
     id="path16" />
  <path
     opacity=".2"
     d="m17 7h14c1.108 0 2 0.892 2 2v14c0 3-7 5-9 7-2-2-9-4-9-7v-14c0-1.108 0.892-2 2-2z"
     id="path18" />
  <path
     fill="#10c36e"
     d="m17 6h14c1.108 0 2 0.892 2 2v14c0 3-7 5-9 7-2-2-9-4-9-7v-14c0-1.108 0.892-2 2-2z"
     id="path20"
     style="fill:#4788f4;fill-opacity:1" />
  <path
     opacity=".2"
     d="m12 24a2 2 0 0 1 -2 2 2 2 0 0 1 -2 -2 2 2 0 0 1 2 -2 2 2 0 0 1 2 2z"
     id="path30" />
  <path
     fill="#fff"
     d="m12 23a2 2 0 0 1 -2 2 2 2 0 0 1 -2 -2 2 2 0 0 1 2 -2 2 2 0 0 1 2 2z"
     id="path32" />
  <path
     opacity=".2"
     d="m40 24a2 2 0 0 1 -2 2 2 2 0 0 1 -2 -2 2 2 0 0 1 2 -2 2 2 0 0 1 2 2z"
     id="path34" />
  <path
     fill="#fff"
     d="m40 23a2 2 0 0 1 -2 2 2 2 0 0 1 -2 -2 2 2 0 0 1 2 -2 2 2 0 0 1 2 2z"
     id="path36" />
  <path
     opacity=".2"
     d="m14 32a2 2 0 0 1 -2 2 2 2 0 0 1 -2 -2 2 2 0 0 1 2 -2 2 2 0 0 1 2 2z"
     id="path38" />
  <path
     fill="#fff"
     d="m14 31a2 2 0 0 1 -2 2 2 2 0 0 1 -2 -2 2 2 0 0 1 2 -2 2 2 0 0 1 2 2z"
     id="path40" />
  <path
     opacity=".2"
     d="m20 32a2 2 0 0 1 -2 2 2 2 0 0 1 -2 -2 2 2 0 0 1 2 -2 2 2 0 0 1 2 2z"
     id="path42" />
  <path
     fill="#fff"
     d="m20 31a2 2 0 0 1 -2 2 2 2 0 0 1 -2 -2 2 2 0 0 1 2 -2 2 2 0 0 1 2 2z"
     id="path44" />
  <path
     opacity=".2"
     d="m26 32a2 2 0 0 1 -2 2 2 2 0 0 1 -2 -2 2 2 0 0 1 2 -2 2 2 0 0 1 2 2z"
     id="path46" />
  <path
     fill="#fff"
     d="m26 31a2 2 0 0 1 -2 2 2 2 0 0 1 -2 -2 2 2 0 0 1 2 -2 2 2 0 0 1 2 2z"
     id="path48" />
  <path
     opacity=".2"
     d="m32 32a2 2 0 0 1 -2 2 2 2 0 0 1 -2 -2 2 2 0 0 1 2 -2 2 2 0 0 1 2 2z"
     id="path50" />
  <path
     fill="#fff"
     d="m32 31a2 2 0 0 1 -2 2 2 2 0 0 1 -2 -2 2 2 0 0 1 2 -2 2 2 0 0 1 2 2z"
     id="path52" />
  <path
     opacity=".2"
     d="m38 32a2 2 0 0 1 -2 2 2 2 0 0 1 -2 -2 2 2 0 0 1 2 -2 2 2 0 0 1 2 2z"
     id="path54" />
  <path
     fill="#fff"
     d="m38 31a2 2 0 0 1 -2 2 2 2 0 0 1 -2 -2 2 2 0 0 1 2 -2 2 2 0 0 1 2 2z"
     id="path56" />
  <rect
     style="opacity:0.2;fill:#000000;fill-opacity:1"
     id="rect4192"
     x="9"
     y="36"
     width="30"
     height="4"
     ry="1"
     rx="1" />
  <rect
     opacity=".2"
     rx="1"
     ry="1"
     height="4"
     width="30"
     y="35"
     x="9"
     id="rect58"
     style="opacity:1;fill:#e4e4e4;fill-opacity:1" />
  <path
     style="fill:#ffffff;fill-opacity:1"
     d="m 24.148438,9 c -2.744898,0 -5.190131,1.580859 -6.378906,3.880859 l 1.414062,0.955079 -1.417968,-0.955079 C 17.280931,13.820859 17,14.88 17,16 c 0,1.16 0.29524,2.250937 0.810547,3.210938 L 20.28125,17.472656 A 4,4 0 0 1 20,16 4,4 0 0 1 20.267579,14.570312 4,4 0 0 1 24,12 4,4 0 0 1 26.75,13.101562 L 28.841797,10.875 C 27.627511,9.715 25.985172,9 24.148438,9 Z M 24,14 l 0,3 3.865235,0 c -0.04238,0.169994 -0.09588,0.337021 -0.160156,0.5 -0.07325,0.179187 -0.159417,0.352821 -0.257813,0.519531 -0.0022,0.0038 -0.0037,0.008 -0.0059,0.01172 l -0.01172,0.01563 c -0.09687,0.16309 -0.205214,0.319082 -0.324219,0.466797 -0.122277,0.151432 -0.255442,0.293737 -0.398437,0.425781 -0.0014,0.0013 -0.0025,0.0027 -0.0039,0.0039 l -0.0078,0.0059 c -0.135147,0.123743 -0.278874,0.237732 -0.429687,0.341797 -0.0027,0.0019 -0.0051,0.004 -0.0078,0.0059 A 4,4 0 0 1 24,20 4,4 0 0 1 20.283204,17.474609 l -2.466797,1.736329 C 19.02049,21.460938 21.439254,23 24.148438,23 25.944356,23 27.550583,22.325937 28.759766,21.210938 30.142445,19.930899 31,18.065 31,16 30.98784,15.346181 30.880702,14.668558 30.800782,14 L 29.984376,14 24,14 Z"
     id="path12-3"
     inkscape:connector-curvature="0" />
</svg>
