<?xml version="1.0" encoding="UTF-8" standalone="no"?>
<svg
   xmlns:dc="http://purl.org/dc/elements/1.1/"
   xmlns:cc="http://creativecommons.org/ns#"
   xmlns:rdf="http://www.w3.org/1999/02/22-rdf-syntax-ns#"
   xmlns:svg="http://www.w3.org/2000/svg"
   xmlns="http://www.w3.org/2000/svg"
   xmlns:sodipodi="http://sodipodi.sourceforge.net/DTD/sodipodi-0.dtd"
   xmlns:inkscape="http://www.inkscape.org/namespaces/inkscape"
   width="48"
   height="48"
   version="1.1"
   viewBox="0 0 48 48"
   id="svg2"
   inkscape:version="0.92.2 5c3e80d, 2017-08-06"
   sodipodi:docname="google-adwords-express.svg">
  <metadata
     id="metadata20">
    <rdf:RDF>
      <cc:Work
         rdf:about="">
        <dc:format>image/svg+xml</dc:format>
        <dc:type
           rdf:resource="http://purl.org/dc/dcmitype/StillImage" />
        <dc:title></dc:title>
      </cc:Work>
    </rdf:RDF>
  </metadata>
  <defs
     id="defs18" />
  <sodipodi:namedview
     pagecolor="#ffffff"
     bordercolor="#666666"
     borderopacity="1"
     objecttolerance="10"
     gridtolerance="10"
     guidetolerance="10"
     inkscape:pageopacity="0"
     inkscape:pageshadow="2"
     inkscape:window-width="1854"
     inkscape:window-height="1016"
     id="namedview16"
     showgrid="false"
     inkscape:zoom="9.86"
     inkscape:cx="1.8284164"
     inkscape:cy="24"
     inkscape:window-x="66"
     inkscape:window-y="30"
     inkscape:window-maximized="1"
     inkscape:current-layer="svg2" />
  <path
     sodipodi:nodetypes="ccccccccc"
     inkscape:connector-curvature="0"
     style="opacity:0.2;fill:#000000;fill-opacity:1"
     d="m 43.590343,42 c 1.040675,-5.08e-4 1.722424,-1.213582 1.268294,-2.256746 L 30.928835,8.8852102 C 30.692854,8.3434521 30.199688,7.9996182 29.659164,8.0000002 H 18.408989 c -1.039718,0.00106 -1.720991,1.2124596 -1.268293,2.2552118 l 13.42932,30.859579 C 30.80578,41.656051 31.298284,41.999794 31.83831,42 Z"
     id="path4181" />
  <path
     id="path4165"
     d="m 43.590343,41 c 1.040675,-5.08e-4 1.722424,-1.213582 1.268294,-2.256746 L 30.928835,7.8852102 C 30.692854,7.3434521 30.199688,6.9996182 29.659164,7.0000002 H 18.408989 c -1.039718,0.00106 -1.720991,1.2124596 -1.268293,2.255212 L 30.570016,40.114791 C 30.80578,40.656051 31.298284,40.999794 31.83831,41 Z"
     style="fill:#2370d4;fill-opacity:1"
     inkscape:connector-curvature="0"
     sodipodi:nodetypes="ccccccccc" />
  <path
     inkscape:connector-curvature="0"
     style="opacity:0.1;fill:#ffffff;fill-opacity:1"
     d="M 18.408203,7 C 17.434525,7.0009927 16.788107,8.0633143 17.080078,9.0546875 17.268292,8.459879 17.769248,8.0006514 18.408203,8 h 11.25 c 0.540524,-3.82e-4 1.035504,0.3430075 1.271485,0.8847656 L 44.859375,39.744141 c 0.02884,0.06626 0.04067,0.133896 0.06055,0.201171 0.118031,-0.373441 0.114521,-0.799029 -0.06055,-1.201171 L 30.929688,7.8847656 C 30.693707,7.3430075 30.198727,6.999618 29.658203,7 Z"
     id="path4185" />
  <path
     id="path4183"
     d="M 4.4096569,42 A 1.4102748,1.5711343 0 0 1 3.1413626,39.743254 L 16.570684,8.8852102 a 1.4102748,1.5711343 0 0 1 1.269671,-0.88521 h 11.750656 a 1.4102748,1.5711343 0 0 1 1.268293,2.2552118 L 17.429984,41.114791 A 1.4102748,1.5711343 0 0 1 16.16169,42 Z"
     style="opacity:0.2;fill:#000000;fill-opacity:1"
     inkscape:connector-curvature="0" />
  <path
     inkscape:connector-curvature="0"
     style="fill:#4c8cf6;fill-opacity:1"
     d="M 4.4096569,41 A 1.4102748,1.5711343 0 0 1 3.1413626,38.743254 L 16.570684,7.8852102 a 1.4102748,1.5711343 0 0 1 1.269671,-0.88521 h 11.750656 a 1.4102748,1.5711343 0 0 1 1.268293,2.255212 L 17.429984,40.114791 A 1.4102748,1.5711343 0 0 1 16.16169,41 Z"
     id="path12" />
  <path
     inkscape:connector-curvature="0"
     style="opacity:0.2;fill:#ffffff;fill-opacity:1"
     d="M 17.8125,7 A 1.4102748,1.5711343 0 0 0 16.570312,7.8847656 L 3.140625,38.744141 a 1.4102748,1.5711343 0 0 0 -0.066406,1.18164 1.4102748,1.5711343 0 0 1 0.066406,-0.18164 L 16.570312,8.8847656 A 1.4102748,1.5711343 0 0 1 17.839844,8 H 29.591797 A 1.4102748,1.5711343 0 0 1 30.925781,9.0742188 1.4102748,1.5711343 0 0 0 29.591797,7 H 17.839844 A 1.4102748,1.5711343 0 0 0 17.8125,7 Z"
     id="path4187" />
</svg>
