<?xml version="1.0" encoding="UTF-8" standalone="no"?>
<svg
   xmlns:dc="http://purl.org/dc/elements/1.1/"
   xmlns:cc="http://creativecommons.org/ns#"
   xmlns:rdf="http://www.w3.org/1999/02/22-rdf-syntax-ns#"
   xmlns:svg="http://www.w3.org/2000/svg"
   xmlns="http://www.w3.org/2000/svg"
   xmlns:sodipodi="http://sodipodi.sourceforge.net/DTD/sodipodi-0.dtd"
   xmlns:inkscape="http://www.inkscape.org/namespaces/inkscape"
   width="48"
   height="48"
   version="1.1"
   viewBox="0 0 48 48"
   id="svg2"
   inkscape:version="0.91 r13725"
   sodipodi:docname="android-pay.svg">
  <metadata
     id="metadata24">
    <rdf:RDF>
      <cc:Work
         rdf:about="">
        <dc:format>image/svg+xml</dc:format>
        <dc:type
           rdf:resource="http://purl.org/dc/dcmitype/StillImage" />
        <dc:title></dc:title>
      </cc:Work>
    </rdf:RDF>
  </metadata>
  <defs
     id="defs22" />
  <sodipodi:namedview
     pagecolor="#ffffff"
     bordercolor="#666666"
     borderopacity="1"
     objecttolerance="10"
     gridtolerance="10"
     guidetolerance="10"
     inkscape:pageopacity="0"
     inkscape:pageshadow="2"
     inkscape:window-width="1920"
     inkscape:window-height="1018"
     id="namedview20"
     showgrid="true"
     inkscape:zoom="14.94"
     inkscape:cx="24"
     inkscape:cy="22.759534"
     inkscape:window-x="0"
     inkscape:window-y="32"
     inkscape:window-maximized="1"
     inkscape:current-layer="svg2">
    <inkscape:grid
       type="xygrid"
       id="grid4170" />
  </sodipodi:namedview>
  <circle
     style="opacity:0.2"
     cx="24"
     cy="25"
     r="20"
     id="circle4" />
  <circle
     style="fill:#d2d2d2"
     cx="24"
     cy="24"
     r="20"
     id="circle6" />
  <path
     id="path4212"
     d="m 15.014084,34.985971 c 0,0 3.999751,0.464471 3.999751,-1.999871 0,-2.464346 -3.999751,-1.999876 -3.999751,-1.999876 m 9.8e-5,7.999597 0,-7.999498"
     style="opacity:0.1;fill:none;stroke:#000000;stroke-width:1.999874;stroke-linecap:round;stroke-linejoin:bevel;stroke-opacity:1"
     inkscape:connector-curvature="0" />
  <path
     style="opacity:0.2;fill:#ffffff"
     d="M 24,4 A 20,20 0 0 0 4,24 20,20 0 0 0 4.0215,24.582 20,20 0 0 1 24,5 20,20 0 0 1 43.979,24.418 20,20 0 0 0 44,24 20,20 0 0 0 24,4 Z"
     id="path10" />
  <g
     id="g4204"
     style="opacity:0.1;fill:#000000;fill-opacity:1"
     transform="translate(8,2.9997)">
    <path
       style="fill:#000000;fill-opacity:1"
       id="path4206"
       d="M 9.0841,12.539"
       inkscape:connector-curvature="0" />
    <path
       style="fill:#000000;fill-opacity:1"
       id="path4208"
       d="M 17.461,10.779"
       inkscape:connector-curvature="0" />
    <path
       inkscape:connector-curvature="0"
       d="m 20.865234,14.902344 -0.865234,0.5 1.197266,2.074218 C 19.009266,18.533662 19,21 19,21 l 5,0 5,0 c 0,0 -0.0093,-2.466338 -2.197266,-3.523438 L 28,15.402344 l -0.865234,-0.5 -1.294922,2.242187 C 25.524329,17.073976 24.639712,17.033121 24,17.015625 c -0.639712,0.0175 -1.524329,0.05835 -1.839844,0.128906 L 20.865234,14.902344 Z M 21.501953,19 C 21.778953,19 22,19.223047 22,19.498047 22,19.773047 21.775953,20 21.501953,20 21.224953,20 21,19.776047 21,19.498047 21,19.223047 21.224953,19 21.501953,19 Z m 4.996094,0 C 26.775047,19 27,19.223047 27,19.498047 27,19.776047 26.775047,20 26.498047,20 26.224047,20 26,19.773047 26,19.498047 26,19.223047 26.221047,19 26.498047,19 Z m -9.453125,2.998047 0,0.002 C 16.469622,21.999953 16,22.530594 16,23.183594 L 16,27.8125 C 16,28.4655 16.469622,29 17.044922,29 17.620222,29 18,28.4655 18,27.8125 l 0,-4.628906 c 0,-0.654 -0.379078,-1.185547 -0.955078,-1.185547 z m 13.910156,0 C 30.379078,21.998047 30,22.529594 30,23.183594 L 30,27.8125 C 30,28.4655 30.379778,29 30.955078,29 31.530378,29 32,28.4655 32,27.8125 l 0,-4.628906 C 32,22.530594 31.530378,21.999906 30.955078,22 l 0,-0.002 z M 19,22 l 0,8.5 c -7e-6,0.23573 0.26427,0.5 0.5,0.5 l 1.5,0 0,1.875 c 0,0.622 0.396,1.125 1,1.125 0.60019,0 1.0199,-0.50369 1,-1.125 L 23,31 l 1,0 1,0 0,1.875 C 24.9801,33.49631 25.39981,34 26,34 c 0.604,0 1,-0.503 1,-1.125 L 27,31 l 1.5,0 c 0.23573,0 0.500007,-0.26427 0.5,-0.5 l 0,-8.5 -5,0 -5,0 z"
       style="fill:#000000;fill-opacity:1"
       transform="translate(-8,-8.9997)"
       id="path4210" />
  </g>
  <g
     transform="translate(8,1.9997008)"
     style="fill:#4d992c;fill-opacity:1"
     id="g22">
    <path
       inkscape:connector-curvature="0"
       d="M 9.0841,12.539"
       id="path24"
       style="fill:#4d992c;fill-opacity:1" />
    <path
       inkscape:connector-curvature="0"
       d="M 17.461,10.779"
       id="path26"
       style="fill:#4d992c;fill-opacity:1" />
    <path
       id="path28"
       transform="translate(-8,-8.9997)"
       style="fill:#4d992c;fill-opacity:1"
       d="m 20.865234,14.902344 -0.865234,0.5 1.197266,2.074218 C 19.009266,18.533662 19,21 19,21 l 5,0 5,0 c 0,0 -0.0093,-2.466338 -2.197266,-3.523438 L 28,15.402344 l -0.865234,-0.5 -1.294922,2.242187 C 25.524329,17.073976 24.639712,17.033121 24,17.015625 c -0.639712,0.0175 -1.524329,0.05835 -1.839844,0.128906 L 20.865234,14.902344 Z M 21.501953,19 C 21.778953,19 22,19.223047 22,19.498047 22,19.773047 21.775953,20 21.501953,20 21.224953,20 21,19.776047 21,19.498047 21,19.223047 21.224953,19 21.501953,19 Z m 4.996094,0 C 26.775047,19 27,19.223047 27,19.498047 27,19.776047 26.775047,20 26.498047,20 26.224047,20 26,19.773047 26,19.498047 26,19.223047 26.221047,19 26.498047,19 Z m -9.453125,2.998047 0,0.002 C 16.469622,21.999953 16,22.530594 16,23.183594 L 16,27.8125 C 16,28.4655 16.469622,29 17.044922,29 17.620222,29 18,28.4655 18,27.8125 l 0,-4.628906 c 0,-0.654 -0.379078,-1.185547 -0.955078,-1.185547 z m 13.910156,0 C 30.379078,21.998047 30,22.529594 30,23.183594 L 30,27.8125 C 30,28.4655 30.379778,29 30.955078,29 31.530378,29 32,28.4655 32,27.8125 l 0,-4.628906 C 32,22.530594 31.530378,21.999906 30.955078,22 l 0,-0.002 z M 19,22 l 0,8.5 c -7e-6,0.23573 0.26427,0.5 0.5,0.5 l 1.5,0 0,1.875 c 0,0.622 0.396,1.125 1,1.125 0.60019,0 1.0199,-0.50369 1,-1.125 L 23,31 l 1,0 1,0 0,1.875 C 24.9801,33.49631 25.39981,34 26,34 c 0.604,0 1,-0.503 1,-1.125 L 27,31 l 1.5,0 c 0.23573,0 0.500007,-0.26427 0.5,-0.5 l 0,-8.5 -5,0 -5,0 z"
       inkscape:connector-curvature="0" />
  </g>
  <path
     inkscape:connector-curvature="0"
     style="fill:none;stroke:#4f4f4f;stroke-width:1.999874;stroke-linecap:round;stroke-linejoin:bevel;stroke-opacity:1"
     d="m 15.014084,33.985971 c 0,0 3.999751,0.464471 3.999751,-1.999871 0,-2.464346 -3.999751,-1.999876 -3.999751,-1.999876 m 9.8e-5,7.999597 0,-7.999498"
     id="path32" />
  <path
     id="path4214"
     d="m 22.014179,35.98601 3.999748,0 m -3.999648,2.999811 0,-5.999623 m 3.999648,5.999623 0,-5.999623 m -3.999748,0 c 0,0 0,-1.999875 1.999874,-1.999875 1.999874,0 1.999874,1.999875 1.999874,1.999875"
     style="opacity:0.1;fill:none;stroke:#000000;stroke-width:1.999874;stroke-linecap:round;stroke-linejoin:bevel;stroke-opacity:1"
     inkscape:connector-curvature="0" />
  <path
     inkscape:connector-curvature="0"
     style="fill:none;stroke:#4f4f4f;stroke-width:1.999874;stroke-linecap:round;stroke-linejoin:bevel;stroke-opacity:1"
     d="m 22.014179,34.98601 3.999748,0 m -3.999648,2.999811 0,-5.999623 m 3.999648,5.999623 0,-5.999623 m -3.999748,0 c 0,0 0,-1.999875 1.999874,-1.999875 1.999874,0 1.999874,1.999875 1.999874,1.999875"
     id="path12" />
  <path
     id="path4216"
     d="m 31.008333,38.985821 0,-3.999751 m 2.999811,-3.999747 -2.999811,3.999747 m -2.999811,-3.999747 2.999811,3.999747"
     style="opacity:0.1;fill:none;stroke:#000000;stroke-width:1.999874;stroke-linecap:round;stroke-opacity:1"
     inkscape:connector-curvature="0" />
  <path
     inkscape:connector-curvature="0"
     style="fill:none;stroke:#4f4f4f;stroke-width:1.999874;stroke-linecap:round;stroke-opacity:1"
     d="m 31.008333,37.985821 0,-3.999751 m 2.999811,-3.999747 -2.999811,3.999747 m -2.999811,-3.999747 2.999811,3.999747"
     id="path48" />
</svg>
