<?xml version="1.0" encoding="UTF-8" standalone="no"?>
<!-- Created with Inkscape (http://www.inkscape.org/) -->

<svg
   xmlns:dc="http://purl.org/dc/elements/1.1/"
   xmlns:cc="http://creativecommons.org/ns#"
   xmlns:rdf="http://www.w3.org/1999/02/22-rdf-syntax-ns#"
   xmlns:svg="http://www.w3.org/2000/svg"
   xmlns="http://www.w3.org/2000/svg"
   xmlns:sodipodi="http://sodipodi.sourceforge.net/DTD/sodipodi-0.dtd"
   xmlns:inkscape="http://www.inkscape.org/namespaces/inkscape"
   width="48"
   height="48"
   viewBox="0 0 48 48.000001"
   id="svg4288"
   version="1.1"
   inkscape:version="0.91 r13725"
   sodipodi:docname="google-play.svg">
  <defs
     id="defs4290" />
  <sodipodi:namedview
     id="base"
     pagecolor="#ffffff"
     bordercolor="#666666"
     borderopacity="1.0"
     inkscape:pageopacity="0.0"
     inkscape:pageshadow="2"
     inkscape:zoom="9.95"
     inkscape:cx="-4.1972145"
     inkscape:cy="13.646235"
     inkscape:document-units="px"
     inkscape:current-layer="layer1"
     showgrid="false"
     units="px"
     inkscape:window-width="1920"
     inkscape:window-height="1018"
     inkscape:window-x="0"
     inkscape:window-y="32"
     inkscape:window-maximized="1" />
  <metadata
     id="metadata4293">
    <rdf:RDF>
      <cc:Work
         rdf:about="">
        <dc:format>image/svg+xml</dc:format>
        <dc:type
           rdf:resource="http://purl.org/dc/dcmitype/StillImage" />
        <dc:title></dc:title>
      </cc:Work>
    </rdf:RDF>
  </metadata>
  <g
     inkscape:label="Layer 1"
     inkscape:groupmode="layer"
     id="layer1"
     transform="translate(0,-1004.3622)">
    <path
       style="opacity:0.2;fill:#000000;fill-opacity:1"
       d="M 8.9472656,1009.3638 A 2.8798336,2.8317324 0 0 0 7.0625,1010.0025 l -0.00195,0 a 2.8798336,2.8317324 0 0 0 -0.074219,0.066 2.8798336,2.8317324 0 0 0 -0.013672,0.012 A 2.8798336,2.8317324 0 0 0 6,1012.1959 l 0,17.1699 0,17.1699 a 2.8798336,2.8317324 0 0 0 1.0390625,2.168 l -0.00195,0 a 2.8798336,2.8317324 0 0 0 0.029297,0.022 2.8798336,2.8317324 0 0 0 0.1542969,0.1172 l 0.00195,0 a 2.8798336,2.8317324 0 0 0 3.0957026,0.1445 l 15.121094,-8.586 7.943359,-4.5078 -0.002,0 7.181641,-4.0742 a 2.8798336,2.8317324 0 0 0 0,-4.9043 l -7.203125,-4.0879 -0.103516,-0.059 -7.816406,-4.4375 -15.121094,-8.586 a 2.8798336,2.8317324 0 0 0 -1.3710932,-0.3789 z"
       id="path4896"
       inkscape:connector-curvature="0" />
    <path
       inkscape:connector-curvature="0"
       style="fill:#4ac0ed;fill-opacity:1"
       d="m 7.0605866,1008.9998 a 2.8798336,2.8317324 0 0 0 -1.060586,2.1935 l 0,17.17 0,17.1699 a 2.8798336,2.8317324 0 0 0 1.2211095,2.3092 l 19.6661399,-19.3379 0,-0.3187 -19.8266634,-19.186 z"
       id="path28" />
    <path
       inkscape:connector-curvature="0"
       style="fill:#ffd530;fill-opacity:1"
       d="m 33.256064,1021.764 -6.530876,6.4218 0,0.4781 6.451384,6.3436 7.385123,-4.1928 a 2.8798336,2.8317324 0 0 0 0,-4.9029 l -7.305631,-4.1478 z"
       id="path39" />
    <path
       inkscape:connector-curvature="0"
       style="fill:#e54257;fill-opacity:1"
       d="m 26.725188,1028.3452 -19.6881926,19.3593 a 2.8798336,2.8317324 0 0 0 3.2817646,0.2802 l 15.121553,-8.585 7.941743,-4.5088 -6.656868,-6.5457 z"
       id="path46" />
    <path
       inkscape:connector-curvature="0"
       style="fill:#4c9946;fill-opacity:1"
       d="m 8.947896,1008.3629 a 2.8798336,2.8317324 0 0 0 -1.9760333,0.7144 l 19.7533253,19.2679 6.633618,-6.5228 -7.918493,-4.4956 -15.121553,-8.585 a 2.8798336,2.8317324 0 0 0 -1.370864,-0.3789 z"
       id="path59" />
    <path
       inkscape:connector-curvature="0"
       style="opacity:0.2;fill:#ffffff;fill-opacity:1"
       d="M 8.9472656,1008.3642 A 2.8798336,2.8317324 0 0 0 7.0625,1009.0028 l -0.00195,0 a 2.8798336,2.8317324 0 0 0 -0.074222,0.066 2.8798336,2.8317324 0 0 0 -0.013672,0.012 A 2.8798336,2.8317324 0 0 0 6,1011.1962 l 0,1 a 2.8798336,2.8317324 0 0 1 0.9726562,-2.1152 2.8798336,2.8317324 0 0 1 0.013672,-0.012 2.8798336,2.8317324 0 0 1 0.074219,-0.066 l 0.00195,0 a 2.8798336,2.8317324 0 0 1 1.8847687,-0.6386 l 0,0 a 2.8798336,2.8317324 0 0 1 1.3710934,0.3789 l 15.121094,8.5859 7.816406,4.4375 0.103516,0.059 7.203125,4.0879 a 2.8798336,2.8317324 0 0 1 1.390625,1.9512 2.8798336,2.8317324 0 0 0 -1.390625,-2.9512 l -7.203125,-4.0879 -0.103516,-0.058 -7.816406,-4.4375 -15.121094,-8.586 a 2.8798336,2.8317324 0 0 0 -1.3710934,-0.3789 l 0,-0 z"
       id="path4905" />
  </g>
</svg>
