<?xml version="1.0" encoding="UTF-8" standalone="no"?>
<svg
   xmlns:dc="http://purl.org/dc/elements/1.1/"
   xmlns:cc="http://creativecommons.org/ns#"
   xmlns:rdf="http://www.w3.org/1999/02/22-rdf-syntax-ns#"
   xmlns:svg="http://www.w3.org/2000/svg"
   xmlns="http://www.w3.org/2000/svg"
   xmlns:sodipodi="http://sodipodi.sourceforge.net/DTD/sodipodi-0.dtd"
   xmlns:inkscape="http://www.inkscape.org/namespaces/inkscape"
   width="48"
   height="48"
   version="1"
   id="svg2"
   inkscape:version="0.92.2 5c3e80d, 2017-08-06"
   sodipodi:docname="google-expeditions.svg">
  <metadata
     id="metadata18">
    <rdf:RDF>
      <cc:Work
         rdf:about="">
        <dc:format>image/svg+xml</dc:format>
        <dc:type
           rdf:resource="http://purl.org/dc/dcmitype/StillImage" />
        <dc:title></dc:title>
      </cc:Work>
    </rdf:RDF>
  </metadata>
  <defs
     id="defs16" />
  <sodipodi:namedview
     pagecolor="#ffffff"
     bordercolor="#666666"
     borderopacity="1"
     objecttolerance="10"
     gridtolerance="10"
     guidetolerance="10"
     inkscape:pageopacity="0"
     inkscape:pageshadow="2"
     inkscape:window-width="1854"
     inkscape:window-height="1016"
     id="namedview14"
     showgrid="true"
     inkscape:zoom="13.87"
     inkscape:cx="14.353859"
     inkscape:cy="26.277154"
     inkscape:window-x="66"
     inkscape:window-y="30"
     inkscape:window-maximized="1"
     inkscape:current-layer="svg2"
     showguides="false">
    <inkscape:grid
       type="xygrid"
       id="grid4168" />
  </sodipodi:namedview>
  <path
     id="path1263"
     d="M 23.929101,3.0018279 A 1.3536832,1.3055556 0 0 0 22.826936,3.652814 L 21.30582,6.196601 19.780407,8.7425364 a 1.3536832,1.3055556 0 0 0 1.173064,1.9572556 H 24 27.046528 A 1.3536832,1.3055556 0 0 0 28.219593,8.7425364 L 26.696328,6.196601 25.173064,3.652814 A 1.3536832,1.3055556 0 0 0 23.929101,3.0018279 Z M 8.3634443,20.599936 a 1.3055556,1.3536832 0 0 0 -0.6209075,0.180471 l -2.5459354,1.525413 -2.543787,1.521116 a 1.3055556,1.3536832 0 0 0 -0.6509861,1.102165 1.3055556,1.3536832 0 0 0 0.6509861,1.243963 l 2.543787,1.523264 2.5459354,1.523265 A 1.3055556,1.3536832 0 0 0 9.6997919,28.046528 V 25 21.953471 A 1.3055556,1.3536832 0 0 0 8.3634443,20.599936 Z m 31.2731117,0 a 1.3055556,1.3536832 0 0 0 -1.336348,1.353535 V 25 28.046528 a 1.3055556,1.3536832 0 0 0 1.957255,1.173065 l 2.545935,-1.523265 2.543787,-1.523264 a 1.3055556,1.3536832 0 0 0 0.650987,-1.243963 1.3055556,1.3536832 0 0 0 -0.650987,-1.102165 L 42.803398,22.30582 40.257463,20.780407 A 1.3055556,1.3536832 0 0 0 39.636556,20.599936 Z M 20.953471,39.300208 a 1.3536832,1.3055556 0 0 0 -1.173064,1.957255 l 1.525413,2.545935 1.521116,2.543787 a 1.3536832,1.3055556 0 0 0 1.102165,0.650987 1.3536832,1.3055556 0 0 0 1.243963,-0.650987 l 1.523264,-2.543787 1.523265,-2.545935 A 1.3536832,1.3055556 0 0 0 27.046528,39.300208 H 24 Z"
     style="color:#000000;font-style:normal;font-variant:normal;font-weight:normal;font-stretch:normal;font-size:medium;line-height:normal;font-family:sans-serif;font-variant-ligatures:normal;font-variant-position:normal;font-variant-caps:normal;font-variant-numeric:normal;font-variant-alternates:normal;font-feature-settings:normal;text-indent:0;text-align:start;text-decoration:none;text-decoration-line:none;text-decoration-style:solid;text-decoration-color:#000000;letter-spacing:normal;word-spacing:normal;text-transform:none;writing-mode:lr-tb;direction:ltr;text-orientation:mixed;dominant-baseline:auto;baseline-shift:baseline;text-anchor:start;white-space:normal;shape-padding:0;clip-rule:nonzero;display:inline;overflow:visible;visibility:visible;opacity:0.2;isolation:auto;mix-blend-mode:normal;color-interpolation:sRGB;color-interpolation-filters:linearRGB;solid-color:#000000;solid-opacity:1;vector-effect:none;fill:#000000;fill-opacity:1;fill-rule:nonzero;stroke:none;stroke-width:2.65853763;stroke-linecap:round;stroke-linejoin:round;stroke-miterlimit:4;stroke-dasharray:none;stroke-dashoffset:0;stroke-opacity:1;color-rendering:auto;image-rendering:auto;shape-rendering:auto;text-rendering:auto;enable-background:accumulate"
     inkscape:connector-curvature="0" />
  <path
     inkscape:connector-curvature="0"
     style="color:#000000;font-style:normal;font-variant:normal;font-weight:normal;font-stretch:normal;font-size:medium;line-height:normal;font-family:sans-serif;font-variant-ligatures:normal;font-variant-position:normal;font-variant-caps:normal;font-variant-numeric:normal;font-variant-alternates:normal;font-feature-settings:normal;text-indent:0;text-align:start;text-decoration:none;text-decoration-line:none;text-decoration-style:solid;text-decoration-color:#000000;letter-spacing:normal;word-spacing:normal;text-transform:none;writing-mode:lr-tb;direction:ltr;text-orientation:mixed;dominant-baseline:auto;baseline-shift:baseline;text-anchor:start;white-space:normal;shape-padding:0;clip-rule:nonzero;display:inline;overflow:visible;visibility:visible;opacity:1;isolation:auto;mix-blend-mode:normal;color-interpolation:sRGB;color-interpolation-filters:linearRGB;solid-color:#000000;solid-opacity:1;vector-effect:none;fill:#c74527;fill-opacity:1;fill-rule:nonzero;stroke:none;stroke-width:2.65853763;stroke-linecap:round;stroke-linejoin:round;stroke-miterlimit:4;stroke-dasharray:none;stroke-dashoffset:0;stroke-opacity:1;color-rendering:auto;image-rendering:auto;shape-rendering:auto;text-rendering:auto;enable-background:accumulate"
     d="m 23.929101,2.0018283 a 1.3536832,1.3055556 0 0 0 -1.102165,0.6509861 l -1.521116,2.543787 -1.525413,2.5459354 a 1.3536832,1.3055556 0 0 0 1.173064,1.9572551 H 24 27.046528 A 1.3536832,1.3055556 0 0 0 28.219593,7.7425368 L 26.696328,5.1966014 25.173064,2.6528144 A 1.3536832,1.3055556 0 0 0 23.929101,2.0018283 Z M 8.3634443,19.599936 a 1.3055556,1.3536832 0 0 0 -0.6209075,0.180471 l -2.5459354,1.525413 -2.543787,1.521116 a 1.3055556,1.3536832 0 0 0 -0.6509861,1.102165 1.3055556,1.3536832 0 0 0 0.6509861,1.243963 l 2.543787,1.523264 2.5459354,1.523265 A 1.3055556,1.3536832 0 0 0 9.6997919,27.046528 V 24 20.953471 A 1.3055556,1.3536832 0 0 0 8.3634443,19.599936 Z m 31.2731117,0 a 1.3055556,1.3536832 0 0 0 -1.336348,1.353535 V 24 27.046528 a 1.3055556,1.3536832 0 0 0 1.957255,1.173065 l 2.545935,-1.523265 2.543787,-1.523264 a 1.3055556,1.3536832 0 0 0 0.650987,-1.243963 1.3055556,1.3536832 0 0 0 -0.650987,-1.102165 L 42.803398,21.30582 40.257463,19.780407 A 1.3055556,1.3536832 0 0 0 39.636556,19.599936 Z M 20.953471,38.300208 a 1.3536832,1.3055556 0 0 0 -1.173064,1.957255 l 1.525413,2.545935 1.521116,2.543787 a 1.3536832,1.3055556 0 0 0 1.102165,0.650987 1.3536832,1.3055556 0 0 0 1.243963,-0.650987 l 1.523264,-2.543787 1.523265,-2.545935 A 1.3536832,1.3055556 0 0 0 27.046528,38.300208 H 24 Z"
     id="path1210" />
  <path
     style="color:#000000;font-style:normal;font-variant:normal;font-weight:normal;font-stretch:normal;font-size:medium;line-height:normal;font-family:sans-serif;font-variant-ligatures:normal;font-variant-position:normal;font-variant-caps:normal;font-variant-numeric:normal;font-variant-alternates:normal;font-feature-settings:normal;text-indent:0;text-align:start;text-decoration:none;text-decoration-line:none;text-decoration-style:solid;text-decoration-color:#000000;letter-spacing:normal;word-spacing:normal;text-transform:none;writing-mode:lr-tb;direction:ltr;text-orientation:mixed;dominant-baseline:auto;baseline-shift:baseline;text-anchor:start;white-space:normal;shape-padding:0;clip-rule:nonzero;display:inline;overflow:visible;visibility:visible;opacity:0.1;isolation:auto;mix-blend-mode:normal;color-interpolation:sRGB;color-interpolation-filters:linearRGB;solid-color:#000000;solid-opacity:1;vector-effect:none;fill:#ffffff;fill-opacity:1;fill-rule:nonzero;stroke:none;stroke-width:2.65853763;stroke-linecap:round;stroke-linejoin:round;stroke-miterlimit:4;stroke-dasharray:none;stroke-dashoffset:0;stroke-opacity:1;color-rendering:auto;image-rendering:auto;shape-rendering:auto;text-rendering:auto;enable-background:accumulate"
     d="M 23.929688 2.0019531 A 1.3536832 1.3055556 0 0 0 22.826172 2.6523438 L 21.306641 5.1972656 L 19.78125 7.7421875 A 1.3536832 1.3055556 0 0 0 19.705078 8.8945312 A 1.3536832 1.3055556 0 0 1 19.78125 8.7421875 L 21.306641 6.1972656 L 22.826172 3.6523438 A 1.3536832 1.3055556 0 0 1 23.929688 3.0019531 A 1.3536832 1.3055556 0 0 1 25.173828 3.6523438 L 26.697266 6.1972656 L 28.21875 8.7421875 A 1.3536832 1.3055556 0 0 1 28.294922 8.8945312 A 1.3536832 1.3055556 0 0 0 28.21875 7.7421875 L 26.697266 5.1972656 L 25.173828 2.6523438 A 1.3536832 1.3055556 0 0 0 23.929688 2.0019531 z M 8.3632812 19.599609 A 1.3055556 1.3536832 0 0 0 7.7421875 19.78125 L 5.1972656 21.306641 L 2.6523438 22.826172 A 1.3055556 1.3536832 0 0 0 2.0019531 23.929688 A 1.3055556 1.3536832 0 0 0 2.09375 24.5 A 1.3055556 1.3536832 0 0 1 2.6523438 23.826172 L 5.1972656 22.306641 L 7.7421875 20.78125 A 1.3055556 1.3536832 0 0 1 8.3632812 20.599609 A 1.3055556 1.3536832 0 0 1 9.6992188 21.953125 L 9.6992188 20.953125 A 1.3055556 1.3536832 0 0 0 8.3632812 19.599609 z M 39.636719 19.599609 A 1.3055556 1.3536832 0 0 0 38.300781 20.953125 L 38.300781 21.953125 A 1.3055556 1.3536832 0 0 1 39.636719 20.599609 A 1.3055556 1.3536832 0 0 1 40.257812 20.78125 L 42.802734 22.306641 L 45.347656 23.826172 A 1.3055556 1.3536832 0 0 1 45.90625 24.5 A 1.3055556 1.3536832 0 0 0 45.998047 23.929688 A 1.3055556 1.3536832 0 0 0 45.347656 22.826172 L 42.802734 21.306641 L 40.257812 19.78125 A 1.3055556 1.3536832 0 0 0 39.636719 19.599609 z M 20.953125 38.300781 A 1.3536832 1.3055556 0 0 0 19.705078 40.105469 A 1.3536832 1.3055556 0 0 1 20.953125 39.300781 L 24 39.300781 L 27.046875 39.300781 A 1.3536832 1.3055556 0 0 1 28.294922 40.105469 A 1.3536832 1.3055556 0 0 0 27.046875 38.300781 L 24 38.300781 L 20.953125 38.300781 z "
     id="path1265" />
  <circle
     r="17"
     cy="25"
     cx="24"
     id="circle1259"
     style="opacity:0.2;fill:#000000;fill-opacity:1;stroke:none;stroke-width:1.45621586;stroke-miterlimit:4;stroke-dasharray:none;stroke-opacity:1" />
  <circle
     style="opacity:1;fill:#ff613d;fill-opacity:1;stroke:none;stroke-width:1.45621586;stroke-miterlimit:4;stroke-dasharray:none;stroke-opacity:1"
     id="path822"
     cx="24"
     cy="24"
     r="17" />
  <circle
     style="opacity:0.2;fill:#000000;fill-opacity:1;stroke:none;stroke-width:1.11357689;stroke-miterlimit:4;stroke-dasharray:none;stroke-opacity:1"
     id="circle1261"
     cx="24"
     cy="25"
     r="13" />
  <circle
     r="13"
     cy="24"
     cx="24"
     id="circle1230"
     style="opacity:1;fill:#ffffff;fill-opacity:1;stroke:none;stroke-width:1.11357689;stroke-miterlimit:4;stroke-dasharray:none;stroke-opacity:1" />
  <rect
     style="opacity:1;fill:#ffa639;fill-opacity:1;stroke:none;stroke-width:5.81344271;stroke-linecap:round;stroke-linejoin:round;stroke-miterlimit:4;stroke-dasharray:none;stroke-opacity:1"
     id="rect1277"
     width="4"
     height="19"
     x="19"
     y="15"
     rx="2"
     ry="2" />
  <path
     style="opacity:0.2;fill:#ffffff;fill-opacity:1;stroke:none;stroke-width:1.45621586;stroke-miterlimit:4;stroke-dasharray:none;stroke-opacity:1"
     d="M 24 7 A 17 17 0 0 0 7 24 A 17 17 0 0 0 7.0214844 24.580078 A 17 17 0 0 1 24 8 A 17 17 0 0 1 40.978516 24.419922 A 17 17 0 0 0 41 24 A 17 17 0 0 0 24 7 z "
     id="circle1267" />
  <path
     sodipodi:nodetypes="ssscssscsscs"
     inkscape:connector-curvature="0"
     id="path1280"
     d="m 21.1325,18 h 9.735 C 32.048905,18 33,18.973213 33,20.182093 L 29,23.5 33,26.817907 C 33.93045,27.589693 32.048905,29 30.8675,29 H 21.1325 19 V 26.817907 20.182093 18 Z"
     style="opacity:0.1;fill:#000000;fill-opacity:1;stroke:none;stroke-width:6.47146225;stroke-linecap:round;stroke-linejoin:round;stroke-miterlimit:4;stroke-dasharray:none;stroke-opacity:1" />
  <path
     style="opacity:1;fill:#ff613d;fill-opacity:1;stroke:none;stroke-width:6.47146225;stroke-linecap:round;stroke-linejoin:round;stroke-miterlimit:4;stroke-dasharray:none;stroke-opacity:1"
     d="m 21.1325,17 h 9.735 C 32.048905,17 33,17.973213 33,19.182093 L 29,22.5 33,25.817907 C 33.93045,26.589693 32.048905,28 30.8675,28 H 21.1325 19 V 25.817907 19.182093 17 Z"
     id="rect1275"
     inkscape:connector-curvature="0"
     sodipodi:nodetypes="ssscssscsscs" />
</svg>
