<?xml version="1.0" encoding="UTF-8" standalone="no"?>
<svg
   xmlns:dc="http://purl.org/dc/elements/1.1/"
   xmlns:cc="http://creativecommons.org/ns#"
   xmlns:rdf="http://www.w3.org/1999/02/22-rdf-syntax-ns#"
   xmlns:svg="http://www.w3.org/2000/svg"
   xmlns="http://www.w3.org/2000/svg"
   xmlns:sodipodi="http://sodipodi.sourceforge.net/DTD/sodipodi-0.dtd"
   xmlns:inkscape="http://www.inkscape.org/namespaces/inkscape"
   xml:space="preserve"
   height="48"
   viewBox="0 0 48 48"
   width="48"
   version="1.1"
   y="0"
   x="0"
   id="svg20"
   sodipodi:docname="google-hangouts-meet.svg"
   inkscape:version="0.92.2 5c3e80d, 2017-08-06"><metadata
     id="metadata26"><rdf:RDF><cc:Work
         rdf:about=""><dc:format>image/svg+xml</dc:format><dc:type
           rdf:resource="http://purl.org/dc/dcmitype/StillImage" /><dc:title></dc:title></cc:Work></rdf:RDF></metadata><defs
     id="defs24" /><sodipodi:namedview
     pagecolor="#ffffff"
     bordercolor="#666666"
     borderopacity="1"
     objecttolerance="10"
     gridtolerance="10"
     guidetolerance="10"
     inkscape:pageopacity="0"
     inkscape:pageshadow="2"
     inkscape:window-width="1854"
     inkscape:window-height="1016"
     id="namedview22"
     showgrid="false"
     showguides="false"
     inkscape:zoom="9.2"
     inkscape:cx="24"
     inkscape:cy="8.6958309"
     inkscape:window-x="66"
     inkscape:window-y="30"
     inkscape:window-maximized="1"
     inkscape:current-layer="svg20" /><path
     inkscape:connector-curvature="0"
     d="M 41.719,18.11 C 41.082,14.8 39.562,11.909 37.159,9.4419 36.145,8.4004 35.009,7.4953 33.755,6.7269 31.419,5.2959 28.875,4.4191 26.116,4.1085 25.779,4.0704 25.438,4.0754 25.106,4 h -2.3808 c -0.02577,0.057165 -0.08096,0.036298 -0.12475,0.040211 -0.61304,0.051513 -1.2231,0.11802 -1.8282,0.22735 -4.421,0.7981 -8.052,2.8671 -10.862,6.2094 -2.3117,2.7485 -3.5848,5.9014 -3.8598,9.4169 -0.13319,1.7039 -0.0041,3.3918 0.38771,5.0574 0.29101,1.2389 0.72571,2.4359 1.31,3.5801 0.05131,0.09737 0.10195,0.19475 0.15417,0.29213 0.95994,1.8014 2.1947,3.4068 3.7421,4.7933 0.81466,0.72988 1.6854,1.3902 2.628,1.9608 2.8882,1.7471 6.041,2.6633 9.4662,2.7041 0.21028,0.0028 0.26752,0.05217 0.26615,0.25692 -0.0096,1.7471 -0.0055,3.4944 -0.005,5.2418 2.28e-4,0.06782 0.0057,0.13541 0.0098,0.21975 0.0593,-0.02304 0.09647,-0.03608 0.13228,-0.05216 3.4431,-1.5417 6.6046,-3.4899 9.4231,-5.9319 0.56082,-0.48579 1.0975,-0.99484 1.6136,-1.525 0.221,-0.2267 0.44017,-0.45732 0.66162,-0.6838 0.3421,-0.34864 0.63813,-0.73814 0.96062,-1.1053 0.37243,-0.42341 0.70678,-0.87355 1.0366,-1.3265 0.72913,-1.0011 1.3803,-2.0455 1.9276,-3.1488 0.27687,-0.55774 0.54052,-1.1198 0.77383,-1.6952 0.0078,-0.01087 0.01825,-0.02043 0.02326,-0.03217 0.63585,-1.5754 1.0434,-3.2056 1.2603,-4.8781 0.07572,-0.58251 0.12475,-1.1687 0.15577,-1.7545 0.06614,-1.2613 -0.01939,-2.5155 -0.25794,-3.7566 z"
     id="path2"
     style="fill:#009b8e;fill-opacity:1" /><path
     style="opacity:0.2;fill:#ffffff"
     inkscape:connector-curvature="0"
     d="m 22.726,4 c -0.02577,0.057165 -0.08121,0.037103 -0.125,0.041016 -0.61304,0.051513 -1.2231,0.11723 -1.8281,0.22656 -4.4215,0.79813 -8.0528,2.8669 -10.863,6.209 -2.3117,2.7485 -3.5843,5.9025 -3.8594,9.418 -0.046925,0.60028 -0.049455,1.1969 -0.03125,1.793 0.00802,-0.26445 0.010516,-0.52773 0.03125,-0.79297 0.27505,-3.5155 1.5477,-6.6695 3.8594,-9.418 2.8105,-3.3421 6.4417,-5.4109 10.863,-6.209 0.60506,-0.10933 1.2151,-0.17505 1.8281,-0.22656 0.04379,-0.00391 0.09923,0.016149 0.125,-0.041016 h 2.3809 c 0.33161,0.075422 0.67337,0.071338 1.0098,0.10938 2.7594,0.3106 5.3028,1.1861 7.6387,2.6172 1.2539,0.76835 2.3903,1.6733 3.4043,2.7148 2.4022,2.4672 3.9236,5.3581 4.5605,8.668 0.15578,0.81046 0.23998,1.6273 0.26562,2.4473 0.03783,-1.1566 -0.04666,-2.3081 -0.26562,-3.4473 -0.638,-3.31 -2.16,-6.2 -4.562,-8.6676 -1.014,-1.0416 -2.15,-1.9465 -3.404,-2.7148 -2.336,-1.4311 -4.879,-2.3066 -7.639,-2.6172 C 25.7788,4.071773 25.43704,4.075857 25.1054,4.00043 h -2.3809 z m 1.2773,35.535 c -0.0041,1.4151 -0.0043,2.829 -0.0039,4.2441 2.6e-5,0.0078 0.0018,0.01756 0.002,0.02539 -0.001,-1.4223 -0.0039,-2.8435 0.0039,-4.2656 1.4e-5,-0.0021 -0.002,-0.0019 -0.002,-0.0039 z"
     id="path16" /><path
     style="opacity:0.2"
     inkscape:connector-curvature="0"
     d="m 41.985,21.557 c -0.0034,0.1035 -0.0024,0.20695 -0.0078,0.31055 -0.03102,0.58577 -0.08053,1.1714 -0.15625,1.7539 -0.21689,1.6726 -0.62392,3.3035 -1.2598,4.8789 -0.005,0.01174 -0.01564,0.02038 -0.02344,0.03125 -0.23331,0.57534 -0.49656,1.1376 -0.77344,1.6953 -0.54736,1.1033 -1.1986,2.1473 -1.9277,3.1484 -0.32978,0.45297 -0.66468,0.90276 -1.0371,1.3262 -0.32249,0.36711 -0.61884,0.75683 -0.96094,1.1055 -0.22145,0.22648 -0.43916,0.45689 -0.66016,0.68359 -0.51612,0.53013 -1.0544,1.0396 -1.6152,1.5254 -2.8185,2.442 -5.9787,4.3899 -9.4219,5.9316 -0.03581,0.01608 -0.07351,0.02969 -0.13281,0.05273 -0.0036,-0.07462 -0.0066,-0.13515 -0.0078,-0.19531 2.31e-4,0.32498 -0.002,0.64963 -0.002,0.97461 2.28e-4,0.06782 0.0057,0.13637 0.0098,0.2207 0.0593,-0.02304 0.097,-0.03665 0.13281,-0.05273 3.4431,-1.5417 6.6034,-3.4896 9.4219,-5.9316 0.56082,-0.48579 1.0991,-0.99526 1.6152,-1.5254 0.221,-0.2267 0.4387,-0.45711 0.66016,-0.68359 0.3421,-0.34864 0.63845,-0.73836 0.96094,-1.1055 0.37243,-0.42341 0.70732,-0.8732 1.0371,-1.3262 0.72913,-1.0011 1.3804,-2.0451 1.9277,-3.1484 0.27687,-0.55774 0.54012,-1.12 0.77344,-1.6953 0.0078,-0.01087 0.01843,-0.01951 0.02344,-0.03125 0.63585,-1.5754 1.0429,-3.2064 1.2598,-4.8789 0.07572,-0.58251 0.12523,-1.1681 0.15625,-1.7539 0.02295,-0.43766 0.02144,-0.87486 0.0078,-1.3105 z M 6.019,21.688 c -0.043501,1.4343 0.087149,2.8574 0.41797,4.2637 0.29101,1.2389 0.72624,2.4359 1.3105,3.5801 0.05131,0.09737 0.10207,0.19559 0.1543,0.29297 0.95994,1.8014 2.1948,3.4065 3.7422,4.793 0.81466,0.72988 1.6863,1.3904 2.6289,1.9609 2.8882,1.7471 6.0397,2.6623 9.4648,2.7031 0.20816,0.0028 0.2658,0.05431 0.26562,0.25391 9.54e-4,-0.33211 1.29e-4,-0.66399 0.002,-0.99609 0.0014,-0.20474 -0.0573,-0.25501 -0.26758,-0.25781 -3.4251,-0.04086 -6.5766,-0.95602 -9.4648,-2.7031 -0.943,-0.571 -1.815,-1.232 -2.629,-1.962 -1.548,-1.386 -2.7827,-2.991 -3.7427,-4.793 -0.0522,-0.097 -0.1029,-0.195 -0.1543,-0.293 -0.5843,-1.144 -1.0195,-2.341 -1.3105,-3.58 -0.2538,-1.079 -0.3845,-2.168 -0.418,-3.263 z"
     id="path18" /><path
     id="path839"
     d="m 17,15 c -1.108,0 -2,0.892 -2,2 v 10 c 0,1.108 0.892,2 2,2 h 12 c 1.108,0 2,-0.892 2,-2 v -3 l 1,1 3,3 v -6 -6 l -3,3 -1,1 v -3 c 0,-1.108 -0.892,-2 -2,-2 z"
     style="opacity:0.2;fill:#000000;fill-opacity:1;fill-rule:evenodd;stroke:none;stroke-width:6;stroke-linecap:round;stroke-linejoin:round;stroke-miterlimit:4;stroke-dasharray:none;stroke-opacity:1"
     inkscape:connector-curvature="0" /><path
     inkscape:connector-curvature="0"
     style="opacity:1;fill:#ffffff;fill-opacity:1;fill-rule:evenodd;stroke:none;stroke-width:6;stroke-linecap:round;stroke-linejoin:round;stroke-miterlimit:4;stroke-dasharray:none;stroke-opacity:1"
     d="m 17,14 c -1.108,0 -2,0.892 -2,2 v 10 c 0,1.108 0.892,2 2,2 h 12 c 1.108,0 2,-0.892 2,-2 v -3 l 1,1 3,3 v -6 -6 l -3,3 -1,1 v -3 c 0,-1.108 -0.892,-2 -2,-2 z"
     id="rect4184" /></svg>