<?xml version="1.0" encoding="UTF-8" standalone="no"?>
<svg
   xmlns:dc="http://purl.org/dc/elements/1.1/"
   xmlns:cc="http://creativecommons.org/ns#"
   xmlns:rdf="http://www.w3.org/1999/02/22-rdf-syntax-ns#"
   xmlns:svg="http://www.w3.org/2000/svg"
   xmlns="http://www.w3.org/2000/svg"
   xmlns:sodipodi="http://sodipodi.sourceforge.net/DTD/sodipodi-0.dtd"
   xmlns:inkscape="http://www.inkscape.org/namespaces/inkscape"
   width="48"
   height="48"
   version="1"
   id="svg12"
   sodipodi:docname="google-daydream.svg"
   inkscape:version="0.92.2 5c3e80d, 2017-08-06">
  <metadata
     id="metadata18">
    <rdf:RDF>
      <cc:Work
         rdf:about="">
        <dc:format>image/svg+xml</dc:format>
        <dc:type
           rdf:resource="http://purl.org/dc/dcmitype/StillImage" />
        <dc:title />
      </cc:Work>
    </rdf:RDF>
  </metadata>
  <defs
     id="defs16" />
  <sodipodi:namedview
     pagecolor="#ffffff"
     bordercolor="#666666"
     borderopacity="1"
     objecttolerance="10"
     gridtolerance="10"
     guidetolerance="10"
     inkscape:pageopacity="0"
     inkscape:pageshadow="2"
     inkscape:window-width="1854"
     inkscape:window-height="1016"
     id="namedview14"
     showgrid="false"
     inkscape:zoom="12.24"
     inkscape:cx="19.09608"
     inkscape:cy="24"
     inkscape:window-x="66"
     inkscape:window-y="30"
     inkscape:window-maximized="1"
     inkscape:current-layer="svg12">
    <inkscape:grid
       type="xygrid"
       id="grid1006" />
  </sodipodi:namedview>
  <circle
     style="opacity:1;fill:#278df2;fill-opacity:1;stroke:none;stroke-width:7.38012362;stroke-linecap:round;stroke-linejoin:round;stroke-miterlimit:4;stroke-dasharray:none;stroke-opacity:1"
     id="path829"
     cx="24"
     cy="24"
     r="16" />
  <path
     style="opacity:0.2;fill:#000000;fill-opacity:1;stroke:none;stroke-width:6.06206274;stroke-linecap:round;stroke-linejoin:round;stroke-miterlimit:4;stroke-dasharray:none;stroke-opacity:1"
     d="M 42.396484 18.650391 A 9 10 60 0 1 37.160156 26.794922 A 9 10 60 0 1 24 24 A 9 10 60 0 1 22.923828 20.355469 A 9 10 60 0 0 24 25 A 9 10 60 0 0 37.160156 27.794922 A 9 10 60 0 0 42.396484 18.650391 z "
     id="ellipse961" />
  <path
     style="opacity:0.2;fill:#000000;fill-opacity:1;stroke:none;stroke-width:6.06206274;stroke-linecap:round;stroke-linejoin:round;stroke-miterlimit:4;stroke-dasharray:none;stroke-opacity:1"
     d="M 24.666016 24.037109 A 10 9 30 0 0 24.283203 24.550781 A 9 10 60 0 1 24.486328 25.027344 A 9 10 0 0 1 32.980469 34.414062 A 9 10 0 0 0 33 34 A 9 10 0 0 0 24.666016 24.037109 z M 22.931641 28.632812 A 10 9 30 0 0 24 33.480469 A 9 10 60 0 0 24.257812 32.923828 A 9 10 60 0 0 25.068359 28.664062 A 9 10 60 0 1 24 32.480469 A 10 9 30 0 1 22.931641 28.632812 z M 42.396484 30.349609 A 10 9 30 0 1 41.320312 34 A 10 9 30 0 1 32.511719 38.1875 A 9 10 0 0 1 32.173828 39.158203 A 10 9 30 0 0 41.320312 35 A 10 9 30 0 0 42.396484 30.349609 z M 32.173828 39.158203 A 10 9 30 0 1 31.53125 39.042969 A 10 9 30 0 0 32.173828 39.158203 z M 31.53125 39.042969 A 10 9 30 0 1 31.076172 38.949219 A 10 9 30 0 0 31.53125 39.042969 z M 31.076172 38.949219 A 10 9 30 0 1 30.552734 38.804688 A 10 9 30 0 0 31.076172 38.949219 z M 30.552734 38.804688 A 10 9 30 0 1 30.125 38.675781 A 10 9 30 0 0 30.552734 38.804688 z M 30.125 38.675781 A 10 9 30 0 1 29.642578 38.494141 A 10 9 30 0 0 30.125 38.675781 z M 29.642578 38.494141 A 10 9 30 0 1 29.171875 38.302734 A 10 9 30 0 0 29.642578 38.494141 z M 29.171875 38.302734 A 10 9 30 0 1 28.742188 38.09375 A 10 9 30 0 0 29.171875 38.302734 z M 28.742188 38.09375 A 10 9 30 0 1 28.160156 37.794922 A 10 9 30 0 0 28.742188 38.09375 z M 24.521484 33.365234 A 10 9 30 0 0 25.011719 34.048828 A 10 9 30 0 1 24.521484 33.365234 z M 24.007812 33.494141 A 10 9 30 0 0 24.453125 34.261719 A 10 9 30 0 1 24.007812 33.494141 z M 25.107422 34.169922 A 10 9 30 0 0 25.609375 34.75 A 10 9 30 0 1 25.107422 34.169922 z M 24.521484 34.365234 A 10 9 30 0 0 25.011719 35.048828 A 10 9 30 0 1 24.521484 34.365234 z M 25.802734 34.955078 A 10 9 30 0 0 26.269531 35.402344 A 10 9 30 0 1 25.802734 34.955078 z M 25.107422 35.169922 A 10 9 30 0 0 25.609375 35.75 A 10 9 30 0 1 25.107422 35.169922 z M 26.5625 35.662109 A 10 9 30 0 0 27.017578 36.023438 A 10 9 30 0 1 26.5625 35.662109 z M 25.802734 35.955078 A 10 9 30 0 0 26.269531 36.402344 A 10 9 30 0 1 25.802734 35.955078 z M 27.355469 36.271484 A 10 9 30 0 0 27.9375 36.65625 A 10 9 30 0 1 27.355469 36.271484 z M 26.5625 36.662109 A 10 9 30 0 0 27.017578 37.023438 A 10 9 30 0 1 26.5625 36.662109 z M 27.355469 37.271484 A 10 9 30 0 0 27.9375 37.65625 A 10 9 30 0 1 27.355469 37.271484 z "
     id="path969" />
  <ellipse
     ry="10"
     rx="9"
     cy="-18.784609"
     cx="32.784611"
     id="ellipse924"
     style="opacity:1;fill:#34e0c4;fill-opacity:1;stroke:none;stroke-width:6.06206274;stroke-linecap:round;stroke-linejoin:round;stroke-miterlimit:4;stroke-dasharray:none;stroke-opacity:1"
     transform="rotate(60)" />
  <ellipse
     ry="10"
     rx="9"
     cy="34"
     cx="24"
     id="ellipse918"
     style="opacity:1;fill:#34e0c4;fill-opacity:1;stroke:none;stroke-width:6.06206274;stroke-linecap:round;stroke-linejoin:round;stroke-miterlimit:4;stroke-dasharray:none;stroke-opacity:1" />
  <path
     style="opacity:0.2;fill:#ffffff;fill-opacity:1;stroke:none;stroke-width:6.06206274;stroke-linecap:round;stroke-linejoin:round;stroke-miterlimit:4;stroke-dasharray:none;stroke-opacity:1"
     d="M 24 24 A 9 10 0 0 0 15 34 A 9 10 0 0 0 15.019531 34.576172 A 9 10 0 0 1 24 25 A 9 10 0 0 1 32.980469 34.423828 A 9 10 0 0 0 33 34 A 9 10 0 0 0 24 24 z "
     id="ellipse1013" />
  <ellipse
     style="opacity:1;fill:#278df2;fill-opacity:1;stroke:none;stroke-width:6.06206274;stroke-linecap:round;stroke-linejoin:round;stroke-miterlimit:4;stroke-dasharray:none;stroke-opacity:1"
     id="ellipse926"
     cx="32.784611"
     cy="1.2153903"
     rx="9"
     ry="10"
     transform="rotate(60)" />
  <path
     style="opacity:0.1;fill:#ffffff;fill-opacity:1;stroke:none;stroke-width:6.06206274;stroke-linecap:round;stroke-linejoin:round;stroke-miterlimit:4;stroke-dasharray:none;stroke-opacity:1"
     d="M 16.515625 19.744141 A 9 10 60 0 0 10.839844 21.205078 A 9 10 60 0 0 5.6035156 30.349609 A 9 10 60 0 1 10.839844 22.205078 A 9 10 60 0 1 24 25 A 9 10 60 0 1 25.076172 28.644531 A 9 10 60 0 0 24 24 A 9 10 60 0 0 16.515625 19.744141 z "
     id="ellipse1015" />
  <ellipse
     style="opacity:1;fill:#34e0c4;fill-opacity:1;stroke:none;stroke-width:6.06206274;stroke-linecap:round;stroke-linejoin:round;stroke-miterlimit:4;stroke-dasharray:none;stroke-opacity:1"
     id="ellipse930"
     cx="8.7846098"
     cy="22.784609"
     rx="9"
     ry="10"
     transform="matrix(-0.5,0.8660254,0.8660254,0.5,0,0)" />
  <path
     style="opacity:0.2;fill:#ffffff;fill-opacity:1;stroke:none;stroke-width:6.06206274;stroke-linecap:round;stroke-linejoin:round;stroke-miterlimit:4;stroke-dasharray:none;stroke-opacity:1"
     d="M 14.164062 9.7441406 A 10 9 30 0 0 6.6796875 14 A 10 9 30 0 0 5.6035156 18.650391 A 10 9 30 0 1 6.6796875 15 A 10 9 30 0 1 19.839844 12.205078 A 10 9 30 0 1 23.732422 16.050781 A 9 10 60 0 1 23.998047 15.523438 A 10 9 30 0 0 19.839844 11.205078 A 10 9 30 0 0 14.164062 9.7441406 z "
     id="ellipse1017" />
  <path
     style="opacity:1;fill:#278df2;fill-opacity:1;stroke:none;stroke-width:6.06206274;stroke-linecap:round;stroke-linejoin:round;stroke-miterlimit:4;stroke-dasharray:none;stroke-opacity:1"
     d="M 31.484375,19.744141 C 28.286165,19.834623 25.48554,21.427149 24,24 c 4.970563,0 9,4.477153 9,10 -0.0035,1.435898 -0.28529,2.854116 -0.826172,4.158203 C 35.984173,38.668909 39.557147,37.044552 41.320312,34 43.806111,29.695266 41.94348,23.966581 37.160156,21.205078 35.414942,20.19784 33.436595,19.688616 31.484375,19.744141 Z m 0.689453,18.414062 z M 24,24 Z"
     id="ellipse932"
     inkscape:connector-curvature="0"
     sodipodi:nodetypes="ccccccccccc" />
  <path
     style="opacity:0.2;fill:#000000;fill-opacity:1;stroke:none;stroke-width:6.06206274;stroke-linecap:round;stroke-linejoin:round;stroke-miterlimit:4;stroke-dasharray:none;stroke-opacity:1"
     d="M 5.6035156 18.650391 A 10 9 30 0 0 10.839844 27.794922 A 10 9 30 0 0 24 25 A 10 9 30 0 0 24.251953 24.498047 C 24.170256 24.331251 24.094081 24.162954 24 24 A 10 9 30 0 1 10.839844 26.794922 A 10 9 30 0 1 5.6035156 18.650391 z "
     id="ellipse967" />
  <path
     style="opacity:0.2;fill:#000000;fill-opacity:1;stroke:none;stroke-width:6.06206274;stroke-linecap:round;stroke-linejoin:round;stroke-miterlimit:4;stroke-dasharray:none;stroke-opacity:1"
     d="M 32.980469 34.423828 A 9 10 0 0 1 24 44 A 9 10 0 0 1 15.832031 38.158203 A 9 10 60 0 1 15.482422 38.197266 A 9 10 0 0 0 24 45 A 9 10 0 0 0 33 35 A 9 10 0 0 0 32.980469 34.423828 z "
     id="ellipse963" />
  <path
     style="opacity:1;fill:#278df2;fill-opacity:1;stroke:none;stroke-width:6.06206274;stroke-linecap:round;stroke-linejoin:round;stroke-miterlimit:4;stroke-dasharray:none;stroke-opacity:1"
     d="M 24 4 A 9 10 0 0 0 15 14 A 9 10 0 0 0 24 24 A 9 10 60 0 1 28.160156 11.205078 A 9 10 60 0 1 32.173828 9.8417969 A 9 10 0 0 0 24 4 z M 24 24 A 9 10 0 0 0 32.554688 17.083984 A 9 10 0 0 1 31.345703 19.753906 A 10 9 30 0 0 24 24 z M 32.554688 17.083984 A 9 10 0 0 0 32.771484 16.201172 A 9 10 0 0 1 32.554688 17.083984 z M 32.279297 10.107422 A 9 10 0 0 1 32.580078 11.019531 A 9 10 0 0 0 32.279297 10.107422 z M 32.59375 11.060547 A 9 10 0 0 1 32.777344 11.851562 A 9 10 0 0 0 32.59375 11.060547 z M 32.828125 12.095703 A 9 10 0 0 1 32.916016 12.734375 A 9 10 0 0 0 32.828125 12.095703 z M 32.958984 13.132812 A 9 10 0 0 1 33 14 A 9 10 0 0 0 32.958984 13.132812 z M 32.980469 14.441406 A 9 10 0 0 1 32.941406 15.097656 A 9 10 0 0 0 32.980469 14.441406 z M 32.910156 15.328125 A 9 10 0 0 1 32.792969 16.103516 A 9 10 0 0 0 32.910156 15.328125 z "
     id="path914" />
  <path
     style="opacity:0.2;fill:#000000;fill-opacity:1;stroke:none;stroke-width:6.06206274;stroke-linecap:round;stroke-linejoin:round;stroke-miterlimit:4;stroke-dasharray:none;stroke-opacity:1"
     d="M 25.076172 28.644531 A 9 10 60 0 1 19.839844 36.794922 A 9 10 60 0 1 6.6796875 34 A 9 10 60 0 1 5.6035156 30.349609 A 9 10 60 0 0 6.6796875 35 A 9 10 60 0 0 19.839844 37.794922 A 9 10 60 0 0 25.076172 28.644531 z "
     id="ellipse965" />
  <path
     style="opacity:0.2;fill:#000000;fill-opacity:1;stroke:none;stroke-width:6.06206274;stroke-linecap:round;stroke-linejoin:round;stroke-miterlimit:4;stroke-dasharray:none;stroke-opacity:1"
     d="M 15.019531 14.423828 C 15.008038 14.615637 15.001525 14.807774 15 15 C 15.002762 20.24529 18.651659 24.57544 23.337891 24.958984 A 10 9 30 0 0 23.857422 24.21875 C 23.926093 24.104194 24 24 24 24 L 23.513672 23.980469 C 18.891714 23.696092 15.217683 19.562492 15.019531 14.423828 z M 24.007812 32.494141 C 24.144427 32.755257 24.293018 33.011384 24.453125 33.261719 C 24.293018 33.011384 24.144426 32.755257 24.007812 32.494141 z M 24.521484 33.365234 C 24.675113 33.598781 24.838675 33.826855 25.011719 34.048828 C 24.838675 33.826855 24.675113 33.598781 24.521484 33.365234 z M 25.107422 34.169922 C 25.267321 34.368715 25.434764 34.56222 25.609375 34.75 C 25.434764 34.56222 25.267321 34.368715 25.107422 34.169922 z M 25.802734 34.955078 C 25.953619 35.108509 26.109301 35.257676 26.269531 35.402344 C 26.109301 35.257676 25.953619 35.108509 25.802734 34.955078 z M 26.5625 35.662109 C 26.710851 35.786416 26.862608 35.90691 27.017578 36.023438 C 26.862608 35.906909 26.710851 35.786416 26.5625 35.662109 z M 27.355469 36.271484 C 27.545301 36.405744 27.739429 36.534078 27.9375 36.65625 C 27.739429 36.534078 27.545301 36.405744 27.355469 36.271484 z "
     id="path971" />
  <path
     style="opacity:0.2;fill:#ffffff;fill-opacity:1;stroke:none;stroke-width:6.06206274;stroke-linecap:round;stroke-linejoin:round;stroke-miterlimit:4;stroke-dasharray:none;stroke-opacity:1"
     d="M 33.835938 9.7441406 A 9 10 60 0 0 28.160156 11.205078 A 9 10 60 0 0 22.923828 20.355469 A 9 10 60 0 1 28.160156 12.205078 A 9 10 60 0 1 41.320312 15 A 9 10 60 0 1 42.396484 18.650391 A 9 10 60 0 0 41.320312 14 A 9 10 60 0 0 33.835938 9.7441406 z "
     id="ellipse1011" />
  <path
     style="opacity:0.1;fill:#ffffff;fill-opacity:1;stroke:none;stroke-width:6.06206274;stroke-linecap:round;stroke-linejoin:round;stroke-miterlimit:4;stroke-dasharray:none;stroke-opacity:1"
     d="m 24,4 c -4.970563,0 -9,4.4771525 -9,10 0.0038,0.141414 0.01032,0.282721 0.01953,0.423828 C 15.294214,9.1355571 19.232637,5.0026955 24,5 c 3.178869,0.005 6.119577,1.8729163 7.736328,4.9140625 0.145541,-0.027162 0.291412,-0.051256 0.4375,-0.072266 C 30.710968,6.2868539 27.518013,4.0048628 24,4 Z m 8.279297,6.107422 c 0.113499,0.298443 0.213878,0.602838 0.300781,0.912109 -0.0869,-0.309271 -0.187282,-0.613666 -0.300781,-0.912109 z m 0.314453,0.953125 c 0.07087,0.260783 0.132118,0.524676 0.183594,0.791015 -0.05148,-0.266339 -0.112725,-0.530232 -0.183594,-0.791015 z m -0.314453,0.04687 c 0.113499,0.298443 0.213878,0.602838 0.300781,0.912109 -0.0869,-0.309271 -0.187282,-0.613666 -0.300781,-0.912109 z m 0.314453,0.953125 c 0.07087,0.260783 0.132118,0.524676 0.183594,0.791015 -0.05148,-0.266339 -0.112725,-0.530232 -0.183594,-0.791015 z m 0.234375,1.035156 c 0.03548,0.211783 0.06479,0.424785 0.08789,0.638672 -0.0231,-0.213887 -0.05241,-0.426889 -0.08789,-0.638672 z m 0.08203,2.232422 c -0.0299,0.260071 -0.06899,0.518734 -0.117187,0.775391 0.0482,-0.256657 0.08729,-0.51532 0.117187,-0.775391 z m 0,1 c -0.0299,0.260071 -0.06899,0.518734 -0.117187,0.775391 0.0482,-0.256657 0.08729,-0.51532 0.117187,-0.775391 z m -1.523437,3.353516 c -0.01553,0.02417 -0.03115,0.04825 -0.04687,0.07227 h 0.0059 c 0.01376,-0.02402 0.02744,-0.0481 0.04102,-0.07227 z m -0.04102,0.07227 -0.0059,0.002 v -0.002 c -0.03259,0.0031 -0.06514,0.0064 -0.09766,0.0098 -0.283427,0.01349 -0.56495,0.0389 -0.84375,0.07617 -0.03586,0.0063 -0.07167,0.01282 -0.107422,0.01953 -0.280153,0.04081 -0.557118,0.09359 -0.830078,0.158203 -0.03392,0.0089 -0.06778,0.01805 -0.101563,0.02734 -0.271601,0.0678 -0.53879,0.147304 -0.800781,0.238281 -0.04182,0.01663 -0.08349,0.03356 -0.125,0.05078 -0.246785,0.08952 -0.488534,0.189217 -0.72461,0.298828 -0.06295,0.03119 -0.125451,0.06309 -0.1875,0.0957 -0.214236,0.104519 -0.423375,0.217233 -0.626953,0.33789 -0.06576,0.04213 -0.130866,0.0851 -0.195312,0.128906 -0.190424,0.120651 -0.375446,0.248341 -0.554688,0.382813 -0.0787,0.06248 -0.156187,0.126292 -0.232422,0.191406 -0.155291,0.124442 -0.305762,0.254069 -0.451171,0.388672 -0.0846,0.08357 -0.167298,0.168877 -0.248047,0.255859 -0.128939,0.129478 -0.253345,0.263003 -0.373047,0.400391 -0.07432,0.09157 -0.1466,0.18469 -0.216797,0.279297 -0.11724,0.146594 -0.229274,0.297058 -0.335938,0.451172 C 24.186416,23.693418 24.090621,23.845201 24,24 c 0.222342,0.0032 0.444499,0.0156 0.666016,0.03711 0.137698,-0.169554 0.282324,-0.333725 0.433593,-0.492187 0.06255,-0.07071 0.126362,-0.140381 0.191407,-0.208984 0.107126,-0.10371 0.217186,-0.204653 0.330078,-0.302735 0.11896,-0.112125 0.241401,-0.220889 0.367187,-0.326172 0.06374,-0.04708 0.128197,-0.0933 0.19336,-0.138672 0.182652,-0.142028 0.37159,-0.27689 0.566406,-0.404297 0.02725,-0.01577 0.05459,-0.03139 0.08203,-0.04687 0.235826,-0.14708 0.479566,-0.283288 0.730469,-0.408204 0.0072,-0.0033 0.01432,-0.0065 0.02148,-0.0098 0.895882,-0.43846 1.873928,-0.729962 2.896485,-0.863281 0.331748,-0.04749 0.667496,-0.07813 1.005859,-0.0918 1.95222,-0.05552 3.930567,0.453699 5.675781,1.460937 3.062982,1.772545 5.054345,4.86989 5.236328,8.144531 0.213468,-3.599394 -1.835143,-7.177012 -5.236328,-9.144531 -1.745214,-1.007238 -3.723561,-1.516462 -5.675781,-1.460937 -0.04628,0.0029 -0.0925,0.0062 -0.138672,0.0098 z M 24,24 c 0.100779,0.181171 0.194585,0.366177 0.28125,0.554688 8.12e-4,-0.0012 0.0011,-0.0027 0.002,-0.0039 C 24.195813,24.363569 24.101356,24.179867 24,24 Z m 0,0 c -16,16 -8,8 0,0 z"
     id="path1019"
     inkscape:connector-curvature="0"
     sodipodi:nodetypes="ccccccccccccccccccccccccccccccccccccccccccccccccccccccccccccccccccccccccccccc" />
</svg>
