<?xml version="1.0" encoding="UTF-8" standalone="no"?>
<svg
   xmlns:dc="http://purl.org/dc/elements/1.1/"
   xmlns:cc="http://creativecommons.org/ns#"
   xmlns:rdf="http://www.w3.org/1999/02/22-rdf-syntax-ns#"
   xmlns:svg="http://www.w3.org/2000/svg"
   xmlns="http://www.w3.org/2000/svg"
   xmlns:sodipodi="http://sodipodi.sourceforge.net/DTD/sodipodi-0.dtd"
   xmlns:inkscape="http://www.inkscape.org/namespaces/inkscape"
   width="48"
   height="48"
   version="1"
   id="svg2"
   inkscape:version="0.91 r13725"
   sodipodi:docname="google-cloudprint.svg">
  <metadata
     id="metadata22">
    <rdf:RDF>
      <cc:Work
         rdf:about="">
        <dc:format>image/svg+xml</dc:format>
        <dc:type
           rdf:resource="http://purl.org/dc/dcmitype/StillImage" />
        <dc:title />
      </cc:Work>
    </rdf:RDF>
  </metadata>
  <defs
     id="defs20" />
  <sodipodi:namedview
     pagecolor="#ffffff"
     bordercolor="#666666"
     borderopacity="1"
     objecttolerance="10"
     gridtolerance="10"
     guidetolerance="10"
     inkscape:pageopacity="0"
     inkscape:pageshadow="2"
     inkscape:window-width="1920"
     inkscape:window-height="1018"
     id="namedview18"
     showgrid="false"
     inkscape:zoom="9.14"
     inkscape:cx="12.67461"
     inkscape:cy="24"
     inkscape:window-x="0"
     inkscape:window-y="32"
     inkscape:window-maximized="1"
     inkscape:current-layer="svg2">
    <inkscape:grid
       type="xygrid"
       id="grid4204" />
  </sodipodi:namedview>
  <path
     style="opacity:0.2"
     inkscape:connector-curvature="0"
     d="M 2.0234,25.568 C 2.0151,25.743 2,25.915 2,26.092 2,32.117 6.9249,37 13,37 l 23.375,0 C 41.691,37 46,32.727 46,27.455 46,27.282 45.986,27.112 45.977,26.941 45.719,31.985 41.525,36 36.375,36 L 13,36 C 7.0871,36 2.277,31.37 2.023,25.568 Z"
     id="path4" />
  <path
     style="fill:#e4e4e4"
     inkscape:connector-curvature="0"
     d="M 24,6 C 18.305,6 13.455,9.458 11.367,14.352 6.0657,15.134 2,19.616 2,25.091 2,31.116 6.9249,36 13,36 l 23.375,0 C 41.691,36 46,31.726 46,26.455 46,21.555 42.285,17.54 37.492,16.994 36.242,10.74 30.674,6 24,6 Z"
     id="path6" />
  <path
     style="opacity:0.2;fill:#ffffff"
     inkscape:connector-curvature="0"
     d="M 24,6 C 18.305,6 13.455,9.457 11.367,14.352 6.0657,15.133 2,19.617 2,25.092 2,25.253 2.0165,25.409 2.0234,25.568 2.2741,20.334 6.2364,16.108 11.367,15.352 13.455,10.457 18.305,7 24,7 c 6.674,0 12.242,4.739 13.492,10.994 4.624,0.526 8.234,4.284 8.485,8.947 C 45.985,26.779 46,26.619 46,26.455 46,21.555 42.285,17.54 37.492,16.994 36.242,10.739 30.674,6 24,6 Z"
     id="path8" />
  <rect
     style="opacity:1;fill:#4f4f4f;fill-opacity:1;fill-rule:evenodd;stroke:none;stroke-width:3;stroke-linecap:round;stroke-linejoin:round;stroke-miterlimit:4;stroke-dasharray:none;stroke-opacity:1"
     id="rect4161"
     width="26"
     height="3"
     x="11"
     y="25"
     ry="1.5"
     rx="1.5" />
  <path
     id="path4182"
     d="m 15,26 0,15 c 0,1.108 0.892,2 2,2 l 14,0 c 1.108,0 2,-0.892 2,-2 l 0,-15 -18,0 z"
     style="opacity:0.2;fill:#000000;fill-opacity:1;fill-rule:evenodd;stroke:none;stroke-width:3;stroke-linecap:round;stroke-linejoin:round;stroke-miterlimit:4;stroke-dasharray:none;stroke-opacity:1"
     inkscape:connector-curvature="0" />
  <path
     inkscape:connector-curvature="0"
     style="opacity:1;fill:#4c7dce;fill-opacity:1;fill-rule:evenodd;stroke:none;stroke-width:3;stroke-linecap:round;stroke-linejoin:round;stroke-miterlimit:4;stroke-dasharray:none;stroke-opacity:1"
     d="m 15,25 0,15 c 0,1.108 0.892,2 2,2 l 14,0 c 1.108,0 2,-0.892 2,-2 l 0,-15 -18,0 z"
     id="rect4163" />
  <path
     id="path4172"
     d="m 18,31 0,2 12,0 0,-2 -12,0 z m 0,3 0,2 12,0 0,-2 -12,0 z m 0,3 0,2 12,0 0,-2 -12,0 z"
     style="opacity:0.2;fill:#000000;fill-opacity:1;fill-rule:evenodd;stroke:none;stroke-width:3;stroke-linecap:round;stroke-linejoin:round;stroke-miterlimit:4;stroke-dasharray:none;stroke-opacity:1"
     inkscape:connector-curvature="0" />
  <path
     inkscape:connector-curvature="0"
     style="opacity:1;fill:#ffffff;fill-opacity:1;fill-rule:evenodd;stroke:none;stroke-width:3;stroke-linecap:round;stroke-linejoin:round;stroke-miterlimit:4;stroke-dasharray:none;stroke-opacity:1"
     d="m 18,30 0,2 12,0 0,-2 -12,0 z m 0,3 0,2 12,0 0,-2 -12,0 z m 0,3 0,2 12,0 0,-2 -12,0 z"
     id="rect4165" />
  <path
     style="opacity:0.1;fill:#000000;fill-opacity:1;fill-rule:evenodd;stroke:none;stroke-width:3;stroke-linecap:round;stroke-linejoin:round;stroke-miterlimit:4;stroke-dasharray:none;stroke-opacity:1"
     d="M 12.5 25 C 11.669 25 11 25.669 11 26.5 C 11 26.67676 11.036139 26.842779 11.091797 27 C 11.297803 26.418077 11.84576 26 12.5 26 L 35.5 26 C 36.15424 26 36.702197 26.418077 36.908203 27 C 36.963861 26.842779 37 26.67676 37 26.5 C 37 25.669 36.331 25 35.5 25 L 12.5 25 z "
     id="rect4142" />
</svg>
