<?xml version="1.0" encoding="UTF-8" standalone="no"?>
<svg
   xmlns:dc="http://purl.org/dc/elements/1.1/"
   xmlns:cc="http://creativecommons.org/ns#"
   xmlns:rdf="http://www.w3.org/1999/02/22-rdf-syntax-ns#"
   xmlns:svg="http://www.w3.org/2000/svg"
   xmlns="http://www.w3.org/2000/svg"
   xmlns:sodipodi="http://sodipodi.sourceforge.net/DTD/sodipodi-0.dtd"
   xmlns:inkscape="http://www.inkscape.org/namespaces/inkscape"
   xml:space="preserve"
   height="48"
   viewBox="0 0 48 48"
   width="48"
   version="1.1"
   y="0"
   x="0"
   id="svg2"
   inkscape:version="0.91 r13725"
   sodipodi:docname="google-snapseed.svg"><metadata
     id="metadata26"><rdf:RDF><cc:Work
         rdf:about=""><dc:format>image/svg+xml</dc:format><dc:type
           rdf:resource="http://purl.org/dc/dcmitype/StillImage" /><dc:title /></cc:Work></rdf:RDF></metadata><defs
     id="defs24" /><sodipodi:namedview
     pagecolor="#ffffff"
     bordercolor="#666666"
     borderopacity="1"
     objecttolerance="10"
     gridtolerance="10"
     guidetolerance="10"
     inkscape:pageopacity="0"
     inkscape:pageshadow="2"
     inkscape:window-width="1920"
     inkscape:window-height="1018"
     id="namedview22"
     showgrid="false"
     inkscape:zoom="15.93"
     inkscape:cx="16.512798"
     inkscape:cy="19.166956"
     inkscape:window-x="0"
     inkscape:window-y="32"
     inkscape:window-maximized="1"
     inkscape:current-layer="svg2"
     inkscape:object-nodes="true"><inkscape:grid
       type="xygrid"
       id="grid4170" /></sodipodi:namedview><rect
     ry="2"
     rx="2"
     y="22"
     x="15"
     height="23"
     width="27"
     id="rect4246"
     style="opacity:0.2;fill:#000000;fill-opacity:1;fill-rule:evenodd;stroke:none;stroke-width:6;stroke-linecap:round;stroke-linejoin:round;stroke-miterlimit:4;stroke-dasharray:none;stroke-opacity:1" /><rect
     style="opacity:1;fill:#e4e4e4;fill-opacity:1;fill-rule:evenodd;stroke:none;stroke-width:6;stroke-linecap:round;stroke-linejoin:round;stroke-miterlimit:4;stroke-dasharray:none;stroke-opacity:1"
     id="rect4172"
     width="27"
     height="23"
     x="15"
     y="21"
     rx="2"
     ry="2" /><path
     style="opacity:0.1;fill:#000000;fill-opacity:1;fill-rule:evenodd;stroke:none;stroke-width:6;stroke-linecap:round;stroke-linejoin:round;stroke-miterlimit:4;stroke-dasharray:none;stroke-opacity:1"
     d="M 17.5 5 C 17.65543 5 17.82915 5.0356046 18.005859 5.0761719 C 17.827466 5.0319448 17.65548 5 17.5 5 z M 18.005859 5.0761719 C 18.138418 5.1090356 18.273285 5.1461723 18.414062 5.1953125 C 18.34146 5.1675825 18.267286 5.1354453 18.197266 5.1132812 C 18.160594 5.1027423 18.125774 5.0969206 18.089844 5.0878906 C 18.060172 5.0804181 18.03515 5.0828961 18.005859 5.0761719 z M 18.53125 5.2421875 C 18.783778 5.3382404 19.047743 5.4612663 19.326172 5.6171875 C 19.240535 5.5690495 19.155043 5.5220965 19.070312 5.4765625 C 18.882958 5.3808502 18.705532 5.3082185 18.53125 5.2421875 z M 19.419922 5.671875 C 19.696617 5.8317064 19.979676 6.0167731 20.275391 6.2304688 C 20.187858 6.1670257 20.102115 6.1097101 20.015625 6.0488281 C 19.811628 5.9092389 19.614081 5.784525 19.419922 5.671875 z M 20.408203 6.3300781 C 20.683189 6.5343049 20.962026 6.7554359 21.248047 7.0019531 C 21.19421 6.9553996 21.141501 6.9145026 21.087891 6.8691406 C 20.857436 6.6749026 20.631146 6.4962938 20.408203 6.3300781 z M 21.441406 7.1738281 C 21.725946 7.4272693 22.012504 7.6950634 22.302734 7.9863281 C 22.012132 7.6955073 21.726314 7.4267607 21.441406 7.1738281 z M 22.503906 8.1933594 C 22.815904 8.5146683 23.130796 8.8544299 23.443359 9.2148438 C 23.12982 8.8538159 22.816948 8.5148323 22.503906 8.1933594 z M 23.501953 9.2832031 C 23.820226 9.652237 24.134835 10.050116 24.447266 10.455078 C 24.798266 10.910347 25.143872 11.38835 25.480469 11.884766 C 25.498664 11.9116 25.517014 11.935943 25.535156 11.962891 C 25.416999 11.787075 25.295998 11.622107 25.175781 11.451172 C 25.172516 11.446529 25.169282 11.442139 25.166016 11.4375 C 25.085345 11.323023 25.005468 11.205948 24.923828 11.09375 C 24.895172 11.054255 24.866548 11.015979 24.837891 10.976562 C 24.930295 11.102113 25.019869 11.234733 25.111328 11.363281 C 24.897475 11.061603 24.683548 10.761755 24.464844 10.476562 C 24.475789 10.490778 24.487112 10.50332 24.498047 10.517578 C 24.490788 10.508052 24.483832 10.497773 24.476562 10.488281 C 24.465329 10.473652 24.454603 10.459889 24.443359 10.445312 C 24.438179 10.438597 24.432917 10.432485 24.427734 10.425781 C 24.208124 10.14168 23.986124 9.8661138 23.763672 9.5996094 C 23.676322 9.4954866 23.589353 9.3867455 23.501953 9.2832031 z M 24.498047 10.517578 C 24.612151 10.667327 24.725266 10.821658 24.837891 10.976562 C 24.724604 10.82264 24.612557 10.66689 24.498047 10.517578 z M 25.535156 11.962891 C 25.647739 12.130411 25.752862 12.310673 25.863281 12.482422 C 26.203584 13.011623 26.531204 13.561999 26.845703 14.126953 C 27.372043 15.075075 27.86221 16.060846 28.283203 17.089844 C 28.379497 17.323691 28.467338 17.561551 28.556641 17.798828 C 28.559624 17.806754 28.563422 17.814341 28.566406 17.822266 C 28.656288 18.061902 28.7436 18.302312 28.826172 18.544922 C 29.020224 19.112889 29.190675 19.690276 29.341797 20.271484 C 29.207878 19.745937 29.056915 19.22546 28.886719 18.710938 C 28.909665 18.780009 28.938627 18.846747 28.960938 18.916016 C 28.929031 18.816717 28.892669 18.719112 28.857422 18.621094 C 28.856237 18.617799 28.854701 18.614623 28.853516 18.611328 C 28.779234 18.389979 28.703441 18.170035 28.623047 17.951172 C 28.564277 17.791364 28.503267 17.632982 28.441406 17.474609 C 28.434798 17.457692 28.428517 17.440728 28.421875 17.423828 C 28.406961 17.385963 28.39594 17.346366 28.380859 17.308594 C 28.374229 17.291986 28.366038 17.276357 28.359375 17.259766 C 28.358062 17.256497 28.356783 17.253268 28.355469 17.25 C 28.282872 17.068937 28.207271 16.889913 28.130859 16.710938 C 28.054634 16.532495 27.976277 16.355908 27.896484 16.179688 C 27.793736 15.952716 27.690355 15.726931 27.582031 15.503906 C 27.505281 15.345844 27.425041 15.191097 27.345703 15.035156 C 27.227105 14.80217 27.108386 14.56977 26.984375 14.341797 C 26.915057 14.214243 26.842347 14.09073 26.771484 13.964844 C 26.63016 13.714083 26.490773 13.462563 26.34375 13.21875 C 26.277692 13.109016 26.207709 13.004725 26.140625 12.896484 C 26.008033 12.682948 25.878495 12.465327 25.742188 12.257812 L 25.740234 12.259766 C 25.673237 12.157546 25.602938 12.06357 25.535156 11.962891 z M 29.341797 20.271484 C 29.358046 20.335251 29.374946 20.398987 29.390625 20.462891 C 29.374606 20.398909 29.358397 20.335327 29.341797 20.271484 z M 29.390625 20.462891 C 29.537941 21.05129 29.665018 21.643788 29.757812 22.242188 C 29.665017 21.643787 29.535161 21.051975 29.390625 20.462891 z M 29.757812 22.242188 L 17.5 34.5 L 5.2265625 22.226562 C 5.08215 23.145391 5 24.072198 5 25 C 5 35 14 45 17.5 45 C 21 45 30 35 30 25 C 30 24.077232 29.89969 23.157099 29.757812 22.242188 z M 7.6640625 15 C 7.405469 15.504608 7.1657681 16.023633 6.9355469 16.548828 C 7.1655222 16.023428 7.4053836 15.504775 7.6640625 15 z M 27.480469 15.300781 C 27.49904 15.338207 27.518686 15.374564 27.537109 15.412109 C 27.518733 15.374625 27.498995 15.338148 27.480469 15.300781 z M 28.318359 17.167969 C 28.345575 17.235115 28.373714 17.301716 28.400391 17.369141 C 28.4047 17.380043 28.407814 17.391434 28.412109 17.402344 C 28.381062 17.324057 28.349982 17.245986 28.318359 17.167969 z M 5.5839844 20.486328 C 5.4430683 21.056233 5.3219279 21.630556 5.2304688 22.208984 C 5.3219208 21.630574 5.443397 21.056242 5.5839844 20.486328 z "
     id="path4302" /><path
     style="opacity:1;fill:#118227;fill-opacity:1;fill-rule:evenodd;stroke:none;stroke-width:6;stroke-linecap:round;stroke-linejoin:round;stroke-miterlimit:4;stroke-dasharray:none;stroke-opacity:1"
     d="M 17.5 4 C 17.65543 4 17.82915 4.035605 18.005859 4.0761719 C 17.827466 4.0319448 17.65548 4 17.5 4 z M 18.005859 4.0761719 C 18.138418 4.1090355 18.273285 4.1461725 18.414062 4.1953125 C 18.341461 4.1675819 18.267286 4.1354454 18.197266 4.1132812 C 18.160591 4.1027431 18.125775 4.0969233 18.089844 4.0878906 C 18.060172 4.0804182 18.03515 4.0828961 18.005859 4.0761719 z M 18.53125 4.2421875 C 18.783778 4.3382404 19.047743 4.4612663 19.326172 4.6171875 C 19.240535 4.5690494 19.155043 4.5220967 19.070312 4.4765625 C 18.882958 4.3808502 18.705532 4.3082182 18.53125 4.2421875 z M 19.419922 4.671875 C 19.696617 4.8317064 19.979676 5.0167731 20.275391 5.2304688 C 20.187858 5.1670258 20.102118 5.1097099 20.015625 5.0488281 C 19.811628 4.9092389 19.614081 4.784525 19.419922 4.671875 z M 20.408203 5.3300781 C 20.683189 5.5343049 20.962026 5.7554359 21.248047 6.0019531 C 21.19421 5.9554 21.141499 5.9145022 21.087891 5.8691406 C 20.857436 5.6749026 20.631146 5.4962938 20.408203 5.3300781 z M 21.441406 6.1738281 C 21.725946 6.4272693 22.012504 6.6950634 22.302734 6.9863281 C 22.012132 6.6955073 21.726314 6.4267607 21.441406 6.1738281 z M 22.503906 7.1933594 C 22.815904 7.5146683 23.130796 7.8544299 23.443359 8.2148438 C 23.12982 7.8538159 22.816948 7.5148323 22.503906 7.1933594 z M 23.501953 8.2832031 C 23.820226 8.6522371 24.134835 9.0501163 24.447266 9.4550781 C 24.798266 9.9103475 25.143872 10.38835 25.480469 10.884766 C 25.498664 10.9116 25.517014 10.935943 25.535156 10.962891 C 25.416999 10.787075 25.295998 10.622107 25.175781 10.451172 C 25.172516 10.446529 25.169282 10.442139 25.166016 10.4375 C 25.085345 10.323023 25.005472 10.205948 24.923828 10.09375 C 24.895172 10.054255 24.866548 10.015978 24.837891 9.9765625 C 24.930295 10.102113 25.019869 10.234733 25.111328 10.363281 C 24.897475 10.061603 24.683548 9.7617547 24.464844 9.4765625 C 24.475789 9.4907784 24.487112 9.5033196 24.498047 9.5175781 C 24.490788 9.5080521 24.483832 9.4977729 24.476562 9.4882812 C 24.465329 9.4736519 24.454603 9.4598889 24.443359 9.4453125 C 24.438179 9.4385974 24.432917 9.4324852 24.427734 9.4257812 C 24.208124 9.141679 23.986124 8.8661138 23.763672 8.5996094 C 23.676322 8.4954866 23.589351 8.3867455 23.501953 8.2832031 z M 24.498047 9.5175781 C 24.612151 9.6673267 24.725266 9.8216586 24.837891 9.9765625 C 24.724604 9.8226403 24.612557 9.6668904 24.498047 9.5175781 z M 25.535156 10.962891 C 25.647739 11.130411 25.752862 11.310673 25.863281 11.482422 C 26.203584 12.011623 26.531204 12.561999 26.845703 13.126953 C 27.372043 14.075075 27.86221 15.060846 28.283203 16.089844 C 28.379493 16.323691 28.467338 16.561551 28.556641 16.798828 C 28.559624 16.806754 28.563422 16.814341 28.566406 16.822266 C 28.656288 17.061902 28.7436 17.302312 28.826172 17.544922 C 29.020889 18.114835 29.192274 18.694104 29.34375 19.277344 C 29.209411 18.749438 29.057666 18.227728 28.886719 17.710938 C 28.912529 17.778886 28.938626 17.846747 28.960938 17.916016 C 28.929031 17.816717 28.892669 17.719112 28.857422 17.621094 C 28.856237 17.617799 28.854701 17.614623 28.853516 17.611328 C 28.779234 17.389979 28.703441 17.170035 28.623047 16.951172 C 28.564277 16.791364 28.503267 16.632982 28.441406 16.474609 C 28.434798 16.457692 28.428517 16.440728 28.421875 16.423828 C 28.406961 16.385963 28.39594 16.346366 28.380859 16.308594 C 28.374229 16.291987 28.366777 16.275901 28.359375 16.259766 C 28.358062 16.256497 28.356783 16.253268 28.355469 16.25 C 28.282872 16.068937 28.207271 15.889913 28.130859 15.710938 C 28.054634 15.532495 27.976277 15.355908 27.896484 15.179688 C 27.793736 14.952716 27.690355 14.726931 27.582031 14.503906 C 27.505281 14.345844 27.425041 14.191097 27.345703 14.035156 C 27.227105 13.80217 27.108386 13.56977 26.984375 13.341797 C 26.915057 13.214243 26.842347 13.09073 26.771484 12.964844 C 26.63016 12.714083 26.490773 12.462563 26.34375 12.21875 C 26.277692 12.109016 26.207709 12.004725 26.140625 11.896484 C 26.008033 11.682948 25.878495 11.465327 25.742188 11.257812 L 25.740234 11.259766 C 25.673237 11.157546 25.602938 11.06357 25.535156 10.962891 z M 29.34375 19.277344 C 29.358831 19.336608 29.374083 19.395695 29.388672 19.455078 C 29.373783 19.395703 29.359139 19.336599 29.34375 19.277344 z M 29.388672 19.455078 C 29.536861 20.046032 29.664607 20.641138 29.757812 21.242188 C 29.664672 20.641557 29.533928 20.046314 29.388672 19.455078 z M 29.757812 21.242188 L 17.5 33.5 L 5.2265625 21.226562 C 5.08215 22.145391 5 23.072198 5 24 C 5 34 14 44 17.5 44 C 21 44 30 34 30 24 C 30 23.077232 29.89969 22.157099 29.757812 21.242188 z M 7.6640625 14 C 7.405469 14.504608 7.1657681 15.023633 6.9355469 15.548828 C 7.1655222 15.023428 7.4053836 14.504775 7.6640625 14 z M 27.480469 14.300781 C 27.49904 14.338207 27.518686 14.374564 27.537109 14.412109 C 27.518733 14.374625 27.498995 14.338148 27.480469 14.300781 z M 28.318359 16.167969 C 28.345575 16.235115 28.373714 16.301716 28.400391 16.369141 C 28.4047 16.380043 28.407814 16.391434 28.412109 16.402344 C 28.381061 16.324056 28.349982 16.245986 28.318359 16.167969 z M 5.5839844 19.486328 C 5.4430683 20.056233 5.3219279 20.630556 5.2304688 21.208984 C 5.3219212 20.630574 5.443397 20.056242 5.5839844 19.486328 z "
     id="path4167" /><path
     style="opacity:0.1;fill:#000000;fill-opacity:1;fill-rule:evenodd;stroke:none;stroke-width:6;stroke-linecap:round;stroke-linejoin:round;stroke-miterlimit:4;stroke-dasharray:none;stroke-opacity:1"
     d="M 25.730469 12.269531 L 17.5 20.5 L 12 15 L 7.6640625 15 C 6.5157892 17.240692 5.6232745 19.702471 5.2265625 22.226562 L 17.5 34.5 L 29.757812 22.242188 C 29.197782 18.630751 27.618309 15.153359 25.730469 12.269531 z "
     id="path4300" /><path
     style="opacity:0.2;fill:#ffffff;fill-opacity:1;fill-rule:evenodd;stroke:none;stroke-width:6;stroke-linecap:round;stroke-linejoin:round;stroke-miterlimit:4;stroke-dasharray:none;stroke-opacity:1"
     d="M 17 21 C 15.892 21 15 21.892 15 23 L 15 24 C 15 22.892 15.892 22 17 22 L 40 22 C 41.108 22 42 22.892 42 24 L 42 23 C 42 21.892 41.108 21 40 21 L 17 21 z "
     id="rect4241" /><path
     id="path4189"
     d="M 17.5 4 C 16.131865 4 14.12427 5.541296 11.941406 8 L 12 8 L 12 14 L 7.6640625 14 C 6.5157892 16.240692 5.6232745 18.70247 5.2265625 21.226562 L 17.5 33.5 L 29.757812 21.242188 C 28.362174 12.242249 20.677031 4 17.5 4 z "
     style="opacity:0.2;fill:#000000;fill-opacity:1;fill-rule:evenodd;stroke:none;stroke-width:6;stroke-linecap:round;stroke-linejoin:round;stroke-miterlimit:4;stroke-dasharray:none;stroke-opacity:1" /><path
     style="opacity:1;fill:#7abb2d;fill-opacity:1;fill-rule:evenodd;stroke:none;stroke-width:6;stroke-linecap:round;stroke-linejoin:round;stroke-miterlimit:4;stroke-dasharray:none;stroke-opacity:1"
     d="M 9.2539062 11.269531 C 8.6911613 12.12917 8.1609841 13.047048 7.671875 14 L 7.6640625 14 C 7.6281475 14.070083 7.5979072 14.144333 7.5625 14.214844 C 7.3452449 14.647021 7.139536 15.086031 6.9433594 15.533203 C 6.9051033 15.620449 6.8635491 15.705211 6.8261719 15.792969 C 6.5987727 16.326668 6.3887425 16.869155 6.1972656 17.419922 C 6.1619119 17.521513 6.1316765 17.624477 6.0976562 17.726562 C 5.948485 18.174718 5.8129175 18.627297 5.6914062 19.083984 C 5.6500886 19.238839 5.6101812 19.39317 5.5722656 19.548828 C 5.452337 20.042903 5.3486499 20.540209 5.265625 21.041016 C 5.2552199 21.10331 5.2363657 21.164189 5.2265625 21.226562 L 5.2285156 21.228516 C 5.2278083 21.233055 5.2272666 21.237647 5.2265625 21.242188 L 17.484375 33.5 L 17.492188 33.492188 L 17.5 33.5 L 29.757812 21.242188 C 29.757108 21.237647 29.756567 21.233055 29.755859 21.228516 L 29.757812 21.226562 C 29.748009 21.164189 29.729155 21.10331 29.71875 21.041016 C 29.635725 20.540209 29.532038 20.042903 29.412109 19.548828 C 29.374194 19.39317 29.334286 19.238839 29.292969 19.083984 C 29.171457 18.627297 29.03589 18.174718 28.886719 17.726562 C 28.852698 17.624477 28.822463 17.521513 28.787109 17.419922 C 28.595633 16.869155 28.385602 16.326668 28.158203 15.792969 C 28.120826 15.705211 28.079272 15.620449 28.041016 15.533203 C 27.844839 15.086031 27.63913 14.647021 27.421875 14.214844 C 27.386468 14.144333 27.356227 14.070083 27.320312 14 L 27.3125 14 C 26.823391 13.047048 26.293214 12.12917 25.730469 11.269531 L 23 14 L 22.984375 14 L 17.492188 19.492188 L 12 14 L 11.984375 14 L 9.2539062 11.269531 z "
     id="rect4181" /><path
     id="path4182"
     d="m 17.5,5 c -0.184576,0 -0.383131,0.033317 -0.589844,0.087891 -0.003,7.899e-4 -0.0068,0.00115 -0.0098,0.00195 -0.03253,0.00775 -0.06429,0.01385 -0.09766,0.023437 -0.08197,0.025945 -0.169796,0.065457 -0.253906,0.095703 -0.01712,0.00615 -0.03557,0.015264 -0.05273,0.021484 -0.0057,0.00213 -0.01188,0.00566 -0.01758,0.00781 -0.07486,0.030403 -0.149502,0.063379 -0.226563,0.099609 -0.106453,0.04469 -0.210444,0.081546 -0.322265,0.1386719 -0.0931,0.050032 -0.18713,0.1009949 -0.28125,0.1542969 -0.01614,0.00912 -0.03271,0.020157 -0.04883,0.029297 -0.200158,0.1154292 -0.404648,0.2445737 -0.615234,0.3886719 -0.08649,0.060882 -0.172236,0.1181976 -0.259766,0.1816407 -0.04391,0.031734 -0.08875,0.067334 -0.132812,0.099609 -0.222943,0.1662157 -0.449233,0.3448245 -0.679688,0.5390625 -0.05361,0.045362 -0.106316,0.08626 -0.160156,0.1328125 -0.06278,0.054106 -0.126453,0.1120798 -0.189453,0.1679688 -0.286513,0.2550768 -0.574908,0.5249482 -0.867188,0.8183593 -0.06652,0.067006 -0.132548,0.1360442 -0.199218,0.2050782 -0.318525,0.3280312 -0.639981,0.6740804 -0.958985,1.0429687 l -0.002,0.00195 c -0.100005,0.1158547 -0.199078,0.2424304 -0.298828,0.3613282 -0.239096,0.286444 -0.47717,0.5816956 -0.71289,0.8886716 -0.150625,0.196666 -0.298828,0.400888 -0.447266,0.605469 -0.1766461,0.242754 -0.3507656,0.490938 -0.5234376,0.744141 -0.0013,0.002 -0.00261,0.004 -0.00391,0.0059 -0.096034,0.140894 -0.1964556,0.270107 -0.2910156,0.414062 l 0.011719,0.01172 L 12,15 17.5,20.5 23,15 l 2.730469,-2.730469 0.01172,-0.01172 c -0.09456,-0.143955 -0.194982,-0.273168 -0.291016,-0.414062 -0.0013,-0.0019 -0.0026,-0.0039 -0.0039,-0.0059 C 25.274594,11.584688 25.100474,11.336504 24.923828,11.09375 24.77539,10.889169 24.627186,10.684947 24.476562,10.488281 24.240842,10.181305 24.002768,9.8860534 23.763672,9.5996094 23.663927,9.4807116 23.564849,9.354136 23.464844,9.2382812 l -0.002,-0.00195 C 23.143887,8.8674398 22.822431,8.5213906 22.503906,8.1933594 22.437238,8.1243252 22.371206,8.0552876 22.304688,7.9882812 22.012409,7.69487 21.724013,7.4249987 21.4375,7.1699219 21.374498,7.114033 21.310823,7.0560595 21.248047,7.0019531 21.19421,6.9554 21.141499,6.9145022 21.087891,6.8691406 20.857436,6.6749026 20.631146,6.4962938 20.408203,6.3300781 20.364141,6.2978027 20.319305,6.2622032 20.275391,6.2304688 20.187858,6.1670258 20.102118,6.1097099 20.015625,6.0488281 19.805039,5.9047299 19.600549,5.7755854 19.400391,5.6601562 19.384274,5.6510171 19.367705,5.6399753 19.351562,5.6308594 19.257445,5.5775578 19.16341,5.5265941 19.070312,5.4765625 18.958491,5.4194369 18.8545,5.3825806 18.748047,5.3378906 18.670986,5.30166 18.596342,5.2686842 18.521484,5.2382812 c -0.0057,-0.00215 -0.01189,-0.00568 -0.01758,-0.00781 -0.01716,-0.00622 -0.03561,-0.015335 -0.05273,-0.021484 -0.08411,-0.030246 -0.17194,-0.069758 -0.253906,-0.095703 -0.03337,-0.00959 -0.06513,-0.015688 -0.09766,-0.023437 -0.0032,-7.681e-4 -0.0065,-0.00114 -0.0098,-0.00195 C 17.883131,5.0333169 17.684576,5 17.5,5 Z"
     style="opacity:0.2;fill:#000000;fill-opacity:1;fill-rule:evenodd;stroke:none;stroke-width:6;stroke-linecap:round;stroke-linejoin:round;stroke-miterlimit:4;stroke-dasharray:none;stroke-opacity:1"
     inkscape:connector-curvature="0" /><path
     style="opacity:1;fill:#a5f775;fill-opacity:1;fill-rule:evenodd;stroke:none;stroke-width:6;stroke-linecap:round;stroke-linejoin:round;stroke-miterlimit:4;stroke-dasharray:none;stroke-opacity:1"
     d="M 17.5 4 C 17.315424 4 17.116869 4.0333169 16.910156 4.0878906 C 16.907164 4.0886805 16.903387 4.0890428 16.900391 4.0898438 C 16.867859 4.0975937 16.836098 4.1036935 16.802734 4.1132812 C 16.720768 4.1392263 16.632938 4.1787384 16.548828 4.2089844 C 16.531708 4.2151334 16.513254 4.2242488 16.496094 4.2304688 C 16.490404 4.2326029 16.484214 4.2361301 16.478516 4.2382812 C 16.403658 4.2686842 16.329014 4.30166 16.251953 4.3378906 C 16.1455 4.3825806 16.041509 4.4194369 15.929688 4.4765625 C 15.83659 4.5265941 15.742558 4.5775574 15.648438 4.6308594 C 15.632298 4.6399754 15.615729 4.6510162 15.599609 4.6601562 C 15.399451 4.7755854 15.194961 4.9047299 14.984375 5.0488281 C 14.897882 5.1097099 14.812139 5.1670257 14.724609 5.2304688 C 14.680697 5.2622027 14.635857 5.2978031 14.591797 5.3300781 C 14.368854 5.4962938 14.142564 5.6749026 13.912109 5.8691406 C 13.858501 5.9145021 13.805793 5.9554001 13.751953 6.0019531 C 13.689177 6.0560595 13.6255 6.1140329 13.5625 6.1699219 C 13.275987 6.4249987 12.987592 6.6948701 12.695312 6.9882812 C 12.628794 7.0552876 12.562764 7.1243254 12.496094 7.1933594 C 12.177569 7.5213906 11.856113 7.8674398 11.537109 8.2363281 L 11.535156 8.2382812 C 11.435151 8.3541359 11.336078 8.4807116 11.236328 8.5996094 C 10.997232 8.8860534 10.759158 9.1813045 10.523438 9.4882812 C 10.372813 9.6849474 10.22461 9.8891692 10.076172 10.09375 C 9.8995259 10.336504 9.7254064 10.584688 9.5527344 10.837891 C 9.5514344 10.839891 9.5501281 10.84185 9.5488281 10.84375 C 9.4527941 10.984644 9.3523725 11.113857 9.2578125 11.257812 L 9.2695312 11.269531 L 12 14 L 17.5 19.5 L 23 14 L 25.730469 11.269531 L 25.742188 11.257812 C 25.647628 11.113857 25.547206 10.984644 25.451172 10.84375 C 25.449863 10.841821 25.448576 10.839818 25.447266 10.837891 C 25.274594 10.584688 25.100474 10.336504 24.923828 10.09375 C 24.77539 9.8891694 24.627186 9.6849474 24.476562 9.4882812 C 24.240842 9.1813045 24.002768 8.8860534 23.763672 8.5996094 C 23.663927 8.4807116 23.564849 8.354136 23.464844 8.2382812 L 23.462891 8.2363281 C 23.143887 7.8674398 22.822431 7.5213906 22.503906 7.1933594 C 22.437238 7.1243252 22.371206 7.0552876 22.304688 6.9882812 C 22.012409 6.69487 21.724013 6.4249987 21.4375 6.1699219 C 21.374498 6.114033 21.310823 6.0560595 21.248047 6.0019531 C 21.19421 5.9554 21.141499 5.9145022 21.087891 5.8691406 C 20.857436 5.6749026 20.631146 5.4962938 20.408203 5.3300781 C 20.364141 5.2978027 20.319305 5.2622032 20.275391 5.2304688 C 20.187858 5.1670258 20.102118 5.1097099 20.015625 5.0488281 C 19.805039 4.9047299 19.600549 4.7755854 19.400391 4.6601562 C 19.384274 4.6510171 19.367705 4.6399753 19.351562 4.6308594 C 19.257445 4.5775578 19.16341 4.5265941 19.070312 4.4765625 C 18.958491 4.4194369 18.8545 4.3825806 18.748047 4.3378906 C 18.670986 4.30166 18.596342 4.2686842 18.521484 4.2382812 C 18.515786 4.2361301 18.509596 4.2326029 18.503906 4.2304688 C 18.486746 4.2242505 18.468301 4.2151338 18.451172 4.2089844 C 18.367066 4.1787386 18.279232 4.1392268 18.197266 4.1132812 C 18.163898 4.1036934 18.13214 4.0975935 18.099609 4.0898438 C 18.096385 4.0890757 18.093084 4.0887051 18.089844 4.0878906 C 17.883131 4.0333169 17.684576 4 17.5 4 z "
     id="rect4179" /><path
     style="opacity:0.2;fill:#ffffff;fill-opacity:1;fill-rule:evenodd;stroke:none;stroke-width:6;stroke-linecap:round;stroke-linejoin:round;stroke-miterlimit:4;stroke-dasharray:none;stroke-opacity:1"
     d="M 17.5 4 C 17.315424 4 17.116869 4.0333169 16.910156 4.0878906 C 16.907164 4.0886805 16.903387 4.0890428 16.900391 4.0898438 C 16.867859 4.0975937 16.836098 4.1036935 16.802734 4.1132812 C 16.720768 4.1392263 16.632938 4.1787384 16.548828 4.2089844 C 16.531708 4.2151334 16.513254 4.2242488 16.496094 4.2304688 C 16.490404 4.2326029 16.484214 4.2361301 16.478516 4.2382812 C 16.403658 4.2686842 16.329014 4.30166 16.251953 4.3378906 C 16.1455 4.3825806 16.041508 4.4194369 15.929688 4.4765625 C 15.836589 4.5265941 15.742557 4.5775574 15.648438 4.6308594 C 15.632297 4.6399754 15.615729 4.6510162 15.599609 4.6601562 C 15.399451 4.7755854 15.194961 4.9047299 14.984375 5.0488281 C 14.897882 5.1097099 14.812139 5.1670256 14.724609 5.2304688 C 14.680697 5.2622026 14.635857 5.2978031 14.591797 5.3300781 C 14.368854 5.4962938 14.142564 5.6749026 13.912109 5.8691406 C 13.858501 5.9145021 13.805793 5.9554001 13.751953 6.0019531 C 13.689177 6.0560595 13.6255 6.1140329 13.5625 6.1699219 C 13.275987 6.4249987 12.987592 6.6948702 12.695312 6.9882812 C 12.628794 7.0552876 12.562764 7.1243254 12.496094 7.1933594 C 12.177569 7.5213906 11.856113 7.8674398 11.537109 8.2363281 L 11.535156 8.2382812 C 11.435151 8.3541359 11.336078 8.4807116 11.236328 8.5996094 C 10.997232 8.8860534 10.759158 9.1813046 10.523438 9.4882812 C 10.372813 9.6849475 10.22461 9.8891692 10.076172 10.09375 C 9.8995258 10.336504 9.7254064 10.584688 9.5527344 10.837891 C 9.5514344 10.839891 9.5501281 10.84185 9.5488281 10.84375 C 9.4527941 10.984644 9.3523725 11.113858 9.2578125 11.257812 L 9.2695312 11.269531 L 9.6699219 11.669922 C 9.8042706 11.475485 9.939291 11.281857 10.076172 11.09375 C 10.22461 10.889169 10.372813 10.684947 10.523438 10.488281 C 10.759157 10.181305 10.997232 9.8860534 11.236328 9.5996094 C 11.336078 9.4807116 11.435151 9.3541359 11.535156 9.2382812 L 11.537109 9.2363281 C 11.856113 8.8674398 12.177569 8.5213906 12.496094 8.1933594 C 12.562764 8.1243254 12.628792 8.0552872 12.695312 7.9882812 C 12.987592 7.6948701 13.275987 7.4249987 13.5625 7.1699219 C 13.6255 7.1140329 13.689173 7.0560591 13.751953 7.0019531 C 13.805793 6.9554006 13.858499 6.9145026 13.912109 6.8691406 C 14.142564 6.6749026 14.368854 6.4962938 14.591797 6.3300781 C 14.635859 6.2978031 14.680699 6.2622028 14.724609 6.2304688 C 14.812139 6.1670256 14.897885 6.1097101 14.984375 6.0488281 C 15.194961 5.9047299 15.399451 5.7755855 15.599609 5.6601562 C 15.615729 5.6510163 15.632297 5.6399794 15.648438 5.6308594 C 15.742557 5.5775574 15.836588 5.5265945 15.929688 5.4765625 C 16.041508 5.4194366 16.1455 5.3825806 16.251953 5.3378906 C 16.329014 5.3016606 16.403656 5.2686842 16.478516 5.2382812 C 16.484216 5.2361313 16.490394 5.2325988 16.496094 5.2304688 C 16.513254 5.2242487 16.531708 5.2151344 16.548828 5.2089844 C 16.632938 5.1787384 16.720764 5.1392263 16.802734 5.1132812 C 16.836104 5.1036943 16.867861 5.0975937 16.900391 5.0898438 C 16.903391 5.0890438 16.907156 5.0886805 16.910156 5.0878906 C 17.116869 5.0333166 17.315424 5 17.5 5 C 17.684576 5 17.883167 5.0333103 18.089844 5.0878906 C 18.093144 5.0887006 18.096409 5.0890756 18.099609 5.0898438 C 18.132139 5.0975928 18.163896 5.1036912 18.197266 5.1132812 C 18.279232 5.1392263 18.367062 5.1787384 18.451172 5.2089844 C 18.468292 5.2151334 18.486746 5.2242488 18.503906 5.2304688 C 18.509596 5.2325988 18.515784 5.2361312 18.521484 5.2382812 C 18.596342 5.2686842 18.670986 5.30166 18.748047 5.3378906 C 18.8545 5.3825806 18.958491 5.4194369 19.070312 5.4765625 C 19.16341 5.5265941 19.257445 5.5775578 19.351562 5.6308594 C 19.367705 5.6399753 19.384274 5.6510171 19.400391 5.6601562 C 19.600549 5.7755854 19.805039 5.9047299 20.015625 6.0488281 C 20.102118 6.1097099 20.187858 6.1670258 20.275391 6.2304688 C 20.319305 6.2622032 20.364141 6.2978027 20.408203 6.3300781 C 20.631146 6.4962938 20.857436 6.6749026 21.087891 6.8691406 C 21.141499 6.9145022 21.19421 6.9554 21.248047 7.0019531 C 21.310823 7.0560595 21.374498 7.114033 21.4375 7.1699219 C 21.724013 7.4249987 22.012409 7.69487 22.304688 7.9882812 C 22.371206 8.0552877 22.437238 8.1243252 22.503906 8.1933594 C 22.822431 8.5213906 23.143934 8.8674367 23.462891 9.2363281 L 23.464844 9.2382812 C 23.564849 9.3541361 23.663927 9.4807116 23.763672 9.5996094 C 24.002768 9.8860534 24.240842 10.181305 24.476562 10.488281 C 24.627186 10.684947 24.77539 10.889169 24.923828 11.09375 C 25.060709 11.281857 25.195726 11.475505 25.330078 11.669922 L 25.730469 11.269531 L 25.742188 11.257812 C 25.647628 11.113857 25.547206 10.984644 25.451172 10.84375 C 25.449863 10.841821 25.448576 10.839818 25.447266 10.837891 C 25.274594 10.584688 25.100474 10.336504 24.923828 10.09375 C 24.77539 9.8891694 24.627186 9.6849474 24.476562 9.4882812 C 24.240842 9.1813046 24.002768 8.8860534 23.763672 8.5996094 C 23.663927 8.4807116 23.564849 8.3541361 23.464844 8.2382812 L 23.462891 8.2363281 C 23.143887 7.8674398 22.822431 7.5213906 22.503906 7.1933594 C 22.437238 7.1243252 22.371206 7.0552877 22.304688 6.9882812 C 22.012409 6.69487 21.724013 6.4249987 21.4375 6.1699219 C 21.374498 6.114033 21.310823 6.0560595 21.248047 6.0019531 C 21.19421 5.9554 21.141499 5.9145022 21.087891 5.8691406 C 20.857436 5.6749026 20.631146 5.4962938 20.408203 5.3300781 C 20.364141 5.2978027 20.319305 5.2622032 20.275391 5.2304688 C 20.187858 5.1670258 20.102118 5.1097099 20.015625 5.0488281 C 19.805039 4.9047299 19.600549 4.7755854 19.400391 4.6601562 C 19.384274 4.6510171 19.367705 4.6399753 19.351562 4.6308594 C 19.257445 4.5775578 19.16341 4.5265941 19.070312 4.4765625 C 18.958491 4.4194369 18.8545 4.3825806 18.748047 4.3378906 C 18.670986 4.30166 18.596342 4.2686842 18.521484 4.2382812 C 18.515786 4.2361301 18.509596 4.2326029 18.503906 4.2304688 C 18.486746 4.2242505 18.468301 4.2151338 18.451172 4.2089844 C 18.367066 4.1787386 18.279232 4.1392268 18.197266 4.1132812 C 18.163898 4.1036934 18.13214 4.0975935 18.099609 4.0898438 C 18.096385 4.0890757 18.093084 4.0887051 18.089844 4.0878906 C 17.883131 4.0333169 17.684576 4 17.5 4 z "
     id="path4184" /></svg>