<?xml version="1.0" encoding="UTF-8" standalone="no"?>
<svg
   xmlns:dc="http://purl.org/dc/elements/1.1/"
   xmlns:cc="http://creativecommons.org/ns#"
   xmlns:rdf="http://www.w3.org/1999/02/22-rdf-syntax-ns#"
   xmlns:svg="http://www.w3.org/2000/svg"
   xmlns="http://www.w3.org/2000/svg"
   xmlns:sodipodi="http://sodipodi.sourceforge.net/DTD/sodipodi-0.dtd"
   xmlns:inkscape="http://www.inkscape.org/namespaces/inkscape"
   width="48"
   height="48"
   version="1"
   id="svg2"
   inkscape:version="0.91 r13725"
   sodipodi:docname="google-classroom.svg">
  <metadata
     id="metadata39">
    <rdf:RDF>
      <cc:Work
         rdf:about="">
        <dc:format>image/svg+xml</dc:format>
        <dc:type
           rdf:resource="http://purl.org/dc/dcmitype/StillImage" />
        <dc:title />
      </cc:Work>
    </rdf:RDF>
  </metadata>
  <sodipodi:namedview
     pagecolor="#ffffff"
     bordercolor="#666666"
     borderopacity="1"
     objecttolerance="10"
     gridtolerance="10"
     guidetolerance="10"
     inkscape:pageopacity="0"
     inkscape:pageshadow="2"
     inkscape:window-width="1920"
     inkscape:window-height="1018"
     id="namedview37"
     showgrid="false"
     inkscape:zoom="13.94"
     inkscape:cx="7.0060842"
     inkscape:cy="24"
     inkscape:window-x="0"
     inkscape:window-y="32"
     inkscape:window-maximized="1"
     inkscape:current-layer="svg2" />
  <defs
     id="defs4">
    <linearGradient
       id="linearGradient8505"
       x1="168"
       x2="160"
       y1="266"
       y2="270"
       gradientTransform="matrix(.49921 0 0 .49973 -55.888 -105.93)"
       gradientUnits="userSpaceOnUse">
      <stop
         offset="0"
         id="stop7" />
      <stop
         offset="1"
         stop-opacity="0"
         id="stop9" />
    </linearGradient>
  </defs>
  <rect
     style="fill:#f4b504;fill-opacity:1"
     width="32"
     height="40"
     x="-40"
     y="-44"
     rx="2"
     ry="2"
     transform="matrix(0,-1,-1,0,0,0)"
     id="rect11" />
  <rect
     style="opacity:1;fill:#18a15f;fill-opacity:1"
     width="26"
     height="34"
     x="-37"
     y="-41"
     rx="0"
     ry="0"
     transform="matrix(0,-1,-1,0,0,0)"
     id="rect13" />
  <g
     transform="translate(5,15)"
     id="g16"
     style="opacity:0.5">
    <path
       inkscape:connector-curvature="0"
       style="fill:#ffffff"
       d="m 12,5 c -1.6572,0 -3,1.3434 -3,3 0,1.6566 1.3428,3 3,3 1.6572,0 3,-1.3434 3,-3 0,-1.6566 -1.3428,-3 -3,-3 z"
       id="path18-3" />
    <path
       inkscape:connector-curvature="0"
       style="fill:#ffffff"
       d="m 12,12.000001 c -4.9995,0.0032 -5,3.446153 -5,3.446153 l 0,1.4 C 7,16.846154 7.923071,19 12,19 c 4.076929,0 5,-2.153846 5,-2.153846 l 0,-1.4 c 0,0 0,-3.448307 -4.999,-3.446153 z"
       id="path20" />
  </g>
  <g
     id="g4193"
     transform="translate(19,15)"
     style="opacity:0.5">
    <path
       id="path4195"
       d="m 12,5 c -1.6572,0 -3,1.3434 -3,3 0,1.6566 1.3428,3 3,3 1.6572,0 3,-1.3434 3,-3 0,-1.6566 -1.3428,-3 -3,-3 z"
       style="fill:#ffffff"
       inkscape:connector-curvature="0" />
    <path
       id="path4197"
       d="m 12,12.000001 c -4.9995,0.0032 -5,3.446153 -5,3.446153 l 0,1.4 C 7,16.846154 7.923071,19 12,19 c 4.076929,0 5,-2.153846 5,-2.153846 l 0,-1.4 c 0,0 0,-3.448307 -4.999,-3.446153 z"
       style="fill:#ffffff"
       inkscape:connector-curvature="0" />
  </g>
  <path
     fill="#fff"
     style="opacity:0.2"
     d="m6 8c-1.108 0-2 0.892-2 2v1c0-1.108 0.892-2 2-2h36c1.108 0 2 0.892 2 2v-1c0-1.108-0.892-2-2-2h-36z"
     id="path15" />
  <path
     opacity=".2"
     d="m4 38v1c0 1.108 0.892 2 2 2h36c1.108 0 2-0.892 2-2v-1c0 1.108-0.892 2-2 2h-36c-1.108 0-2-0.892-2-2z"
     id="path17" />
  <g
     id="g4199"
     transform="translate(8,10)"
     style="opacity:0.2;fill:#000000">
    <path
       id="path4201"
       d="m 16,6 c -2.2096,0 -4,1.7912 -4,4 0,2.2088 1.7904,4 4,4 2.2096,0 4,-1.7912 4,-4 0,-2.2088 -1.7904,-4 -4,-4 z"
       style="fill:#000000"
       inkscape:connector-curvature="0" />
    <path
       id="path4203"
       d="m 16,16.000001 c -6.9993,0.0042 -7,4.430769 -7,4.430769 l 0,1.8 c 0,0 1.292299,2.76923 7,2.76923 5.707701,0 7,-2.76923 7,-2.76923 l 0,-1.8 c 0,0 0,-4.433538 -6.9986,-4.430769 z"
       style="fill:#000000"
       inkscape:connector-curvature="0" />
  </g>
  <g
     transform="translate(8,9)"
     id="g14">
    <path
       inkscape:connector-curvature="0"
       style="fill:#ffffff"
       d="m 16,6 c -2.2096,0 -4,1.7912 -4,4 0,2.2088 1.7904,4 4,4 2.2096,0 4,-1.7912 4,-4 0,-2.2088 -1.7904,-4 -4,-4 z"
       id="path16" />
    <path
       inkscape:connector-curvature="0"
       style="fill:#ffffff"
       d="m 16,16.000001 c -6.9993,0.0042 -7,4.430769 -7,4.430769 l 0,1.8 c 0,0 1.292299,2.76923 7,2.76923 5.707701,0 7,-2.76923 7,-2.76923 l 0,-1.8 c 0,0 0,-4.433538 -6.9986,-4.430769 z"
       id="path18" />
  </g>
  <rect
     ry="1"
     rx="1"
     y="36"
     x="30"
     height="2"
     width="8"
     id="rect4153"
     style="opacity:0.2;fill:#000000;fill-opacity:1;stroke:none;stroke-width:4;stroke-linecap:round;stroke-linejoin:round;stroke-miterlimit:4;stroke-dasharray:none;stroke-opacity:1" />
  <rect
     style="opacity:1;fill:#ffffff;fill-opacity:1;stroke:none;stroke-width:4;stroke-linecap:round;stroke-linejoin:round;stroke-miterlimit:4;stroke-dasharray:none;stroke-opacity:1"
     id="rect4151"
     width="8"
     height="2"
     x="30"
     y="35"
     rx="1"
     ry="1" />
</svg>
