<?xml version="1.0" encoding="UTF-8" standalone="no"?>
<svg
   xmlns:dc="http://purl.org/dc/elements/1.1/"
   xmlns:cc="http://creativecommons.org/ns#"
   xmlns:rdf="http://www.w3.org/1999/02/22-rdf-syntax-ns#"
   xmlns:svg="http://www.w3.org/2000/svg"
   xmlns="http://www.w3.org/2000/svg"
   xmlns:sodipodi="http://sodipodi.sourceforge.net/DTD/sodipodi-0.dtd"
   xmlns:inkscape="http://www.inkscape.org/namespaces/inkscape"
   width="48"
   height="48"
   version="1"
   id="svg2"
   inkscape:version="0.91 r13725"
   sodipodi:docname="google-androidify.svg">
  <metadata
     id="metadata30">
    <rdf:RDF>
      <cc:Work
         rdf:about="">
        <dc:format>image/svg+xml</dc:format>
        <dc:type
           rdf:resource="http://purl.org/dc/dcmitype/StillImage" />
        <dc:title />
      </cc:Work>
    </rdf:RDF>
  </metadata>
  <defs
     id="defs28" />
  <sodipodi:namedview
     pagecolor="#ffffff"
     bordercolor="#666666"
     borderopacity="1"
     objecttolerance="10"
     gridtolerance="10"
     guidetolerance="10"
     inkscape:pageopacity="0"
     inkscape:pageshadow="2"
     inkscape:window-width="1920"
     inkscape:window-height="1018"
     id="namedview26"
     showgrid="false"
     inkscape:zoom="16.01"
     inkscape:cx="10.914428"
     inkscape:cy="19.941129"
     inkscape:window-x="0"
     inkscape:window-y="32"
     inkscape:window-maximized="1"
     inkscape:current-layer="svg2" />
  <path
     fill="#93b133"
     d="m10 22.188c-1.108 0-2 0.892-2 2v10c0 1.108 0.892 2 2 2s2-0.892 2-2v-10c0-1.108-0.892-2-2-2z"
     id="path4" />
  <path
     fill="#93b133"
     d="m38 22.188c-1.108 0-2 0.892-2 2v10c0 1.108 0.892 2 2 2s2-0.892 2-2v-10c0-1.108-0.892-2-2-2z"
     id="path6" />
  <path
     d="M 18.138672 5.2128906 C 18.009672 5.1950906 17.876188 5.2023813 17.742188 5.2382812 C 17.207187 5.3816812 16.892156 5.9277906 17.035156 6.4628906 L 18.298828 11.177734 C 12.004828 14.198734 12 22 12 22 L 12 24.763672 C 12 24.340865 12.297411 24 12.666016 24 L 20 24 L 24 28 L 28 24 L 35.333984 24 C 35.702589 24 36 24.340865 36 24.763672 L 36 22 C 36 22 35.995172 14.198734 29.701172 11.177734 L 30.964844 6.4628906 C 31.107844 5.9277906 30.792812 5.3816813 30.257812 5.2382812 C 29.722812 5.0948813 29.177203 5.4102125 29.033203 5.9453125 L 27.818359 10.480469 C 26.703359 10.176469 25.44 10 24 10 C 22.56 10 21.296641 10.176469 20.181641 10.480469 L 18.966797 5.9453125 C 18.858797 5.5440125 18.524672 5.2661906 18.138672 5.2128906 z M 18 39 L 18 43 C 18 44.108 18.892 45 20 45 C 21.108 45 22 44.108 22 43 L 22 39 L 18 39 z M 26 39 L 26 43 C 26 44.108 26.892 45 28 45 C 29.108 45 30 44.108 30 43 L 30 39 L 26 39 z "
     id="path8"
     style="fill:#a4c639;fill-opacity:1" />
  <path
     d="m 16.4,22 15.2,0 c 0.2216,0 0.4,0.223 0.4,0.5 0,0.277 -0.1784,0.5 -0.4,0.5 L 16.4,23 C 16.1784,23 16,22.777 16,22.5 16,22.223 16.1784,22 16.4,22 Z"
     id="path16"
     inkscape:connector-curvature="0"
     style="fill:#000000;fill-opacity:1;opacity:0.4" />
  <circle
     fill="#fff"
     cx="18"
     cy="17"
     r="1"
     id="circle18" />
  <circle
     fill="#fff"
     cx="30"
     cy="17"
     r="1"
     id="circle20" />
  <path
     fill="#fff"
     opacity=".2"
     d="m18.139 5.2129c-0.129-0.0178-0.263-0.0105-0.397 0.0254-0.535 0.1434-0.85 0.6895-0.707 1.2246l0.08008 0.29688c0.1233-0.24649 0.33853-0.4442 0.62695-0.52148 0.13378-0.035846 0.26778-0.043154 0.39648-0.025391 0.3861 0.053291 0.72059 0.33108 0.82812 0.73242l1.2148 4.5352c1.116-0.305 2.379-0.481 3.819-0.481 1.4401 0 2.7032 0.17631 3.8184 0.48047l1.2148-4.5352c0.14339-0.53512 0.68949-0.85042 1.2246-0.70703 0.28842 0.077283 0.50365 0.27499 0.62695 0.52148l0.08008-0.29688c0.143-0.5345-0.172-1.0806-0.707-1.224s-1.081 0.1719-1.225 0.707l-1.215 4.5347c-1.115-0.304-2.378-0.48-3.818-0.48-1.4401 0-2.7032 0.17631-3.8184 0.48047l-1.215-4.5347c-0.108-0.4013-0.442-0.6791-0.828-0.7324zm-0.07227 6.0957c-6.049 3.103-6.067 10.691-6.067 10.691v1s0.0052-7.8011 6.2988-10.822l-0.23242-0.86914zm11.867 0-0.23242 0.86914c6.293 3.021 6.298 10.822 6.298 10.822v-1s-0.01752-7.5881-6.0664-10.691zm-19.934 10.879c-1.108 0-2 0.892-2 2v1c0-1.108 0.892-2 2-2s2 0.892 2 2v-1c0-1.108-0.892-2-2-2zm28 0c-1.108 0-2 0.892-2 2v1c0-1.108 0.892-2 2-2s2 0.892 2 2v-1c0-1.108-0.892-2-2-2z"
     id="path22" />
  <path
     opacity=".2"
     d="m30.885 6.76c-20.59 28.16-10.295 14.08 0 0zm-22.885 27.428v1c0 1.108 0.892 2 2 2s2-0.892 2-2v0.54492c0 2.363 1.784 4.267 4 4.267h2v-1h-2c-2.216 0-4-1.9038-4-4.2676v-0.544c0 1.108-0.892 2-2 2s-2-0.892-2-2zm28 0v0.54492c0 2.363-1.784 4.267-4 4.267h-2v1h2c2.216 0 4-1.9038 4-4.2676v-0.544c0 1.108 0.892 2 2 2s2-0.892 2-2v-1c0 1.108-0.892 2-2 2s-2-0.892-2-2zm-14 4.812v1h4v-1zm-4 4v1c0 1.108 0.892 2 2 2s2-0.892 2-2v-1c0 1.108-0.892 2-2 2s-2-0.892-2-2zm8 0v1c0 1.108 0.892 2 2 2s2-0.892 2-2v-1c0 1.108-0.892 2-2 2s-2-0.892-2-2z"
     id="path24" />
  <path
     style="fill:#212121"
     d="M 21,15.666666 C 21,15.666666 22.5,15 23.999999,15 25.5,15 27,15.666666 27,15.666666 L 27,17 C 27,17 25.5,16.333333 23.999999,16.333333 22.5,16.333333 21,17 21,17 Z"
     id="path28"
     inkscape:connector-curvature="0" />
  <rect
     id="rect4215"
     ry="1.1666666"
     rx="1.125"
     y="15"
     x="13"
     height="7"
     width="9"
     style="opacity:0.1;fill:#000000" />
  <path
     inkscape:connector-curvature="0"
     id="path4213"
     d="M 21,16.666666 C 21,16.666666 22.5,16 23.999999,16 25.5,16 27,16.666666 27,16.666666 L 27,18 C 27,18 25.5,17.333333 23.999999,17.333333 22.5,17.333333 21,18 21,18 Z"
     style="opacity:0.1;fill:#000000" />
  <rect
     style="fill:#4f4f4f;fill-opacity:1"
     width="9"
     height="7"
     x="13"
     y="14"
     rx="1.125"
     ry="1.1666666"
     id="rect16" />
  <rect
     id="rect4217"
     ry="0.75"
     rx="0.66666663"
     y="16"
     x="12"
     height="3"
     width="2"
     style="opacity:0.1;fill:#000000" />
  <rect
     style="fill:#212121"
     width="2"
     height="3"
     x="12"
     y="15"
     rx="0.66666663"
     ry="0.75"
     id="rect22" />
  <rect
     style="opacity:0.1;fill:#000000"
     width="9"
     height="7"
     x="26"
     y="15"
     rx="1.125"
     ry="1.1666666"
     id="rect4219" />
  <rect
     id="rect4179"
     ry="1.1666666"
     rx="1.125"
     y="14"
     x="26"
     height="7"
     width="9"
     style="fill:#4f4f4f;fill-opacity:1" />
  <rect
     style="opacity:0.1;fill:#000000"
     width="2"
     height="3"
     x="34"
     y="16"
     rx="0.66666663"
     ry="0.75"
     id="rect4221" />
  <rect
     id="rect4181"
     ry="0.75"
     rx="0.66666663"
     y="15"
     x="34"
     height="3"
     width="2"
     style="fill:#212121" />
  <rect
     style="opacity:1;fill:#ffffff;fill-opacity:1"
     id="rect4192"
     width="8"
     height="5"
     x="20"
     y="24" />
  <path
     style="opacity:1;fill:#f2535e;fill-opacity:1"
     d="M 12.666016,24 C 12.297411,24 12,24.340865 12,24.763672 l 0,9.96875 C 12,37.096422 13.784,39 16,39 l 2,0 4,0 4,0 4,0 2,0 c 2.216,0 4,-1.903578 4,-4.267578 l 0,-9.96875 C 36,24.340865 35.702589,24 35.333984,24 L 28,24 24,28 20,24 Z"
     id="rect4183"
     inkscape:connector-curvature="0"
     sodipodi:nodetypes="ssssccccsssscccs" />
  <circle
     style="opacity:1;fill:#3f3f3f;fill-opacity:1"
     id="path4188"
     cx="24"
     cy="31"
     r="1" />
  <circle
     r="1"
     cy="35"
     cx="24"
     id="circle4190"
     style="opacity:1;fill:#3f3f3f;fill-opacity:1" />
</svg>
