<?xml version="1.0" encoding="UTF-8" standalone="no"?>
<svg
   xmlns:dc="http://purl.org/dc/elements/1.1/"
   xmlns:cc="http://creativecommons.org/ns#"
   xmlns:rdf="http://www.w3.org/1999/02/22-rdf-syntax-ns#"
   xmlns:svg="http://www.w3.org/2000/svg"
   xmlns="http://www.w3.org/2000/svg"
   xmlns:sodipodi="http://sodipodi.sourceforge.net/DTD/sodipodi-0.dtd"
   xmlns:inkscape="http://www.inkscape.org/namespaces/inkscape"
   width="48"
   height="48"
   version="1"
   id="svg2"
   inkscape:version="0.91 r13725"
   sodipodi:docname="google-toontastic.svg">
  <metadata
     id="metadata38">
    <rdf:RDF>
      <cc:Work
         rdf:about="">
        <dc:format>image/svg+xml</dc:format>
        <dc:type
           rdf:resource="http://purl.org/dc/dcmitype/StillImage" />
        <dc:title></dc:title>
      </cc:Work>
    </rdf:RDF>
  </metadata>
  <defs
     id="defs36" />
  <sodipodi:namedview
     pagecolor="#ffffff"
     bordercolor="#666666"
     borderopacity="1"
     objecttolerance="10"
     gridtolerance="10"
     guidetolerance="10"
     inkscape:pageopacity="0"
     inkscape:pageshadow="2"
     inkscape:window-width="1920"
     inkscape:window-height="1018"
     id="namedview34"
     showgrid="false"
     inkscape:zoom="13.01"
     inkscape:cx="24"
     inkscape:cy="24"
     inkscape:window-x="0"
     inkscape:window-y="32"
     inkscape:window-maximized="1"
     inkscape:current-layer="svg2" />
  <path
     fill="#4f4f4f"
     d="m44 40v-32c0-1.108-0.892-2-2-2h-36c-1.108 0-2 0.892-2 2v32c0 1.108 0.892 2 2 2h36c1.108 0 2-0.892 2-2z"
     id="path4" />
  <g
     transform="translate(-144,-236)"
     id="g6">
    <path
       opacity=".2"
       d="m150 242c-1.108 0-2 0.892-2 2v6h40v-6c0-1.108-0.892-2-2-2z"
       id="path8" />
    <path
       opacity=".2"
       d="m150 242c-1.108 0-2 0.892-2 2v2h40v-2c0-1.108-0.892-2-2-2z"
       id="path10" />
    <path
       fill="#fff"
       opacity=".2"
       d="m150 242c-1.108 0-2 0.892-2 2v6h9v-4l-4-4z"
       id="path12" />
    <path
       fill="#fff"
       fill-rule="evenodd"
       opacity=".2"
       d="m163 246-4-4h5l4 4z"
       id="path14" />
    <path
       fill="#fff"
       fill-rule="evenodd"
       opacity=".2"
       d="m163 246-4 4h5l4-4z"
       id="path16" />
    <path
       fill="#fff"
       fill-rule="evenodd"
       opacity=".2"
       d="m173 246-4-4h5l4 4z"
       id="path18" />
    <path
       fill="#fff"
       fill-rule="evenodd"
       opacity=".2"
       d="m173 246-4 4h5l4-4z"
       id="path20" />
    <path
       fill="#fff"
       fill-rule="evenodd"
       opacity=".2"
       d="m183 246-4-4h5l4 4z"
       id="path22" />
    <path
       fill="#fff"
       fill-rule="evenodd"
       opacity=".2"
       d="m183 246-4 4h5l4-4z"
       id="path24" />
    <path
       fill="#fff"
       opacity=".2"
       d="m150 242c-1.108 0-2 0.892-2 2v1c0-1.108 0.892-2 2-2h36c1.108 0 2 0.892 2 2v-1c0-1.108-0.892-2-2-2h-36z"
       id="path26" />
  </g>
  <path
     opacity=".2"
     d="m4 40v1c0 1.108 0.892 2 2 2h36c1.108 0 2-0.892 2-2v-1c0 1.108-0.892 2-2 2h-36c-1.108 0-2-0.892-2-2z"
     id="path28" />
  <path
     sodipodi:nodetypes="ssssssssssscs"
     inkscape:connector-curvature="0"
     id="path4187"
     d="m 5,15 c -1.108,0 -2,0.892 -2,2 l 0,14 c 0,1.108 0.892,2 2,2 l 9.96875,0 C 18.999806,33 20,28 24,28 c 4,0 5.000194,5 9.03125,5 L 43,33 c 1.108,0 2,-0.892 2,-2 l 0,-14 c 0,-1.108 -0.892,-2 -2,-2 l -19,0 z"
     style="opacity:0.2;fill:#000000;fill-opacity:1;fill-rule:evenodd;stroke:none;stroke-width:8;stroke-linecap:round;stroke-linejoin:round;stroke-miterlimit:4;stroke-dasharray:none;stroke-opacity:1" />
  <path
     style="opacity:1;fill:#e4e4e4;fill-opacity:1;fill-rule:evenodd;stroke:none;stroke-width:8;stroke-linecap:round;stroke-linejoin:round;stroke-miterlimit:4;stroke-dasharray:none;stroke-opacity:1"
     d="m 5,14 c -1.108,0 -2,0.892 -2,2 l 0,14 c 0,1.108 0.892,2 2,2 l 9.96875,0 C 18.999806,32 20,27 24,27 c 4,0 5.000194,5 9.03125,5 L 43,32 c 1.108,0 2,-0.892 2,-2 l 0,-14 c 0,-1.108 -0.892,-2 -2,-2 l -19,0 z"
     id="rect4158"
     inkscape:connector-curvature="0"
     sodipodi:nodetypes="ssssssssssscs" />
  <path
     style="opacity:1;fill:#16aef6;fill-opacity:1;fill-rule:evenodd;stroke:none;stroke-width:8;stroke-linecap:round;stroke-linejoin:round;stroke-miterlimit:4;stroke-dasharray:none;stroke-opacity:1"
     d="m 3,17 0,12 10,0 c 3.313708,0 6,-2.686292 6,-6 0,-3.313708 -2.686292,-6 -6,-6 z"
     id="path4164"
     inkscape:connector-curvature="0"
     sodipodi:nodetypes="ccsssc" />
  <path
     id="path4169"
     d="m 45,17 0,12 -10,0 c -3.313708,0 -6,-2.686292 -6,-6 0,-3.313708 2.686292,-6 6,-6 z"
     style="opacity:1;fill:#da4b38;fill-opacity:1;fill-rule:evenodd;stroke:none;stroke-width:8;stroke-linecap:round;stroke-linejoin:round;stroke-miterlimit:4;stroke-dasharray:none;stroke-opacity:1"
     inkscape:connector-curvature="0"
     sodipodi:nodetypes="ccsssc" />
  <path
     style="opacity:0.2;fill:#ffffff;fill-opacity:1;fill-rule:evenodd;stroke:none;stroke-width:8;stroke-linecap:round;stroke-linejoin:round;stroke-miterlimit:4;stroke-dasharray:none;stroke-opacity:1"
     d="M 5 14 C 3.892 14 3 14.892 3 16 L 3 17 C 3 15.892 3.892 15 5 15 L 24 15 L 43 15 C 44.108 15 45 15.892 45 17 L 45 16 C 45 14.892 44.108 14 43 14 L 24 14 L 5 14 z "
     id="path4189" />
</svg>
