<?xml version="1.0" encoding="UTF-8" standalone="no"?>
<svg
   xmlns:dc="http://purl.org/dc/elements/1.1/"
   xmlns:cc="http://creativecommons.org/ns#"
   xmlns:rdf="http://www.w3.org/1999/02/22-rdf-syntax-ns#"
   xmlns:svg="http://www.w3.org/2000/svg"
   xmlns="http://www.w3.org/2000/svg"
   xmlns:sodipodi="http://sodipodi.sourceforge.net/DTD/sodipodi-0.dtd"
   xmlns:inkscape="http://www.inkscape.org/namespaces/inkscape"
   width="48"
   height="48"
   version="1.1"
   viewBox="0 0 48 48"
   id="svg2"
   inkscape:version="0.91 r13725"
   sodipodi:docname="google-adwords.svg">
  <metadata
     id="metadata20">
    <rdf:RDF>
      <cc:Work
         rdf:about="">
        <dc:format>image/svg+xml</dc:format>
        <dc:type
           rdf:resource="http://purl.org/dc/dcmitype/StillImage" />
        <dc:title />
      </cc:Work>
    </rdf:RDF>
  </metadata>
  <defs
     id="defs18" />
  <sodipodi:namedview
     pagecolor="#ffffff"
     bordercolor="#666666"
     borderopacity="1"
     objecttolerance="10"
     gridtolerance="10"
     guidetolerance="10"
     inkscape:pageopacity="0"
     inkscape:pageshadow="2"
     inkscape:window-width="1920"
     inkscape:window-height="1018"
     id="namedview16"
     showgrid="false"
     inkscape:zoom="19.709914"
     inkscape:cx="13.370831"
     inkscape:cy="24"
     inkscape:window-x="0"
     inkscape:window-y="32"
     inkscape:window-maximized="1"
     inkscape:current-layer="svg2" />
  <path
     sodipodi:nodetypes="ccccccccc"
     inkscape:connector-curvature="0"
     style="opacity:0.2;fill:#000000;fill-opacity:1"
     d="m 43.590343,42 c 1.040675,-5.08e-4 1.722424,-1.213582 1.268294,-2.256746 L 30.928835,8.8852102 c -0.235981,-0.5417581 -0.729147,-0.885592 -1.269671,-0.88521 l -11.250175,0 c -1.039718,0.00106 -1.720991,1.2124596 -1.268293,2.2552118 l 13.42932,30.859579 C 30.80578,41.656051 31.298284,41.999794 31.83831,42 Z"
     id="path4181" />
  <path
     id="path4165"
     d="m 43.590343,41 c 1.040675,-5.08e-4 1.722424,-1.213582 1.268294,-2.256746 L 30.928835,7.8852102 c -0.235981,-0.5417581 -0.729147,-0.885592 -1.269671,-0.88521 l -11.250175,0 c -1.039718,0.00106 -1.720991,1.2124596 -1.268293,2.255212 L 30.570016,40.114791 C 30.80578,40.656051 31.298284,40.999794 31.83831,41 Z"
     style="fill:#1a8151;fill-opacity:1"
     inkscape:connector-curvature="0"
     sodipodi:nodetypes="ccccccccc" />
  <path
     style="fill:#ffffff;fill-opacity:1;opacity:0.1"
     d="M 18.408203 7 C 17.434525 7.0009927 16.788107 8.0633143 17.080078 9.0546875 C 17.268292 8.459879 17.769248 8.0006514 18.408203 8 L 29.658203 8 C 30.198727 7.999618 30.693707 8.3430075 30.929688 8.8847656 L 44.859375 39.744141 C 44.88822 39.810399 44.900043 39.878037 44.919922 39.945312 C 45.037953 39.571871 45.034443 39.146283 44.859375 38.744141 L 30.929688 7.8847656 C 30.693707 7.3430075 30.198727 6.999618 29.658203 7 L 18.408203 7 z "
     id="path4185" />
  <path
     id="path4183"
     d="M 4.4096569,42 A 1.4102748,1.5711343 0 0 1 3.1413626,39.743254 L 16.570684,8.8852102 a 1.4102748,1.5711343 0 0 1 1.269671,-0.88521 l 11.750656,0 a 1.4102748,1.5711343 0 0 1 1.268293,2.2552118 L 17.429984,41.114791 A 1.4102748,1.5711343 0 0 1 16.16169,42 L 4.4096569,42 Z"
     style="opacity:0.2;fill:#000000;fill-opacity:1"
     inkscape:connector-curvature="0" />
  <path
     inkscape:connector-curvature="0"
     style="fill:#4c8cf6;fill-opacity:1"
     d="M 4.4096569,41 A 1.4102748,1.5711343 0 0 1 3.1413626,38.743254 L 16.570684,7.8852102 a 1.4102748,1.5711343 0 0 1 1.269671,-0.88521 l 11.750656,0 a 1.4102748,1.5711343 0 0 1 1.268293,2.255212 L 17.429984,40.114791 A 1.4102748,1.5711343 0 0 1 16.16169,41 L 4.4096569,41 Z"
     id="path12" />
  <path
     style="fill:#ffffff;fill-opacity:1;opacity:0.2"
     d="M 17.8125 7 A 1.4102748 1.5711343 0 0 0 16.570312 7.8847656 L 3.140625 38.744141 A 1.4102748 1.5711343 0 0 0 3.0742188 39.925781 A 1.4102748 1.5711343 0 0 1 3.140625 39.744141 L 16.570312 8.8847656 A 1.4102748 1.5711343 0 0 1 17.839844 8 L 29.591797 8 A 1.4102748 1.5711343 0 0 1 30.925781 9.0742188 A 1.4102748 1.5711343 0 0 0 29.591797 7 L 17.839844 7 A 1.4102748 1.5711343 0 0 0 17.8125 7 z "
     id="path4187" />
</svg>
