<?xml version="1.0" encoding="UTF-8" standalone="no"?>
<svg
   xmlns:dc="http://purl.org/dc/elements/1.1/"
   xmlns:cc="http://creativecommons.org/ns#"
   xmlns:rdf="http://www.w3.org/1999/02/22-rdf-syntax-ns#"
   xmlns:svg="http://www.w3.org/2000/svg"
   xmlns="http://www.w3.org/2000/svg"
   xmlns:sodipodi="http://sodipodi.sourceforge.net/DTD/sodipodi-0.dtd"
   xmlns:inkscape="http://www.inkscape.org/namespaces/inkscape"
   width="48"
   height="48"
   version="1"
   id="svg2"
   inkscape:version="0.91 r13725"
   sodipodi:docname="google-admin.svg">
  <metadata
     id="metadata18">
    <rdf:RDF>
      <cc:Work
         rdf:about="">
        <dc:format>image/svg+xml</dc:format>
        <dc:type
           rdf:resource="http://purl.org/dc/dcmitype/StillImage" />
        <dc:title></dc:title>
      </cc:Work>
    </rdf:RDF>
  </metadata>
  <defs
     id="defs16" />
  <sodipodi:namedview
     pagecolor="#ffffff"
     bordercolor="#666666"
     borderopacity="1"
     objecttolerance="10"
     gridtolerance="10"
     guidetolerance="10"
     inkscape:pageopacity="0"
     inkscape:pageshadow="2"
     inkscape:window-width="1920"
     inkscape:window-height="1018"
     id="namedview14"
     showgrid="false"
     inkscape:zoom="9.8603159"
     inkscape:cx="24"
     inkscape:cy="24"
     inkscape:window-x="0"
     inkscape:window-y="32"
     inkscape:window-maximized="1"
     inkscape:current-layer="svg2" />
  <rect
     id="rect4211"
     ry="4"
     rx="4"
     y="29"
     x="19"
     height="16"
     width="10"
     style="opacity:0.2;fill:#000000;fill-opacity:1" />
  <path
     id="path4209"
     d="m 23,5 c -2.216,0 -4,1.784 -4,4 l 0,1.875 a 15,15 0 0 0 -4.730469,2.732422 l -1.625,-0.9375 c -1.919112,-1.108 -4.3568435,-0.454269 -5.4648435,1.464844 l -1,1.730468 c -1.108,1.919113 -0.4542685,4.356844 1.4648437,5.464844 l 1.6171876,0.933594 A 15,15 0 0 0 9,25 15,15 0 0 0 9.2617188,27.736328 l -1.6171876,0.933594 c -1.9191122,1.108 -2.5728437,3.545731 -1.4648437,5.464844 l 1,1.730468 c 1.108,1.919113 3.5457315,2.572844 5.4648435,1.464844 l 1.613281,-0.93164 A 15,15 0 0 0 24,40 15,15 0 0 0 33.730469,36.392578 l 1.625,0.9375 c 1.919112,1.108 4.356843,0.454269 5.464843,-1.464844 l 1,-1.730468 c 1.108,-1.919113 0.454269,-4.356844 -1.464843,-5.464844 L 38.738281,27.736328 A 15,15 0 0 0 39,25 15,15 0 0 0 38.738281,22.263672 l 1.617188,-0.933594 c 1.919112,-1.108 2.572843,-3.545731 1.464843,-5.464844 l -1,-1.730468 c -1.108,-1.919113 -3.545731,-2.572844 -5.464843,-1.464844 l -1.613281,0.93164 A 15,15 0 0 0 29,10.876953 L 29,9 C 29,6.784 27.216,5 25,5 l -2,0 z"
     style="opacity:0.2;fill:#000000;fill-opacity:1"
     inkscape:connector-curvature="0" />
  <path
     style="fill:#077c6f;fill-opacity:1"
     d="M 23 4 C 20.784 4 19 5.784 19 8 L 19 9.875 A 15 15 0 0 0 14.269531 12.607422 L 12.644531 11.669922 C 10.725419 10.561922 8.2876875 11.215653 7.1796875 13.134766 L 6.1796875 14.865234 C 5.0716875 16.784347 5.725419 19.222078 7.6445312 20.330078 L 9.2617188 21.263672 A 15 15 0 0 0 9 24 A 15 15 0 0 0 9.2617188 26.736328 L 7.6445312 27.669922 C 5.725419 28.777922 5.0716875 31.215653 6.1796875 33.134766 L 7.1796875 34.865234 C 8.2876875 36.784347 10.725419 37.438078 12.644531 36.330078 L 14.257812 35.398438 A 15 15 0 0 0 24 39 A 15 15 0 0 0 33.730469 35.392578 L 35.355469 36.330078 C 37.274581 37.438078 39.712312 36.784347 40.820312 34.865234 L 41.820312 33.134766 C 42.928312 31.215653 42.274581 28.777922 40.355469 27.669922 L 38.738281 26.736328 A 15 15 0 0 0 39 24 A 15 15 0 0 0 38.738281 21.263672 L 40.355469 20.330078 C 42.274581 19.222078 42.928312 16.784347 41.820312 14.865234 L 40.820312 13.134766 C 39.712312 11.215653 37.274581 10.561922 35.355469 11.669922 L 33.742188 12.601562 A 15 15 0 0 0 29 9.8769531 L 29 8 C 29 5.784 27.216 4 25 4 L 23 4 z "
     id="rect4180" />
  <rect
     style="fill:#e4e4e4;fill-opacity:1"
     width="10"
     height="16"
     x="19"
     y="28"
     rx="4"
     ry="4"
     id="rect4150" />
  <rect
     style="opacity:0.3"
     width="4"
     height="12"
     x="22"
     y="30"
     rx="2"
     ry="2"
     id="rect4152" />
  <path
     inkscape:connector-curvature="0"
     d="m 28,15.839843 0,9.160156 -4,2 -4,-2 0,-9.152344 a 10,10 0 0 0 -6,9.152344 10,10 0 0 0 10,10 10,10 0 0 0 10,-10 10,10 0 0 0 -6,-9.160156 z"
     style="opacity:0.2"
     id="path4154" />
  <path
     inkscape:connector-curvature="0"
     style="fill:#ffffff;fill-opacity:1"
     d="m 28,14.839843 0,7.160156 -4,3 -4,-3 0,-7.152344 c -3.64001,1.588627 -5.994912,5.180772 -6,9.152344 0,5.522847 4.477153,10 10,10 5.522847,0 10,-4.477153 10,-10 -0.002,-3.974408 -2.357394,-7.570393 -6,-9.160156 z"
     id="path4156" />
  <path
     inkscape:connector-curvature="0"
     style="opacity:0.1;fill:#ffffff"
     d="m 28,14.839843 0,1 c 3.465999,1.512685 5.761859,4.842779 5.978516,8.585937 C 33.984533,24.283376 34,24.143883 34,23.999999 33.998,20.025591 31.642606,16.429606 28,14.839843 Z m -8,0.0078 c -3.64001,1.588627 -5.994912,5.180772 -6,9.152344 0,0.143884 0.01547,0.283377 0.02148,0.425781 C 14.240752,20.685406 16.536471,17.359259 20,15.847655 l 0,-1 z m 0,7.152344 0,1 4,3 4,-3 0,-1 -4,3 -4,-3 z"
     id="path4158" />
  <path
     style="fill:#ffffff;fill-opacity:1;opacity:0.1"
     d="M 23 4 C 20.784 4 19 5.784 19 8 L 19 9 C 19 6.784 20.784 5 23 5 L 25 5 C 27.216 5 29 6.784 29 9 L 29 8 C 29 5.784 27.216 4 25 4 L 23 4 z M 19 9.875 A 15 15 0 0 0 14.269531 12.607422 L 12.644531 11.669922 C 10.725419 10.561922 8.2876875 11.215653 7.1796875 13.134766 L 6.1796875 14.865234 C 5.7305343 15.643191 5.5848568 16.504801 5.6816406 17.330078 C 5.7499491 16.829005 5.910442 16.331581 6.1796875 15.865234 L 7.1796875 14.134766 C 8.2876875 12.215653 10.725419 11.561922 12.644531 12.669922 L 14.269531 13.607422 A 15 15 0 0 1 19 10.875 L 19 9.875 z M 29 9.8769531 L 29 10.876953 A 15 15 0 0 1 33.742188 13.601562 L 35.355469 12.669922 C 37.274581 11.561922 39.712313 12.215653 40.820312 14.134766 L 41.820312 15.865234 C 42.089558 16.331581 42.250051 16.829005 42.318359 17.330078 C 42.415143 16.504801 42.269466 15.643191 41.820312 14.865234 L 40.820312 13.134766 C 39.712312 11.215653 37.274581 10.561922 35.355469 11.669922 L 33.742188 12.601562 A 15 15 0 0 0 29 9.8769531 z M 38.873047 22.185547 L 38.738281 22.263672 A 15 15 0 0 1 38.974609 24.541016 A 15 15 0 0 0 39 24 A 15 15 0 0 0 38.873047 22.185547 z M 9.1328125 22.189453 A 15 15 0 0 0 9 24 A 15 15 0 0 0 9.0253906 24.458984 A 15 15 0 0 1 9.2617188 22.263672 L 9.1328125 22.189453 z M 38.867188 26.810547 A 15 15 0 0 1 38.738281 27.736328 L 40.355469 28.669922 C 41.496625 29.328769 42.176391 30.459353 42.318359 31.669922 C 42.531154 30.108977 41.808234 28.508676 40.355469 27.669922 L 38.867188 26.810547 z M 9.1269531 26.814453 L 7.6445312 27.669922 C 6.1917659 28.508676 5.4688459 30.108977 5.6816406 31.669922 C 5.8236094 30.459353 6.5033752 29.328769 7.6445312 28.669922 L 9.2617188 27.736328 A 15 15 0 0 1 9.1269531 26.814453 z "
     id="path4204" />
</svg>
