<?xml version="1.0" encoding="UTF-8" standalone="no"?>
<svg
   xmlns:dc="http://purl.org/dc/elements/1.1/"
   xmlns:cc="http://creativecommons.org/ns#"
   xmlns:rdf="http://www.w3.org/1999/02/22-rdf-syntax-ns#"
   xmlns:svg="http://www.w3.org/2000/svg"
   xmlns="http://www.w3.org/2000/svg"
   xmlns:sodipodi="http://sodipodi.sourceforge.net/DTD/sodipodi-0.dtd"
   xmlns:inkscape="http://www.inkscape.org/namespaces/inkscape"
   width="48"
   height="48"
   version="1"
   id="svg2"
   inkscape:version="0.91 r13725"
   sodipodi:docname="google-goggles.svg">
  <metadata
     id="metadata18">
    <rdf:RDF>
      <cc:Work
         rdf:about="">
        <dc:format>image/svg+xml</dc:format>
        <dc:type
           rdf:resource="http://purl.org/dc/dcmitype/StillImage" />
        <dc:title />
      </cc:Work>
    </rdf:RDF>
  </metadata>
  <defs
     id="defs16" />
  <sodipodi:namedview
     pagecolor="#ffffff"
     bordercolor="#666666"
     borderopacity="1"
     objecttolerance="10"
     gridtolerance="10"
     guidetolerance="10"
     inkscape:pageopacity="0"
     inkscape:pageshadow="2"
     inkscape:window-width="1920"
     inkscape:window-height="1018"
     id="namedview14"
     showgrid="true"
     inkscape:zoom="7.03"
     inkscape:cx="-12.843956"
     inkscape:cy="22.726333"
     inkscape:window-x="0"
     inkscape:window-y="32"
     inkscape:window-maximized="1"
     inkscape:current-layer="svg2"
     inkscape:object-nodes="true">
    <inkscape:grid
       type="xygrid"
       id="grid4168" />
  </sodipodi:namedview>
  <rect
     style="opacity:0.2;fill:#000000;fill-opacity:1"
     id="rect4171"
     transform="matrix(0,-1,-1,0,0,0)"
     ry="1.8"
     rx="1.8"
     y="-42"
     x="-43"
     height="36"
     width="36" />
  <rect
     width="36"
     height="36"
     x="-42"
     y="-42"
     rx="1.8"
     ry="1.8"
     transform="matrix(0,-1,-1,0,0,0)"
     id="rect4"
     style="fill:#586cd7;fill-opacity:1" />
  <path
     style="fill:#ffffff;fill-opacity:1;opacity:0.1"
     d="M 7.8007812 6 C 6.8035813 6 6 6.8035813 6 7.8007812 L 6 8.8007812 C 6 7.8035813 6.8035813 7 7.8007812 7 L 40.199219 7 C 41.196419 7 42 7.8035813 42 8.8007812 L 42 7.8007812 C 42 6.8035813 41.196419 6 40.199219 6 L 7.8007812 6 z "
     id="rect4175" />
  <path
     inkscape:connector-curvature="0"
     id="path4173"
     d="m 6,16 c -1.108,0 -2,0.892 -2,2 l 0,14 c 0,1.108 0.892,2 2,2 l 8.96875,0 C 18.999806,34 20,29 24,29 c 4,0 5.000194,5 9.03125,5 L 42,34 c 1.108,0 2,-0.892 2,-2 l 0,-14 c 0,-1.108 -0.892,-2 -2,-2 L 24,16 6,16 Z"
     style="opacity:0.2;fill:#000000;fill-opacity:1;fill-rule:evenodd;stroke:none;stroke-width:8;stroke-linecap:round;stroke-linejoin:round;stroke-miterlimit:4;stroke-dasharray:none;stroke-opacity:1" />
  <path
     style="opacity:1;fill:#e4e4e4;fill-opacity:1;fill-rule:evenodd;stroke:none;stroke-width:8;stroke-linecap:round;stroke-linejoin:round;stroke-miterlimit:4;stroke-dasharray:none;stroke-opacity:1"
     d="m 6,15 c -1.108,0 -2,0.892 -2,2 l 0,14 c 0,1.108 0.892,2 2,2 l 8.96875,0 C 18.999806,33 20,28 24,28 c 4,0 5.000194,5 9.03125,5 L 42,33 c 1.108,0 2,-0.892 2,-2 l 0,-14 c 0,-1.108 -0.892,-2 -2,-2 L 24,15 6,15 Z"
     id="rect4158"
     inkscape:connector-curvature="0" />
  <path
     style="opacity:1;fill:#16aef6;fill-opacity:1;fill-rule:evenodd;stroke:none;stroke-width:8;stroke-linecap:round;stroke-linejoin:round;stroke-miterlimit:4;stroke-dasharray:none;stroke-opacity:1"
     d="m 4,18 0,12 9,0 a 6,6 0 0 0 6,-6 6,6 0 0 0 -6,-6 l -9,0 z"
     id="path4164"
     inkscape:connector-curvature="0" />
  <path
     id="path4169"
     d="m 44,18 0,12 -9,0 a 6,6 0 0 1 -6,-6 6,6 0 0 1 6,-6 l 9,0 z"
     style="opacity:1;fill:#da4b38;fill-opacity:1;fill-rule:evenodd;stroke:none;stroke-width:8;stroke-linecap:round;stroke-linejoin:round;stroke-miterlimit:4;stroke-dasharray:none;stroke-opacity:1"
     inkscape:connector-curvature="0" />
  <path
     inkscape:connector-curvature="0"
     style="opacity:0.2;fill:#ffffff;fill-opacity:1;fill-rule:evenodd;stroke:none;stroke-width:8;stroke-linecap:round;stroke-linejoin:round;stroke-miterlimit:4;stroke-dasharray:none;stroke-opacity:1"
     d="m 6,15 c -1.108,0 -2,0.892 -2,2 l 0,1 c 0,-1.108 0.892,-2 2,-2 l 18,0 18,0 c 1.108,0 2,0.892 2,2 l 0,-1 c 0,-1.108 -0.892,-2 -2,-2 L 24,15 6,15 Z"
     id="path4177" />
</svg>
