<?xml version="1.0" encoding="UTF-8" standalone="no"?>
<svg
   xmlns:dc="http://purl.org/dc/elements/1.1/"
   xmlns:cc="http://creativecommons.org/ns#"
   xmlns:rdf="http://www.w3.org/1999/02/22-rdf-syntax-ns#"
   xmlns:svg="http://www.w3.org/2000/svg"
   xmlns="http://www.w3.org/2000/svg"
   xmlns:sodipodi="http://sodipodi.sourceforge.net/DTD/sodipodi-0.dtd"
   xmlns:inkscape="http://www.inkscape.org/namespaces/inkscape"
   height="48"
   width="48"
   version="1"
   id="svg22"
   sodipodi:docname="google-spotlightstories.svg"
   inkscape:version="0.92.2 5c3e80d, 2017-08-06">
  <metadata
     id="metadata28">
    <rdf:RDF>
      <cc:Work
         rdf:about="">
        <dc:format>image/svg+xml</dc:format>
        <dc:type
           rdf:resource="http://purl.org/dc/dcmitype/StillImage" />
        <dc:title></dc:title>
      </cc:Work>
    </rdf:RDF>
  </metadata>
  <defs
     id="defs26" />
  <sodipodi:namedview
     pagecolor="#ffffff"
     bordercolor="#666666"
     borderopacity="1"
     objecttolerance="10"
     gridtolerance="10"
     guidetolerance="10"
     inkscape:pageopacity="0"
     inkscape:pageshadow="2"
     inkscape:window-width="1854"
     inkscape:window-height="1016"
     id="namedview24"
     showgrid="true"
     inkscape:zoom="12.93"
     inkscape:cx="15.348044"
     inkscape:cy="23.208354"
     inkscape:window-x="66"
     inkscape:window-y="30"
     inkscape:window-maximized="1"
     inkscape:current-layer="svg22">
    <inkscape:grid
       type="xygrid"
       id="grid923" />
  </sodipodi:namedview>
  <path
     id="path928"
     d="M 9.0292969,23 1.2011719,41.871094 A 1.4988504,2.0859308 0 0 0 2.4980469,45 H 24 45.501953 a 1.4988504,2.0859308 0 0 0 1.296875,-3.128906 L 38.970703,23 Z"
     style="color:#000000;font-style:normal;font-variant:normal;font-weight:normal;font-stretch:normal;font-size:medium;line-height:normal;font-family:sans-serif;font-variant-ligatures:normal;font-variant-position:normal;font-variant-caps:normal;font-variant-numeric:normal;font-variant-alternates:normal;font-feature-settings:normal;text-indent:0;text-align:start;text-decoration:none;text-decoration-line:none;text-decoration-style:solid;text-decoration-color:#000000;letter-spacing:normal;word-spacing:normal;text-transform:none;writing-mode:lr-tb;direction:ltr;text-orientation:mixed;dominant-baseline:auto;baseline-shift:baseline;text-anchor:start;white-space:normal;shape-padding:0;clip-rule:nonzero;display:inline;overflow:visible;visibility:visible;opacity:0.2;isolation:auto;mix-blend-mode:normal;color-interpolation:sRGB;color-interpolation-filters:linearRGB;solid-color:#000000;solid-opacity:1;vector-effect:none;fill:#000000;fill-opacity:1;fill-rule:nonzero;stroke:none;stroke-width:3.53602767;stroke-linecap:round;stroke-linejoin:round;stroke-miterlimit:4;stroke-dasharray:none;stroke-dashoffset:0;stroke-opacity:1;color-rendering:auto;image-rendering:auto;shape-rendering:auto;text-rendering:auto;enable-background:accumulate"
     inkscape:connector-curvature="0" />
  <path
     style="fill:#3f3f3f;fill-opacity:1"
     d="M 41.040816,40.77551 44,34.326531 V 6 C 44,4.892 43.108,4 42,4 H 6 C 4.892,4 4,4.892 4,6 v 28.428571 l 2.244898,6.551021 c 0.3591843,1.048165 2.8307824,1.697809 3.938775,1.693877 l 28.755103,-0.10204 c 1.107993,-0.0039 1.639948,-0.788876 2.10204,-1.795919 z"
     id="rect2"
     inkscape:connector-curvature="0"
     sodipodi:nodetypes="scsssscssss" />
  <path
     style="color:#000000;font-style:normal;font-variant:normal;font-weight:normal;font-stretch:normal;font-size:medium;line-height:normal;font-family:sans-serif;font-variant-ligatures:normal;font-variant-position:normal;font-variant-caps:normal;font-variant-numeric:normal;font-variant-alternates:normal;font-feature-settings:normal;text-indent:0;text-align:start;text-decoration:none;text-decoration-line:none;text-decoration-style:solid;text-decoration-color:#000000;letter-spacing:normal;word-spacing:normal;text-transform:none;writing-mode:lr-tb;direction:ltr;text-orientation:mixed;dominant-baseline:auto;baseline-shift:baseline;text-anchor:start;white-space:normal;shape-padding:0;clip-rule:nonzero;display:inline;overflow:visible;visibility:visible;opacity:1;isolation:auto;mix-blend-mode:normal;color-interpolation:sRGB;color-interpolation-filters:linearRGB;solid-color:#000000;solid-opacity:1;vector-effect:none;fill:#f4a600;fill-opacity:1;fill-rule:nonzero;stroke:none;stroke-width:3.53602767;stroke-linecap:round;stroke-linejoin:round;stroke-miterlimit:4;stroke-dasharray:none;stroke-dashoffset:0;stroke-opacity:1;color-rendering:auto;image-rendering:auto;shape-rendering:auto;text-rendering:auto;enable-background:accumulate"
     d="M 9.0292969 22 L 1.2011719 40.871094 A 1.4988504 2.0859308 0 0 0 2.4980469 44 L 24 44 L 45.501953 44 A 1.4988504 2.0859308 0 0 0 46.798828 40.871094 L 38.970703 22 L 9.0292969 22 z "
     id="path920" />
  <path
     sodipodi:nodetypes="ccccc"
     inkscape:connector-curvature="0"
     id="path851"
     d="m 20,22 h 8 l 9,22 H 11 Z"
     style="opacity:1;fill:#ffd52d;fill-opacity:1;stroke:none;stroke-width:1.70007288;stroke-linecap:round;stroke-linejoin:round;stroke-miterlimit:4;stroke-dasharray:none;stroke-opacity:1" />
  <path
     inkscape:connector-curvature="0"
     style="opacity:0.2;fill:#ffffff;fill-opacity:1;stroke:none;stroke-width:1.70007288;stroke-linecap:round;stroke-linejoin:round;stroke-miterlimit:4;stroke-dasharray:none;stroke-opacity:1"
     d="m 20,22 -9,22 h 0.408203 L 20,23 h 8 l 8.591797,21 H 37 L 28,22 Z"
     id="path857" />
  <circle
     r="4"
     cy="23"
     cx="24"
     id="circle867"
     style="opacity:0.2;fill:#000000;fill-opacity:1;stroke:none;stroke-width:0.30830935;stroke-linecap:round;stroke-linejoin:round;stroke-miterlimit:4;stroke-dasharray:none;stroke-opacity:1" />
  <circle
     style="opacity:1;fill:#ffffff;fill-opacity:1;stroke:none;stroke-width:0.30830935;stroke-linecap:round;stroke-linejoin:round;stroke-miterlimit:4;stroke-dasharray:none;stroke-opacity:1"
     id="path835"
     cx="24"
     cy="22"
     r="4" />
  <path
     inkscape:connector-curvature="0"
     d="M 6,4 C 4.892,4 4,4.892 4,6 V 7 C 4,5.892 4.892,5 6,5 h 36 c 1.108,0 2,0.892 2,2 V 6 C 44,4.892 43.108,4 42,4 Z"
     id="path4"
     style="opacity:0.1;fill:#ffffff" />
  <path
     style="opacity:1;fill:#e94a41;fill-opacity:1;stroke:none;stroke-width:0.28551722;stroke-linecap:round;stroke-linejoin:round;stroke-miterlimit:4;stroke-dasharray:none;stroke-opacity:1"
     d="M 24,4 C 24,4 20.695949,12.203262 18,15.400391 15.397896,18.486232 9,22 9,22 H 24 39 C 39,22 32.602104,18.486232 30,15.400391 27.304051,12.203262 24,4 24,4 Z"
     id="path832"
     inkscape:connector-curvature="0"
     sodipodi:nodetypes="cscccsc" />
  <path
     inkscape:connector-curvature="0"
     style="opacity:0.2;fill:#ffffff;fill-opacity:1;stroke:none;stroke-width:0.28551722;stroke-linecap:round;stroke-linejoin:round;stroke-miterlimit:4;stroke-dasharray:none;stroke-opacity:1"
     d="M 24,4 C 24,4 20.695949,12.203262 18,15.400391 15.397896,18.486232 9,22 9,22 h 1.6875 C 12.755799,20.75141 16.217836,18.513863 18,16.400391 20.695949,13.203262 24,5 24,5 24,5 27.304051,13.203262 30,16.400391 31.782164,18.513863 35.244201,20.75141 37.3125,22 H 39 C 39,22 32.602104,18.486232 30,15.400391 27.304051,12.203262 24,4 24,4 Z"
     id="path859" />
</svg>
