<?xml version="1.0" encoding="UTF-8" standalone="no"?>
<svg
   xmlns:dc="http://purl.org/dc/elements/1.1/"
   xmlns:cc="http://creativecommons.org/ns#"
   xmlns:rdf="http://www.w3.org/1999/02/22-rdf-syntax-ns#"
   xmlns:svg="http://www.w3.org/2000/svg"
   xmlns="http://www.w3.org/2000/svg"
   xmlns:sodipodi="http://sodipodi.sourceforge.net/DTD/sodipodi-0.dtd"
   xmlns:inkscape="http://www.inkscape.org/namespaces/inkscape"
   width="48"
   height="48"
   version="1"
   id="svg2"
   inkscape:version="0.91 r13725"
   sodipodi:docname="google-play-game.svg">
  <metadata
     id="metadata44">
    <rdf:RDF>
      <cc:Work
         rdf:about="">
        <dc:format>image/svg+xml</dc:format>
        <dc:type
           rdf:resource="http://purl.org/dc/dcmitype/StillImage" />
      </cc:Work>
    </rdf:RDF>
  </metadata>
  <defs
     id="defs42" />
  <sodipodi:namedview
     pagecolor="#ffffff"
     bordercolor="#666666"
     borderopacity="1"
     objecttolerance="10"
     gridtolerance="10"
     guidetolerance="10"
     inkscape:pageopacity="0"
     inkscape:pageshadow="2"
     inkscape:window-width="1920"
     inkscape:window-height="1018"
     id="namedview40"
     showgrid="false"
     inkscape:zoom="13.01"
     inkscape:cx="29.276799"
     inkscape:cy="24"
     inkscape:window-x="0"
     inkscape:window-y="32"
     inkscape:window-maximized="1"
     inkscape:current-layer="svg2" />
  <path
     opacity=".2"
     d="m14.053 9c-4.9768 0-8.7209 4.0039-8.9824 8.9629l-0.9983 18.922c-0.6298 3.7 2.9673 6.0372 5.9902 1.9922l5.2344-7.8359c0.23039 0.01766 0.46028 0.03711 0.69531 0.03711h15.988l5.9941 8.0488c2.9976 4.0243 6.3771 0.71189 5.9961-2.0117l-0.985-18.836c0.004-0.105 0.016-0.209 0.016-0.316 0-4.965-4.0064-8.9629-8.9824-8.9629h-19.963-0.002z"
     id="path4" />
  <path
     fill="#4f4f4f"
     d="m14.053 8c-4.9771 0-8.7212 4.004-8.9827 8.963l-0.998 18.922c-0.6298 3.7 2.9673 6.037 5.9897 1.992l5.235-7.836c0.23 0.018 0.46 0.037 0.695 0.037h15.988l5.995 8.049c2.997 4.024 6.377 0.712 5.996-2.012l-0.987-18.836c0.004-0.105 0.016-0.209 0.016-0.316 0-4.965-4.006-8.963-8.982-8.963h-19.963-0.002z"
     id="path6"
     style="fill:#6e9e43;fill-opacity:1" />
  <circle
     r="6.5"
     cy="18.5"
     cx="14.5"
     id="circle4159"
     style="opacity:0.2;fill:#000000;fill-opacity:1;fill-rule:evenodd;stroke:none;stroke-width:3;stroke-linecap:round;stroke-linejoin:round;stroke-miterlimit:4;stroke-dasharray:none;stroke-opacity:1" />
  <circle
     style="opacity:1;fill:#ffffff;fill-opacity:1;fill-rule:evenodd;stroke:none;stroke-width:3;stroke-linecap:round;stroke-linejoin:round;stroke-miterlimit:4;stroke-dasharray:none;stroke-opacity:1"
     id="path4150"
     cx="14.5"
     cy="17.5"
     r="6.5" />
  <path
     d="M 33.519531 14 A 1.5 1.5 0 0 0 32.019531 15.5 A 1.5 1.5 0 0 0 33.519531 17 A 1.5 1.5 0 0 0 35.019531 15.5 A 1.5 1.5 0 0 0 33.519531 14 z M 30.519531 17 A 1.5 1.5 0 0 0 29.019531 18.5 A 1.5 1.5 0 0 0 30.519531 20 A 1.5 1.5 0 0 0 32.019531 18.5 A 1.5 1.5 0 0 0 30.519531 17 z M 36.519531 17 A 1.5 1.5 0 0 0 35.019531 18.5 A 1.5 1.5 0 0 0 36.519531 20 A 1.5 1.5 0 0 0 38.019531 18.5 A 1.5 1.5 0 0 0 36.519531 17 z M 33.519531 20 A 1.5 1.5 0 0 0 32.019531 21.5 A 1.5 1.5 0 0 0 33.519531 23 A 1.5 1.5 0 0 0 35.019531 21.5 A 1.5 1.5 0 0 0 33.519531 20 z "
     id="circle10"
     style="fill:#000000;fill-opacity:1;opacity:0.1" />
  <g
     fill="#e4e4e4"
     id="g22"
     style="fill:#3f3f3f;fill-opacity:1">
    <rect
       width="3"
       height="9"
       x="13.02"
       y="12.93"
       ry="0"
       id="rect24"
       style="fill:#3f3f3f;fill-opacity:1" />
    <rect
       width="3"
       height="9"
       x="15.93"
       y="-19.02"
       ry="0"
       transform="rotate(90)"
       id="rect26"
       style="fill:#3f3f3f;fill-opacity:1" />
  </g>
  <circle
     fill="#ffca58"
     cx="36.52"
     cy="17.43"
     r="1.5"
     id="circle28"
     style="fill:#3f3f3f;fill-opacity:1" />
  <g
     fill="#ee5353"
     id="g30"
     style="fill:#3f3f3f;fill-opacity:1">
    <circle
       cx="30.52"
       cy="17.43"
       r="1.5"
       id="circle32"
       style="fill:#3f3f3f;fill-opacity:1" />
    <circle
       cx="14.43"
       cy="-33.52"
       r="1.5"
       transform="rotate(90)"
       id="circle34"
       style="fill:#3f3f3f;fill-opacity:1" />
  </g>
  <circle
     fill="#ffca58"
     cx="20.43"
     cy="-33.52"
     r="1.5"
     transform="rotate(90)"
     id="circle36"
     style="fill:#3f3f3f;fill-opacity:1" />
  <path
     fill="#fff"
     opacity=".1"
     d="m14.052 8c-4.9771 0-8.7224 4.1075-8.984 9.1939l-0.9985 19.409c-0.0819 0.494-0.0876 0.962-0.037 1.397 0.0118-0.125 0.0158-0.247 0.037-0.375l0.9982-19.41c0.2616-5.086 4.0069-9.1935 8.9843-9.1935h19.964c4.817 0 8.7141 3.8445 8.9606 8.7091 0.01-0.1782 0.02336-0.35587 0.02336-0.53671 0-5.0934-4.0068-9.1939-8.984-9.1939h-19.964z"
     id="path38" />
</svg>
