<?xml version="1.0" encoding="UTF-8" standalone="no"?>
<svg
   xmlns:dc="http://purl.org/dc/elements/1.1/"
   xmlns:cc="http://creativecommons.org/ns#"
   xmlns:rdf="http://www.w3.org/1999/02/22-rdf-syntax-ns#"
   xmlns:svg="http://www.w3.org/2000/svg"
   xmlns="http://www.w3.org/2000/svg"
   xmlns:sodipodi="http://sodipodi.sourceforge.net/DTD/sodipodi-0.dtd"
   xmlns:inkscape="http://www.inkscape.org/namespaces/inkscape"
   width="48"
   height="48"
   version="1"
   id="svg2"
   inkscape:version="0.91 r13725"
   sodipodi:docname="google-trips.svg">
  <metadata
     id="metadata18">
    <rdf:RDF>
      <cc:Work
         rdf:about="">
        <dc:format>image/svg+xml</dc:format>
        <dc:type
           rdf:resource="http://purl.org/dc/dcmitype/StillImage" />
        <dc:title />
      </cc:Work>
    </rdf:RDF>
  </metadata>
  <defs
     id="defs16" />
  <sodipodi:namedview
     pagecolor="#ffffff"
     bordercolor="#666666"
     borderopacity="1"
     objecttolerance="10"
     gridtolerance="10"
     guidetolerance="10"
     inkscape:pageopacity="0"
     inkscape:pageshadow="2"
     inkscape:window-width="1920"
     inkscape:window-height="1018"
     id="namedview14"
     showgrid="false"
     inkscape:zoom="9.8603159"
     inkscape:cx="2.2889412"
     inkscape:cy="24"
     inkscape:window-x="0"
     inkscape:window-y="32"
     inkscape:window-maximized="1"
     inkscape:current-layer="svg2">
    <inkscape:grid
       type="xygrid"
       id="grid4171" />
  </sodipodi:namedview>
  <path
     id="path4193"
     d="m 24,6 a 8,8 0 0 0 -8,8 8,8 0 0 0 8,8 8,8 0 0 0 8,-8 8,8 0 0 0 -8,-8 z m 0,4 a 4,4 0 0 1 4,4 4,4 0 0 1 -4,4 4,4 0 0 1 -4,-4 4,4 0 0 1 4,-4 z"
     style="opacity:0.2;fill:#000000;fill-opacity:1;stroke:none;stroke-width:4;stroke-linecap:round;stroke-linejoin:round;stroke-miterlimit:4;stroke-dasharray:none;stroke-opacity:1"
     inkscape:connector-curvature="0" />
  <rect
     style="opacity:0.2;fill:#000000;fill-opacity:1"
     width="30"
     height="40"
     x="-44"
     y="-44"
     rx="4"
     ry="4"
     transform="matrix(0,-1,-1,0,0,0)"
     id="rect4182" />
  <path
     style="opacity:1;fill:#4f4f4f;fill-opacity:1;stroke:none;stroke-width:4;stroke-linecap:round;stroke-linejoin:round;stroke-miterlimit:4;stroke-dasharray:none;stroke-opacity:1"
     d="M 24 5 A 8 8 0 0 0 16 13 A 8 8 0 0 0 24 21 A 8 8 0 0 0 32 13 A 8 8 0 0 0 24 5 z M 24 9 A 4 4 0 0 1 28 13 A 4 4 0 0 1 24 17 A 4 4 0 0 1 20 13 A 4 4 0 0 1 24 9 z "
     id="path4159" />
  <path
     style="opacity:0.1;fill:#ffffff;fill-opacity:1;stroke:none;stroke-width:4;stroke-linecap:round;stroke-linejoin:round;stroke-miterlimit:4;stroke-dasharray:none;stroke-opacity:1"
     d="M 24 5 A 8 8 0 0 0 16 13 A 8 8 0 0 0 16.021484 13.423828 A 8 8 0 0 1 24 6 A 8 8 0 0 1 31.978516 13.576172 A 8 8 0 0 0 32 13 A 8 8 0 0 0 24 5 z M 20.035156 13.494141 A 4 4 0 0 0 20 14 A 4 4 0 0 0 24 18 A 4 4 0 0 0 28 14 A 4 4 0 0 0 27.964844 13.505859 A 4 4 0 0 1 24 17 A 4 4 0 0 1 20.035156 13.494141 z "
     id="path4195" />
  <rect
     id="rect4146"
     transform="matrix(0,-1,-1,0,0,0)"
     ry="4"
     rx="4"
     y="-44"
     x="-43"
     height="40"
     width="30"
     style="opacity:1;fill:#08bed5;fill-opacity:1" />
  <rect
     style="opacity:1;fill:#ffffff;fill-opacity:1;stroke:none;stroke-width:4;stroke-linecap:round;stroke-linejoin:round;stroke-miterlimit:4;stroke-dasharray:none;stroke-opacity:1"
     id="rect4176"
     width="4"
     height="30"
     x="10"
     y="13" />
  <path
     inkscape:connector-curvature="0"
     id="path4184"
     d="m 10,21 c -1.108,0 -2,0.892 -2,2 l 0,4 c 0,1.108 0.892,2 2,2 l 4,0 c 1.108,0 2,-0.892 2,-2 l 0,-4 c 0,-1.108 -0.892,-2 -2,-2 l -4,0 z m 0,2 4,0 0,4 -1,0 0,-1 c 0,-0.554 -0.446,-1 -1,-1 -0.554,0 -1,0.446 -1,1 l 0,1 -1,0 0,-4 z"
     style="opacity:0.1;fill:#000000;fill-opacity:1;stroke:none;stroke-width:4;stroke-linecap:round;stroke-linejoin:round;stroke-miterlimit:4;stroke-dasharray:none;stroke-opacity:1" />
  <path
     style="opacity:1;fill:#4f4f4f;fill-opacity:1;stroke:none;stroke-width:4;stroke-linecap:round;stroke-linejoin:round;stroke-miterlimit:4;stroke-dasharray:none;stroke-opacity:1"
     d="m 10,20 c -1.108,0 -2,0.892 -2,2 l 0,4 c 0,1.108 0.892,2 2,2 l 4,0 c 1.108,0 2,-0.892 2,-2 l 0,-4 c 0,-1.108 -0.892,-2 -2,-2 l -4,0 z m 0,2 4,0 0,4 -1,0 0,-1 c 0,-0.554 -0.446,-1 -1,-1 -0.554,0 -1,0.446 -1,1 l 0,1 -1,0 0,-4 z"
     id="rect4164"
     inkscape:connector-curvature="0" />
  <rect
     y="13"
     x="33.999996"
     height="30"
     width="4"
     id="rect4178"
     style="opacity:1;fill:#ffffff;fill-opacity:1;stroke:none;stroke-width:4;stroke-linecap:round;stroke-linejoin:round;stroke-miterlimit:4;stroke-dasharray:none;stroke-opacity:1" />
  <path
     style="opacity:0.1;fill:#000000;fill-opacity:1;stroke:none;stroke-width:4;stroke-linecap:round;stroke-linejoin:round;stroke-miterlimit:4;stroke-dasharray:none;stroke-opacity:1"
     d="m 34,21 c -1.108,0 -2,0.892 -2,2 l 0,4 c 0,1.108 0.892,2 2,2 l 4,0 c 1.108,0 2,-0.892 2,-2 l 0,-4 c 0,-1.108 -0.892,-2 -2,-2 l -4,0 z m 0,2 4,0 0,4 -1,0 0,-1 c 0,-0.554 -0.446,-1 -1,-1 -0.554,0 -1,0.446 -1,1 l 0,1 -1,0 0,-4 z"
     id="path4186"
     inkscape:connector-curvature="0" />
  <path
     inkscape:connector-curvature="0"
     id="path4180"
     d="m 34,20 c -1.108,0 -2,0.892 -2,2 l 0,4 c 0,1.108 0.892,2 2,2 l 4,0 c 1.108,0 2,-0.892 2,-2 l 0,-4 c 0,-1.108 -0.892,-2 -2,-2 l -4,0 z m 0,2 4,0 0,4 -1,0 0,-1 c 0,-0.554 -0.446,-1 -1,-1 -0.554,0 -1,0.446 -1,1 l 0,1 -1,0 0,-4 z"
     style="opacity:1;fill:#4f4f4f;fill-opacity:1;stroke:none;stroke-width:4;stroke-linecap:round;stroke-linejoin:round;stroke-miterlimit:4;stroke-dasharray:none;stroke-opacity:1" />
  <path
     style="opacity:0.2;fill:#ffffff;fill-opacity:1"
     d="M 8 13 C 5.784 13 4 14.784 4 17 L 4 18 C 4 15.784 5.784 14 8 14 L 40 14 C 42.216 14 44 15.784 44 18 L 44 17 C 44 14.784 42.216 13 40 13 L 8 13 z "
     id="rect4188" />
</svg>
