<?xml version="1.0" encoding="UTF-8" standalone="no"?>
<svg
   xmlns:dc="http://purl.org/dc/elements/1.1/"
   xmlns:cc="http://creativecommons.org/ns#"
   xmlns:rdf="http://www.w3.org/1999/02/22-rdf-syntax-ns#"
   xmlns:svg="http://www.w3.org/2000/svg"
   xmlns="http://www.w3.org/2000/svg"
   xmlns:sodipodi="http://sodipodi.sourceforge.net/DTD/sodipodi-0.dtd"
   xmlns:inkscape="http://www.inkscape.org/namespaces/inkscape"
   width="48"
   height="48"
   version="1.1"
   id="svg2"
   inkscape:version="0.91 r13725"
   sodipodi:docname="google-clock.svg">
  <metadata
     id="metadata32">
    <rdf:RDF>
      <cc:Work
         rdf:about="">
        <dc:format>image/svg+xml</dc:format>
        <dc:type
           rdf:resource="http://purl.org/dc/dcmitype/StillImage" />
        <dc:title></dc:title>
      </cc:Work>
    </rdf:RDF>
  </metadata>
  <defs
     id="defs30" />
  <sodipodi:namedview
     pagecolor="#ffffff"
     bordercolor="#666666"
     borderopacity="1"
     objecttolerance="10"
     gridtolerance="10"
     guidetolerance="10"
     inkscape:pageopacity="0"
     inkscape:pageshadow="2"
     inkscape:window-width="1920"
     inkscape:window-height="1018"
     id="namedview28"
     showgrid="false"
     inkscape:zoom="4.9166667"
     inkscape:cx="24"
     inkscape:cy="24"
     inkscape:window-x="0"
     inkscape:window-y="32"
     inkscape:window-maximized="1"
     inkscape:current-layer="svg2" />
  <path
     inkscape:connector-curvature="0"
     d="M 24,5.0000004 C 12.964693,5.0000004 4,13.96469 4,25 4,36.03531 12.964693,45.000003 24,45 35.035307,45 44.00001,36.03531 44,25 44,13.96469 35.035307,5.0000004 24,5.0000004 Z"
     style="opacity:0.2"
     id="path4" />
  <path
     inkscape:connector-curvature="0"
     style="fill:#e4e4e4;fill-opacity:1"
     d="M 24,4.0000004 C 12.964693,4.0000004 4,12.96469 4,24 4,35.03531 12.964693,44.000003 24,44 35.035307,44 44.00001,35.03531 44,24 44,12.96469 35.035307,4.0000004 24,4.0000004 Z"
     id="path6" />
  <path
     inkscape:connector-curvature="0"
     d="M 24,4 C 12.964693,4 4,12.96469 4,24 4,24.167832 4.0076,24.33315 4.011719,24.5 4.2786829,13.696117 13.132525,5 24,5 34.867475,5 43.721317,13.696117 43.988281,24.5 43.992404,24.33315 44,24.167832 44,24 44,12.96469 35.035307,4 24,4 Z"
     style="opacity:0.1;fill:#ffffff"
     id="path8" />
  <path
     inkscape:connector-curvature="0"
     d="M 24.000001,9.0000001 C 15.171752,9.0000001 8,16.171751 8,24.999999 8,33.828248 15.171752,41.000002 24.000001,41 32.828248,41 40.000006,33.828248 40,24.999999 40,16.171751 32.828248,9.0000001 24.000001,9.0000001 Z"
     style="opacity:0.2"
     id="path10" />
  <path
     inkscape:connector-curvature="0"
     style="fill:#4f8df5;fill-opacity:1"
     d="M 24.000001,8.0000001 C 15.171752,8.0000001 8,15.171751 8,23.999999 8,32.828248 15.171752,40.000002 24.000001,40 32.828248,40 40.000006,32.828248 40,23.999999 40,15.171751 32.828248,8.0000001 24.000001,8.0000001 Z"
     id="path12" />
  <path
     inkscape:connector-curvature="0"
     style="opacity:0.1;fill:#ffffff"
     d="M 24,8 C 15.171751,8 8,15.171752 8,24 8,24.168765 8.020188,24.332484 8.025391,24.5 8.2923691,15.904616 15.340516,9 24,9 32.659482,9 39.707631,15.904616 39.974609,24.5 39.979812,24.332484 40,24.168765 40,24 40,15.171752 32.828247,8 24,8 Z"
     id="path14" />
  <path
     inkscape:connector-curvature="0"
     style="opacity:0.2"
     d="m 24,21 c -2.207062,0 -4,1.792938 -4,4 0,2.207061 1.792938,4 4,4 2.207061,0 4,-1.792939 4,-4 0,-2.207062 -1.792939,-4 -4,-4 z"
     id="path16" />
  <path
     inkscape:connector-curvature="0"
     d="M 24,24.9998 40,8.9997995"
     style="opacity:0.2;fill:none;stroke:#000000;stroke-width:4;stroke-linecap:round;stroke-linejoin:round"
     id="path18" />
  <path
     inkscape:connector-curvature="0"
     style="fill:none;stroke:#ffffff;stroke-width:4;stroke-linecap:round;stroke-linejoin:round;stroke-opacity:1"
     d="M 24,24 40,8"
     id="path20" />
  <path
     inkscape:connector-curvature="0"
     d="m 15,18.9998 9,6"
     style="opacity:0.2;fill:none;stroke:#000000;stroke-width:4;stroke-linecap:round;stroke-linejoin:round"
     id="path22" />
  <path
     inkscape:connector-curvature="0"
     style="fill:none;stroke:#ffffff;stroke-width:4;stroke-linecap:round;stroke-linejoin:round;stroke-opacity:1"
     d="m 15,18 9,6"
     id="path24" />
  <path
     inkscape:connector-curvature="0"
     d="m 24,20 c -2.207062,0 -4,1.792938 -4,4 0,2.207061 1.792938,4 4,4 2.207061,0 4,-1.792939 4,-4 0,-2.207062 -1.792939,-4 -4,-4 z"
     style="fill:#4f4f4f"
     id="path26" />
</svg>
