<?xml version="1.0" encoding="UTF-8" standalone="no"?>
<svg
   xmlns:dc="http://purl.org/dc/elements/1.1/"
   xmlns:cc="http://creativecommons.org/ns#"
   xmlns:rdf="http://www.w3.org/1999/02/22-rdf-syntax-ns#"
   xmlns:svg="http://www.w3.org/2000/svg"
   xmlns="http://www.w3.org/2000/svg"
   xmlns:sodipodi="http://sodipodi.sourceforge.net/DTD/sodipodi-0.dtd"
   xmlns:inkscape="http://www.inkscape.org/namespaces/inkscape"
   height="48"
   width="48"
   version="1"
   id="svg2"
   inkscape:version="0.91 r13725"
   sodipodi:docname="google-input-pinyin.svg">
  <metadata
     id="metadata64">
    <rdf:RDF>
      <cc:Work
         rdf:about="">
        <dc:format>image/svg+xml</dc:format>
        <dc:type
           rdf:resource="http://purl.org/dc/dcmitype/StillImage" />
        <dc:title />
      </cc:Work>
    </rdf:RDF>
  </metadata>
  <defs
     id="defs62" />
  <sodipodi:namedview
     pagecolor="#ffffff"
     bordercolor="#666666"
     borderopacity="1"
     objecttolerance="10"
     gridtolerance="10"
     guidetolerance="10"
     inkscape:pageopacity="0"
     inkscape:pageshadow="2"
     inkscape:window-width="1920"
     inkscape:window-height="1018"
     id="namedview60"
     showgrid="true"
     inkscape:zoom="19.709914"
     inkscape:cx="22.065859"
     inkscape:cy="24"
     inkscape:window-x="0"
     inkscape:window-y="32"
     inkscape:window-maximized="1"
     inkscape:current-layer="svg2"
     showguides="false">
    <inkscape:grid
       type="xygrid"
       id="grid4189" />
  </sodipodi:namedview>
  <rect
     ry="2"
     rx="2"
     transform="matrix(0,-1,-1,0,0,0)"
     height="36"
     width="24"
     y="-42"
     x="-41"
     fill="#5f7c8a"
     id="rect4"
     style="fill:#4f4f4f;fill-opacity:1" />
  <path
     opacity=".2"
     d="m8 17c-1.108 0-2 0.892-2 2v1c0-1.108 0.892-2 2-2h32c1.108 0 2 0.892 2 2v-1c0-1.108-0.892-2-2-2h-32z"
     fill="#fff"
     id="path6"
     style="opacity:0.1" />
  <path
     opacity=".2"
     d="m6 39v1c0 1.108 0.892 2 2 2h32c1.108 0 2-0.892 2-2v-1c0 1.108-0.892 2-2 2h-32c-1.108 0-2-0.892-2-2z"
     id="path8" />
  <path
     opacity=".2"
     d="m34 24a2 2 0 0 1 -2 2 2 2 0 0 1 -2 -2 2 2 0 0 1 2 -2 2 2 0 0 1 2 2z"
     id="path10" />
  <path
     fill="#fff"
     d="m34 23a2 2 0 0 1 -2 2 2 2 0 0 1 -2 -2 2 2 0 0 1 2 -2 2 2 0 0 1 2 2z"
     id="path12" />
  <path
     opacity=".2"
     d="m18 24a2 2 0 0 1 -2 2 2 2 0 0 1 -2 -2 2 2 0 0 1 2 -2 2 2 0 0 1 2 2z"
     id="path14" />
  <path
     fill="#fff"
     d="m18 23a2 2 0 0 1 -2 2 2 2 0 0 1 -2 -2 2 2 0 0 1 2 -2 2 2 0 0 1 2 2z"
     id="path16" />
  <path
     opacity=".2"
     d="m17 7h14c1.108 0 2 0.892 2 2v14c0 3-7 5-9 7-2-2-9-4-9-7v-14c0-1.108 0.892-2 2-2z"
     id="path18" />
  <path
     fill="#10c36e"
     d="m17 6h14c1.108 0 2 0.892 2 2v14c0 3-7 5-9 7-2-2-9-4-9-7v-14c0-1.108 0.892-2 2-2z"
     id="path20"
     style="fill:#15c2d8;fill-opacity:1" />
  <path
     opacity=".2"
     d="m12 24a2 2 0 0 1 -2 2 2 2 0 0 1 -2 -2 2 2 0 0 1 2 -2 2 2 0 0 1 2 2z"
     id="path30" />
  <path
     fill="#fff"
     d="m12 23a2 2 0 0 1 -2 2 2 2 0 0 1 -2 -2 2 2 0 0 1 2 -2 2 2 0 0 1 2 2z"
     id="path32" />
  <path
     opacity=".2"
     d="m40 24a2 2 0 0 1 -2 2 2 2 0 0 1 -2 -2 2 2 0 0 1 2 -2 2 2 0 0 1 2 2z"
     id="path34" />
  <path
     fill="#fff"
     d="m40 23a2 2 0 0 1 -2 2 2 2 0 0 1 -2 -2 2 2 0 0 1 2 -2 2 2 0 0 1 2 2z"
     id="path36" />
  <path
     opacity=".2"
     d="m14 32a2 2 0 0 1 -2 2 2 2 0 0 1 -2 -2 2 2 0 0 1 2 -2 2 2 0 0 1 2 2z"
     id="path38" />
  <path
     fill="#fff"
     d="m14 31a2 2 0 0 1 -2 2 2 2 0 0 1 -2 -2 2 2 0 0 1 2 -2 2 2 0 0 1 2 2z"
     id="path40" />
  <path
     opacity=".2"
     d="m20 32a2 2 0 0 1 -2 2 2 2 0 0 1 -2 -2 2 2 0 0 1 2 -2 2 2 0 0 1 2 2z"
     id="path42" />
  <path
     fill="#fff"
     d="m20 31a2 2 0 0 1 -2 2 2 2 0 0 1 -2 -2 2 2 0 0 1 2 -2 2 2 0 0 1 2 2z"
     id="path44" />
  <path
     opacity=".2"
     d="m26 32a2 2 0 0 1 -2 2 2 2 0 0 1 -2 -2 2 2 0 0 1 2 -2 2 2 0 0 1 2 2z"
     id="path46" />
  <path
     fill="#fff"
     d="m26 31a2 2 0 0 1 -2 2 2 2 0 0 1 -2 -2 2 2 0 0 1 2 -2 2 2 0 0 1 2 2z"
     id="path48" />
  <path
     opacity=".2"
     d="m32 32a2 2 0 0 1 -2 2 2 2 0 0 1 -2 -2 2 2 0 0 1 2 -2 2 2 0 0 1 2 2z"
     id="path50" />
  <path
     fill="#fff"
     d="m32 31a2 2 0 0 1 -2 2 2 2 0 0 1 -2 -2 2 2 0 0 1 2 -2 2 2 0 0 1 2 2z"
     id="path52" />
  <path
     opacity=".2"
     d="m38 32a2 2 0 0 1 -2 2 2 2 0 0 1 -2 -2 2 2 0 0 1 2 -2 2 2 0 0 1 2 2z"
     id="path54" />
  <path
     fill="#fff"
     d="m38 31a2 2 0 0 1 -2 2 2 2 0 0 1 -2 -2 2 2 0 0 1 2 -2 2 2 0 0 1 2 2z"
     id="path56" />
  <rect
     style="opacity:0.2;fill:#000000;fill-opacity:1"
     id="rect4192"
     x="9"
     y="36"
     width="30"
     height="4"
     ry="1"
     rx="1" />
  <rect
     opacity=".2"
     rx="1"
     ry="1"
     height="4"
     width="30"
     y="35"
     x="9"
     id="rect58"
     style="opacity:1;fill:#e4e4e4;fill-opacity:1" />
  <path
     inkscape:connector-curvature="0"
     id="path14-3"
     style="fill:#ffffff"
     d="M 28.046485,9.353516 C 27.692045,10.298616 27.278811,11.17301 26.806251,12 l -3.806641,0 0,1 1.03125,0 0,1.919922 C 24.03085,15.274343 24.00968,15.68496 23.97031,16 l -1.949219,0 0,1 1.832032,0 c -0.2363,2.0872 -1.043575,4.089381 -2.421876,5.113281 L 22.056251,23 c 1.6146,-1.1814 2.560257,-3.4796 2.835937,-6 l 3.097656,0 0,5.941406 1.009766,0 0,-5.941406 2,0 0,-1 -2,0 0,-3 1,0 0,-1 -1.953125,0 c 0.4332,-0.6695 0.865628,-1.424616 1.298828,-2.2910152 L 28.046485,9.353516 Z m -3.544922,0.1777344 -1.179687,0.3554688 c 0.433,0.5512998 0.767906,1.1797718 1.003906,1.8886718 l 1.240234,-0.412109 c -0.2363,-0.6694 -0.591893,-1.280682 -1.064453,-1.8320316 z M 19.021094,10 l 0,2 -2.021485,0 0,1 2.021485,0 0,2.970703 c -0.7482,0.31506 -1.254714,0.630273 -2.121094,0.945313 l 0.414062,1.238281 c 0.708801,-0.27566 1.076932,-0.550502 1.707032,-0.826172 l 0,3.720703 c 0,0.47257 -0.09802,0.708984 -0.294922,0.708984 -0.5513,0 -1.183363,-0.07881 -1.695313,-0.236328 l 0.236328,1.240235 c 0.4726,0.11814 0.98577,0.177734 1.53711,0.177734 0.47255,0 0.707387,-0.117235 0.904297,-0.353515 0.1969,-0.236301 0.294922,-0.649515 0.294922,-1.240235 l 0,-4.607422 1.113281,-0.646484 -0.177735,-1.060547 c -0.511899,0.2363 -0.423546,0.190797 -0.935546,0.466797 l 0,-2.498047 1.996094,0 0,-1 -1.996094,0 0,-2 -0.982422,0 z m 5.988282,3 2.982422,0 0,3 -3.041016,0 c 0.03937,-0.27566 0.05859,-0.626664 0.05859,-0.902344 l 0,-2.097656 z" />
</svg>
