<?xml version="1.0" encoding="UTF-8" standalone="no"?>
<svg
   xmlns:dc="http://purl.org/dc/elements/1.1/"
   xmlns:cc="http://creativecommons.org/ns#"
   xmlns:rdf="http://www.w3.org/1999/02/22-rdf-syntax-ns#"
   xmlns:svg="http://www.w3.org/2000/svg"
   xmlns="http://www.w3.org/2000/svg"
   xmlns:sodipodi="http://sodipodi.sourceforge.net/DTD/sodipodi-0.dtd"
   xmlns:inkscape="http://www.inkscape.org/namespaces/inkscape"
   width="48"
   height="48"
   version="1"
   id="svg2"
   inkscape:version="0.91 r13725"
   sodipodi:docname="google-android-wear.svg">
  <metadata
     id="metadata30">
    <rdf:RDF>
      <cc:Work
         rdf:about="">
        <dc:format>image/svg+xml</dc:format>
        <dc:type
           rdf:resource="http://purl.org/dc/dcmitype/StillImage" />
        <dc:title></dc:title>
      </cc:Work>
    </rdf:RDF>
  </metadata>
  <defs
     id="defs28" />
  <sodipodi:namedview
     pagecolor="#ffffff"
     bordercolor="#666666"
     borderopacity="1"
     objecttolerance="10"
     gridtolerance="10"
     guidetolerance="10"
     inkscape:pageopacity="0"
     inkscape:pageshadow="2"
     inkscape:window-width="1920"
     inkscape:window-height="1018"
     id="namedview26"
     showgrid="false"
     inkscape:zoom="3.99"
     inkscape:cx="24"
     inkscape:cy="32.11333"
     inkscape:window-x="0"
     inkscape:window-y="32"
     inkscape:window-maximized="1"
     inkscape:current-layer="svg2" />
  <rect
     style="opacity:0.2;fill:#000000;fill-opacity:1"
     id="rect4175"
     transform="matrix(0,-1,-1,0,0,0)"
     ry="19"
     rx="19"
     y="-43"
     x="-43.999996"
     height="38"
     width="38" />
  <rect
     width="38"
     height="38"
     x="-43"
     y="-43"
     rx="19"
     ry="19"
     transform="matrix(0,-1,-1,0,0,0)"
     id="rect4"
     style="fill:#09a2ec;fill-opacity:1" />
  <rect
     ry="2"
     rx="2"
     y="14.999996"
     x="14"
     height="20"
     width="20"
     id="rect4181"
     style="opacity:0.2;fill:#000000;fill-opacity:1;fill-rule:evenodd;stroke:none;stroke-width:8;stroke-linecap:round;stroke-linejoin:round;stroke-miterlimit:4;stroke-dasharray:none;stroke-opacity:1" />
  <rect
     ry="2"
     rx="2"
     y="4.9999962"
     x="14"
     height="8"
     width="20"
     id="rect4177"
     style="opacity:0.2;fill:#000000;fill-opacity:1;fill-rule:evenodd;stroke:none;stroke-width:8;stroke-linecap:round;stroke-linejoin:round;stroke-miterlimit:4;stroke-dasharray:none;stroke-opacity:1" />
  <rect
     style="opacity:1;fill:#e4e4e4;fill-opacity:1;fill-rule:evenodd;stroke:none;stroke-width:8;stroke-linecap:round;stroke-linejoin:round;stroke-miterlimit:4;stroke-dasharray:none;stroke-opacity:1"
     id="rect4169"
     width="20"
     height="8"
     x="14"
     y="4"
     rx="2"
     ry="2" />
  <rect
     style="opacity:0.2;fill:#000000;fill-opacity:1;fill-rule:evenodd;stroke:none;stroke-width:8;stroke-linecap:round;stroke-linejoin:round;stroke-miterlimit:4;stroke-dasharray:none;stroke-opacity:1"
     id="rect4179"
     width="20"
     height="8"
     x="14"
     y="37"
     rx="2"
     ry="2" />
  <rect
     ry="2"
     rx="2"
     y="36.000004"
     x="14"
     height="8"
     width="20"
     id="rect4171"
     style="opacity:1;fill:#e4e4e4;fill-opacity:1;fill-rule:evenodd;stroke:none;stroke-width:8;stroke-linecap:round;stroke-linejoin:round;stroke-miterlimit:4;stroke-dasharray:none;stroke-opacity:1" />
  <rect
     style="opacity:1;fill:#e4e4e4;fill-opacity:1;fill-rule:evenodd;stroke:none;stroke-width:8;stroke-linecap:round;stroke-linejoin:round;stroke-miterlimit:4;stroke-dasharray:none;stroke-opacity:1"
     id="rect4173"
     width="20"
     height="20"
     x="14"
     y="14"
     rx="2"
     ry="2" />
  <path
     style="opacity:0.2;fill:#ffffff;fill-opacity:1;fill-rule:evenodd;stroke:none;stroke-width:8;stroke-linecap:round;stroke-linejoin:round;stroke-miterlimit:4;stroke-dasharray:none;stroke-opacity:1"
     d="M 16 4 C 14.892 4 14 4.892 14 6 L 14 7 C 14 5.892 14.892 5 16 5 L 32 5 C 33.108 5 34 5.892 34 7 L 34 6 C 34 4.892 33.108 4 32 4 L 16 4 z "
     id="rect4183" />
  <path
     style="opacity:0.2;fill:#ffffff;fill-opacity:1;fill-rule:evenodd;stroke:none;stroke-width:8;stroke-linecap:round;stroke-linejoin:round;stroke-miterlimit:4;stroke-dasharray:none;stroke-opacity:1"
     d="M 16 36 C 14.892 36 14 36.892 14 38 L 14 39 C 14 37.892 14.892 37 16 37 L 32 37 C 33.108 37 34 37.892 34 39 L 34 38 C 34 36.892 33.108 36 32 36 L 16 36 z "
     id="rect4185" />
  <path
     style="opacity:0.2;fill:#ffffff;fill-opacity:1;fill-rule:evenodd;stroke:none;stroke-width:8;stroke-linecap:round;stroke-linejoin:round;stroke-miterlimit:4;stroke-dasharray:none;stroke-opacity:1"
     d="M 16 14 C 14.892 14 14 14.892 14 16 L 14 17 C 14 15.892 14.892 15 16 15 L 32 15 C 33.108 15 34 15.892 34 17 L 34 16 C 34 14.892 33.108 14 32 14 L 16 14 z "
     id="rect4187" />
</svg>
