<?xml version="1.0" encoding="UTF-8" standalone="no"?>
<svg
   xmlns:dc="http://purl.org/dc/elements/1.1/"
   xmlns:cc="http://creativecommons.org/ns#"
   xmlns:rdf="http://www.w3.org/1999/02/22-rdf-syntax-ns#"
   xmlns:svg="http://www.w3.org/2000/svg"
   xmlns="http://www.w3.org/2000/svg"
   xmlns:sodipodi="http://sodipodi.sourceforge.net/DTD/sodipodi-0.dtd"
   xmlns:inkscape="http://www.inkscape.org/namespaces/inkscape"
   width="48"
   height="48"
   version="1"
   id="svg2"
   inkscape:version="0.91 r13725"
   sodipodi:docname="google-allo.svg">
  <metadata
     id="metadata22">
    <rdf:RDF>
      <cc:Work
         rdf:about="">
        <dc:format>image/svg+xml</dc:format>
        <dc:type
           rdf:resource="http://purl.org/dc/dcmitype/StillImage" />
        <dc:title></dc:title>
      </cc:Work>
    </rdf:RDF>
  </metadata>
  <defs
     id="defs20" />
  <sodipodi:namedview
     pagecolor="#ffffff"
     bordercolor="#666666"
     borderopacity="1"
     objecttolerance="10"
     gridtolerance="10"
     guidetolerance="10"
     inkscape:pageopacity="0"
     inkscape:pageshadow="2"
     inkscape:window-width="1920"
     inkscape:window-height="1018"
     id="namedview18"
     showgrid="false"
     inkscape:zoom="9.1997053"
     inkscape:cx="24"
     inkscape:cy="24"
     inkscape:window-x="0"
     inkscape:window-y="32"
     inkscape:window-maximized="1"
     inkscape:current-layer="svg2" />
  <path
     style="opacity:0.2;fill:#000000;fill-opacity:1"
     id="path4226"
     d="M 24,5 C 12.92,5 4,13.92 4,25 4,36.08 12.92,45 24,45 l 18,0 c 1.108,0 2,-0.892 2,-2 l 0,-18 0,-0.154297 -0.0039,0.0039 C 43.915299,13.839844 35.029504,5 24,5 Z"
     inkscape:connector-curvature="0" />
  <path
     d="M 24 4 C 12.92 4 4 12.92 4 24 C 4 35.08 12.92 44 24 44 L 42 44 C 43.108 44 44 43.108 44 42 L 44 24 L 44 23.845703 L 43.996094 23.849609 C 43.915299 12.839844 35.029504 4 24 4 z "
     id="rect4"
     style="fill:#f5bb18;fill-opacity:1" />
  <path
     sodipodi:nodetypes="sscccccccs"
     inkscape:connector-curvature="0"
     id="path4228"
     d="m 24,15 c -5.522847,0 -10,4.477153 -10,10 0,5.522847 4.477153,10 10,10 2.499588,-0.004 4.907043,-0.944009 6.748047,-2.634766 l 0.273437,0.314454 1.810547,2.089843 C 33.268878,35.274691 34.000195,34.905364 34,34.179688 L 34,30 c 0.01056,-1.644396 -0.02011,-3.419518 0,-5 0,-5.522847 -4.477153,-10 -10,-10 z"
     style="opacity:0.2;fill:#000000;fill-opacity:1;fill-rule:evenodd;stroke:none;stroke-width:2;stroke-linecap:round;stroke-linejoin:round;stroke-miterlimit:4;stroke-dasharray:none;stroke-opacity:1" />
  <path
     style="opacity:1;fill:#ffffff;fill-opacity:1;fill-rule:evenodd;stroke:none;stroke-width:2;stroke-linecap:round;stroke-linejoin:round;stroke-miterlimit:4;stroke-dasharray:none;stroke-opacity:1"
     d="m 24,14 c -5.522847,0 -10,4.477153 -10,10 0,5.522847 4.477153,10 10,10 2.499588,-0.004 4.907043,-0.944009 6.748047,-2.634766 l 0.273437,0.314454 1.810547,2.089843 C 33.268878,34.274691 34.000195,33.905364 34,33.179688 L 34,29 c 0.01056,-1.644396 -0.02011,-3.419518 0,-5 0,-5.522847 -4.477153,-10 -10,-10 z"
     id="path4213"
     inkscape:connector-curvature="0"
     sodipodi:nodetypes="sscccccccs" />
  <path
     style="fill:#ffffff;fill-opacity:1;opacity:0.2"
     d="M 24 4 C 12.92 4 4 12.92 4 24 C 4 24.167874 4.007647 24.333141 4.0117188 24.5 C 4.2763904 13.653863 13.087874 5 24 5 C 35.029504 5 43.915293 13.83985 43.996094 24.849609 L 44 24.845703 L 44 24 L 44 23.845703 L 43.996094 23.849609 C 43.915299 12.839844 35.029504 4 24 4 z "
     id="path4230" />
</svg>
