<?xml version="1.0" encoding="UTF-8" standalone="no"?>
<svg
   xmlns:dc="http://purl.org/dc/elements/1.1/"
   xmlns:cc="http://creativecommons.org/ns#"
   xmlns:rdf="http://www.w3.org/1999/02/22-rdf-syntax-ns#"
   xmlns:svg="http://www.w3.org/2000/svg"
   xmlns="http://www.w3.org/2000/svg"
   xmlns:sodipodi="http://sodipodi.sourceforge.net/DTD/sodipodi-0.dtd"
   xmlns:inkscape="http://www.inkscape.org/namespaces/inkscape"
   width="48"
   height="48"
   version="1"
   id="svg2"
   inkscape:version="0.91 r13725"
   sodipodi:docname="google-analytics.svg">
  <metadata
     id="metadata18">
    <rdf:RDF>
      <cc:Work
         rdf:about="">
        <dc:format>image/svg+xml</dc:format>
        <dc:type
           rdf:resource="http://purl.org/dc/dcmitype/StillImage" />
        <dc:title></dc:title>
      </cc:Work>
    </rdf:RDF>
  </metadata>
  <defs
     id="defs16" />
  <sodipodi:namedview
     pagecolor="#ffffff"
     bordercolor="#666666"
     borderopacity="1"
     objecttolerance="10"
     gridtolerance="10"
     guidetolerance="10"
     inkscape:pageopacity="0"
     inkscape:pageshadow="2"
     inkscape:window-width="1920"
     inkscape:window-height="1018"
     id="namedview14"
     showgrid="false"
     inkscape:zoom="6.93"
     inkscape:cx="9.9017497"
     inkscape:cy="26.362014"
     inkscape:window-x="0"
     inkscape:window-y="32"
     inkscape:window-maximized="1"
     inkscape:current-layer="svg2">
    <inkscape:grid
       type="xygrid"
       id="grid4168" />
  </sodipodi:namedview>
  <path
     sodipodi:nodetypes="sscsssscccssss"
     inkscape:connector-curvature="0"
     id="path4176"
     d="m 19,17 c -1.662,0 -3,1.338 -3,3 l 0,11 -9,0 c -1.662,0 -3,1.338 -3,3 l 0,8 c 0,1.662 1.338,3 3,3 l 12,0 6.300781,0 L 30,45 c 0,0 0,-1.338 0,-3 l 0,-22 c 0,-1.662 -1.338,-3 -3,-3 z"
     style="opacity:0.2;fill:#000000;fill-opacity:1" />
  <path
     sodipodi:nodetypes="sssssccsss"
     inkscape:connector-curvature="0"
     id="path4178"
     d="M 44,42 44,8 C 44,6.338 42.662,5 41,5 l -8,0 c -1.662,0 -3,1.338 -3,3 l 0,34 0,3 c 0,0 2.046326,0 3,0 l 8,0 c 1.662,0 3,-1.338 3,-3 z"
     style="opacity:0.2;fill:#000000;fill-opacity:1" />
  <path
     style="opacity:1;fill:#ffc311;fill-opacity:1"
     d="m 19,16 c -1.662,0 -3,1.338 -3,3 l 0,11 -9,0 c -1.662,0 -3,1.338 -3,3 l 0,8 c 0,1.662 1.338,3 3,3 l 12,0 6.300781,0 L 30,44 c 0,0 0,-1.338 0,-3 l 0,-22 c 0,-1.662 -1.338,-3 -3,-3 z"
     id="rect4158"
     inkscape:connector-curvature="0"
     sodipodi:nodetypes="sscsssscccssss" />
  <path
     transform="matrix(0,-1,-1,0,0,0)"
     style="opacity:1;fill:#f57e04;fill-opacity:1"
     d="m -41,-44 34,0 c 1.662,0 3,1.338 3,3 l 0,8 c 0,1.662 -1.338,3 -3,3 l -34,0 -3,0 c 0,0 0,-2.046326 0,-3 l 0,-8 c 0,-1.662 1.338,-3 3,-3 z"
     id="rect4"
     inkscape:connector-curvature="0"
     sodipodi:nodetypes="sssssccsss" />
  <path
     style="opacity:0.2;fill:#ffffff;fill-opacity:1"
     d="M 19 16 C 17.338 16 16 17.338 16 19 L 16 20 C 16 18.338 17.338 17 19 17 L 27 17 C 28.662 17 30 18.338 30 20 L 30 19 C 30 17.338 28.662 16 27 16 L 19 16 z M 7 30 C 5.338 30 4 31.338 4 33 L 4 34 C 4 32.338 5.338 31 7 31 L 16 31 L 16 30 L 7 30 z "
     id="path4166" />
  <path
     style="opacity:0.2;fill:#ffffff;fill-opacity:1"
     d="M 33 4 C 31.338 4 30 5.338 30 7 L 30 8 C 30 6.338 31.338 5 33 5 L 41 5 C 42.662 5 44 6.338 44 8 L 44 7 C 44 5.338 42.662 4 41 4 L 33 4 z "
     id="path4168" />
</svg>
