<?xml version="1.0" encoding="UTF-8" standalone="no"?>
<svg
   xmlns:dc="http://purl.org/dc/elements/1.1/"
   xmlns:cc="http://creativecommons.org/ns#"
   xmlns:rdf="http://www.w3.org/1999/02/22-rdf-syntax-ns#"
   xmlns:svg="http://www.w3.org/2000/svg"
   xmlns="http://www.w3.org/2000/svg"
   xmlns:sodipodi="http://sodipodi.sourceforge.net/DTD/sodipodi-0.dtd"
   xmlns:inkscape="http://www.inkscape.org/namespaces/inkscape"
   width="48"
   height="48"
   version="1"
   id="svg2"
   inkscape:version="0.91 r13725"
   sodipodi:docname="google-cardboard-design.svg">
  <metadata
     id="metadata18">
    <rdf:RDF>
      <cc:Work
         rdf:about="">
        <dc:format>image/svg+xml</dc:format>
        <dc:type
           rdf:resource="http://purl.org/dc/dcmitype/StillImage" />
        <dc:title />
      </cc:Work>
    </rdf:RDF>
  </metadata>
  <defs
     id="defs16" />
  <sodipodi:namedview
     pagecolor="#ffffff"
     bordercolor="#666666"
     borderopacity="1"
     objecttolerance="10"
     gridtolerance="10"
     guidetolerance="10"
     inkscape:pageopacity="0"
     inkscape:pageshadow="2"
     inkscape:window-width="1920"
     inkscape:window-height="1018"
     id="namedview14"
     showgrid="true"
     inkscape:zoom="14.86"
     inkscape:cx="12.27853"
     inkscape:cy="26.277154"
     inkscape:window-x="0"
     inkscape:window-y="32"
     inkscape:window-maximized="1"
     inkscape:current-layer="svg2"
     inkscape:object-nodes="true">
    <inkscape:grid
       type="xygrid"
       id="grid4168" />
  </sodipodi:namedview>
  <rect
     width="40"
     height="40"
     x="-44"
     y="-44"
     rx="2"
     ry="2"
     transform="matrix(0,-1,-1,0,0,0)"
     id="rect4"
     style="fill:#069de6;fill-opacity:1" />
  <path
     style="opacity:0.1;fill:#000000;fill-opacity:1;stroke:none;stroke-width:4;stroke-linecap:round;stroke-linejoin:round;stroke-miterlimit:4;stroke-dasharray:none;stroke-opacity:1"
     d="M 8 4 L 8 8 L 4 8 L 4 9 L 8 9 L 8 13 L 4 13 L 4 14 L 8 14 L 8 18 L 4 18 L 4 19 L 8 19 L 8 24 L 4 24 L 4 25 L 8 25 L 8 29 L 4 29 L 4 30 L 8 30 L 8 34 L 4 34 L 4 35 L 8 35 L 8 39 L 4 39 L 4 40 L 8 40 L 8 44 L 9 44 L 9 40 L 13 40 L 13 44 L 14 44 L 14 40 L 18 40 L 18 44 L 19 44 L 19 40 L 23 40 L 23 44 L 24 44 L 24 40 L 29 40 L 29 44 L 30 44 L 30 40 L 34 40 L 34 44 L 35 44 L 35 40 L 39 40 L 39 44 L 40 44 L 40 40 L 44 40 L 44 39 L 40 39 L 40 35 L 44 35 L 44 34 L 40 34 L 40 30 L 44 30 L 44 29 L 40 29 L 40 25 L 44 25 L 44 24 L 40 24 L 40 19 L 44 19 L 44 18 L 40 18 L 40 14 L 44 14 L 44 13 L 40 13 L 40 9 L 44 9 L 44 8 L 40 8 L 40 4 L 39 4 L 39 8 L 35 8 L 35 4 L 34 4 L 34 8 L 30 8 L 30 4 L 29 4 L 29 8 L 24 8 L 24 4 L 23 4 L 23 8 L 19 8 L 19 4 L 18 4 L 18 8 L 14 8 L 14 4 L 13 4 L 13 8 L 9 8 L 9 4 L 8 4 z M 9 9 L 13 9 L 13 13 L 9 13 L 9 9 z M 14 9 L 18 9 L 18 13 L 14 13 L 14 9 z M 19 9 L 23 9 L 23 13 L 19 13 L 19 9 z M 24 9 L 29 9 L 29 13 L 24 13 L 24 9 z M 30 9 L 34 9 L 34 13 L 30 13 L 30 9 z M 35 9 L 39 9 L 39 13 L 35 13 L 35 9 z M 9 14 L 13 14 L 13 18 L 9 18 L 9 14 z M 14 14 L 18 14 L 18 18 L 14 18 L 14 14 z M 19 14 L 23 14 L 23 18 L 19 18 L 19 14 z M 24 14 L 29 14 L 29 18 L 24 18 L 24 14 z M 30 14 L 34 14 L 34 18 L 30 18 L 30 14 z M 35 14 L 39 14 L 39 18 L 35 18 L 35 14 z M 9 19 L 13 19 L 13 24 L 9 24 L 9 19 z M 14 19 L 18 19 L 18 24 L 14 24 L 14 19 z M 19 19 L 23 19 L 23 24 L 19 24 L 19 19 z M 24 19 L 29 19 L 29 24 L 24 24 L 24 19 z M 30 19 L 34 19 L 34 24 L 30 24 L 30 19 z M 35 19 L 39 19 L 39 24 L 35 24 L 35 19 z M 9 25 L 13 25 L 13 29 L 9 29 L 9 25 z M 14 25 L 18 25 L 18 29 L 14 29 L 14 25 z M 19 25 L 23 25 L 23 29 L 19 29 L 19 25 z M 24 25 L 29 25 L 29 29 L 24 29 L 24 25 z M 30 25 L 34 25 L 34 29 L 30 29 L 30 25 z M 35 25 L 39 25 L 39 29 L 35 29 L 35 25 z M 9 30 L 13 30 L 13 34 L 9 34 L 9 30 z M 14 30 L 18 30 L 18 34 L 14 34 L 14 30 z M 19 30 L 23 30 L 23 34 L 19 34 L 19 30 z M 24 30 L 29 30 L 29 34 L 24 34 L 24 30 z M 30 30 L 34 30 L 34 34 L 30 34 L 30 30 z M 35 30 L 39 30 L 39 34 L 35 34 L 35 30 z M 9 35 L 13 35 L 13 39 L 9 39 L 9 35 z M 14 35 L 18 35 L 18 39 L 14 39 L 14 35 z M 19 35 L 23 35 L 23 39 L 19 39 L 19 35 z M 24 35 L 29 35 L 29 39 L 24 39 L 24 35 z M 30 35 L 34 35 L 34 39 L 30 39 L 30 35 z M 35 35 L 39 35 L 39 39 L 35 39 L 35 35 z "
     id="rect4196" />
  <path
     d="M 6,4 C 4.892,4 4,4.892 4,6 L 4,7 C 4,5.892 4.892,5 6,5 l 36,0 c 1.108,0 2,0.892 2,2 L 44,6 C 44,4.892 43.108,4 42,4 L 6,4 Z"
     id="path6"
     inkscape:connector-curvature="0"
     style="opacity:0.2;fill:#ffffff" />
  <path
     d="M 6,45 C 4.892,45 4,44.108 4,43 l 0,-1 c 0,1.108 0.892,2 2,2 l 36,0 c 1.108,0 2,-0.892 2,-2 l 0,1 c 0,1.108 -0.892,2 -2,2 L 6,45 Z"
     id="path8"
     inkscape:connector-curvature="0"
     style="opacity:0.2" />
  <path
     style="opacity:0.6;fill:#ffffff;fill-opacity:1;fill-rule:evenodd;stroke:none;stroke-width:3;stroke-linecap:round;stroke-linejoin:round;stroke-miterlimit:4;stroke-dasharray:none;stroke-opacity:1"
     d="M 13.333984 14 C 12.595318 14 12 14.595318 12 15.333984 L 12 17 L 14 17 L 14 16 L 34 16 L 34 17 L 36 17 L 36 15.333984 C 36 14.595318 35.404682 14 34.666016 14 L 13.333984 14 z M 20.724609 30 L 19.246094 32 L 28.599609 32 L 27.183594 30 L 20.724609 30 z "
     id="rect4175" />
  <path
     id="path4170"
     d="M 11.333984,18 C 10.595318,18 10,18.584132 10,19.308594 l 0,14.382812 C 10,34.415867 10.595318,35 11.333984,35 l 7.332032,0 c 2,0 2.667317,-7 5.333984,-7 2.666667,0 3.333984,7 5.333984,7 l 7.332032,0 C 37.404682,35 38,34.415867 38,33.691406 L 38,19.308594 C 38,18.584132 37.404682,18 36.666016,18 L 24,18 11.333984,18 Z M 12,20 l 12,0 12,0 0,13 -6.169922,0 c -0.03572,-0.04998 -0.02891,-0.03027 -0.07422,-0.107422 -0.263222,-0.44819 -0.614435,-1.280036 -1,-2.179687 -0.385564,-0.899652 -0.803221,-1.87412 -1.451171,-2.78125 C 26.656737,27.02451 25.541667,26 24,26 c -1.541667,0 -2.656736,1.02451 -3.304688,1.931641 -0.64795,0.90713 -1.065607,1.881598 -1.451171,2.78125 -0.385565,0.899651 -0.736778,1.731497 -1,2.179687 -0.04531,0.07716 -0.0385,0.05744 -0.07422,0.107422 L 12,33 12,20 Z m 5,3 a 3,3 0 0 0 -3,3 3,3 0 0 0 3,3 3,3 0 0 0 3,-3 3,3 0 0 0 -3,-3 z m 14,0 a 3,3 0 0 0 -3,3 3,3 0 0 0 3,3 3,3 0 0 0 3,-3 3,3 0 0 0 -3,-3 z"
     style="opacity:0.2;fill:#000000;fill-opacity:1;fill-rule:evenodd;stroke:none;stroke-width:3;stroke-linecap:round;stroke-linejoin:round;stroke-miterlimit:4;stroke-dasharray:none;stroke-opacity:1"
     inkscape:connector-curvature="0" />
  <path
     style="opacity:1;fill:#ffffff;fill-opacity:1;fill-rule:evenodd;stroke:none;stroke-width:3;stroke-linecap:round;stroke-linejoin:round;stroke-miterlimit:4;stroke-dasharray:none;stroke-opacity:1"
     d="M 11.333984 17 C 10.595318 17 10 17.584132 10 18.308594 L 10 32.691406 C 10 33.415867 10.595318 34 11.333984 34 L 18.666016 34 C 20.666016 34 21.333333 27 24 27 C 26.666667 27 27.333984 34 29.333984 34 L 36.666016 34 C 37.404682 34 38 33.415867 38 32.691406 L 38 18.308594 C 38 17.584132 37.404682 17 36.666016 17 L 24 17 L 11.333984 17 z M 12 19 L 24 19 L 36 19 L 36 32 L 29.830078 32 C 29.794358 31.95002 29.801169 31.96973 29.755859 31.892578 C 29.492637 31.444388 29.141424 30.612542 28.755859 29.712891 C 28.370295 28.813239 27.952638 27.838771 27.304688 26.931641 C 26.656737 26.02451 25.541667 25 24 25 C 22.458333 25 21.343264 26.02451 20.695312 26.931641 C 20.047362 27.838771 19.629705 28.813239 19.244141 29.712891 C 18.858576 30.612542 18.507363 31.444388 18.244141 31.892578 C 18.198831 31.969738 18.205642 31.950018 18.169922 32 L 12 32 L 12 19 z M 17 22 A 3 3 0 0 0 14 25 A 3 3 0 0 0 17 28 A 3 3 0 0 0 20 25 A 3 3 0 0 0 17 22 z M 31 22 A 3 3 0 0 0 28 25 A 3 3 0 0 0 31 28 A 3 3 0 0 0 34 25 A 3 3 0 0 0 31 22 z "
     id="rect4163" />
</svg>
