<?xml version="1.0" encoding="UTF-8" standalone="no"?>
<svg
   xmlns:dc="http://purl.org/dc/elements/1.1/"
   xmlns:cc="http://creativecommons.org/ns#"
   xmlns:rdf="http://www.w3.org/1999/02/22-rdf-syntax-ns#"
   xmlns:svg="http://www.w3.org/2000/svg"
   xmlns="http://www.w3.org/2000/svg"
   xmlns:sodipodi="http://sodipodi.sourceforge.net/DTD/sodipodi-0.dtd"
   xmlns:inkscape="http://www.inkscape.org/namespaces/inkscape"
   width="48"
   height="48"
   version="1"
   id="svg2"
   inkscape:version="0.91 r13725"
   sodipodi:docname="google-vega.svg">
  <metadata
     id="metadata18">
    <rdf:RDF>
      <cc:Work
         rdf:about="">
        <dc:format>image/svg+xml</dc:format>
        <dc:type
           rdf:resource="http://purl.org/dc/dcmitype/StillImage" />
        <dc:title />
      </cc:Work>
    </rdf:RDF>
  </metadata>
  <defs
     id="defs16" />
  <sodipodi:namedview
     pagecolor="#ffffff"
     bordercolor="#666666"
     borderopacity="1"
     objecttolerance="10"
     gridtolerance="10"
     guidetolerance="10"
     inkscape:pageopacity="0"
     inkscape:pageshadow="2"
     inkscape:window-width="1920"
     inkscape:window-height="1018"
     id="namedview14"
     showgrid="false"
     inkscape:zoom="10.5"
     inkscape:cx="-19.090728"
     inkscape:cy="36.321096"
     inkscape:window-x="0"
     inkscape:window-y="32"
     inkscape:window-maximized="1"
     inkscape:current-layer="svg2"
     inkscape:object-nodes="true">
    <inkscape:grid
       type="xygrid"
       id="grid4168" />
  </sodipodi:namedview>
  <rect
     style="opacity:0.2;fill:#000000;fill-opacity:1"
     id="rect4209"
     transform="matrix(0,-1,-1,0,0,0)"
     ry="1.8000001"
     rx="1.8000001"
     y="-42"
     x="-43"
     height="36"
     width="36" />
  <path
     transform="matrix(0,-1,-1,0,0,0)"
     style="opacity:1;fill:#528ff5;fill-opacity:1"
     d="m -40.2,-42 30.3999999,0 c 0.9972002,0 1.8000002,0.8028 1.8000002,1.8 l 0,32.3999999 C -7.9999999,-6.8028 -8.8027999,-6 -9.8,-6 l -30.4,0 C -41.1972,-6 -42,-6.8028 -42,-7.8000001 L -42,-40.2 c 0,-0.9972 0.8028,-1.8 1.8,-1.8 z"
     id="rect4"
     inkscape:connector-curvature="0"
     sodipodi:nodetypes="sssssssss" />
  <path
     style="opacity:0.2;fill:#000000;fill-opacity:1;fill-rule:evenodd;stroke:none;stroke-width:2;stroke-linecap:round;stroke-linejoin:round;stroke-miterlimit:4;stroke-dasharray:none;stroke-opacity:1"
     d="m 7.9902344,6.996515 c -0.9904875,0 -1.6733896,0.2985568 -2.0820313,1.8652344 L 3.1738281,18.69964 c -0.7169288,2.675614 1.2579792,5.406118 3.9335938,6.123047 2.6756145,0.716929 5.7149501,-0.795674 6.1250001,-3.535156 l 0.15039,-1.003907 C 13.246343,22.893733 16.32788,24.996515 19,24.996515 c 2.77,0 5,-2.23 5,-5 0,2.77 2.23,5 5,5 2.67212,0 5.753658,-2.102782 5.617188,-4.712891 l 0.15039,1.003907 c 0.41005,2.739482 3.449386,4.252085 6.125,3.535156 2.675615,-0.716929 4.650523,-3.447433 3.933594,-6.123047 L 42.091797,8.8617494 C 41.683155,7.2950718 41.000254,6.996515 40.009766,6.996515 l -7.361328,0 -8.648438,0 -8.648438,0 -7.3613276,0 z"
     id="path4200"
     inkscape:connector-curvature="0" />
  <path
     style="opacity:1;fill:#4a5bb9;fill-opacity:1;fill-rule:evenodd;stroke:none;stroke-width:2;stroke-linecap:round;stroke-linejoin:round;stroke-miterlimit:4;stroke-dasharray:none;stroke-opacity:1"
     d="M 15.351562 6 C 15.323243 6.2551264 15.294473 6.5115564 15.255859 6.7695312 L 13.382812 19.287109 C 13.246342 21.897218 16.32788 24 19 24 C 21.77 24 24 21.77 24 19 L 24 6 L 15.351562 6 z "
     id="path4154" />
  <path
     style="opacity:1;fill:#8ccaf8;fill-opacity:1;fill-rule:evenodd;stroke:none;stroke-width:2;stroke-linecap:round;stroke-linejoin:round;stroke-miterlimit:4;stroke-dasharray:none;stroke-opacity:1"
     d="M 5.909,7.8653765 3.1738281,17.703125 c -0.7169288,2.675614 1.2579792,5.406118 3.9335938,6.123047 2.6756145,0.716929 5.7149501,-0.795674 6.1250001,-3.535156 L 15.255859,6.7695312 C 15.294473,6.5115564 15.323243,6.2551264 15.351562,6 L 7.9904875,6 C 7,6 6.3176417,6.2986989 5.909,7.8653765 Z"
     id="path4156"
     inkscape:connector-curvature="0"
     sodipodi:nodetypes="ccsccccc" />
  <path
     inkscape:connector-curvature="0"
     id="path4171"
     d="m 32.648438,6 c 0.02832,0.2551264 0.05709,0.5115564 0.0957,0.7695312 l 1.87305,12.5175778 C 34.753658,21.897218 31.67212,24 29,24 26.23,24 24,21.77 24,19 l 0,-13 8.648438,0 z"
     style="opacity:1;fill:#8ccaf8;fill-opacity:1;fill-rule:evenodd;stroke:none;stroke-width:2;stroke-linecap:round;stroke-linejoin:round;stroke-miterlimit:4;stroke-dasharray:none;stroke-opacity:1" />
  <path
     sodipodi:nodetypes="ccsccccc"
     inkscape:connector-curvature="0"
     id="path4173"
     d="m 42.091,7.8653765 2.735172,9.8377485 c 0.716929,2.675614 -1.257979,5.406118 -3.933594,6.123047 -2.675614,0.716929 -5.71495,-0.795674 -6.125,-3.535156 L 32.744141,6.7695312 C 32.705527,6.5115564 32.676757,6.2551264 32.648438,6 l 7.361074,0 C 41,6 41.682358,6.2986989 42.091,7.8653765 Z"
     style="opacity:1;fill:#4a5bb9;fill-opacity:1;fill-rule:evenodd;stroke:none;stroke-width:2;stroke-linecap:round;stroke-linejoin:round;stroke-miterlimit:4;stroke-dasharray:none;stroke-opacity:1" />
  <path
     style="opacity:0.1;fill:#ffffff;fill-opacity:1;fill-rule:evenodd;stroke:none;stroke-width:2;stroke-linecap:round;stroke-linejoin:round;stroke-miterlimit:4;stroke-dasharray:none;stroke-opacity:1"
     d="M 7.9902344 6 C 6.9997469 6 6.3168448 6.2985568 5.9082031 7.8652344 L 3.1738281 17.703125 C 3.0273576 18.24976 2.9973311 18.798452 3.0585938 19.332031 C 3.0826714 19.122644 3.1176368 18.912834 3.1738281 18.703125 L 5.9082031 8.8652344 C 6.3168448 7.2985568 6.9997469 7 7.9902344 7 L 15.351562 7 L 24 7 L 32.648438 7 L 40.009766 7 C 41.000254 7 41.683155 7.2985568 42.091797 8.8652344 L 44.826172 18.703125 C 44.882363 18.912834 44.917329 19.122644 44.941406 19.332031 C 45.002669 18.798452 44.972642 18.24976 44.826172 17.703125 L 42.091797 7.8652344 C 41.683155 6.2985568 41.000254 6 40.009766 6 L 32.648438 6 L 24 6 L 15.351562 6 L 7.9902344 6 z "
     id="path4213" />
  <path
     style="opacity:0.1;fill:#000000;fill-opacity:1;fill-rule:evenodd;stroke:none;stroke-width:2;stroke-linecap:round;stroke-linejoin:round;stroke-miterlimit:4;stroke-dasharray:none;stroke-opacity:1"
     d="M 3.3691406 17 L 3.1738281 17.703125 C 2.4568993 20.378739 4.4318073 23.109243 7.1074219 23.826172 C 9.7830364 24.543101 12.822372 23.030498 13.232422 20.291016 L 13.382812 19.287109 C 13.246344 21.897218 16.32788 24 19 24 C 21.77 24 24 21.77 24 19 C 24 21.77 26.23 24 29 24 C 31.67212 24 34.753658 21.897218 34.617188 19.287109 L 34.767578 20.291016 C 35.177628 23.030498 38.216964 24.543101 40.892578 23.826172 C 43.568193 23.109243 45.543101 20.378739 44.826172 17.703125 L 44.630859 17 L 3.3691406 17 z "
     id="rect4225" />
  <path
     id="path4262"
     d="m 33.123047,28 c -2.3506,0 -4.448082,1.350313 -5.46875,3.320313 C 27.236844,32.130313 27,33.04 27,34 c 0,0.99 0.252431,1.93 0.693359,2.75 1.033938,1.93 3.107667,3.25 5.429688,3.25 1.54223,0 2.92012,-0.579063 3.955078,-1.539062 C 38.266183,37.360936 39,35.77 39,34 39,33.658773 38.96806,33.326037 38.91602,33 l -0.916016,0 -1.134766,0 -3.865234,0 0,2 3.867188,0 c -0.223692,0.866019 -0.731188,1.632076 -1.441407,2.175781 A 4,4 0 0 1 33.000004,38 4,4 0 0 1 29.294926,35.501953 4,4 0 0 1 29.000004,34 4,4 0 0 1 29.281254,32.535156 4,4 0 0 1 33.000004,30 4,4 0 0 1 35.69141,31.048828 L 37.148442,29.59961 C 36.107358,28.60961 34.701004,28 33.123051,28 Z"
     style="opacity:0.2;fill:#000000"
     inkscape:connector-curvature="0" />
  <path
     inkscape:connector-curvature="0"
     style="fill:#ffffff"
     d="m 33.123047,27 c -2.3506,0 -4.448082,1.350313 -5.46875,3.320313 C 27.236844,31.130313 27,32.04 27,33 c 0,0.99 0.252431,1.93 0.693359,2.75 1.033938,1.93 3.107667,3.25 5.429688,3.25 1.54223,0 2.92012,-0.579063 3.955078,-1.539062 C 38.266183,36.360936 39,34.77 39,33 39,32.658773 38.96806,32.326037 38.91602,32 l -0.916016,0 -1.134766,0 -3.865234,0 0,2 3.867188,0 c -0.223692,0.866019 -0.731188,1.632076 -1.441407,2.175781 A 4,4 0 0 1 33.000004,37 4,4 0 0 1 29.294926,34.501953 4,4 0 0 1 29.000004,33 4,4 0 0 1 29.281254,31.535156 4,4 0 0 1 33.000004,29 4,4 0 0 1 35.69141,30.048828 L 37.148442,28.59961 C 36.107358,27.60961 34.701004,27 33.123051,27 Z"
     id="path6" />
</svg>
