<?xml version="1.0" encoding="UTF-8" standalone="no"?>
<svg
   xmlns:dc="http://purl.org/dc/elements/1.1/"
   xmlns:cc="http://creativecommons.org/ns#"
   xmlns:rdf="http://www.w3.org/1999/02/22-rdf-syntax-ns#"
   xmlns:svg="http://www.w3.org/2000/svg"
   xmlns="http://www.w3.org/2000/svg"
   xmlns:sodipodi="http://sodipodi.sourceforge.net/DTD/sodipodi-0.dtd"
   xmlns:inkscape="http://www.inkscape.org/namespaces/inkscape"
   width="48"
   height="48"
   version="1"
   id="svg2"
   inkscape:version="0.91 r13725"
   sodipodi:docname="google-chrome-canary.svg">
  <metadata
     id="metadata24">
    <rdf:RDF>
      <cc:Work
         rdf:about="">
        <dc:format>image/svg+xml</dc:format>
        <dc:type
           rdf:resource="http://purl.org/dc/dcmitype/StillImage" />
        <dc:title />
      </cc:Work>
    </rdf:RDF>
  </metadata>
  <defs
     id="defs22" />
  <sodipodi:namedview
     pagecolor="#ffffff"
     bordercolor="#666666"
     borderopacity="1"
     objecttolerance="10"
     gridtolerance="10"
     guidetolerance="10"
     inkscape:pageopacity="0"
     inkscape:pageshadow="2"
     inkscape:window-width="1920"
     inkscape:window-height="1018"
     id="namedview20"
     showgrid="false"
     inkscape:zoom="4.9166667"
     inkscape:cx="-61.220339"
     inkscape:cy="24"
     inkscape:window-x="0"
     inkscape:window-y="32"
     inkscape:window-maximized="1"
     inkscape:current-layer="svg2" />
  <path
     inkscape:connector-curvature="0"
     d="m 24,3.9792 c -7.0164,0 -13.151,3.594 -16.719,9.0312 -0.12607,8.1469 5.0559,10.986 8.8125,15.25 -0.691,-1.275 -1.094,-2.723 -1.094,-4.281 0,-4.986 4.0449,-6.4456 9,-7 l 17.875,-2 c -3.281,-6.5394 -10.033,-11 -17.875,-11 z"
     id="path4"
     style="fill:#e6910e;fill-opacity:1" />
  <path
     inkscape:connector-curvature="0"
     d="m 6.6997,34.037 c 3.5082,6.0764 9.6881,9.5924 16.181,9.9632 6.9232,-3.8162 10.593,-8.6676 8.8006,-15.257 -0.759,1.2363 -1.8114,2.3088 -3.1608,3.0878 -2.1442,1.238 -4.1295,-0.0632 -6.3395,-0.64303 -2.2405,-0.58777 -4.6997,-0.47742 -5.9547,-2.6512 l -8.9385,-15.481 c -4.0225,6.112 -4.5096,14.189 -0.5888,20.981 z"
     id="path6"
     style="fill:#fab700;fill-opacity:1" />
  <path
     style="fill:#ffce41"
     inkscape:connector-curvature="0"
     d="m 41.376,33.982 c 3.5082,-6.0764 3.4632,-13.186 0.53809,-18.994 l -17.613,0.007 c 1.4502,0.0392 2.9052,0.41435 4.2546,1.1934 2.3076,1.3323 2.0907,3.9649 2.6011,6.371 0.44469,2.0962 1.8538,3.9128 0.6931,5.9232 l -8.9375,15.48 c 7.304,0.428 14.543,-3.189 18.464,-9.981 z"
     id="path8" />
  <rect
     style="opacity:0.2"
     width="18"
     height="18"
     x="-33.98"
     y="-33"
     rx="9"
     ry="9"
     transform="matrix(0,-1,-1,0,0,0)"
     id="rect10" />
  <rect
     style="fill:#ffffff"
     width="18"
     height="18"
     x="-33"
     y="-33"
     rx="9"
     ry="9"
     transform="matrix(0,-1,-1,0,0,0)"
     id="rect12" />
  <rect
     style="fill:#f5b80c;fill-opacity:1"
     width="14"
     height="14"
     x="-31"
     y="-31"
     rx="7"
     ry="7"
     transform="matrix(0,-1,-1,0,0,0)"
     id="rect14" />
  <path
     style="opacity:0.2;fill:#ffffff"
     inkscape:connector-curvature="0"
     d="m 24,3.9792 c -11.08,0 -20,8.92 -20,20 0,0.168 0.0076,0.333 0.0117,0.5 0.2642,-10.847 9.0763,-19.5 19.988,-19.5 10.9117,0 19.724,8.653 19.988,19.5 0.0041,-0.16686 0.01172,-0.33213 0.01172,-0.5 0,-11.08 -8.92,-20 -20,-20 z"
     id="path16" />
  <path
     style="opacity:0.2"
     inkscape:connector-curvature="0"
     d="M 4.0117,24.5 C 4.0076,24.667 4,24.832 4,25 4,36.08 12.92,45 24,45 35.08,45 44,36.08 44,25 44,24.832 43.992,24.667 43.988,24.5 43.724,35.346 34.912,44 24,44 13.088,44 4.276,35.346 4.012,24.5 Z"
     id="path18" />
</svg>
