<?xml version="1.0" encoding="UTF-8" standalone="no"?>
<svg
   xmlns:dc="http://purl.org/dc/elements/1.1/"
   xmlns:cc="http://creativecommons.org/ns#"
   xmlns:rdf="http://www.w3.org/1999/02/22-rdf-syntax-ns#"
   xmlns:svg="http://www.w3.org/2000/svg"
   xmlns="http://www.w3.org/2000/svg"
   xmlns:sodipodi="http://sodipodi.sourceforge.net/DTD/sodipodi-0.dtd"
   xmlns:inkscape="http://www.inkscape.org/namespaces/inkscape"
   width="48"
   height="48"
   version="1"
   id="svg2"
   inkscape:version="0.91 r13725"
   sodipodi:docname="google-fit.svg">
  <metadata
     id="metadata26">
    <rdf:RDF>
      <cc:Work
         rdf:about="">
        <dc:format>image/svg+xml</dc:format>
        <dc:type
           rdf:resource="http://purl.org/dc/dcmitype/StillImage" />
        <dc:title />
      </cc:Work>
    </rdf:RDF>
  </metadata>
  <defs
     id="defs24" />
  <sodipodi:namedview
     pagecolor="#ffffff"
     bordercolor="#666666"
     borderopacity="1"
     objecttolerance="10"
     gridtolerance="10"
     guidetolerance="10"
     inkscape:pageopacity="0"
     inkscape:pageshadow="2"
     inkscape:window-width="1920"
     inkscape:window-height="1018"
     id="namedview22"
     showgrid="true"
     inkscape:zoom="4.92"
     inkscape:cx="-44.735476"
     inkscape:cy="26.911218"
     inkscape:window-x="0"
     inkscape:window-y="32"
     inkscape:window-maximized="1"
     inkscape:current-layer="svg2">
    <inkscape:grid
       type="xygrid"
       id="grid4210" />
  </sodipodi:namedview>
  <path
     style="opacity:0.2;fill:#000000;fill-opacity:1"
     d="m 34.604444,8.0002578 c 5.138244,0.036089 9.698071,3.8491082 10.385068,9.3711952 0.151492,4.736173 -1.346641,6.674793 -3.942879,9.375105 -4.765509,4.95277 -15.352592,15.604314 -15.97522,15.995357 C 24.800886,42.911821 24.400059,42.994941 24,43 l 0,-29 c 0.04897,0.01317 1.066422,-0.981297 2.250561,-2.08742 2.303746,-2.1520468 3.185748,-2.7668969 4.743984,-3.3081705 1.206725,-0.4191705 2.42415,-0.6124799 3.609899,-0.6041517 z"
     id="path4257"
     inkscape:connector-curvature="0"
     sodipodi:nodetypes="sccscccss" />
  <path
     sodipodi:nodetypes="sccscccss"
     inkscape:connector-curvature="0"
     id="path4230"
     d="M 13.395556,8.0002578 C 8.2573118,8.0363468 3.6974854,11.849366 3.0104882,17.371453 2.8589958,22.107626 4.3571293,24.046246 6.9533668,26.746558 11.718876,31.699328 22.305959,42.350872 22.928587,42.741915 23.199114,42.911821 23.599941,42.994941 24,43 L 24,14 C 23.95103,14.01317 22.933578,13.018703 21.749439,11.91258 19.445693,9.7605332 18.563691,9.1456831 17.005455,8.6044095 15.79873,8.185239 14.581305,7.9919296 13.395556,8.0002578 Z"
     style="opacity:0.2;fill:#000000" />
  <path
     sodipodi:nodetypes="sccscccss"
     inkscape:connector-curvature="0"
     id="path4217"
     d="m 34.604444,7.0002578 c 5.138244,0.036089 9.698071,3.8491082 10.385068,9.3711952 0.151492,4.736173 -1.346641,6.674793 -3.942879,9.375105 -4.765509,4.95277 -15.352592,15.604314 -15.97522,15.995357 C 24.800886,41.911821 24.400059,41.994941 24,42 l 0,-29 c 0.04897,0.01317 1.066422,-0.981297 2.250561,-2.08742 2.303746,-2.1520468 3.185748,-2.7668969 4.743984,-3.3081705 1.206725,-0.4191705 2.42415,-0.6124799 3.609899,-0.6041517 z"
     style="fill:#8a134f;fill-opacity:1" />
  <path
     style="fill:#ffffff;fill-opacity:1;opacity:0.1"
     d="M 34.603516 7 C 33.417767 6.9916718 32.200866 7.1843451 30.994141 7.6035156 C 29.435905 8.1447892 28.553746 8.7600626 26.25 10.912109 C 25.065861 12.018232 24.04897 13.01317 24 13 L 24 14 C 24.04897 14.01317 25.065861 13.018232 26.25 11.912109 C 28.553746 9.7600626 29.435905 9.1447892 30.994141 8.6035156 C 32.200866 8.1843451 33.417767 7.9916718 34.603516 8 C 39.721305 8.0359453 44.263594 11.820122 44.978516 17.306641 C 44.984124 16.998203 45.000956 16.706296 44.990234 16.371094 C 44.303237 10.849007 39.74176 7.036089 34.603516 7 z "
     id="path4232" />
  <path
     sodipodi:nodetypes="sccscccss"
     inkscape:connector-curvature="0"
     id="path4255"
     d="m 32.079576,8.0002578 c 3.914853,0.036089 7.389006,3.8491082 7.912433,9.3711952 0.115422,4.736173 -1.026012,6.674793 -3.004099,9.375105 C 33.357047,31.699328 25.290697,42.350872 24.816314,42.741915 24.610198,42.911821 24.304807,42.994941 24,43 l 0,-29 c 0.03731,0.01317 0.812512,-0.981297 1.714713,-2.08742 1.755235,-2.1520468 2.427237,-2.7668969 3.614464,-3.3081705 0.919409,-0.4191705 1.846972,-0.6124799 2.750399,-0.6041517 z"
     style="opacity:0.2;fill:#000000;fill-opacity:1" />
  <path
     style="opacity:1;fill:#ca186c;fill-opacity:1"
     d="m 32.079576,7.0002578 c 3.914853,0.036089 7.389006,3.8491082 7.912433,9.3711952 0.115422,4.736173 -1.026012,6.674793 -3.004099,9.375105 C 33.357047,30.699328 25.290697,41.350872 24.816314,41.741915 24.610198,41.911821 24.304807,41.994941 24,42 l 0,-29 c 0.03731,0.01317 0.812512,-0.981297 1.714713,-2.08742 1.755235,-2.1520468 2.427237,-2.7668969 3.614464,-3.3081705 0.919409,-0.4191705 1.846972,-0.6124799 2.750399,-0.6041517 z"
     id="path4221"
     inkscape:connector-curvature="0"
     sodipodi:nodetypes="sccscccss" />
  <path
     style="opacity:0.1;fill:#ffffff;fill-opacity:1"
     d="M 32.080078 7 C 31.176651 6.9916718 30.249487 7.1843451 29.330078 7.6035156 C 28.142851 8.1447892 27.470079 8.7600626 25.714844 10.912109 C 24.812643 12.018232 24.03731 13.01317 24 13 L 24 14 C 24.03731 14.01317 24.812643 13.018232 25.714844 11.912109 C 27.470079 9.7600626 28.142851 9.1447892 29.330078 8.6035156 C 30.249487 8.1843451 31.176651 7.9916718 32.080078 8 C 35.978869 8.0359409 39.437071 11.819258 39.982422 17.304688 C 39.986661 16.996841 40.000339 16.705596 39.992188 16.371094 C 39.46876 10.849007 35.994931 7.036089 32.080078 7 z "
     id="path4234" />
  <path
     style="opacity:0.2;fill:#000000;fill-opacity:1"
     d="m 29.554709,8.0002578 c 2.69146,0.036089 5.079941,3.8491082 5.439797,9.3711952 0.07935,4.736173 -0.705383,6.674793 -2.065318,9.375105 -2.496218,4.95277 -8.041833,15.604314 -8.367971,15.995357 C 24.419511,42.911821 24.209554,42.994941 24,43 l 0,-29 c 0.02565,0.01317 0.558602,-0.981297 1.178866,-2.08742 1.206724,-2.1520468 1.668725,-2.7668969 2.484943,-3.3081705 0.632094,-0.4191705 1.269794,-0.6124799 1.8909,-0.6041517 z"
     id="path4253"
     inkscape:connector-curvature="0"
     sodipodi:nodetypes="sccscccss" />
  <path
     sodipodi:nodetypes="sccscccss"
     inkscape:connector-curvature="0"
     id="path4223"
     d="m 29.554709,7.0002578 c 2.69146,0.036089 5.079941,3.8491082 5.439797,9.3711952 0.07935,4.736173 -0.705383,6.674793 -2.065318,9.375105 -2.496218,4.95277 -8.041833,15.604314 -8.367971,15.995357 C 24.419511,41.911821 24.209554,41.994941 24,42 l 0,-29 c 0.02565,0.01317 0.558602,-0.981297 1.178866,-2.08742 1.206724,-2.1520468 1.668725,-2.7668969 2.484943,-3.3081705 0.632094,-0.4191705 1.269794,-0.6124799 1.8909,-0.6041517 z"
     style="opacity:1;fill:#ff9717;fill-opacity:1" />
  <path
     style="fill:#dc4f43"
     d="M 13.395556,7.0002578 C 8.2573118,7.0363468 3.6974854,10.849366 3.0104882,16.371453 2.8589958,21.107626 4.3571293,23.046246 6.9533668,25.746558 11.718876,30.699328 22.305959,41.350872 22.928587,41.741915 23.199114,41.911821 23.599941,41.994941 24,42 L 24,13 C 23.95103,13.01317 22.933578,12.018703 21.749439,10.91258 19.445693,8.7605332 18.563691,8.1456831 17.005455,7.6044095 15.79873,7.185239 14.581305,6.9919296 13.395556,7.0002578 Z"
     id="path4173"
     inkscape:connector-curvature="0"
     sodipodi:nodetypes="sccscccss" />
  <path
     style="fill:#ffffff;opacity:0.2"
     d="M 13.396484 7 C 8.2582402 7.036089 3.6967628 10.849007 3.0097656 16.371094 C 2.9990438 16.706296 3.0158755 16.998203 3.0214844 17.306641 C 3.7364062 11.820122 8.2786947 8.0359453 13.396484 8 C 14.582233 7.9916718 15.799134 8.1843451 17.005859 8.6035156 C 18.564095 9.1447892 19.446254 9.7600626 21.75 11.912109 C 22.934139 13.018232 23.95103 14.01317 24 14 L 24 13 C 23.95103 13.01317 22.934139 12.018232 21.75 10.912109 C 19.446254 8.7600626 18.564095 8.1447892 17.005859 7.6035156 C 15.799134 7.1843451 14.582233 6.9916718 13.396484 7 z "
     id="path4225" />
  <path
     style="opacity:0.2;fill:#ffffff;fill-opacity:1"
     d="M 29.554688 7 C 28.933581 6.9916718 28.296156 7.1843451 27.664062 7.6035156 C 26.847844 8.1447892 26.386412 8.7600626 25.179688 10.912109 C 24.559424 12.018232 24.02565 13.01317 24 13 L 24 14 C 24.02565 14.01317 24.559424 13.018232 25.179688 11.912109 C 26.386412 9.7600626 26.847844 9.1447892 27.664062 8.6035156 C 28.296156 8.1843451 28.933581 7.9916718 29.554688 8 C 32.235771 8.0359499 34.614257 11.820954 34.988281 17.308594 C 34.991243 16.999568 34.999768 16.706993 34.994141 16.371094 C 34.634285 10.849007 32.246148 7.036089 29.554688 7 z "
     id="path4236" />
</svg>
