<?xml version="1.0" encoding="UTF-8" standalone="no"?>
<svg
   xmlns:dc="http://purl.org/dc/elements/1.1/"
   xmlns:cc="http://creativecommons.org/ns#"
   xmlns:rdf="http://www.w3.org/1999/02/22-rdf-syntax-ns#"
   xmlns:svg="http://www.w3.org/2000/svg"
   xmlns="http://www.w3.org/2000/svg"
   xmlns:sodipodi="http://sodipodi.sourceforge.net/DTD/sodipodi-0.dtd"
   xmlns:inkscape="http://www.inkscape.org/namespaces/inkscape"
   width="48"
   height="48"
   version="1"
   id="svg2"
   inkscape:version="0.91 r13725"
   sodipodi:docname="google-wallpaper.svg">
  <metadata
     id="metadata18">
    <rdf:RDF>
      <cc:Work
         rdf:about="">
        <dc:format>image/svg+xml</dc:format>
        <dc:type
           rdf:resource="http://purl.org/dc/dcmitype/StillImage" />
        <dc:title></dc:title>
      </cc:Work>
    </rdf:RDF>
  </metadata>
  <defs
     id="defs16" />
  <sodipodi:namedview
     pagecolor="#ffffff"
     bordercolor="#666666"
     borderopacity="1"
     objecttolerance="10"
     gridtolerance="10"
     guidetolerance="10"
     inkscape:pageopacity="0"
     inkscape:pageshadow="2"
     inkscape:window-width="1920"
     inkscape:window-height="1018"
     id="namedview14"
     showgrid="true"
     inkscape:zoom="12.06"
     inkscape:cx="9.9017497"
     inkscape:cy="26.277154"
     inkscape:window-x="0"
     inkscape:window-y="32"
     inkscape:window-maximized="1"
     inkscape:current-layer="svg2"
     showguides="false">
    <inkscape:grid
       type="xygrid"
       id="grid4168" />
  </sodipodi:namedview>
  <path
     style="color:#000000;font-style:normal;font-variant:normal;font-weight:normal;font-stretch:normal;font-size:medium;line-height:normal;font-family:sans-serif;text-indent:0;text-align:start;text-decoration:none;text-decoration-line:none;text-decoration-style:solid;text-decoration-color:#000000;letter-spacing:normal;word-spacing:normal;text-transform:none;direction:ltr;block-progression:tb;writing-mode:lr-tb;baseline-shift:baseline;text-anchor:start;white-space:normal;clip-rule:nonzero;display:inline;overflow:visible;visibility:visible;opacity:0.2;isolation:auto;mix-blend-mode:normal;color-interpolation:sRGB;color-interpolation-filters:linearRGB;solid-color:#000000;solid-opacity:1;fill:#000000;fill-opacity:1;fill-rule:evenodd;stroke:none;stroke-width:6;stroke-linecap:round;stroke-linejoin:round;stroke-miterlimit:4;stroke-dasharray:none;stroke-dashoffset:0;stroke-opacity:1;color-rendering:auto;image-rendering:auto;shape-rendering:auto;text-rendering:auto;enable-background:accumulate"
     d="m 36.927808,23.001674 a 1.3524455,1.3315734 0 0 0 -1.098753,0.663985 l -3.324429,5.669023 -3.32355,5.668158 A 1.3524455,1.3315734 0 0 0 30.352023,37 L 37,37 l 6.647979,0 a 1.3524455,1.3315734 0 0 0 1.170945,-1.99716 l -3.323548,-5.668158 -3.32443,-5.669023 a 1.3524455,1.3315734 0 0 0 -1.107557,-0.663985 1.3524455,1.3315734 0 0 0 -0.135581,0 z"
     id="path4186"
     inkscape:connector-curvature="0" />
  <path
     inkscape:connector-curvature="0"
     id="path4167"
     d="m 36.927808,22.001674 a 1.3524455,1.3315734 0 0 0 -1.098753,0.663985 l -3.324429,5.669023 -3.32355,5.668158 A 1.3524455,1.3315734 0 0 0 30.352023,36 L 37,36 l 6.647979,0 a 1.3524455,1.3315734 0 0 0 1.170945,-1.99716 l -3.323548,-5.668158 -3.32443,-5.669023 a 1.3524455,1.3315734 0 0 0 -1.107557,-0.663985 1.3524455,1.3315734 0 0 0 -0.135581,0 z"
     style="color:#000000;font-style:normal;font-variant:normal;font-weight:normal;font-stretch:normal;font-size:medium;line-height:normal;font-family:sans-serif;text-indent:0;text-align:start;text-decoration:none;text-decoration-line:none;text-decoration-style:solid;text-decoration-color:#000000;letter-spacing:normal;word-spacing:normal;text-transform:none;direction:ltr;block-progression:tb;writing-mode:lr-tb;baseline-shift:baseline;text-anchor:start;white-space:normal;clip-rule:nonzero;display:inline;overflow:visible;visibility:visible;opacity:1;isolation:auto;mix-blend-mode:normal;color-interpolation:sRGB;color-interpolation-filters:linearRGB;solid-color:#000000;solid-opacity:1;fill:#c4c4c4;fill-opacity:1;fill-rule:evenodd;stroke:none;stroke-width:6;stroke-linecap:round;stroke-linejoin:round;stroke-miterlimit:4;stroke-dasharray:none;stroke-dashoffset:0;stroke-opacity:1;color-rendering:auto;image-rendering:auto;shape-rendering:auto;text-rendering:auto;enable-background:accumulate" />
  <path
     inkscape:connector-curvature="0"
     id="path4190"
     d="M 19.855613,9.0033477 A 2.7048909,2.6631468 0 0 0 17.658109,10.331321 L 11.00925,21.669367 4.3621527,33.005679 A 2.7048909,2.6631468 0 0 0 6.7040441,37 L 20,37 33.295956,37 a 2.7048909,2.6631468 0 0 0 2.341892,-3.994321 L 28.99075,21.669367 22.341891,10.331321 a 2.7048909,2.6631468 0 0 0 -2.215112,-1.3279733 2.7048909,2.6631468 0 0 0 -0.271166,0 z"
     style="color:#000000;font-style:normal;font-variant:normal;font-weight:normal;font-stretch:normal;font-size:medium;line-height:normal;font-family:sans-serif;text-indent:0;text-align:start;text-decoration:none;text-decoration-line:none;text-decoration-style:solid;text-decoration-color:#000000;letter-spacing:normal;word-spacing:normal;text-transform:none;direction:ltr;block-progression:tb;writing-mode:lr-tb;baseline-shift:baseline;text-anchor:start;white-space:normal;clip-rule:nonzero;display:inline;overflow:visible;visibility:visible;opacity:0.2;isolation:auto;mix-blend-mode:normal;color-interpolation:sRGB;color-interpolation-filters:linearRGB;solid-color:#000000;solid-opacity:1;fill:#000000;fill-opacity:1;fill-rule:evenodd;stroke:none;stroke-width:6;stroke-linecap:round;stroke-linejoin:round;stroke-miterlimit:4;stroke-dasharray:none;stroke-dashoffset:0;stroke-opacity:1;color-rendering:auto;image-rendering:auto;shape-rendering:auto;text-rendering:auto;enable-background:accumulate" />
  <path
     style="color:#000000;font-style:normal;font-variant:normal;font-weight:normal;font-stretch:normal;font-size:medium;line-height:normal;font-family:sans-serif;text-indent:0;text-align:start;text-decoration:none;text-decoration-line:none;text-decoration-style:solid;text-decoration-color:#000000;letter-spacing:normal;word-spacing:normal;text-transform:none;direction:ltr;block-progression:tb;writing-mode:lr-tb;baseline-shift:baseline;text-anchor:start;white-space:normal;clip-rule:nonzero;display:inline;overflow:visible;visibility:visible;opacity:0.1;isolation:auto;mix-blend-mode:normal;color-interpolation:sRGB;color-interpolation-filters:linearRGB;solid-color:#000000;solid-opacity:1;fill:#ffffff;fill-opacity:1;fill-rule:evenodd;stroke:none;stroke-width:6;stroke-linecap:round;stroke-linejoin:round;stroke-miterlimit:4;stroke-dasharray:none;stroke-dashoffset:0;stroke-opacity:1;color-rendering:auto;image-rendering:auto;shape-rendering:auto;text-rendering:auto;enable-background:accumulate"
     d="M 36.927734 22.001953 A 1.3524455 1.3315734 0 0 0 35.828125 22.666016 L 32.503906 28.333984 L 29.181641 34.001953 A 1.3524455 1.3315734 0 0 0 29.099609 35.167969 A 1.3524455 1.3315734 0 0 1 29.181641 35.001953 L 32.503906 29.333984 L 35.828125 23.666016 A 1.3524455 1.3315734 0 0 1 36.927734 23.001953 A 1.3524455 1.3315734 0 0 1 37.0625 23.001953 A 1.3524455 1.3315734 0 0 1 38.171875 23.666016 L 41.496094 29.333984 L 44.818359 35.001953 A 1.3524455 1.3315734 0 0 1 44.900391 35.169922 A 1.3524455 1.3315734 0 0 0 44.818359 34.001953 L 41.496094 28.333984 L 38.171875 22.666016 A 1.3524455 1.3315734 0 0 0 37.0625 22.001953 A 1.3524455 1.3315734 0 0 0 36.927734 22.001953 z "
     id="path4225" />
  <path
     style="color:#000000;font-style:normal;font-variant:normal;font-weight:normal;font-stretch:normal;font-size:medium;line-height:normal;font-family:sans-serif;text-indent:0;text-align:start;text-decoration:none;text-decoration-line:none;text-decoration-style:solid;text-decoration-color:#000000;letter-spacing:normal;word-spacing:normal;text-transform:none;direction:ltr;block-progression:tb;writing-mode:lr-tb;baseline-shift:baseline;text-anchor:start;white-space:normal;clip-rule:nonzero;display:inline;overflow:visible;visibility:visible;opacity:1;isolation:auto;mix-blend-mode:normal;color-interpolation:sRGB;color-interpolation-filters:linearRGB;solid-color:#000000;solid-opacity:1;fill:#e4e4e4;fill-opacity:1;fill-rule:evenodd;stroke:none;stroke-width:6;stroke-linecap:round;stroke-linejoin:round;stroke-miterlimit:4;stroke-dasharray:none;stroke-dashoffset:0;stroke-opacity:1;color-rendering:auto;image-rendering:auto;shape-rendering:auto;text-rendering:auto;enable-background:accumulate"
     d="M 19.855613,8.0033477 A 2.7048909,2.6631468 0 0 0 17.658109,9.3313206 L 11.00925,20.669367 4.3621527,32.005679 A 2.7048909,2.6631468 0 0 0 6.7040441,36 L 20,36 33.295956,36 a 2.7048909,2.6631468 0 0 0 2.341892,-3.994321 L 28.99075,20.669367 22.341891,9.3313206 a 2.7048909,2.6631468 0 0 0 -2.215112,-1.3279729 2.7048909,2.6631468 0 0 0 -0.271166,0 z"
     id="path4164"
     inkscape:connector-curvature="0" />
  <path
     style="color:#000000;font-style:normal;font-variant:normal;font-weight:normal;font-stretch:normal;font-size:medium;line-height:normal;font-family:sans-serif;text-indent:0;text-align:start;text-decoration:none;text-decoration-line:none;text-decoration-style:solid;text-decoration-color:#000000;letter-spacing:normal;word-spacing:normal;text-transform:none;direction:ltr;block-progression:tb;writing-mode:lr-tb;baseline-shift:baseline;text-anchor:start;white-space:normal;clip-rule:nonzero;display:inline;overflow:visible;visibility:visible;opacity:0.2;isolation:auto;mix-blend-mode:normal;color-interpolation:sRGB;color-interpolation-filters:linearRGB;solid-color:#000000;solid-opacity:1;fill:#ffffff;fill-opacity:1;fill-rule:evenodd;stroke:none;stroke-width:6;stroke-linecap:round;stroke-linejoin:round;stroke-miterlimit:4;stroke-dasharray:none;stroke-dashoffset:0;stroke-opacity:1;color-rendering:auto;image-rendering:auto;shape-rendering:auto;text-rendering:auto;enable-background:accumulate"
     d="M 19.855469 8.0039062 A 2.7048909 2.6631468 0 0 0 17.658203 9.3320312 L 11.009766 20.669922 L 4.3613281 32.005859 A 2.7048909 2.6631468 0 0 0 4.0507812 33.837891 A 2.7048909 2.6631468 0 0 1 4.3613281 33.005859 L 11.009766 21.669922 L 17.658203 10.332031 A 2.7048909 2.6631468 0 0 1 19.855469 9.0039062 A 2.7048909 2.6631468 0 0 1 20.126953 9.0039062 A 2.7048909 2.6631468 0 0 1 22.341797 10.332031 L 28.990234 21.669922 L 35.638672 33.005859 A 2.7048909 2.6631468 0 0 1 35.949219 33.839844 A 2.7048909 2.6631468 0 0 0 35.638672 32.005859 L 28.990234 20.669922 L 22.341797 9.3320312 A 2.7048909 2.6631468 0 0 0 20.126953 8.0039062 A 2.7048909 2.6631468 0 0 0 19.855469 8.0039062 z "
     id="path4227" />
  <path
     id="path4194"
     d="m 31,9 a 6,6 0 0 0 -5.648438,4 L 24,13 a 4,4 0 0 0 -4,4 4,4 0 0 0 4,4 l 7,0 a 6,6 0 0 0 6,-6 6,6 0 0 0 -6,-6 z"
     style="opacity:0.2;fill:#000000;fill-opacity:1;fill-rule:evenodd;stroke:none;stroke-width:6;stroke-linecap:round;stroke-linejoin:round;stroke-miterlimit:4;stroke-dasharray:none;stroke-opacity:1"
     inkscape:connector-curvature="0" />
  <path
     style="opacity:1;fill:#039be5;fill-opacity:1;fill-rule:evenodd;stroke:none;stroke-width:6;stroke-linecap:round;stroke-linejoin:round;stroke-miterlimit:4;stroke-dasharray:none;stroke-opacity:1"
     d="M 31 8 A 6 6 0 0 0 25.351562 12 L 24 12 A 4 4 0 0 0 20 16 A 4 4 0 0 0 24 20 L 31 20 A 6 6 0 0 0 37 14 A 6 6 0 0 0 31 8 z "
     id="path4169" />
</svg>
