<?xml version="1.0" encoding="UTF-8" standalone="no"?>
<svg
   xmlns:dc="http://purl.org/dc/elements/1.1/"
   xmlns:cc="http://creativecommons.org/ns#"
   xmlns:rdf="http://www.w3.org/1999/02/22-rdf-syntax-ns#"
   xmlns:svg="http://www.w3.org/2000/svg"
   xmlns="http://www.w3.org/2000/svg"
   xmlns:sodipodi="http://sodipodi.sourceforge.net/DTD/sodipodi-0.dtd"
   xmlns:inkscape="http://www.inkscape.org/namespaces/inkscape"
   height="48"
   width="48"
   version="1"
   id="svg24"
   sodipodi:docname="google-android-tv-remote.svg"
   inkscape:version="0.91 r13725">
  <metadata
     id="metadata30">
    <rdf:RDF>
      <cc:Work
         rdf:about="">
        <dc:format>image/svg+xml</dc:format>
        <dc:type
           rdf:resource="http://purl.org/dc/dcmitype/StillImage" />
        <dc:title />
      </cc:Work>
    </rdf:RDF>
  </metadata>
  <defs
     id="defs28" />
  <sodipodi:namedview
     pagecolor="#ffffff"
     bordercolor="#666666"
     borderopacity="1"
     objecttolerance="10"
     gridtolerance="10"
     guidetolerance="10"
     inkscape:pageopacity="0"
     inkscape:pageshadow="2"
     inkscape:window-width="1920"
     inkscape:window-height="1018"
     id="namedview26"
     showgrid="false"
     inkscape:zoom="14.06"
     inkscape:cx="26.882376"
     inkscape:cy="24"
     inkscape:window-x="0"
     inkscape:window-y="32"
     inkscape:window-maximized="1"
     inkscape:current-layer="svg24" />
  <rect
     transform="matrix(0,-1,-1,0,0,0)"
     rx="2"
     ry="2"
     height="40"
     width="32"
     y="-44"
     x="-36.000031"
     id="rect2"
     style="fill:#3da0d7;fill-opacity:1" />
  <path
     d="M 6,4 C 4.892,4 4,4.892 4,6 L 4,7 C 4,5.892 4.892,5 6,5 l 36,0 c 1.108,0 2,0.892 2,2 L 44,6 C 44,4.892 43.108,4 42,4 L 6,4 Z"
     id="path6"
     style="opacity:0.2;fill:#ffffff"
     inkscape:connector-curvature="0" />
  <path
     d="m 4,34 0,1 c 0,1.108 0.892,2 2,2 l 36,0 c 1.108,0 2,-0.892 2,-2 l 0,-1 c 0,1.108 -0.892,2 -2,2 L 6,36 C 4.892,36 4,35.108 4,34 Z"
     id="path8"
     inkscape:connector-curvature="0"
     style="opacity:0.2" />
  <path
     id="path4146"
     d="M 24,17 A 14,14 0 0 0 10,31 14,14 0 0 0 24,45 14,14 0 0 0 38,31 14,14 0 0 0 24,17 Z"
     style="opacity:0.2;fill:#000000;fill-opacity:1;fill-rule:evenodd;stroke:none;stroke-width:8;stroke-linecap:round;stroke-linejoin:round;stroke-miterlimit:4;stroke-dasharray:none;stroke-opacity:1"
     inkscape:connector-curvature="0" />
  <path
     style="opacity:1;fill:#e4e4e4;fill-opacity:1;fill-rule:evenodd;stroke:none;stroke-width:8;stroke-linecap:round;stroke-linejoin:round;stroke-miterlimit:4;stroke-dasharray:none;stroke-opacity:1"
     d="M 24,16 A 14,14 0 0 0 10,30 14,14 0 0 0 24,44 14,14 0 0 0 38,30 14,14 0 0 0 24,16 Z"
     id="path4144" />
  <path
     id="path4148"
     d="m 24,25 a 6,6 0 0 1 6,6 6,6 0 0 1 -6,6 6,6 0 0 1 -6,-6 6,6 0 0 1 6,-6 z"
     style="opacity:0.1;fill:#000000;fill-opacity:1;fill-rule:evenodd;stroke:none;stroke-width:8;stroke-linecap:round;stroke-linejoin:round;stroke-miterlimit:4;stroke-dasharray:none;stroke-opacity:1"
     inkscape:connector-curvature="0" />
  <path
     style="opacity:1;fill:#4f4f4f;fill-opacity:1;fill-rule:evenodd;stroke:none;stroke-width:8;stroke-linecap:round;stroke-linejoin:round;stroke-miterlimit:4;stroke-dasharray:none;stroke-opacity:1"
     d="m 24,24 a 6,6 0 0 1 6,6 6,6 0 0 1 -6,6 6,6 0 0 1 -6,-6 6,6 0 0 1 6,-6 z"
     id="path4156" />
  <path
     sodipodi:type="star"
     style="opacity:0.3;fill:#000000;fill-opacity:1;fill-rule:evenodd;stroke:none;stroke-width:8;stroke-linecap:round;stroke-linejoin:round;stroke-miterlimit:4;stroke-dasharray:none;stroke-opacity:1"
     id="path4161"
     sodipodi:sides="3"
     sodipodi:cx="18.244951"
     sodipodi:cy="12.318417"
     sodipodi:r1="3.5797057"
     sodipodi:r2="1.7898529"
     sodipodi:arg1="-1.5707963"
     sodipodi:arg2="-0.52359878"
     inkscape:flatsided="false"
     inkscape:rounded="0"
     inkscape:randomized="0"
     d="m 18.244951,8.7387109 1.550058,2.6847791 1.550058,2.68478 -3.100116,-10e-7 -3.100116,0 1.550058,-2.684779 z"
     inkscape:transform-center-y="-0.66666666"
     transform="matrix(0.9677057,0,0,0.74494018,6.3442567,11.490183)" />
  <path
     transform="matrix(0.9677057,0,0,-0.74494018,6.3442567,48.509817)"
     inkscape:transform-center-y="0.66666696"
     d="m 18.244951,8.7387109 1.550058,2.6847791 1.550058,2.68478 -3.100116,-10e-7 -3.100116,0 1.550058,-2.684779 z"
     inkscape:randomized="0"
     inkscape:rounded="0"
     inkscape:flatsided="false"
     sodipodi:arg2="-0.52359878"
     sodipodi:arg1="-1.5707963"
     sodipodi:r2="1.7898529"
     sodipodi:r1="3.5797057"
     sodipodi:cy="12.318417"
     sodipodi:cx="18.244951"
     sodipodi:sides="3"
     id="path4163"
     style="opacity:0.3;fill:#000000;fill-opacity:1;fill-rule:evenodd;stroke:none;stroke-width:8;stroke-linecap:round;stroke-linejoin:round;stroke-miterlimit:4;stroke-dasharray:none;stroke-opacity:1"
     sodipodi:type="star" />
  <path
     transform="matrix(0,0.9677057,-0.74494018,0,42.509817,12.344257)"
     inkscape:transform-center-y="-0.66666666"
     d="m 18.244951,8.7387109 1.550058,2.6847791 1.550058,2.68478 -3.100116,-10e-7 -3.100116,0 1.550058,-2.684779 z"
     inkscape:randomized="0"
     inkscape:rounded="0"
     inkscape:flatsided="false"
     sodipodi:arg2="-0.52359878"
     sodipodi:arg1="-1.5707963"
     sodipodi:r2="1.7898529"
     sodipodi:r1="3.5797057"
     sodipodi:cy="12.318417"
     sodipodi:cx="18.244951"
     sodipodi:sides="3"
     id="path4171"
     style="opacity:0.3;fill:#000000;fill-opacity:1;fill-rule:evenodd;stroke:none;stroke-width:8;stroke-linecap:round;stroke-linejoin:round;stroke-miterlimit:4;stroke-dasharray:none;stroke-opacity:1"
     sodipodi:type="star" />
  <path
     sodipodi:type="star"
     style="opacity:0.3;fill:#000000;fill-opacity:1;fill-rule:evenodd;stroke:none;stroke-width:8;stroke-linecap:round;stroke-linejoin:round;stroke-miterlimit:4;stroke-dasharray:none;stroke-opacity:1"
     id="path4173"
     sodipodi:sides="3"
     sodipodi:cx="18.244951"
     sodipodi:cy="12.318417"
     sodipodi:r1="3.5797057"
     sodipodi:r2="1.7898529"
     sodipodi:arg1="-1.5707963"
     sodipodi:arg2="-0.52359878"
     inkscape:flatsided="false"
     inkscape:rounded="0"
     inkscape:randomized="0"
     d="m 18.244951,8.7387109 1.550058,2.6847791 1.550058,2.68478 -3.100116,-10e-7 -3.100116,0 1.550058,-2.684779 z"
     inkscape:transform-center-y="0.66666696"
     transform="matrix(0,0.9677057,0.74494018,0,5.490183,12.344257)" />
  <path
     style="opacity:0.2;fill:#ffffff;fill-opacity:1;fill-rule:evenodd;stroke:none;stroke-width:8;stroke-linecap:round;stroke-linejoin:round;stroke-miterlimit:4;stroke-dasharray:none;stroke-opacity:1"
     d="M 24 16 A 14 14 0 0 0 10 30 A 14 14 0 0 0 10.021484 30.414062 A 14 14 0 0 1 24 17 A 14 14 0 0 1 37.978516 30.585938 A 14 14 0 0 0 38 30 A 14 14 0 0 0 24 16 z "
     id="path4150" />
</svg>
