<?xml version="1.0" encoding="UTF-8" standalone="no"?>
<svg
   xmlns:dc="http://purl.org/dc/elements/1.1/"
   xmlns:cc="http://creativecommons.org/ns#"
   xmlns:rdf="http://www.w3.org/1999/02/22-rdf-syntax-ns#"
   xmlns:svg="http://www.w3.org/2000/svg"
   xmlns="http://www.w3.org/2000/svg"
   xmlns:sodipodi="http://sodipodi.sourceforge.net/DTD/sodipodi-0.dtd"
   xmlns:inkscape="http://www.inkscape.org/namespaces/inkscape"
   width="48"
   height="48"
   version="1"
   id="svg2"
   inkscape:version="0.91 r13725"
   sodipodi:docname="google-inbox.svg">
  <metadata
     id="metadata28">
    <rdf:RDF>
      <cc:Work
         rdf:about="">
        <dc:format>image/svg+xml</dc:format>
        <dc:type
           rdf:resource="http://purl.org/dc/dcmitype/StillImage" />
        <dc:title></dc:title>
      </cc:Work>
    </rdf:RDF>
  </metadata>
  <defs
     id="defs26" />
  <sodipodi:namedview
     pagecolor="#ffffff"
     bordercolor="#666666"
     borderopacity="1"
     objecttolerance="10"
     gridtolerance="10"
     guidetolerance="10"
     inkscape:pageopacity="0"
     inkscape:pageshadow="2"
     inkscape:window-width="1920"
     inkscape:window-height="1018"
     id="namedview24"
     showgrid="false"
     showguides="false"
     inkscape:object-nodes="true"
     inkscape:zoom="6.48"
     inkscape:cx="27.698551"
     inkscape:cy="33.737983"
     inkscape:window-x="0"
     inkscape:window-y="32"
     inkscape:window-maximized="1"
     inkscape:current-layer="svg2">
    <inkscape:grid
       type="xygrid"
       id="grid4178" />
  </sodipodi:namedview>
  <path
     style="opacity:0.2;fill:#000000;fill-opacity:1"
     d="M 4.0976562,21 C 4.0387882,21.303351 4,21.626619 4,22 l 0,20 c 0,0.648975 0.3109164,1.219048 0.7871094,1.583984 0.00186,0.0014 0.004,0.0025 0.00586,0.0039 0.071909,0.05471 0.147423,0.103737 0.2265624,0.148437 0.024798,0.01419 0.050739,0.0259 0.076172,0.03906 0.068196,0.03473 0.1364978,0.06688 0.2089844,0.09375 0.053942,0.02047 0.1099247,0.035 0.1660156,0.05078 0.05412,0.01483 0.1062306,0.03266 0.1621094,0.04297 C 5.7517528,43.985514 5.8739353,44 6,44 l 18,0 18,0 c 0.126065,0 0.248247,-0.01449 0.367188,-0.03711 0.05588,-0.01031 0.107989,-0.02814 0.162109,-0.04297 0.05609,-0.01578 0.112073,-0.03031 0.166015,-0.05078 0.07249,-0.02687 0.140789,-0.05902 0.208985,-0.09375 0.02543,-0.01316 0.05137,-0.02487 0.07617,-0.03906 0.07914,-0.0447 0.154653,-0.09373 0.226562,-0.148437 0.0019,-0.0014 0.004,-0.0025 0.0059,-0.0039 C 43.689084,43.219048 44,42.648975 44,42 l 0,-20 c 0,-0.373381 -0.03879,-0.696649 -0.09766,-1 L 24,32.490234 4.0976562,21 Z"
     id="path4200"
     inkscape:connector-curvature="0" />
  <path
     style="opacity:1;fill:#3f70d8;fill-opacity:1"
     d="M 24,5 C 23.05303,5 22.106038,5.2681285 21.390625,5.8046875 L 6.8339844,16.720703 c -1.7219275,1.232264 -2.5626243,2.014923 -2.777369,3.446797 -0.038223,0.254866 0.5507209,0.779062 0.5645026,1.080947 l 0.8695652,19.047619 c 0.05053,1.106847 -0.3076187,1.824021 0.7991719,1.875777 l 17.4616979,0.124223 17.171842,0.289855 C 42.031238,42.604621 42.743143,42.106582 42.799172,41 l 0.993789,-19.627329 c 0.016,-0.315939 0.186889,-0.976029 0.144929,-1.240822 -0.223315,-1.409294 -1.064288,-2.189147 -2.771871,-3.411146 L 26.609375,5.8046875 C 25.893962,5.2681285 24.94697,5 24,5 Z"
     id="rect4"
     inkscape:connector-curvature="0"
     sodipodi:nodetypes="sccsssscssssccs" />
  <path
     style="opacity:0.1;fill:#000000;fill-opacity:1"
     d="M 24 5 C 23.05303 5 22.106038 5.2681285 21.390625 5.8046875 L 6.8339844 16.720703 C 5.1842497 17.901304 4.3541139 18.678463 4.0976562 20 L 43.902344 20 C 43.645886 18.678463 42.815751 17.901304 41.166016 16.720703 L 26.609375 5.8046875 C 25.893962 5.2681285 24.94697 5 24 5 z "
     id="path4190" />
  <path
     sodipodi:nodetypes="ccc"
     inkscape:connector-curvature="0"
     id="path4215"
     d="m 17,17.000083 7,7 13,-13"
     style="opacity:0.2;fill:none;fill-rule:evenodd;stroke:#000000;stroke-width:4;stroke-linecap:round;stroke-linejoin:round;stroke-miterlimit:4;stroke-dasharray:none;stroke-opacity:1" />
  <path
     style="fill:none;fill-rule:evenodd;stroke:#e4e4e4;stroke-width:4;stroke-linecap:round;stroke-linejoin:round;stroke-miterlimit:4;stroke-dasharray:none;stroke-opacity:1"
     d="m 17,16 7,7 13,-13"
     id="path4180"
     inkscape:connector-curvature="0"
     sodipodi:nodetypes="ccc" />
  <path
     id="path4198"
     d="M 4.097656,20 43.212891,42.583984 C 42.876076,42.842107 42.459025,43 42,43 L 24,43 6,43 C 4.892,43 4,42.108 4,41 L 4,21 c 0,-0.373381 0.038788,-0.696649 0.097656,-1 z"
     style="opacity:1;fill:#33b9f6;fill-opacity:1"
     inkscape:connector-curvature="0" />
  <path
     style="opacity:0.1;fill:#ffffff;fill-opacity:1"
     d="M 4.0976562 20 C 4.0387882 20.303351 4 20.626619 4 21 L 4 22 C 4 21.626619 4.0387882 21.303351 4.0976562 21 L 42.175781 42.984375 C 42.564635 42.949323 42.920142 42.808336 43.212891 42.583984 L 4.0976562 20 z "
     id="path4210" />
  <path
     style="opacity:1;fill:#84d5fa;fill-opacity:1"
     d="M 43.902344 20 L 4.7871094 42.583984 C 5.1239244 42.842107 5.5409749 43 6 43 L 24 43 L 42 43 C 43.108 43 44 42.108 44 41 L 44 21 C 44 20.626619 43.961212 20.303351 43.902344 20 z "
     id="path4193" />
  <path
     style="opacity:0.2;fill:#ffffff;fill-opacity:1"
     d="M 43.902344 20 L 4.7871094 42.583984 C 5.0798579 42.808336 5.4353648 42.949323 5.8242188 42.984375 L 43.902344 21 C 43.961214 21.303351 44 21.626619 44 22 L 44 21 C 44 20.626619 43.961212 20.303351 43.902344 20 z "
     id="path4205" />
</svg>
