<?xml version="1.0" encoding="UTF-8" standalone="no"?>
<svg
   xmlns:dc="http://purl.org/dc/elements/1.1/"
   xmlns:cc="http://creativecommons.org/ns#"
   xmlns:rdf="http://www.w3.org/1999/02/22-rdf-syntax-ns#"
   xmlns:svg="http://www.w3.org/2000/svg"
   xmlns="http://www.w3.org/2000/svg"
   xmlns:sodipodi="http://sodipodi.sourceforge.net/DTD/sodipodi-0.dtd"
   xmlns:inkscape="http://www.inkscape.org/namespaces/inkscape"
   width="48"
   height="48"
   version="1"
   id="svg2"
   inkscape:version="0.91 r13725"
   sodipodi:docname="google-youtube-gaming.svg">
  <metadata
     id="metadata18">
    <rdf:RDF>
      <cc:Work
         rdf:about="">
        <dc:format>image/svg+xml</dc:format>
        <dc:type
           rdf:resource="http://purl.org/dc/dcmitype/StillImage" />
        <dc:title></dc:title>
      </cc:Work>
    </rdf:RDF>
  </metadata>
  <defs
     id="defs16" />
  <sodipodi:namedview
     pagecolor="#ffffff"
     bordercolor="#666666"
     borderopacity="1"
     objecttolerance="10"
     gridtolerance="10"
     guidetolerance="10"
     inkscape:pageopacity="0"
     inkscape:pageshadow="2"
     inkscape:window-width="1920"
     inkscape:window-height="1018"
     id="namedview14"
     showgrid="true"
     inkscape:zoom="6.1300268"
     inkscape:cx="4.2317073"
     inkscape:cy="24"
     inkscape:window-x="0"
     inkscape:window-y="32"
     inkscape:window-maximized="1"
     inkscape:current-layer="svg2">
    <inkscape:grid
       type="xygrid"
       id="grid4154" />
  </sodipodi:namedview>
  <path
     sodipodi:nodetypes="scscssssssscssscs"
     inkscape:connector-curvature="0"
     id="path4156"
     d="M 14.48903,35.625445 C 2.82842,28.650233 3.54282,29.106141 3.24769,28.451533 3.03213,27.97343 2.9998,27.110217 3,21.83943 3.00016,16.38879 3.0271,15.720668 3.26631,15.21663 3.49759,14.729355 4.13939,14.29167 8.1737403,11.869944 11.53319,9.8533498 12.98322,9.0659002 13.4238,9.0188606 c 0.55737,-0.05951 0.99372,-0.1318054 5.17397,2.3970534 4.39438,2.658396 4.5966,2.593467 5.40223,2.593467 0.80564,0 1.00786,0.06493 5.40224,-2.593467 4.18025,-2.5288588 4.6166,-2.4565621 5.17397,-2.3970534 0.44058,0.047038 1.89061,0.8344892 5.25006,2.8510834 4.03435,2.421726 4.67615,2.859411 4.90743,3.346686 0.23922,0.504038 0.26609,1.17216 0.2663,6.6228 1.6e-4,5.281989 -0.0318,6.133304 -0.2488,6.614597 -0.29296,0.649776 0.24824,0.305371 -11.63563,7.404592 -6.70332,4.004448 -8.72766,5.144347 -9.13054,5.141375 -0.39625,-0.0029 -2.6232,-1.263336 -9.496,-5.374549 z"
     style="opacity:0.2;fill:#000000;fill-opacity:1" />
  <path
     style="fill:#c2352a;fill-opacity:1"
     d="M 14.48903,34.625445 C 2.82842,27.650233 3.54282,28.106141 3.24769,27.451533 3.03213,26.97343 2.9998,26.110217 3,20.83943 3.00016,15.38879 3.0271,14.720668 3.26631,14.21663 3.49759,13.729355 4.13939,13.29167 8.1737403,10.869944 11.53319,8.8533496 12.98322,8.0659 13.4238,8.0188604 c 0.55737,-0.05951 0.99372,-0.1318054 5.17397,2.3970536 4.39438,2.658396 4.5966,2.593467 5.40223,2.593467 0.80564,0 1.00786,0.06493 5.40224,-2.593467 4.18025,-2.528859 4.6166,-2.4565623 5.17397,-2.3970536 0.44058,0.047038 1.89061,0.8344892 5.25006,2.8510836 4.03435,2.421726 4.67615,2.859411 4.90743,3.346686 0.23922,0.504038 0.26609,1.17216 0.2663,6.6228 1.6e-4,5.281989 -0.0318,6.133304 -0.2488,6.614597 -0.29296,0.649776 0.24824,0.305371 -11.63563,7.404592 -6.70332,4.004448 -8.72766,5.144347 -9.13054,5.141375 -0.39625,-0.0029 -2.6232,-1.263336 -9.496,-5.374549 z"
     id="path4152"
     inkscape:connector-curvature="0"
     sodipodi:nodetypes="scscssssssscssscs" />
  <path
     style="opacity:0.2;fill:#000000;fill-opacity:1;stroke-width:1.03378677"
     id="path4158"
     d="m 33.430838,11.00009 c -0.389011,-0.008 -0.455924,0.517278 -0.423771,0.896476 0.0028,3.548945 -0.005,7.098371 0.0036,10.647155 0.03421,0.42432 0.468299,0.593855 0.715101,0.330712 2.637706,-1.816953 6.474427,-3.621424 9.108196,-5.446218 0.287387,-0.251167 0.177319,-0.836076 -0.143454,-0.957676 -2.637778,-1.809752 -6.464693,-3.629425 -9.104616,-5.433017 -0.04931,-0.02463 -0.102303,-0.03735 -0.155328,-0.03744 z"
     inkscape:connector-curvature="0" />
  <path
     inkscape:connector-curvature="0"
     d="m 33.430838,10.00009 c -0.389011,-0.008 -0.455924,0.517278 -0.423771,0.896476 0.0028,3.548945 -0.005,7.098371 0.0036,10.647155 0.03421,0.42432 0.468299,0.593855 0.715101,0.330712 2.637706,-1.816953 6.474427,-3.621424 9.108196,-5.446218 0.287387,-0.251167 0.177319,-0.836076 -0.143454,-0.957676 -2.637778,-1.809752 -6.464693,-3.629425 -9.104616,-5.433017 -0.04931,-0.02463 -0.102303,-0.03735 -0.155328,-0.03744 z"
     id="path20"
     style="fill:#ffffff;fill-opacity:1;stroke-width:1.03378677" />
  <path
     style="fill:#ffffff;fill-opacity:1;opacity:0.2"
     d="M 13.878906 8.0117188 C 13.694302 7.9873516 13.563171 8.0046537 13.423828 8.0195312 C 12.983248 8.0665708 11.533278 8.8525462 8.1738281 10.869141 C 4.1394778 13.290867 3.496905 13.729522 3.265625 14.216797 C 3.026415 14.720835 3.00016 15.389204 3 20.839844 C 2.9999903 21.096019 3.003745 21.100124 3.0039062 21.335938 C 3.0069629 16.584426 3.0380815 15.696252 3.265625 15.216797 C 3.496905 14.729522 4.1394778 14.290867 8.1738281 11.869141 C 11.533278 9.8525464 12.983248 9.0665708 13.423828 9.0195312 C 13.981198 8.9600213 14.417406 8.8871568 18.597656 11.416016 C 22.992036 14.074412 23.19437 14.009766 24 14.009766 C 24.80564 14.009766 25.007964 14.074413 29.402344 11.416016 C 33.582594 8.8871568 34.018802 8.9600226 34.576172 9.0195312 C 35.016752 9.0665693 36.466722 9.8525464 39.826172 11.869141 C 43.860522 14.290867 44.503095 14.729522 44.734375 15.216797 C 44.961973 15.696348 44.993012 16.583796 44.996094 21.337891 C 44.996256 21.100952 45.000008 21.097377 45 20.839844 C 44.99979 15.389204 44.973595 14.720835 44.734375 14.216797 C 44.503095 13.729522 43.860522 13.290867 39.826172 10.869141 C 36.466722 8.8525462 35.016752 8.0665693 34.576172 8.0195312 C 34.018802 7.9600225 33.582594 7.8871566 29.402344 10.416016 C 25.007964 13.074413 24.80564 13.009766 24 13.009766 C 23.19437 13.009766 22.992036 13.074412 18.597656 10.416016 C 15.462469 8.5193714 14.432719 8.0848202 13.878906 8.0117188 z "
     id="path4160" />
</svg>
