<?xml version="1.0" encoding="UTF-8" standalone="no"?>
<svg
   xmlns:dc="http://purl.org/dc/elements/1.1/"
   xmlns:cc="http://creativecommons.org/ns#"
   xmlns:rdf="http://www.w3.org/1999/02/22-rdf-syntax-ns#"
   xmlns:svg="http://www.w3.org/2000/svg"
   xmlns="http://www.w3.org/2000/svg"
   xmlns:sodipodi="http://sodipodi.sourceforge.net/DTD/sodipodi-0.dtd"
   xmlns:inkscape="http://www.inkscape.org/namespaces/inkscape"
   height="48"
   width="48"
   version="1"
   id="svg2"
   inkscape:version="0.91 r13725"
   sodipodi:docname="google-news.svg">
  <metadata
     id="metadata18">
    <rdf:RDF>
      <cc:Work
         rdf:about="">
        <dc:format>image/svg+xml</dc:format>
        <dc:type
           rdf:resource="http://purl.org/dc/dcmitype/StillImage" />
        <dc:title></dc:title>
      </cc:Work>
    </rdf:RDF>
  </metadata>
  <defs
     id="defs16" />
  <sodipodi:namedview
     pagecolor="#ffffff"
     bordercolor="#666666"
     borderopacity="1"
     objecttolerance="10"
     gridtolerance="10"
     guidetolerance="10"
     inkscape:pageopacity="0"
     inkscape:pageshadow="2"
     inkscape:window-width="1920"
     inkscape:window-height="1018"
     id="namedview14"
     showgrid="false"
     inkscape:zoom="8.08"
     inkscape:cx="0.21993087"
     inkscape:cy="24"
     inkscape:window-x="0"
     inkscape:window-y="32"
     inkscape:window-maximized="1"
     inkscape:current-layer="svg2" />
  <path
     style="opacity:0.2;fill:#000000;fill-opacity:1"
     d="M 6,9 C 4.892,9 4,9.892 4,11 l 0,28 c 0,1.108 0.892,2 2,2 L 32,41 44,29 44,11 C 44,9.892 43.108,9 42,9 L 6,9 Z"
     id="path4202"
     inkscape:connector-curvature="0" />
  <path
     style="fill:#e4e4e4;fill-opacity:1"
     inkscape:connector-curvature="0"
     d="M 44,10 C 44,8.892 43.108,8 42,8 L 6,8 C 4.892,8 4,8.892 4,10 l 0,28 c 0,1.108 0.892,2 2,2 l 26,0 1,-11 11,-1 z"
     id="path6" />
  <path
     style="opacity:0.1;fill:#000000;fill-opacity:1;fill-rule:evenodd;stroke:none;stroke-width:8;stroke-linecap:round;stroke-linejoin:round;stroke-miterlimit:4;stroke-dasharray:none;stroke-opacity:1"
     d="M 7.9707031,14 C 7.432912,14 7,14.401069 7,14.898438 l 0,2.203124 C 7,17.598931 7.432912,18 7.9707031,18 L 24,18 40.029297,18 C 40.567088,18 41,17.598931 41,17.101562 l 0,-2.203124 C 41,14.401069 40.567088,14 40.029297,14 L 24,14 7.9707031,14 Z"
     id="path4228"
     inkscape:connector-curvature="0" />
  <path
     style="opacity:1;fill:#4f8df5;fill-opacity:1;fill-rule:evenodd;stroke:none;stroke-width:8;stroke-linecap:round;stroke-linejoin:round;stroke-miterlimit:4;stroke-dasharray:none;stroke-opacity:1"
     d="M 7.9707031 13 C 7.432912 13 7 13.401069 7 13.898438 L 7 16.101562 C 7 16.598931 7.432912 17 7.9707031 17 L 24 17 L 24 13 L 7.9707031 13 z "
     id="rect4172" />
  <path
     style="opacity:0.3;fill:#000000;fill-opacity:1;fill-rule:evenodd;stroke:none;stroke-width:6;stroke-linecap:round;stroke-linejoin:round;stroke-miterlimit:4;stroke-dasharray:none;stroke-opacity:1"
     d="M 27 21 C 26.446 21 26 21.446 26 22 C 26 22.554 26.446 23 27 23 L 39 23 C 39.554 23 40 22.554 40 22 C 40 21.446 39.554 21 39 21 L 27 21 z M 27 25 C 26.446 25 26 25.446 26 26 C 26 26.554 26.446 27 27 27 L 39 27 C 39.554 27 40 26.554 40 26 C 40 25.446 39.554 25 39 25 L 27 25 z M 27 29 C 26.446 29 26 29.446 26 30 C 26 30.554 26.446 31 27 31 L 39 31 C 39.554 31 40 30.554 40 30 C 40 29.446 39.554 29 39 29 L 27 29 z M 27 33 C 26.446 33 26 33.446 26 34 C 26 34.554 26.446 35 27 35 L 32.455078 35 L 32.636719 33 L 27 33 z "
     id="rect4178" />
  <path
     style="fill:#fafafa;fill-opacity:1"
     inkscape:connector-curvature="0"
     d="m 44,28 -10,0 c -1.1046,0 -2,0.89543 -2,2 l 0,10 12,-12 z"
     id="path10" />
  <rect
     style="opacity:1;fill:#495ab9;fill-opacity:1;fill-rule:evenodd;stroke:none;stroke-width:6;stroke-linecap:round;stroke-linejoin:round;stroke-miterlimit:4;stroke-dasharray:none;stroke-opacity:1"
     id="rect4152"
     width="16"
     height="16"
     x="-23"
     y="-37"
     ry="1.3333334"
     rx="1.3333334"
     transform="scale(-1,-1)" />
  <path
     style="opacity:1;fill:#0fadf5;fill-opacity:1;fill-rule:evenodd;stroke:none;stroke-width:8;stroke-linecap:round;stroke-linejoin:round;stroke-miterlimit:4;stroke-dasharray:none;stroke-opacity:1"
     d="m 24,13 16.029258,0 C 40.567049,13 41,13.400409 41,13.897778 l 0,2.204444 C 41,16.599591 40.567049,17 40.029258,17 L 24,17 Z"
     id="rect4183"
     inkscape:connector-curvature="0"
     sodipodi:nodetypes="csssscc" />
  <path
     style="fill:#ffffff;fill-opacity:1;opacity:0.2"
     d="M 34 28 C 32.8954 28 32 28.89543 32 30 L 32 31 C 32 29.89543 32.8954 29 34 29 L 43 29 L 44 28 L 34 28 z "
     id="path4190" />
  <path
     style="fill:#ffffff;fill-opacity:1;opacity:0.2"
     d="M 6 8 C 4.892 8 4 8.892 4 10 L 4 11 C 4 9.892 4.892 9 6 9 L 42 9 C 43.108 9 44 9.892 44 11 L 44 10 C 44 8.892 43.108 8 42 8 L 6 8 z "
     id="path4195" />
  <path
     id="path4226"
     d="m 15.123047,24 c -2.3506,0 -4.448082,1.350312 -5.4687501,3.320312 C 9.2368435,28.130312 9,29.04 9,30 c 0,0.99 0.2524306,1.93 0.6933594,2.75 1.0339376,1.93 3.1076666,3.25 5.4296876,3.25 1.54223,0 2.92012,-0.579063 3.955078,-1.539062 C 20.266183,33.360936 21,31.77 21,30 c 0,-0.341227 -0.03194,-0.673963 -0.08398,-1 L 20,29 18.865234,29 15,29 l 0,2 3.867188,0 C 18.643496,31.866019 18.136,32.632076 17.425781,33.175781 A 4,4 0 0 1 15,34 4,4 0 0 1 11.294922,31.501953 4,4 0 0 1 11,30 4,4 0 0 1 11.28125,28.535156 4,4 0 0 1 15,26 a 4,4 0 0 1 2.691406,1.048828 l 1.457032,-1.449219 C 18.107354,24.609609 16.701,24 15.123047,24 Z"
     style="opacity:0.2;fill:#000000"
     inkscape:connector-curvature="0" />
  <path
     style="fill:#ffffff"
     d="M 15.123047 23 C 12.772447 23 10.674965 24.350312 9.6542969 26.320312 C 9.2368435 27.130312 9 28.04 9 29 C 9 29.99 9.2524306 30.93 9.6933594 31.75 C 10.727297 33.68 12.801026 35 15.123047 35 C 16.665277 35 18.043167 34.420937 19.078125 33.460938 C 20.266183 32.360936 21 30.77 21 29 C 21 28.658773 20.968056 28.326037 20.916016 28 L 20 28 L 18.865234 28 L 15 28 L 15 30 L 18.867188 30 C 18.643496 30.866019 18.136 31.632076 17.425781 32.175781 A 4 4 0 0 1 15 33 A 4 4 0 0 1 11.294922 30.501953 A 4 4 0 0 1 11 29 A 4 4 0 0 1 11.28125 27.535156 A 4 4 0 0 1 15 25 A 4 4 0 0 1 17.691406 26.048828 L 19.148438 24.599609 C 18.107354 23.609609 16.701 23 15.123047 23 z "
     id="path6-3" />
</svg>
