<?xml version="1.0" encoding="UTF-8" standalone="no"?>
<svg
   xmlns:dc="http://purl.org/dc/elements/1.1/"
   xmlns:cc="http://creativecommons.org/ns#"
   xmlns:rdf="http://www.w3.org/1999/02/22-rdf-syntax-ns#"
   xmlns:svg="http://www.w3.org/2000/svg"
   xmlns="http://www.w3.org/2000/svg"
   xmlns:sodipodi="http://sodipodi.sourceforge.net/DTD/sodipodi-0.dtd"
   xmlns:inkscape="http://www.inkscape.org/namespaces/inkscape"
   width="48"
   height="48"
   version="1.1"
   viewBox="0 0 48 48"
   id="svg2"
   inkscape:version="0.91 r13725"
   sodipodi:docname="google-talkback.svg">
  <metadata
     id="metadata24">
    <rdf:RDF>
      <cc:Work
         rdf:about="">
        <dc:format>image/svg+xml</dc:format>
        <dc:type
           rdf:resource="http://purl.org/dc/dcmitype/StillImage" />
        <dc:title></dc:title>
      </cc:Work>
    </rdf:RDF>
  </metadata>
  <defs
     id="defs22" />
  <sodipodi:namedview
     pagecolor="#ffffff"
     bordercolor="#666666"
     borderopacity="1"
     objecttolerance="10"
     gridtolerance="10"
     guidetolerance="10"
     inkscape:pageopacity="0"
     inkscape:pageshadow="2"
     inkscape:window-width="1920"
     inkscape:window-height="1018"
     id="namedview20"
     showgrid="true"
     inkscape:object-nodes="true"
     inkscape:zoom="11.26"
     inkscape:cx="24"
     inkscape:cy="22.98609"
     inkscape:window-x="0"
     inkscape:window-y="32"
     inkscape:window-maximized="1"
     inkscape:current-layer="svg2">
    <inkscape:grid
       type="xygrid"
       id="grid4189" />
  </sodipodi:namedview>
  <path
     id="path4199"
     d="M 24,5.0034351 C 23.520308,4.9779793 23.227096,5.0769872 22.818359,5.3061695 22.118379,5.6986541 5.6747744,18.149673 4.8964844,18.876482 4.2945444,19.438603 4,20.086689 4,20.853045 c 0,0.763849 6.739556,22.44227 7.160156,23.03125 0.33313,0.46648 0.960425,0.850293 1.677735,1.027343 0.24105,0.0595 5.095739,0.09874 11.162109,0.08594 6.066371,0.0128 10.921059,-0.02644 11.162109,-0.08594 0.71731,-0.17705 1.344605,-0.560862 1.677735,-1.027343 C 37.260444,43.295315 44,21.616894 44,20.853045 44,20.086689 43.705456,19.438602 43.103516,18.876482 42.325226,18.149672 25.881621,5.6986541 25.181641,5.3061695 24.772904,5.0769872 24.479692,4.9779793 24,5.0034351 Z"
     style="opacity:0.2;fill:#000000;fill-opacity:1"
     inkscape:connector-curvature="0" />
  <path
     style="fill:#6b48af;fill-opacity:1"
     d="M 24 4.0039062 C 23.520308 3.9784504 23.227096 4.0774583 22.818359 4.3066406 C 22.118379 4.6991252 5.6747744 17.150144 4.8964844 17.876953 C 4.2945444 18.439074 4 19.08716 4 19.853516 C 4 20.617365 10.739556 42.295786 11.160156 42.884766 C 11.493286 43.351246 12.120581 43.735059 12.837891 43.912109 C 13.078941 43.971609 17.93363 44.010847 24 43.998047 C 30.066371 44.010847 34.921059 43.971609 35.162109 43.912109 C 35.879419 43.735059 36.506714 43.351247 36.839844 42.884766 C 37.260444 42.295786 44 20.617365 44 19.853516 C 44 19.08716 43.705456 18.439073 43.103516 17.876953 C 42.325226 17.150143 25.881621 4.6991252 25.181641 4.3066406 C 24.772904 4.0774583 24.479692 3.9784504 24 4.0039062 z "
     id="path4171" />
  <path
     id="path4201"
     d="m 17,18.999529 c -1.108,0 -2,0.892 -2,2 l 0,3.126953 0,6.873047 0,5 3.5,-3 12.5,0 c 1.108,0 2,-0.892 2,-2 l 0,-10 c 0,-1.108 -0.892,-2 -2,-2 l -14,0 z m 1.070312,3 5.929688,0 5.929688,0 0.03516,4 0.03516,4 -6,0 -6,0 0.03516,-4 0.03516,-4 z"
     style="opacity:0.2;fill:#000000;fill-opacity:1"
     inkscape:connector-curvature="0" />
  <path
     style="fill:#ffffff;fill-opacity:1"
     d="M 17 18 C 15.892 18 15 18.892 15 20 L 15 23.126953 L 15 30 L 15 35 L 18.5 32 L 31 32 C 32.108 32 33 31.108 33 30 L 33 20 C 33 18.892 32.108 18 31 18 L 17 18 z M 18.070312 21 L 24 21 L 29.929688 21 L 29.964844 25 L 30 29 L 24 29 L 18 29 L 18.035156 25 L 18.070312 21 z "
     id="path4193" />
  <path
     style="fill:#ffffff;fill-opacity:1;opacity:0.1"
     d="M 24 4.0039062 C 23.520308 3.9784504 23.227096 4.0774583 22.818359 4.3066406 C 22.118379 4.6991252 5.6747744 17.150144 4.8964844 17.876953 C 4.2945444 18.439074 4 19.08716 4 19.853516 C 4 19.881823 4.0680906 20.121463 4.0859375 20.205078 C 4.2096656 19.713486 4.4731592 19.272275 4.8964844 18.876953 C 5.6747744 18.150144 22.118379 5.6991252 22.818359 5.3066406 C 23.227096 5.0774583 23.520308 4.9784505 24 5.0039062 C 24.479692 4.9784505 24.772904 5.0774583 25.181641 5.3066406 C 25.881621 5.6991252 42.325226 18.150143 43.103516 18.876953 C 43.526841 19.272274 43.790335 19.713485 43.914062 20.205078 C 43.931909 20.121463 44 19.881823 44 19.853516 C 44 19.08716 43.705456 18.439073 43.103516 17.876953 C 42.325226 17.150143 25.881621 4.6991252 25.181641 4.3066406 C 24.772904 4.0774583 24.479692 3.9784504 24 4.0039062 z "
     id="path4203" />
</svg>
