<?xml version="1.0" encoding="UTF-8" standalone="no"?>
<svg
   xmlns:dc="http://purl.org/dc/elements/1.1/"
   xmlns:cc="http://creativecommons.org/ns#"
   xmlns:rdf="http://www.w3.org/1999/02/22-rdf-syntax-ns#"
   xmlns:svg="http://www.w3.org/2000/svg"
   xmlns="http://www.w3.org/2000/svg"
   xmlns:sodipodi="http://sodipodi.sourceforge.net/DTD/sodipodi-0.dtd"
   xmlns:inkscape="http://www.inkscape.org/namespaces/inkscape"
   height="48"
   width="48"
   version="1"
   id="svg2"
   inkscape:version="0.91 r13725"
   sodipodi:docname="google-my-maps.svg">
  <metadata
     id="metadata18">
    <rdf:RDF>
      <cc:Work
         rdf:about="">
        <dc:format>image/svg+xml</dc:format>
        <dc:type
           rdf:resource="http://purl.org/dc/dcmitype/StillImage" />
        <dc:title></dc:title>
      </cc:Work>
    </rdf:RDF>
  </metadata>
  <defs
     id="defs16" />
  <sodipodi:namedview
     pagecolor="#ffffff"
     bordercolor="#666666"
     borderopacity="1"
     objecttolerance="10"
     gridtolerance="10"
     guidetolerance="10"
     inkscape:pageopacity="0"
     inkscape:pageshadow="2"
     inkscape:window-width="1920"
     inkscape:window-height="1018"
     id="namedview14"
     showgrid="false"
     inkscape:zoom="9.8603159"
     inkscape:cx="58.901699"
     inkscape:cy="24"
     inkscape:window-x="0"
     inkscape:window-y="32"
     inkscape:window-maximized="1"
     inkscape:current-layer="svg2" />
  <path
     inkscape:connector-curvature="0"
     d="M 10,5 C 8.892,5 8,5.892 8,7 l 0,36 c 0,1.108 0.892,2 2,2 l 28,0 c 1.108,0 2,-0.892 2,-2 L 40,17 29,16 28,5 Z"
     style="opacity:0.2;fill:#000000;fill-opacity:1"
     id="path4" />
  <path
     inkscape:connector-curvature="0"
     d="M 10,4 C 8.892,4 8,4.892 8,6 l 0,36 c 0,1.108 0.892,2 2,2 l 28,0 c 1.108,0 2,-0.892 2,-2 L 40,16 29,15 28,4 Z"
     id="path6"
     style="fill:#de564a;fill-opacity:1" />
  <path
     inkscape:connector-curvature="0"
     d="M 10,4 C 8.892,4 8,4.892 8,6 L 8,7 C 8,5.892 8.892,5 10,5 L 28,5 39,16 40,16 28,4 Z"
     style="opacity:0.2;fill:#ffffff"
     id="path8" />
  <path
     id="path4146"
     d="m 28,5 0,10 c 0,1.1046 0.89543,2 2,2 L 40,17 28,5 Z"
     style="opacity:0.2;fill:#000000"
     inkscape:connector-curvature="0" />
  <path
     inkscape:connector-curvature="0"
     d="m 28,4 0,10 c 0,1.1046 0.89543,2 2,2 L 40,16 28,4 Z"
     id="path10"
     style="fill:#e99087;fill-opacity:1" />
  <path
     d="M 24.00008,19 C 19.581703,19 16,22.516814 16,26.855215 c 0,0.271129 0.02272,0.521392 0.04992,0.785454 0.02192,0.262796 0.05728,0.528126 0.100001,0.785522 C 17.065931,33.947507 20.800101,37.858048 24,41 c 3.200032,-3.142019 6.934069,-7.051893 7.850078,-12.573809 0.04272,-0.257396 0.07808,-0.522726 0.100001,-0.785522 C 31.97744,27.376607 32,27.126344 32,26.855215 32,22.51688 28.418231,19 23.99992,19 Z"
     id="path4150"
     inkscape:connector-curvature="0"
     style="opacity:0.2;fill:#000000;fill-opacity:1" />
  <path
     style="fill:#ffffff;fill-opacity:1"
     inkscape:connector-curvature="0"
     id="path24"
     d="M 24.00008,18 C 19.581703,18 16,21.516814 16,25.855215 c 0,0.271129 0.02272,0.521392 0.04992,0.785454 0.02192,0.262796 0.05728,0.528126 0.100001,0.785522 C 17.065931,32.947507 20.800101,36.858048 24,40 c 3.200032,-3.142019 6.934069,-7.051893 7.850078,-12.573809 0.04272,-0.257396 0.07808,-0.522726 0.100001,-0.785522 C 31.97744,26.376607 32,26.126344 32,25.855215 32,21.51688 28.418231,18 23.99992,18 Z" />
  <path
     style="fill:#4f4f4f;fill-opacity:1"
     inkscape:connector-curvature="0"
     id="path28"
     d="m 24,23.000152 c 1.65684,0 3,1.343126 3,2.999924 C 27,27.656874 25.65684,29 24,29 c -1.65684,0 -3,-1.343126 -3,-2.999924 0,-1.656798 1.34316,-2.999924 3,-2.999924 z" />
</svg>
