<?xml version="1.0" encoding="UTF-8" standalone="no"?>
<svg
   xmlns:dc="http://purl.org/dc/elements/1.1/"
   xmlns:cc="http://creativecommons.org/ns#"
   xmlns:rdf="http://www.w3.org/1999/02/22-rdf-syntax-ns#"
   xmlns:svg="http://www.w3.org/2000/svg"
   xmlns="http://www.w3.org/2000/svg"
   xmlns:sodipodi="http://sodipodi.sourceforge.net/DTD/sodipodi-0.dtd"
   xmlns:inkscape="http://www.inkscape.org/namespaces/inkscape"
   width="48"
   version="1.1"
   height="48"
   viewBox="0 0 48 48"
   id="svg12"
   sodipodi:docname="google-phone.svg"
   inkscape:version="0.91 r13725">
  <metadata
     id="metadata18">
    <rdf:RDF>
      <cc:Work
         rdf:about="">
        <dc:format>image/svg+xml</dc:format>
        <dc:type
           rdf:resource="http://purl.org/dc/dcmitype/StillImage" />
        <dc:title></dc:title>
      </cc:Work>
    </rdf:RDF>
  </metadata>
  <defs
     id="defs16" />
  <sodipodi:namedview
     pagecolor="#ffffff"
     bordercolor="#666666"
     borderopacity="1"
     objecttolerance="10"
     gridtolerance="10"
     guidetolerance="10"
     inkscape:pageopacity="0"
     inkscape:pageshadow="2"
     inkscape:window-width="1920"
     inkscape:window-height="1018"
     id="namedview14"
     showgrid="true"
     inkscape:zoom="10.66"
     inkscape:cx="4.4035439"
     inkscape:cy="20.190432"
     inkscape:window-x="0"
     inkscape:window-y="32"
     inkscape:window-maximized="1"
     inkscape:current-layer="svg12"
     inkscape:object-nodes="true">
    <inkscape:grid
       type="xygrid"
       id="grid4140" />
  </sodipodi:namedview>
  <circle
     r="20"
     cy="25"
     cx="24"
     id="circle4157"
     style="opacity:0.2;fill:#000000;fill-opacity:1;fill-rule:evenodd;stroke:none;stroke-width:8;stroke-linecap:butt;stroke-linejoin:round;stroke-miterlimit:4;stroke-dasharray:none;stroke-opacity:1" />
  <circle
     style="opacity:1;fill:#3f61ba;fill-opacity:1;fill-rule:evenodd;stroke:none;stroke-width:8;stroke-linecap:butt;stroke-linejoin:round;stroke-miterlimit:4;stroke-dasharray:none;stroke-opacity:1"
     id="path4146"
     cx="24"
     cy="24"
     r="20" />
  <path
     id="path4164"
     d="m 17.142578,14 c -2.65774,0 -4.843109,2.156056 -5.113281,4.921875 l -0.0293,0 c 4.62e-4,0.09041 0.0092,0.22767 0.01172,0.332031 C 12.008312,19.336062 12,19.416946 12,19.5 c 0,0.383858 0.03549,0.759414 0.105469,1.121094 0.287325,2.827829 1.401276,7.592682 5.541015,11.732422 4.13974,4.139739 8.904593,5.253689 11.732422,5.541015 C 29.740586,37.96451 30.116142,38 30.5,38 c 0.08305,0 0.163938,-0.0083 0.246094,-0.01172 0.104361,0.0025 0.241619,0.01126 0.332031,0.01172 l 0,-0.0293 C 33.843944,37.700531 36,35.515162 36,32.857422 36,30.017101 33.537567,29 30.5,29 27.90193,29 25.72997,29.747754 25.154297,31.740234 23.842443,31.111819 22.455636,30.20173 21.126953,28.873047 19.79827,27.544364 18.888181,26.157557 18.259766,24.845703 20.252246,24.27003 21,22.09807 21,19.5 21,16.462433 19.982899,14 17.142578,14 Z"
     style="color:#000000;font-style:normal;font-variant:normal;font-weight:normal;font-stretch:normal;font-size:medium;line-height:normal;font-family:sans-serif;text-indent:0;text-align:start;text-decoration:none;text-decoration-line:none;text-decoration-style:solid;text-decoration-color:#000000;letter-spacing:normal;word-spacing:normal;text-transform:none;direction:ltr;block-progression:tb;writing-mode:lr-tb;baseline-shift:baseline;text-anchor:start;white-space:normal;clip-rule:nonzero;display:inline;overflow:visible;visibility:visible;opacity:0.2;isolation:auto;mix-blend-mode:normal;color-interpolation:sRGB;color-interpolation-filters:linearRGB;solid-color:#000000;solid-opacity:1;fill:#000000;fill-opacity:1;fill-rule:evenodd;stroke:none;stroke-width:8;stroke-linecap:butt;stroke-linejoin:round;stroke-miterlimit:4;stroke-dasharray:none;stroke-dashoffset:0;stroke-opacity:1;color-rendering:auto;image-rendering:auto;shape-rendering:auto;text-rendering:auto;enable-background:accumulate"
     inkscape:connector-curvature="0" />
  <path
     style="color:#000000;font-style:normal;font-variant:normal;font-weight:normal;font-stretch:normal;font-size:medium;line-height:normal;font-family:sans-serif;text-indent:0;text-align:start;text-decoration:none;text-decoration-line:none;text-decoration-style:solid;text-decoration-color:#000000;letter-spacing:normal;word-spacing:normal;text-transform:none;direction:ltr;block-progression:tb;writing-mode:lr-tb;baseline-shift:baseline;text-anchor:start;white-space:normal;clip-rule:nonzero;display:inline;overflow:visible;visibility:visible;opacity:1;isolation:auto;mix-blend-mode:normal;color-interpolation:sRGB;color-interpolation-filters:linearRGB;solid-color:#000000;solid-opacity:1;fill:#ffffff;fill-opacity:1;fill-rule:evenodd;stroke:none;stroke-width:8;stroke-linecap:butt;stroke-linejoin:round;stroke-miterlimit:4;stroke-dasharray:none;stroke-dashoffset:0;stroke-opacity:1;color-rendering:auto;image-rendering:auto;shape-rendering:auto;text-rendering:auto;enable-background:accumulate"
     d="M 17.142578 13 C 14.484838 13 12.299469 15.156056 12.029297 17.921875 L 12 17.921875 C 12.000462 18.012287 12.009204 18.149545 12.011719 18.253906 C 12.008312 18.336062 12 18.416946 12 18.5 C 12 18.883858 12.03549 19.259414 12.105469 19.621094 C 12.392794 22.448923 13.506745 27.213776 17.646484 31.353516 C 21.786224 35.493255 26.551077 36.607205 29.378906 36.894531 C 29.740586 36.96451 30.116142 37 30.5 37 C 30.583054 37 30.663938 36.991688 30.746094 36.988281 C 30.850455 36.990796 30.987713 36.999538 31.078125 37 L 31.078125 36.970703 C 33.843944 36.700531 36 34.515162 36 31.857422 C 36 29.017101 33.537567 28 30.5 28 C 27.90193 28 25.72997 28.747754 25.154297 30.740234 C 23.842443 30.111819 22.455636 29.20173 21.126953 27.873047 C 19.79827 26.544364 18.888181 25.157557 18.259766 23.845703 C 20.252246 23.27003 21 21.09807 21 18.5 C 21 15.462433 19.982899 13 17.142578 13 z "
     id="path4147" />
  <path
     style="opacity:0.1;fill:#ffffff;fill-opacity:1;fill-rule:evenodd;stroke:none;stroke-width:8;stroke-linecap:butt;stroke-linejoin:round;stroke-miterlimit:4;stroke-dasharray:none;stroke-opacity:1"
     d="M 24 4 A 20 20 0 0 0 4 24 A 20 20 0 0 0 4.0214844 24.582031 A 20 20 0 0 1 24 5 A 20 20 0 0 1 43.978516 24.417969 A 20 20 0 0 0 44 24 A 20 20 0 0 0 24 4 z "
     id="circle4159" />
</svg>
