<?xml version="1.0" encoding="UTF-8" standalone="no"?>
<svg
   xmlns:dc="http://purl.org/dc/elements/1.1/"
   xmlns:cc="http://creativecommons.org/ns#"
   xmlns:rdf="http://www.w3.org/1999/02/22-rdf-syntax-ns#"
   xmlns:svg="http://www.w3.org/2000/svg"
   xmlns="http://www.w3.org/2000/svg"
   xmlns:sodipodi="http://sodipodi.sourceforge.net/DTD/sodipodi-0.dtd"
   xmlns:inkscape="http://www.inkscape.org/namespaces/inkscape"
   width="48"
   height="48"
   version="1"
   id="svg2"
   inkscape:version="0.92.2 5c3e80d, 2017-08-06"
   sodipodi:docname="google-cloudconsole.svg">
  <metadata
     id="metadata24">
    <rdf:RDF>
      <cc:Work
         rdf:about="">
        <dc:format>image/svg+xml</dc:format>
        <dc:type
           rdf:resource="http://purl.org/dc/dcmitype/StillImage" />
        <dc:title></dc:title>
      </cc:Work>
    </rdf:RDF>
  </metadata>
  <defs
     id="defs22" />
  <sodipodi:namedview
     pagecolor="#ffffff"
     bordercolor="#666666"
     borderopacity="1"
     objecttolerance="10"
     gridtolerance="10"
     guidetolerance="10"
     inkscape:pageopacity="0"
     inkscape:pageshadow="2"
     inkscape:window-width="1854"
     inkscape:window-height="1016"
     id="namedview20"
     showgrid="false"
     inkscape:object-nodes="true"
     inkscape:zoom="12.14"
     inkscape:cx="29.16592"
     inkscape:cy="13.186585"
     inkscape:window-x="66"
     inkscape:window-y="30"
     inkscape:window-maximized="1"
     inkscape:current-layer="svg2" />
  <path
     id="path910"
     d="M 30.101562,14 36.392578,24.896484 36.332031,25 25.363281,44 h 7.433594 a 3.4085758,3.4738577 0 0 0 0.339844,-0.01758 3.4085758,3.4738577 0 0 0 0.335937,-0.05078 3.4085758,3.4738577 0 0 0 0.08789,-0.02344 3.4085758,3.4738577 0 0 0 0.244141,-0.06445 3.4085758,3.4738577 0 0 0 0.201171,-0.07422 3.4085758,3.4738577 0 0 0 0.714844,-0.376953 3.4085758,3.4738577 0 0 0 0.271485,-0.208984 3.4085758,3.4738577 0 0 0 0.25,-0.238282 3.4085758,3.4738577 0 0 0 0.421874,-0.541015 3.4085758,3.4738577 0 0 0 0,-0.002 3.4085758,3.4738577 0 0 0 0.08398,-0.138672 l 5.285156,-9.330078 3.509766,-6.197266 a 3.4085758,3.4738577 0 0 0 0,-3.474609 L 39.296875,14 Z"
     style="opacity:0.2;fill:#000000;fill-opacity:1;stroke:none;stroke-width:19.40120506;stroke-linecap:round;stroke-linejoin:round;stroke-miterlimit:4;stroke-dasharray:none;stroke-opacity:1"
     inkscape:connector-curvature="0" />
  <path
     style="color:#000000;font-style:normal;font-variant:normal;font-weight:normal;font-stretch:normal;font-size:medium;line-height:normal;font-family:sans-serif;font-variant-ligatures:normal;font-variant-position:normal;font-variant-caps:normal;font-variant-numeric:normal;font-variant-alternates:normal;font-feature-settings:normal;text-indent:0;text-align:start;text-decoration:none;text-decoration-line:none;text-decoration-style:solid;text-decoration-color:#000000;letter-spacing:normal;word-spacing:normal;text-transform:none;writing-mode:lr-tb;direction:ltr;text-orientation:mixed;dominant-baseline:auto;baseline-shift:baseline;text-anchor:start;white-space:normal;shape-padding:0;clip-rule:nonzero;display:inline;overflow:visible;visibility:visible;opacity:1;isolation:auto;mix-blend-mode:normal;color-interpolation:sRGB;color-interpolation-filters:linearRGB;solid-color:#000000;solid-opacity:1;vector-effect:none;fill:#4587f3;fill-opacity:1;fill-rule:nonzero;stroke:none;stroke-width:6.88143539;stroke-linecap:round;stroke-linejoin:round;stroke-miterlimit:4;stroke-dasharray:none;stroke-dashoffset:0;stroke-opacity:1;color-rendering:auto;image-rendering:auto;shape-rendering:auto;text-rendering:auto;enable-background:accumulate"
     d="M 15.203991,5 C 13.986139,4.9998412 12.860727,5.6619002 12.25174,6.7367552 L 6.7652461,16.421762 4.280287,22.427142 c -0.6087521,1.074727 0.050226,1.986921 0.6589786,3.061648 l 8.3009424,14.785987 c 0.608987,1.074855 0.993048,1.654542 2.2109,1.654383 h 17.097783 c 0,0 1.107679,-0.744273 1.716666,-1.819128 l 8.54806,-14.291753 c 0.608752,-1.074727 0.691125,-1.822176 0.08237,-2.896903 L 39.442363,13.257754 35.748259,6.7367552 C 35.139272,5.6619002 34.01386,4.9998412 32.796008,5 Z"
     id="path843"
     inkscape:connector-curvature="0"
     sodipodi:nodetypes="ccccccccccccccc" />
  <path
     inkscape:connector-curvature="0"
     style="opacity:1;fill:#f9bc14;fill-opacity:1;stroke:none;stroke-width:19.40120506;stroke-linecap:round;stroke-linejoin:round;stroke-miterlimit:4;stroke-dasharray:none;stroke-opacity:1"
     d="m 7.0273438,15.960938 -3.5703126,6.300781 a 3.4085758,3.4738577 0 0 0 0,3.474609 L 8.7050781,35 12.251953,41.263672 A 3.4085758,3.4738577 0 0 0 15.203125,43 h 7.433594 2.726562 l 4.619141,-8 H 18.017578 L 11.667969,24 Z M 34.550781,42.5 A 3.4085758,3.4738577 0 0 1 34.324219,42.626953 3.4085758,3.4738577 0 0 0 34.550781,42.5 Z M 34.3125,42.634766 a 3.4085758,3.4738577 0 0 1 -0.306641,0.134765 3.4085758,3.4738577 0 0 0 0.306641,-0.134765 z"
     id="rect859" />
  <path
     style="opacity:1;fill:#dd4d3e;fill-opacity:1;stroke:none;stroke-width:19.40120506;stroke-linecap:round;stroke-linejoin:round;stroke-miterlimit:4;stroke-dasharray:none;stroke-opacity:1"
     d="M 30.101562,13 36.293,23.896484 36.332031,24 25.363281,43 h 7.433594 c 0.113498,-8.9e-5 0.22692,-0.006 0.339844,-0.01758 0.112737,-0.01123 0.224855,-0.02818 0.335937,-0.05078 0.0294,-0.0074 0.0587,-0.01523 0.08789,-0.02344 0.08213,-0.01841 0.163569,-0.03991 0.244141,-0.06445 0.0678,-0.02259 0.134893,-0.04734 0.201171,-0.07422 0.252052,-0.09644 0.492006,-0.222971 0.714844,-0.376953 0.09385,-0.06501 0.18446,-0.13476 0.271485,-0.208984 0.0872,-0.07511 0.170635,-0.154638 0.25,-0.238282 0.157919,-0.1656 0.299243,-0.346834 0.421874,-0.541015 v -0.002 c 0.02905,-0.04555 0.05706,-0.09179 0.08398,-0.138672 l 5.285156,-9.330078 3.509766,-6.197266 c 0.609167,-1.075006 0.609167,-2.399603 0,-3.474609 L 39.296875,13 Z"
     id="rect863"
     inkscape:connector-curvature="0"
     sodipodi:nodetypes="ccccccccccccccccccccc" />
  <path
     style="opacity:0.2;fill:#ffffff;fill-opacity:1;stroke:none;stroke-width:19.40120506;stroke-linecap:round;stroke-linejoin:round;stroke-miterlimit:4;stroke-dasharray:none;stroke-opacity:1"
     d="m 15.203125,5 c -1.21738,1.459e-4 -2.342271,0.6619777 -2.951172,1.7363281 L 3.4570312,22.261719 C 3.0760484,22.93705 2.9288438,23.723288 3.0390625,24.494141 3.1008059,24.060128 3.2426268,23.641955 3.4570312,23.261719 L 12.251953,7.7363281 C 12.860854,6.6619777 13.985745,6.0001459 15.203125,6 h 17.59375 c 1.21738,1.459e-4 2.342271,0.6619777 2.951172,1.7363281 L 38.730469,13 h -8.628907 l 0.578126,1 h 8.617187 l 5.246094,9.261719 c 0.112915,0.200988 0.205825,0.41298 0.277343,0.632812 0.03604,0.109701 0.06667,0.221168 0.0918,0.333985 v 0.002 c 0.0198,0.0898 0.03609,0.180366 0.04883,0.271484 0.01665,-0.113951 0.02773,-0.228676 0.0332,-0.34375 v -0.002 c 0.005,-0.115196 0.0043,-0.230573 -0.002,-0.345703 v -0.002 c -0.0061,-0.115107 -0.01785,-0.229832 -0.03516,-0.34375 v -0.002 c -0.01728,-0.113715 -0.0401,-0.226484 -0.06836,-0.337891 v -0.002 c -0.02852,-0.111018 -0.06241,-0.220527 -0.101563,-0.328125 v -0.002 c -0.03905,-0.108302 -0.08338,-0.214554 -0.132812,-0.31836 l -0.002,-0.002 c -0.03408,-0.07157 -0.07056,-0.141922 -0.109375,-0.210937 L 39.296875,13 35.748047,6.7363281 C 35.139146,5.6619777 34.014255,5.0001459 32.796875,5 Z"
     id="path916"
     inkscape:connector-curvature="0"
     sodipodi:nodetypes="ccccccccccccccccccccccccccccccccccc" />
  <path
     inkscape:connector-curvature="0"
     style="opacity:0.2;fill:#000000;fill-opacity:1;stroke:none;stroke-width:19.40120506;stroke-linecap:round;stroke-linejoin:round;stroke-miterlimit:4;stroke-dasharray:none;stroke-opacity:1"
     d="m 3.0390625,24.496094 a 3.4085758,3.4738577 0 0 0 0.4179687,2.240234 L 8.7050781,36 12.251953,42.263672 A 3.4085758,3.4738577 0 0 0 15.203125,44 h 7.433594 2.726562 l 4.619141,-8 h -0.578125 l -4.041016,7 H 22.636719 15.203125 A 3.4085758,3.4738577 0 0 1 12.251953,41.263672 L 8.7050781,35 3.4570312,25.736328 A 3.4085758,3.4738577 0 0 1 3.0390625,24.496094 Z M 34.550781,42.5 A 3.4085758,3.4738577 0 0 1 34.324219,42.626953 3.4085758,3.4738577 0 0 0 34.550781,42.5 Z M 34.3125,42.634766 A 3.4085758,3.4738577 0 0 1 34.005859,42.769531 3.4085758,3.4738577 0 0 0 34.3125,42.634766 Z M 34.550781,43.5 A 3.4085758,3.4738577 0 0 1 34.324219,43.626953 3.4085758,3.4738577 0 0 0 34.550781,43.5 Z M 34.3125,43.634766 a 3.4085758,3.4738577 0 0 1 -0.306641,0.134765 3.4085758,3.4738577 0 0 0 0.306641,-0.134765 z"
     id="path905" />
  <path
     id="path898"
     d="M 17.898438,14 H 30.101562 L 36.332031,25 30.002,36 H 17.898438 L 11.667969,25 Z"
     style="color:#000000;font-style:normal;font-variant:normal;font-weight:normal;font-stretch:normal;font-size:medium;line-height:normal;font-family:sans-serif;font-variant-ligatures:normal;font-variant-position:normal;font-variant-caps:normal;font-variant-numeric:normal;font-variant-alternates:normal;font-feature-settings:normal;text-indent:0;text-align:start;text-decoration:none;text-decoration-line:none;text-decoration-style:solid;text-decoration-color:#000000;letter-spacing:normal;word-spacing:normal;text-transform:none;writing-mode:lr-tb;direction:ltr;text-orientation:mixed;dominant-baseline:auto;baseline-shift:baseline;text-anchor:start;white-space:normal;shape-padding:0;clip-rule:nonzero;display:inline;overflow:visible;visibility:visible;opacity:0.2;isolation:auto;mix-blend-mode:normal;color-interpolation:sRGB;color-interpolation-filters:linearRGB;solid-color:#000000;solid-opacity:1;vector-effect:none;fill:#000000;fill-opacity:1;fill-rule:nonzero;stroke:none;stroke-width:16;stroke-linecap:round;stroke-linejoin:round;stroke-miterlimit:4;stroke-dasharray:none;stroke-dashoffset:0;stroke-opacity:1;color-rendering:auto;image-rendering:auto;shape-rendering:auto;text-rendering:auto;enable-background:accumulate"
     inkscape:connector-curvature="0"
     sodipodi:nodetypes="ccccccc" />
  <path
     style="color:#000000;font-style:normal;font-variant:normal;font-weight:normal;font-stretch:normal;font-size:medium;line-height:normal;font-family:sans-serif;font-variant-ligatures:normal;font-variant-position:normal;font-variant-caps:normal;font-variant-numeric:normal;font-variant-alternates:normal;font-feature-settings:normal;text-indent:0;text-align:start;text-decoration:none;text-decoration-line:none;text-decoration-style:solid;text-decoration-color:#000000;letter-spacing:normal;word-spacing:normal;text-transform:none;writing-mode:lr-tb;direction:ltr;text-orientation:mixed;dominant-baseline:auto;baseline-shift:baseline;text-anchor:start;white-space:normal;shape-padding:0;clip-rule:nonzero;display:inline;overflow:visible;visibility:visible;opacity:1;isolation:auto;mix-blend-mode:normal;color-interpolation:sRGB;color-interpolation-filters:linearRGB;solid-color:#000000;solid-opacity:1;vector-effect:none;fill:#d5d5d5;fill-opacity:1;fill-rule:nonzero;stroke:none;stroke-width:16;stroke-linecap:round;stroke-linejoin:round;stroke-miterlimit:4;stroke-dasharray:none;stroke-dashoffset:0;stroke-opacity:1;color-rendering:auto;image-rendering:auto;shape-rendering:auto;text-rendering:auto;enable-background:accumulate"
     d="M 17.898438,13 H 30.101562 L 36.332031,24 30.002,35 H 17.898438 L 11.667969,24 Z"
     id="path846"
     inkscape:connector-curvature="0"
     sodipodi:nodetypes="ccccccc" />
  <circle
     r="5"
     cy="25"
     cx="24"
     id="circle900"
     style="opacity:0.2;fill:#000000;fill-opacity:1;stroke:none;stroke-width:17.7077713;stroke-linecap:round;stroke-linejoin:round;stroke-miterlimit:4;stroke-dasharray:none;stroke-opacity:1" />
  <circle
     style="opacity:1;fill:#ffffff;fill-opacity:1;stroke:none;stroke-width:17.7077713;stroke-linecap:round;stroke-linejoin:round;stroke-miterlimit:4;stroke-dasharray:none;stroke-opacity:1"
     id="path896"
     cx="24"
     cy="24"
     r="5" />
  <path
     inkscape:connector-curvature="0"
     style="opacity:0.2;fill:#ffffff;fill-opacity:1;stroke:none;stroke-width:19.40120506;stroke-linecap:round;stroke-linejoin:round;stroke-miterlimit:4;stroke-dasharray:none;stroke-opacity:1"
     d="M 7.0273438,15.960938 3.4570312,22.261719 A 3.4085758,3.4738577 0 0 0 3.0390625,24.496094 3.4085758,3.4738577 0 0 1 3.4570312,23.261719 L 7.0273438,16.960938 11.667969,25 18.017578,36 h 11.386719 l 0.578125,-1 H 18.017578 L 11.667969,24 Z M 34.550781,42.5 A 3.4085758,3.4738577 0 0 1 34.324219,42.626953 3.4085758,3.4738577 0 0 0 34.550781,42.5 Z M 34.3125,42.634766 A 3.4085758,3.4738577 0 0 1 34.005859,42.769531 3.4085758,3.4738577 0 0 0 34.3125,42.634766 Z M 34.550781,43.5 A 3.4085758,3.4738577 0 0 1 34.324219,43.626953 3.4085758,3.4738577 0 0 0 34.550781,43.5 Z M 34.3125,43.634766 a 3.4085758,3.4738577 0 0 1 -0.306641,0.134765 3.4085758,3.4738577 0 0 0 0.306641,-0.134765 z"
     id="path914" />
</svg>
