<?xml version="1.0" encoding="UTF-8" standalone="no"?>
<svg
   xmlns:dc="http://purl.org/dc/elements/1.1/"
   xmlns:cc="http://creativecommons.org/ns#"
   xmlns:rdf="http://www.w3.org/1999/02/22-rdf-syntax-ns#"
   xmlns:svg="http://www.w3.org/2000/svg"
   xmlns="http://www.w3.org/2000/svg"
   xmlns:sodipodi="http://sodipodi.sourceforge.net/DTD/sodipodi-0.dtd"
   xmlns:inkscape="http://www.inkscape.org/namespaces/inkscape"
   width="48"
   height="48"
   version="1"
   id="svg2"
   inkscape:version="0.91 r13725"
   sodipodi:docname="google-cardboard.svg">
  <metadata
     id="metadata18">
    <rdf:RDF>
      <cc:Work
         rdf:about="">
        <dc:format>image/svg+xml</dc:format>
        <dc:type
           rdf:resource="http://purl.org/dc/dcmitype/StillImage" />
        <dc:title></dc:title>
      </cc:Work>
    </rdf:RDF>
  </metadata>
  <defs
     id="defs16" />
  <sodipodi:namedview
     pagecolor="#ffffff"
     bordercolor="#666666"
     borderopacity="1"
     objecttolerance="10"
     gridtolerance="10"
     guidetolerance="10"
     inkscape:pageopacity="0"
     inkscape:pageshadow="2"
     inkscape:window-width="1920"
     inkscape:window-height="1018"
     id="namedview14"
     showgrid="false"
     inkscape:zoom="8.58"
     inkscape:cx="24"
     inkscape:cy="18.318182"
     inkscape:window-x="0"
     inkscape:window-y="32"
     inkscape:window-maximized="1"
     inkscape:current-layer="svg2">
    <inkscape:grid
       type="xygrid"
       id="grid4166" />
  </sodipodi:namedview>
  <rect
     ry="2"
     rx="2"
     y="10"
     x="6"
     height="27"
     width="36"
     id="rect4184"
     style="opacity:0.2;fill:#000000;fill-opacity:1;fill-rule:evenodd;stroke:none;stroke-width:3;stroke-linecap:round;stroke-linejoin:round;stroke-miterlimit:4;stroke-dasharray:none;stroke-opacity:1" />
  <rect
     style="opacity:1;fill:#925105;fill-opacity:1;fill-rule:evenodd;stroke:none;stroke-width:3;stroke-linecap:round;stroke-linejoin:round;stroke-miterlimit:4;stroke-dasharray:none;stroke-opacity:1"
     id="rect4175"
     width="36"
     height="27"
     x="6"
     y="9"
     rx="2"
     ry="2" />
  <path
     id="path4177"
     d="m 5,14 c -1.108,0 -2,0.892 -2,2 l 0,22 c 0,1.108 0.892,2 2,2 l 11,0 c 3,0 4,-11 8,-11 4,0 5,11 8,11 l 11,0 c 1.108,0 2,-0.892 2,-2 l 0,-22 c 0,-1.108 -0.892,-2 -2,-2 L 24,14 5,14 Z"
     style="opacity:0.2;fill:#000000;fill-opacity:1;fill-rule:evenodd;stroke:none;stroke-width:3;stroke-linecap:round;stroke-linejoin:round;stroke-miterlimit:4;stroke-dasharray:none;stroke-opacity:1"
     inkscape:connector-curvature="0" />
  <path
     style="opacity:1;fill:#de9440;fill-opacity:1;fill-rule:evenodd;stroke:none;stroke-width:3;stroke-linecap:round;stroke-linejoin:round;stroke-miterlimit:4;stroke-dasharray:none;stroke-opacity:1"
     d="M 5 13 C 3.892 13 3 13.892 3 15 L 3 37 C 3 38.108 3.892 39 5 39 L 16 39 C 19 39 20 28 24 28 C 28 28 29 39 32 39 L 43 39 C 44.108 39 45 38.108 45 37 L 45 15 C 45 13.892 44.108 13 43 13 L 24 13 L 5 13 z "
     id="rect4163" />
  <circle
     r="4.5"
     cy="26.5"
     cx="14.5"
     id="circle4191"
     style="opacity:0.1;fill:#000000;fill-opacity:1;fill-rule:evenodd;stroke:none;stroke-width:3;stroke-linecap:round;stroke-linejoin:round;stroke-miterlimit:4;stroke-dasharray:none;stroke-opacity:1" />
  <circle
     style="opacity:1;fill:#925105;fill-opacity:1;fill-rule:evenodd;stroke:none;stroke-width:3;stroke-linecap:round;stroke-linejoin:round;stroke-miterlimit:4;stroke-dasharray:none;stroke-opacity:1"
     id="path4171"
     cx="14.5"
     cy="25.5"
     r="4.5" />
  <circle
     style="opacity:0.1;fill:#000000;fill-opacity:1;fill-rule:evenodd;stroke:none;stroke-width:3;stroke-linecap:round;stroke-linejoin:round;stroke-miterlimit:4;stroke-dasharray:none;stroke-opacity:1"
     id="circle4193"
     cx="33.5"
     cy="26.5"
     r="4.5" />
  <circle
     r="4.5"
     cy="25.5"
     cx="33.5"
     id="circle4173"
     style="opacity:1;fill:#925105;fill-opacity:1;fill-rule:evenodd;stroke:none;stroke-width:3;stroke-linecap:round;stroke-linejoin:round;stroke-miterlimit:4;stroke-dasharray:none;stroke-opacity:1" />
  <path
     style="opacity:0.2;fill:#ffffff;fill-opacity:1;fill-rule:evenodd;stroke:none;stroke-width:3;stroke-linecap:round;stroke-linejoin:round;stroke-miterlimit:4;stroke-dasharray:none;stroke-opacity:1"
     d="M 5 13 C 3.892 13 3 13.892 3 15 L 3 16 C 3 14.892 3.892 14 5 14 L 24 14 L 43 14 C 44.108 14 45 14.892 45 16 L 45 15 C 45 13.892 44.108 13 43 13 L 24 13 L 5 13 z "
     id="path4179" />
  <path
     style="opacity:0.1;fill:#ffffff;fill-opacity:1;fill-rule:evenodd;stroke:none;stroke-width:3;stroke-linecap:round;stroke-linejoin:round;stroke-miterlimit:4;stroke-dasharray:none;stroke-opacity:1"
     d="M 8 9 C 6.892 9 6 9.892 6 11 L 6 12 C 6 10.892 6.892 10 8 10 L 40 10 C 41.108 10 42 10.892 42 12 L 42 11 C 42 9.892 41.108 9 40 9 L 8 9 z "
     id="rect4186" />
</svg>
