<?xml version="1.0" encoding="UTF-8" standalone="no"?>
<svg
   xmlns:dc="http://purl.org/dc/elements/1.1/"
   xmlns:cc="http://creativecommons.org/ns#"
   xmlns:rdf="http://www.w3.org/1999/02/22-rdf-syntax-ns#"
   xmlns:svg="http://www.w3.org/2000/svg"
   xmlns="http://www.w3.org/2000/svg"
   xmlns:sodipodi="http://sodipodi.sourceforge.net/DTD/sodipodi-0.dtd"
   xmlns:inkscape="http://www.inkscape.org/namespaces/inkscape"
   width="48"
   height="48"
   version="1.1"
   viewBox="0 0 48 48"
   id="svg2"
   inkscape:version="0.91 r13725"
   sodipodi:docname="google-vr.svg">
  <metadata
     id="metadata24">
    <rdf:RDF>
      <cc:Work
         rdf:about="">
        <dc:format>image/svg+xml</dc:format>
        <dc:type
           rdf:resource="http://purl.org/dc/dcmitype/StillImage" />
        <dc:title />
      </cc:Work>
    </rdf:RDF>
  </metadata>
  <defs
     id="defs22" />
  <sodipodi:namedview
     pagecolor="#ffffff"
     bordercolor="#666666"
     borderopacity="1"
     objecttolerance="10"
     gridtolerance="10"
     guidetolerance="10"
     inkscape:pageopacity="0"
     inkscape:pageshadow="2"
     inkscape:window-width="1920"
     inkscape:window-height="1018"
     id="namedview20"
     showgrid="true"
     inkscape:zoom="9.1997053"
     inkscape:cx="-22.895979"
     inkscape:cy="24"
     inkscape:window-x="0"
     inkscape:window-y="32"
     inkscape:window-maximized="1"
     inkscape:current-layer="svg2"
     inkscape:object-nodes="true">
    <inkscape:grid
       type="xygrid"
       id="grid4166" />
  </sodipodi:namedview>
  <circle
     style="opacity:0.2"
     cx="24"
     cy="25"
     r="20"
     id="circle4" />
  <circle
     style="fill:#556c76;fill-opacity:1"
     cx="24"
     cy="24"
     r="20"
     id="circle6" />
  <path
     style="opacity:0.1;fill:#ffffff"
     d="M 24,4 A 20,20 0 0 0 4,24 20,20 0 0 0 4.0215,24.582 20,20 0 0 1 24,5 20,20 0 0 1 43.979,24.418 20,20 0 0 0 44,24 20,20 0 0 0 24,4 Z"
     id="path10" />
  <path
     sodipodi:nodetypes="ssssszssssscs"
     inkscape:connector-curvature="0"
     id="path4175"
     d="m 14,16 c -1.662,0 -3,1.335325 -3,2.994141 l 0,11.976562 C 11,32.629518 12,34 14,34 l 4.880859,0 C 21.999741,34 22,29 24,29 c 2,0 2.000259,5 5.119141,5 L 34,34 c 2,0 3,-1.370482 3,-3.029297 L 37,18.994141 C 37,17.335325 35.662,16 34,16 l -10,0 z"
     style="opacity:0.2;fill:#000000;fill-opacity:1;fill-rule:evenodd;stroke:none;stroke-width:3;stroke-linecap:round;stroke-linejoin:round;stroke-miterlimit:4;stroke-dasharray:none;stroke-opacity:1" />
  <path
     style="opacity:1;fill:#ffffff;fill-opacity:1;fill-rule:evenodd;stroke:none;stroke-width:3;stroke-linecap:round;stroke-linejoin:round;stroke-miterlimit:4;stroke-dasharray:none;stroke-opacity:1"
     d="m 14,15 c -1.662,0 -3,1.335325 -3,2.994141 l 0,11.976562 C 11,31.629518 12,33 14,33 l 4.880859,0 C 21.999741,33 22,28 24,28 c 2,0 2.000259,5 5.119141,5 L 34,33 c 2,0 3,-1.370482 3,-3.029297 L 37,17.994141 C 37,16.335325 35.662,15 34,15 l -10,0 z"
     id="rect4163"
     inkscape:connector-curvature="0"
     sodipodi:nodetypes="ssssszssssscs" />
  <circle
     r="3"
     cy="24"
     cx="18"
     id="circle4177"
     style="opacity:0.2;fill:#000000;fill-opacity:1;fill-rule:evenodd;stroke:none;stroke-width:3;stroke-linecap:round;stroke-linejoin:round;stroke-miterlimit:4;stroke-dasharray:none;stroke-opacity:1" />
  <circle
     style="opacity:1;fill:#4f4f4f;fill-opacity:1;fill-rule:evenodd;stroke:none;stroke-width:3;stroke-linecap:round;stroke-linejoin:round;stroke-miterlimit:4;stroke-dasharray:none;stroke-opacity:1"
     id="path4171"
     cx="18"
     cy="23"
     r="3" />
  <circle
     style="opacity:0.2;fill:#000000;fill-opacity:1;fill-rule:evenodd;stroke:none;stroke-width:3;stroke-linecap:round;stroke-linejoin:round;stroke-miterlimit:4;stroke-dasharray:none;stroke-opacity:1"
     id="circle4179"
     cx="30"
     cy="24"
     r="3" />
  <circle
     r="3"
     cy="23"
     cx="30"
     id="circle4173"
     style="opacity:1;fill:#4f4f4f;fill-opacity:1;fill-rule:evenodd;stroke:none;stroke-width:3;stroke-linecap:round;stroke-linejoin:round;stroke-miterlimit:4;stroke-dasharray:none;stroke-opacity:1" />
</svg>
