<?xml version="1.0" encoding="UTF-8" standalone="no"?>
<svg
   xmlns:dc="http://purl.org/dc/elements/1.1/"
   xmlns:cc="http://creativecommons.org/ns#"
   xmlns:rdf="http://www.w3.org/1999/02/22-rdf-syntax-ns#"
   xmlns:svg="http://www.w3.org/2000/svg"
   xmlns="http://www.w3.org/2000/svg"
   xmlns:sodipodi="http://sodipodi.sourceforge.net/DTD/sodipodi-0.dtd"
   xmlns:inkscape="http://www.inkscape.org/namespaces/inkscape"
   width="48"
   height="48"
   version="1"
   id="svg2"
   inkscape:version="0.91 r13725"
   sodipodi:docname="google-adsense.svg">
  <metadata
     id="metadata18">
    <rdf:RDF>
      <cc:Work
         rdf:about="">
        <dc:format>image/svg+xml</dc:format>
        <dc:type
           rdf:resource="http://purl.org/dc/dcmitype/StillImage" />
        <dc:title></dc:title>
      </cc:Work>
    </rdf:RDF>
  </metadata>
  <defs
     id="defs16" />
  <sodipodi:namedview
     pagecolor="#ffffff"
     bordercolor="#666666"
     borderopacity="1"
     objecttolerance="10"
     gridtolerance="10"
     guidetolerance="10"
     inkscape:pageopacity="0"
     inkscape:pageshadow="2"
     inkscape:window-width="1920"
     inkscape:window-height="1018"
     id="namedview14"
     showgrid="true"
     inkscape:zoom="13.859293"
     inkscape:cx="6.5976798"
     inkscape:cy="24.283024"
     inkscape:window-x="0"
     inkscape:window-y="32"
     inkscape:window-maximized="1"
     inkscape:current-layer="svg2"
     inkscape:object-nodes="true"
     inkscape:object-paths="true">
    <inkscape:grid
       type="xygrid"
       id="grid4168" />
  </sodipodi:namedview>
  <path
     id="path4194"
     d="m 26.519531,25 -0.683593,1.78125 C 25.635946,27.162238 25.461451,27.575588 25.300781,28 L 20.119141,41.685547 18.847656,45 23,45 32.400391,45 33,45 c 1.662,0 2.411569,-1.445654 3,-3 l 5.300781,-14 c 0.588431,-1.554346 -1.338,-3 -3,-3 l -4.175781,0 -5.824219,0 -1.78125,0 z"
     style="opacity:0.2;fill:#000000;fill-opacity:1"
     inkscape:connector-curvature="0" />
  <path
     style="opacity:1;fill:#4989f4;fill-opacity:1"
     d="M 26.519531 24 L 25.835938 25.78125 C 25.635946 26.162238 25.461451 26.575588 25.300781 27 L 20.119141 40.685547 L 18.847656 44 L 23 44 L 32.400391 44 L 33 44 C 34.662 44 35.411569 42.554346 36 41 L 41.300781 27 C 41.889212 25.445654 39.962781 24 38.300781 24 L 34.125 24 L 28.300781 24 L 26.519531 24 z "
     id="rect4153" />
  <path
     style="opacity:0.1;fill:#ffffff;fill-opacity:1"
     d="M 26.519531 24 L 25.835938 25.78125 C 25.635946 26.162238 25.461451 26.575588 25.300781 27 L 20.119141 40.685547 L 18.847656 44 L 19.230469 44 L 20.119141 41.685547 L 25.300781 28 C 25.461451 27.575588 25.635945 27.162238 25.835938 26.78125 L 26.519531 25 L 28.300781 25 L 34.125 25 L 38.300781 25 C 39.565668 25 40.976222 25.838494 41.322266 26.923828 C 41.820314 25.398946 39.935421 24 38.300781 24 L 34.125 24 L 28.300781 24 L 26.519531 24 z "
     id="path4198" />
  <path
     id="path4196"
     d="M 20,5 C 18.338,5 17.593562,6.4476059 17,8 L 4,42 c -0.5935625,1.552394 1.338,3 3,3 L 9.984375,45 17,45 l 1.847656,0 1.136719,-2.962891 C 19.989278,42.024356 19.995118,42.012768 20,42 L 20.464844,40.783203 20.59375,40.447266 34.189453,5 30,5 20.636719,5 20,5 Z"
     style="opacity:0.2;fill:#000000;fill-opacity:1"
     inkscape:connector-curvature="0" />
  <path
     style="opacity:1;fill:#f5b912;fill-opacity:1"
     d="M 20 4 C 18.338 4 17.593562 5.4476059 17 7 L 4 41 C 3.4064375 42.552394 5.338 44 7 44 L 9.984375 44 L 17 44 L 18.847656 44 L 19.984375 41.037109 C 19.989278 41.024356 19.995118 41.012768 20 41 L 20.464844 39.783203 L 20.59375 39.447266 L 34.189453 4 L 30 4 L 20.636719 4 L 20 4 z "
     id="rect4151" />
  <path
     style="opacity:0.2;fill:#ffffff;fill-opacity:1"
     d="M 20 4 C 18.338 4 17.593562 5.4476059 17 7 L 4 41 C 3.8574289 41.372878 3.8664931 41.7379 3.9765625 42.080078 C 3.9853571 42.053207 3.9896989 42.026941 4 42 L 17 8 C 17.593562 6.4476059 18.338 5 20 5 L 20.636719 5 L 30 5 L 33.806641 5 L 34.189453 4 L 30 4 L 20.636719 4 L 20 4 z "
     id="path4200" />
</svg>
