<?xml version="1.0" encoding="UTF-8" standalone="no"?>
<svg
   xmlns:dc="http://purl.org/dc/elements/1.1/"
   xmlns:cc="http://creativecommons.org/ns#"
   xmlns:rdf="http://www.w3.org/1999/02/22-rdf-syntax-ns#"
   xmlns:svg="http://www.w3.org/2000/svg"
   xmlns="http://www.w3.org/2000/svg"
   xmlns:sodipodi="http://sodipodi.sourceforge.net/DTD/sodipodi-0.dtd"
   xmlns:inkscape="http://www.inkscape.org/namespaces/inkscape"
   height="48"
   width="48"
   version="1"
   id="svg2"
   inkscape:version="0.91 r13725"
   sodipodi:docname="google-input-japanese.svg">
  <metadata
     id="metadata64">
    <rdf:RDF>
      <cc:Work
         rdf:about="">
        <dc:format>image/svg+xml</dc:format>
        <dc:type
           rdf:resource="http://purl.org/dc/dcmitype/StillImage" />
        <dc:title></dc:title>
      </cc:Work>
    </rdf:RDF>
  </metadata>
  <defs
     id="defs62" />
  <sodipodi:namedview
     pagecolor="#ffffff"
     bordercolor="#666666"
     borderopacity="1"
     objecttolerance="10"
     gridtolerance="10"
     guidetolerance="10"
     inkscape:pageopacity="0"
     inkscape:pageshadow="2"
     inkscape:window-width="1920"
     inkscape:window-height="1018"
     id="namedview60"
     showgrid="true"
     inkscape:zoom="11.25"
     inkscape:cx="25.023533"
     inkscape:cy="24"
     inkscape:window-x="0"
     inkscape:window-y="32"
     inkscape:window-maximized="1"
     inkscape:current-layer="svg2"
     showguides="false">
    <inkscape:grid
       type="xygrid"
       id="grid4189" />
  </sodipodi:namedview>
  <rect
     ry="2"
     rx="2"
     transform="matrix(0,-1,-1,0,0,0)"
     height="36"
     width="24"
     y="-42"
     x="-41"
     fill="#5f7c8a"
     id="rect4"
     style="fill:#4f4f4f;fill-opacity:1" />
  <path
     opacity=".2"
     d="m8 17c-1.108 0-2 0.892-2 2v1c0-1.108 0.892-2 2-2h32c1.108 0 2 0.892 2 2v-1c0-1.108-0.892-2-2-2h-32z"
     fill="#fff"
     id="path6"
     style="opacity:0.1" />
  <path
     opacity=".2"
     d="m6 39v1c0 1.108 0.892 2 2 2h32c1.108 0 2-0.892 2-2v-1c0 1.108-0.892 2-2 2h-32c-1.108 0-2-0.892-2-2z"
     id="path8" />
  <path
     opacity=".2"
     d="m34 24a2 2 0 0 1 -2 2 2 2 0 0 1 -2 -2 2 2 0 0 1 2 -2 2 2 0 0 1 2 2z"
     id="path10" />
  <path
     fill="#fff"
     d="m34 23a2 2 0 0 1 -2 2 2 2 0 0 1 -2 -2 2 2 0 0 1 2 -2 2 2 0 0 1 2 2z"
     id="path12" />
  <path
     opacity=".2"
     d="m18 24a2 2 0 0 1 -2 2 2 2 0 0 1 -2 -2 2 2 0 0 1 2 -2 2 2 0 0 1 2 2z"
     id="path14" />
  <path
     fill="#fff"
     d="m18 23a2 2 0 0 1 -2 2 2 2 0 0 1 -2 -2 2 2 0 0 1 2 -2 2 2 0 0 1 2 2z"
     id="path16" />
  <path
     opacity=".2"
     d="m17 7h14c1.108 0 2 0.892 2 2v14c0 3-7 5-9 7-2-2-9-4-9-7v-14c0-1.108 0.892-2 2-2z"
     id="path18" />
  <path
     fill="#10c36e"
     d="m17 6h14c1.108 0 2 0.892 2 2v14c0 3-7 5-9 7-2-2-9-4-9-7v-14c0-1.108 0.892-2 2-2z"
     id="path20"
     style="fill:#15c2d8;fill-opacity:1" />
  <path
     opacity=".2"
     d="m12 24a2 2 0 0 1 -2 2 2 2 0 0 1 -2 -2 2 2 0 0 1 2 -2 2 2 0 0 1 2 2z"
     id="path30" />
  <path
     fill="#fff"
     d="m12 23a2 2 0 0 1 -2 2 2 2 0 0 1 -2 -2 2 2 0 0 1 2 -2 2 2 0 0 1 2 2z"
     id="path32" />
  <path
     opacity=".2"
     d="m40 24a2 2 0 0 1 -2 2 2 2 0 0 1 -2 -2 2 2 0 0 1 2 -2 2 2 0 0 1 2 2z"
     id="path34" />
  <path
     fill="#fff"
     d="m40 23a2 2 0 0 1 -2 2 2 2 0 0 1 -2 -2 2 2 0 0 1 2 -2 2 2 0 0 1 2 2z"
     id="path36" />
  <path
     opacity=".2"
     d="m14 32a2 2 0 0 1 -2 2 2 2 0 0 1 -2 -2 2 2 0 0 1 2 -2 2 2 0 0 1 2 2z"
     id="path38" />
  <path
     fill="#fff"
     d="m14 31a2 2 0 0 1 -2 2 2 2 0 0 1 -2 -2 2 2 0 0 1 2 -2 2 2 0 0 1 2 2z"
     id="path40" />
  <path
     opacity=".2"
     d="m20 32a2 2 0 0 1 -2 2 2 2 0 0 1 -2 -2 2 2 0 0 1 2 -2 2 2 0 0 1 2 2z"
     id="path42" />
  <path
     fill="#fff"
     d="m20 31a2 2 0 0 1 -2 2 2 2 0 0 1 -2 -2 2 2 0 0 1 2 -2 2 2 0 0 1 2 2z"
     id="path44" />
  <path
     opacity=".2"
     d="m26 32a2 2 0 0 1 -2 2 2 2 0 0 1 -2 -2 2 2 0 0 1 2 -2 2 2 0 0 1 2 2z"
     id="path46" />
  <path
     fill="#fff"
     d="m26 31a2 2 0 0 1 -2 2 2 2 0 0 1 -2 -2 2 2 0 0 1 2 -2 2 2 0 0 1 2 2z"
     id="path48" />
  <path
     opacity=".2"
     d="m32 32a2 2 0 0 1 -2 2 2 2 0 0 1 -2 -2 2 2 0 0 1 2 -2 2 2 0 0 1 2 2z"
     id="path50" />
  <path
     fill="#fff"
     d="m32 31a2 2 0 0 1 -2 2 2 2 0 0 1 -2 -2 2 2 0 0 1 2 -2 2 2 0 0 1 2 2z"
     id="path52" />
  <path
     opacity=".2"
     d="m38 32a2 2 0 0 1 -2 2 2 2 0 0 1 -2 -2 2 2 0 0 1 2 -2 2 2 0 0 1 2 2z"
     id="path54" />
  <path
     fill="#fff"
     d="m38 31a2 2 0 0 1 -2 2 2 2 0 0 1 -2 -2 2 2 0 0 1 2 -2 2 2 0 0 1 2 2z"
     id="path56" />
  <rect
     style="opacity:0.2;fill:#000000;fill-opacity:1"
     id="rect4192"
     x="9"
     y="36"
     width="30"
     height="4"
     ry="1"
     rx="1" />
  <rect
     opacity=".2"
     rx="1"
     ry="1"
     height="4"
     width="30"
     y="35"
     x="9"
     id="rect58"
     style="opacity:1;fill:#e4e4e4;fill-opacity:1" />
  <path
     style="fill:none;fill-rule:evenodd;stroke:#ffffff;stroke-width:2;stroke-linecap:butt;stroke-linejoin:miter;stroke-miterlimit:4;stroke-dasharray:none;stroke-opacity:1"
     d="m 22,7.9998932 0,11.0060358 c -0.177594,1.513473 0.997582,1.991724 2,2.994142"
     id="path4172"
     inkscape:connector-curvature="0"
     sodipodi:nodetypes="ccc" />
  <path
     style="fill:none;fill-rule:evenodd;stroke:#ffffff;stroke-width:2;stroke-linecap:butt;stroke-linejoin:miter;stroke-miterlimit:4;stroke-dasharray:none;stroke-opacity:1"
     d="m 18,10.999893 11,0"
     id="path4174"
     inkscape:connector-curvature="0"
     sodipodi:nodetypes="cc" />
  <path
     style="fill:none;fill-rule:evenodd;stroke:#ffffff;stroke-width:2;stroke-linecap:butt;stroke-linejoin:round;stroke-miterlimit:4;stroke-dasharray:none;stroke-opacity:1"
     d="m 27,13 c -2.281876,4.705516 -7,11.2 -9,8.2 -2,-3 2.673166,-6.517591 8.355595,-6.238 C 29.165646,15.100262 30.170779,16.666667 30,18 c -0.461231,2.664556 -1.910392,2.955196 -4,4"
     id="path4176"
     inkscape:connector-curvature="0"
     sodipodi:nodetypes="csscc" />
</svg>
