<?xml version="1.0" encoding="UTF-8" standalone="no"?>
<svg
   xmlns:dc="http://purl.org/dc/elements/1.1/"
   xmlns:cc="http://creativecommons.org/ns#"
   xmlns:rdf="http://www.w3.org/1999/02/22-rdf-syntax-ns#"
   xmlns:svg="http://www.w3.org/2000/svg"
   xmlns="http://www.w3.org/2000/svg"
   xmlns:sodipodi="http://sodipodi.sourceforge.net/DTD/sodipodi-0.dtd"
   xmlns:inkscape="http://www.inkscape.org/namespaces/inkscape"
   width="48"
   height="48"
   version="1"
   id="svg2"
   inkscape:version="0.92.2 5c3e80d, 2017-08-06"
   sodipodi:docname="google-datally.svg">
  <metadata
     id="metadata18">
    <rdf:RDF>
      <cc:Work
         rdf:about="">
        <dc:format>image/svg+xml</dc:format>
        <dc:type
           rdf:resource="http://purl.org/dc/dcmitype/StillImage" />
        <dc:title></dc:title>
      </cc:Work>
    </rdf:RDF>
  </metadata>
  <defs
     id="defs16" />
  <sodipodi:namedview
     pagecolor="#ffffff"
     bordercolor="#666666"
     borderopacity="1"
     objecttolerance="10"
     gridtolerance="10"
     guidetolerance="10"
     inkscape:pageopacity="0"
     inkscape:pageshadow="2"
     inkscape:window-width="1854"
     inkscape:window-height="1016"
     id="namedview14"
     showgrid="true"
     inkscape:zoom="4.65"
     inkscape:cx="25.430067"
     inkscape:cy="20.823532"
     inkscape:window-x="66"
     inkscape:window-y="30"
     inkscape:window-maximized="1"
     inkscape:current-layer="svg2">
    <inkscape:grid
       type="xygrid"
       id="grid4168" />
  </sodipodi:namedview>
  <path
     id="path864"
     d="m 33,5 c -1.108,0 -2,0.892 -2,2 v 9.744141 A 15,15 0 0 0 24,15 15,15 0 0 0 9,30 15,15 0 0 0 24,45 15,15 0 0 0 39,30 15,15 0 0 0 38.9961,29.90039 H 39 V 7 C 39,5.892 38.108,5 37,5 Z"
     style="opacity:0.2;fill:#000000;fill-opacity:1;fill-rule:evenodd;stroke:none;stroke-width:2.14285707;stroke-linecap:round;stroke-linejoin:round;stroke-miterlimit:4;stroke-dasharray:none;stroke-opacity:1"
     inkscape:connector-curvature="0" />
  <path
     inkscape:connector-curvature="0"
     style="opacity:1;fill:#2a8dce;fill-opacity:1;fill-rule:evenodd;stroke:none;stroke-width:2.14285707;stroke-linecap:round;stroke-linejoin:round;stroke-miterlimit:4;stroke-dasharray:none;stroke-opacity:1"
     d="m 33,4 c -1.108,0 -2,0.892 -2,2 v 9.744141 A 15,15 0 0 0 24,14 15,15 0 0 0 9,29 15,15 0 0 0 24,44 15,15 0 0 0 39,29 15,15 0 0 0 38.9961,28.90039 H 39 V 6 C 39,4.892 38.108,4 37,4 Z"
     id="path4166" />
  <path
     inkscape:connector-curvature="0"
     style="opacity:0.1;fill:#ffffff;fill-opacity:1;fill-rule:evenodd;stroke:none;stroke-width:2.14285707;stroke-linecap:round;stroke-linejoin:round;stroke-miterlimit:4;stroke-dasharray:none;stroke-opacity:1"
     d="m 33,4 c -1.108,0 -2,0.892 -2,2 v 1 c 0,-1.108 0.892,-2 2,-2 h 4 c 1.108,0 2,0.892 2,2 V 6 C 39,4.892 38.108,4 37,4 Z M 24,14 A 15,15 0 0 0 9,29 15,15 0 0 0 9.0195312,29.414062 15,15 0 0 1 24,15 a 15,15 0 0 1 7,1.744141 v -1 A 15,15 0 0 0 24,14 Z"
     id="path878" />
  <path
     inkscape:connector-curvature="0"
     style="opacity:1;fill:#20d6ba;fill-opacity:1;stroke:none;stroke-width:1.82170498;stroke-miterlimit:4;stroke-dasharray:none;stroke-opacity:1"
     d="M 25.75,8 C 24.7805,8 24,8.892 24,10 v 19 h 7 V 10 C 31,8.892 30.2195,8 29.25,8 Z"
     id="rect837" />
  <path
     inkscape:connector-curvature="0"
     style="opacity:1;fill:#f8ca4b;fill-opacity:1;stroke:none;stroke-width:1.82170498;stroke-miterlimit:4;stroke-dasharray:none;stroke-opacity:1"
     d="M 18.75,12 C 17.7805,12 17,12.892 17,14 v 15 h 7 V 14 c 0,-1.108 -0.7805,-2 -1.75,-2 z"
     id="rect839" />
  <circle
     r="7"
     style="opacity:0.2;fill:#000000;fill-opacity:1;fill-rule:evenodd;stroke:none;stroke-width:1;stroke-linecap:round;stroke-linejoin:round;stroke-miterlimit:4;stroke-dasharray:none;stroke-opacity:1"
     id="circle866"
     cx="24"
     cy="30" />
  <circle
     cy="29"
     cx="24"
     id="circle841"
     style="opacity:1;fill:#ffffff;fill-opacity:1;fill-rule:evenodd;stroke:none;stroke-width:1;stroke-linecap:round;stroke-linejoin:round;stroke-miterlimit:4;stroke-dasharray:none;stroke-opacity:1"
     r="7" />
  <path
     inkscape:connector-curvature="0"
     style="opacity:0.2;fill:#ffffff;fill-opacity:1;stroke:none;stroke-width:1.82170498;stroke-miterlimit:4;stroke-dasharray:none;stroke-opacity:1"
     d="M 25.75,8 C 24.7805,8 24,8.892 24,10 v 1 c 0,-1.108 0.7805,-2 1.75,-2 h 3.5 C 30.2195,9 31,9.892 31,11 V 10 C 31,8.892 30.2195,8 29.25,8 Z"
     id="path868" />
  <path
     inkscape:connector-curvature="0"
     style="opacity:0.2;fill:#ffffff;fill-opacity:1;stroke:none;stroke-width:1.82170498;stroke-miterlimit:4;stroke-dasharray:none;stroke-opacity:1"
     d="M 18.75,12 C 17.7805,12 17,12.892 17,14 v 1 c 0,-1.108 0.7805,-2 1.75,-2 h 3.5 c 0.9695,0 1.75,0.892 1.75,2 v -1 c 0,-1.108 -0.7805,-2 -1.75,-2 z"
     id="path870" />
</svg>
