<?xml version="1.0" encoding="UTF-8" standalone="no"?>
<svg
   xmlns:dc="http://purl.org/dc/elements/1.1/"
   xmlns:cc="http://creativecommons.org/ns#"
   xmlns:rdf="http://www.w3.org/1999/02/22-rdf-syntax-ns#"
   xmlns:svg="http://www.w3.org/2000/svg"
   xmlns="http://www.w3.org/2000/svg"
   xmlns:sodipodi="http://sodipodi.sourceforge.net/DTD/sodipodi-0.dtd"
   xmlns:inkscape="http://www.inkscape.org/namespaces/inkscape"
   width="48"
   height="48"
   version="1"
   id="svg2"
   inkscape:version="0.91 r13725"
   sodipodi:docname="google-plus.svg">
  <metadata
     id="metadata22">
    <rdf:RDF>
      <cc:Work
         rdf:about="">
        <dc:format>image/svg+xml</dc:format>
        <dc:type
           rdf:resource="http://purl.org/dc/dcmitype/StillImage" />
        <dc:title></dc:title>
      </cc:Work>
    </rdf:RDF>
  </metadata>
  <defs
     id="defs20" />
  <sodipodi:namedview
     pagecolor="#ffffff"
     bordercolor="#666666"
     borderopacity="1"
     objecttolerance="10"
     gridtolerance="10"
     guidetolerance="10"
     inkscape:pageopacity="0"
     inkscape:pageshadow="2"
     inkscape:window-width="1920"
     inkscape:window-height="1018"
     id="namedview18"
     showgrid="false"
     inkscape:zoom="14.94"
     inkscape:cx="24"
     inkscape:cy="24"
     inkscape:window-x="0"
     inkscape:window-y="32"
     inkscape:window-maximized="1"
     inkscape:current-layer="svg2" />
  <rect
     fill="#e05048"
     width="40"
     height="40"
     x="-44"
     y="-44"
     rx="20"
     ry="20"
     transform="matrix(0,-1,-1,0,0,0)"
     id="rect4"
     style="fill:#de5246;fill-opacity:1" />
  <path
     fill="#fff"
     opacity=".2"
     d="m24 4c-11.08 0-20 8.92-20 20 0 0.168-0.004 0.333 0 0.5 0.2644-10.846 9.088-19.5 20-19.5s19.736 8.654 20 19.5c0.004-0.167 0-0.332 0-0.5 0-11.08-8.92-20-20-20z"
     id="path6" />
  <path
     opacity=".2"
     d="m4.0117 24.5c-0.0041 0.167-0.0117 0.332-0.0117 0.5 0 11.08 8.92 20 20 20s20-8.92 20-20c0-0.168-0.008-0.333-0.012-0.5-0.264 10.846-9.076 19.5-19.988 19.5s-19.724-8.654-19.988-19.5z"
     id="path16" />
  <path
     id="path4177"
     d="M 18.230469,14 C 13.922349,14 10.0835,16.479844 8.2050781,20.089844 7.4394161,21.569844 7,23.23 7,25 c 0,1.817829 0.4687085,3.524531 1.2734375,5.033203 l -0.00781,0.0059 C 10.164465,33.579061 13.963184,36 18.230469,36 21.058312,36 23.579676,34.929688 25.478516,33.179688 27.652982,31.169649 29,28.25 29,25 29,24.29 28.929151,23.67 28.806641,23 L 18,23 l 0,4 6.630859,0 c -0.418562,1.44 -1.286923,2.749609 -2.460937,3.599609 l 0.0078,0.0059 A 7,7 0 0 1 18,32 7,7 0 0 1 11.480469,27.546875 7,7 0 0 1 11,25 7,7 0 0 1 11.462891,22.519531 7,7 0 0 1 18,18 a 7,7 0 0 1 4.708984,1.832031 l 2.91211,-2.892578 C 23.701837,15.119453 21.129773,14 18.230469,14 Z M 34,20 l 0,3 -3,0 0,4 3,0 0,3 4,0 0,-3 3,0 0,-4 -3,0 0,-3 -4,0 z"
     style="opacity:0.2;fill:#000000;fill-opacity:1"
     inkscape:connector-curvature="0" />
  <path
     style="fill:#ffffff;fill-opacity:1"
     d="M 18.230469 13 C 13.922349 13 10.0835 15.479844 8.2050781 19.089844 C 7.4394161 20.569844 7 22.23 7 24 C 7 25.817829 7.4687085 27.524531 8.2734375 29.033203 L 8.265625 29.039062 C 10.164465 32.579061 13.963184 35 18.230469 35 C 21.058312 35 23.579676 33.929688 25.478516 32.179688 C 27.652982 30.169649 29 27.25 29 24 C 29 23.29 28.929151 22.67 28.806641 22 L 18 22 L 18 26 L 24.630859 26 C 24.212297 27.44 23.343936 28.749609 22.169922 29.599609 L 22.177734 29.605469 A 7 7 0 0 1 18 31 A 7 7 0 0 1 11.480469 26.546875 A 7 7 0 0 1 11 24 A 7 7 0 0 1 11.462891 21.519531 A 7 7 0 0 1 18 17 A 7 7 0 0 1 22.708984 18.832031 L 25.621094 15.939453 C 23.701837 14.119453 21.129773 13 18.230469 13 z M 34 19 L 34 22 L 31 22 L 31 26 L 34 26 L 34 29 L 38 29 L 38 26 L 41 26 L 41 22 L 38 22 L 38 19 L 34 19 z "
     id="path12-6" />
</svg>
