<?xml version="1.0" encoding="UTF-8" standalone="no"?>
<svg
   xmlns:dc="http://purl.org/dc/elements/1.1/"
   xmlns:cc="http://creativecommons.org/ns#"
   xmlns:rdf="http://www.w3.org/1999/02/22-rdf-syntax-ns#"
   xmlns:svg="http://www.w3.org/2000/svg"
   xmlns="http://www.w3.org/2000/svg"
   xmlns:sodipodi="http://sodipodi.sourceforge.net/DTD/sodipodi-0.dtd"
   xmlns:inkscape="http://www.inkscape.org/namespaces/inkscape"
   height="48"
   width="48"
   version="1"
   id="svg2"
   inkscape:version="0.91 r13725"
   sodipodi:docname="google-input-pinyin.svg">
  <metadata
     id="metadata64">
    <rdf:RDF>
      <cc:Work
         rdf:about="">
        <dc:format>image/svg+xml</dc:format>
        <dc:type
           rdf:resource="http://purl.org/dc/dcmitype/StillImage" />
        <dc:title />
      </cc:Work>
    </rdf:RDF>
  </metadata>
  <defs
     id="defs62" />
  <sodipodi:namedview
     pagecolor="#ffffff"
     bordercolor="#666666"
     borderopacity="1"
     objecttolerance="10"
     gridtolerance="10"
     guidetolerance="10"
     inkscape:pageopacity="0"
     inkscape:pageshadow="2"
     inkscape:window-width="1920"
     inkscape:window-height="1018"
     id="namedview60"
     showgrid="true"
     inkscape:zoom="19.709914"
     inkscape:cx="1.7282583"
     inkscape:cy="24"
     inkscape:window-x="0"
     inkscape:window-y="32"
     inkscape:window-maximized="1"
     inkscape:current-layer="svg2"
     showguides="false">
    <inkscape:grid
       type="xygrid"
       id="grid4189" />
  </sodipodi:namedview>
  <rect
     ry="2"
     rx="2"
     transform="matrix(0,-1,-1,0,0,0)"
     height="36"
     width="24"
     y="-42"
     x="-41"
     fill="#5f7c8a"
     id="rect4"
     style="fill:#4f4f4f;fill-opacity:1" />
  <path
     opacity=".2"
     d="m8 17c-1.108 0-2 0.892-2 2v1c0-1.108 0.892-2 2-2h32c1.108 0 2 0.892 2 2v-1c0-1.108-0.892-2-2-2h-32z"
     fill="#fff"
     id="path6"
     style="opacity:0.1" />
  <path
     opacity=".2"
     d="m6 39v1c0 1.108 0.892 2 2 2h32c1.108 0 2-0.892 2-2v-1c0 1.108-0.892 2-2 2h-32c-1.108 0-2-0.892-2-2z"
     id="path8" />
  <path
     opacity=".2"
     d="m34 24a2 2 0 0 1 -2 2 2 2 0 0 1 -2 -2 2 2 0 0 1 2 -2 2 2 0 0 1 2 2z"
     id="path10" />
  <path
     fill="#fff"
     d="m34 23a2 2 0 0 1 -2 2 2 2 0 0 1 -2 -2 2 2 0 0 1 2 -2 2 2 0 0 1 2 2z"
     id="path12" />
  <path
     opacity=".2"
     d="m18 24a2 2 0 0 1 -2 2 2 2 0 0 1 -2 -2 2 2 0 0 1 2 -2 2 2 0 0 1 2 2z"
     id="path14" />
  <path
     fill="#fff"
     d="m18 23a2 2 0 0 1 -2 2 2 2 0 0 1 -2 -2 2 2 0 0 1 2 -2 2 2 0 0 1 2 2z"
     id="path16" />
  <path
     opacity=".2"
     d="m17 7h14c1.108 0 2 0.892 2 2v14c0 3-7 5-9 7-2-2-9-4-9-7v-14c0-1.108 0.892-2 2-2z"
     id="path18" />
  <path
     fill="#10c36e"
     d="m17 6h14c1.108 0 2 0.892 2 2v14c0 3-7 5-9 7-2-2-9-4-9-7v-14c0-1.108 0.892-2 2-2z"
     id="path20"
     style="fill:#15c2d8;fill-opacity:1" />
  <path
     opacity=".2"
     d="m12 24a2 2 0 0 1 -2 2 2 2 0 0 1 -2 -2 2 2 0 0 1 2 -2 2 2 0 0 1 2 2z"
     id="path30" />
  <path
     fill="#fff"
     d="m12 23a2 2 0 0 1 -2 2 2 2 0 0 1 -2 -2 2 2 0 0 1 2 -2 2 2 0 0 1 2 2z"
     id="path32" />
  <path
     opacity=".2"
     d="m40 24a2 2 0 0 1 -2 2 2 2 0 0 1 -2 -2 2 2 0 0 1 2 -2 2 2 0 0 1 2 2z"
     id="path34" />
  <path
     fill="#fff"
     d="m40 23a2 2 0 0 1 -2 2 2 2 0 0 1 -2 -2 2 2 0 0 1 2 -2 2 2 0 0 1 2 2z"
     id="path36" />
  <path
     opacity=".2"
     d="m14 32a2 2 0 0 1 -2 2 2 2 0 0 1 -2 -2 2 2 0 0 1 2 -2 2 2 0 0 1 2 2z"
     id="path38" />
  <path
     fill="#fff"
     d="m14 31a2 2 0 0 1 -2 2 2 2 0 0 1 -2 -2 2 2 0 0 1 2 -2 2 2 0 0 1 2 2z"
     id="path40" />
  <path
     opacity=".2"
     d="m20 32a2 2 0 0 1 -2 2 2 2 0 0 1 -2 -2 2 2 0 0 1 2 -2 2 2 0 0 1 2 2z"
     id="path42" />
  <path
     fill="#fff"
     d="m20 31a2 2 0 0 1 -2 2 2 2 0 0 1 -2 -2 2 2 0 0 1 2 -2 2 2 0 0 1 2 2z"
     id="path44" />
  <path
     opacity=".2"
     d="m26 32a2 2 0 0 1 -2 2 2 2 0 0 1 -2 -2 2 2 0 0 1 2 -2 2 2 0 0 1 2 2z"
     id="path46" />
  <path
     fill="#fff"
     d="m26 31a2 2 0 0 1 -2 2 2 2 0 0 1 -2 -2 2 2 0 0 1 2 -2 2 2 0 0 1 2 2z"
     id="path48" />
  <path
     opacity=".2"
     d="m32 32a2 2 0 0 1 -2 2 2 2 0 0 1 -2 -2 2 2 0 0 1 2 -2 2 2 0 0 1 2 2z"
     id="path50" />
  <path
     fill="#fff"
     d="m32 31a2 2 0 0 1 -2 2 2 2 0 0 1 -2 -2 2 2 0 0 1 2 -2 2 2 0 0 1 2 2z"
     id="path52" />
  <path
     opacity=".2"
     d="m38 32a2 2 0 0 1 -2 2 2 2 0 0 1 -2 -2 2 2 0 0 1 2 -2 2 2 0 0 1 2 2z"
     id="path54" />
  <path
     fill="#fff"
     d="m38 31a2 2 0 0 1 -2 2 2 2 0 0 1 -2 -2 2 2 0 0 1 2 -2 2 2 0 0 1 2 2z"
     id="path56" />
  <rect
     style="opacity:0.2;fill:#000000;fill-opacity:1"
     id="rect4192"
     x="9"
     y="36"
     width="30"
     height="4"
     ry="1"
     rx="1" />
  <rect
     opacity=".2"
     rx="1"
     ry="1"
     height="4"
     width="30"
     y="35"
     x="9"
     id="rect58"
     style="opacity:1;fill:#e4e4e4;fill-opacity:1" />
  <path
     style="fill:#ffffff"
     d="m 21.63918,14.72892 0.17722,1.0633 -1.7131,0.94515 0,4.6076 c -4e-6,0.59072 -0.09846,1.0042 -0.29536,1.2405 -0.19691,0.23628 -0.53165,0.35443 -1.0042,0.35443 -0.55134,0 -1.0633,-0.05907 -1.5359,-0.17721 l -0.2362,-1.241 c 0.51195,0.15752 1.0436,0.23629 1.5949,0.23629 0.1969,0 0.29536,-0.23629 0.29536,-0.70886 l 0,-3.7215 c -0.6301,0.27567 -1.2996,0.55134 -2.0084,0.827 L 16.5,16.91562 c 0.86638,-0.31504 1.6737,-0.63009 2.4219,-0.94515 l 0,-3.0127 -1.9494,0 0,-1.1224 1.9494,0 0,-2.481 1.1814,0 0,2.481 1.654,0 0,1.1224 -1.654,0 0,2.5401 c 0.512,-0.276 1.024,-0.5317 1.5359,-0.768"
     id="path4230"
     inkscape:connector-curvature="0" />
  <path
     style="fill:#ffffff"
     d="m 28.046875,9.3535156 c -0.35444,0.9451004 -0.767674,1.8312134 -1.240234,2.6582034 l -4.3125,0 0,1.123047 1.537109,0 0,1.785757 C 24.03124,15.274944 24.01007,15.68496 23.9707,16 l -1.949219,0 0,1 1.832032,0 c -0.2363,2.0872 -1.043575,4.089381 -2.421875,5.113281 L 22.257812,23 c 1.6146,-1.1814 2.560258,-3.4796 2.835938,-6 l 2.597656,0 0,5.941406 1.181641,0 0,-5.941406 L 31,17 l 0,-1 -2.126953,0 0,-2.865234 1.654297,0 0,-1.123047 -2.480469,0 c 0.4332,-0.6695 0.865628,-1.436335 1.298828,-2.3027346 z m -2.835937,3.7812504 2.482421,0 0,2.865234 -2.541015,0 c 0.03937,-0.27566 0.05859,-0.626062 0.05859,-0.901742 z"
     id="path4228"
     inkscape:connector-curvature="0"
     sodipodi:nodetypes="cccccccccccccccccccccccccccccccc" />
  <path
     style="fill:#ffffff"
     d="m 24.50277,9.5315 c 0.47256,0.55135 0.827,1.1618 1.0633,1.8312 l -1.24,0.4136 c -0.236,-0.7089 -0.571,-1.339 -1.004,-1.8903 l 1.181,-0.3545"
     id="path12-5" />
</svg>
