<?xml version="1.0" encoding="UTF-8" standalone="no"?>
<svg
   xmlns:dc="http://purl.org/dc/elements/1.1/"
   xmlns:cc="http://creativecommons.org/ns#"
   xmlns:rdf="http://www.w3.org/1999/02/22-rdf-syntax-ns#"
   xmlns:svg="http://www.w3.org/2000/svg"
   xmlns="http://www.w3.org/2000/svg"
   xmlns:sodipodi="http://sodipodi.sourceforge.net/DTD/sodipodi-0.dtd"
   xmlns:inkscape="http://www.inkscape.org/namespaces/inkscape"
   height="48"
   width="48"
   version="1"
   id="svg2"
   inkscape:version="0.91 r13725"
   sodipodi:docname="calculator.svg">
  <metadata
     id="metadata34">
    <rdf:RDF>
      <cc:Work
         rdf:about="">
        <dc:format>image/svg+xml</dc:format>
        <dc:type
           rdf:resource="http://purl.org/dc/dcmitype/StillImage" />
      </cc:Work>
    </rdf:RDF>
  </metadata>
  <defs
     id="defs32" />
  <sodipodi:namedview
     pagecolor="#ffffff"
     bordercolor="#666666"
     borderopacity="1"
     objecttolerance="10"
     gridtolerance="10"
     guidetolerance="10"
     inkscape:pageopacity="0"
     inkscape:pageshadow="2"
     inkscape:window-width="1920"
     inkscape:window-height="1018"
     id="namedview30"
     showgrid="false"
     inkscape:zoom="4.9166667"
     inkscape:cx="24"
     inkscape:cy="24"
     inkscape:window-x="0"
     inkscape:window-y="32"
     inkscape:window-maximized="1"
     inkscape:current-layer="svg2" />
  <path
     opacity=".1"
     fill="#fff"
     d="m5 3c-1.108 0-2 0.892-2 2v1c0-1.108 0.892-2 2-2h36c1.108 0 2 0.892 2 2v-1c0-1.108-0.892-2-2-2h-36z"
     id="path4" />
  <path
     fill="#595959"
     d="m23 3v20h20v-18c0-1.108-0.892-2-2-2h-18z"
     id="path6"
     style="fill:#474b4e;fill-opacity:1" />
  <path
     fill="#8c8c8c"
     d="m5 43c-1.108 0-2-0.892-2-2v-18h20v20h-18z"
     id="path8"
     style="fill:#676a6f;fill-opacity:1" />
  <path
     fill="#a6a6a6"
     d="m3 23v-18c0-1.108 0.892-2 2-2h18v20h-20z"
     id="path10"
     style="fill:#898f94;fill-opacity:1" />
  <path
     fill="#666"
     d="m41 43c1.108 0 2-0.892 2-2v-18h-20v20h18z"
     id="path12" />
  <path
     opacity=".2"
     d="m3 41v1c0 1.108 0.892 2 2 2h36c1.108 0 2-0.892 2-2v-1c0 1.108-0.892 2-2 2h-36c-1.108 0-2-0.892-2-2z"
     id="path14" />
  <circle
     cy="33"
     cx="33"
     r="12"
     fill="#009587"
     id="circle16"
     style="fill:#4788f4;fill-opacity:1" />
  <path
     d="m10 28.586-1.4141 1.4141 0.70703 0.70703 2.293 2.293-2.293 2.293-0.70703 0.70703 1.4141 1.4141 0.70703-0.70703 2.293-2.293 2.293 2.293 0.70703 0.70703 1.4141-1.4141-0.70703-0.70703-2.293-2.293 2.293-2.293 0.70703-0.70703-1.4141-1.4141-0.70703 0.70703-2.293 2.293-2.293-2.293-0.70703-0.70703z"
     fill-rule="evenodd"
     fill="#ebebeb"
     id="path18"
     style="fill:#ffffff;fill-opacity:1" />
  <path
     style="enable-background:new"
     fill="#fff"
     d="m29 30v2h8v-2zm0 4v2h8v-2z"
     id="path20" />
  <path
     style="enable-background:new;fill:#ffffff;fill-opacity:1"
     fill="#ebebeb"
     d="m29 12v2h8v-2z"
     id="path22" />
  <path
     style="enable-background:new;fill:#ffffff;fill-opacity:1"
     fill="#ebebeb"
     d="m14 9v3h3v2h-3v3h-2v-3h-3v-2h3v-3z"
     id="path24" />
  <path
     opacity=".2"
     d="m44.98 33.406a12 12 0 0 1 -11.98 11.594 12 12 0 0 1 -11.98 -11.406 12 12 0 0 0 -0.02 0.406 12 12 0 0 0 12 12 12 12 0 0 0 12 -12 12 12 0 0 0 -0.02 -0.594z"
     id="path26" />
  <path
     opacity=".1"
     fill="#fff"
     d="m3 6v-1c0-1.108 0.892-2 2-2h36c1.108 0 2 0.892 2 2v1c0-1.108-0.892-2-2-2h-36c-1.108 0-2 0.892-2 2z"
     id="path28" />
</svg>
