<?xml version="1.0" encoding="UTF-8" standalone="no"?>
<svg
   xmlns:dc="http://purl.org/dc/elements/1.1/"
   xmlns:cc="http://creativecommons.org/ns#"
   xmlns:rdf="http://www.w3.org/1999/02/22-rdf-syntax-ns#"
   xmlns:svg="http://www.w3.org/2000/svg"
   xmlns="http://www.w3.org/2000/svg"
   xmlns:sodipodi="http://sodipodi.sourceforge.net/DTD/sodipodi-0.dtd"
   xmlns:inkscape="http://www.inkscape.org/namespaces/inkscape"
   height="48"
   width="48"
   version="1"
   id="svg2"
   inkscape:version="0.91 r13725"
   sodipodi:docname="google-play-news.svg">
  <metadata
     id="metadata18">
    <rdf:RDF>
      <cc:Work
         rdf:about="">
        <dc:format>image/svg+xml</dc:format>
        <dc:type
           rdf:resource="http://purl.org/dc/dcmitype/StillImage" />
        <dc:title />
      </cc:Work>
    </rdf:RDF>
  </metadata>
  <defs
     id="defs16" />
  <sodipodi:namedview
     pagecolor="#ffffff"
     bordercolor="#666666"
     borderopacity="1"
     objecttolerance="10"
     gridtolerance="10"
     guidetolerance="10"
     inkscape:pageopacity="0"
     inkscape:pageshadow="2"
     inkscape:window-width="1920"
     inkscape:window-height="1018"
     id="namedview14"
     showgrid="false"
     inkscape:zoom="7.46"
     inkscape:cx="-32.16622"
     inkscape:cy="24"
     inkscape:window-x="0"
     inkscape:window-y="32"
     inkscape:window-maximized="1"
     inkscape:current-layer="svg2" />
  <path
     id="path4178"
     d="m 4,39 c 0,1.108 0.892,2 2,2 l 36,0 c 1.108,0 2,-0.892 2,-2 L 44,11 C 44,9.892 43.108,9 42,9 L 16,9 15,20 4,21 Z"
     inkscape:connector-curvature="0"
     style="opacity:0.2;fill:#000000" />
  <path
     style="fill:#6579ec;fill-opacity:1"
     inkscape:connector-curvature="0"
     d="m 4,38 c 0,1.108 0.892,2 2,2 l 36,0 c 1.108,0 2,-0.892 2,-2 L 44,10 C 44,8.892 43.108,8 42,8 L 16,8 15,19 4,20 Z"
     id="path6" />
  <path
     id="path4180"
     d="m 4,21 10,0 c 1.1046,0 2,-0.89543 2,-2 L 16,9 4,21 Z"
     inkscape:connector-curvature="0"
     style="opacity:0.2;fill:#000000" />
  <path
     style="fill:#93a1f1;fill-opacity:1"
     inkscape:connector-curvature="0"
     d="m 4,20 10,0 c 1.1046,0 2,-0.89543 2,-2 L 16,8 4,20 Z"
     id="path10" />
  <rect
     style="opacity:0.4;fill:#000000;fill-opacity:1;fill-rule:evenodd;stroke:none;stroke-width:6;stroke-linecap:round;stroke-linejoin:round;stroke-miterlimit:4;stroke-dasharray:none;stroke-opacity:1"
     id="rect4152"
     width="12"
     height="12"
     x="8"
     y="22"
     ry="1"
     rx="1" />
  <rect
     style="opacity:0.4;fill:#000000;fill-opacity:1;fill-rule:evenodd;stroke:none;stroke-width:6;stroke-linecap:round;stroke-linejoin:round;stroke-miterlimit:4;stroke-dasharray:none;stroke-opacity:1"
     id="rect4154"
     width="18"
     height="4"
     x="22"
     y="14"
     rx="1"
     ry="1" />
  <rect
     y="20"
     x="22"
     height="2"
     width="18"
     id="rect4156"
     style="opacity:0.4;fill:#000000;fill-opacity:1;fill-rule:evenodd;stroke:none;stroke-width:6;stroke-linecap:round;stroke-linejoin:round;stroke-miterlimit:4;stroke-dasharray:none;stroke-opacity:1"
     rx="1"
     ry="1" />
  <rect
     style="opacity:0.4;fill:#000000;fill-opacity:1;fill-rule:evenodd;stroke:none;stroke-width:6;stroke-linecap:round;stroke-linejoin:round;stroke-miterlimit:4;stroke-dasharray:none;stroke-opacity:1"
     id="rect4158"
     width="18"
     height="2"
     x="22"
     y="23.999994"
     rx="1"
     ry="1" />
  <rect
     style="opacity:0.4;fill:#000000;fill-opacity:1;fill-rule:evenodd;stroke:none;stroke-width:6;stroke-linecap:round;stroke-linejoin:round;stroke-miterlimit:4;stroke-dasharray:none;stroke-opacity:1"
     id="rect4160"
     width="18"
     height="2"
     x="22"
     y="28.000006"
     rx="1"
     ry="1" />
  <rect
     y="32"
     x="22"
     height="2"
     width="18"
     id="rect4162"
     style="opacity:0.4;fill:#000000;fill-opacity:1;fill-rule:evenodd;stroke:none;stroke-width:6;stroke-linecap:round;stroke-linejoin:round;stroke-miterlimit:4;stroke-dasharray:none;stroke-opacity:1"
     rx="1"
     ry="1" />
  <path
     style="opacity:0.2;fill:#ffffff"
     d="m 16,8 0,1 26,0 c 1.108,0 2,0.892 2,2 l 0,-1 C 44,8.892 43.108,8 42,8 Z"
     id="path4182"
     inkscape:connector-curvature="0"
     sodipodi:nodetypes="ccscssc" />
</svg>
