<?xml version="1.0" encoding="UTF-8" standalone="no"?>
<svg
   xmlns:dc="http://purl.org/dc/elements/1.1/"
   xmlns:cc="http://creativecommons.org/ns#"
   xmlns:rdf="http://www.w3.org/1999/02/22-rdf-syntax-ns#"
   xmlns:svg="http://www.w3.org/2000/svg"
   xmlns="http://www.w3.org/2000/svg"
   xmlns:sodipodi="http://sodipodi.sourceforge.net/DTD/sodipodi-0.dtd"
   xmlns:inkscape="http://www.inkscape.org/namespaces/inkscape"
   height="48"
   width="48"
   version="1"
   id="svg2"
   inkscape:version="0.91 r13725"
   sodipodi:docname="google-cyclops.svg">
  <metadata
     id="metadata28">
    <rdf:RDF>
      <cc:Work
         rdf:about="">
        <dc:format>image/svg+xml</dc:format>
        <dc:type
           rdf:resource="http://purl.org/dc/dcmitype/StillImage" />
        <dc:title />
      </cc:Work>
    </rdf:RDF>
  </metadata>
  <defs
     id="defs26" />
  <sodipodi:namedview
     pagecolor="#ffffff"
     bordercolor="#666666"
     borderopacity="1"
     objecttolerance="10"
     gridtolerance="10"
     guidetolerance="10"
     inkscape:pageopacity="0"
     inkscape:pageshadow="2"
     inkscape:window-width="1920"
     inkscape:window-height="1018"
     id="namedview24"
     showgrid="false"
     inkscape:zoom="13.94"
     inkscape:cx="-6.0573888"
     inkscape:cy="24"
     inkscape:window-x="0"
     inkscape:window-y="32"
     inkscape:window-maximized="1"
     inkscape:current-layer="svg2" />
  <rect
     rx="0"
     ry="1"
     height="4"
     width="7"
     y="7"
     x="7"
     id="rect4"
     style="fill:#925105;fill-opacity:1" />
  <rect
     ry="2"
     rx="2"
     transform="matrix(0,-1,-1,0,0,0)"
     height="40"
     width="32"
     y="-44"
     x="-41"
     fill="#5d5d5d"
     id="rect6"
     style="fill:#de9440;fill-opacity:1" />
  <circle
     style="opacity:0.2;fill:#000000;fill-opacity:1"
     id="circle4156"
     r="13"
     cx="24"
     cy="26" />
  <circle
     cy="25"
     cx="24"
     r="13"
     fill="#3f3f3f"
     id="circle8"
     style="fill:#f8dcb1;fill-opacity:1" />
  <circle
     transform="scale(1,-1)"
     cy="-25"
     cx="24"
     r="10"
     id="circle12"
     style="fill:#925105;fill-opacity:1" />
  <circle
     cy="14.136"
     cx="39"
     r="2"
     fill="#3f3f3f"
     id="circle14"
     style="fill:#925105;fill-opacity:1" />
  <path
     opacity=".1"
     fill="#fff"
     d="m42 9c1.108 0 2 0.892 2 2v1c0-1.108-0.892-2-2-2h-36c-1.108 0-2 0.892-2 2v-1c0-1.108 0.892-2 2-2h36z"
     id="path16" />
  <path
     opacity=".2"
     d="m4 39v1c0 1.108 0.892 2 2 2h36c1.108 0 2-0.892 2-2v-1c0 1.108-0.892 2-2 2h-36c-1.108 0-2-0.892-2-2z"
     id="path18" />
  <path
     style="fill:#ffffff;fill-opacity:1;opacity:0.2"
     d="M 24 12 A 13 13 0 0 0 11 25 A 13 13 0 0 0 11.021484 25.580078 A 13 13 0 0 1 24 13 A 13 13 0 0 1 36.978516 25.419922 A 13 13 0 0 0 37 25 A 13 13 0 0 0 24 12 z "
     id="circle4158" />
</svg>
