<?xml version="1.0" encoding="UTF-8" standalone="no"?>
<svg
   xmlns:dc="http://purl.org/dc/elements/1.1/"
   xmlns:cc="http://creativecommons.org/ns#"
   xmlns:rdf="http://www.w3.org/1999/02/22-rdf-syntax-ns#"
   xmlns:svg="http://www.w3.org/2000/svg"
   xmlns="http://www.w3.org/2000/svg"
   xmlns:sodipodi="http://sodipodi.sourceforge.net/DTD/sodipodi-0.dtd"
   xmlns:inkscape="http://www.inkscape.org/namespaces/inkscape"
   width="48"
   height="48"
   version="1"
   id="svg2"
   inkscape:version="0.91 r13725"
   sodipodi:docname="google-messaging.svg">
  <metadata
     id="metadata24">
    <rdf:RDF>
      <cc:Work
         rdf:about="">
        <dc:format>image/svg+xml</dc:format>
        <dc:type
           rdf:resource="http://purl.org/dc/dcmitype/StillImage" />
        <dc:title />
      </cc:Work>
    </rdf:RDF>
  </metadata>
  <defs
     id="defs22" />
  <sodipodi:namedview
     pagecolor="#ffffff"
     bordercolor="#666666"
     borderopacity="1"
     objecttolerance="10"
     gridtolerance="10"
     guidetolerance="10"
     inkscape:pageopacity="0"
     inkscape:pageshadow="2"
     inkscape:window-width="1920"
     inkscape:window-height="1018"
     id="namedview20"
     showgrid="false"
     inkscape:zoom="8.58"
     inkscape:cx="-0.41724942"
     inkscape:cy="24"
     inkscape:window-x="0"
     inkscape:window-y="32"
     inkscape:window-maximized="1"
     inkscape:current-layer="svg2" />
  <path
     style="opacity:0.2;fill:#000000;fill-opacity:1"
     inkscape:connector-curvature="0"
     id="path4157"
     d="m 4,8 6,6 0,25 c 0,1.662 1.338,3 3,3 l 28,0 c 1.662,0 3,-1.338 3,-3 L 44,11 C 44,9.338 42.662,8 41,8 L 4,8 Z" />
  <path
     fill="#fff"
     opacity=".1"
     d="m75.53 5.4393c-11.08 0-20 8.92-20 20 0 0.16772-0.004 0.33329 0 0.5 0.26444-10.846 9.0877-19.5 20-19.5s19.736 8.6537 20 19.5c0.004-0.16671 0-0.33228 0-0.5 0-11.08-8.92-20-20-20z"
     id="path4" />
  <path
     d="m 4,7 6,6 0,25 c 0,1.662 1.338,3 3,3 l 28,0 c 1.662,0 3,-1.338 3,-3 L 44,10 C 44,8.338 42.662,7 41,7 L 4,7 Z"
     id="path6"
     inkscape:connector-curvature="0"
     style="fill:#3761ca;fill-opacity:1" />
  <path
     style="fill:#ffffff;fill-opacity:1;opacity:0.1"
     d="M 4 7 L 5 8 L 41 8 C 42.662 8 44 9.338 44 11 L 44 10 C 44 8.338 42.662 7 41 7 L 4 7 z "
     id="path4152" />
  <path
     sodipodi:nodetypes="ccccccccccccccc"
     inkscape:connector-curvature="0"
     id="path4138"
     d="m 17,16 0,3 20,0 0,-3 z m 0,8 0,3 20,0 0,-3 z m 0,8 0,3 13,0 0,-3 z"
     style="opacity:0.2;fill:#000000;fill-opacity:1;fill-rule:evenodd;stroke:none;stroke-width:3;stroke-linecap:round;stroke-linejoin:round;stroke-miterlimit:4;stroke-dasharray:none;stroke-opacity:1" />
  <path
     style="opacity:1;fill:#ffffff;fill-opacity:1;fill-rule:evenodd;stroke:none;stroke-width:3;stroke-linecap:round;stroke-linejoin:round;stroke-miterlimit:4;stroke-dasharray:none;stroke-opacity:1"
     d="m 17,15 0,3 20,0 0,-3 z m 0,8 0,3 20,0 0,-3 z m 0,8 0,3 13,0 0,-3 z"
     id="rect4159"
     inkscape:connector-curvature="0"
     sodipodi:nodetypes="ccccccccccccccc" />
</svg>
