<?xml version="1.0" encoding="UTF-8" standalone="no"?>
<svg
   xmlns:dc="http://purl.org/dc/elements/1.1/"
   xmlns:cc="http://creativecommons.org/ns#"
   xmlns:rdf="http://www.w3.org/1999/02/22-rdf-syntax-ns#"
   xmlns:svg="http://www.w3.org/2000/svg"
   xmlns="http://www.w3.org/2000/svg"
   xmlns:sodipodi="http://sodipodi.sourceforge.net/DTD/sodipodi-0.dtd"
   xmlns:inkscape="http://www.inkscape.org/namespaces/inkscape"
   width="48"
   height="48"
   version="1"
   id="svg2"
   inkscape:version="0.91 r13725"
   sodipodi:docname="google-scanner.svg">
  <metadata
     id="metadata22">
    <rdf:RDF>
      <cc:Work
         rdf:about="">
        <dc:format>image/svg+xml</dc:format>
        <dc:type
           rdf:resource="http://purl.org/dc/dcmitype/StillImage" />
        <dc:title />
      </cc:Work>
    </rdf:RDF>
  </metadata>
  <defs
     id="defs20" />
  <sodipodi:namedview
     pagecolor="#ffffff"
     bordercolor="#666666"
     borderopacity="1"
     objecttolerance="10"
     gridtolerance="10"
     guidetolerance="10"
     inkscape:pageopacity="0"
     inkscape:pageshadow="2"
     inkscape:window-width="1920"
     inkscape:window-height="1018"
     id="namedview18"
     showgrid="false"
     inkscape:zoom="9.14"
     inkscape:cx="1.0787746"
     inkscape:cy="24"
     inkscape:window-x="0"
     inkscape:window-y="32"
     inkscape:window-maximized="1"
     inkscape:current-layer="svg2" />
  <rect
     width="36"
     height="40"
     x="-42"
     y="5"
     rx="2"
     ry="2"
     transform="scale(-1,1)"
     style="opacity:0.2"
     id="rect4" />
  <rect
     style="fill:#e4e4e4"
     width="36"
     height="40"
     x="-42"
     y="4"
     rx="2"
     ry="2"
     transform="scale(-1,1)"
     id="rect6" />
  <rect
     style="fill:#4fc3f7;fill-opacity:1"
     width="28"
     height="28"
     x="-38"
     y="8"
     rx="0"
     ry="0"
     transform="scale(-1,1)"
     id="rect8" />
  <path
     style="fill:#ffffff;opacity:0.2"
     d="M 8 4 C 6.892 4 6 4.892 6 6 L 6 7 C 6 5.892 6.892 5 8 5 L 40 5 C 41.108 5 42 5.892 42 7 L 42 6 C 42 4.892 41.108 4 40 4 L 8 4 z"
     id="path10" />
  <circle
     style="opacity:1;fill:#319df4;fill-opacity:1;fill-rule:evenodd;stroke:none;stroke-width:3;stroke-linecap:round;stroke-linejoin:round;stroke-miterlimit:4;stroke-dasharray:none;stroke-opacity:1"
     id="path4161"
     cx="24"
     cy="21"
     r="10" />
  <circle
     r="10"
     cy="18.000008"
     cx="27"
     id="circle4163"
     style="opacity:1;fill:#0b82e3;fill-opacity:1;fill-rule:evenodd;stroke:none;stroke-width:3;stroke-linecap:round;stroke-linejoin:round;stroke-miterlimit:4;stroke-dasharray:none;stroke-opacity:1" />
  <path
     style="opacity:1;fill:#094fb4;fill-opacity:1;fill-rule:evenodd;stroke:none;stroke-width:3;stroke-linecap:round;stroke-linejoin:round;stroke-miterlimit:4;stroke-dasharray:none;stroke-opacity:1"
     d="M 23.892578 8 C 22.112727 9.8032129 21 12.265809 21 15 C 21 20.522847 25.477153 25 31 25 C 33.727109 25 36.195965 23.904913 38 22.134766 L 38 8 L 23.892578 8 z "
     id="circle4165" />
  <path
     id="path4176"
     d="m 31,11.000008 a 5,5 0 0 0 -5,5 5,5 0 0 0 5,5 5,5 0 0 0 5,-5 5,5 0 0 0 -5,-5 z m 0,2 a 3,3 0 0 1 3,3 3,3 0 0 1 -3,3 3,3 0 0 1 -3,-3 3,3 0 0 1 3,-3 z"
     style="opacity:0.2;fill:#000000;fill-opacity:1;fill-rule:evenodd;stroke:none;stroke-width:3;stroke-linecap:round;stroke-linejoin:round;stroke-miterlimit:4;stroke-dasharray:none;stroke-opacity:1"
     inkscape:connector-curvature="0" />
  <path
     style="opacity:1;fill:#ffffff;fill-opacity:1;fill-rule:evenodd;stroke:none;stroke-width:3;stroke-linecap:round;stroke-linejoin:round;stroke-miterlimit:4;stroke-dasharray:none;stroke-opacity:1"
     d="m 31,10.000008 a 5,5 0 0 0 -5,5 5,5 0 0 0 5,5 5,5 0 0 0 5,-5 5,5 0 0 0 -5,-5 z m 0,2 a 3,3 0 0 1 3,3 3,3 0 0 1 -3,3 3,3 0 0 1 -3,-3 3,3 0 0 1 3,-3 z"
     id="path4171"
     inkscape:connector-curvature="0" />
</svg>
