<?xml version="1.0" encoding="UTF-8" standalone="no"?>
<svg
   xmlns:dc="http://purl.org/dc/elements/1.1/"
   xmlns:cc="http://creativecommons.org/ns#"
   xmlns:rdf="http://www.w3.org/1999/02/22-rdf-syntax-ns#"
   xmlns:svg="http://www.w3.org/2000/svg"
   xmlns="http://www.w3.org/2000/svg"
   xmlns:sodipodi="http://sodipodi.sourceforge.net/DTD/sodipodi-0.dtd"
   xmlns:inkscape="http://www.inkscape.org/namespaces/inkscape"
   width="48"
   height="48"
   version="1"
   id="svg2"
   inkscape:version="0.91 r13725"
   sodipodi:docname="google-adm.svg">
  <metadata
     id="metadata18">
    <rdf:RDF>
      <cc:Work
         rdf:about="">
        <dc:format>image/svg+xml</dc:format>
        <dc:type
           rdf:resource="http://purl.org/dc/dcmitype/StillImage" />
        <dc:title></dc:title>
      </cc:Work>
    </rdf:RDF>
  </metadata>
  <defs
     id="defs16" />
  <sodipodi:namedview
     pagecolor="#ffffff"
     bordercolor="#666666"
     borderopacity="1"
     objecttolerance="10"
     gridtolerance="10"
     guidetolerance="10"
     inkscape:pageopacity="0"
     inkscape:pageshadow="2"
     inkscape:window-width="1920"
     inkscape:window-height="1018"
     id="namedview14"
     showgrid="true"
     inkscape:zoom="17.07"
     inkscape:cx="24"
     inkscape:cy="24"
     inkscape:window-x="0"
     inkscape:window-y="32"
     inkscape:window-maximized="1"
     inkscape:current-layer="svg2">
    <inkscape:grid
       type="xygrid"
       id="grid4170" />
  </sodipodi:namedview>
  <rect
     fill="#37a0f2"
     width="40"
     height="40"
     x="-44"
     y="-44"
     rx="20"
     ry="20"
     transform="matrix(0,-1,-1,0,0,0)"
     id="rect4"
     style="fill:#1a9f5e;fill-opacity:1" />
  <path
     fill="#fff"
     opacity=".2"
     d="m24 4c-11.08 0-20 8.92-20 20 0 0.168-0.004 0.333 0 0.5 0.2644-10.846 9.088-19.5 20-19.5s19.736 8.654 20 19.5c0.004-0.167 0-0.332 0-0.5 0-11.08-8.92-20-20-20z"
     id="path8" />
  <path
     opacity=".2"
     d="m4.0117 24.5c-0.0041 0.167-0.0117 0.332-0.0117 0.5 0 11.08 8.92 20 20 20s20-8.92 20-20c0-0.168-0.008-0.333-0.012-0.5-0.264 10.846-9.076 19.5-19.988 19.5s-19.724-8.654-19.988-19.5z"
     id="path12" />
  <path
     sodipodi:nodetypes="scsscsscs"
     inkscape:connector-curvature="0"
     id="path4178"
     d="m 24,11.000418 c -7.731986,0 -14,6.268014 -14,14 0.0084,6.42747 4.470823,11.735539 10.630859,13.570312 1.01547,0.302459 1.57659,1.137561 2.25,1.84375 0.5775,0.605612 1.08929,1.101955 1.138672,1.103516 0.04938,0.0016 0.522662,-0.444255 1.050781,-0.990234 C 25.73901,39.836448 26.4123,38.905675 27.599609,38.523856 33.6385,36.581847 37.997329,31.343887 38,25.000418 c 0,-7.731986 -6.268014,-14 -14,-14 z"
     style="opacity:0.2;fill:#000000;fill-opacity:1" />
  <path
     style="fill:#ffffff;fill-opacity:1"
     d="m 24,10 c -7.731986,0 -14,6.268014 -14,14 0.0084,6.42747 4.470823,11.735539 10.630859,13.570312 1.01547,0.302459 1.57659,1.137561 2.25,1.84375 0.5775,0.605612 1.08929,1.101955 1.138672,1.103516 0.04938,0.0016 0.522662,-0.444255 1.050781,-0.990234 C 25.73901,38.83603 26.4123,37.905257 27.599609,37.523438 33.6385,35.581429 37.997329,30.343469 38,24 38,16.268014 31.731986,10 24,10 Z"
     id="path4165"
     inkscape:connector-curvature="0"
     sodipodi:nodetypes="scsscsscs" />
  <path
     style="opacity:1;fill:#4f4f4f;fill-opacity:1;fill-rule:evenodd;stroke:none;stroke-width:3;stroke-linecap:round;stroke-linejoin:round;stroke-miterlimit:4;stroke-dasharray:none;stroke-opacity:1"
     d="M 20 15 C 18.892 15 18 15.892 18 17 L 18 31 C 18 32.108 18.892 33 20 33 L 28 33 C 29.108 33 30 32.108 30 31 L 30 17 C 30 15.892 29.108 15 28 15 L 20 15 z M 20 18 L 28 18 L 28 30 L 20 30 L 20 18 z "
     id="path4201" />
</svg>
