<?xml version="1.0" encoding="UTF-8" standalone="no"?>
<svg
   xmlns:dc="http://purl.org/dc/elements/1.1/"
   xmlns:cc="http://creativecommons.org/ns#"
   xmlns:rdf="http://www.w3.org/1999/02/22-rdf-syntax-ns#"
   xmlns:svg="http://www.w3.org/2000/svg"
   xmlns="http://www.w3.org/2000/svg"
   xmlns:sodipodi="http://sodipodi.sourceforge.net/DTD/sodipodi-0.dtd"
   xmlns:inkscape="http://www.inkscape.org/namespaces/inkscape"
   height="48"
   width="48"
   version="1"
   id="svg2"
   inkscape:version="0.91 r13725"
   sodipodi:docname="mms.svg">
  <metadata
     id="metadata18">
    <rdf:RDF>
      <cc:Work
         rdf:about="">
        <dc:format>image/svg+xml</dc:format>
        <dc:type
           rdf:resource="http://purl.org/dc/dcmitype/StillImage" />
        <dc:title></dc:title>
      </cc:Work>
    </rdf:RDF>
  </metadata>
  <defs
     id="defs16" />
  <sodipodi:namedview
     pagecolor="#ffffff"
     bordercolor="#666666"
     borderopacity="1"
     objecttolerance="10"
     gridtolerance="10"
     guidetolerance="10"
     inkscape:pageopacity="0"
     inkscape:pageshadow="2"
     inkscape:window-width="1920"
     inkscape:window-height="1018"
     id="namedview14"
     showgrid="true"
     inkscape:zoom="9.84"
     inkscape:cx="17.434783"
     inkscape:cy="24"
     inkscape:window-x="0"
     inkscape:window-y="32"
     inkscape:window-maximized="1"
     inkscape:current-layer="svg2">
    <inkscape:grid
       type="xygrid"
       id="grid4154" />
  </sodipodi:namedview>
  <path
     inkscape:connector-curvature="0"
     d="M 6.2222,6 C 4.9911,6 4,7.2689 4,8.5 l 0,26 C 4,35.731 4.9911,37 6.2222,37 l 18.778,0 5,5 5,-5 6.7778,0 C 43.009,37 44,35.731 44,34.5 l 0,-26 C 44,7.2689 43.009,6 41.778,6 Z"
     id="path4"
     style="fill:#ff8e34;fill-opacity:1" />
  <path
     style="opacity:0.2"
     inkscape:connector-curvature="0"
     d="m 4,34.5 0,1 C 4,36.731 4.9915,38 6.2227,38 l 18.777,0 5,5 5,-5 6.777,0 c 1.231,0 2.223,-1.269 2.223,-2.5 l 0,-1 c 0,1.231 -0.992,2.5 -2.223,2.5 l -6.777,0 -5,5 -5,-5 -18.777,0 c -1.2315,0 -2.223,-1.269 -2.223,-2.5 z"
     id="path6" />
  <path
     style="opacity:0.2;fill:#ffffff"
     inkscape:connector-curvature="0"
     d="M 6.2227,6 C 4.9915,6 4,7.2689 4,8.5 l 0,1 C 4,8.2689 4.9915,7 6.2227,7 l 35.554,0 c 1.231,0 2.223,1.2689 2.223,2.5 l 0,-1 c 0,-1.2311 -0.992,-2.5 -2.223,-2.5 L 6.2227,6 Z"
     id="path8" />
  <path
     style="opacity:0.2;fill:#000000;fill-opacity:1;fill-rule:evenodd;stroke:none;stroke-width:2;stroke-linecap:round;stroke-linejoin:round;stroke-miterlimit:4;stroke-dasharray:none;stroke-opacity:1"
     d="m 18,17 a 2,2 0 0 0 -2,2 2,2 0 0 0 2,2 2,2 0 0 0 2,-2 2,2 0 0 0 -2,-2 z m 12,0 a 2,2 0 0 0 -2,2 2,2 0 0 0 2,2 2,2 0 0 0 2,-2 2,2 0 0 0 -2,-2 z m 4.990234,5.986328 a 1.0001,1.0001 0 0 0 -0.697265,0.306641 C 34.292969,23.292969 30.619048,27 24,27 17.380952,27 13.707031,23.292969 13.707031,23.292969 a 1.0001,1.0001 0 0 0 -0.716797,-0.302735 1.0001,1.0001 0 0 0 -0.697265,1.716797 c 0,0 4.326079,4.292969 11.707031,4.292969 7.380952,0 11.707031,-4.292969 11.707031,-4.292969 a 1.0001,1.0001 0 0 0 -0.716797,-1.720703 z"
     id="circle4162"
     inkscape:connector-curvature="0" />
  <circle
     style="opacity:1;fill:#3f3f3f;fill-opacity:1;fill-rule:evenodd;stroke:none;stroke-width:2;stroke-linecap:round;stroke-linejoin:round;stroke-miterlimit:4;stroke-dasharray:none;stroke-opacity:1"
     id="path4148"
     cx="18"
     cy="18"
     r="2" />
  <circle
     r="2"
     cy="18"
     cx="30"
     id="circle4150"
     style="opacity:1;fill:#3f3f3f;fill-opacity:1;fill-rule:evenodd;stroke:none;stroke-width:2;stroke-linecap:round;stroke-linejoin:round;stroke-miterlimit:4;stroke-dasharray:none;stroke-opacity:1" />
  <path
     style="fill:none;fill-rule:evenodd;stroke:#3f3f3f;stroke-width:2;stroke-linecap:round;stroke-linejoin:round;stroke-miterlimit:4;stroke-dasharray:none;stroke-opacity:1"
     d="m 13,23 c 0,0 4,4 11,4 7,0 11,-4 11,-4"
     id="path4152"
     inkscape:connector-curvature="0"
     sodipodi:nodetypes="czc" />
</svg>
