<?xml version="1.0" encoding="UTF-8" standalone="no"?>
<svg
   xmlns:dc="http://purl.org/dc/elements/1.1/"
   xmlns:cc="http://creativecommons.org/ns#"
   xmlns:rdf="http://www.w3.org/1999/02/22-rdf-syntax-ns#"
   xmlns:svg="http://www.w3.org/2000/svg"
   xmlns="http://www.w3.org/2000/svg"
   xmlns:sodipodi="http://sodipodi.sourceforge.net/DTD/sodipodi-0.dtd"
   xmlns:inkscape="http://www.inkscape.org/namespaces/inkscape"
   width="48"
   version="1.1"
   height="48"
   viewBox="0 0 48 48"
   id="svg12"
   sodipodi:docname="phone-2.svg"
   inkscape:version="0.91 r13725">
  <metadata
     id="metadata18">
    <rdf:RDF>
      <cc:Work
         rdf:about="">
        <dc:format>image/svg+xml</dc:format>
        <dc:type
           rdf:resource="http://purl.org/dc/dcmitype/StillImage" />
        <dc:title />
      </cc:Work>
    </rdf:RDF>
  </metadata>
  <defs
     id="defs16" />
  <sodipodi:namedview
     pagecolor="#ffffff"
     bordercolor="#666666"
     borderopacity="1"
     objecttolerance="10"
     gridtolerance="10"
     guidetolerance="10"
     inkscape:pageopacity="0"
     inkscape:pageshadow="2"
     inkscape:window-width="1920"
     inkscape:window-height="1018"
     id="namedview14"
     showgrid="true"
     inkscape:zoom="11.420324"
     inkscape:cx="2.3264557"
     inkscape:cy="30.986538"
     inkscape:window-x="0"
     inkscape:window-y="32"
     inkscape:window-maximized="1"
     inkscape:current-layer="svg12"
     inkscape:object-nodes="true">
    <inkscape:grid
       type="xygrid"
       id="grid4140" />
  </sodipodi:namedview>
  <path
     id="path4160"
     d="M 4.9960938,13.000094 C 5.013864,16.478176 5.8239619,26.480306 14.171875,34.828219 22.519788,43.176132 32.521918,43.98623 36,44.004 l 0,-7.964844 c -2.122331,0.04598 -9.597065,-0.292377 -16.171875,-6.867187 -6.57481,-6.57481 -6.913167,-14.049544 -6.867187,-16.171875 l -7.9648442,0 z"
     style="color:#000000;font-style:normal;font-variant:normal;font-weight:normal;font-stretch:normal;font-size:medium;line-height:normal;font-family:sans-serif;text-indent:0;text-align:start;text-decoration:none;text-decoration-line:none;text-decoration-style:solid;text-decoration-color:#000000;letter-spacing:normal;word-spacing:normal;text-transform:none;direction:ltr;block-progression:tb;writing-mode:lr-tb;baseline-shift:baseline;text-anchor:start;white-space:normal;clip-rule:nonzero;display:inline;overflow:visible;visibility:visible;opacity:0.2;isolation:auto;mix-blend-mode:normal;color-interpolation:sRGB;color-interpolation-filters:linearRGB;solid-color:#000000;solid-opacity:1;fill:#000000;fill-opacity:1;fill-rule:evenodd;stroke:none;stroke-width:8;stroke-linecap:butt;stroke-linejoin:round;stroke-miterlimit:4;stroke-dasharray:none;stroke-dashoffset:0;stroke-opacity:1;color-rendering:auto;image-rendering:auto;shape-rendering:auto;text-rendering:auto;enable-background:accumulate"
     inkscape:connector-curvature="0" />
  <path
     style="color:#000000;font-style:normal;font-variant:normal;font-weight:normal;font-stretch:normal;font-size:medium;line-height:normal;font-family:sans-serif;text-indent:0;text-align:start;text-decoration:none;text-decoration-line:none;text-decoration-style:solid;text-decoration-color:#000000;letter-spacing:normal;word-spacing:normal;text-transform:none;direction:ltr;block-progression:tb;writing-mode:lr-tb;baseline-shift:baseline;text-anchor:start;white-space:normal;clip-rule:nonzero;display:inline;overflow:visible;visibility:visible;opacity:1;isolation:auto;mix-blend-mode:normal;color-interpolation:sRGB;color-interpolation-filters:linearRGB;solid-color:#000000;solid-opacity:1;fill:#0a76b1;fill-opacity:1;fill-rule:evenodd;stroke:none;stroke-width:8;stroke-linecap:butt;stroke-linejoin:round;stroke-miterlimit:4;stroke-dasharray:none;stroke-dashoffset:0;stroke-opacity:1;color-rendering:auto;image-rendering:auto;shape-rendering:auto;text-rendering:auto;enable-background:accumulate"
     d="M 4.9960938 12 C 5.013864 15.478082 5.8239619 25.480212 14.171875 33.828125 C 22.519788 42.176038 32.521918 42.986136 36 43.003906 L 36 35.039062 C 33.877669 35.085043 26.402935 34.746685 19.828125 28.171875 C 13.253315 21.597065 12.914958 14.122331 12.960938 12 L 4.9960938 12 z "
     id="path4147" />
  <path
     sodipodi:nodetypes="sssss"
     inkscape:connector-curvature="0"
     id="path4145"
     d="m 20,14 c 0,4.970563 -1.694702,9 -6.428571,9 C 8.8375592,23 5,18.970563 5,14 5,9.0294373 8.8375592,5 13.571429,5 18.305298,5 20,9.0294373 20,14 Z"
     style="opacity:0.2;fill:#000000;fill-opacity:1;fill-rule:evenodd;stroke:none;stroke-width:2;stroke-linecap:round;stroke-linejoin:round;stroke-miterlimit:4;stroke-dasharray:none;stroke-opacity:1" />
  <path
     style="opacity:1;fill:#3eafe3;fill-opacity:1;fill-rule:evenodd;stroke:none;stroke-width:2;stroke-linecap:round;stroke-linejoin:round;stroke-miterlimit:4;stroke-dasharray:none;stroke-opacity:1"
     d="m 20,13 c 0,4.970563 -1.694702,9 -6.428571,9 C 8.8375592,22 5,17.970563 5,13 5,8.0294373 8.8375592,4 13.571429,4 18.305298,4 20,8.0294373 20,13 Z"
     id="path4142"
     inkscape:connector-curvature="0"
     sodipodi:nodetypes="sssss" />
  <path
     style="opacity:0.2;fill:#000000;fill-opacity:1;fill-rule:evenodd;stroke:none;stroke-width:2;stroke-linecap:round;stroke-linejoin:round;stroke-miterlimit:4;stroke-dasharray:none;stroke-opacity:1"
     d="m 35,29 c 4.970563,0 9,1.694702 9,6.428571 C 44,40.162441 39.970563,44 35,44 30.029437,44 26,40.162441 26,35.428571 26,30.694702 30.029437,29 35,29 Z"
     id="path4148"
     inkscape:connector-curvature="0"
     sodipodi:nodetypes="sssss" />
  <path
     sodipodi:nodetypes="sssss"
     inkscape:connector-curvature="0"
     id="path4143"
     d="m 35,28 c 4.970563,0 9,1.694702 9,6.428571 C 44,39.162441 39.970563,43 35,43 30.029437,43 26,39.162441 26,34.428571 26,29.694702 30.029437,28 35,28 Z"
     style="opacity:1;fill:#3eafe3;fill-opacity:1;fill-rule:evenodd;stroke:none;stroke-width:2;stroke-linecap:round;stroke-linejoin:round;stroke-miterlimit:4;stroke-dasharray:none;stroke-opacity:1" />
  <path
     style="opacity:0.2;fill:#ffffff;fill-opacity:1;fill-rule:evenodd;stroke:none;stroke-width:2;stroke-linecap:round;stroke-linejoin:round;stroke-miterlimit:4;stroke-dasharray:none;stroke-opacity:1"
     d="M 13.572266 4 C 8.8383958 4 5 8.0294373 5 13 C 5 13.168867 5.0166473 13.333426 5.0253906 13.5 C 5.2740032 8.7635223 8.999222 5 13.572266 5 C 18.143061 5 19.862285 8.7668095 19.976562 13.5 C 19.98064 13.331133 20 13.171227 20 13 C 20 8.0294373 18.306135 4 13.572266 4 z "
     id="path4150" />
  <path
     style="opacity:0.2;fill:#ffffff;fill-opacity:1;fill-rule:evenodd;stroke:none;stroke-width:2;stroke-linecap:round;stroke-linejoin:round;stroke-miterlimit:4;stroke-dasharray:none;stroke-opacity:1"
     d="M 35 28 C 30.029437 28 26 29.693865 26 34.427734 C 26 34.599064 26.016934 34.766705 26.027344 34.935547 C 26.304068 30.582644 30.208998 29 35 29 C 39.791002 29 43.695932 30.582644 43.972656 34.935547 C 43.983066 34.766705 44 34.599064 44 34.427734 C 44 29.693865 39.970563 28 35 28 z "
     id="path4152" />
</svg>
