<?xml version="1.0" encoding="UTF-8" standalone="no"?>
<svg
   xmlns:dc="http://purl.org/dc/elements/1.1/"
   xmlns:cc="http://creativecommons.org/ns#"
   xmlns:rdf="http://www.w3.org/1999/02/22-rdf-syntax-ns#"
   xmlns:svg="http://www.w3.org/2000/svg"
   xmlns="http://www.w3.org/2000/svg"
   xmlns:sodipodi="http://sodipodi.sourceforge.net/DTD/sodipodi-0.dtd"
   xmlns:inkscape="http://www.inkscape.org/namespaces/inkscape"
   width="48"
   version="1.1"
   height="48"
   viewBox="0 0 48 48"
   id="svg12"
   sodipodi:docname="phone.svg"
   inkscape:version="0.92.1 r15371">
  <metadata
     id="metadata18">
    <rdf:RDF>
      <cc:Work
         rdf:about="">
        <dc:format>image/svg+xml</dc:format>
        <dc:type
           rdf:resource="http://purl.org/dc/dcmitype/StillImage" />
        <dc:title></dc:title>
      </cc:Work>
    </rdf:RDF>
  </metadata>
  <defs
     id="defs16" />
  <sodipodi:namedview
     pagecolor="#ffffff"
     bordercolor="#666666"
     borderopacity="1"
     objecttolerance="10"
     gridtolerance="10"
     guidetolerance="10"
     inkscape:pageopacity="0"
     inkscape:pageshadow="2"
     inkscape:window-width="1600"
     inkscape:window-height="831"
     id="namedview14"
     showgrid="false"
     inkscape:zoom="4.98"
     inkscape:cx="10.09897"
     inkscape:cy="16.91435"
     inkscape:window-x="0"
     inkscape:window-y="0"
     inkscape:window-maximized="1"
     inkscape:current-layer="svg12" />
  <path
     style="color:#000000;font-style:normal;font-variant:normal;font-weight:normal;font-stretch:normal;font-size:medium;line-height:normal;font-family:sans-serif;font-variant-ligatures:normal;font-variant-position:normal;font-variant-caps:normal;font-variant-numeric:normal;font-variant-alternates:normal;font-feature-settings:normal;text-indent:0;text-align:start;text-decoration:none;text-decoration-line:none;text-decoration-style:solid;text-decoration-color:#000000;letter-spacing:normal;word-spacing:normal;text-transform:none;writing-mode:lr-tb;direction:ltr;text-orientation:mixed;dominant-baseline:auto;baseline-shift:baseline;text-anchor:start;white-space:normal;shape-padding:0;clip-rule:nonzero;display:inline;overflow:visible;visibility:visible;opacity:0.2;isolation:auto;mix-blend-mode:normal;color-interpolation:sRGB;color-interpolation-filters:linearRGB;solid-color:#000000;solid-opacity:1;vector-effect:none;fill:#000000;fill-opacity:1;fill-rule:nonzero;stroke:none;stroke-width:6;stroke-linecap:round;stroke-linejoin:round;stroke-miterlimit:4;stroke-dasharray:none;stroke-dashoffset:0;stroke-opacity:1;color-rendering:auto;image-rendering:auto;shape-rendering:auto;text-rendering:auto;enable-background:accumulate"
     d="m 10.058594,17.960938 a 3.0003,3.0003 0 0 0 -2.8652346,4.097656 c 0,0 2.0427287,5.322189 7.6093746,11.097656 5.653437,5.865511 12.003907,8.595703 12.003907,8.595703 a 3.0003,3.0003 0 1 0 2.386718,-5.503906 c 0,0 -5.322886,-2.330346 -10.070312,-7.255859 -4.834214,-5.015559 -6.316406,-9.050782 -6.316406,-9.050782 a 3.0003,3.0003 0 0 0 -2.748047,-1.980468 z"
     id="path4531"
     inkscape:connector-curvature="0" />
  <path
     style="color:#000000;font-style:normal;font-variant:normal;font-weight:normal;font-stretch:normal;font-size:medium;line-height:normal;font-family:sans-serif;font-variant-ligatures:normal;font-variant-position:normal;font-variant-caps:normal;font-variant-numeric:normal;font-variant-alternates:normal;font-feature-settings:normal;text-indent:0;text-align:start;text-decoration:none;text-decoration-line:none;text-decoration-style:solid;text-decoration-color:#000000;letter-spacing:normal;word-spacing:normal;text-transform:none;writing-mode:lr-tb;direction:ltr;text-orientation:mixed;dominant-baseline:auto;baseline-shift:baseline;text-anchor:start;white-space:normal;shape-padding:0;clip-rule:nonzero;display:inline;overflow:visible;visibility:visible;opacity:1;isolation:auto;mix-blend-mode:normal;color-interpolation:sRGB;color-interpolation-filters:linearRGB;solid-color:#000000;solid-opacity:1;vector-effect:none;fill:#0c84c6;fill-opacity:1;fill-rule:nonzero;stroke:none;stroke-width:6;stroke-linecap:round;stroke-linejoin:round;stroke-miterlimit:4;stroke-dasharray:none;stroke-dashoffset:0;stroke-opacity:1;color-rendering:auto;image-rendering:auto;shape-rendering:auto;text-rendering:auto;enable-background:accumulate"
     d="m 10.058594,16.960938 a 3.0003,3.0003 0 0 0 -2.8652346,4.097656 c 0,0 2.0427287,5.322189 7.6093746,11.097656 5.653437,5.865511 12.003907,8.595703 12.003907,8.595703 a 3.0003,3.0003 0 1 0 2.386718,-5.503906 c 0,0 -5.322886,-2.330346 -10.070312,-7.255859 -4.834214,-5.015559 -6.316406,-9.050782 -6.316406,-9.050782 a 3.0003,3.0003 0 0 0 -2.748047,-1.980468 z"
     id="path4515"
     inkscape:connector-curvature="0" />
  <path
     sodipodi:nodetypes="ssscccszss"
     inkscape:connector-curvature="0"
     id="path4527"
     d="m 6.0220338,5 h 9.1120772 c 1.118978,0 1.879792,0.5281177 2.019815,1.1517238 l 1.738362,7.7419022 c 0.42641,1.065676 -0.550856,2.113854 -0.550856,2.113854 -2.740978,2.903244 -5.698922,5.812556 -8.50431,8.740673 -0.759313,0.792532 -1.5802743,-0.478705 -2.0198153,-1.151723 0,0 -2.3704052,-4.115214 -3.0915953,-8.99507 C 4.0045213,9.7215024 4.0022188,6.5392044 4.0022188,6.5392044 3.9477712,5.903313 4.9030563,5 6.0220338,5 Z"
     style="opacity:0.2;fill:#000000;fill-opacity:1;stroke:none;stroke-width:4.575634;stroke-linecap:round;stroke-linejoin:round;stroke-miterlimit:4;stroke-dasharray:none;stroke-dashoffset:0;stroke-opacity:1" />
  <path
     style="opacity:1;fill:#3eafe3;fill-opacity:1;stroke:none;stroke-width:4.575634;stroke-linecap:round;stroke-linejoin:round;stroke-miterlimit:4;stroke-dasharray:none;stroke-dashoffset:0;stroke-opacity:1"
     d="m 6.0220338,4 h 9.1120772 c 1.118978,0 1.879792,0.5281177 2.019815,1.1517238 l 1.738362,7.7419022 c 0.42641,1.065676 -0.550856,2.113854 -0.550856,2.113854 -2.740978,2.903244 -5.698922,5.812556 -8.50431,8.740673 -0.759313,0.792532 -1.5802743,-0.478705 -2.0198153,-1.151723 0,0 -2.3704052,-4.115214 -3.0915953,-8.99507 C 4.0045213,8.7215024 4.0022188,5.5392044 4.0022188,5.5392044 3.9477712,4.903313 4.9030563,4 6.0220338,4 Z"
     id="rect4508"
     inkscape:connector-curvature="0"
     sodipodi:nodetypes="ssscccszss" />
  <path
     style="opacity:0.2;fill:#000000;fill-opacity:1;stroke:none;stroke-width:4.575634;stroke-linecap:round;stroke-linejoin:round;stroke-miterlimit:4;stroke-dasharray:none;stroke-dashoffset:0;stroke-opacity:1"
     d="m 44,42.977966 v -9.112078 c 0,-1.118978 -0.528118,-1.879792 -1.151724,-2.019815 l -7.741902,-1.738362 c -1.065676,-0.42641 -2.113854,0.550856 -2.113854,0.550856 -2.903244,2.740978 -5.812556,5.698922 -8.740673,8.50431 -0.792532,0.759313 0.478705,1.580275 1.151723,2.019816 0,0 4.115214,2.370405 8.99507,3.091595 4.879857,0.72119 8.062155,0.723493 8.062155,0.723493 C 43.096687,45.052231 44,44.096943 44,42.977966 Z"
     id="path4529"
     inkscape:connector-curvature="0"
     sodipodi:nodetypes="ssscccszss" />
  <path
     sodipodi:nodetypes="ssscccszss"
     inkscape:connector-curvature="0"
     id="path4513"
     d="m 44,41.977966 v -9.112078 c 0,-1.118978 -0.528118,-1.879792 -1.151724,-2.019815 l -7.741902,-1.738362 c -1.065676,-0.42641 -2.113854,0.550856 -2.113854,0.550856 -2.903244,2.740978 -5.812556,5.698922 -8.740673,8.50431 -0.792532,0.759313 0.478705,1.580275 1.151723,2.019816 0,0 4.115214,2.370405 8.99507,3.091595 4.879857,0.72119 8.062155,0.723493 8.062155,0.723493 C 43.096687,44.052231 44,43.096943 44,41.977966 Z"
     style="opacity:1;fill:#3eafe3;fill-opacity:1;stroke:none;stroke-width:4.575634;stroke-linecap:round;stroke-linejoin:round;stroke-miterlimit:4;stroke-dasharray:none;stroke-dashoffset:0;stroke-opacity:1" />
  <path
     style="opacity:0.1;fill:#ffffff;fill-opacity:1;stroke:none;stroke-width:4.575634;stroke-linecap:round;stroke-linejoin:round;stroke-miterlimit:4;stroke-dasharray:none;stroke-dashoffset:0;stroke-opacity:1"
     d="M 6.0214844 4 C 4.9025069 4 3.9475055 4.9031711 4.0019531 5.5390625 C 4.0019531 5.5390625 4.0296936 6.1053403 4.0332031 6.2773438 C 4.2039797 5.6816186 5.0497606 5 6.0214844 5 L 15.134766 5 C 16.253744 5 17.014274 5.5287376 17.154297 6.1523438 L 18.892578 13.894531 C 18.905192 13.926056 18.905797 13.956814 18.916016 13.988281 C 19.01523 13.657285 19.04607 13.278134 18.892578 12.894531 L 17.154297 5.1523438 C 17.014274 4.5287376 16.253744 4 15.134766 4 L 6.0214844 4 z "
     id="path4517" />
  <path
     style="opacity:0.1;fill:#ffffff;fill-opacity:1;stroke:none;stroke-width:4.575634;stroke-linecap:round;stroke-linejoin:round;stroke-miterlimit:4;stroke-dasharray:none;stroke-dashoffset:0;stroke-opacity:1"
     d="M 34.708984 29.009766 C 33.794437 28.911159 32.992188 29.658203 32.992188 29.658203 C 30.088943 32.399181 27.18007 35.356721 24.251953 38.162109 C 23.886284 38.512451 23.967202 38.875914 24.21875 39.208984 C 24.233192 39.193484 24.235825 39.177562 24.251953 39.162109 C 27.18007 36.356721 30.088943 33.399181 32.992188 30.658203 C 32.992188 30.658203 34.039793 29.681012 35.105469 30.107422 L 42.847656 31.845703 C 43.471262 31.985726 44 32.746256 44 33.865234 L 44 32.865234 C 44 31.746256 43.471262 30.985726 42.847656 30.845703 L 35.105469 29.107422 C 34.972259 29.054121 34.839634 29.023852 34.708984 29.009766 z "
     id="path4519" />
</svg>
