<?xml version="1.0" encoding="UTF-8" standalone="no"?>
<svg
   xmlns:dc="http://purl.org/dc/elements/1.1/"
   xmlns:cc="http://creativecommons.org/ns#"
   xmlns:rdf="http://www.w3.org/1999/02/22-rdf-syntax-ns#"
   xmlns:svg="http://www.w3.org/2000/svg"
   xmlns="http://www.w3.org/2000/svg"
   xmlns:sodipodi="http://sodipodi.sourceforge.net/DTD/sodipodi-0.dtd"
   xmlns:inkscape="http://www.inkscape.org/namespaces/inkscape"
   width="48"
   height="48"
   version="1"
   id="svg2"
   inkscape:version="0.91 r13725"
   sodipodi:docname="sim.svg">
  <metadata
     id="metadata36">
    <rdf:RDF>
      <cc:Work
         rdf:about="">
        <dc:format>image/svg+xml</dc:format>
        <dc:type
           rdf:resource="http://purl.org/dc/dcmitype/StillImage" />
        <dc:title />
      </cc:Work>
    </rdf:RDF>
  </metadata>
  <defs
     id="defs34" />
  <sodipodi:namedview
     pagecolor="#ffffff"
     bordercolor="#666666"
     borderopacity="1"
     objecttolerance="10"
     gridtolerance="10"
     guidetolerance="10"
     inkscape:pageopacity="0"
     inkscape:pageshadow="2"
     inkscape:window-width="1920"
     inkscape:window-height="1018"
     id="namedview32"
     showgrid="false"
     inkscape:zoom="13.01"
     inkscape:cx="25.038346"
     inkscape:cy="24"
     inkscape:window-x="0"
     inkscape:window-y="32"
     inkscape:window-maximized="1"
     inkscape:current-layer="svg2" />
  <path
     style="opacity:0.2"
     d="m 34,5 6,6 0,32 c 0,1.108 -0.892,2 -2,2 L 10,45 C 8.892,45 8,44.108 8,43 L 8,7 C 8,5.892 8.892,5 10,5 Z"
     id="path4"
     inkscape:connector-curvature="0" />
  <path
     style="fill:#cccccc;fill-opacity:1"
     d="m 34,4 6,6 0,32 c 0,1.108 -0.892,2 -2,2 L 10,44 C 8.892,44 8,43.108 8,42 L 8,6 C 8,4.892 8.892,4 10,4 l 24,0 z"
     id="path6"
     inkscape:connector-curvature="0" />
  <path
     style="opacity:0.2;fill:#ffffff"
     d="m 34,4 6,6 0,1 L 34,5 10,5 C 8.892,5 8,5.892 8,7 L 8,6 C 8,4.892 8.892,4 10,4 l 24,0 z"
     id="path30"
     inkscape:connector-curvature="0" />
  <rect
     style="opacity:1;fill:#fca800;fill-opacity:1;stroke:none;stroke-width:1;stroke-linecap:round;stroke-linejoin:round;stroke-miterlimit:4;stroke-dasharray:none;stroke-opacity:1"
     id="rect4338"
     width="24"
     height="24"
     x="12"
     y="16"
     rx="2"
     ry="2" />
  <path
     style="color:#000000;font-style:normal;font-variant:normal;font-weight:normal;font-stretch:normal;font-size:medium;line-height:normal;font-family:sans-serif;text-indent:0;text-align:start;text-decoration:none;text-decoration-line:none;text-decoration-style:solid;text-decoration-color:#000000;letter-spacing:normal;word-spacing:normal;text-transform:none;direction:ltr;block-progression:tb;writing-mode:lr-tb;baseline-shift:baseline;text-anchor:start;white-space:normal;clip-rule:nonzero;display:inline;overflow:visible;visibility:visible;opacity:0.4;isolation:auto;mix-blend-mode:normal;color-interpolation:sRGB;color-interpolation-filters:linearRGB;solid-color:#000000;solid-opacity:1;fill:#000000;fill-opacity:1;fill-rule:evenodd;stroke:none;stroke-width:1px;stroke-linecap:butt;stroke-linejoin:miter;stroke-miterlimit:4;stroke-dasharray:none;stroke-dashoffset:0;stroke-opacity:1;color-rendering:auto;image-rendering:auto;shape-rendering:auto;text-rendering:auto;enable-background:accumulate"
     d="m 17,16 0,11 4,0 1,0 4,0 1,0 4,0 1,0 4,0 0,-1 -4,0 0,-10 -1,0 0,10 -4,0 0,-10 -1,0 0,10 -4,0 0,-10 -1,0 0,10 -3,0 0,-10 -1,0 z m -5,17 0,1 9,0 0,6 1,0 0,-6 4,0 0,6 1,0 0,-6 4,0 0,6 1,0 0,-6 4,0 0,-1 -4,0 -1,0 -4,0 -1,0 -4,0 -1,0 -9,0 z"
     id="path4340"
     inkscape:connector-curvature="0" />
</svg>
