<?xml version="1.0" encoding="UTF-8" standalone="no"?>
<svg
   xmlns:dc="http://purl.org/dc/elements/1.1/"
   xmlns:cc="http://creativecommons.org/ns#"
   xmlns:rdf="http://www.w3.org/1999/02/22-rdf-syntax-ns#"
   xmlns:svg="http://www.w3.org/2000/svg"
   xmlns="http://www.w3.org/2000/svg"
   xmlns:sodipodi="http://sodipodi.sourceforge.net/DTD/sodipodi-0.dtd"
   xmlns:inkscape="http://www.inkscape.org/namespaces/inkscape"
   height="48"
   width="48"
   version="1"
   id="svg2"
   inkscape:version="0.91 r13725"
   sodipodi:docname="sms.svg">
  <metadata
     id="metadata18">
    <rdf:RDF>
      <cc:Work
         rdf:about="">
        <dc:format>image/svg+xml</dc:format>
        <dc:type
           rdf:resource="http://purl.org/dc/dcmitype/StillImage" />
      </cc:Work>
    </rdf:RDF>
  </metadata>
  <defs
     id="defs16" />
  <sodipodi:namedview
     pagecolor="#ffffff"
     bordercolor="#666666"
     borderopacity="1"
     objecttolerance="10"
     gridtolerance="10"
     guidetolerance="10"
     inkscape:pageopacity="0"
     inkscape:pageshadow="2"
     inkscape:window-width="1920"
     inkscape:window-height="1018"
     id="namedview14"
     showgrid="false"
     inkscape:zoom="4.9166667"
     inkscape:cx="123.83148"
     inkscape:cy="24"
     inkscape:window-x="0"
     inkscape:window-y="32"
     inkscape:window-maximized="1"
     inkscape:current-layer="svg2" />
  <path
     inkscape:connector-curvature="0"
     d="M 6.2222,6 C 4.9911,6 4,7.2689 4,8.5 l 0,26 C 4,35.731 4.9911,37 6.2222,37 l 18.778,0 5,5 5,-5 6.7778,0 C 43.009,37 44,35.731 44,34.5 l 0,-26 C 44,7.2689 43.009,6 41.778,6 Z"
     id="path4"
     style="fill:#24986d;fill-opacity:1" />
  <path
     style="opacity:0.2"
     inkscape:connector-curvature="0"
     d="m 4,34.5 0,1 C 4,36.731 4.9915,38 6.2227,38 l 18.777,0 5,5 5,-5 6.777,0 c 1.231,0 2.223,-1.269 2.223,-2.5 l 0,-1 c 0,1.231 -0.992,2.5 -2.223,2.5 l -6.777,0 -5,5 -5,-5 -18.777,0 c -1.2315,0 -2.223,-1.269 -2.223,-2.5 z"
     id="path6" />
  <path
     style="opacity:0.1;fill:#ffffff"
     inkscape:connector-curvature="0"
     d="M 6.2227,6 C 4.9915,6 4,7.2689 4,8.5 l 0,1 C 4,8.2689 4.9915,7 6.2227,7 l 35.554,0 c 1.231,0 2.223,1.2689 2.223,2.5 l 0,-1 c 0,-1.2311 -0.992,-2.5 -2.223,-2.5 L 6.2227,6 Z"
     id="path8" />
  <path
     inkscape:connector-curvature="0"
     style="opacity:0.2;enable-background:new"
     d="m 15,29 0,-2 12,0 0,2 z m 0,-4 0,-2 18,0 0,2 z m 0,-4 0,-2 18,0 0,2 z m 0,-4 0,-2 18,0 0,2 z"
     id="path10" />
  <path
     inkscape:connector-curvature="0"
     style="fill:#ffffff;fill-opacity:1;enable-background:new"
     d="m 15,28 0,-2 12,0 0,2 z m 0,-4 0,-2 18,0 0,2 z m 0,-4 0,-2 18,0 0,2 z m 0,-4 0,-2 18,0 0,2 z"
     id="path12" />
</svg>
