<?xml version="1.0" encoding="UTF-8" standalone="no"?>
<svg
   xmlns:dc="http://purl.org/dc/elements/1.1/"
   xmlns:cc="http://creativecommons.org/ns#"
   xmlns:rdf="http://www.w3.org/1999/02/22-rdf-syntax-ns#"
   xmlns:svg="http://www.w3.org/2000/svg"
   xmlns="http://www.w3.org/2000/svg"
   xmlns:sodipodi="http://sodipodi.sourceforge.net/DTD/sodipodi-0.dtd"
   xmlns:inkscape="http://www.inkscape.org/namespaces/inkscape"
   height="48"
   width="48"
   version="1"
   id="svg2"
   inkscape:version="0.91 r13725"
   sodipodi:docname="timer.svg">
  <metadata
     id="metadata50">
    <rdf:RDF>
      <cc:Work
         rdf:about="">
        <dc:format>image/svg+xml</dc:format>
        <dc:type
           rdf:resource="http://purl.org/dc/dcmitype/StillImage" />
      </cc:Work>
    </rdf:RDF>
  </metadata>
  <defs
     id="defs48" />
  <sodipodi:namedview
     pagecolor="#ffffff"
     bordercolor="#666666"
     borderopacity="1"
     objecttolerance="10"
     gridtolerance="10"
     guidetolerance="10"
     inkscape:pageopacity="0"
     inkscape:pageshadow="2"
     inkscape:window-width="844"
     inkscape:window-height="480"
     id="namedview46"
     showgrid="false"
     inkscape:zoom="4.9166667"
     inkscape:cx="24"
     inkscape:cy="24"
     inkscape:window-x="0"
     inkscape:window-y="32"
     inkscape:window-maximized="0"
     inkscape:current-layer="svg2" />
  <rect
     opacity=".2"
     transform="rotate(-45)"
     rx="2"
     ry="2"
     height="12"
     width="12"
     y="11.18"
     x="-6.7"
     id="rect4" />
  <rect
     ry="2"
     rx="2"
     transform="rotate(-45)"
     height="12"
     width="12"
     y="10.48"
     x="-5.99"
     fill="#597123"
     id="rect6" />
  <path
     opacity=".1"
     d="m11.658 3.9824c-0.51124 0-1.0223 0.19615-1.4141 0.58789l-5.6561 5.6567c-0.52079 0.52079-0.6872 1.2516-0.51562 1.9141 0.086649-0.33366 0.25327-0.6517 0.51562-0.91406l5.6561-5.6567c0.78347-0.78347 2.0446-0.78347 2.8281 0l5.6582 5.6562c0.2624 0.2624 0.42899 0.58034 0.51562 0.91406 0.1715-0.66238 0.0051-1.3933-0.51562-1.9141l-5.658-5.6557c-0.391-0.3917-0.903-0.5879-1.414-0.5879z"
     fill="#fff"
     id="path8" />
  <rect
     opacity=".2"
     transform="matrix(0,-1,-1,0,0,0)"
     rx="20"
     ry="20"
     height="40"
     width="40"
     y="-44"
     x="-45"
     id="rect10" />
  <rect
     transform="matrix(0,-1,-1,0,0,0)"
     rx="20"
     ry="20"
     height="40"
     width="40"
     y="-44"
     x="-44"
     fill="#96ba42"
     id="rect12" />
  <path
     opacity=".2"
     d="m24 4c-11.08 0-20 8.92-20 20 0 0.168 0.0076 0.333 0.0117 0.5 0.2647-10.846 9.0763-19.5 19.988-19.5s19.724 8.654 19.988 19.5c0.004-0.167 0.012-0.332 0.012-0.5 0-11.08-8.92-20-20-20z"
     fill="#fff"
     id="path14" />
  <circle
     opacity=".2"
     cx="24"
     cy="25"
     r="15"
     id="circle16" />
  <circle
     cy="24"
     cx="24"
     r="15"
     fill="#ccc"
     id="circle18"
     style="fill:#ffffff;fill-opacity:1" />
  <rect
     ry="2"
     rx="2"
     transform="rotate(30)"
     height="14"
     width="4"
     y="-3.22"
     x="30.79"
     fill="#f45246"
     id="rect20" />
  <g
     opacity=".1"
     transform="translate(0,1)"
     id="g22">
    <circle
       opacity="1"
       cy="36"
       cx="24"
       r="2"
       id="circle24" />
    <circle
       opacity="1"
       cx="24"
       cy="12"
       r="2"
       id="circle26" />
    <circle
       opacity="1"
       cx="24"
       transform="rotate(90)"
       cy="-12"
       r="2"
       id="circle28" />
    <circle
       opacity="1"
       transform="rotate(90)"
       cy="-36"
       cx="24"
       r="2"
       id="circle30" />
  </g>
  <ellipse
     opacity=".1"
     rx="3.999"
     ry="4"
     cy="25"
     cx="24"
     id="ellipse32" />
  <ellipse
     rx="4"
     ry="4"
     cy="24"
     cx="24"
     fill="#4d4d4d"
     id="ellipse34" />
  <g
     fill="#4d4d4d"
     id="g36">
    <circle
       cx="24"
       cy="36"
       r="2"
       id="circle38" />
    <circle
       cy="12"
       cx="24"
       r="2"
       id="circle40" />
    <circle
       transform="rotate(90)"
       cy="-12"
       cx="24"
       r="2"
       id="circle42" />
    <circle
       cx="24"
       transform="rotate(90)"
       cy="-36"
       r="2"
       id="circle44" />
  </g>
</svg>
