<?xml version="1.0" encoding="UTF-8" standalone="no"?>
<svg
   xmlns:dc="http://purl.org/dc/elements/1.1/"
   xmlns:cc="http://creativecommons.org/ns#"
   xmlns:rdf="http://www.w3.org/1999/02/22-rdf-syntax-ns#"
   xmlns:svg="http://www.w3.org/2000/svg"
   xmlns="http://www.w3.org/2000/svg"
   xmlns:sodipodi="http://sodipodi.sourceforge.net/DTD/sodipodi-0.dtd"
   xmlns:inkscape="http://www.inkscape.org/namespaces/inkscape"
   width="48"
   version="1.1"
   height="48"
   viewBox="0 0 48 48"
   id="svg12"
   sodipodi:docname="voicedialer.svg"
   inkscape:version="0.91 r13725">
  <metadata
     id="metadata18">
    <rdf:RDF>
      <cc:Work
         rdf:about="">
        <dc:format>image/svg+xml</dc:format>
        <dc:type
           rdf:resource="http://purl.org/dc/dcmitype/StillImage" />
        <dc:title></dc:title>
      </cc:Work>
    </rdf:RDF>
  </metadata>
  <defs
     id="defs16" />
  <sodipodi:namedview
     pagecolor="#ffffff"
     bordercolor="#666666"
     borderopacity="1"
     objecttolerance="10"
     gridtolerance="10"
     guidetolerance="10"
     inkscape:pageopacity="0"
     inkscape:pageshadow="2"
     inkscape:window-width="1920"
     inkscape:window-height="1018"
     id="namedview14"
     showgrid="true"
     inkscape:zoom="10.66"
     inkscape:cx="24.056452"
     inkscape:cy="20.190432"
     inkscape:window-x="0"
     inkscape:window-y="32"
     inkscape:window-maximized="1"
     inkscape:current-layer="svg12"
     inkscape:object-nodes="true">
    <inkscape:grid
       type="xygrid"
       id="grid4140" />
  </sodipodi:namedview>
  <circle
     r="20"
     cy="25"
     cx="24"
     id="circle4157"
     style="opacity:0.2;fill:#000000;fill-opacity:1;fill-rule:evenodd;stroke:none;stroke-width:8;stroke-linecap:butt;stroke-linejoin:round;stroke-miterlimit:4;stroke-dasharray:none;stroke-opacity:1" />
  <circle
     style="opacity:1;fill:#e4e4e4;fill-opacity:1;fill-rule:evenodd;stroke:none;stroke-width:8;stroke-linecap:butt;stroke-linejoin:round;stroke-miterlimit:4;stroke-dasharray:none;stroke-opacity:1"
     id="path4146"
     cx="24"
     cy="24"
     r="20" />
  <path
     style="color:#000000;font-style:normal;font-variant:normal;font-weight:normal;font-stretch:normal;font-size:medium;line-height:normal;font-family:sans-serif;text-indent:0;text-align:start;text-decoration:none;text-decoration-line:none;text-decoration-style:solid;text-decoration-color:#000000;letter-spacing:normal;word-spacing:normal;text-transform:none;direction:ltr;block-progression:tb;writing-mode:lr-tb;baseline-shift:baseline;text-anchor:start;white-space:normal;clip-rule:nonzero;display:inline;overflow:visible;visibility:visible;opacity:0.1;isolation:auto;mix-blend-mode:normal;color-interpolation:sRGB;color-interpolation-filters:linearRGB;solid-color:#000000;solid-opacity:1;fill:#000000;fill-opacity:1;fill-rule:evenodd;stroke:none;stroke-width:8;stroke-linecap:butt;stroke-linejoin:round;stroke-miterlimit:4;stroke-dasharray:none;stroke-dashoffset:0;stroke-opacity:1;color-rendering:auto;image-rendering:auto;shape-rendering:auto;text-rendering:auto;enable-background:accumulate"
     d="m 24,12 0,2 a 12,12 0 0 1 12,12 l 2,0 A 14,14 0 0 0 24,12 Z m -6.722656,2 c -2.714,0 -4.947691,2.154098 -5.240235,4.921875 l -0.03711,0 c 5.24e-4,0.102648 0.01045,0.256391 0.01367,0.376953 -0.0033,0.07986 -0.01172,0.157583 -0.01172,0.238281 0,0.382313 0.03716,0.758637 0.107422,1.119141 0.293195,2.83242 1.414796,7.574952 5.537109,11.697266 4.122314,4.122313 8.866799,5.243913 11.699219,5.537109 0.360505,0.07026 0.734875,0.107422 1.117188,0.107422 0.0807,0 0.158423,-0.0085 0.238281,-0.01172 0.120562,0.0032 0.274305,0.01315 0.376953,0.01367 l 0,-0.03711 C 33.845902,37.670347 36,35.436656 36,32.722656 c 0,-2.912858 -2.478607,-3.955078 -5.537109,-3.955078 -2.664381,0 -4.888803,0.792256 -5.417969,2.921875 -1.27919,-0.626504 -2.626484,-1.524921 -3.917969,-2.816406 -1.291485,-1.291485 -2.189902,-2.638779 -2.816406,-3.917969 2.129619,-0.529166 2.921875,-2.753588 2.921875,-5.417969 C 21.232422,16.478607 20.190202,14 17.277344,14 Z M 24,16 l 0,2 a 8,8 0 0 1 8,8 l 2,0 A 10,10 0 0 0 24,16 Z m 0,4 0,2 a 4,4 0 0 1 4,4 l 2,0 a 6,6 0 0 0 -6,-6 z"
     id="path4225"
     inkscape:connector-curvature="0" />
  <path
     inkscape:connector-curvature="0"
     style="color:#000000;font-style:normal;font-variant:normal;font-weight:normal;font-stretch:normal;font-size:medium;line-height:normal;font-family:sans-serif;text-indent:0;text-align:start;text-decoration:none;text-decoration-line:none;text-decoration-style:solid;text-decoration-color:#000000;letter-spacing:normal;word-spacing:normal;text-transform:none;direction:ltr;block-progression:tb;writing-mode:lr-tb;baseline-shift:baseline;text-anchor:start;white-space:normal;clip-rule:nonzero;display:inline;overflow:visible;visibility:visible;opacity:1;isolation:auto;mix-blend-mode:normal;color-interpolation:sRGB;color-interpolation-filters:linearRGB;solid-color:#000000;solid-opacity:1;fill:#3f3f3f;fill-opacity:1;fill-rule:evenodd;stroke:none;stroke-width:8;stroke-linecap:butt;stroke-linejoin:round;stroke-miterlimit:4;stroke-dasharray:none;stroke-dashoffset:0;stroke-opacity:1;color-rendering:auto;image-rendering:auto;shape-rendering:auto;text-rendering:auto;enable-background:accumulate"
     d="m 12,17.922584 c 0.01093,2.140144 0.509406,8.294684 5.646069,13.431347 C 22.782732,36.490594 28.937272,36.989066 31.077416,37 l 0,-4.900952 c -1.305919,0.02829 -5.905295,-0.179906 -9.950926,-4.225538 -4.045632,-4.045631 -4.253831,-8.645007 -4.225538,-9.950926 l -4.900952,0 z"
     id="path4147" />
  <path
     style="opacity:1;fill:#3f3f3f;fill-opacity:1;fill-rule:evenodd;stroke:none;stroke-width:2;stroke-linecap:round;stroke-linejoin:round;stroke-miterlimit:4;stroke-dasharray:none;stroke-opacity:1"
     d="m 21.232248,18.537907 c 0,3.058502 -1.042789,5.537907 -3.955647,5.537907 -2.912859,0 -5.274198,-2.479405 -5.274198,-5.537907 0,-3.058502 2.361339,-5.537907 5.274198,-5.537907 2.912858,0 3.955647,2.479405 3.955647,5.537907 z"
     id="path4142"
     inkscape:connector-curvature="0"
     sodipodi:nodetypes="sssss" />
  <path
     sodipodi:nodetypes="sssss"
     inkscape:connector-curvature="0"
     id="path4143"
     d="m 30.462093,27.767752 c 3.058502,0 5.537907,1.042789 5.537907,3.955647 0,2.912859 -2.479405,5.274198 -5.537907,5.274198 -3.058502,0 -5.537907,-2.361339 -5.537907,-5.274198 0,-2.912858 2.479405,-3.955647 5.537907,-3.955647 z"
     style="opacity:1;fill:#3f3f3f;fill-opacity:1;fill-rule:evenodd;stroke:none;stroke-width:2;stroke-linecap:round;stroke-linejoin:round;stroke-miterlimit:4;stroke-dasharray:none;stroke-opacity:1" />
  <path
     style="opacity:0.2;fill:#ffffff;fill-opacity:1;fill-rule:evenodd;stroke:none;stroke-width:8;stroke-linecap:butt;stroke-linejoin:round;stroke-miterlimit:4;stroke-dasharray:none;stroke-opacity:1"
     d="M 24 4 A 20 20 0 0 0 4 24 A 20 20 0 0 0 4.0214844 24.582031 A 20 20 0 0 1 24 5 A 20 20 0 0 1 43.978516 24.417969 A 20 20 0 0 0 44 24 A 20 20 0 0 0 24 4 z "
     id="circle4159" />
  <path
     style="opacity:1;fill:#3f3f3f;fill-opacity:1;fill-rule:evenodd;stroke:none;stroke-width:2;stroke-linecap:butt;stroke-linejoin:round;stroke-miterlimit:4;stroke-dasharray:none;stroke-opacity:1"
     d="m 24,11 0,2 a 12,12 0 0 1 12,12 l 2,0 A 14,14 0 0 0 24,11 Z m 0,4 0,2 a 8,8 0 0 1 8,8 l 2,0 A 10,10 0 0 0 24,15 Z m 0,4 0,2 a 4,4 0 0 1 4,4 l 2,0 a 6,6 0 0 0 -6,-6 z"
     id="path4202"
     inkscape:connector-curvature="0" />
</svg>
