<?xml version="1.0" encoding="UTF-8" standalone="no"?>
<svg
   xmlns:dc="http://purl.org/dc/elements/1.1/"
   xmlns:cc="http://creativecommons.org/ns#"
   xmlns:rdf="http://www.w3.org/1999/02/22-rdf-syntax-ns#"
   xmlns:svg="http://www.w3.org/2000/svg"
   xmlns="http://www.w3.org/2000/svg"
   xmlns:sodipodi="http://sodipodi.sourceforge.net/DTD/sodipodi-0.dtd"
   xmlns:inkscape="http://www.inkscape.org/namespaces/inkscape"
   width="48"
   version="1.1"
   height="48"
   viewBox="0 0 48 48"
   id="svg12"
   sodipodi:docname="voicedialer.svg"
   inkscape:version="0.91 r13725">
  <metadata
     id="metadata18">
    <rdf:RDF>
      <cc:Work
         rdf:about="">
        <dc:format>image/svg+xml</dc:format>
        <dc:type
           rdf:resource="http://purl.org/dc/dcmitype/StillImage" />
        <dc:title />
      </cc:Work>
    </rdf:RDF>
  </metadata>
  <defs
     id="defs16" />
  <sodipodi:namedview
     pagecolor="#ffffff"
     bordercolor="#666666"
     borderopacity="1"
     objecttolerance="10"
     gridtolerance="10"
     guidetolerance="10"
     inkscape:pageopacity="0"
     inkscape:pageshadow="2"
     inkscape:window-width="1920"
     inkscape:window-height="1018"
     id="namedview14"
     showgrid="true"
     inkscape:zoom="10.66"
     inkscape:cx="4.4035439"
     inkscape:cy="20.190432"
     inkscape:window-x="0"
     inkscape:window-y="32"
     inkscape:window-maximized="1"
     inkscape:current-layer="svg12"
     inkscape:object-nodes="true">
    <inkscape:grid
       type="xygrid"
       id="grid4140" />
  </sodipodi:namedview>
  <circle
     r="20"
     cy="25"
     cx="24"
     id="circle4157"
     style="opacity:0.2;fill:#000000;fill-opacity:1;fill-rule:evenodd;stroke:none;stroke-width:8;stroke-linecap:butt;stroke-linejoin:round;stroke-miterlimit:4;stroke-dasharray:none;stroke-opacity:1" />
  <circle
     style="opacity:1;fill:#e4e4e4;fill-opacity:1;fill-rule:evenodd;stroke:none;stroke-width:8;stroke-linecap:butt;stroke-linejoin:round;stroke-miterlimit:4;stroke-dasharray:none;stroke-opacity:1"
     id="path4146"
     cx="24"
     cy="24"
     r="20" />
  <path
     style="color:#000000;font-style:normal;font-variant:normal;font-weight:normal;font-stretch:normal;font-size:medium;line-height:normal;font-family:sans-serif;text-indent:0;text-align:start;text-decoration:none;text-decoration-line:none;text-decoration-style:solid;text-decoration-color:#000000;letter-spacing:normal;word-spacing:normal;text-transform:none;direction:ltr;block-progression:tb;writing-mode:lr-tb;baseline-shift:baseline;text-anchor:start;white-space:normal;clip-rule:nonzero;display:inline;overflow:visible;visibility:visible;opacity:0.1;isolation:auto;mix-blend-mode:normal;color-interpolation:sRGB;color-interpolation-filters:linearRGB;solid-color:#000000;solid-opacity:1;fill:#000000;fill-opacity:1;fill-rule:evenodd;stroke:none;stroke-width:8;stroke-linecap:butt;stroke-linejoin:round;stroke-miterlimit:4;stroke-dasharray:none;stroke-dashoffset:0;stroke-opacity:1;color-rendering:auto;image-rendering:auto;shape-rendering:auto;text-rendering:auto;enable-background:accumulate"
     d="m 24,12 0,2 a 12,12 0 0 1 12,12 l 2,0 A 14,14 0 0 0 24,12 Z m -6.857422,2 c -2.65774,0 -4.843109,2.156056 -5.113281,4.921875 l -0.0293,0 c 4.62e-4,0.09041 0.0092,0.22767 0.01172,0.332031 C 12.008312,19.336062 12,19.416946 12,19.5 c 0,0.383858 0.03549,0.759414 0.105469,1.121094 0.287325,2.827829 1.401276,7.592682 5.541015,11.732422 4.13974,4.139739 8.904593,5.253689 11.732422,5.541015 C 29.740586,37.96451 30.116142,38 30.5,38 c 0.08305,0 0.163938,-0.0083 0.246094,-0.01172 0.104361,0.0025 0.241619,0.01126 0.332031,0.01172 l 0,-0.0293 C 33.843944,37.700531 36,35.515162 36,32.857422 36,30.017101 33.537567,29 30.5,29 27.90193,29 25.72997,29.747754 25.154297,31.740234 23.842443,31.111819 22.455636,30.20173 21.126953,28.873047 19.79827,27.544364 18.888181,26.157557 18.259766,24.845703 20.252246,24.27003 21,22.09807 21,19.5 21,16.462433 19.982899,14 17.142578,14 Z M 24,16 l 0,2 a 8,8 0 0 1 8,8 l 2,0 A 10,10 0 0 0 24,16 Z m 0,4 0,2 a 4,4 0 0 1 4,4 l 2,0 a 6,6 0 0 0 -6,-6 z"
     id="path4141"
     inkscape:connector-curvature="0" />
  <path
     inkscape:connector-curvature="0"
     style="color:#000000;font-style:normal;font-variant:normal;font-weight:normal;font-stretch:normal;font-size:medium;line-height:normal;font-family:sans-serif;text-indent:0;text-align:start;text-decoration:none;text-decoration-line:none;text-decoration-style:solid;text-decoration-color:#000000;letter-spacing:normal;word-spacing:normal;text-transform:none;direction:ltr;block-progression:tb;writing-mode:lr-tb;baseline-shift:baseline;text-anchor:start;white-space:normal;clip-rule:nonzero;display:inline;overflow:visible;visibility:visible;opacity:1;isolation:auto;mix-blend-mode:normal;color-interpolation:sRGB;color-interpolation-filters:linearRGB;solid-color:#000000;solid-opacity:1;fill:#3f3f3f;fill-opacity:1;fill-rule:evenodd;stroke:none;stroke-width:8;stroke-linecap:butt;stroke-linejoin:round;stroke-miterlimit:4;stroke-dasharray:none;stroke-dashoffset:0;stroke-opacity:1;color-rendering:auto;image-rendering:auto;shape-rendering:auto;text-rendering:auto;enable-background:accumulate"
     d="m 12,17.922584 c 0.01093,2.140144 0.509406,8.294684 5.646069,13.431347 C 22.782732,36.490594 28.937272,36.989066 31.077416,37 l 0,-4.900952 c -1.305919,0.02829 -5.905295,-0.179906 -9.950926,-4.225538 -4.045632,-4.045631 -4.253831,-8.645007 -4.225538,-9.950926 l -4.900952,0 z"
     id="path4147" />
  <path
     style="opacity:1;fill:#3f3f3f;fill-opacity:1;fill-rule:evenodd;stroke:none;stroke-width:2;stroke-linecap:round;stroke-linejoin:round;stroke-miterlimit:4;stroke-dasharray:none;stroke-opacity:1"
     d="M 21,18.5 C 21,21.537567 19.983179,24 17.142858,24 14.302536,24 12,21.537567 12,18.5 12,15.462433 14.302536,13 17.142858,13 19.983179,13 21,15.462433 21,18.5 Z"
     id="path4142"
     inkscape:connector-curvature="0"
     sodipodi:nodetypes="sssss" />
  <path
     sodipodi:nodetypes="sssss"
     inkscape:connector-curvature="0"
     id="path4143"
     d="M 30.5,28 C 33.537567,28 36,29.016821 36,31.857142 36,34.697464 33.537567,37 30.5,37 27.462433,37 25,34.697464 25,31.857142 25,29.016821 27.462433,28 30.5,28 Z"
     style="opacity:1;fill:#3f3f3f;fill-opacity:1;fill-rule:evenodd;stroke:none;stroke-width:2;stroke-linecap:round;stroke-linejoin:round;stroke-miterlimit:4;stroke-dasharray:none;stroke-opacity:1" />
  <path
     style="opacity:0.2;fill:#ffffff;fill-opacity:1;fill-rule:evenodd;stroke:none;stroke-width:8;stroke-linecap:butt;stroke-linejoin:round;stroke-miterlimit:4;stroke-dasharray:none;stroke-opacity:1"
     d="M 24 4 A 20 20 0 0 0 4 24 A 20 20 0 0 0 4.0214844 24.582031 A 20 20 0 0 1 24 5 A 20 20 0 0 1 43.978516 24.417969 A 20 20 0 0 0 44 24 A 20 20 0 0 0 24 4 z "
     id="circle4159" />
  <path
     style="opacity:1;fill:#3f3f3f;fill-opacity:1;fill-rule:evenodd;stroke:none;stroke-width:2;stroke-linecap:butt;stroke-linejoin:round;stroke-miterlimit:4;stroke-dasharray:none;stroke-opacity:1"
     d="m 24,11 0,2 a 12,12 0 0 1 12,12 l 2,0 A 14,14 0 0 0 24,11 Z m 0,4 0,2 a 8,8 0 0 1 8,8 l 2,0 A 10,10 0 0 0 24,15 Z m 0,4 0,2 a 4,4 0 0 1 4,4 l 2,0 a 6,6 0 0 0 -6,-6 z"
     id="path4202"
     inkscape:connector-curvature="0" />
</svg>
