<svg xmlns="http://www.w3.org/2000/svg" width="16" height="16" version="1.1" viewBox="0 0 16 16">
 <defs>
  <style id="current-color-scheme" type="text/css">
   .ColorScheme-Text { color:#5c616c; } .ColorScheme-Highlight { color:#00bcd4; }
  </style>
 </defs>
 <path style="fill:currentColor" class="ColorScheme-Text" d="m 6.4870686,0.99493261 c -3.0288996,0 -5.49999963,2.47459999 -5.49999963,5.50000029 0,3.0254 2.47110003,5.5000001 5.49999963,5.5000001 1.152,0 2.23771,-0.35784 3.125,-0.96875 l 3.6875004,3.6875 a 1.0055,1.0055 0 1 0 1.40625,-1.4375 l -3.6875,-3.6875001 c 0.61079,-0.886 1,-1.94385 1,-3.09375 0,-3.0254003 -2.5024504,-5.50000029 -5.5312504,-5.50000029 z m 0,2.00000009 c 1.9474,0 3.5,1.5548 3.5,3.5000002 0,1.9451 -1.5526,3.5 -3.5,3.5 -1.9473996,0 -3.4999996,-1.5549 -3.4999996,-3.5 0,-1.9452002 1.5526,-3.5000002 3.4999996,-3.5000002 z"/>
</svg>
