<svg xmlns="http://www.w3.org/2000/svg" width="16" height="16" version="1.1" viewBox="0 0 16 16">
 <defs>
  <style id="current-color-scheme" type="text/css">
   .ColorScheme-Text { color:#d3dae3; } .ColorScheme-Highlight { color:#00bcd4; }
  </style>
 </defs>
 <path style="fill:currentColor" class="ColorScheme-Text" d="m 5.21875,1 -0.3125,0.28125 -3.625,3.625 -0.28125005,0.3125 0,5.5625 0.28125005,0.3125 3.625,3.625 0.3125,0.28125 5.5625,0 0.3125,-0.28125 3.625,-3.625 L 15,10.78125 15,5.21875 14.71875,4.90625 11.09375,1.28125 10.78125,1 5.21875,1 Z M 6,3 l 4,0 3,3 0,4 -3,3 -4.0000001,0 -3,-3 0,-4 3,-3 z M 6.4375001,4 4,6.4375 4,9.5625 6.4375001,12 l 3.125,0 L 12,9.5625 12,6.4375 9.5625001,4 l -3.125,0 z"/>
</svg>
