<svg xmlns="http://www.w3.org/2000/svg" width="16" height="16" version="1.1" viewBox="0 0 16 16">
 <defs>
  <style id="current-color-scheme" type="text/css">
   .ColorScheme-Text { color:#d3dae3; } .ColorScheme-Highlight { color:#00bcd4; }
  </style>
 </defs>
 <path style="fill:currentColor" class="ColorScheme-Text" d="m 8,1.0000001 c -3.866,0 -7,3.1341001 -7,6.9999998 C 1,11.866 4.134,15 8,15 11.866,15 15,11.866 15,7.9999999 15,4.1341002 11.866,1.0000001 8,1.0000001 Z m 0,2.75 c 0.69036,0 1.25,0.5596401 1.25,1.25 0,0.69036 -0.55964,1.2499998 -1.25,1.2499998 -0.69036,0 -1.25,-0.5596398 -1.25,-1.2499998 0,-0.6903599 0.55964,-1.25 1.25,-1.25 z m -1,3.2499998 2,0 L 9,12 7,12 7,6.9999999 Z"/>
</svg>
