<?xml version="1.0" encoding="UTF-8" standalone="no"?>
<svg
   xmlns:dc="http://purl.org/dc/elements/1.1/"
   xmlns:cc="http://creativecommons.org/ns#"
   xmlns:rdf="http://www.w3.org/1999/02/22-rdf-syntax-ns#"
   xmlns:svg="http://www.w3.org/2000/svg"
   xmlns="http://www.w3.org/2000/svg"
   xmlns:sodipodi="http://sodipodi.sourceforge.net/DTD/sodipodi-0.dtd"
   xmlns:inkscape="http://www.inkscape.org/namespaces/inkscape"
   height="48"
   width="48"
   version="1"
   id="svg20"
   sodipodi:docname="4g-browser.svg"
   inkscape:version="0.92.1 r15371">
  <metadata
     id="metadata26">
    <rdf:RDF>
      <cc:Work
         rdf:about="">
        <dc:format>image/svg+xml</dc:format>
        <dc:type
           rdf:resource="http://purl.org/dc/dcmitype/StillImage" />
        <dc:title></dc:title>
      </cc:Work>
    </rdf:RDF>
  </metadata>
  <defs
     id="defs24" />
  <sodipodi:namedview
     pagecolor="#ffffff"
     bordercolor="#666666"
     borderopacity="1"
     objecttolerance="10"
     gridtolerance="10"
     guidetolerance="10"
     inkscape:pageopacity="0"
     inkscape:pageshadow="2"
     inkscape:window-width="1600"
     inkscape:window-height="822"
     id="namedview22"
     showgrid="false"
     inkscape:zoom="8.08"
     inkscape:cx="22.749741"
     inkscape:cy="24"
     inkscape:window-x="0"
     inkscape:window-y="0"
     inkscape:window-maximized="1"
     inkscape:current-layer="svg20">
    <inkscape:grid
       type="xygrid"
       id="grid4487" />
  </sodipodi:namedview>
  <g
     id="g4534">
    <path
       inkscape:connector-curvature="0"
       id="path4489"
       d="m 33,4.999671 c -3.914567,0 -7.616466,2.3457604 -9.789062,5.90625 C 21.038341,14.466411 20,19.153326 20,24.999671 c 0,5.414133 -0.218532,9.657874 1.486328,13.628906 0.85243,1.985517 2.437859,3.863619 4.50586,4.939453 2.068,1.075835 4.393595,1.431641 7.007812,1.431641 4.666667,0 7.26609,-1.660389 8.789062,-2.421875 A 4.0004,4.0004 0 0 0 44,38.999671 v -10 a 4.0004,4.0004 0 0 0 -4,-4 h -4 a 4.0004,4.0004 0 1 0 0,8 v 3.634766 c -0.589012,0.257885 -1.279113,0.365234 -3,0.365234 -1.835709,0 -2.860592,-0.293185 -3.314453,-0.529297 C 29.231686,36.234262 29.122979,36.136368 28.837891,35.472327 28.267713,34.144246 28,30.389084 28,24.999671 28,20.150642 28.961659,16.837604 30.039062,15.071937 31.116466,13.30627 31.914567,12.999671 33,12.999671 c 2.111111,0 2.628982,0.535232 2.921875,0.828125 0.292893,0.292893 0.197266,0.142578 0.197266,0.142578 a 4.0004163,4.0004163 0 1 0 7.761718,-1.941406 c 0,0 -0.595627,-2.1503152 -2.302734,-3.857422 C 39.871018,6.4644392 36.888889,4.999671 33,4.999671 Z"
       style="color:#000000;font-style:normal;font-variant:normal;font-weight:normal;font-stretch:normal;font-size:medium;line-height:normal;font-family:sans-serif;font-variant-ligatures:normal;font-variant-position:normal;font-variant-caps:normal;font-variant-numeric:normal;font-variant-alternates:normal;font-feature-settings:normal;text-indent:0;text-align:start;text-decoration:none;text-decoration-line:none;text-decoration-style:solid;text-decoration-color:#000000;letter-spacing:normal;word-spacing:normal;text-transform:none;writing-mode:lr-tb;direction:ltr;text-orientation:mixed;dominant-baseline:auto;baseline-shift:baseline;text-anchor:start;white-space:normal;shape-padding:0;clip-rule:nonzero;display:inline;overflow:visible;visibility:visible;opacity:0.2;isolation:auto;mix-blend-mode:normal;color-interpolation:sRGB;color-interpolation-filters:linearRGB;solid-color:#000000;solid-opacity:1;vector-effect:none;fill:#000000;fill-opacity:1;fill-rule:nonzero;stroke:none;stroke-width:8;stroke-linecap:round;stroke-linejoin:round;stroke-miterlimit:4;stroke-dasharray:none;stroke-dashoffset:0;stroke-opacity:1;color-rendering:auto;image-rendering:auto;shape-rendering:auto;text-rendering:auto;enable-background:accumulate" />
    <path
       style="fill:none;stroke:#5d5d5d;stroke-width:8;stroke-linecap:round;stroke-linejoin:round;stroke-miterlimit:4;stroke-dasharray:none;stroke-opacity:1"
       d="m 40,12 c 0,0 -1,-4 -7,-4 -5,0 -9,5.304626 -9,16 0,10.803546 0.100149,16 9,16 4,0 5,-1 7,-2 V 28 h -4"
       id="path4485"
       inkscape:connector-curvature="0"
       sodipodi:nodetypes="cccsccc" />
    <path
       id="path4497"
       d="M 33 4 C 29.085433 4 25.383533 6.3457604 23.210938 9.90625 C 21.038341 13.46674 20 18.153655 20 24 C 20 25.394909 19.986521 26.709963 19.994141 27.964844 C 19.995075 27.004117 20 26.040863 20 25 C 20 19.153655 21.038341 14.46674 23.210938 10.90625 C 25.383534 7.3457604 29.085433 5 33 5 C 36.888889 5 39.871018 6.4647682 41.578125 8.171875 C 43.285232 9.8789818 43.880859 12.029297 43.880859 12.029297 A 4.0004163 4.0004163 0 0 1 43.964844 12.5 A 4.0004163 4.0004163 0 0 0 43.880859 11.029297 C 43.880859 11.029297 43.285232 8.8789818 41.578125 7.171875 C 39.871018 5.4647682 36.888889 4 33 4 z M 36 24 A 4.0004 4.0004 0 0 0 31.978516 28.511719 A 4.0004 4.0004 0 0 1 36 25 L 40 25 A 4.0004 4.0004 0 0 1 44 29 L 44 28 A 4.0004 4.0004 0 0 0 40 24 L 36 24 z M 28.007812 24.642578 C 28.006568 24.764632 28 24.875935 28 25 C 28 30.389413 28.267713 34.144575 28.837891 35.472656 C 29.122979 36.136697 29.231686 36.234591 29.685547 36.470703 C 30.139408 36.706815 31.164291 37 33 37 C 34.720887 37 35.410988 36.892651 36 36.634766 L 36 35.634766 C 35.410988 35.892651 34.720887 36 33 36 C 31.164291 36 30.139408 35.706815 29.685547 35.470703 C 29.231686 35.234591 29.122979 35.136697 28.837891 34.472656 C 28.292317 33.201885 28.029982 29.663056 28.007812 24.642578 z "
       style="color:#000000;font-style:normal;font-variant:normal;font-weight:normal;font-stretch:normal;font-size:medium;line-height:normal;font-family:sans-serif;font-variant-ligatures:normal;font-variant-position:normal;font-variant-caps:normal;font-variant-numeric:normal;font-variant-alternates:normal;font-feature-settings:normal;text-indent:0;text-align:start;text-decoration:none;text-decoration-line:none;text-decoration-style:solid;text-decoration-color:#000000;letter-spacing:normal;word-spacing:normal;text-transform:none;writing-mode:lr-tb;direction:ltr;text-orientation:mixed;dominant-baseline:auto;baseline-shift:baseline;text-anchor:start;white-space:normal;shape-padding:0;clip-rule:nonzero;display:inline;overflow:visible;visibility:visible;opacity:0.1;isolation:auto;mix-blend-mode:normal;color-interpolation:sRGB;color-interpolation-filters:linearRGB;solid-color:#000000;solid-opacity:1;vector-effect:none;fill:#ffffff;fill-opacity:1;fill-rule:nonzero;stroke:none;stroke-width:8;stroke-linecap:round;stroke-linejoin:round;stroke-miterlimit:4;stroke-dasharray:none;stroke-dashoffset:0;stroke-opacity:1;color-rendering:auto;image-rendering:auto;shape-rendering:auto;text-rendering:auto;enable-background:accumulate" />
  </g>
  <g
     id="g4529">
    <path
       inkscape:connector-curvature="0"
       id="path4491"
       d="m 23.927734,4.9274054 -8,0.1445312 A 4.0004,4.0004 0 0 0 12.287109,7.5817022 L 4.2871094,27.509437 A 4.0004,4.0004 0 0 0 8,32.999671 h 12 v 7.943359 a 4.0004,4.0004 0 1 0 8,0 v -7.943359 h 0.0039 a 4.0004,4.0004 0 1 0 0,-8 H 28 V 8.9274054 a 4.0004,4.0004 0 0 0 -4.072266,-4 z M 20,12.999671 v 12 h -6.083984 l 4.808593,-11.976562 z"
       style="color:#000000;font-style:normal;font-variant:normal;font-weight:normal;font-stretch:normal;font-size:medium;line-height:normal;font-family:sans-serif;font-variant-ligatures:normal;font-variant-position:normal;font-variant-caps:normal;font-variant-numeric:normal;font-variant-alternates:normal;font-feature-settings:normal;text-indent:0;text-align:start;text-decoration:none;text-decoration-line:none;text-decoration-style:solid;text-decoration-color:#000000;letter-spacing:normal;word-spacing:normal;text-transform:none;writing-mode:lr-tb;direction:ltr;text-orientation:mixed;dominant-baseline:auto;baseline-shift:baseline;text-anchor:start;white-space:normal;shape-padding:0;clip-rule:nonzero;display:inline;overflow:visible;visibility:visible;opacity:0.2;isolation:auto;mix-blend-mode:normal;color-interpolation:sRGB;color-interpolation-filters:linearRGB;solid-color:#000000;solid-opacity:1;vector-effect:none;fill:#000000;fill-opacity:1;fill-rule:nonzero;stroke:none;stroke-width:8;stroke-linecap:round;stroke-linejoin:round;stroke-miterlimit:4;stroke-dasharray:none;stroke-dashoffset:0;stroke-opacity:1;color-rendering:auto;image-rendering:auto;shape-rendering:auto;text-rendering:auto;enable-background:accumulate" />
    <path
       sodipodi:nodetypes="ccccc"
       inkscape:connector-curvature="0"
       id="path4514"
       d="M 24,39.94303 V 7.92785 L 16,8.07215 8,28 h 20.002933"
       style="fill:none;stroke:#4fa6ff;stroke-width:8;stroke-linecap:round;stroke-linejoin:round;stroke-miterlimit:4;stroke-dasharray:none;stroke-opacity:1" />
    <path
       id="path4499"
       d="M 23.927734 3.9277344 L 15.927734 4.0722656 A 4.0004 4.0004 0 0 0 12.287109 6.5820312 L 4.2871094 26.509766 A 4.0004 4.0004 0 0 0 4.0332031 28.509766 A 4.0004 4.0004 0 0 1 4.2871094 27.509766 L 12.287109 7.5820312 A 4.0004 4.0004 0 0 1 15.927734 5.0722656 L 23.927734 4.9277344 A 4.0004 4.0004 0 0 1 28 8.9277344 L 28 7.9277344 A 4.0004 4.0004 0 0 0 23.927734 3.9277344 z M 14.318359 24 L 13.916016 25 L 20 25 L 20 24 L 14.318359 24 z M 28 24 L 28 25 L 28.003906 25 A 4.0004 4.0004 0 0 1 32.025391 28.488281 A 4.0004 4.0004 0 0 0 28.003906 24 L 28 24 z "
       style="color:#000000;font-style:normal;font-variant:normal;font-weight:normal;font-stretch:normal;font-size:medium;line-height:normal;font-family:sans-serif;font-variant-ligatures:normal;font-variant-position:normal;font-variant-caps:normal;font-variant-numeric:normal;font-variant-alternates:normal;font-feature-settings:normal;text-indent:0;text-align:start;text-decoration:none;text-decoration-line:none;text-decoration-style:solid;text-decoration-color:#000000;letter-spacing:normal;word-spacing:normal;text-transform:none;writing-mode:lr-tb;direction:ltr;text-orientation:mixed;dominant-baseline:auto;baseline-shift:baseline;text-anchor:start;white-space:normal;shape-padding:0;clip-rule:nonzero;display:inline;overflow:visible;visibility:visible;opacity:0.2;isolation:auto;mix-blend-mode:normal;color-interpolation:sRGB;color-interpolation-filters:linearRGB;solid-color:#000000;solid-opacity:1;vector-effect:none;fill:#ffffff;fill-opacity:1;fill-rule:nonzero;stroke:none;stroke-width:8;stroke-linecap:round;stroke-linejoin:round;stroke-miterlimit:4;stroke-dasharray:none;stroke-dashoffset:0;stroke-opacity:1;color-rendering:auto;image-rendering:auto;shape-rendering:auto;text-rendering:auto;enable-background:accumulate" />
  </g>
</svg>
