<?xml version="1.0" encoding="UTF-8" standalone="no"?>
<svg
   xmlns:dc="http://purl.org/dc/elements/1.1/"
   xmlns:cc="http://creativecommons.org/ns#"
   xmlns:rdf="http://www.w3.org/1999/02/22-rdf-syntax-ns#"
   xmlns:svg="http://www.w3.org/2000/svg"
   xmlns="http://www.w3.org/2000/svg"
   xmlns:sodipodi="http://sodipodi.sourceforge.net/DTD/sodipodi-0.dtd"
   xmlns:inkscape="http://www.inkscape.org/namespaces/inkscape"
   height="48"
   width="48"
   version="1"
   id="svg20"
   sodipodi:docname="4g-lte-browser.svg"
   inkscape:version="0.92.1 r15371">
  <metadata
     id="metadata26">
    <rdf:RDF>
      <cc:Work
         rdf:about="">
        <dc:format>image/svg+xml</dc:format>
        <dc:type
           rdf:resource="http://purl.org/dc/dcmitype/StillImage" />
        <dc:title></dc:title>
      </cc:Work>
    </rdf:RDF>
  </metadata>
  <defs
     id="defs24" />
  <sodipodi:namedview
     pagecolor="#ffffff"
     bordercolor="#666666"
     borderopacity="1"
     objecttolerance="10"
     gridtolerance="10"
     guidetolerance="10"
     inkscape:pageopacity="0"
     inkscape:pageshadow="2"
     inkscape:window-width="1600"
     inkscape:window-height="822"
     id="namedview22"
     showgrid="false"
     inkscape:zoom="11.42"
     inkscape:cx="17.97355"
     inkscape:cy="25.179195"
     inkscape:window-x="0"
     inkscape:window-y="0"
     inkscape:window-maximized="1"
     inkscape:current-layer="svg20">
    <inkscape:grid
       type="xygrid"
       id="grid4487" />
  </sodipodi:namedview>
  <rect
     style="fill:#47381d;fill-opacity:1"
     transform="matrix(0,-1,-1,0,0,0)"
     rx="2"
     ry="2"
     height="40"
     width="40"
     y="-44"
     x="-44"
     id="rect4490" />
  <path
     style="opacity:0.1;fill:#ffffff"
     inkscape:connector-curvature="0"
     d="M 6,4 C 4.892,4 4,4.892 4,6 V 7 C 4,5.892 4.892,5 6,5 h 36 c 1.108,0 2,0.892 2,2 V 6 C 44,4.892 43.108,4 42,4 Z"
     id="path4498" />
  <path
     style="opacity:0.2"
     inkscape:connector-curvature="0"
     d="M 6,45 C 4.892,45 4,44.108 4,43 v -1 c 0,1.108 0.892,2 2,2 h 36 c 1.108,0 2,-0.892 2,-2 v 1 c 0,1.108 -0.892,2 -2,2 z"
     id="path4500" />
  <g
     id="g4534"
     transform="matrix(0.49982595,0,0,0.49982595,14.007994,8.0076582)" />
  <g
     transform="matrix(0.49982595,0,0,0.49982595,5.0006005,7.0076582)"
     id="g4609"
     style="opacity:0.2;fill:#000000;fill-opacity:1">
    <path
       sodipodi:nodetypes="zsssscccccccccsssssccccsz"
       inkscape:connector-curvature="0"
       id="path4605"
       d="m 53.423396,3.9960939 c -7.055591,0 -10.020564,2.3454479 -12.193352,5.90625 -2.172787,3.5608021 -3.210937,8.2491841 -3.210937,14.0957031 0,5.414137 -0.216777,9.659367 1.488281,13.630859 0.852529,1.985747 2.437578,3.86152 4.50586,4.9375 C 46.081529,43.642387 52.408684,44 55.023036,44 c 5.458177,-0.05091 8.342997,-1.702566 11.001953,-6.001953 v -10 l -0.0026,-4.006964 -7.999328,0.005 H 54.021083 V 32 h 4 v 3.632813 c -0.588454,0.25726 -1.278956,0.363281 -2.998047,0.363281 -1.835573,0 -6.862849,-0.293331 -7.316429,-0.529297 -0.45358,-0.235966 -0.560713,-0.332283 -0.845703,-0.996094 -0.56998,-1.32762 -0.837891,-5.083247 -0.837891,-10.472656 0,-4.848855 0.96185,-8.160427 2.039063,-9.925781 C 49.139288,12.306911 52.338456,12 53.423396,12 c 4.180138,-0.09532 4.977955,1.253072 5.687531,4.849609 l 7.763671,-1.939453 -0.96875,-3.882812 c 0,0 -0.595381,-2.1520221 -2.302734,-3.8593751 -1.707353,-1.707353 -3.124127,-3.171875 -10.179718,-3.171875 z"
       style="color:#000000;font-style:normal;font-variant:normal;font-weight:normal;font-stretch:normal;font-size:medium;line-height:normal;font-family:sans-serif;font-variant-ligatures:normal;font-variant-position:normal;font-variant-caps:normal;font-variant-numeric:normal;font-variant-alternates:normal;font-feature-settings:normal;text-indent:0;text-align:start;text-decoration:none;text-decoration-line:none;text-decoration-style:solid;text-decoration-color:#000000;letter-spacing:normal;word-spacing:normal;text-transform:none;writing-mode:lr-tb;direction:ltr;text-orientation:mixed;dominant-baseline:auto;baseline-shift:baseline;text-anchor:start;white-space:normal;shape-padding:0;clip-rule:nonzero;display:inline;overflow:visible;visibility:visible;opacity:1;isolation:auto;mix-blend-mode:normal;color-interpolation:sRGB;color-interpolation-filters:linearRGB;solid-color:#000000;solid-opacity:1;vector-effect:none;fill:#000000;fill-opacity:1;fill-rule:nonzero;stroke:none;stroke-width:8.00278568;stroke-linecap:square;stroke-linejoin:bevel;stroke-miterlimit:4;stroke-dasharray:none;stroke-dashoffset:0;stroke-opacity:1;color-rendering:auto;image-rendering:auto;shape-rendering:auto;text-rendering:auto;enable-background:accumulate" />
    <path
       sodipodi:nodetypes="ccccccccccccccccccccccc"
       inkscape:connector-curvature="0"
       id="path4607"
       d="M 30.009245,3.9841182 15.404161,4.0703126 14.287805,6.5800782 6.0008879,26.507813 V 32 H 21.998743 v 7.941406 4.001953 h 8.003906 V 39.941406 32 h 0.002 4 v -8.003906 h -4 -0.002 V 7.9257814 Z M 21.998743,12 v 11.996094 h -6.080078 l 4.80664,-11.972656 z"
       style="color:#000000;font-style:normal;font-variant:normal;font-weight:normal;font-stretch:normal;font-size:medium;line-height:normal;font-family:sans-serif;font-variant-ligatures:normal;font-variant-position:normal;font-variant-caps:normal;font-variant-numeric:normal;font-variant-alternates:normal;font-feature-settings:normal;text-indent:0;text-align:start;text-decoration:none;text-decoration-line:none;text-decoration-style:solid;text-decoration-color:#000000;letter-spacing:normal;word-spacing:normal;text-transform:none;writing-mode:lr-tb;direction:ltr;text-orientation:mixed;dominant-baseline:auto;baseline-shift:baseline;text-anchor:start;white-space:normal;shape-padding:0;clip-rule:nonzero;display:inline;overflow:visible;visibility:visible;opacity:1;isolation:auto;mix-blend-mode:normal;color-interpolation:sRGB;color-interpolation-filters:linearRGB;solid-color:#000000;solid-opacity:1;vector-effect:none;fill:#000000;fill-opacity:1;fill-rule:nonzero;stroke:none;stroke-width:8.00278568;stroke-linecap:square;stroke-linejoin:bevel;stroke-miterlimit:4;stroke-dasharray:none;stroke-dashoffset:0;stroke-opacity:1;color-rendering:auto;image-rendering:auto;shape-rendering:auto;text-rendering:auto;enable-background:accumulate" />
  </g>
  <g
     id="g4529"
     transform="matrix(0.49982595,0,0,0.49982595,5.0006005,6.0076582)">
    <path
       style="color:#000000;font-style:normal;font-variant:normal;font-weight:normal;font-stretch:normal;font-size:medium;line-height:normal;font-family:sans-serif;font-variant-ligatures:normal;font-variant-position:normal;font-variant-caps:normal;font-variant-numeric:normal;font-variant-alternates:normal;font-feature-settings:normal;text-indent:0;text-align:start;text-decoration:none;text-decoration-line:none;text-decoration-style:solid;text-decoration-color:#000000;letter-spacing:normal;word-spacing:normal;text-transform:none;writing-mode:lr-tb;direction:ltr;text-orientation:mixed;dominant-baseline:auto;baseline-shift:baseline;text-anchor:start;white-space:normal;shape-padding:0;clip-rule:nonzero;display:inline;overflow:visible;visibility:visible;opacity:1;isolation:auto;mix-blend-mode:normal;color-interpolation:sRGB;color-interpolation-filters:linearRGB;solid-color:#000000;solid-opacity:1;vector-effect:none;fill:#ffffff;fill-opacity:1;fill-rule:nonzero;stroke:none;stroke-width:8.00278568;stroke-linecap:square;stroke-linejoin:bevel;stroke-miterlimit:4;stroke-dasharray:none;stroke-dashoffset:0;stroke-opacity:1;color-rendering:auto;image-rendering:auto;shape-rendering:auto;text-rendering:auto;enable-background:accumulate"
       d="m 53.423396,3.9960939 c -7.055591,0 -10.020564,2.3454479 -12.193352,5.90625 -2.172787,3.5608021 -3.210937,8.2491841 -3.210937,14.0957031 0,5.414137 -0.216777,9.659367 1.488281,13.630859 0.852529,1.985747 2.437578,3.86152 4.50586,4.9375 C 46.081529,43.642387 52.408684,44 55.023036,44 c 5.458177,-0.05091 8.342997,-1.702566 11.001953,-6.001953 v -10 l -0.0026,-4.006964 -7.999328,0.005 H 54.021083 V 32 h 4 v 3.632813 c -0.588454,0.25726 -1.278956,0.363281 -2.998047,0.363281 -1.835573,0 -6.862849,-0.293331 -7.316429,-0.529297 -0.45358,-0.235966 -0.560713,-0.332283 -0.845703,-0.996094 -0.56998,-1.32762 -0.837891,-5.083247 -0.837891,-10.472656 0,-4.848855 0.96185,-8.160427 2.039063,-9.925781 C 49.139288,12.306911 52.338456,12 53.423396,12 c 4.180138,-0.09532 4.977955,1.253072 5.687531,4.849609 l 7.763671,-1.939453 -0.96875,-3.882812 c 0,0 -0.595381,-2.1520221 -2.302734,-3.8593751 -1.707353,-1.707353 -3.124127,-3.171875 -10.179718,-3.171875 z"
       id="path4485"
       inkscape:connector-curvature="0"
       sodipodi:nodetypes="zsssscccccccccsssssccccsz" />
    <path
       style="color:#000000;font-style:normal;font-variant:normal;font-weight:normal;font-stretch:normal;font-size:medium;line-height:normal;font-family:sans-serif;font-variant-ligatures:normal;font-variant-position:normal;font-variant-caps:normal;font-variant-numeric:normal;font-variant-alternates:normal;font-feature-settings:normal;text-indent:0;text-align:start;text-decoration:none;text-decoration-line:none;text-decoration-style:solid;text-decoration-color:#000000;letter-spacing:normal;word-spacing:normal;text-transform:none;writing-mode:lr-tb;direction:ltr;text-orientation:mixed;dominant-baseline:auto;baseline-shift:baseline;text-anchor:start;white-space:normal;shape-padding:0;clip-rule:nonzero;display:inline;overflow:visible;visibility:visible;opacity:1;isolation:auto;mix-blend-mode:normal;color-interpolation:sRGB;color-interpolation-filters:linearRGB;solid-color:#000000;solid-opacity:1;vector-effect:none;fill:#ffffff;fill-opacity:1;fill-rule:nonzero;stroke:none;stroke-width:8.00278568;stroke-linecap:square;stroke-linejoin:bevel;stroke-miterlimit:4;stroke-dasharray:none;stroke-dashoffset:0;stroke-opacity:1;color-rendering:auto;image-rendering:auto;shape-rendering:auto;text-rendering:auto;enable-background:accumulate"
       d="M 30.009245,3.9841182 15.404161,4.0703126 14.287805,6.5800782 6.0008879,26.507813 V 32 H 21.998743 v 7.941406 4.001953 h 8.003906 V 39.941406 32 h 0.002 4 v -8.003906 h -4 -0.002 V 7.9257814 Z M 21.998743,12 v 11.996094 h -6.080078 l 4.80664,-11.972656 z"
       id="path4514"
       inkscape:connector-curvature="0"
       sodipodi:nodetypes="ccccccccccccccccccccccc" />
  </g>
  <path
     inkscape:connector-curvature="0"
     id="path4598"
     d="m 13,32 v 6 2 h 2 4 v -2 h -4 v -6 z m 8,0 v 2 h 2 v 6 h 2 v -6 h 2 v -2 z m 8,0 v 2 1 2 1 2 h 6 v -2 h -4 v -1 h 4 v -2 h -4 v -1 h 4 v -2 z"
     style="opacity:0.2;vector-effect:none;fill:#000000;fill-opacity:1;stroke:none;stroke-width:4;stroke-linecap:square;stroke-linejoin:bevel;stroke-miterlimit:4;stroke-dasharray:none;stroke-dashoffset:0;stroke-opacity:1" />
  <path
     style="opacity:1;vector-effect:none;fill:#ee3a43;fill-opacity:1;stroke:none;stroke-width:4;stroke-linecap:square;stroke-linejoin:bevel;stroke-miterlimit:4;stroke-dasharray:none;stroke-dashoffset:0;stroke-opacity:1"
     d="m 13,31 v 6 2 h 2 4 v -2 h -4 v -6 z m 8,0 v 2 h 2 v 6 h 2 v -6 h 2 v -2 z m 8,0 v 2 1 2 1 2 h 6 v -2 h -4 v -1 h 4 v -2 h -4 v -1 h 4 v -2 z"
     id="rect4575"
     inkscape:connector-curvature="0" />
  <path
     style="opacity:0.1;vector-effect:none;fill:#ffffff;fill-opacity:1;stroke:none;stroke-width:4;stroke-linecap:square;stroke-linejoin:bevel;stroke-miterlimit:4;stroke-dasharray:none;stroke-dashoffset:0;stroke-opacity:1"
     d="M 13 31 L 13 32 L 15 32 L 15 31 L 13 31 z M 21 31 L 21 32 L 27 32 L 27 31 L 21 31 z M 29 31 L 29 32 L 35 32 L 35 31 L 29 31 z M 31 34 L 31 35 L 35 35 L 35 34 L 31 34 z M 15 37 L 15 38 L 19 38 L 19 37 L 15 37 z M 31 37 L 31 38 L 35 38 L 35 37 L 31 37 z "
     id="path4600" />
</svg>
