<?xml version="1.0" encoding="UTF-8" standalone="no"?>
<svg
   xmlns:dc="http://purl.org/dc/elements/1.1/"
   xmlns:cc="http://creativecommons.org/ns#"
   xmlns:rdf="http://www.w3.org/1999/02/22-rdf-syntax-ns#"
   xmlns:svg="http://www.w3.org/2000/svg"
   xmlns="http://www.w3.org/2000/svg"
   xmlns:sodipodi="http://sodipodi.sourceforge.net/DTD/sodipodi-0.dtd"
   xmlns:inkscape="http://www.inkscape.org/namespaces/inkscape"
   height="48"
   width="48"
   version="1"
   id="svg18"
   sodipodi:docname="8g-browser.svg"
   inkscape:version="0.92.1 r15371">
  <metadata
     id="metadata24">
    <rdf:RDF>
      <cc:Work
         rdf:about="">
        <dc:format>image/svg+xml</dc:format>
        <dc:type
           rdf:resource="http://purl.org/dc/dcmitype/StillImage" />
        <dc:title></dc:title>
      </cc:Work>
    </rdf:RDF>
  </metadata>
  <defs
     id="defs22" />
  <sodipodi:namedview
     pagecolor="#ffffff"
     bordercolor="#666666"
     borderopacity="1"
     objecttolerance="10"
     gridtolerance="10"
     guidetolerance="10"
     inkscape:pageopacity="0"
     inkscape:pageshadow="2"
     inkscape:window-width="1600"
     inkscape:window-height="822"
     id="namedview20"
     showgrid="false"
     inkscape:zoom="21.31"
     inkscape:cx="20.997873"
     inkscape:cy="29.287173"
     inkscape:window-x="0"
     inkscape:window-y="0"
     inkscape:window-maximized="1"
     inkscape:current-layer="svg18">
    <inkscape:grid
       type="xygrid"
       id="grid4522" />
  </sodipodi:namedview>
  <rect
     transform="matrix(0,-1,-1,0,0,0)"
     rx="20"
     ry="20"
     height="40"
     width="40"
     y="-44"
     x="-45"
     id="rect4518"
     style="opacity:0.2;fill:#000000;fill-opacity:1;stroke-width:1.00090075" />
  <path
     transform="matrix(0,-1,-1,0,0,0)"
     style="fill:#3878b7;fill-opacity:1;stroke-width:1.00090075"
     d="m -24,-44 c 0.562626,0 1.550717,0.885069 2.101319,0.930183 10.292604,0.843344 16.1745431,8.552443 16.1745431,19.069817 0,7.671031 -2.6122522,14.3258389 -8.9200621,17.6828897 C -17.44736,-4.8252531 -20.591031,-4 -24,-4 c -11.08,0 -20,-8.92 -20,-20 0,-11.08 8.92,-20 20,-20 z"
     id="rect2"
     inkscape:connector-curvature="0"
     sodipodi:nodetypes="sssssss" />
  <path
     sodipodi:nodetypes="sccccccccccccccccscsccscss"
     inkscape:connector-curvature="0"
     id="path4519"
     d="m 24,4.9994392 c -8.213387,0 -15.2304029,4.9075696 -18.3164062,11.9570308 -0.1571361,0.465952 -0.3519534,1.109378 -0.5019532,1.705078 -1.8547536,7.365886 0.4753781,14.210551 6.2597654,18.891126 1.419705,1.148794 4.1986,2.490205 6.257813,3.019531 1.220174,0.313646 2.5097,0.437256 3.791677,0.427234 C 31,40.999439 35.85698,33.812332 36,27.729908 c 0,-6.730469 -3.466322,-9.474124 -7.482422,-10.447266 -2.813925,-0.67347 -5.800913,0.191703 -7.583984,2.197266 -0.754245,0.848358 -1.431089,2.242505 -1.511719,3.115234 l -0.06055,0.654297 0.314453,-0.419922 c 1.329197,-1.779624 2.694477,-2.519084 4.464844,-2.417969 3.674517,0.660304 4.861094,3.313413 4.859375,5.498047 0.161776,2.906419 -1.972132,5.063567 -4.496094,6.354547 -1.806278,0.887607 -3.274428,1.045878 -5.179687,0.558594 -3.402825,-0.870293 -6.309529,-3.702407 -7.132813,-7.385797 -0.286159,-1.280233 -0.302567,-3.683957 -0.0332,-5.091797 1.039994,-5.435545 4.92245,-9.653781 10.072266,-10.9453122 3.955675,-0.99204 8.533499,-0.372606 11.779297,1.5937502 4.552539,2.758003 7.561144,6.756027 8.664062,11.511718 0.342358,1.476227 0.545776,3.859808 0.441406,5.19336 -0.130253,1.664986 -0.655759,4.108995 -1.193359,5.560547 -0.374933,1.012339 -0.863869,2.053666 -1.410156,3.046875 C 42.711005,33.093118 44,29.203712 44,24.999439 44,13.919439 35.08,4.9994392 24,4.9994392 Z"
     style="opacity:0.2;fill:#000000;fill-opacity:1;stroke-width:0.14" />
  <path
     style="opacity:1;fill:#df6040;fill-opacity:1;stroke-width:0.14"
     d="M 24,4 C 15.786613,4 8.7695971,8.9075696 5.6835938,15.957031 5.5264577,16.422983 5.3316404,17.066409 5.1816406,17.662109 3.326887,25.027995 5.6570187,31.87266 11.441406,36.553235 c 1.419705,1.148794 4.1986,2.490205 6.257813,3.019531 1.220174,0.313646 2.5097,0.437256 3.791677,0.427234 C 31,40 35.85698,32.812893 36,26.730469 36,20 32.533678,17.256345 28.517578,16.283203 c -2.813925,-0.67347 -5.800913,0.191703 -7.583984,2.197266 -0.754245,0.848358 -1.431089,2.242505 -1.511719,3.115234 L 19.361328,22.25 19.675781,21.830078 c 1.329197,-1.779624 2.694477,-2.519084 4.464844,-2.417969 3.674517,0.660304 4.861094,3.313413 4.859375,5.498047 0.161776,2.906419 -1.972132,5.063567 -4.496094,6.354547 -1.806278,0.887607 -3.274428,1.045878 -5.179687,0.558594 -3.402825,-0.870293 -6.309529,-3.702407 -7.132813,-7.385797 -0.286159,-1.280233 -0.302567,-3.683957 -0.0332,-5.091797 1.039994,-5.435545 4.92245,-9.6537809 10.072266,-10.9453124 3.955675,-0.99204 8.533499,-0.372606 11.779297,1.59375 4.552539,2.7580034 7.561144,6.7560274 8.664062,11.5117184 0.342358,1.476227 0.545776,3.859808 0.441406,5.19336 -0.130253,1.664986 -0.655759,4.108995 -1.193359,5.560547 -0.374933,1.012339 -0.863869,2.053666 -1.410156,3.046875 C 42.711005,32.093679 44,28.204273 44,24 44,12.92 35.08,4 24,4 Z"
     id="path4507"
     inkscape:connector-curvature="0"
     sodipodi:nodetypes="sccccccccccccccccscsccscss" />
  <path
     style="fill:#ffffff;fill-opacity:1;stroke-width:1.00090075;opacity:0.1"
     d="M 24 4 C 12.92 4 4 12.92 4 24 C 4 24.167874 4.007647 24.333141 4.0117188 24.5 C 4.2763904 13.653863 13.087874 5 24 5 C 34.912126 5 43.72361 13.653863 43.988281 24.5 C 43.992353 24.333141 44 24.167874 44 24 C 44 12.92 35.08 4 24 4 z "
     id="rect4513" />
  <circle
     r="5"
     cy="24.999439"
     cx="24"
     id="circle4521"
     style="opacity:0.2;vector-effect:none;fill:#000000;fill-opacity:1;stroke:none;stroke-width:1.81818187;stroke-linecap:round;stroke-linejoin:round;stroke-miterlimit:4;stroke-dasharray:none;stroke-dashoffset:0;stroke-opacity:1" />
  <circle
     style="opacity:1;vector-effect:none;fill:#ffffff;fill-opacity:1;stroke:none;stroke-width:1.81818187;stroke-linecap:round;stroke-linejoin:round;stroke-miterlimit:4;stroke-dasharray:none;stroke-dashoffset:0;stroke-opacity:1"
     id="path4517"
     cx="24"
     cy="24"
     r="5" />
</svg>
