<?xml version="1.0" encoding="UTF-8" standalone="no"?>
<svg
   xmlns:dc="http://purl.org/dc/elements/1.1/"
   xmlns:cc="http://creativecommons.org/ns#"
   xmlns:rdf="http://www.w3.org/1999/02/22-rdf-syntax-ns#"
   xmlns:svg="http://www.w3.org/2000/svg"
   xmlns="http://www.w3.org/2000/svg"
   xmlns:sodipodi="http://sodipodi.sourceforge.net/DTD/sodipodi-0.dtd"
   xmlns:inkscape="http://www.inkscape.org/namespaces/inkscape"
   height="48"
   width="48"
   version="1"
   id="svg12"
   sodipodi:docname="abbey-music-player.svg"
   inkscape:version="0.92.1 r15371">
  <metadata
     id="metadata18">
    <rdf:RDF>
      <cc:Work
         rdf:about="">
        <dc:format>image/svg+xml</dc:format>
        <dc:type
           rdf:resource="http://purl.org/dc/dcmitype/StillImage" />
        <dc:title></dc:title>
      </cc:Work>
    </rdf:RDF>
  </metadata>
  <defs
     id="defs16" />
  <sodipodi:namedview
     pagecolor="#ffffff"
     bordercolor="#666666"
     borderopacity="1"
     objecttolerance="10"
     gridtolerance="10"
     guidetolerance="10"
     inkscape:pageopacity="0"
     inkscape:pageshadow="2"
     inkscape:window-width="1600"
     inkscape:window-height="822"
     id="namedview14"
     showgrid="false"
     inkscape:zoom="10.66"
     inkscape:cx="22.788153"
     inkscape:cy="36.128982"
     inkscape:window-x="0"
     inkscape:window-y="0"
     inkscape:window-maximized="1"
     inkscape:current-layer="svg12">
    <inkscape:grid
       type="xygrid"
       id="grid4535" />
  </sodipodi:namedview>
  <rect
     transform="matrix(0,-1,-1,0,0,0)"
     rx="20"
     ry="20"
     height="40"
     width="40"
     y="-44"
     x="-44"
     id="rect2"
     style="fill:#f64556;fill-opacity:1;stroke-width:1.00005007" />
  <rect
     transform="matrix(0,-1,-1,0,0,0)"
     rx="16"
     ry="16"
     height="32"
     width="32"
     y="-40"
     x="-41"
     id="rect4492"
     style="opacity:0.2;fill:#000000;fill-opacity:1;stroke-width:0.80004001" />
  <path
     opacity=".2"
     d="m24 4c-11.079 0-19.998 8.92-19.998 20 0 0.16772-0.004 0.33329 0 0.5 0.2642-10.846 9.087-19.5 19.998-19.5s19.734 8.6536 19.998 19.5c0.004-0.16671 0-0.33228 0-0.5 0-11.08-8.919-20-19.998-20z"
     fill="#fff"
     id="path8"
     style="opacity:0.2" />
  <path
     opacity=".2"
     d="m4.0117 24.5c-0.0041 0.167-0.0117 0.332-0.0117 0.5 0 11.08 8.92 20 20 20s20-8.92 20-20c0-0.168-0.008-0.333-0.012-0.5-0.264 10.846-9.076 19.5-19.988 19.5s-19.724-8.654-19.988-19.5z"
     id="path10" />
  <rect
     style="opacity:1;fill:#f45f6a;fill-opacity:1;stroke-width:0.80004001"
     id="rect4486"
     x="-40"
     y="-40"
     width="32"
     height="32"
     ry="16"
     rx="16"
     transform="matrix(0,-1,-1,0,0,0)" />
  <rect
     style="opacity:0.2;fill:#000000;fill-opacity:1;stroke-width:0.60003"
     id="rect4494"
     x="-37"
     y="-36"
     width="24"
     height="24"
     ry="12"
     rx="12"
     transform="matrix(0,-1,-1,0,0,0)" />
  <rect
     transform="matrix(0,-1,-1,0,0,0)"
     rx="12"
     ry="12"
     height="24"
     width="24"
     y="-36"
     x="-36"
     id="rect4488"
     style="opacity:1;fill:#f47e82;fill-opacity:1;stroke-width:0.60003" />
  <rect
     transform="matrix(0,-1,-1,0,0,0)"
     rx="8"
     ry="8"
     height="16"
     width="16"
     y="-32"
     x="-33"
     id="rect4496"
     style="opacity:0.2;fill:#000000;fill-opacity:1;stroke-width:0.40002" />
  <rect
     style="opacity:1;fill:#ffa0a0;fill-opacity:1;stroke-width:0.40002"
     id="rect4490"
     x="-32"
     y="-32"
     width="16"
     height="16"
     ry="8"
     rx="8"
     transform="matrix(0,-1,-1,0,0,0)" />
  <path
     style="opacity:0.1;fill:#fffdfd;fill-opacity:1;stroke-width:0.80004001"
     d="M 24 8 C 15.136 8 8 15.136 8 24 C 8 24.168845 8.0202495 24.332447 8.0253906 24.5 C 8.2901455 15.871347 15.304845 9 24 9 C 32.695155 9 39.709854 15.871347 39.974609 24.5 C 39.97975 24.332447 40 24.168845 40 24 C 40 15.136 32.864 8 24 8 z "
     id="rect4498" />
  <path
     style="opacity:0.1;fill:#fffdfd;fill-opacity:1;stroke-width:0.60003"
     d="M 24 12 C 17.352 12 12 17.352 12 24 C 12 24.168838 12.018553 24.3329 12.025391 24.5 C 12.287784 18.087544 17.520838 13 24 13 C 30.479162 13 35.712216 18.087544 35.974609 24.5 C 35.981447 24.3329 36 24.168838 36 24 C 36 17.352 30.648 12 24 12 z "
     id="rect4500" />
  <path
     style="opacity:0.1;fill:#fffdfd;fill-opacity:1;stroke-width:0.40002"
     d="M 24 16 C 19.568 16 16 19.568 16 24 C 16 24.168845 16.015183 24.333813 16.025391 24.5 C 16.283117 20.303943 19.736845 17 24 17 C 28.263155 17 31.716883 20.303943 31.974609 24.5 C 31.984817 24.333813 32 24.168845 32 24 C 32 19.568 28.432 16 24 16 z "
     id="rect4502" />
  <path
     id="path4557"
     d="M 22.96875,5.0253906 C 22.643951,5.0417487 22.32044,5.0680713 22,5.0996094 V 18 l -1,5 h -1 v 5 h 2 c 0,0 1,0 1,-1 V 23 18 5.0253906 c -0.01036,5.058e-4 -0.0209,-5.213e-4 -0.03125,0 z m 2.03125,0 V 18 v 5 4 c 0,1 1,1 1,1 h 2 V 23 H 27 L 26,18 V 5.0996094 C 25.669347,5.0670661 25.335288,5.0417648 25,5.0253906 Z M 19,23 c -1.0037,0 -1,1 -1,1 v 3 c 0,0 0,1 1,1 z m 10,0 v 5 c 1,0 1,-1 1,-1 v -3 c 0,0 0.0037,-1 -1,-1 z"
     style="opacity:0.2;fill:#000000;fill-opacity:1;stroke:none;stroke-width:0.17350219;stroke-linecap:round;stroke-linejoin:round;stroke-miterlimit:4;stroke-dasharray:none;stroke-dashoffset:0;stroke-opacity:1"
     inkscape:connector-curvature="0" />
  <path
     style="opacity:1;fill:#ffffff;fill-opacity:1;stroke:none;stroke-width:0.17350219;stroke-linecap:round;stroke-linejoin:round;stroke-miterlimit:4;stroke-dasharray:none;stroke-dashoffset:0;stroke-opacity:1"
     d="M 22.96875 4.0253906 C 22.643951 4.0417487 22.32044 4.0680713 22 4.0996094 L 22 17 L 21 22 L 20 22 L 20 27 L 22 27 C 22 27 23 27 23 26 L 23 22 L 23 17 L 23 4.0253906 C 22.989644 4.0258964 22.979102 4.0248693 22.96875 4.0253906 z M 25 4.0253906 L 25 17 L 25 22 L 25 26 C 25 27 26 27 26 27 L 28 27 L 28 22 L 27 22 L 26 17 L 26 4.0996094 C 25.669347 4.0670661 25.335288 4.0417648 25 4.0253906 z M 19 22 C 17.9963 22 18 23 18 23 L 18 26 C 18 26 18 27 19 27 L 19 22 z M 29 22 L 29 27 C 30 27 30 26 30 26 L 30 23 C 30 23 30.0037 22 29 22 z "
     id="rect4524" />
</svg>
