<?xml version="1.0" encoding="UTF-8" standalone="no"?>
<svg
   xmlns:dc="http://purl.org/dc/elements/1.1/"
   xmlns:cc="http://creativecommons.org/ns#"
   xmlns:rdf="http://www.w3.org/1999/02/22-rdf-syntax-ns#"
   xmlns:svg="http://www.w3.org/2000/svg"
   xmlns="http://www.w3.org/2000/svg"
   xmlns:sodipodi="http://sodipodi.sourceforge.net/DTD/sodipodi-0.dtd"
   xmlns:inkscape="http://www.inkscape.org/namespaces/inkscape"
   height="48"
   width="48"
   version="1"
   id="svg20"
   sodipodi:docname="ac3-player.svg"
   inkscape:version="0.92.1 r15371">
  <metadata
     id="metadata26">
    <rdf:RDF>
      <cc:Work
         rdf:about="">
        <dc:format>image/svg+xml</dc:format>
        <dc:type
           rdf:resource="http://purl.org/dc/dcmitype/StillImage" />
        <dc:title></dc:title>
      </cc:Work>
    </rdf:RDF>
  </metadata>
  <defs
     id="defs24" />
  <sodipodi:namedview
     pagecolor="#ffffff"
     bordercolor="#666666"
     borderopacity="1"
     objecttolerance="10"
     gridtolerance="10"
     guidetolerance="10"
     inkscape:pageopacity="0"
     inkscape:pageshadow="2"
     inkscape:window-width="1600"
     inkscape:window-height="822"
     id="namedview22"
     showgrid="false"
     inkscape:zoom="5.33"
     inkscape:cx="-6.0029518"
     inkscape:cy="24"
     inkscape:window-x="0"
     inkscape:window-y="0"
     inkscape:window-maximized="1"
     inkscape:current-layer="svg20" />
  <rect
     ry="20"
     rx="20"
     transform="matrix(0,-1,-1,0,0,0)"
     height="40"
     width="40"
     y="-44"
     x="-44"
     fill="#1da6e8"
     id="rect2"
     style="fill:#ffbf41;fill-opacity:1" />
  <path
     opacity=".2"
     fill="#fff"
     d="m24 4c-11.08 0-20 8.92-20 20 0 0.168 0.008 0.333 0.0117 0.5 0.2647-10.846 9.0763-19.5 19.988-19.5s19.724 8.6539 19.988 19.5c0.004-0.16686 0.0117-0.33213 0.0117-0.5 0-11.08-8.92-20-20-20z"
     id="path4"
     style="opacity:0.1" />
  <path
     opacity=".2"
     d="m4.0117 24.5c-0.0041 0.167-0.0117 0.332-0.0117 0.5 0 11.08 8.92 20 20 20s20-8.92 20-20c0-0.16787-0.0076-0.33314-0.01172-0.5-0.264 10.846-9.076 19.5-19.988 19.5s-19.724-8.654-19.988-19.5z"
     id="path18" />
  <path
     inkscape:connector-curvature="0"
     id="path4492"
     d="M 19.767573,17.000507 A 1.7262185,1.7666365 0 0 0 18,18.766199 v 6.234608 6.234608 a 1.7262185,1.7666365 0 0 0 2.587965,1.528704 l 5.27786,-3.114701 5.27537,-3.119909 a 1.7262185,1.7666365 0 0 0 0,-3.054801 l -5.27537,-3.119909 -5.27786,-3.114699 a 1.7262185,1.7666365 0 0 0 -0.820392,-0.239593 z"
     style="opacity:0.2;fill:#000000;fill-opacity:1;stroke:none;stroke-width:4.16152525;stroke-linecap:round;stroke-linejoin:round;stroke-miterlimit:4;stroke-dasharray:none;stroke-dashoffset:0;stroke-opacity:1" />
  <path
     style="opacity:1;fill:#ffffff;fill-opacity:1;stroke:none;stroke-width:4.16152525;stroke-linecap:round;stroke-linejoin:round;stroke-miterlimit:4;stroke-dasharray:none;stroke-dashoffset:0;stroke-opacity:1"
     d="M 19.767573,16.000507 A 1.7262185,1.7666365 0 0 0 18,17.766199 v 6.234608 6.234608 a 1.7262185,1.7666365 0 0 0 2.587965,1.528704 l 5.27786,-3.114701 5.27537,-3.119909 a 1.7262185,1.7666365 0 0 0 0,-3.054801 l -5.27537,-3.119909 -5.27786,-3.114699 a 1.7262185,1.7666365 0 0 0 -0.820392,-0.239593 z"
     id="path4514"
     inkscape:connector-curvature="0" />
  <path
     id="path4491"
     d="M 24,8 A 17,17 0 0 0 7,25 17,17 0 0 0 24,42 17,17 0 0 0 41,25 17,17 0 0 0 24,8 Z m 0,1 A 16,16 0 0 1 40,25 16,16 0 0 1 24,41 16,16 0 0 1 8,25 16,16 0 0 1 24,9 Z"
     style="opacity:0.2;fill:#000000;fill-opacity:1;stroke:none;stroke-width:4.30820656;stroke-linecap:round;stroke-linejoin:round;stroke-miterlimit:4;stroke-dasharray:none;stroke-dashoffset:0;stroke-opacity:1"
     inkscape:connector-curvature="0" />
  <path
     style="opacity:1;fill:#ffffff;fill-opacity:1;stroke:none;stroke-width:4.30820656;stroke-linecap:round;stroke-linejoin:round;stroke-miterlimit:4;stroke-dasharray:none;stroke-dashoffset:0;stroke-opacity:1"
     d="M 24 7 A 17 17 0 0 0 7 24 A 17 17 0 0 0 24 41 A 17 17 0 0 0 41 24 A 17 17 0 0 0 24 7 z M 24 8 A 16 16 0 0 1 40 24 A 16 16 0 0 1 24 40 A 16 16 0 0 1 8 24 A 16 16 0 0 1 24 8 z "
     id="path4486" />
</svg>
