<?xml version="1.0" encoding="UTF-8" standalone="no"?>
<svg
   xmlns:dc="http://purl.org/dc/elements/1.1/"
   xmlns:cc="http://creativecommons.org/ns#"
   xmlns:rdf="http://www.w3.org/1999/02/22-rdf-syntax-ns#"
   xmlns:svg="http://www.w3.org/2000/svg"
   xmlns="http://www.w3.org/2000/svg"
   xmlns:sodipodi="http://sodipodi.sourceforge.net/DTD/sodipodi-0.dtd"
   xmlns:inkscape="http://www.inkscape.org/namespaces/inkscape"
   height="48"
   width="48"
   version="1"
   id="svg24"
   sodipodi:docname="ac3-video-player.svg"
   inkscape:version="0.92.1 r15371">
  <metadata
     id="metadata30">
    <rdf:RDF>
      <cc:Work
         rdf:about="">
        <dc:format>image/svg+xml</dc:format>
        <dc:type
           rdf:resource="http://purl.org/dc/dcmitype/StillImage" />
        <dc:title />
      </cc:Work>
    </rdf:RDF>
  </metadata>
  <defs
     id="defs28" />
  <sodipodi:namedview
     pagecolor="#ffffff"
     bordercolor="#666666"
     borderopacity="1"
     objecttolerance="10"
     gridtolerance="10"
     guidetolerance="10"
     inkscape:pageopacity="0"
     inkscape:pageshadow="2"
     inkscape:window-width="1600"
     inkscape:window-height="822"
     id="namedview26"
     showgrid="false"
     inkscape:zoom="8.6599296"
     inkscape:cx="-2.2686972"
     inkscape:cy="16.49531"
     inkscape:window-x="0"
     inkscape:window-y="0"
     inkscape:window-maximized="1"
     inkscape:current-layer="svg24" />
  <path
     style="enable-background:new;fill:#1aada1;fill-opacity:1"
     fill="#558dcb"
     d="m7 6c-1.662 0-3 1.338-3 3v25h40v-25c0-1.662-1.338-3-3-3z"
     id="path2" />
  <path
     opacity=".2"
     style="enable-background:new"
     fill="#fff"
     d="m7 6c-1.662 0-3 1.338-3 3v1c0-1.662 1.338-3 3-3h34c1.662 0 3 1.338 3 3v-1c0-1.662-1.338-3-3-3h-34z"
     id="path4" />
  <path
     style="enable-background:new;fill:#cccccc;fill-opacity:1"
     fill="#f2f2f2"
     d="m4 34v5c0 1.662 1.338 3 3 3h34c1.662 0 3-1.338 3-3v-5z"
     id="path6" />
  <rect
     style="enable-background:new"
     rx="1"
     ry=".928"
     height="2"
     width="13"
     y="37"
     x="28"
     fill="#999"
     id="rect8" />
  <rect
     style="enable-background:new;fill:#1aada1;fill-opacity:1"
     rx="1"
     ry="1"
     height="2"
     width="21"
     y="37"
     x="7"
     fill="#558dcb"
     id="rect10" />
  <circle
     opacity=".2"
     style="enable-background:new"
     cx="28"
     cy="39"
     r="2"
     id="circle12" />
  <circle
     style="enable-background:new;fill:#ffffff;fill-opacity:1"
     cx="28"
     cy="38"
     r="2"
     fill="#fff"
     id="circle14" />
  <rect
     style="enable-background:new;opacity:0.2"
     height="1"
     width="40"
     y="34"
     x="4"
     id="rect16"
     fill="#fff" />
  <path
     style="color:#000000;opacity:0.2;stroke-width:1.0009619"
     d="m 18.603175,14 c -0.544617,-0.01 -0.638296,0.6466 -0.59328,1.1206 0.004,4.4362 -0.007,8.873 0.005,13.309 0.04789,0.5304 0.655619,0.74232 1.001143,0.41339 3.692794,-2.2712 9.064213,-4.5268 12.751497,-6.8078 0.402343,-0.31396 0.248247,-1.0451 -0.200836,-1.1971 -3.692894,-2.2622 -9.050587,-4.5368 -12.746487,-6.7913 -0.06903,-0.0308 -0.143225,-0.0467 -0.217458,-0.0468 z"
     id="path18"
     inkscape:connector-curvature="0" />
  <path
     d="m 18.603175,13 c -0.544617,-0.01 -0.638297,0.6466 -0.59328,1.1206 0.004,4.4362 -0.007,8.873 0.005,13.309 0.04789,0.5304 0.65562,0.74232 1.001144,0.41339 3.692794,-2.2712 9.064213,-4.5268 12.751497,-6.8078 0.402343,-0.31396 0.248247,-1.0451 -0.200836,-1.1971 -3.692895,-2.2622 -9.050587,-4.5368 -12.746487,-6.7913 -0.06903,-0.0308 -0.143226,-0.0467 -0.217458,-0.0468 z"
     id="path20"
     style="fill:#ffffff;fill-opacity:1;stroke-width:1.0009619"
     inkscape:connector-curvature="0" />
  <path
     opacity=".2"
     style="enable-background:new"
     d="m4 39v1c0 1.662 1.338 3 3 3h34c1.662 0 3-1.338 3-3v-1c0 1.662-1.338 3-3 3h-34c-1.662 0-3-1.338-3-3z"
     id="path22" />
</svg>
