<?xml version="1.0" encoding="UTF-8" standalone="no"?>
<svg
   xmlns:dc="http://purl.org/dc/elements/1.1/"
   xmlns:cc="http://creativecommons.org/ns#"
   xmlns:rdf="http://www.w3.org/1999/02/22-rdf-syntax-ns#"
   xmlns:svg="http://www.w3.org/2000/svg"
   xmlns="http://www.w3.org/2000/svg"
   xmlns:sodipodi="http://sodipodi.sourceforge.net/DTD/sodipodi-0.dtd"
   xmlns:inkscape="http://www.inkscape.org/namespaces/inkscape"
   height="48"
   width="48"
   version="1"
   id="svg18"
   sodipodi:docname="adblock-plus.svg"
   inkscape:version="0.92.1 r15371">
  <metadata
     id="metadata24">
    <rdf:RDF>
      <cc:Work
         rdf:about="">
        <dc:format>image/svg+xml</dc:format>
        <dc:type
           rdf:resource="http://purl.org/dc/dcmitype/StillImage" />
        <dc:title></dc:title>
      </cc:Work>
    </rdf:RDF>
  </metadata>
  <defs
     id="defs22" />
  <sodipodi:namedview
     pagecolor="#ffffff"
     bordercolor="#666666"
     borderopacity="1"
     objecttolerance="10"
     gridtolerance="10"
     guidetolerance="10"
     inkscape:pageopacity="0"
     inkscape:pageshadow="2"
     inkscape:window-width="1600"
     inkscape:window-height="822"
     id="namedview20"
     showgrid="true"
     inkscape:zoom="10.66"
     inkscape:cx="32.556071"
     inkscape:cy="21.822419"
     inkscape:window-x="0"
     inkscape:window-y="0"
     inkscape:window-maximized="1"
     inkscape:current-layer="svg18">
    <inkscape:grid
       type="xygrid"
       id="grid4522" />
  </sodipodi:namedview>
  <path
     id="path4546"
     d="M 17.042969,4.9999793 A 3.0003,3.0003 0 0 0 14.919922,5.8710731 L 4.9394531,15.77537 A 3.0003,3.0003 0 0 0 4.0527344,17.89451 L 4,31.95701 a 3.0003,3.0003 0 0 0 0.8710938,2.123047 l 9.9062502,9.982422 a 3.0003,3.0003 0 0 0 2.117187,0.886719 l 14.0625,0.05078 a 3.0003,3.0003 0 0 0 2.125,-0.871094 l 9.978516,-9.90625 a 3.0003,3.0003 0 0 0 0.886719,-2.117187 L 44,18.042948 a 3.0003,3.0003 0 0 0 -0.871094,-2.125 l -9.90625,-9.9785156 a 3.0003,3.0003 0 0 0 -0.992187,-0.6621093 3.0003,3.0003 0 0 0 -1.125,-0.2246094 z"
     style="opacity:0.2;vector-effect:none;fill:#000000;fill-opacity:1;stroke:none;stroke-width:1.29067385;stroke-linecap:round;stroke-linejoin:round;stroke-miterlimit:4;stroke-dasharray:none;stroke-dashoffset:0;stroke-opacity:1"
     inkscape:connector-curvature="0" />
  <path
     style="opacity:1;vector-effect:none;fill:#f84c43;fill-opacity:1;stroke:none;stroke-width:1.29067385;stroke-linecap:round;stroke-linejoin:round;stroke-miterlimit:4;stroke-dasharray:none;stroke-dashoffset:0;stroke-opacity:1"
     d="M 17.042969 4 A 3.0003 3.0003 0 0 0 14.919922 4.8710938 L 4.9394531 14.775391 A 3.0003 3.0003 0 0 0 4.0527344 16.894531 L 4 30.957031 A 3.0003 3.0003 0 0 0 4.8710938 33.080078 L 14.777344 43.0625 A 3.0003 3.0003 0 0 0 16.894531 43.949219 L 30.957031 44 A 3.0003 3.0003 0 0 0 33.082031 43.128906 L 43.060547 33.222656 A 3.0003 3.0003 0 0 0 43.947266 31.105469 L 44 17.042969 A 3.0003 3.0003 0 0 0 43.128906 14.917969 L 33.222656 4.9394531 A 3.0003 3.0003 0 0 0 32.230469 4.2773438 A 3.0003 3.0003 0 0 0 31.105469 4.0527344 L 17.042969 4 z "
     id="path4487" />
  <path
     style="opacity:0.2;vector-effect:none;fill:#ffffff;fill-opacity:1;stroke:none;stroke-width:1.29067385;stroke-linecap:round;stroke-linejoin:round;stroke-miterlimit:4;stroke-dasharray:none;stroke-dashoffset:0;stroke-opacity:1"
     d="M 17.042969 4 A 3.0003 3.0003 0 0 0 14.919922 4.8710938 L 4.9394531 14.775391 A 3.0003 3.0003 0 0 0 4.0527344 16.894531 L 4 30.957031 A 3.0003 3.0003 0 0 0 4.0039062 31.033203 L 4.0527344 17.894531 A 3.0003 3.0003 0 0 1 4.9394531 15.775391 L 14.919922 5.8710938 A 3.0003 3.0003 0 0 1 17.042969 5 L 31.105469 5.0527344 A 3.0003 3.0003 0 0 1 32.230469 5.2773438 A 3.0003 3.0003 0 0 1 33.222656 5.9394531 L 43.128906 15.917969 A 3.0003 3.0003 0 0 1 43.996094 17.966797 L 44 17.042969 A 3.0003 3.0003 0 0 0 43.128906 14.917969 L 33.222656 4.9394531 A 3.0003 3.0003 0 0 0 32.230469 4.2773438 A 3.0003 3.0003 0 0 0 31.105469 4.0527344 L 17.042969 4 z "
     id="path4541" />
  <path
     id="path4507"
     style="opacity:0.2;fill:none;stroke:#000000;stroke-width:2.99981093;stroke-linecap:round;stroke-linejoin:bevel;stroke-opacity:1"
     d="m 10.521268,25.4788 h 5.999696 m -5.999547,4.999932 v -8.953533 m 5.999547,8.953533 v -8.953533 m -5.999696,0 c 0,0 0.01537,-3.045956 2.999885,-3.045956 2.984512,0 2.999811,3.045956 2.999811,3.045956"
     inkscape:connector-curvature="0" />
  <path
     inkscape:connector-curvature="0"
     d="m 10.521268,24.4788 h 5.999696 m -5.999547,4.999932 v -8.953533 m 5.999547,8.953533 v -8.953533 m -5.999696,0 c 0,0 0.01537,-3.045956 2.999885,-3.045956 2.984512,0 2.999811,3.045956 2.999811,3.045956"
     style="fill:none;stroke:#ffffff;stroke-width:2.99981093;stroke-linecap:round;stroke-linejoin:bevel"
     id="path166" />
  <path
     id="path4509"
     style="opacity:0.2;fill:none;stroke:#000000;stroke-width:2.99981093;stroke-linecap:round;stroke-linejoin:bevel;stroke-opacity:1"
     d="m 21.52114,24.445103 c 0,0 5.999696,-0.661005 5.999696,3.016656 0,3.677668 -5.999696,2.982963 -5.999696,2.982963 m 1.47e-4,-11.999388 v 11.999244 m -1.47e-4,-5.965786 c 0,0 5.999696,0.661005 5.999696,-3.016655 0,-3.677665 -5.999696,-2.982963 -5.999696,-2.982963 m 1.47e-4,11.999391 V 18.479321"
     inkscape:connector-curvature="0" />
  <path
     inkscape:connector-curvature="0"
     d="m 21.52114,23.445103 c 0,0 5.999696,-0.661005 5.999696,3.016656 0,3.677668 -5.999696,2.982963 -5.999696,2.982963 m 1.47e-4,-11.999388 v 11.999244 m -1.47e-4,-5.965786 c 0,0 5.999696,0.661005 5.999696,-3.016655 0,-3.677665 -5.999696,-2.982963 -5.999696,-2.982963 m 1.47e-4,11.999391 V 17.479321"
     style="fill:none;stroke:#ffffff;stroke-width:2.99981093;stroke-linecap:round;stroke-linejoin:bevel"
     id="path208" />
  <path
     id="path4511"
     style="opacity:0.2;fill:none;stroke:#000000;stroke-width:2.99981093;stroke-linecap:round;stroke-linejoin:bevel;stroke-opacity:1"
     d="m 32.521134,24.478716 c 0,0 5.999694,0.67785 5.999694,-2.999811 0,-3.677664 -5.999694,-2.999882 -5.999694,-2.999882 m 1.43e-4,11.999709 V 18.47917"
     inkscape:connector-curvature="0" />
  <path
     inkscape:connector-curvature="0"
     d="m 32.521134,23.478716 c 0,0 5.999694,0.67785 5.999694,-2.999811 0,-3.677664 -5.999694,-2.999882 -5.999694,-2.999882 m 1.43e-4,11.999709 V 17.47917"
     style="fill:none;stroke:#ffffff;stroke-width:2.99981093;stroke-linecap:round;stroke-linejoin:bevel"
     id="path186" />
</svg>
