<?xml version="1.0" encoding="UTF-8" standalone="no"?>
<svg
   xmlns:dc="http://purl.org/dc/elements/1.1/"
   xmlns:cc="http://creativecommons.org/ns#"
   xmlns:rdf="http://www.w3.org/1999/02/22-rdf-syntax-ns#"
   xmlns:svg="http://www.w3.org/2000/svg"
   xmlns="http://www.w3.org/2000/svg"
   xmlns:sodipodi="http://sodipodi.sourceforge.net/DTD/sodipodi-0.dtd"
   xmlns:inkscape="http://www.inkscape.org/namespaces/inkscape"
   height="48"
   width="48"
   version="1"
   id="svg18"
   sodipodi:docname="adblock.svg"
   inkscape:version="0.92.1 r15371">
  <metadata
     id="metadata24">
    <rdf:RDF>
      <cc:Work
         rdf:about="">
        <dc:format>image/svg+xml</dc:format>
        <dc:type
           rdf:resource="http://purl.org/dc/dcmitype/StillImage" />
        <dc:title />
      </cc:Work>
    </rdf:RDF>
  </metadata>
  <defs
     id="defs22" />
  <sodipodi:namedview
     pagecolor="#ffffff"
     bordercolor="#666666"
     borderopacity="1"
     objecttolerance="10"
     gridtolerance="10"
     guidetolerance="10"
     inkscape:pageopacity="0"
     inkscape:pageshadow="2"
     inkscape:window-width="1600"
     inkscape:window-height="822"
     id="namedview20"
     showgrid="true"
     inkscape:zoom="7.54"
     inkscape:cx="33.55246"
     inkscape:cy="21.822419"
     inkscape:window-x="0"
     inkscape:window-y="0"
     inkscape:window-maximized="1"
     inkscape:current-layer="svg18">
    <inkscape:grid
       type="xygrid"
       id="grid4522" />
  </sodipodi:namedview>
  <path
     id="path4546"
     d="M 17.042969,4.9999793 A 3.0003,3.0003 0 0 0 14.919922,5.8710731 L 4.9394531,15.77537 A 3.0003,3.0003 0 0 0 4.0527344,17.89451 L 4,31.95701 a 3.0003,3.0003 0 0 0 0.8710938,2.123047 l 9.9062502,9.982422 a 3.0003,3.0003 0 0 0 2.117187,0.886719 l 14.0625,0.05078 a 3.0003,3.0003 0 0 0 2.125,-0.871094 l 9.978516,-9.90625 a 3.0003,3.0003 0 0 0 0.886719,-2.117187 L 44,18.042948 a 3.0003,3.0003 0 0 0 -0.871094,-2.125 l -9.90625,-9.9785156 a 3.0003,3.0003 0 0 0 -0.992187,-0.6621093 3.0003,3.0003 0 0 0 -1.125,-0.2246094 z"
     style="opacity:0.2;vector-effect:none;fill:#000000;fill-opacity:1;stroke:none;stroke-width:1.29067385;stroke-linecap:round;stroke-linejoin:round;stroke-miterlimit:4;stroke-dasharray:none;stroke-dashoffset:0;stroke-opacity:1"
     inkscape:connector-curvature="0" />
  <path
     style="opacity:1;vector-effect:none;fill:#f84c43;fill-opacity:1;stroke:none;stroke-width:1.29067385;stroke-linecap:round;stroke-linejoin:round;stroke-miterlimit:4;stroke-dasharray:none;stroke-dashoffset:0;stroke-opacity:1"
     d="M 17.042969 4 A 3.0003 3.0003 0 0 0 14.919922 4.8710938 L 4.9394531 14.775391 A 3.0003 3.0003 0 0 0 4.0527344 16.894531 L 4 30.957031 A 3.0003 3.0003 0 0 0 4.8710938 33.080078 L 14.777344 43.0625 A 3.0003 3.0003 0 0 0 16.894531 43.949219 L 30.957031 44 A 3.0003 3.0003 0 0 0 33.082031 43.128906 L 43.060547 33.222656 A 3.0003 3.0003 0 0 0 43.947266 31.105469 L 44 17.042969 A 3.0003 3.0003 0 0 0 43.128906 14.917969 L 33.222656 4.9394531 A 3.0003 3.0003 0 0 0 32.230469 4.2773438 A 3.0003 3.0003 0 0 0 31.105469 4.0527344 L 17.042969 4 z "
     id="path4487" />
  <path
     sodipodi:nodetypes="ssccssscsssccssscsssccsscccccscssssccsssccss"
     inkscape:connector-curvature="0"
     id="path4488"
     d="M 24.5,11 C 23.669,11 23,11.892 23,13 v 1.5 7.5 0.5 C 23,22.777 22.777,23 22.5,23 22.223,23 22,22.777 22,22.5 V 22 15 c 0,-1.108 -0.669,-2 -1.5,-2 -0.831,0 -1.5,0.892 -1.5,2 v 0.5 6.5 1.5 C 19,23.777 18.777,24 18.5,24 18.223,24 18,23.777 18,23.5 V 22 18 c 0,-1.108 -0.669,-2 -1.5,-2 -0.831,0 -1.5,0.892 -1.5,2 v 4 2 7.5 c 0,4.142136 3.581722,7.5 8,7.5 3.260906,0 6.060738,-0.03159 7.306641,-2.6551 h 0.002 l 0.0039,-0.0098 C 31.491414,33.071211 35.584037,25.750291 36.757992,22.382812 37.12275,21.336575 36.784862,20.273568 36.00018,20 35.215501,19.726432 34.340427,20.673834 33.924008,21.396484 33,23 30,27 30,27 c -0.04303,-0.882566 0,-2.939995 0,-5 v -8 c 0,-1.108 -0.669,-2 -1.5,-2 -0.831,0 -1.5,0.892 -1.5,2 v 0.5 7.5 0.5 C 27,22.777 26.777,23 26.5,23 26.223,23 26,22.777 26,22.5 V 22 14.5 13 c 0,-1.108 -0.669,-2 -1.5,-2 z"
     style="opacity:0.2;vector-effect:none;fill:#000000;fill-opacity:1;stroke:none;stroke-width:5.95039177;stroke-linecap:round;stroke-linejoin:round;stroke-miterlimit:4;stroke-dasharray:none;stroke-dashoffset:0;stroke-opacity:1" />
  <path
     style="opacity:1;vector-effect:none;fill:#ffffff;fill-opacity:1;stroke:none;stroke-width:5.95039177;stroke-linecap:round;stroke-linejoin:round;stroke-miterlimit:4;stroke-dasharray:none;stroke-dashoffset:0;stroke-opacity:1"
     d="M 24.5,10 C 23.669,10 23,10.892 23,12 v 1.5 7.5 0.5 C 23,21.777 22.777,22 22.5,22 22.223,22 22,21.777 22,21.5 V 21 14 c 0,-1.108 -0.669,-2 -1.5,-2 -0.831,0 -1.5,0.892 -1.5,2 v 0.5 6.5 1.5 C 19,22.777 18.777,23 18.5,23 18.223,23 18,22.777 18,22.5 V 21 17 c 0,-1.108 -0.669,-2 -1.5,-2 -0.831,0 -1.5,0.892 -1.5,2 v 4 2 7.5 c 0,4.142136 3.581722,7.5 8,7.5 3.260906,0 6.060738,-0.03159 7.306641,-2.6551 h 0.002 l 0.0039,-0.0098 C 31.491414,32.071211 35.584037,24.750291 36.757992,21.382812 37.12275,20.336575 36.784862,19.273568 36.00018,19 35.215501,18.726432 34.340427,19.673834 33.924008,20.396484 33,22 30,26 30,26 c -0.04303,-0.882566 0,-2.939995 0,-5 v -8 c 0,-1.108 -0.669,-2 -1.5,-2 -0.831,0 -1.5,0.892 -1.5,2 v 0.5 7.5 0.5 C 27,21.777 26.777,22 26.5,22 26.223,22 26,21.777 26,21.5 V 21 13.5 12 c 0,-1.108 -0.669,-2 -1.5,-2 z"
     id="rect4505"
     inkscape:connector-curvature="0"
     sodipodi:nodetypes="ssccssscsssccssscsssccsscccccscssssccsssccss" />
  <path
     style="opacity:0.2;vector-effect:none;fill:#ffffff;fill-opacity:1;stroke:none;stroke-width:1.29067385;stroke-linecap:round;stroke-linejoin:round;stroke-miterlimit:4;stroke-dasharray:none;stroke-dashoffset:0;stroke-opacity:1"
     d="M 17.042969 4 A 3.0003 3.0003 0 0 0 14.919922 4.8710938 L 4.9394531 14.775391 A 3.0003 3.0003 0 0 0 4.0527344 16.894531 L 4 30.957031 A 3.0003 3.0003 0 0 0 4.0039062 31.033203 L 4.0527344 17.894531 A 3.0003 3.0003 0 0 1 4.9394531 15.775391 L 14.919922 5.8710938 A 3.0003 3.0003 0 0 1 17.042969 5 L 31.105469 5.0527344 A 3.0003 3.0003 0 0 1 32.230469 5.2773438 A 3.0003 3.0003 0 0 1 33.222656 5.9394531 L 43.128906 15.917969 A 3.0003 3.0003 0 0 1 43.996094 17.966797 L 44 17.042969 A 3.0003 3.0003 0 0 0 43.128906 14.917969 L 33.222656 4.9394531 A 3.0003 3.0003 0 0 0 32.230469 4.2773438 A 3.0003 3.0003 0 0 0 31.105469 4.0527344 L 17.042969 4 z "
     id="path4541" />
</svg>
