<svg width="48" height="48" version="1" xmlns="http://www.w3.org/2000/svg">
 <rect transform="matrix(0,-1,-1,0,0,0)" x="-44" y="-44" width="40" height="40" rx="20" ry="20" fill="#32867d"/>
 <path d="m24 4c-11.08 0-20 8.92-20 20 0 0.168-4e-3 0.333 0 0.5 0.2644-10.846 9.088-19.5 20-19.5s19.736 8.654 20 19.5c4e-3 -0.167 0-0.332 0-0.5 0-11.08-8.92-20-20-20z" fill="#fff" opacity=".1"/>
 <path d="m4.0117 24.5c-0.0041 0.167-0.0117 0.332-0.0117 0.5 0 11.08 8.92 20 20 20s20-8.92 20-20c0-0.168-8e-3 -0.333-0.012-0.5-0.264 10.846-9.076 19.5-19.988 19.5s-19.724-8.654-19.988-19.5z" opacity=".2"/>
 <path d="m28.5625 11.039063c-0.192985-0.02407-0.390266 0.06813-0.494141 0.248047l-1.511718 2.619141c-0.793809-0.264769-1.651111-0.417969-2.552735-0.417969-0.902957 0-1.764285 0.152454-2.558594 0.417969l-1.511718-2.619141c-0.103875-0.179916-0.30077-0.270322-0.494141-0.246093-0.06446 0.0081-0.129481 0.02787-0.189453 0.0625-0.239889 0.1385-0.320141 0.443704-0.181641 0.683593l1.44336 2.501953c-1.960829 0.957989-3.334991 2.693002-3.513672 4.710938h14c-0.178676-2.017871-1.547304-3.756374-3.507813-4.710938l1.44336-2.501953c0.1385-0.239889 0.0563-0.545093-0.183594-0.683593-0.05997-0.03463-0.123172-0.05643-0.1875-0.06445zm-7.513672 4.541016c0.43 0 0.773438 0.341766 0.773438 0.759766s-0.348438 0.761719-0.773438 0.761718c-0.43 0-0.777344-0.339718-0.777344-0.761718 0-0.418 0.348344-0.759766 0.777344-0.759766zm6 0c0.426 0 0.773438 0.341766 0.773438 0.759766s-0.348438 0.761719-0.773438 0.761718c-0.43 0-0.777344-0.339718-0.777344-0.761718 0-0.418 0.348344-0.759766 0.777344-0.759766zm-12.482422 4.419922c-0.863 0-1.566406 0.758406-1.566406 1.691405v6.617188c0 0.934 0.703406 1.695312 1.566406 1.695312s1.433594-0.762312 1.433594-1.695312v-6.617188c0-0.933999-0.569594-1.691405-1.433594-1.691405zm2.4375 0v11.593749c0 0.688 0.32 1.40625 1 1.40625h2v3.375c0 0.898 0.616282 1.625 1.488282 1.625 0.867 0 1.511718-0.727 1.511718-1.625v-3.375h2v3.375c0 0.898 0.741282 1.625 1.613282 1.625 0.867 0 1.390624-0.727 1.390624-1.625v-3.375h2c0.676 0 1-0.7193 1-1.40625v-11.593749zm16.433594 0c-0.863 0-1.433594 0.758406-1.433594 1.691405v6.617188c0 0.934 0.569594 1.695312 1.433594 1.695312 0.867 0 1.5625-0.762312 1.5625-1.695312v-6.617188c0-0.933999-0.6985-1.691405-1.5625-1.691405z" style="opacity:.2"/>
 <path d="m28.5625 10.039063c-0.192985-0.02407-0.390266 0.06813-0.494141 0.248047l-1.511718 2.619141c-0.793809-0.264769-1.651111-0.417969-2.552735-0.417969-0.902957 0-1.764285 0.152454-2.558594 0.417969l-1.511718-2.619141c-0.103875-0.179916-0.30077-0.270322-0.494141-0.246093-0.06446 0.0081-0.129481 0.02787-0.189453 0.0625-0.239889 0.1385-0.320141 0.443704-0.181641 0.683593l1.44336 2.501953c-1.960829 0.957989-3.334991 2.693002-3.513672 4.710938h14c-0.178676-2.017871-1.547304-3.756374-3.507813-4.710938l1.44336-2.501953c0.1385-0.239889 0.0563-0.545093-0.183594-0.683593-0.05997-0.03463-0.123172-0.05643-0.1875-0.06445zm-7.513672 4.541016c0.43 0 0.773438 0.341766 0.773438 0.759766s-0.348438 0.761719-0.773438 0.761718c-0.43 0-0.777344-0.339718-0.777344-0.761718 0-0.418 0.348344-0.759766 0.777344-0.759766zm6 0c0.426 0 0.773438 0.341766 0.773438 0.759766s-0.348438 0.761719-0.773438 0.761718c-0.43 0-0.777344-0.339718-0.777344-0.761718 0-0.418 0.348344-0.759766 0.777344-0.759766zm-12.482422 4.419922c-0.863 0-1.566406 0.758406-1.566406 1.691405v6.617188c0 0.934 0.703406 1.695312 1.566406 1.695312s1.433594-0.762312 1.433594-1.695312v-6.617188c0-0.933999-0.569594-1.691405-1.433594-1.691405zm2.4375 0v11.593749c0 0.688 0.32 1.40625 1 1.40625h2v3.375c0 0.898 0.616282 1.625 1.488282 1.625 0.867 0 1.511718-0.727 1.511718-1.625v-3.375h2v3.375c0 0.898 0.741282 1.625 1.613282 1.625 0.867 0 1.390624-0.727 1.390624-1.625v-3.375h2c0.676 0 1-0.7193 1-1.40625v-11.593749zm16.433594 0c-0.863 0-1.433594 0.758406-1.433594 1.691405v6.617188c0 0.934 0.569594 1.695312 1.433594 1.695312 0.867 0 1.5625-0.762312 1.5625-1.695312v-6.617188c0-0.933999-0.6985-1.691405-1.5625-1.691405z" style="fill:#7dff7c"/>
</svg>
