<?xml version="1.0" encoding="UTF-8" standalone="no"?>
<svg
   xmlns:dc="http://purl.org/dc/elements/1.1/"
   xmlns:cc="http://creativecommons.org/ns#"
   xmlns:rdf="http://www.w3.org/1999/02/22-rdf-syntax-ns#"
   xmlns:svg="http://www.w3.org/2000/svg"
   xmlns="http://www.w3.org/2000/svg"
   xmlns:sodipodi="http://sodipodi.sourceforge.net/DTD/sodipodi-0.dtd"
   xmlns:inkscape="http://www.inkscape.org/namespaces/inkscape"
   height="48"
   width="48"
   version="1"
   id="svg12"
   sodipodi:docname="archos-video-player.svg"
   inkscape:version="0.92.1 r15371">
  <metadata
     id="metadata18">
    <rdf:RDF>
      <cc:Work
         rdf:about="">
        <dc:format>image/svg+xml</dc:format>
        <dc:type
           rdf:resource="http://purl.org/dc/dcmitype/StillImage" />
        <dc:title></dc:title>
      </cc:Work>
    </rdf:RDF>
  </metadata>
  <defs
     id="defs16" />
  <sodipodi:namedview
     pagecolor="#ffffff"
     bordercolor="#666666"
     borderopacity="1"
     objecttolerance="10"
     gridtolerance="10"
     guidetolerance="10"
     inkscape:pageopacity="0"
     inkscape:pageshadow="2"
     inkscape:window-width="1600"
     inkscape:window-height="822"
     id="namedview14"
     showgrid="false"
     inkscape:zoom="7.03"
     inkscape:cx="30.708393"
     inkscape:cy="24"
     inkscape:window-x="0"
     inkscape:window-y="0"
     inkscape:window-maximized="1"
     inkscape:current-layer="svg12">
    <inkscape:grid
       type="xygrid"
       id="grid4500" />
  </sodipodi:namedview>
  <rect
     transform="matrix(0,-1,-1,0,0,0)"
     rx="2"
     ry="2"
     height="40"
     width="40"
     y="-44"
     x="-44"
     fill="#f59335"
     id="rect2"
     style="fill:#43acda;fill-opacity:1" />
  <path
     opacity=".2"
     d="m6 4c-1.108 0-2 0.892-2 2v1c0-1.108 0.892-2 2-2h36c1.108 0 2 0.892 2 2v-1c0-1.108-0.892-2-2-2h-36z"
     fill="#fff"
     id="path4"
     style="opacity:0.1" />
  <path
     opacity=".2"
     d="m6 45c-1.108 0-2-0.892-2-2v-1c0 1.108 0.892 2 2 2h36c1.108 0 2-0.892 2-2v1c0 1.108-0.892 2-2 2h-36z"
     id="path6" />
  <rect
     style="opacity:0.3;fill:#000000;fill-opacity:1;stroke:none;stroke-width:8.85190868;stroke-linecap:round;stroke-linejoin:round;stroke-miterlimit:4;stroke-dasharray:none;stroke-dashoffset:0;stroke-opacity:1"
     id="rect4486"
     width="4"
     height="4"
     x="6"
     y="7"
     rx="0.89935482"
     ry="0.87125003" />
  <rect
     ry="0.87125003"
     rx="0.89935482"
     y="19"
     x="6"
     height="4"
     width="4"
     id="rect4492"
     style="opacity:0.3;fill:#000000;fill-opacity:1;stroke:none;stroke-width:8.85190868;stroke-linecap:round;stroke-linejoin:round;stroke-miterlimit:4;stroke-dasharray:none;stroke-dashoffset:0;stroke-opacity:1" />
  <path
     style="opacity:0.2;fill:#000000;fill-opacity:1;stroke-width:1.03378677"
     id="path4508"
     d="m 18.603175,17.00012 c -0.544617,-0.01067 -0.638296,0.689704 -0.59328,1.195302 0.004,4.731926 -0.007,9.464493 0.005,14.196207 0.04789,0.565758 0.655619,0.791805 1.001143,0.440948 3.692794,-2.422603 9.064213,-4.828566 12.751497,-7.261624 0.402343,-0.334889 0.248247,-1.114768 -0.200836,-1.276901 -3.692895,-2.413003 -9.050587,-4.839233 -12.746487,-7.244023 -0.06903,-0.03285 -0.143225,-0.04981 -0.217458,-0.04992 z"
     inkscape:connector-curvature="0" />
  <path
     inkscape:connector-curvature="0"
     d="m 18.603175,16.00012 c -0.544617,-0.01067 -0.638296,0.689704 -0.59328,1.195302 0.004,4.731926 -0.007,9.464493 0.005,14.196207 0.04789,0.565758 0.655619,0.791805 1.001143,0.440948 3.692794,-2.422603 9.064213,-4.828566 12.751497,-7.261624 0.402343,-0.334889 0.248247,-1.114768 -0.200836,-1.276901 -3.692895,-2.413003 -9.050587,-4.839233 -12.746487,-7.244023 -0.06903,-0.03285 -0.143225,-0.04981 -0.217458,-0.04992 z"
     id="path20"
     style="fill:#ffffff;fill-opacity:1;stroke-width:1.03378677" />
  <rect
     style="opacity:0.3;fill:#000000;fill-opacity:1;stroke:none;stroke-width:8.85190868;stroke-linecap:round;stroke-linejoin:round;stroke-miterlimit:4;stroke-dasharray:none;stroke-dashoffset:0;stroke-opacity:1"
     id="rect4525"
     width="4"
     height="4"
     x="6"
     y="13"
     rx="0.89935482"
     ry="0.87125003" />
  <rect
     ry="0.87125003"
     rx="0.89935482"
     y="25.000004"
     x="6"
     height="4"
     width="4"
     id="rect4527"
     style="opacity:0.3;fill:#000000;fill-opacity:1;stroke:none;stroke-width:8.85190868;stroke-linecap:round;stroke-linejoin:round;stroke-miterlimit:4;stroke-dasharray:none;stroke-dashoffset:0;stroke-opacity:1" />
  <rect
     style="opacity:0.3;fill:#000000;fill-opacity:1;stroke:none;stroke-width:8.85190868;stroke-linecap:round;stroke-linejoin:round;stroke-miterlimit:4;stroke-dasharray:none;stroke-dashoffset:0;stroke-opacity:1"
     id="rect4529"
     width="4"
     height="4"
     x="6"
     y="37"
     rx="0.89935482"
     ry="0.87125003" />
  <rect
     ry="0.87125003"
     rx="0.89935482"
     y="30.999998"
     x="6"
     height="4"
     width="4"
     id="rect4531"
     style="opacity:0.3;fill:#000000;fill-opacity:1;stroke:none;stroke-width:8.85190868;stroke-linecap:round;stroke-linejoin:round;stroke-miterlimit:4;stroke-dasharray:none;stroke-dashoffset:0;stroke-opacity:1" />
  <rect
     ry="0.87125003"
     rx="0.89935482"
     y="7"
     x="37.999989"
     height="4"
     width="4"
     id="rect4533"
     style="opacity:0.3;fill:#000000;fill-opacity:1;stroke:none;stroke-width:8.85190868;stroke-linecap:round;stroke-linejoin:round;stroke-miterlimit:4;stroke-dasharray:none;stroke-dashoffset:0;stroke-opacity:1" />
  <rect
     style="opacity:0.3;fill:#000000;fill-opacity:1;stroke:none;stroke-width:8.85190868;stroke-linecap:round;stroke-linejoin:round;stroke-miterlimit:4;stroke-dasharray:none;stroke-dashoffset:0;stroke-opacity:1"
     id="rect4535"
     width="4"
     height="4"
     x="37.999989"
     y="19"
     rx="0.89935482"
     ry="0.87125003" />
  <rect
     ry="0.87125003"
     rx="0.89935482"
     y="13"
     x="37.999989"
     height="4"
     width="4"
     id="rect4537"
     style="opacity:0.3;fill:#000000;fill-opacity:1;stroke:none;stroke-width:8.85190868;stroke-linecap:round;stroke-linejoin:round;stroke-miterlimit:4;stroke-dasharray:none;stroke-dashoffset:0;stroke-opacity:1" />
  <rect
     style="opacity:0.3;fill:#000000;fill-opacity:1;stroke:none;stroke-width:8.85190868;stroke-linecap:round;stroke-linejoin:round;stroke-miterlimit:4;stroke-dasharray:none;stroke-dashoffset:0;stroke-opacity:1"
     id="rect4539"
     width="4"
     height="4"
     x="37.999989"
     y="25.000004"
     rx="0.89935482"
     ry="0.87125003" />
  <rect
     ry="0.87125003"
     rx="0.89935482"
     y="37"
     x="37.999989"
     height="4"
     width="4"
     id="rect4541"
     style="opacity:0.3;fill:#000000;fill-opacity:1;stroke:none;stroke-width:8.85190868;stroke-linecap:round;stroke-linejoin:round;stroke-miterlimit:4;stroke-dasharray:none;stroke-dashoffset:0;stroke-opacity:1" />
  <rect
     style="opacity:0.3;fill:#000000;fill-opacity:1;stroke:none;stroke-width:8.85190868;stroke-linecap:round;stroke-linejoin:round;stroke-miterlimit:4;stroke-dasharray:none;stroke-dashoffset:0;stroke-opacity:1"
     id="rect4543"
     width="4"
     height="4"
     x="37.999989"
     y="30.999998"
     rx="0.89935482"
     ry="0.87125003" />
</svg>
