<svg width="48" height="48" version="1" xmlns="http://www.w3.org/2000/svg">
 <path d="m44 40v-32c0-1.108-0.892-2-2-2h-36c-1.108 0-2 0.892-2 2v32c0 1.108 0.892 2 2 2h36c1.108 0 2-0.892 2-2z" fill="#4f4f4f"/>
 <g transform="translate(-144,-236)">
  <path d="m150 242c-1.108 0-2 0.892-2 2v6h40v-6c0-1.108-0.892-2-2-2z" opacity=".2"/>
  <path d="m150 242c-1.108 0-2 0.892-2 2v2h40v-2c0-1.108-0.892-2-2-2z" opacity=".2"/>
  <path d="m150 242c-1.108 0-2 0.892-2 2v6h9v-4l-4-4z" fill="#fff" opacity=".2"/>
  <path d="m163 246-4-4h5l4 4z" fill="#fff" fill-rule="evenodd" opacity=".2"/>
  <path d="m163 246-4 4h5l4-4z" fill="#fff" fill-rule="evenodd" opacity=".2"/>
  <path d="m173 246-4-4h5l4 4z" fill="#fff" fill-rule="evenodd" opacity=".2"/>
  <path d="m173 246-4 4h5l4-4z" fill="#fff" fill-rule="evenodd" opacity=".2"/>
  <path d="m183 246-4-4h5l4 4z" fill="#fff" fill-rule="evenodd" opacity=".2"/>
  <path d="m183 246-4 4h5l4-4z" fill="#fff" fill-rule="evenodd" opacity=".2"/>
  <path d="m150 242c-1.108 0-2 0.892-2 2v1c0-1.108 0.892-2 2-2h36c1.108 0 2 0.892 2 2v-1c0-1.108-0.892-2-2-2h-36z" fill="#fff" opacity=".2"/>
 </g>
 <path d="m4 40v1c0 1.108 0.892 2 2 2h36c1.108 0 2-0.892 2-2v-1c0 1.108-0.892 2-2 2h-36c-1.108 0-2-0.892-2-2z" opacity=".2"/>
 <path d="m15.003 20h13.997c1 0 1 1 1 1v12c0 1-1 1-1 1h-13.997s-1 0-1-1v-12s0-1 1-1zm20.997 1.5v11.5l-6-6z" opacity=".2"/>
 <path d="m15.003 19h13.997c1 0 1 1 1 1v12c0 1-1 1-1 1h-13.997s-1 0-1-1v-12s0-1 1-1zm20.997 1.5v11.5l-6-6z" fill="#bababa"/>
</svg>
