<?xml version="1.0" encoding="UTF-8" standalone="no"?>
<svg
   xmlns:dc="http://purl.org/dc/elements/1.1/"
   xmlns:cc="http://creativecommons.org/ns#"
   xmlns:rdf="http://www.w3.org/1999/02/22-rdf-syntax-ns#"
   xmlns:svg="http://www.w3.org/2000/svg"
   xmlns="http://www.w3.org/2000/svg"
   xmlns:sodipodi="http://sodipodi.sourceforge.net/DTD/sodipodi-0.dtd"
   xmlns:inkscape="http://www.inkscape.org/namespaces/inkscape"
   height="48"
   width="48"
   version="1"
   id="svg20"
   sodipodi:docname="black-player.svg"
   inkscape:version="0.92.1 r15371">
  <metadata
     id="metadata26">
    <rdf:RDF>
      <cc:Work
         rdf:about="">
        <dc:format>image/svg+xml</dc:format>
        <dc:type
           rdf:resource="http://purl.org/dc/dcmitype/StillImage" />
        <dc:title></dc:title>
      </cc:Work>
    </rdf:RDF>
  </metadata>
  <defs
     id="defs24" />
  <sodipodi:namedview
     pagecolor="#ffffff"
     bordercolor="#666666"
     borderopacity="1"
     objecttolerance="10"
     gridtolerance="10"
     guidetolerance="10"
     inkscape:pageopacity="0"
     inkscape:pageshadow="2"
     inkscape:window-width="1600"
     inkscape:window-height="831"
     id="namedview22"
     showgrid="false"
     inkscape:zoom="1"
     inkscape:cx="-0.84633695"
     inkscape:cy="24"
     inkscape:window-x="0"
     inkscape:window-y="0"
     inkscape:window-maximized="1"
     inkscape:current-layer="svg20" />
  <path
     id="path4525"
     d="M 24,5 C 13.851651,5 5.5215583,12.483985 4.1914062,22.255859 l 1.6171876,1.001953 1.8847656,1.169922 a 0.61650662,0.66248859 0 0 1 0,1.146485 L 5.8085938,26.744141 4.1914062,27.746094 C 5.5223868,37.517031 13.852314,45 24,45 35.08,45 44,36.08 44,25 44,13.92 35.08,5 24,5 Z"
     style="opacity:0.2;fill:#000000;fill-opacity:1"
     inkscape:connector-curvature="0" />
  <path
     style="fill:#5d5d5d;fill-opacity:1"
     d="M 24 4 C 13.851651 4 5.5215583 11.483985 4.1914062 21.255859 L 5.8085938 22.257812 L 7.6933594 23.427734 A 0.61650662 0.66248859 0 0 1 7.6933594 24.574219 L 5.8085938 25.744141 L 4.1914062 26.746094 C 5.5223868 36.517031 13.852314 44 24 44 C 35.08 44 44 35.08 44 24 C 44 12.92 35.08 4 24 4 z "
     id="rect2" />
  <path
     style="opacity:1;fill:#3f3f3f;fill-opacity:1;stroke:none;stroke-width:4.46574068;stroke-linecap:round;stroke-linejoin:round;stroke-miterlimit:4;stroke-dasharray:none;stroke-dashoffset:0;stroke-opacity:1"
     d="M 24 9 A 15 15 0 0 0 9.171875 21.863281 L 9.8085938 22.257812 L 11.693359 23.427734 A 0.61650662 0.66248859 0 0 1 11.693359 24.574219 L 9.8085938 25.744141 L 9.1679688 26.140625 A 15 15 0 0 0 24 39 A 15 15 0 0 0 39 24 A 15 15 0 0 0 24 9 z "
     id="path4497" />
  <path
     id="path4518"
     d="M 20.515625,18.000338 A 1.4796158,1.5458069 0 0 0 19,19.54526 v 3.210937 l 0.808594,0.501953 1.884765,1.169922 a 0.61650662,0.66248859 0 0 1 0,1.146485 L 19.808594,26.744479 19,27.246432 v 3.208984 a 1.4796158,1.5458069 0 0 0 2.21875,1.337891 l 4.523438,-2.72461 4.521484,-2.730468 a 1.4796158,1.5458069 0 0 0 0,-2.671875 L 30,23.506197 v 1.494141 H 29 V 22.902682 L 27,21.69565 v 3.304688 H 26 V 21.092135 L 25.742188,20.935885 24,19.887057 v 5.113281 h -1 v -5.716797 l -1.78125,-1.072265 a 1.4796158,1.5458069 0 0 0 -0.703125,-0.210938 z"
     style="opacity:0.2;fill:#000000;fill-opacity:1;stroke:none;stroke-width:3.6039865;stroke-linecap:round;stroke-linejoin:round;stroke-miterlimit:4;stroke-dasharray:none;stroke-dashoffset:0;stroke-opacity:1"
     inkscape:connector-curvature="0" />
  <path
     style="opacity:1;fill:#ffffff;fill-opacity:1;stroke:none;stroke-width:3.6039865;stroke-linecap:round;stroke-linejoin:round;stroke-miterlimit:4;stroke-dasharray:none;stroke-dashoffset:0;stroke-opacity:1"
     d="M 20.515625 17 A 1.4796158 1.5458069 0 0 0 19 18.544922 L 19 21.755859 L 19.808594 22.257812 L 21.693359 23.427734 A 0.61650662 0.66248859 0 0 1 21.693359 24.574219 L 19.808594 25.744141 L 19 26.246094 L 19 29.455078 A 1.4796158 1.5458069 0 0 0 21.21875 30.792969 L 25.742188 28.068359 L 30.263672 25.337891 A 1.4796158 1.5458069 0 0 0 30.263672 22.666016 L 30 22.505859 L 30 24 L 29 24 L 29 21.902344 L 27 20.695312 L 27 24 L 26 24 L 26 20.091797 L 25.742188 19.935547 L 24 18.886719 L 24 24 L 23 24 L 23 18.283203 L 21.21875 17.210938 A 1.4796158 1.5458069 0 0 0 20.515625 17 z "
     id="path4514" />
  <path
     style="fill:#ffffff;fill-opacity:1;opacity:0.1"
     d="M 24 4 C 13.851651 4 5.5215583 11.483985 4.1914062 21.255859 L 4.3554688 21.357422 C 6.0614034 12.032392 14.167398 5 24 5 C 34.912126 5 43.72361 13.653863 43.988281 24.5 C 43.992353 24.333141 44 24.167874 44 24 C 44 12.92 35.08 4 24 4 z M 7.7871094 24.501953 A 0.61650662 0.66248859 0 0 1 7.6933594 24.574219 L 5.8085938 25.744141 L 4.1914062 26.746094 C 4.2328172 27.050098 4.3006635 27.345113 4.3554688 27.644531 L 5.8085938 26.744141 L 7.6933594 25.574219 A 0.61650662 0.66248859 0 0 0 7.7871094 24.501953 z "
     id="path4520" />
</svg>
