<?xml version="1.0" encoding="UTF-8" standalone="no"?>
<svg
   xmlns:dc="http://purl.org/dc/elements/1.1/"
   xmlns:cc="http://creativecommons.org/ns#"
   xmlns:rdf="http://www.w3.org/1999/02/22-rdf-syntax-ns#"
   xmlns:svg="http://www.w3.org/2000/svg"
   xmlns="http://www.w3.org/2000/svg"
   xmlns:sodipodi="http://sodipodi.sourceforge.net/DTD/sodipodi-0.dtd"
   xmlns:inkscape="http://www.inkscape.org/namespaces/inkscape"
   height="48"
   width="48"
   version="1"
   id="svg12"
   sodipodi:docname="browser-apus.svg"
   inkscape:version="0.92.1 r15371">
  <metadata
     id="metadata18">
    <rdf:RDF>
      <cc:Work
         rdf:about="">
        <dc:format>image/svg+xml</dc:format>
        <dc:type
           rdf:resource="http://purl.org/dc/dcmitype/StillImage" />
        <dc:title />
      </cc:Work>
    </rdf:RDF>
  </metadata>
  <defs
     id="defs16" />
  <sodipodi:namedview
     pagecolor="#ffffff"
     bordercolor="#666666"
     borderopacity="1"
     objecttolerance="10"
     gridtolerance="10"
     guidetolerance="10"
     inkscape:pageopacity="0"
     inkscape:pageshadow="2"
     inkscape:window-width="1600"
     inkscape:window-height="822"
     id="namedview14"
     showgrid="false"
     inkscape:zoom="4.04"
     inkscape:cx="-48.988359"
     inkscape:cy="16.995717"
     inkscape:window-x="0"
     inkscape:window-y="0"
     inkscape:window-maximized="1"
     inkscape:current-layer="svg12">
    <inkscape:grid
       type="xygrid"
       id="grid4500" />
  </sodipodi:namedview>
  <path
     inkscape:connector-curvature="0"
     id="path4574"
     d="m 24.087869,5.0010329 a 3.7494596,3.7115047 0 0 0 -1.962412,0.495784 L 7.8745424,13.642465 A 3.7494596,3.7115047 0 0 0 6,16.856364 v 16.288398 a 3.7494596,3.7115047 0 0 0 1.8745424,3.213899 l 14.2509146,8.144198 a 3.7494596,3.7115047 0 0 0 3.749086,0 L 40.125458,36.358661 A 3.7494596,3.7115047 0 0 0 42,33.144762 V 16.856364 A 3.7494596,3.7115047 0 0 0 40.125458,13.642465 L 25.874543,5.4968169 a 3.7494596,3.7115047 0 0 0 -1.786674,-0.495784 z"
     style="opacity:0.2;vector-effect:none;fill:#000000;fill-opacity:1;stroke:none;stroke-width:2.98404884;stroke-linecap:round;stroke-linejoin:round;stroke-miterlimit:4;stroke-dasharray:none;stroke-dashoffset:0;stroke-opacity:1" />
  <g
     style="opacity:0.1;fill:#ffffff;fill-opacity:1"
     transform="matrix(0.5,0,0,0.5,12,15)"
     id="g4499" />
  <path
     style="opacity:1;vector-effect:none;fill:#cccccc;fill-opacity:1;stroke:none;stroke-width:2.98404884;stroke-linecap:round;stroke-linejoin:round;stroke-miterlimit:4;stroke-dasharray:none;stroke-dashoffset:0;stroke-opacity:1"
     d="m 24.087869,4.0010325 a 3.7494596,3.7115047 0 0 0 -1.962412,0.495784 L 7.8745424,12.642465 A 3.7494596,3.7115047 0 0 0 6,15.856364 v 16.288398 a 3.7494596,3.7115047 0 0 0 1.8745424,3.213899 l 14.2509146,8.144198 a 3.7494596,3.7115047 0 0 0 3.749086,0 L 40.125458,35.358661 A 3.7494596,3.7115047 0 0 0 42,32.144762 V 15.856364 A 3.7494596,3.7115047 0 0 0 40.125458,12.642465 L 25.874543,4.4968165 a 3.7494596,3.7115047 0 0 0 -1.786674,-0.495784 z"
     id="path4503"
     inkscape:connector-curvature="0" />
  <path
     id="path4578"
     d="M 37.990234,20.384409 35,22.112925 v 7.365234 c -7.6e-5,1.092088 -0.598096,2.100685 -1.548828,2.638673 l -7.917969,4.478514 c -0.950804,0.537885 -2.115602,0.537885 -3.066406,0 l -7.917969,-4.478514 c -0.14261,-0.0807 -0.27448,-0.174823 -0.40039,-0.275392 l -2.681641,1.548828 c 0.452536,0.528549 0.98823,0.988616 1.605469,1.337891 l 7.916015,4.478515 a 4.0004,4.0004 0 0 0 0,0.002 c 1.869896,1.05783 4.153542,1.05783 6.023438,0 a 4.0004,4.0004 0 0 0 0,-0.002 l 7.916015,-4.478515 C 36.797587,33.670125 37.999849,31.660852 38,29.480112 v -8.958984 c -3e-6,-0.0461 -0.0087,-0.09078 -0.0098,-0.136719 z"
     style="color:#000000;font-style:normal;font-variant:normal;font-weight:normal;font-stretch:normal;font-size:medium;line-height:normal;font-family:sans-serif;font-variant-ligatures:normal;font-variant-position:normal;font-variant-caps:normal;font-variant-numeric:normal;font-variant-alternates:normal;font-feature-settings:normal;text-indent:0;text-align:start;text-decoration:none;text-decoration-line:none;text-decoration-style:solid;text-decoration-color:#000000;letter-spacing:normal;word-spacing:normal;text-transform:none;writing-mode:lr-tb;direction:ltr;text-orientation:mixed;dominant-baseline:auto;baseline-shift:baseline;text-anchor:start;white-space:normal;shape-padding:0;clip-rule:nonzero;display:inline;overflow:visible;visibility:visible;opacity:0.2;isolation:auto;mix-blend-mode:normal;color-interpolation:sRGB;color-interpolation-filters:linearRGB;solid-color:#000000;solid-opacity:1;vector-effect:none;fill:#000102;fill-opacity:1;fill-rule:nonzero;stroke:none;stroke-width:8;stroke-linecap:round;stroke-linejoin:round;stroke-miterlimit:4;stroke-dasharray:none;stroke-dashoffset:0;stroke-opacity:1;color-rendering:auto;image-rendering:auto;shape-rendering:auto;text-rendering:auto;enable-background:accumulate"
     inkscape:connector-curvature="0" />
  <path
     style="color:#000000;font-style:normal;font-variant:normal;font-weight:normal;font-stretch:normal;font-size:medium;line-height:normal;font-family:sans-serif;font-variant-ligatures:normal;font-variant-position:normal;font-variant-caps:normal;font-variant-numeric:normal;font-variant-alternates:normal;font-feature-settings:normal;text-indent:0;text-align:start;text-decoration:none;text-decoration-line:none;text-decoration-style:solid;text-decoration-color:#000000;letter-spacing:normal;word-spacing:normal;text-transform:none;writing-mode:lr-tb;direction:ltr;text-orientation:mixed;dominant-baseline:auto;baseline-shift:baseline;text-anchor:start;white-space:normal;shape-padding:0;clip-rule:nonzero;display:inline;overflow:visible;visibility:visible;opacity:1;isolation:auto;mix-blend-mode:normal;color-interpolation:sRGB;color-interpolation-filters:linearRGB;solid-color:#000000;solid-opacity:1;vector-effect:none;fill:#446db9;fill-opacity:1;fill-rule:nonzero;stroke:none;stroke-width:8;stroke-linecap:round;stroke-linejoin:round;stroke-miterlimit:4;stroke-dasharray:none;stroke-dashoffset:0;stroke-opacity:1;color-rendering:auto;image-rendering:auto;shape-rendering:auto;text-rendering:auto;enable-background:accumulate"
     d="M 37.990234 19.384766 L 35 21.113281 L 35 28.478516 C 34.999924 29.570604 34.401904 30.5792 33.451172 31.117188 L 25.533203 35.595703 C 24.582399 36.133588 23.417601 36.133588 22.466797 35.595703 L 14.548828 31.117188 C 14.406218 31.036489 14.274348 30.942366 14.148438 30.841797 L 11.466797 32.390625 C 11.919333 32.919174 12.455027 33.379241 13.072266 33.728516 L 20.988281 38.207031 A 4.0004 4.0004 0 0 0 20.988281 38.208984 C 22.858177 39.266814 25.141823 39.266814 27.011719 38.208984 A 4.0004 4.0004 0 0 0 27.011719 38.207031 L 34.927734 33.728516 C 36.797587 32.670482 37.999849 30.661209 38 28.480469 L 38 19.521484 C 37.999997 19.475382 37.991307 19.430709 37.990234 19.384766 z "
     id="path4557" />
  <path
     id="path4576"
     d="m 24.140625,10.001597 c -1.10079,-0.02545 -2.187342,0.244469 -3.150391,0.789062 a 4.0004,4.0004 0 0 0 -0.002,0 l -7.916015,4.480469 c -1.86976,1.058035 -3.072116,3.069258 -3.072266,5.25 v 8.958984 c 5.3e-5,0.767242 0.158854,1.5083 0.435547,2.197266 L 6.1445312,34.15394 a 3.7494596,3.7115047 0 0 0 1.0507813,1.703125 L 11.466797,33.390268 12,33.081674 14.148438,31.84144 C 13.434945,31.27155 13.000065,30.406434 13,29.478159 v -8.958984 c 7.5e-5,-1.09209 0.598096,-2.098732 1.548828,-2.636719 l 7.917969,-4.480468 c 0.489016,-0.276533 1.043731,-0.415334 1.605469,-0.402344 0.513086,0.0117 1.014274,0.14977 1.460937,0.402344 l 7.917969,4.480468 c 0.141765,0.08022 0.267624,0.179389 0.392578,0.279297 L 19,26.732065 v 2.308594 l 15.917969,-9.191406 2.175781,-1.25586 0.148438,-0.08594 0.328124,-0.1875 4.285157,-2.474609 a 3.7494596,3.7115047 0 0 0 -1.050781,-1.703125 l -4.267579,2.464844 C 36.08607,16.077017 35.545293,15.620585 34.927734,15.271128 l -7.916015,-4.480469 a 4.0004,4.0004 0 0 0 -0.002,0 C 26.130188,10.293232 25.14611,10.024534 24.140625,10.001597 Z"
     style="color:#000000;font-style:normal;font-variant:normal;font-weight:normal;font-stretch:normal;font-size:medium;line-height:normal;font-family:sans-serif;font-variant-ligatures:normal;font-variant-position:normal;font-variant-caps:normal;font-variant-numeric:normal;font-variant-alternates:normal;font-feature-settings:normal;text-indent:0;text-align:start;text-decoration:none;text-decoration-line:none;text-decoration-style:solid;text-decoration-color:#000000;letter-spacing:normal;word-spacing:normal;text-transform:none;writing-mode:lr-tb;direction:ltr;text-orientation:mixed;dominant-baseline:auto;baseline-shift:baseline;text-anchor:start;white-space:normal;shape-padding:0;clip-rule:nonzero;display:inline;overflow:visible;visibility:visible;opacity:0.2;isolation:auto;mix-blend-mode:normal;color-interpolation:sRGB;color-interpolation-filters:linearRGB;solid-color:#000000;solid-opacity:1;vector-effect:none;fill:#000102;fill-opacity:1;fill-rule:nonzero;stroke:none;stroke-width:8;stroke-linecap:round;stroke-linejoin:round;stroke-miterlimit:4;stroke-dasharray:none;stroke-dashoffset:0;stroke-opacity:1;color-rendering:auto;image-rendering:auto;shape-rendering:auto;text-rendering:auto;enable-background:accumulate"
     inkscape:connector-curvature="0" />
  <path
     style="color:#000000;font-style:normal;font-variant:normal;font-weight:normal;font-stretch:normal;font-size:medium;line-height:normal;font-family:sans-serif;font-variant-ligatures:normal;font-variant-position:normal;font-variant-caps:normal;font-variant-numeric:normal;font-variant-alternates:normal;font-feature-settings:normal;text-indent:0;text-align:start;text-decoration:none;text-decoration-line:none;text-decoration-style:solid;text-decoration-color:#000000;letter-spacing:normal;word-spacing:normal;text-transform:none;writing-mode:lr-tb;direction:ltr;text-orientation:mixed;dominant-baseline:auto;baseline-shift:baseline;text-anchor:start;white-space:normal;shape-padding:0;clip-rule:nonzero;display:inline;overflow:visible;visibility:visible;opacity:1;isolation:auto;mix-blend-mode:normal;color-interpolation:sRGB;color-interpolation-filters:linearRGB;solid-color:#000000;solid-opacity:1;vector-effect:none;fill:#25a6c0;fill-opacity:1;fill-rule:nonzero;stroke:none;stroke-width:8;stroke-linecap:round;stroke-linejoin:round;stroke-miterlimit:4;stroke-dasharray:none;stroke-dashoffset:0;stroke-opacity:1;color-rendering:auto;image-rendering:auto;shape-rendering:auto;text-rendering:auto;enable-background:accumulate"
     d="M 24.140625 9.0019531 C 23.039835 8.9765031 21.953283 9.2464225 20.990234 9.7910156 A 4.0004 4.0004 0 0 0 20.988281 9.7910156 L 13.072266 14.271484 C 11.202506 15.329519 10.00015 17.340743 10 19.521484 L 10 28.480469 C 10.000053 29.24771 10.158854 29.988768 10.435547 30.677734 L 6.1445312 33.154297 A 3.7494596 3.7115047 0 0 0 7.1953125 34.857422 L 11.466797 32.390625 L 12 32.082031 L 14.148438 30.841797 C 13.434945 30.271906 13.000065 29.40679 13 28.478516 L 13 19.519531 C 13.000075 18.427442 13.598096 17.4208 14.548828 16.882812 L 22.466797 12.402344 C 22.955813 12.125811 23.510528 11.98701 24.072266 12 C 24.585352 12.0117 25.08654 12.14977 25.533203 12.402344 L 33.451172 16.882812 C 33.592937 16.963033 33.718796 17.062202 33.84375 17.162109 L 19 25.732422 L 19 28.041016 L 34.917969 18.849609 L 37.09375 17.59375 L 37.242188 17.507812 L 37.570312 17.320312 L 41.855469 14.845703 A 3.7494596 3.7115047 0 0 0 40.804688 13.142578 L 36.537109 15.607422 C 36.08607 15.077373 35.545293 14.620941 34.927734 14.271484 L 27.011719 9.7910156 A 4.0004 4.0004 0 0 0 27.009766 9.7910156 C 26.130188 9.2935886 25.14611 9.02489 24.140625 9.0019531 z "
     id="path4537" />
  <path
     style="color:#000000;font-style:normal;font-variant:normal;font-weight:normal;font-stretch:normal;font-size:medium;line-height:normal;font-family:sans-serif;font-variant-ligatures:normal;font-variant-position:normal;font-variant-caps:normal;font-variant-numeric:normal;font-variant-alternates:normal;font-feature-settings:normal;text-indent:0;text-align:start;text-decoration:none;text-decoration-line:none;text-decoration-style:solid;text-decoration-color:#000000;letter-spacing:normal;word-spacing:normal;text-transform:none;writing-mode:lr-tb;direction:ltr;text-orientation:mixed;dominant-baseline:auto;baseline-shift:baseline;text-anchor:start;white-space:normal;shape-padding:0;clip-rule:nonzero;display:inline;overflow:visible;visibility:visible;opacity:1;isolation:auto;mix-blend-mode:normal;color-interpolation:sRGB;color-interpolation-filters:linearRGB;solid-color:#000000;solid-opacity:1;vector-effect:none;fill:#000000;fill-opacity:1;fill-rule:nonzero;stroke:none;stroke-width:8;stroke-linecap:round;stroke-linejoin:round;stroke-miterlimit:4;stroke-dasharray:none;stroke-dashoffset:0;stroke-opacity:1;color-rendering:auto;image-rendering:auto;shape-rendering:auto;text-rendering:auto;enable-background:accumulate"
     d="m 23.072266,16.753906 0.0059,0.0039 c -0.0019,-0.001 -0.004,-8.61e-4 -0.0059,-0.002 z"
     id="path4531" />
  <path
     style="color:#000000;font-style:normal;font-variant:normal;font-weight:normal;font-stretch:normal;font-size:medium;line-height:normal;font-family:sans-serif;font-variant-ligatures:normal;font-variant-position:normal;font-variant-caps:normal;font-variant-numeric:normal;font-variant-alternates:normal;font-feature-settings:normal;text-indent:0;text-align:start;text-decoration:none;text-decoration-line:none;text-decoration-style:solid;text-decoration-color:#000000;letter-spacing:normal;word-spacing:normal;text-transform:none;writing-mode:lr-tb;direction:ltr;text-orientation:mixed;dominant-baseline:auto;baseline-shift:baseline;text-anchor:start;white-space:normal;shape-padding:0;clip-rule:nonzero;display:inline;overflow:visible;visibility:visible;opacity:1;isolation:auto;mix-blend-mode:normal;color-interpolation:sRGB;color-interpolation-filters:linearRGB;solid-color:#000000;solid-opacity:1;vector-effect:none;fill:#000000;fill-opacity:1;fill-rule:nonzero;stroke:none;stroke-width:8;stroke-linecap:round;stroke-linejoin:round;stroke-miterlimit:4;stroke-dasharray:none;stroke-dashoffset:0;stroke-opacity:1;color-rendering:auto;image-rendering:auto;shape-rendering:auto;text-rendering:auto;enable-background:accumulate"
     d="m 24.927734,16.753906 v 0.002 c -0.0019,10e-4 -0.004,8.67e-4 -0.0059,0.002 z"
     id="path4529" />
  <path
     style="color:#000000;font-style:normal;font-variant:normal;font-weight:normal;font-stretch:normal;font-size:medium;line-height:normal;font-family:sans-serif;font-variant-ligatures:normal;font-variant-position:normal;font-variant-caps:normal;font-variant-numeric:normal;font-variant-alternates:normal;font-feature-settings:normal;text-indent:0;text-align:start;text-decoration:none;text-decoration-line:none;text-decoration-style:solid;text-decoration-color:#000000;letter-spacing:normal;word-spacing:normal;text-transform:none;writing-mode:lr-tb;direction:ltr;text-orientation:mixed;dominant-baseline:auto;baseline-shift:baseline;text-anchor:start;white-space:normal;shape-padding:0;clip-rule:nonzero;display:inline;overflow:visible;visibility:visible;opacity:1;isolation:auto;mix-blend-mode:normal;color-interpolation:sRGB;color-interpolation-filters:linearRGB;solid-color:#000000;solid-opacity:1;vector-effect:none;fill:#000000;fill-opacity:1;fill-rule:nonzero;stroke:none;stroke-width:8;stroke-linecap:round;stroke-linejoin:round;stroke-miterlimit:4;stroke-dasharray:none;stroke-dashoffset:0;stroke-opacity:1;color-rendering:auto;image-rendering:auto;shape-rendering:auto;text-rendering:auto;enable-background:accumulate"
     d="m 23.072266,31.244141 c 0.0012,-6.92e-4 0.0027,6.89e-4 0.0039,0 l -0.0039,0.002 z"
     id="path4525" />
  <path
     style="color:#000000;font-style:normal;font-variant:normal;font-weight:normal;font-stretch:normal;font-size:medium;line-height:normal;font-family:sans-serif;font-variant-ligatures:normal;font-variant-position:normal;font-variant-caps:normal;font-variant-numeric:normal;font-variant-alternates:normal;font-feature-settings:normal;text-indent:0;text-align:start;text-decoration:none;text-decoration-line:none;text-decoration-style:solid;text-decoration-color:#000000;letter-spacing:normal;word-spacing:normal;text-transform:none;writing-mode:lr-tb;direction:ltr;text-orientation:mixed;dominant-baseline:auto;baseline-shift:baseline;text-anchor:start;white-space:normal;shape-padding:0;clip-rule:nonzero;display:inline;overflow:visible;visibility:visible;opacity:1;isolation:auto;mix-blend-mode:normal;color-interpolation:sRGB;color-interpolation-filters:linearRGB;solid-color:#000000;solid-opacity:1;vector-effect:none;fill:#000000;fill-opacity:1;fill-rule:nonzero;stroke:none;stroke-width:8;stroke-linecap:round;stroke-linejoin:round;stroke-miterlimit:4;stroke-dasharray:none;stroke-dashoffset:0;stroke-opacity:1;color-rendering:auto;image-rendering:auto;shape-rendering:auto;text-rendering:auto;enable-background:accumulate"
     d="m 24.923828,31.244141 c 0.0012,6.89e-4 0.0027,-6.92e-4 0.0039,0 v 0.002 z"
     id="path4514" />
  <path
     style="opacity:0.2;vector-effect:none;fill:#ffffff;fill-opacity:1;stroke:none;stroke-width:2.98404884;stroke-linecap:round;stroke-linejoin:round;stroke-miterlimit:4;stroke-dasharray:none;stroke-dashoffset:0;stroke-opacity:1"
     d="M 24.087891 4.0019531 A 3.7494596 3.7115047 0 0 0 22.125 4.4960938 L 7.875 12.642578 A 3.7494596 3.7115047 0 0 0 6 15.855469 L 6 16.855469 A 3.7494596 3.7115047 0 0 1 7.875 13.642578 L 22.125 5.4960938 A 3.7494596 3.7115047 0 0 1 24.087891 5.0019531 A 3.7494596 3.7115047 0 0 1 25.875 5.4960938 L 40.125 13.642578 A 3.7494596 3.7115047 0 0 1 42 16.855469 L 42 15.855469 A 3.7494596 3.7115047 0 0 0 40.125 12.642578 L 25.875 4.4960938 A 3.7494596 3.7115047 0 0 0 24.087891 4.0019531 z "
     id="path4569" />
</svg>
