<?xml version="1.0" encoding="UTF-8" standalone="no"?>
<svg
   xmlns:dc="http://purl.org/dc/elements/1.1/"
   xmlns:cc="http://creativecommons.org/ns#"
   xmlns:rdf="http://www.w3.org/1999/02/22-rdf-syntax-ns#"
   xmlns:svg="http://www.w3.org/2000/svg"
   xmlns="http://www.w3.org/2000/svg"
   xmlns:sodipodi="http://sodipodi.sourceforge.net/DTD/sodipodi-0.dtd"
   xmlns:inkscape="http://www.inkscape.org/namespaces/inkscape"
   height="48"
   width="48"
   version="1"
   id="svg20"
   sodipodi:docname="browser-brave.svg"
   inkscape:version="0.92.1 r15371">
  <metadata
     id="metadata26">
    <rdf:RDF>
      <cc:Work
         rdf:about="">
        <dc:format>image/svg+xml</dc:format>
        <dc:type
           rdf:resource="http://purl.org/dc/dcmitype/StillImage" />
        <dc:title></dc:title>
      </cc:Work>
    </rdf:RDF>
  </metadata>
  <defs
     id="defs24" />
  <sodipodi:namedview
     pagecolor="#ffffff"
     bordercolor="#666666"
     borderopacity="1"
     objecttolerance="10"
     gridtolerance="10"
     guidetolerance="10"
     inkscape:pageopacity="0"
     inkscape:pageshadow="2"
     inkscape:window-width="1600"
     inkscape:window-height="822"
     id="namedview22"
     showgrid="false"
     inkscape:zoom="8.08"
     inkscape:cx="24"
     inkscape:cy="34.960341"
     inkscape:window-x="0"
     inkscape:window-y="0"
     inkscape:window-maximized="1"
     inkscape:current-layer="svg20">
    <inkscape:grid
       type="xygrid"
       id="grid4516" />
  </sodipodi:namedview>
  <path
     id="path4532"
     d="m 22.928973,44.703132 c -0.721471,-0.39834 -4.273347,-2.77761 -7.107508,-4.76107 -2.537851,-1.77608 -3.380867,-2.59885 -3.972517,-3.87708 -0.395294,-0.85401 -4.8489495,-17.49746 -4.8489495,-18.12067 0,-0.15947 0.255322,-0.98122 0.56738,-1.8261 l 0.567382,-1.53616 -0.7246519,-0.94069 c -0.4546221,-1.007037 -0.5843748,-1.326188 -0.044217,-1.987951 1.3921821,-1.35864 3.3181545,-3.4078731 5.0626365,-3.65341 0.682776,-0.078455 1.208143,1.1255828 1.918192,1 C 16.124868,8.6855088 16.664217,6.4489833 18,5.000002 H 23.964448 30 c 1.137735,1.2815689 2.065491,3.6586274 3.894931,3.999999 0.786468,0.146754 1.435947,-1.1489107 2.181883,-1 1.893105,0.9180736 3.140948,2.107432 4.48686,3.509697 0.767641,0.652769 0.44488,1.187979 0.196653,1.929594 -0.23973,0.54862 -0.936186,1.06502 -0.936186,1.14757 0,0.0825 0.26456,0.86188 0.58792,1.73186 l 0.58794,1.5818 -1.6734,6.41444 c -2.79749,10.7233 -2.89546,11.07675 -3.28388,11.84782 -0.824569,1.63689 -1.49207,2.18027 -8.204598,6.67903 -3.4454,2.30912 -3.832369,2.45584 -4.90915,1.86132 z"
     style="opacity:0.2;fill:#000000;fill-opacity:1;stroke-width:0.14302616"
     inkscape:connector-curvature="0" />
  <path
     style="fill:#f4592b;stroke-width:0.14302616;fill-opacity:1"
     d="m 22.928973,43.703131 c -0.721471,-0.39834 -4.273347,-2.77761 -7.107508,-4.76107 -2.537851,-1.77608 -3.380867,-2.59885 -3.972517,-3.87708 -0.395294,-0.85401 -4.8489495,-17.49746 -4.8489495,-18.12067 0,-0.15947 0.255322,-0.98122 0.56738,-1.8261 l 0.567382,-1.53616 -0.7246519,-0.94069 C 6.9554865,11.634324 6.8257338,11.315173 7.3658915,10.65341 8.7580736,9.2947698 10.684046,7.2455369 12.428528,7 13.111304,6.921545 13.636671,8.1255828 14.34672,8 16.124868,7.6855078 16.664217,5.4489823 18,4.000001 H 23.964448 30 C 31.137735,5.2815699 32.065491,7.6586284 33.894931,8 c 0.786468,0.146754 1.435947,-1.1489107 2.181883,-1 1.893105,0.9180736 3.140948,2.1074323 4.48686,3.509697 0.767641,0.652769 0.44488,1.187979 0.196653,1.929594 -0.23973,0.54862 -0.936186,1.06502 -0.936186,1.14757 0,0.0825 0.26456,0.86188 0.58792,1.73186 l 0.58794,1.5818 -1.6734,6.41444 c -2.79749,10.7233 -2.89546,11.07675 -3.28388,11.84782 -0.824569,1.63689 -1.49207,2.18027 -8.204598,6.67903 -3.4454,2.30912 -3.832369,2.45584 -4.90915,1.86132 z"
     id="path4522" />
  <path
     id="path4525"
     d="m 24.205078,11.003906 c -0.674778,-0.03735 -1.371481,0.150795 -2.810547,0.617188 l -1.683593,0.544922 c -1.307114,-0.253429 -2.614774,-0.903535 -3.923829,-1.146485 -0.323097,-0.05423 -0.510817,0.512386 -1.457031,1.705078 -0.596863,0.752335 -1.589492,2.143613 -2.207031,3.091797 C 11.095861,17.393573 11,17.60337 11,18.265625 c 0,0.809196 -0.02314,0.779695 3.496094,4.671875 0.947408,1.047813 1.465923,1.566568 1.503906,2.001953 0.03218,0.368859 -0.32978,0.677509 -0.556641,1.195313 -0.654411,1.493674 -0.598764,2.38973 0.212891,3.492187 C 16.140507,30.284715 17.452999,31 17.841797,31 c 1.655764,-0.420229 2.945649,-1.624743 3.927734,-2.568359 1.123677,-1.064622 1.349347,-1.388231 1.216797,-1.746094 -0.04821,-0.130153 -1.033433,-0.897729 -2.189453,-1.705078 -1.883751,-1.315584 -1.601563,-1.50957 -1.601563,-1.882813 0,-0.229057 0.381398,-1.170152 0.847657,-2.089844 0.466261,-0.919692 0.947265,-1.81181 0.947265,-1.984374 0,-0.704492 -0.681516,-1.469594 -3.109375,-2.419922 -1.282216,-0.501895 -2.520435,-1.070267 -2.630859,-1.142578 -0.327579,-0.214535 0.194253,-0.337895 1.939453,-0.455079 1.457408,-0.09783 1.684604,-0.07472 3.027344,0.300782 0.798215,0.223257 1.561272,0.804277 1.697265,0.925781 0.338699,0.302615 0.02118,0.688466 -0.55664,4.019531 -0.594227,3.42562 -0.65964,3.220445 1.173828,3.630859 1.040638,0.232939 1.695925,0.234249 2.738281,0.01367 1.17177,-0.24795 1.75586,-0.531759 1.75586,-0.851562 0,-0.104224 -0.121629,-1.43672 -0.392579,-2.960938 -0.270952,-1.524228 -0.694279,-3.041081 -0.695312,-3.25 -0.0028,-0.555773 0.237323,-1.083109 1.734375,-1.529296 1.259082,-0.375264 1.455539,-0.395284 3.173828,-0.308594 1.662755,0.08384 2.257135,0.220703 2.021485,0.464844 -0.04692,0.04861 -1.155069,0.602027 -2.462891,1.109374 -1.347367,0.522687 -2.746632,1.380871 -2.966797,1.587891 -0.596496,0.56088 -0.517718,1.072419 0.458984,2.972656 0.466261,0.907142 1.046875,1.774615 1.046875,1.927735 0,0.374233 0.06163,0.672836 -1.93164,2.046875 -1.988619,1.370822 -2.147201,1.531084 -1.966797,2.017578 0.20583,0.555038 2.144572,2.3146 3.339844,2.958984 2.162145,1.16565 2.412081,1.182382 3.46875,0.19336 1.211434,-1.13387 1.46365,-2.473341 0.792968,-4 C 32.442107,25.810169 32,25.263893 32,25.0625 c 0,-0.261695 0.324297,-0.827402 1.359375,-1.982422 3.86334,-4.311019 3.638672,-4.013147 3.638672,-4.804687 0,-0.637633 -0.103854,-0.877271 -0.964844,-2.228516 -0.95153,-1.493336 -3.03342,-4.622213 -3.408203,-4.984375 -1.467829,0.111345 -2.758563,0.834824 -4.181641,1.001953 -0.61373,-0.02418 -1.257144,-0.247232 -2.890625,-0.761719 -0.545756,-0.171893 -0.942789,-0.276416 -1.347656,-0.298828 z M 23.998047,30 c -0.190045,8.9e-4 -0.383609,0.07006 -0.757813,0.207031 -1.185319,0.434168 -4.190651,2.137863 -4.238281,2.402344 -0.02735,0.151904 0.268542,0.471874 0.845703,0.916016 0.488477,0.375888 1.421539,1.167456 2.074219,1.757812 C 23.076567,36.327646 23.880321,37 23.972656,37 c 0.02501,0 0.17517,-0.07464 0.333985,-0.166016 0.158815,-0.09136 0.765986,-0.622945 1.347656,-1.18164 0.58167,-0.558705 1.580658,-1.424132 2.220703,-1.923828 0.771084,-0.602008 1.149575,-0.988664 1.123047,-1.144532 -0.04399,-0.25846 -3.040361,-1.93604 -4.259766,-2.384765 C 24.375411,30.065686 24.188092,29.99911 23.998047,30 Z"
     style="opacity:0.2;fill:#0d0d0d;fill-opacity:1;stroke-width:0.13754939"
     inkscape:connector-curvature="0" />
  <path
     style="fill:#ffffff;fill-opacity:1;stroke-width:0.13754939"
     d="M 24.205078 10.003906 C 23.5303 9.966553 22.833597 10.154701 21.394531 10.621094 L 19.710938 11.166016 C 18.403824 10.912587 17.096164 10.262481 15.787109 10.019531 C 15.464012 9.9653023 15.276292 10.531917 14.330078 11.724609 C 13.733215 12.476944 12.740586 13.868222 12.123047 14.816406 C 11.095861 16.393573 11 16.60337 11 17.265625 C 11 18.074821 10.976862 18.04532 14.496094 21.9375 C 15.443502 22.985313 15.962017 23.504068 16 23.939453 C 16.03218 24.308312 15.67022 24.616962 15.443359 25.134766 C 14.788948 26.62844 14.844595 27.524496 15.65625 28.626953 C 16.140507 29.284715 17.452999 30 17.841797 30 C 19.497561 29.579771 20.787446 28.375257 21.769531 27.431641 C 22.893208 26.367019 23.118878 26.04341 22.986328 25.685547 C 22.938118 25.555394 21.952895 24.787818 20.796875 23.980469 C 18.913124 22.664885 19.195312 22.470899 19.195312 22.097656 C 19.195312 21.868599 19.57671 20.927504 20.042969 20.007812 C 20.50923 19.08812 20.990234 18.196002 20.990234 18.023438 C 20.990234 17.318946 20.308718 16.553844 17.880859 15.603516 C 16.598643 15.101621 15.360424 14.533249 15.25 14.460938 C 14.922421 14.246403 15.444253 14.123043 17.189453 14.005859 C 18.646861 13.908029 18.874057 13.931137 20.216797 14.306641 C 21.015012 14.529898 21.778069 15.110918 21.914062 15.232422 C 22.252761 15.535037 21.935247 15.920888 21.357422 19.251953 C 20.763195 22.677573 20.697782 22.472398 22.53125 22.882812 C 23.571888 23.115751 24.227175 23.117061 25.269531 22.896484 C 26.441301 22.648534 27.025391 22.364725 27.025391 22.044922 C 27.025391 21.940698 26.903762 20.608202 26.632812 19.083984 C 26.36186 17.559756 25.938533 16.042903 25.9375 15.833984 C 25.9347 15.278211 26.174823 14.750875 27.671875 14.304688 C 28.930957 13.929424 29.127414 13.909404 30.845703 13.996094 C 32.508458 14.079934 33.102838 14.216797 32.867188 14.460938 C 32.820267 14.509548 31.712119 15.062965 30.404297 15.570312 C 29.05693 16.092999 27.657665 16.951183 27.4375 17.158203 C 26.841004 17.719083 26.919782 18.230622 27.896484 20.130859 C 28.362745 21.038001 28.943359 21.905474 28.943359 22.058594 C 28.943359 22.432827 29.00499 22.73143 27.011719 24.105469 C 25.0231 25.476291 24.864518 25.636553 25.044922 26.123047 C 25.250752 26.678085 27.189494 28.437647 28.384766 29.082031 C 30.546911 30.247681 30.796847 30.264413 31.853516 29.275391 C 33.06495 28.141521 33.317166 26.80205 32.646484 25.275391 C 32.442107 24.810169 32 24.263893 32 24.0625 C 32 23.800805 32.324297 23.235098 33.359375 22.080078 C 37.222715 17.769059 36.998047 18.066931 36.998047 17.275391 C 36.998047 16.637758 36.894193 16.39812 36.033203 15.046875 C 35.081673 13.553539 32.999783 10.424662 32.625 10.0625 C 31.157171 10.173845 29.866437 10.897324 28.443359 11.064453 C 27.829629 11.040273 27.186215 10.817221 25.552734 10.302734 C 25.006978 10.130841 24.609945 10.026318 24.205078 10.003906 z M 23.998047 29 C 23.808002 29.00089 23.614438 29.070058 23.240234 29.207031 C 22.054915 29.641199 19.049583 31.344894 19.001953 31.609375 C 18.974603 31.761279 19.270495 32.081249 19.847656 32.525391 C 20.336133 32.901279 21.269195 33.692847 21.921875 34.283203 C 23.076567 35.327646 23.880321 36 23.972656 36 C 23.997666 36 24.147826 35.925357 24.306641 35.833984 C 24.465456 35.742624 25.072627 35.211039 25.654297 34.652344 C 26.235967 34.093639 27.234955 33.228212 27.875 32.728516 C 28.646084 32.126508 29.024575 31.739852 28.998047 31.583984 C 28.954057 31.325524 25.957686 29.647944 24.738281 29.199219 C 24.375411 29.065686 24.188092 28.99911 23.998047 29 z "
     id="path4520" />
  <path
     style="fill:#ffffff;stroke-width:0.14302616;fill-opacity:1;opacity:0.2"
     d="M 18 4 C 16.664217 5.4489813 16.125804 7.6855078 14.347656 8 C 13.637607 8.1255828 13.11051 6.921545 12.427734 7 C 10.683252 7.2455369 8.7574165 9.2956567 7.3652344 10.654297 C 6.9580851 11.153107 6.9323608 11.457002 7.1386719 12.007812 C 7.1957699 11.895701 7.2583391 11.785257 7.3652344 11.654297 C 8.7574165 10.295657 10.683252 8.2455369 12.427734 8 C 13.11051 7.921545 13.637607 9.1255828 14.347656 9 C 16.125804 8.6855078 16.664217 6.4489813 18 5 L 23.964844 5 L 30 5 C 31.137735 6.2815689 32.065091 8.6586284 33.894531 9 C 34.680999 9.146754 35.330236 7.8510893 36.076172 8 C 37.969277 8.9180736 39.218541 10.107501 40.564453 11.509766 C 40.741719 11.660505 40.854369 11.805074 40.929688 11.947266 C 41.097193 11.440409 41.151741 11.00917 40.564453 10.509766 C 39.218541 9.1075009 37.969277 7.9180736 36.076172 7 C 35.330236 6.8510893 34.680999 8.146754 33.894531 8 C 32.065091 7.6586284 31.137735 5.2815689 30 4 L 23.964844 4 L 18 4 z M 7.8847656 14.257812 L 7.5664062 15.119141 C 7.2543482 15.964021 7 16.783889 7 16.943359 C 7 16.98979 7.0673609 17.283023 7.1132812 17.494141 C 7.2130203 17.140274 7.3614329 16.674095 7.5664062 16.119141 L 8.1347656 14.582031 L 7.8847656 14.257812 z M 40.074219 14.322266 C 39.963748 14.429783 39.824219 14.558662 39.824219 14.585938 C 39.824219 14.668437 40.088749 15.448379 40.412109 16.318359 L 40.847656 17.488281 L 41 16.900391 L 40.412109 15.318359 C 40.226194 14.818165 40.182153 14.647332 40.074219 14.322266 z "
     id="path4527" />
</svg>
