<svg width="48" height="48" version="1" xmlns="http://www.w3.org/2000/svg">
 <defs>
  <clipPath id="clipPath4186">
   <circle cx="286" cy="26" r="10" fill="url(#linearGradient4190)"/>
  </clipPath>
 </defs>
 <path d="m43.979 24.418a20 20 0 0 1-19.979 19.582 20 20 0 0 1-19.978-19.418 20 20 0 0 0-0.022 0.418 20 20 0 0 0 20 20 20 20 0 0 0 20-20 20 20 0 0 0-0.021-0.582z" opacity=".2" style="color:#000000"/>
 <circle cx="24" cy="24" r="20" fill="#37a0f2" style="fill:#f23737"/>
 <path d="m22.111328 5.1074219a20 20 0 0 0-7.238281 2.0996093c0.101 0.3201001-0.016766 0.6812-0.384766 1-0.249 0.2158-0.453125 0.5518469-0.453125 0.7480469 0 0.5997 0.54161 1.5204969 0.97461 1.6542969 0.575 0.178 0.382578 0.791859-0.357422 1.130859-0.342 0.157-0.763547 0.608907-0.935547 1.003907-0.173 0.396-0.426453 0.786187-0.564453 0.867187-0.137 0.082-0.25 0.3905-0.25 0.6875 0 0.415 0.1895 0.616235 0.8125 0.865234 0.446 0.179001 0.9805 0.309063 1.1875 0.289063 1.191-0.112 1.273422 0.5815 0.232422 1.9375-0.553 0.72-0.818313 0.901547-1.195313 0.810547-0.351-0.084-0.543125 0.015281-0.703125 0.363281-0.168 0.369-0.444547 0.493922-1.185547 0.544922-0.729 0.051-1.055125 0.198656-1.328125 0.597656-0.2 0.291-0.487625 0.527344-0.640625 0.527344-0.1533997 0-0.513581 0.195594-0.800781 0.433594-0.5844 0.485-0.8126781 0.533797-1.0175781 0.216797-0.2708-0.42-0.8551094-0.208-1.7246094 0.625-0.769 0.736-0.8620938 0.933265-0.7460937 1.572265 0.2064 1.137 0.8231437 2.146047 1.5273437 2.498047 0.6145 0.307 0.6265063 0.340375 0.2539063 0.734375-0.2143 0.227-0.5820063 0.470016-0.8164063 0.541016-0.677 0.206-0.2958906 0.463187 0.9121094 0.617187 1.2364 0.157 1.6205687 0.605797 1.0429687 1.216797-0.3221 0.341-0.3040093 0.404516 0.2128906 0.728516 1.01 0.634 1.8132348 0.246031 0.8652344-0.417969-0.6093-0.427-0.1832625-0.601016 0.7109374-0.291016 0.713 0.247 0.854391 0.233188 1.275391-0.132812 0.865-0.749 1.804672 0.359312 1.013672 1.195312-0.503 0.533-0.351219 1.174672 0.300781 1.263672 0.288 0.039 0.886078 0.306703 1.330078 0.595703 0.444 0.288 0.928219 0.525391 1.074219 0.525391s0.558015 0.292391 0.916015 0.650391c0.726 0.725 1.128985 0.81764 1.333985 0.30664 0.246-0.614 0.147375-0.931297-0.515625-1.654297-0.527-0.576-1.384766-2.105656-1.384766-2.472656 0-0.226 0.871375-0.034172 1.359375 0.298828 0.305 0.209 0.798656 0.47761 1.097656 0.59961 0.318 0.13 0.647828 0.534562 0.798828 0.976562 0.235 0.694 0.328157 0.753906 1.160157 0.753906h0.904297l0.136718 1.625c0.164 1.955 0.321188 2.350719 0.992188 2.511719 0.494 0.119 1.021484 0.884422 1.021484 1.482422 0 0.159-0.355062 0.548234-0.789062 0.865234-0.538 0.393-0.770375 0.727688-0.734375 1.054688 0.045 0.409-0.047953 0.472687-0.626953 0.429687-0.373-0.028-1.0215 0.103016-1.4375 0.291016-0.493 0.222-1.026344 0.293125-1.527344 0.203125-0.576-0.103-0.771484-0.062891-0.771484 0.162109 0 0.166-0.201266 0.475454-0.447266 0.689454-0.608 0.527-0.357828 0.806671 0.576172 0.638671 0.58-0.104 0.80625-0.058593 0.90625 0.191407 0.213 0.531-0.327125 1.291015-0.828125 1.166015-0.024544-0.006174-0.041836-0.003925-0.064453-0.007812a20 20 0 0 0 1.947265 0.554687c0.078041-0.347282 0.354447-0.692814 0.75586-0.789062 0.723-0.174 0.608265-0.642422-0.177735-0.732422-0.689-0.078-1.421406-0.775813-1.191406-1.132813 0.155-0.239 0.813484-0.204672 2.146484 0.111329 0.602 0.142 1.013204-0.143922 2.408204-1.669922 0.806999-0.884 1.428374-1.251953 2.109374-1.251954 0.260001 0 1.186547-0.23925 2.060547-0.53125 1.65-0.552999 2.295375-0.532687 2.234375 0.070313-0.126 1.254 0.681094 1.212438 1.996094-0.101563 0.548-0.546999 1.048281-0.942859 1.113281-0.880859 0.251 0.241-0.200515 1.413672-0.728515 1.888672-0.669 0.602-0.702282 0.982203-0.113282 1.283203 0.322001 0.166 0.458766 0.500906 0.509766 1.253906l0.066406 0.996094a20 20 0 0 0 11.214844-16.476562c-0.24592-0.580514-0.220428-0.961177 0.044922-1.376954a20 20 0 0 0-0.089844-1.121093c-0.182-9e-3 -0.368031-0.016813-0.582031-0.007813-1.008 0.042-1.871094-0.355328-1.871094-0.861328 0-0.107-0.357922-0.547516-0.794922-0.978516-0.496-0.487999-0.749781-0.920531-0.675781-1.144531 0.068-0.204-0.077937-0.532859-0.335937-0.755859-0.251-0.218-0.457032-0.567344-0.457032-0.777344 0-0.335-0.212906-0.376844-1.753906-0.339844l-1.753906 0.042969 0.029297 1.728516c0.052 3.028 0.503531 3.81364 1.894531 3.30664 0.637-0.233 2.201484-0.056125 2.646484 0.296875 0.161 0.128 0.394578 0.59125 0.517579 1.03125 0.124 0.439 0.581531 1.200454 1.019531 1.689454 0.886 0.992 0.955265 1.378968 0.447265 2.542968-0.443 1.016-0.921172 0.898875-0.826172-0.203125l0.070313-0.820312-0.75 0.140625c-0.415 0.079-0.934969 0.3845-1.167969 0.6875-0.332 0.431-0.487328 0.493875-0.736328 0.296875-0.174-0.138-0.314453-0.428531-0.314453-0.644531 0-0.216001-0.214609-0.456157-0.474609-0.535157-0.261-0.079-0.617969-0.472-0.792969-0.875-0.281-0.644-0.274266-0.841047 0.052734-1.623047 0.331-0.793 0.334297-0.923796 0.029297-1.216796-0.28-0.268001-0.424969-0.277641-0.792969-0.056641-0.37 0.221-0.544375 0.205156-0.984375-0.089844-0.293-0.197-0.806671-0.359375-1.138672-0.359375-0.674999 0-0.878906-0.328062-0.878906-1.414062 0-1.003-0.597484-1.367328-2.021484-1.236328-0.988 0.091-1.206906 0.026109-2.003906-0.587891-0.493-0.379-1.270469-1.291297-1.730469-2.029297s-0.95461-1.508891-1.099609-1.712891c-0.208-0.295-0.157001-0.577859 0.25-1.380859l0.513671-1.009766-1.085937 0.146485c-1.932 0.261-2.323188 0.511031-1.492188 0.957031 0.324 0.173 0.337891 0.261781 0.087891 0.550781-0.164 0.188-0.240922 0.487063-0.169922 0.664063 0.071 0.176-0.019219 0.592828-0.199219 0.923828-0.181 0.332-0.33189 0.796156-0.33789 1.035156-0.019 0.745-1.294797 1.338766-2.716797 1.259766-2.154-0.119-2.32875-0.085-3.09375 0.625-0.956 0.888-1.079766 1.301-0.634766 2.125 0.431 0.8 1.197438 1.118734 2.523438 1.052734 1.186-0.059 1.319828 0.046078 1.048828 0.830078-0.231 0.666-1.004297 0.92186-1.529297 0.50586-0.404-0.321-1.797609-0.073516-2.224609 0.396484-0.179 0.196-0.444844 0.712531-0.589844 1.144531-0.25 0.746-0.32336 0.792391-1.443359 0.900391-1.118001 0.109-1.225297 0.073031-2.029297-0.667969-0.897-0.826-1.049188-1.458875-0.617188-2.546875 0.192-0.482 0.333703-0.560797 0.845703-0.466797 1.014 0.185 1.414063-0.167 1.414063-1.25 0-0.525-0.101563-1.015843-0.226563-1.089843-0.124-0.074001-0.226562-0.352141-0.226562-0.619141s-0.128203-0.610719-0.283203-0.761719c-0.227-0.22-0.194032-0.33775 0.167968-0.59375 0.248-0.175 0.65625-0.293672 0.90625-0.263672 0.249 0.03 0.93825-0.077281 1.53125-0.238281 0.857-0.231 1.10861-0.406422 1.22461-0.857422 0.22-0.856 0.757031-1.542969 1.207031-1.542969 0.711 0 0.726156-1.671515 0.035156-4.103515-0.102-0.359-0.382906-0.587938-0.878906-0.710938-0.402-0.1-0.838703-0.373575-0.970703-0.609375-0.131-0.2358-0.372156-0.427734-0.535156-0.427734s-0.482032-0.195194-0.707032-0.433594c-0.227-0.2399999-0.695734-0.4335936-1.052734-0.4335936-0.845 0-0.859484-0.5818719-0.021484-0.8886719 0.885-0.3244 2.262703 0.1008812 2.595703 0.8007813 0.451 0.9491002 0.952281 0.5530402 1.113281-0.8808594 0.199-1.7735 0.811234-2.2832032 2.740234-2.2832032h1.386719l-0.607422-0.6074218c-0.189-0.1896-0.346078-0.4212375-0.455078-0.6484375zm7.189453 0.6289062c-0.039 0.0352-0.077234 0.0640156-0.115234 0.1035157-0.464 0.4736-0.681438 0.5410406-1.398438 0.4316406-1.252-0.1909-1.091078 0.313175 0.294922 0.921875 0.749 0.3291 1.230532 0.7043844 1.394531 1.0839844 0.79 1.8316002 1.334422 2.8179692 1.607422 2.9179682 0.552 0.203 0.880907-0.204693 1.003907-1.2460932 0.141-1.1948001 0.545484-1.4481219 1.271484-0.7949219 0.282 0.2535 0.676 0.4609375 0.875 0.4609375 0.621 0 1.080078 0.2492375 1.080078 0.5859376 0 0.1774 0.209797 0.605272 0.466797 0.951172 0.379 0.509 0.63575 0.630859 1.34375 0.630859 0.869 0 1.402234 0.162672 2.490234 0.763672 0.017 9e-3 0.033782 0.012484 0.050782 0.021484a20 20 0 0 0-10.365235-6.8320309zm-25.267578 19.208984a20 20 0 0 0 0.5976563 3.972657c0.5131937 0.158378 0.694579 0.011986 0.7597656-0.572266 0.0389-0.349 0.22105-0.743859 0.40625-0.880859 0.2861-0.211 0.2345375-0.31875-0.3515625-0.71875-0.3794-0.259-0.7532781-0.710906-0.8300781-1.003906-0.0715091-0.272965-0.3105425-0.566439-0.5820313-0.796876zm6.2656249 6.580079c-0.187-0.019-0.4121092 0.080312-0.6621092 0.320312-0.5289001 0.506-0.4490094 1.523781 0.1503906 1.925781 0.6868996 0.461 0.9520626 0.326563 1.0390626-0.523437 0.107-1.048-0.117344-1.679656-0.527344-1.722656zm3.394531 3.023437c-0.204 7e-3 -0.429297 0.152938-0.654297 0.460938-0.239 0.326-0.30389 0.747718-0.21289 1.386718 0.113 0.786 0.063344 0.953063-0.347656 1.164063-0.529 0.27-0.641985 1.074281-0.208985 1.488281 0.43 0.412 0.840281 0.304234 0.988281-0.259766 0.210001-0.804 1.387407-0.897781 2.191407-0.175781 0.343 0.308 0.623047 0.463703 0.623047 0.345703s-0.356969-0.547172-0.792969-0.951172c-0.667-0.619999-0.791016-0.88364-0.791016-1.68164 0-1.126-0.344922-1.791344-0.794922-1.777344zm1.166016 5.652344c-0.101 0.035-0.144531 0.161765-0.144531 0.384766 0 0.225999-0.144313 0.463343-0.320313 0.527343-0.117 0.043-0.189203 0.131641-0.220703 0.291016a20 20 0 0 0 1.023438 0.527344c0.030371-0.110884 0.046504-0.209914 0.089843-0.332032 0.307-0.866 0.31836-1.082375 0.06836-1.234375-0.234-0.142-0.394094-0.199062-0.496094-0.164062z" style="fill:#000000;opacity:.2"/>
 <path d="m22.111 4.1074a20 20 0 0 0-7.238 2.0996c0.101 0.3201-0.017 0.6812-0.385 1-0.249 0.2158-0.453 0.5519-0.453 0.7481 0 0.5997 0.542 1.5205 0.975 1.6543 0.575 0.178 0.382 0.7916-0.358 1.1306-0.342 0.157-0.763 0.609-0.935 1.004-0.173 0.396-0.427 0.786-0.565 0.867-0.137 0.082-0.25 0.391-0.25 0.688 0 0.415 0.19 0.616 0.813 0.865 0.446 0.179 0.98 0.309 1.187 0.289 1.191-0.112 1.274 0.582 0.233 1.938-0.553 0.72-0.819 0.901-1.196 0.81-0.351-0.084-0.543 0.015-0.703 0.363-0.168 0.369-0.444 0.494-1.185 0.545-0.729 0.051-1.055 0.199-1.328 0.598-0.2 0.291-0.488 0.527-0.641 0.527-0.1534 0-0.5136 0.196-0.8008 0.434-0.5844 0.485-0.8126 0.534-1.0175 0.217-0.2708-0.42-0.8551-0.208-1.7246 0.625-0.769 0.736-0.8621 0.933-0.7461 1.572 0.2064 1.137 0.8231 2.146 1.5273 2.498 0.6145 0.307 0.6265 0.34 0.2539 0.734-0.2143 0.227-0.582 0.47-0.8164 0.541-0.677 0.206-0.2959 0.464 0.9121 0.618 1.2364 0.157 1.6206 0.605 1.043 1.216-0.3221 0.341-0.304 0.405 0.2129 0.729 1.01 0.634 1.8132 0.246 0.8652-0.418-0.6093-0.427-0.1832-0.601 0.711-0.291 0.713 0.247 0.854 0.233 1.275-0.133 0.865-0.749 1.805 0.359 1.014 1.195-0.503 0.533-0.351 1.175 0.301 1.264 0.288 0.039 0.886 0.307 1.33 0.596 0.444 0.288 0.928 0.525 1.074 0.525s0.558 0.293 0.916 0.651c0.726 0.725 1.129 0.817 1.334 0.306 0.246-0.614 0.147-0.931-0.516-1.654-0.527-0.576-1.384-2.106-1.384-2.473 0-0.226 0.871-0.034 1.359 0.299 0.305 0.209 0.799 0.478 1.098 0.6 0.318 0.13 0.648 0.534 0.799 0.976 0.235 0.694 0.328 0.754 1.16 0.754h0.904l0.137 1.625c0.164 1.955 0.321 2.351 0.992 2.512 0.494 0.119 1.021 0.884 1.021 1.482 0 0.159-0.355 0.549-0.789 0.866-0.538 0.393-0.77 0.727-0.734 1.054 0.045 0.409-0.048 0.473-0.627 0.43-0.373-0.028-1.021 0.103-1.437 0.291-0.493 0.222-1.027 0.293-1.528 0.203-0.576-0.103-0.771-0.063-0.771 0.162 0 0.166-0.202 0.476-0.448 0.69-0.608 0.527-0.357 0.806 0.577 0.638 0.58-0.104 0.806-0.058 0.906 0.192 0.213 0.531-0.327 1.291-0.828 1.166-0.318-0.08-0.47 0.029-0.569 0.404-0.034 0.133-0.097 0.246-0.172 0.342a20 20 0 0 0 3.165 0.935c-0.1-0.191-0.214-0.365-0.325-0.443-0.515-0.364-0.17-1.31 0.539-1.48 0.723-0.174 0.609-0.643-0.177-0.733-0.689-0.078-1.422-0.776-1.192-1.133 0.155-0.239 0.814-0.204 2.147 0.112 0.602 0.142 1.013-0.144 2.408-1.67 0.807-0.884 1.428-1.252 2.109-1.252 0.26 0 1.187-0.239 2.061-0.531 1.65-0.553 2.295-0.533 2.234 0.07-0.126 1.254 0.681 1.212 1.996-0.102 0.548-0.547 1.049-0.943 1.114-0.881 0.251 0.241-0.201 1.414-0.729 1.889-0.669 0.602-0.702 0.982-0.113 1.283 0.322 0.166 0.459 0.501 0.51 1.254l0.068 1.028h0.836c0.293 0 0.536 0.04 0.732 0.115a20 20 0 0 0 9.69-16.506c-0.306-0.654-0.284-1.049 0-1.494a20 20 0 0 0-0.09-1.121c-0.182-9e-3 -0.368-0.017-0.582-8e-3 -1.008 0.042-1.871-0.355-1.871-0.861 0-0.107-0.358-0.548-0.795-0.979-0.496-0.488-0.75-0.92-0.676-1.144 0.068-0.204-0.078-0.533-0.336-0.756-0.251-0.218-0.457-0.568-0.457-0.778 0-0.335-0.213-0.377-1.754-0.34l-1.754 0.043 0.03 1.729c0.052 3.028 0.503 3.814 1.894 3.307 0.637-0.233 2.202-0.057 2.647 0.296 0.161 0.128 0.394 0.592 0.517 1.032 0.124 0.439 0.582 1.2 1.02 1.689 0.886 0.992 0.955 1.379 0.447 2.543-0.443 1.016-0.921 0.899-0.826-0.203l0.07-0.82-0.75 0.14c-0.415 0.079-0.935 0.385-1.168 0.688-0.332 0.431-0.487 0.494-0.736 0.297-0.174-0.138-0.315-0.429-0.315-0.645s-0.214-0.456-0.474-0.535c-0.261-0.079-0.618-0.472-0.793-0.875-0.281-0.644-0.274-0.841 0.053-1.623 0.331-0.793 0.334-0.924 0.029-1.217-0.28-0.268-0.425-0.277-0.793-0.056-0.37 0.221-0.545 0.205-0.985-0.09-0.293-0.197-0.806-0.36-1.138-0.36-0.675 0-0.879-0.328-0.879-1.414 0-1.003-0.598-1.367-2.022-1.236-0.988 0.091-1.206 0.026-2.003-0.588-0.493-0.379-1.271-1.291-1.731-2.029s-0.955-1.509-1.1-1.713c-0.208-0.295-0.157-0.578 0.25-1.381l0.514-1.01-1.086 0.147c-1.932 0.261-2.323 0.511-1.492 0.957 0.324 0.173 0.338 0.262 0.088 0.551-0.164 0.188-0.241 0.487-0.17 0.664 0.071 0.176-0.019 0.592-0.199 0.923-0.181 0.332-0.332 0.797-0.338 1.036-0.019 0.745-1.295 1.338-2.717 1.259-2.154-0.119-2.329-0.085-3.094 0.625-0.956 0.888-1.079 1.301-0.634 2.125 0.431 0.8 1.197 1.119 2.523 1.053 1.186-0.059 1.32 0.046 1.049 0.83-0.231 0.666-1.005 0.922-1.53 0.506-0.404-0.321-1.797-0.073-2.224 0.397-0.179 0.196-0.445 0.712-0.59 1.144-0.25 0.746-0.323 0.792-1.443 0.9-1.118 0.109-1.226 0.073-2.03-0.668-0.897-0.826-1.049-1.458-0.617-2.546 0.192-0.482 0.334-0.561 0.846-0.467 1.014 0.185 1.414-0.167 1.414-1.25 0-0.525-0.102-1.016-0.227-1.09-0.124-0.074-0.226-0.352-0.226-0.619s-0.128-0.611-0.283-0.762c-0.227-0.22-0.194-0.338 0.168-0.594 0.248-0.175 0.656-0.293 0.906-0.263 0.249 0.03 0.938-0.078 1.531-0.239 0.857-0.231 1.109-0.406 1.225-0.857 0.22-0.856 0.757-1.543 1.207-1.543 0.711 0 0.726-1.672 0.035-4.104-0.102-0.359-0.383-0.587-0.879-0.71-0.402-0.1-0.839-0.374-0.971-0.6098-0.131-0.2358-0.372-0.4278-0.535-0.4278s-0.482-0.1952-0.707-0.4336c-0.227-0.24-0.696-0.4336-1.053-0.4336-0.845 0-0.859-0.5818-0.021-0.8886 0.885-0.3244 2.263 0.1008 2.596 0.8007 0.451 0.9491 0.952 0.5531 1.113-0.8808 0.199-1.7735 0.811-2.2832 2.74-2.2832h1.387l-0.608-0.6074c-0.189-0.1896-0.346-0.4213-0.455-0.6485zm7.19 0.6289c-0.039 0.0352-0.077 0.064-0.115 0.1035-0.464 0.4736-0.682 0.5411-1.399 0.4317-1.252-0.1909-1.091 0.3132 0.295 0.9219 0.749 0.3291 1.231 0.7043 1.395 1.0839 0.79 1.8316 1.334 2.8177 1.607 2.9177 0.552 0.203 0.881-0.2044 1.004-1.2458 0.141-1.1948 0.545-1.4481 1.271-0.7949 0.282 0.2535 0.676 0.4609 0.875 0.4609 0.621 0 1.08 0.2493 1.08 0.586 0 0.1774 0.21 0.6049 0.467 0.9508 0.379 0.509 0.636 0.631 1.344 0.631 0.869 0 1.402 0.163 2.49 0.764 0.017 9e-3 0.034 0.012 0.051 0.021a20 20 0 0 0-10.365-6.8317zm-25.297 19.178a20 20 0 0 0-0.0039 0.086 20 20 0 0 0 0.3906 3.842c0.7246 0.295 0.9248 0.178 1-0.496 0.0389-0.349 0.2211-0.744 0.4063-0.881 0.2861-0.211 0.2345-0.319-0.3516-0.719-0.3794-0.259-0.7533-0.711-0.8301-1.004-0.0744-0.284-0.326-0.594-0.6113-0.828zm6.2951 6.611c-0.187-0.019-0.4123 0.081-0.6623 0.321-0.5289 0.506-0.449 1.523 0.1504 1.925 0.6869 0.461 0.9519 0.327 1.0389-0.523 0.107-1.048-0.117-1.68-0.527-1.723zm3.394 3.024c-0.204 7e-3 -0.429 0.153-0.654 0.461-0.239 0.326-0.304 0.747-0.213 1.386 0.113 0.786 0.064 0.954-0.347 1.165-0.529 0.27-0.642 1.074-0.209 1.488 0.43 0.412 0.84 0.304 0.988-0.26 0.21-0.804 1.387-0.898 2.191-0.176 0.343 0.308 0.623 0.464 0.623 0.346s-0.357-0.547-0.793-0.951c-0.667-0.62-0.791-0.884-0.791-1.682 0-1.126-0.345-1.791-0.795-1.777zm-5.5739 2.582a20 20 0 0 0 0.4629 0.584c-0.1363-0.211-0.2919-0.413-0.4629-0.584zm6.7399 3.07c-0.101 0.035-0.144 0.162-0.144 0.385 0 0.226-0.144 0.463-0.32 0.527-0.234 0.086-0.288 0.357-0.198 1.004 0.017 0.121 0.022 0.218 0.028 0.319a20 20 0 0 0 0.832 0.427c-0.014-0.346 0.049-0.753 0.23-1.263 0.307-0.866 0.318-1.083 0.068-1.235-0.234-0.142-0.394-0.199-0.496-0.164z" opacity=".2" style="fill:#f78787;opacity:1"/>
 <circle transform="matrix(2,0,0,2,-548,-28)" cx="286" cy="26" r="10" clip-path="url(#clipPath4186)" opacity="0" stroke-width=".455" style="color:#000000"/>
 <circle transform="matrix(2,0,0,2,-548,-28)" cx="286" cy="26" r="10" clip-path="url(#clipPath4186)" opacity="0" stroke-width=".909" style="color:#000000"/>
 <path d="m24 4c-11.079 0-19.998 8.92-19.998 20 0 0.16772-4e-3 0.33329 0 0.5 0.2642-10.846 9.087-19.5 19.998-19.5s19.734 8.6536 19.998 19.5c4e-3 -0.16671 0-0.33228 0-0.5 0-11.08-8.919-20-19.998-20z" fill="#fff" opacity=".2"/>
 <path d="m22.111328 4.1074219a20 20 0 0 0-7.238281 2.0996093c0.101 0.3201001-0.016766 0.6812001-0.384766 1-0.249 0.2158-0.453125 0.5518469-0.453125 0.7480469 0 0.1861736 0.063444 0.4003219 0.148438 0.6152344 0.081005-0.1292739 0.186069-0.2604787 0.304687-0.3632813 0.368-0.3188 0.485766-0.6798999 0.384766-1a20 20 0 0 1 7.238281-2.0996093c0.041203 0.0858836 0.094381 0.1712067 0.148438 0.2558593h0.914062l-0.607422-0.6074218c-0.189-0.1896-0.346078-0.4212375-0.455078-0.6484375zm7.189453 0.6289062c-0.039 0.0352-0.077234 0.0640156-0.115234 0.1035157-0.464 0.4736-0.681438 0.5410406-1.398438 0.4316406-1.252-0.1909-1.091078 0.313175 0.294922 0.921875 0.084178 0.0369864 0.153109 0.0751894 0.230469 0.1132812 0.337688-0.0127457 0.549084-0.1361314 0.873047-0.4667968 0.038-0.0395001 0.076234-0.0683157 0.115234-0.1035157a20 20 0 0 1 8.878907 5.1796879c0.409576 0.111527 0.839224 0.301456 1.435546 0.630859 0.017 9e-3 0.033782 0.012484 0.050782 0.021484a20 20 0 0 0-10.365235-6.8320309zm-13.654297 3.9140625c-0.106857 0.0181714-0.211562 0.0406045-0.308593 0.0761719-0.838 0.3068-0.823516 0.8886719 0.021484 0.8886719 0.357 0 0.825734 0.1935937 1.052734 0.4335936 0.225 0.2384 0.544032 0.433594 0.707032 0.433594s0.404156 0.191934 0.535156 0.427734c0.132 0.2358 0.568703 0.509375 0.970703 0.609375 0.496 0.123 0.776906 0.351938 0.878906 0.710938 0.256966 0.904401 0.416303 1.702312 0.478516 2.349609 0.091752-0.714935-0.063782-1.889939-0.478516-3.349609-0.102-0.359-0.382906-0.587938-0.878906-0.710938-0.402-0.1-0.838703-0.373575-0.970703-0.6093748-0.131-0.2357999-0.372156-0.4277343-0.535156-0.4277343s-0.482032-0.1951938-0.707032-0.4335938c-0.169448-0.1791528-0.473728-0.3322217-0.765625-0.3984375zm-0.726562 1.9140624c-0.085218 0.060328-0.157362 0.12529-0.267578 0.175781-0.342 0.157-0.763547 0.608907-0.935547 1.003907-0.173 0.396-0.426453 0.786187-0.564453 0.867187-0.137 0.082-0.25 0.3905-0.25 0.6875 0 0.181563 0.045588 0.317873 0.138672 0.439453 0.0337-0.056718 0.071317-0.103005 0.111328-0.126953 0.138-0.081 0.391453-0.471187 0.564453-0.867187 0.172-0.395 0.593547-0.846907 0.935547-1.003907 0.74-0.339 0.932422-0.952859 0.357422-1.130859-0.029222-0.00903-0.05983-0.029064-0.089844-0.044922zm12.492187 2.550781-1.085937 0.146485c-1.932 0.261-2.323188 0.511031-1.492188 0.957031 0.182119 0.097242 0.255602 0.171026 0.25 0.265625 0.306542-0.076121 0.69979-0.149382 1.242188-0.222656l0.542969-0.072266c0.012012-0.024065 0.016594-0.039391 0.029297-0.064453l0.513671-1.009766zm-2.671875 2.044922c-0.018185 0.100669-0.018252 0.198722 0.011719 0.273438 0.071 0.176-0.019219 0.592828-0.199219 0.923828-0.181 0.332-0.33189 0.796156-0.33789 1.035156-0.019 0.745-1.294797 1.338766-2.716797 1.259766-2.154-0.119-2.32875-0.085-3.09375 0.625-0.839981 0.780233-1.008621 1.207653-0.742188 1.855468 0.137246-0.248889 0.378885-0.518007 0.742188-0.855468 0.765-0.71 0.93975-0.744 3.09375-0.625 1.422 0.079 2.697797-0.514766 2.716797-1.259766 6e-3 -0.239 0.15689-0.703156 0.33789-1.035156 0.18-0.331 0.270219-0.747828 0.199219-0.923828-0.071-0.177 0.005922-0.476063 0.169922-0.664063 0.25-0.289 0.236109-0.377781-0.087891-0.550781-0.038387-0.020602-0.060609-0.038807-0.09375-0.058594zm1.949219 0.410156c-0.201387 0.471825-0.203908 0.704522-0.041015 0.935547 0.144999 0.204 0.639609 0.974891 1.099609 1.712891s1.237469 1.650297 1.730469 2.029297c0.797 0.614 1.015906 0.678891 2.003906 0.587891 1.424-0.131 2.021484 0.233328 2.021484 1.236328 0 1.086 0.203907 1.414062 0.878906 1.414062 0.332001 0 0.845672 0.162375 1.138672 0.359375 0.44 0.295 0.614375 0.310844 0.984375 0.089844 0.368-0.221 0.512969-0.21136 0.792969 0.056641 0.016871 0.016207 0.022127 0.029566 0.03711 0.044921 0.162889-0.406992 0.211661-0.624431 0.146484-0.787109-0.550486 0.180914-0.943757 0.130458-1.220703-0.195312-0.227612 0.076776-0.408494 0.013432-0.740235-0.208985-0.293-0.197-0.806671-0.359375-1.138672-0.359375-0.674999 0-0.878906-0.328062-0.878906-1.414062 0-1.003-0.597484-1.367328-2.021484-1.236328-0.988 0.091-1.206906 0.026109-2.003906-0.587891-0.493-0.379-1.270469-1.291297-1.730469-2.029297-0.442735-0.710301-0.894271-1.411943-1.058594-1.648438zm-11.027344 0.003907c-0.120666 0.238215-0.290593 0.508017-0.527343 0.816406-0.553 0.72-0.818313 0.901547-1.195313 0.810547-0.351-0.084-0.543125 0.015281-0.703125 0.363281-0.168 0.369-0.444547 0.493922-1.185547 0.544922-0.729 0.051-1.055125 0.198656-1.328125 0.597656-0.2 0.291-0.487625 0.527344-0.640625 0.527344-0.1533997 0-0.513581 0.195594-0.800781 0.433594-0.5844 0.485-0.8126781 0.533797-1.0175781 0.216797-0.2708-0.42-0.8551094-0.208-1.7246094 0.625-0.769 0.736-0.8620937 0.933265-0.7460937 1.572265 0.0138762 0.076441 0.0430597 0.145581 0.0605468 0.220703 0.1093521-0.213284 0.3166602-0.439912 0.6855469-0.792968 0.8695-0.833 1.4538094-1.045 1.7246094-0.625 0.2049 0.317 0.4331781 0.268203 1.0175781-0.216797 0.2872-0.238 0.6473813-0.433594 0.800781-0.433594 0.153 0 0.440625-0.236344 0.640625-0.527344 0.273-0.399 0.599125-0.546656 1.328125-0.597656 0.741-0.051 1.017547-0.175922 1.185547-0.544922 0.16-0.348 0.352125-0.447281 0.703125-0.363281 0.377 0.091 0.642313-0.090547 1.195313-0.810547 0.728832-0.949372 0.89494-1.565448 0.527343-1.816406zm22.669922 1.5625c-0.236672-0.003969-0.538578 5.15e-4 -0.923828 0.009765l-1.753906 0.042969 0.017578 1 1.736328-0.042969c1.541-0.037 1.753906 0.004844 1.753906 0.339844 0 0.21 0.206032 0.559344 0.457032 0.777344 0.258 0.223 0.403937 0.551859 0.335937 0.755859-0.074 0.224 0.179781 0.656532 0.675781 1.144531 0.437 0.431 0.794922 0.871516 0.794922 0.978516 0 0.506 0.863094 0.903328 1.871094 0.861328 0.214-9e-3 0.400031-0.001187 0.582031 0.007813a20 20 0 0 1 0.021485 0.261719c0.024188-0.046544 0.03817-0.093323 0.068359-0.140626a20 20 0 0 0-0.089844-1.121093c-0.182-9e-3 -0.368031-0.016813-0.582031-0.007813-1.008 0.042-1.871094-0.355328-1.871094-0.861328 0-0.107-0.357922-0.547516-0.794922-0.978516-0.496-0.487999-0.749781-0.920531-0.675781-1.144531 0.068-0.204-0.077937-0.532859-0.335937-0.755859-0.251-0.218-0.457032-0.567344-0.457032-0.777344 0-0.25125-0.120062-0.337703-0.830078-0.349609zm-23.691406 2.080078c-0.011921 0.007721-0.029728 0.011566-0.041016 0.019531-0.362 0.256-0.394968 0.37375-0.167968 0.59375 0.155 0.151 0.283203 0.494719 0.283203 0.761719s0.102562 0.54514 0.226562 0.619141c0.076509 0.045293 0.13462 0.265243 0.175782 0.535156 0.022528-0.139296 0.050781-0.267439 0.050781-0.445313 0-0.525-0.101563-1.015843-0.226563-1.089843-0.124-0.074001-0.226562-0.352141-0.226562-0.619141 0-0.118115-0.032864-0.250123-0.074219-0.375zm6.601563 4.279297c-0.305376 0.503828-0.964697 0.663372-1.429688 0.294922-0.404-0.321-1.797609-0.073516-2.224609 0.396484-0.179 0.196-0.444844 0.712531-0.589844 1.144531-0.25 0.746-0.32336 0.792391-1.443359 0.900391-1.118001 0.109-1.225297 0.073031-2.029297-0.667969-0.399241-0.367639-0.643452-0.698787-0.761719-1.046875-0.191224 0.79158 0.01625 1.360412 0.761719 2.046875 0.804 0.741 0.911296 0.776969 2.029297 0.667969 1.119999-0.108 1.193359-0.154391 1.443359-0.900391 0.145-0.432 0.410844-0.948531 0.589844-1.144531 0.427-0.47 1.820609-0.717484 2.224609-0.396484 0.525 0.416 1.298297 0.16014 1.529297-0.50586 0.163545-0.473135 0.174051-0.697317-0.099609-0.789062zm-17.238282 0.417968a20 20 0 0 0-0.0039062 0.085938 20 20 0 0 0 0.0527344 0.964844c0.2624836 0.227748 0.4928553 0.511495 0.5625 0.777344 0.0768 0.293 0.4506781 0.744906 0.8300781 1.003906 0.0419214 0.02861 0.0611318 0.046498 0.0976563 0.072265 0.0728914-0.155746 0.162944-0.286227 0.2539062-0.353515 0.2861-0.211 0.2345375-0.31875-0.3515625-0.71875-0.3794-0.259-0.7532781-0.710906-0.8300781-1.003906-0.0744-0.284-0.3260281-0.594126-0.6113282-0.828126zm39.859375 0.433594c-0.145383 0.322444-0.139182 0.654611 0.039063 1.101563a20 20 0 0 0 0.066406-0.822266c-0.047803-0.102168-0.073423-0.188592-0.105469-0.279297zm-36.582031 1.207032c-0.1827218 0.135393-0.3748141 0.255763-0.5234375 0.300781-0.6230617 0.189587-0.315312 0.418148 0.6738281 0.574219 0.0459717-0.040153 0.1046335-0.075042 0.1425782-0.115235 0.3726-0.394 0.3605937-0.427375-0.2539063-0.734375-0.0133911-0.006694-0.0257369-0.018225-0.0390625-0.02539zm29.84375 0.035156c-0.164735 0.479122-0.134798 0.722874 0.091797 1.242187 0.175 0.403 0.531969 0.796 0.792969 0.875 0.26 0.079 0.474609 0.319156 0.474609 0.535157 0 0.216 0.140453 0.506531 0.314453 0.644531 0.249 0.197 0.404328 0.134125 0.736328-0.296875 0.233-0.303 0.752969-0.6085 1.167969-0.6875l0.673828-0.126953c0.001461-0.063966-3.94e-4 -0.120814 0.005859-0.19336l0.070313-0.820312-0.75 0.140625c-0.415 0.079-0.934969 0.3845-1.167969 0.6875-0.332 0.431-0.487328 0.493875-0.736328 0.296875-0.174-0.138-0.314453-0.428531-0.314453-0.644531 0-0.216001-0.214609-0.456157-0.474609-0.535157-0.261-0.079-0.617969-0.472-0.792969-0.875-0.040943-0.093834-0.063181-0.164141-0.091797-0.242187zm5.302734 1.589844c-0.053549 0.183071-0.116161 0.370403-0.21875 0.605468-0.329753 0.756273-0.677143 0.881584-0.794922 0.44336l-0.03125 0.353515c-0.095 1.102 0.383172 1.219125 0.826172 0.203125 0.316543-0.725307 0.408341-1.149178 0.21875-1.605468zm-33.765625 0.570312c-0.2487332 0.277591-0.2126806 0.367186 0.2460937 0.65625 0.1287191-0.265708 0.0461982-0.488887-0.2460937-0.65625zm1.265625 0.814453c-0.2691799-0.035522-0.4148116 0.010951-0.4121094 0.115235 0.3211472 0.089238 0.560978 0.060707 0.650391-0.054688-0.077353-0.018001-0.1734382-0.05199-0.2382816-0.060547zm2.9843746 0.029297c-0.038696 0.059593-0.066498 0.120033-0.121093 0.177734-0.379995 0.402658-0.384797 0.865769-0.083985 1.107422 0.027603-0.036048 0.050686-0.072136 0.083985-0.107422 0.390039-0.412229 0.356292-0.888488 0.121093-1.177734zm3.078125 0.296875c-0.089281 0.008578-0.144531 0.039203-0.144531 0.095703 0 0.367 0.857766 1.896656 1.384766 2.472656 0.250921 0.273629 0.396822 0.482303 0.498047 0.677735 0.004719-0.010693 0.013052-0.012157 0.017578-0.023438 0.246-0.614 0.147375-0.931297-0.515625-1.654297-0.306878-0.33541-0.709562-0.980544-1.00586-1.544922-0.084687-0.012373-0.174854-0.029156-0.234375-0.023437zm-5.691406 1.634766c-0.187-0.019-0.4121093 0.080312-0.6621092 0.320312-0.3620373 0.346362-0.4337388 0.930449-0.2539063 1.394531 0.0583525-0.146685 0.1389585-0.28456 0.2539063-0.394531 0.25-0.24 0.4751092-0.339312 0.6621092-0.320312 0.266598 0.02796 0.442271 0.32622 0.511719 0.804687 0.004119-0.032055 0.012105-0.04764 0.015625-0.082031 0.107-1.048-0.117344-1.679656-0.527344-1.722656zm3.394531 3.023437c-0.204 7e-3 -0.429296 0.152938-0.654297 0.460938-0.239 0.326-0.30389 0.747718-0.21289 1.386718 0.005242 0.036463 0.005241 0.055976 0.009766 0.089844 0.040338-0.1794 0.102809-0.339731 0.203124-0.476562 0.225-0.308 0.450297-0.453938 0.654297-0.460938 0.45-0.014 0.794922 0.651344 0.794922 1.777344 0 0.371519 0.032871 0.623674 0.128907 0.853516 0.286324 0.068515 0.57792 0.205399 0.832031 0.433593 0.343 0.308 0.623047 0.463703 0.623047 0.345703s-0.356969-0.547172-0.792969-0.951172c-0.667-0.619999-0.791016-0.88364-0.791016-1.68164 0-1.126-0.344922-1.791344-0.794922-1.777344zm-5.5742184 2.582031a20 20 0 0 0 0.4628906 0.583985c-0.1363-0.211-0.2918906-0.412985-0.4628906-0.583985zm4.6953124 0.123047c-0.058846 0.126971-0.159544 0.216084-0.335937 0.306641-0.46912 0.239437-0.607877 0.897095-0.332032 1.332031 0.079918-0.136873 0.185682-0.257335 0.332032-0.332031 0.411-0.211 0.460656-0.378063 0.347656-1.164063-0.007345-0.051572-0.006416-0.093781-0.011719-0.142578zm10.304688 0.308594c-0.145003 0.168351-0.352203 0.362106-0.591797 0.537109-0.538 0.393-0.770375 0.727688-0.734375 1.054688 0.045 0.409-0.047953 0.472687-0.626953 0.429687-0.373-0.028-1.0215 0.103016-1.4375 0.291016-0.493 0.222-1.026344 0.293125-1.527344 0.203125-0.576-0.103-0.771484-0.062891-0.771484 0.162109 0 0.166-0.201266 0.475454-0.447266 0.689454-0.532799 0.461817-0.373139 0.713146 0.294922 0.660156 0.090844-0.133952 0.152344-0.261134 0.152344-0.34961 0-0.225 0.195484-0.265109 0.771484-0.162109 0.225205 0.040456 0.457634 0.04323 0.689453 0.019531-0.033023-0.102546-0.035522-0.199908 0.015625-0.279297 0.114956-0.177254 0.511247-0.201245 1.25-0.074218 0.360232-0.103645 0.745313-0.180008 1.009766-0.160157 0.579 0.043 0.671953-0.020687 0.626953-0.429687-0.036-0.327 0.196375-0.661688 0.734375-1.054688 0.434-0.317 0.789062-0.706234 0.789062-0.865234 0-0.216995-0.085239-0.449746-0.197265-0.671875zm9.855468 0.001953c-0.01981-0.018896-0.089892 0.014768-0.179687 0.072266-0.147295 0.313391-0.334779 0.623843-0.548828 0.816406-0.623475 0.561034-0.671138 0.925642-0.201172 1.216797 0.065993-0.071787 0.11323-0.137663 0.201172-0.216797 0.528-0.475 0.979515-1.647672 0.728515-1.888672zm-24.855468 0.566406c0.171 0.171 0.3265906 0.372985 0.4628906 0.583985a20 20 0 0 1-0.4628906-0.583985zm6.7402344 2.070313c-0.101 0.035-0.144531 0.161765-0.144531 0.384766 0 0.225999-0.144313 0.463343-0.320313 0.527343-0.234 0.086-0.287265 0.356906-0.197265 1.003907 0.010217 0.072722 0.011254 0.129943 0.015625 0.191406 0.039046-0.093865 0.094148-0.163157 0.18164-0.195313 0.176-0.064 0.320313-0.301344 0.320313-0.527343 0-0.223001 0.043531-0.349766 0.144531-0.384766 0.102-0.035 0.262094 0.022062 0.496094 0.164062 0.002697 0.001641 0.003222 0.004204 0.005859 0.00586 0.21849-0.656558 0.217569-0.870015-0.005859-1.00586-0.234-0.142-0.394094-0.199062-0.496094-0.164062zm4.560547 1.470703c-0.266468 9.05e-4 -0.447033 0.043731-0.513672 0.146484-0.206203 0.320063 0.36426 0.890676 0.980469 1.066407 0.111861-0.090941 0.240474-0.165638 0.388672-0.201172 0.723-0.174 0.608265-0.642422-0.177735-0.732422-0.239735-0.02714-0.469765-0.142516-0.677734-0.279297zm-1.101563 0.917969c-0.171 0.24075-0.43114 0.398437-0.68164 0.335937-0.318-0.08-0.46936 0.029297-0.56836 0.404297-0.034 0.133-0.096875 0.245797-0.171875 0.341797a20 20 0 0 0 0.769532 0.255859c0.492403 0.089044 1.007663-0.64735 0.798828-1.167968-0.031486-0.078714-0.082901-0.12997-0.146485-0.169922zm1.361329 1.513672c-0.081425 0.116381-0.13362 0.243515-0.16211 0.373046a20 20 0 0 0 0.542969 0.13086c-0.1-0.191-0.213219-0.36536-0.324219-0.44336-0.023848-0.016855-0.036432-0.04133-0.05664-0.060546z" style="fill:#ffffff;opacity:.1"/>
</svg>
