<?xml version="1.0" encoding="UTF-8" standalone="no"?>
<svg
   xmlns:dc="http://purl.org/dc/elements/1.1/"
   xmlns:cc="http://creativecommons.org/ns#"
   xmlns:rdf="http://www.w3.org/1999/02/22-rdf-syntax-ns#"
   xmlns:svg="http://www.w3.org/2000/svg"
   xmlns="http://www.w3.org/2000/svg"
   xmlns:sodipodi="http://sodipodi.sourceforge.net/DTD/sodipodi-0.dtd"
   xmlns:inkscape="http://www.inkscape.org/namespaces/inkscape"
   height="48"
   width="48"
   version="1"
   id="svg20"
   sodipodi:docname="castbox.svg"
   inkscape:version="0.92.1 r15371">
  <metadata
     id="metadata26">
    <rdf:RDF>
      <cc:Work
         rdf:about="">
        <dc:format>image/svg+xml</dc:format>
        <dc:type
           rdf:resource="http://purl.org/dc/dcmitype/StillImage" />
        <dc:title />
      </cc:Work>
    </rdf:RDF>
  </metadata>
  <defs
     id="defs24" />
  <sodipodi:namedview
     pagecolor="#ffffff"
     bordercolor="#666666"
     borderopacity="1"
     objecttolerance="10"
     gridtolerance="10"
     guidetolerance="10"
     inkscape:pageopacity="0"
     inkscape:pageshadow="2"
     inkscape:window-width="1600"
     inkscape:window-height="831"
     id="namedview22"
     showgrid="false"
     inkscape:zoom="9.8"
     inkscape:cx="22.23732"
     inkscape:cy="19.918367"
     inkscape:window-x="0"
     inkscape:window-y="0"
     inkscape:window-maximized="1"
     inkscape:current-layer="svg20" />
  <rect
     ry="20"
     rx="20"
     transform="matrix(0,-1,-1,0,0,0)"
     height="40"
     width="40"
     y="-44"
     x="-44"
     fill="#1da6e8"
     id="rect2"
     style="fill:#7c4c9c;fill-opacity:1" />
  <path
     opacity=".2"
     fill="#fff"
     d="m24 4c-11.08 0-20 8.92-20 20 0 0.168 0.008 0.333 0.0117 0.5 0.2647-10.846 9.0763-19.5 19.988-19.5s19.724 8.6539 19.988 19.5c0.004-0.16686 0.0117-0.33213 0.0117-0.5 0-11.08-8.92-20-20-20z"
     id="path4"
     style="opacity:0.1" />
  <path
     opacity=".2"
     d="m4.0117 24.5c-0.0041 0.167-0.0117 0.332-0.0117 0.5 0 11.08 8.92 20 20 20s20-8.92 20-20c0-0.16787-0.0076-0.33314-0.01172-0.5-0.264 10.846-9.076 19.5-19.988 19.5s-19.724-8.654-19.988-19.5z"
     id="path18" />
  <g
     transform="translate(0,3)"
     id="g4516"
     style="opacity:0.2;fill:#000000;fill-opacity:1">
    <path
       inkscape:connector-curvature="0"
       id="path4508"
       d="m 24,8 c -6.627417,0 -12,5.372583 -12,12 0.01054,3.838017 1.85269,7.411143 4.908203,9.648438 0.02455,0.01797 0.05106,0.02525 0.07617,0.03711 a 1,1 0 0 0 0.615234,0.214844 1,1 0 0 0 1,-1 A 1,1 0 0 0 18,27.982422 v -0.002 C 15.487432,26.096053 14.006139,23.140698 14,20 c 0,-5.522847 4.477153,-10 10,-10 5.522847,0 10,4.477153 10,10 -0.008,3.138635 -1.489077,6.091432 -4,7.974609 l -0.002,0.0098 a 1,1 0 0 0 -0.597656,0.916016 1,1 0 0 0 1,1 1,1 0 0 0 0.630859,-0.226563 c 0.03086,-0.01144 0.06345,-0.01816 0.0918,-0.03906 C 34.162116,27.393986 35.992607,23.82807 36,20 36,13.372583 30.627417,8 24,8 Z"
       style="opacity:1;fill:#000000;fill-opacity:1;stroke:none;stroke-width:8.06861305;stroke-linecap:round;stroke-linejoin:round;stroke-miterlimit:4;stroke-dasharray:none;stroke-dashoffset:0;stroke-opacity:1" />
    <path
       inkscape:connector-curvature="0"
       id="path4510"
       d="m 24,12 c -4.418278,0 -8,3.581722 -8,8 0.0036,2.407547 1.088815,4.659929 2.912109,6.162109 0.03917,0.03227 0.07929,0.05073 0.119141,0.06055 a 1,1 0 0 0 0.568359,0.177735 1,1 0 0 0 1,-1 A 1,1 0 0 0 20,24.482422 v -0.01758 C 18.729291,23.32829 18.002073,21.704832 18,20 c 0,-3.313708 2.686292,-6 6,-6 3.313708,0 6,2.686292 6,6 -0.0026,1.704151 -0.729797,3.326791 -2,4.462891 v 0.01953 a 1,1 0 0 0 -0.599609,0.917969 1,1 0 0 0 1,1 1,1 0 0 0 0.478515,-0.123047 c 0.04639,-0.0034 0.09317,-0.01806 0.138672,-0.05469 C 30.884369,24.71995 31.997474,22.439792 32,20 32,15.581722 28.418278,12 24,12 Z"
       style="opacity:1;fill:#000000;fill-opacity:1;stroke:none;stroke-width:8.06861305;stroke-linecap:round;stroke-linejoin:round;stroke-miterlimit:4;stroke-dasharray:none;stroke-dashoffset:0;stroke-opacity:1" />
    <path
       inkscape:connector-curvature="0"
       id="path4512"
       d="m 24,17 a 3,3 0 0 0 -3,3 3,3 0 0 0 3,3 3,3 0 0 0 3,-3 3,3 0 0 0 -3,-3 z"
       style="opacity:1;fill:#000000;fill-opacity:1;stroke:none;stroke-width:6.05145979;stroke-linecap:round;stroke-linejoin:round;stroke-miterlimit:4;stroke-dasharray:none;stroke-dashoffset:0;stroke-opacity:1" />
    <rect
       style="opacity:1;fill:#000000;fill-opacity:1;stroke:none;stroke-width:4.11133099;stroke-linecap:round;stroke-linejoin:round;stroke-miterlimit:4;stroke-dasharray:none;stroke-dashoffset:0;stroke-opacity:1"
       id="rect4514"
       width="6"
       height="11"
       x="21"
       y="25"
       rx="3"
       ry="3" />
  </g>
  <g
     id="g4506"
     transform="translate(0,2)">
    <path
       style="opacity:1;fill:#ffffff;fill-opacity:1;stroke:none;stroke-width:8.06861305;stroke-linecap:round;stroke-linejoin:round;stroke-miterlimit:4;stroke-dasharray:none;stroke-dashoffset:0;stroke-opacity:1"
       d="m 24,8 c -6.627417,0 -12,5.372583 -12,12 0.01054,3.838017 1.85269,7.411143 4.908203,9.648438 0.02455,0.01797 0.05106,0.02525 0.07617,0.03711 a 1,1 0 0 0 0.615234,0.214844 1,1 0 0 0 1,-1 A 1,1 0 0 0 18,27.982422 v -0.002 C 15.487432,26.096053 14.006139,23.140698 14,20 c 0,-5.522847 4.477153,-10 10,-10 5.522847,0 10,4.477153 10,10 -0.008,3.138635 -1.489077,6.091432 -4,7.974609 l -0.002,0.0098 a 1,1 0 0 0 -0.597656,0.916016 1,1 0 0 0 1,1 1,1 0 0 0 0.630859,-0.226563 c 0.03086,-0.01144 0.06345,-0.01816 0.0918,-0.03906 C 34.162116,27.393986 35.992607,23.82807 36,20 36,13.372583 30.627417,8 24,8 Z"
       id="path4494"
       inkscape:connector-curvature="0" />
    <path
       style="opacity:1;fill:#ffffff;fill-opacity:1;stroke:none;stroke-width:8.06861305;stroke-linecap:round;stroke-linejoin:round;stroke-miterlimit:4;stroke-dasharray:none;stroke-dashoffset:0;stroke-opacity:1"
       d="m 24,12 c -4.418278,0 -8,3.581722 -8,8 0.0036,2.407547 1.088815,4.659929 2.912109,6.162109 0.03917,0.03227 0.07929,0.05073 0.119141,0.06055 a 1,1 0 0 0 0.568359,0.177735 1,1 0 0 0 1,-1 A 1,1 0 0 0 20,24.482422 v -0.01758 C 18.729291,23.32829 18.002073,21.704832 18,20 c 0,-3.313708 2.686292,-6 6,-6 3.313708,0 6,2.686292 6,6 -0.0026,1.704151 -0.729797,3.326791 -2,4.462891 v 0.01953 a 1,1 0 0 0 -0.599609,0.917969 1,1 0 0 0 1,1 1,1 0 0 0 0.478515,-0.123047 c 0.04639,-0.0034 0.09317,-0.01806 0.138672,-0.05469 C 30.884369,24.71995 31.997474,22.439792 32,20 32,15.581722 28.418278,12 24,12 Z"
       id="path4492"
       inkscape:connector-curvature="0" />
    <path
       style="opacity:1;fill:#ffffff;fill-opacity:1;stroke:none;stroke-width:6.05145979;stroke-linecap:round;stroke-linejoin:round;stroke-miterlimit:4;stroke-dasharray:none;stroke-dashoffset:0;stroke-opacity:1"
       d="m 24,17 a 3,3 0 0 0 -3,3 3,3 0 0 0 3,3 3,3 0 0 0 3,-3 3,3 0 0 0 -3,-3 z"
       id="path4490"
       inkscape:connector-curvature="0" />
    <rect
       ry="3"
       rx="3"
       y="25"
       x="21"
       height="11"
       width="6"
       id="rect4500"
       style="opacity:1;fill:#ffffff;fill-opacity:1;stroke:none;stroke-width:4.11133099;stroke-linecap:round;stroke-linejoin:round;stroke-miterlimit:4;stroke-dasharray:none;stroke-dashoffset:0;stroke-opacity:1" />
  </g>
</svg>
