<svg width="48" height="48" version="1.1" viewBox="0 0 48 48" xmlns="http://www.w3.org/2000/svg">
 <g transform="translate(0,-1004.3622)">
  <g transform="matrix(1.0891,0,0,1.1075178,4.2893253,1009.3622)" style="fill:#000000;opacity:.2">
   <g style="fill:#000000">
    <path transform="matrix(.91819 0 0 .90292 -3.9385 -3.6117)" d="m26.035 4c-0.222 0.1119-0.476 0.1957-0.676 0.3496-0.385 0.299-0.76 0.6185-1.105 0.9629-0.379 0.3777-0.771 0.5919-1.324 0.707-1.329 0.2725-2.678 0.5744-3.92 1.1016-2.762 1.1762-4.59 3.3919-5.893 6.0569-1.156 2.369-1.177 4.937-1.082 7.517 0.196 5.323 4.035 9.209 5.711 13.305h0.434c-0.654 0-1.18 0.445-1.18 0.998v2.004c0 0.553 0.526 0.998 1.18 0.998h-1.637c-0.855 0-1.543 0.668-1.543 1.498v3.004c0 0.83 0.688 1.498 1.543 1.498h13.914c0.855 0 1.543-0.668 1.543-1.498v-3.004c0-0.83-0.688-1.498-1.543-1.498h-1.637c0.654 0 1.18-0.445 1.18-0.998v-2.004c0-0.553-0.526-0.998-1.18-0.998h0.182c0.424-0.398 0.829-1.111 1.207-1.518 1.713-1.834 2.019-4.437 0.816-6.666-0.588-1.088-1.415-1.971-2.369-2.726-1.074-0.85-2.184-1.651-3.267-2.488-0.31-0.24-0.584-0.525-0.996-0.901 1.021 0.218 1.836 0.501 2.658 0.543 1.419 0.071 2.643 0.547 3.779 1.383 0.439 0.323 0.949 0.582 1.463 0.762 0.668 0.232 1 0.066 1.398-0.545 0.105-0.161 0.168-0.347 0.268-0.559 0.791 0.011 1.226-0.451 1.443-1.191 0.074-0.253 0.2-0.487 0.291-0.733 0.615-1.648 0.299-3.107-0.879-4.379-0.263-0.291-0.576-0.533-0.851-0.812-0.918-0.928-1.841-1.851-2.736-2.801-0.65-0.691-1.235-1.4432-1.891-2.1288-0.325-0.3378-0.599-0.6759-0.75-1.1289-0.228-0.6789-0.656-1.2014-1.279-1.5547-0.221-0.1251-0.432-0.2709-0.592-0.375-0.257-0.7575 0.352-1.7054-0.68-2.1816z" style="fill:#000000"/>
   </g>
  </g>
  <g transform="matrix(1.0891,0,0,1.1075178,4.2893253,1008.3619)" style="fill:#4f4f4f">
   <g style="fill:#4f4f4f">
    <path transform="matrix(.91819 0 0 .90292 -3.9385 -3.6117)" d="m26.035 4c-0.222 0.1119-0.476 0.1957-0.676 0.3496-0.385 0.299-0.76 0.6185-1.105 0.9629-0.379 0.3777-0.771 0.5919-1.324 0.707-1.329 0.2725-2.678 0.5744-3.92 1.1016-2.762 1.1762-4.59 3.3919-5.893 6.0569-1.156 2.369-1.177 4.937-1.082 7.517 0.196 5.323 4.035 9.209 5.711 13.305h0.434c-0.654 0-1.18 0.445-1.18 0.998v2.004c0 0.553 0.526 0.998 1.18 0.998h-1.637c-0.855 0-1.543 0.668-1.543 1.498v3.004c0 0.83 0.688 1.498 1.543 1.498h13.914c0.855 0 1.543-0.668 1.543-1.498v-3.004c0-0.83-0.688-1.498-1.543-1.498h-1.637c0.654 0 1.18-0.445 1.18-0.998v-2.004c0-0.553-0.526-0.998-1.18-0.998h0.182c0.424-0.398 0.829-1.111 1.207-1.518 1.713-1.834 2.019-4.437 0.816-6.666-0.588-1.088-1.415-1.971-2.369-2.726-1.074-0.85-2.184-1.651-3.267-2.488-0.31-0.24-0.584-0.525-0.996-0.901 1.021 0.218 1.836 0.501 2.658 0.543 1.419 0.071 2.643 0.547 3.779 1.383 0.439 0.323 0.949 0.582 1.463 0.762 0.668 0.232 1 0.066 1.398-0.545 0.105-0.161 0.168-0.347 0.268-0.559 0.791 0.011 1.226-0.451 1.443-1.191 0.074-0.253 0.2-0.487 0.291-0.733 0.615-1.648 0.299-3.107-0.879-4.379-0.263-0.291-0.576-0.533-0.851-0.812-0.918-0.928-1.841-1.851-2.736-2.801-0.65-0.691-1.235-1.4432-1.891-2.1288-0.325-0.3378-0.599-0.6759-0.75-1.1289-0.228-0.6789-0.656-1.2014-1.279-1.5547-0.221-0.1251-0.432-0.2709-0.592-0.375-0.257-0.7575 0.352-1.7054-0.68-2.1816z" style="fill:#4f4f4f"/>
   </g>
  </g>
  <g transform="matrix(1.0891,0,0,1.1075178,4.2893253,1008.3619)" style="fill:#ffffff;opacity:.1">
   <g style="fill:#ffffff">
    <path transform="matrix(.91818933 0 0 .90292003 -3.9384127 -3.6114092)" d="m26.035156 4c-0.222 0.1119-0.475781 0.1957094-0.675781 0.3496094-0.385 0.299-0.760468 0.6184906-1.105469 0.9628906-0.379 0.3777-0.771218 0.5919313-1.324218 0.7070312-1.329001 0.2725-2.677921 0.5743626-3.919922 1.1015626-2.762002 1.1761999-4.589578 3.3916402-5.892578 6.0566402-0.962946 1.973371-1.126703 4.087066-1.103516 6.228516 0.044763-1.797541 0.290669-3.562744 1.103516-5.228516 1.303-2.665 3.130576-4.8804403 5.892578-6.0566402 1.242001-0.5272 2.590921-0.8290626 3.919922-1.1015626 0.553-0.1150999 0.945218-0.3293312 1.324218-0.7070312 0.345001-0.3444 0.720469-0.6638906 1.105469-0.9628906 0.2-0.1539 0.453781-0.2377094 0.675781-0.3496094 0.460379 0.2124341 0.58934 0.51993 0.619141 0.8613281-0.058252-0.6884254 0.272145-1.4500588-0.619141-1.8613281zm0.623047 1.90625c0.025228 0.4124139-0.080658 0.8707061 0.056641 1.2753906 0.16 0.1041 0.370796 0.2499 0.591797 0.375 0.623 0.3533 1.051296 0.8757875 1.279297 1.5546875 0.151 0.453 0.424999 0.7911063 0.75 1.1289059 0.656 0.6856 1.240624 1.437907 1.890624 2.128907 0.895001 0.95 1.818328 1.872781 2.736329 2.800781 0.275 0.279 0.588562 0.5215 0.851562 0.8125 0.657968 0.710471 1.03643 1.481096 1.144531 2.308594 0.158902-1.216231-0.228492-2.31946-1.144531-3.308594-0.263-0.291-0.576562-0.5335-0.851562-0.8125-0.918001-0.928-1.841328-1.850781-2.736329-2.800781-0.65-0.691-1.234624-1.4433066-1.890624-2.1289066-0.325001-0.3378-0.599-0.6759063-0.75-1.1289063-0.228001-0.6789-0.656297-1.2013875-1.279297-1.5546875-0.221001-0.1251-0.431797-0.2709-0.591797-0.375-0.030192-0.0889887-0.046288-0.18222-0.056641-0.2753906zm-2.265625 14.794922c0.412 0.376 0.686094 0.660391 0.996094 0.90039 1.083001 0.837 2.193577 1.638282 3.267578 2.488282 0.954001 0.755 1.78114 1.638562 2.369141 2.726562 0.405209 0.7508 0.624709 1.543954 0.691406 2.335938 0.105654-1.114559-0.114688-2.267355-0.691406-3.335938-0.588001-1.088-1.41514-1.971562-2.369141-2.726562-0.86449-0.684186-1.752576-1.336933-2.630859-2.001953-0.50278-0.111032-1.030341-0.258082-1.632813-0.386719zm-6.99414 13.558594c-0.241353 0.182473-0.398438 0.441587-0.398438 0.738281v1c0-0.553 0.525687-0.998047 1.179688-0.998047h-0.433594c-0.101393-0.247795-0.231717-0.493612-0.347656-0.740234zm12.208984 0.003906c-0.196841 0.271948-0.398659 0.5422-0.605469 0.736328h-0.181641c0.654001 0 1.179688 0.445047 1.179688 0.998047v-1c0-0.293897-0.155185-0.552074-0.392578-0.734375zm-13.064453 3.736328c-0.855001 0-1.542969 0.668047-1.542969 1.498047v1c0-0.83 0.687968-1.498047 1.542969-1.498047h1.636719c-0.654001 0-1.179688-0.445047-1.179688-0.998047v-0.001953h-0.457031zm13.457031 0v0.001953c0 0.553-0.525687 0.998047-1.179688 0.998047h1.636719c0.855001 0 1.542969 0.668047 1.542969 1.498047v-1c0-0.83-0.687968-1.498047-1.542969-1.498047h-0.457031z" style="fill:#ffffff"/>
   </g>
  </g>
 </g>
</svg>
