<svg width="48" height="48" version="1" xmlns="http://www.w3.org/2000/svg">
 <path d="m16.636523 19a1.6364919 1.7335065 0 0 0-1.5804 2.183596l5.72715 22.533331a1.6364919 1.7335065 0 0 0 1.580399 1.283073h3.272656a1.6364919 1.7335065 0 0 0 1.5804-1.283073l5.727149-22.533331a1.6364919 1.7335065 0 0 0-1.580399-2.183596z" style="opacity:.2;stroke-linecap:round;stroke-linejoin:round;stroke-width:2.2356429"/>
 <path d="m22.217297 4.0035011c0.116477-0.067026 1.654858 0.8377705 3.237469 1.9037535 2.316804 1.5605162 3.78916 2.9403109 5.079368 4.7685914 0.3188 0.451801 0.58236 0.922209 0.819418 1.399098 0.137853 0.196963 0.268194 0.399122 0.39058 0.606063 2.505186 4.3236 1.145296 9.779763-3.036884 12.186379-4.182182 2.406619-9.602947 0.852353-12.107613-3.471546-0.115216-0.199039-0.223777-0.401808-0.323242-0.609133-0.121038-0.194814-0.254666-0.383261-0.358025-0.584024-1.419242-2.757611-1.130794-5.709759 0.433398-8.222272 0.828129-1.330199 2.488117-2.6864017 3.683455-3.377545 1.491249-0.8622361 1.993957-2.6060213 2.088483-4.1224497 0.01512-0.2427371 0.05872-0.4568448 0.09353-0.4768745z" style="fill:#975a34"/>
 <path d="m16.636523 18a1.6364919 1.7335065 0 0 0-1.5804 2.183596l5.72715 22.533331a1.6364919 1.7335065 0 0 0 1.580399 1.283073h3.272656a1.6364919 1.7335065 0 0 0 1.5804-1.283073l5.727149-22.533331a1.6364919 1.7335065 0 0 0-1.580399-2.183596z" style="fill:#f1b65c;stroke-linecap:round;stroke-linejoin:round;stroke-width:2.2356429"/>
 <path d="m22.216797 4.0039062c-0.03481 0.0200297-0.07863 0.2338254-0.09375 0.4765626-0.094526 1.5164283-0.596642 3.2608107-2.087891 4.1230468-1.195338 0.6911433-2.855464 2.0467544-3.683594 3.3769534-0.963083 1.54697-1.437023 3.259913-1.332031 4.992187 0.094508-1.387213 0.555079-2.744192 1.332031-3.992187 0.82813-1.330199 2.488256-2.68581 3.683594-3.3769534 1.491249-0.8622361 1.993365-2.6066185 2.087891-4.1230468 0.01512-0.2427372 0.05894-0.4565329 0.09375-0.4765626 0.116477-0.067026 1.65567 0.8383139 3.238281 1.9042969 2.316804 1.5605162 3.787917 2.9392979 5.078125 4.7675779 0.3188 0.451801 0.583255 0.921549 0.820313 1.398438 0.137853 0.196963 0.268239 0.400481 0.390625 0.607422 0.764215 1.318928 1.163812 2.743301 1.238281 4.154297 0.099603-1.729699-0.292735-3.522417-1.238281-5.154297-0.122386-0.206941-0.252772-0.410459-0.390625-0.607422-0.237058-0.476889-0.501513-0.946637-0.820313-1.398438-1.290208-1.8282802-2.761321-3.2070617-5.078125-4.7675779-1.582611-1.065983-3.121804-1.9713228-3.238281-1.9042969z" style="fill:#ffffff;opacity:.1"/>
 <rect x="13" y="19" width="22" height="2" rx="1" ry="1" style="fill:#050300;opacity:.2;stroke-linecap:round;stroke-linejoin:round;stroke-width:4.0941305"/>
 <rect x="13" y="18" width="22" height="2" rx="1" ry="1" style="fill:#ffcf88;stroke-linecap:round;stroke-linejoin:round;stroke-width:4.0941305"/>
</svg>
