<?xml version="1.0" encoding="UTF-8" standalone="no"?>
<svg
   xmlns:dc="http://purl.org/dc/elements/1.1/"
   xmlns:cc="http://creativecommons.org/ns#"
   xmlns:rdf="http://www.w3.org/1999/02/22-rdf-syntax-ns#"
   xmlns:svg="http://www.w3.org/2000/svg"
   xmlns="http://www.w3.org/2000/svg"
   xmlns:sodipodi="http://sodipodi.sourceforge.net/DTD/sodipodi-0.dtd"
   xmlns:inkscape="http://www.inkscape.org/namespaces/inkscape"
   height="48"
   width="48"
   version="1"
   id="svg12"
   sodipodi:docname="coocent-eq.svg"
   inkscape:version="0.92.1 r15371">
  <metadata
     id="metadata18">
    <rdf:RDF>
      <cc:Work
         rdf:about="">
        <dc:format>image/svg+xml</dc:format>
        <dc:type
           rdf:resource="http://purl.org/dc/dcmitype/StillImage" />
        <dc:title></dc:title>
      </cc:Work>
    </rdf:RDF>
  </metadata>
  <defs
     id="defs16" />
  <sodipodi:namedview
     pagecolor="#ffffff"
     bordercolor="#666666"
     borderopacity="1"
     objecttolerance="10"
     gridtolerance="10"
     guidetolerance="10"
     inkscape:pageopacity="0"
     inkscape:pageshadow="2"
     inkscape:window-width="1600"
     inkscape:window-height="822"
     id="namedview14"
     showgrid="false"
     inkscape:zoom="9.28"
     inkscape:cx="32.261827"
     inkscape:cy="24"
     inkscape:window-x="0"
     inkscape:window-y="0"
     inkscape:window-maximized="1"
     inkscape:current-layer="svg12" />
  <path
     d="m44 24a20 20 0 0 1 -20 20 20 20 0 0 1 -20 -20 20 20 0 0 1 20 -20 20 20 0 0 1 20 20z"
     fill="#5d5d5d"
     id="path2"
     style="fill:#3f3f3f;fill-opacity:1" />
  <path
     opacity=".1"
     d="m24 4c-11.079 0-19.998 8.92-19.998 20 0 0.16772-0.004 0.33329 0 0.5 0.2642-10.846 9.087-19.5 19.998-19.5s19.734 8.6536 19.998 19.5c0.004-0.16671 0-0.33228 0-0.5 0-11.08-8.919-20-19.998-20z"
     fill="#fff"
     id="path4" />
  <path
     opacity=".2"
     d="m43.979 24.418a20 20 0 0 1 -19.979 19.582 20 20 0 0 1 -19.978 -19.418 20 20 0 0 0 -0.022 0.418 20 20 0 0 0 20 20 20 20 0 0 0 20 -20 20 20 0 0 0 -0.021 -0.582z"
     id="path6" />
  <path
     style="opacity:1;fill:#04abff;fill-opacity:1;stroke:none;stroke-width:0.73494452;stroke-linecap:round;stroke-linejoin:round;stroke-miterlimit:4;stroke-dasharray:none;stroke-dashoffset:0;stroke-opacity:1"
     d="M 19.738281,6.5878906 C 19.60958,6.570127 19.475578,6.5774348 19.341797,6.6132812 18.806674,6.756667 18.49138,7.3027677 18.634766,7.8378906 l 0.517578,1.9316406 c 0.143385,0.5351228 0.689486,0.8504168 1.224609,0.7070308 0.535123,-0.143385 0.850417,-0.689486 0.707031,-1.2246089 L 20.566406,7.3203125 C 20.458867,6.9189703 20.124386,6.6411814 19.738281,6.5878906 Z m 8.523438,0 c -0.386105,0.053291 -0.720586,0.3310797 -0.828125,0.7324219 l -0.517578,1.9316406 c -0.143386,0.5351229 0.171908,1.0812239 0.707031,1.2246089 0.535123,0.143386 1.081223,-0.171908 1.224609,-0.7070308 L 29.365234,7.8378906 C 29.50862,7.3027677 29.193326,6.756667 28.658203,6.6132812 28.524422,6.5774348 28.39042,6.570127 28.261719,6.5878906 Z M 15.376953,8.2851562 C 15.248039,8.3013084 15.119945,8.3428594 15,8.4121094 c -0.479778,0.277 -0.642234,0.8854563 -0.365234,1.3652344 l 1,1.7324222 C 15.911766,11.989544 16.520222,12.152 17,11.875 c 0.479778,-0.277 0.642234,-0.885456 0.365234,-1.365234 l -1,-1.7324222 C 16.157484,8.4175102 15.763695,8.2366998 15.376953,8.2851562 Z m 17.246094,0 c -0.386742,-0.048456 -0.780531,0.132354 -0.988281,0.4921876 l -1,1.7324222 C 30.357766,10.989544 30.520222,11.598 31,11.875 c 0.479778,0.277 1.088234,0.114544 1.365234,-0.365234 l 1,-1.7324222 C 33.642234,9.2975657 33.479778,8.6891094 33,8.4121094 32.880055,8.3428594 32.751961,8.3013084 32.623047,8.2851562 Z M 11.978516,10.978516 c -0.255619,0 -0.511163,0.0971 -0.707032,0.292968 -0.391737,0.391738 -0.391737,1.022326 0,1.414063 l 1.414063,1.414062 c 0.391737,0.391738 1.022325,0.391738 1.414062,0 0.391738,-0.391737 0.391738,-1.022325 0,-1.414062 l -1.414062,-1.414063 c -0.195869,-0.195868 -0.451412,-0.292968 -0.707031,-0.292968 z m 24.042968,0 c -0.255619,0 -0.511162,0.0971 -0.707031,0.292968 l -1.414062,1.414063 c -0.391738,0.391737 -0.391738,1.022325 0,1.414062 0.195868,0.195869 0.451412,0.294922 0.707031,0.294922 0.255619,0 0.511163,-0.09905 0.707031,-0.294922 l 1.414063,-1.414062 c 0.391737,-0.391737 0.391737,-1.022325 0,-1.414063 -0.195869,-0.195868 -0.451413,-0.292968 -0.707032,-0.292968 z M 9.4003906,14.507812 C 9.0136491,14.459356 8.6198594,14.640166 8.4121094,15 c -0.277,0.479778 -0.1145437,1.088234 0.3652344,1.365234 l 1.7324222,1 C 10.989544,17.642234 11.598,17.479778 11.875,17 c 0.277,-0.479778 0.114544,-1.088234 -0.365234,-1.365234 l -1.7324222,-1 C 9.6573992,14.565516 9.5293045,14.523965 9.4003906,14.507812 Z m 29.1992184,0 c -0.128913,0.01615 -0.257008,0.0577 -0.376953,0.126954 l -1.732422,1 C 36.010456,15.911766 35.848,16.520222 36.125,17 c 0.277,0.479778 0.885456,0.642234 1.365234,0.365234 l 1.732422,-1 c 0.479778,-0.277 0.642235,-0.885456 0.365235,-1.365234 -0.20775,-0.359834 -0.60154,-0.540644 -0.988282,-0.492188 z M 7.4414062,18.609375 c -0.3861051,0.05329 -0.7205856,0.33108 -0.828125,0.732422 -0.1433857,0.535123 0.1719084,1.081224 0.7070313,1.224609 l 1.9316406,0.517578 C 9.787076,21.22737 10.333177,20.912076 10.476562,20.376953 10.619948,19.84183 10.304654,19.295729 9.7695312,19.152344 L 7.8378906,18.634766 C 7.7041099,18.598919 7.570108,18.591611 7.4414062,18.609375 Z m 33.1171878,0 c -0.128702,-0.01776 -0.262704,-0.01046 -0.396485,0.02539 l -1.93164,0.517578 c -0.535123,0.143386 -0.850417,0.689486 -0.707031,1.224609 0.143385,0.535123 0.689486,0.850417 1.224609,0.707031 l 1.931641,-0.517578 c 0.535122,-0.143386 0.850417,-0.689486 0.707031,-1.224609 -0.10754,-0.401342 -0.44202,-0.679131 -0.828125,-0.732422 z m -30.9101565,8.28125 c -0.1287017,-0.01776 -0.2627036,-0.01046 -0.3964844,0.02539 L 7.3203125,27.433594 C 6.7851896,27.57698 6.4698955,28.12308 6.6132812,28.658203 6.756667,29.193326 7.3027677,29.50862 7.8378906,29.365234 L 9.7695312,28.847656 C 10.304654,28.70427 10.619948,28.15817 10.476562,27.623047 10.369023,27.221705 10.034543,26.943916 9.6484375,26.890625 Z m 28.7031245,0 c -0.386105,0.05329 -0.720585,0.33108 -0.828124,0.732422 -0.143386,0.535123 0.171908,1.081224 0.707031,1.224609 l 1.93164,0.517578 c 0.535123,0.143386 1.081224,-0.171908 1.22461,-0.707031 0.143385,-0.535123 -0.171909,-1.081224 -0.707031,-1.224609 l -1.931641,-0.517578 c -0.133781,-0.03585 -0.267783,-0.04315 -0.396485,-0.02539 z m -27.464843,3.617187 c -0.128914,0.01615 -0.257009,0.0577 -0.376953,0.126954 l -1.7324222,1 C 8.2975657,31.911766 8.1351094,32.520222 8.4121094,33 c 0.277,0.479778 0.8854563,0.642234 1.3652344,0.365234 l 1.7324222,-1 C 11.989544,32.088234 12.152,31.479778 11.875,31 11.66725,30.640166 11.27346,30.459356 10.886719,30.507812 Z m 26.226562,0 C 36.72654,30.459356 36.33275,30.640166 36.125,31 c -0.277,0.479778 -0.114544,1.088234 0.365234,1.365234 l 1.732422,1 c 0.479778,0.277 1.088235,0.114544 1.365235,-0.365234 0.277,-0.479778 0.114543,-1.088234 -0.365235,-1.365234 l -1.732422,-1 c -0.119944,-0.06925 -0.248039,-0.110801 -0.376953,-0.126954 z m -23.720703,3.097657 c -0.255619,0 -0.511163,0.09905 -0.707031,0.294922 l -1.414063,1.414062 c -0.391737,0.391737 -0.391737,1.022325 0,1.414063 0.391738,0.391737 1.022326,0.391737 1.414063,0 l 1.414062,-1.414063 c 0.391738,-0.391737 0.391738,-1.022325 0,-1.414062 -0.195868,-0.195869 -0.451412,-0.294922 -0.707031,-0.294922 z m 21.214844,0 c -0.12781,0 -0.256613,0.02525 -0.376953,0.07422 -0.120341,0.04897 -0.232144,0.122768 -0.330078,0.220703 -0.391738,0.391737 -0.391738,1.022325 0,1.414062 l 1.414062,1.414063 c 0.391737,0.391737 1.022325,0.391737 1.414063,0 0.391737,-0.391738 0.391737,-1.022326 0,-1.414063 l -1.414063,-1.414062 c -0.195868,-0.195869 -0.451412,-0.294922 -0.707031,-0.294922 z m -17.984375,2.392578 c -0.386742,-0.04846 -0.780531,0.132354 -0.988281,0.492187 l -1,1.732422 c -0.277,0.479778 -0.114544,1.088235 0.365234,1.365235 0.479778,0.277 1.088234,0.114543 1.365234,-0.365235 l 1,-1.732422 C 17.642234,37.010456 17.479778,36.402 17,36.125 16.880055,36.05575 16.751961,36.014199 16.623047,35.998047 Z m 14.753906,0 C 31.248039,36.014199 31.119945,36.05575 31,36.125 c -0.479778,0.277 -0.642234,0.885456 -0.365234,1.365234 l 1,1.732422 c 0.277,0.479778 0.885456,0.642235 1.365234,0.365235 0.479778,-0.277 0.642234,-0.885457 0.365234,-1.365235 l -1,-1.732422 c -0.20775,-0.359833 -0.601539,-0.540644 -0.988281,-0.492187 z m -11.396484,1.5 c -0.386105,0.05329 -0.720586,0.33108 -0.828125,0.732422 l -0.517578,1.93164 c -0.143386,0.535123 0.171908,1.081224 0.707031,1.22461 0.535123,0.143386 1.081223,-0.171909 1.224609,-0.707031 l 0.517578,-1.931641 c 0.143386,-0.535123 -0.171908,-1.081224 -0.707031,-1.224609 -0.133781,-0.03585 -0.267783,-0.04315 -0.396484,-0.02539 z m 8.039062,0 c -0.128701,-0.01776 -0.262703,-0.01046 -0.396484,0.02539 -0.535123,0.143385 -0.850417,0.689486 -0.707031,1.224609 l 0.517578,1.931641 c 0.143385,0.535122 0.689486,0.850416 1.224609,0.707031 0.535123,-0.143386 0.850417,-0.689487 0.707031,-1.22461 l -0.517578,-1.93164 c -0.107539,-0.401342 -0.44202,-0.679131 -0.828125,-0.732422 z"
     id="rect4495"
     inkscape:connector-curvature="0"
     sodipodi:nodetypes="sscsccssssccccssscccsccssccscccsscsccccsscccscscscsccsccccccsccsccssccscccccccccccccsccccccsccscccccsccsccsccscccscscsccsscccscscscccsccccccccsccccccscccccccscccc" />
  <circle
     r="12"
     cy="25"
     cx="24"
     id="circle4668"
     style="opacity:0.2;fill:#000000;fill-opacity:1;stroke:none;stroke-width:1.78319049;stroke-linecap:round;stroke-linejoin:round;stroke-miterlimit:4;stroke-dasharray:none;stroke-dashoffset:0;stroke-opacity:1" />
  <circle
     style="opacity:1;fill:#5d5d5d;fill-opacity:1;stroke:none;stroke-width:1.78319049;stroke-linecap:round;stroke-linejoin:round;stroke-miterlimit:4;stroke-dasharray:none;stroke-dashoffset:0;stroke-opacity:1"
     id="path4666"
     cx="3.5527137e-15"
     cy="33.941124"
     r="12"
     transform="rotate(-45)" />
  <path
     style="opacity:0.1;fill:#ffffff;fill-opacity:1;stroke:none;stroke-width:1.78319049;stroke-linecap:round;stroke-linejoin:round;stroke-miterlimit:4;stroke-dasharray:none;stroke-dashoffset:0;stroke-opacity:1"
     d="M 24 12 A 12 12 0 0 0 12 24 A 12 12 0 0 0 12.019531 24.59375 A 12 12 0 0 1 24 13 A 12 12 0 0 1 35.980469 24.40625 A 12 12 0 0 0 36 24 A 12 12 0 0 0 24 12 z "
     id="circle4670" />
  <rect
     transform="rotate(-45)"
     ry="0.89768428"
     y="23.648396"
     x="-1.7072692"
     height="8"
     width="2"
     id="rect4683"
     style="opacity:0.2;fill:#000000;fill-opacity:1;stroke:none;stroke-width:1.71592665;stroke-linecap:round;stroke-linejoin:round;stroke-miterlimit:4;stroke-dasharray:none;stroke-dashoffset:0;stroke-opacity:1" />
  <rect
     style="opacity:1;fill:#04abff;fill-opacity:1;stroke:none;stroke-width:1.71592665;stroke-linecap:round;stroke-linejoin:round;stroke-miterlimit:4;stroke-dasharray:none;stroke-dashoffset:0;stroke-opacity:1"
     id="rect4675"
     width="2"
     height="8"
     x="-1"
     y="22.941126"
     ry="0.89768428"
     transform="rotate(-45)" />
  <path
     style="opacity:0.1;fill:#ffffff;fill-opacity:1;stroke:none;stroke-width:1.71592665;stroke-linecap:round;stroke-linejoin:round;stroke-miterlimit:4;stroke-dasharray:none;stroke-dashoffset:0;stroke-opacity:1"
     d="M 16.929688 15.884766 C 16.700222 15.884766 16.47075 15.974562 16.294922 16.150391 L 16.150391 16.294922 C 15.838382 16.606931 15.818893 17.079594 16.060547 17.429688 C 16.091353 17.384979 16.110563 17.334749 16.150391 17.294922 L 16.294922 17.150391 C 16.646578 16.798734 17.212797 16.798734 17.564453 17.150391 L 21.951172 21.537109 C 21.991121 21.577058 22.010143 21.627018 22.041016 21.671875 C 22.281902 21.321868 22.262879 20.848817 21.951172 20.537109 L 17.564453 16.150391 C 17.388625 15.974562 17.159153 15.884766 16.929688 15.884766 z "
     id="rect4685" />
  <path
     style="opacity:1;fill:#04abff;fill-opacity:1;stroke:none;stroke-width:0.73494452;stroke-linecap:round;stroke-linejoin:round;stroke-miterlimit:4;stroke-dasharray:none;stroke-dashoffset:0;stroke-opacity:1"
     d="M 24 6 C 23.446 6.0000001 23 6.4459999 23 7 L 23 9 C 23 9.5539997 23.446 10 24 10 C 24.554 10.000001 25.000001 9.554 25 9 L 25 7 C 25 6.5845 24.749781 6.2295315 24.390625 6.078125 C 24.270907 6.027656 24.1385 6 24 6 z M 7 23 C 6.446001 22.999999 6.000001 23.446 6 24 C 6 24.554 6.446 25 7 25 L 9 25 C 9.4155 25 9.77047 24.747829 9.921875 24.388672 C 9.972345 24.268953 10.00001 24.138501 10 24 C 10.000001 23.446 9.554 23 9 23 L 7 23 z M 39 23 C 38.446001 23 38 23.446 38 24 C 37.999999 24.554 38.446 25.000001 39 25 L 41 25 C 41.4155 25 41.770468 24.749781 41.921875 24.390625 C 41.972345 24.270907 42 24.1385 42 24 C 42 23.446 41.554 23 41 23 L 39 23 z M 24 38 C 23.446 37.999999 23 38.446 23 39 L 23 41 C 22.999999 41.553999 23.446 41.999999 24 42 C 24.554 42 25 41.554 25 41 L 25 39 C 25 38.5845 24.747829 38.22953 24.388672 38.078125 C 24.268953 38.027655 24.138501 37.99999 24 38 z "
     id="path4708" />
</svg>
