<?xml version="1.0" encoding="UTF-8" standalone="no"?>
<svg
   xmlns:dc="http://purl.org/dc/elements/1.1/"
   xmlns:cc="http://creativecommons.org/ns#"
   xmlns:rdf="http://www.w3.org/1999/02/22-rdf-syntax-ns#"
   xmlns:svg="http://www.w3.org/2000/svg"
   xmlns="http://www.w3.org/2000/svg"
   xmlns:sodipodi="http://sodipodi.sourceforge.net/DTD/sodipodi-0.dtd"
   xmlns:inkscape="http://www.inkscape.org/namespaces/inkscape"
   version="1.1"
   x="0"
   y="0"
   viewBox="0 0 48 48"
   xml:space="preserve"
   width="48"
   height="48"
   id="svg12"
   sodipodi:docname="dolphin-zero-browser.svg"
   inkscape:version="0.92.1 r15371"><metadata
     id="metadata18"><rdf:RDF><cc:Work
         rdf:about=""><dc:format>image/svg+xml</dc:format><dc:type
           rdf:resource="http://purl.org/dc/dcmitype/StillImage" /><dc:title></dc:title></cc:Work></rdf:RDF></metadata><defs
     id="defs16" /><sodipodi:namedview
     pagecolor="#ffffff"
     bordercolor="#666666"
     borderopacity="1"
     objecttolerance="10"
     gridtolerance="10"
     guidetolerance="10"
     inkscape:pageopacity="0"
     inkscape:pageshadow="2"
     inkscape:window-width="1600"
     inkscape:window-height="822"
     id="namedview14"
     showgrid="false"
     inkscape:zoom="4.9166667"
     inkscape:cx="-15.864407"
     inkscape:cy="24"
     inkscape:window-x="0"
     inkscape:window-y="0"
     inkscape:window-maximized="1"
     inkscape:current-layer="svg12" /><path
     inkscape:connector-curvature="0"
     style="opacity:0.2;fill:#000000;fill-opacity:1"
     d="M 4.05912,38.079106 C 4.214504,36.766233 4.89827,35.65394 5.44752,34.760139 5.640912,34.445571 5.864178,34.268339 6,34.002823 6.01455,25.887986 9.393747,16.214454 17,12.010662 c -0.607752,-0.261287 -2.288165,-0.426713 -2.894239,-0.537653 -0.452554,-0.08217 -0.830984,-0.361921 -1.011522,-0.747504 -0.180536,-0.385592 -0.139734,-0.8271649 0.10918,-1.1801191 0.236057,-0.3346906 1.500007,-1.1440921 3.859282,-1.4280509 2.861573,-0.3446572 4.414674,0.080176 7.542114,1.1403885 1.835178,0.6221882 2.726497,0.7084475 3.758481,0.8082215 0.877532,0.08487 1.872254,0.181126 3.452556,0.583123 4.551427,1.157957 6.69253,2.994757 7.907101,4.200407 0.948144,0.941145 1.329587,1.899044 1.277047,2.677336 0.225624,0.11297 0.345548,0.238965 0.59502,0.369518 1.668056,0.872649 2.245624,1.280404 2.378837,1.975486 0.09819,0.512937 -0.08216,0.848973 -0.508446,1.308809 -0.687932,0.639313 -1.079126,0.819349 -2.159361,0.819349 -0.788177,0 -1.002734,-0.240121 -1.973794,-0.453205 -0.85946,-0.188573 -1.929079,-0.423139 -2.741402,-0.501441 -1.031425,-0.09957 -2.063224,-0.0045 -3.620051,0.299678 -0.461123,0.09017 -0.98373,0.192291 -1.556454,0.295614 -0.736121,0.132773 -1.503542,0.400323 -2.281396,0.400323 -0.661782,0 -1.64758,0.02705 -2.125285,-0.03384 -0.346355,0.648229 -0.921687,2.01979 -1.849336,3.123637 -2.420013,2.879753 -4.529906,2.872191 -4.819435,2.87422 -0.52335,0.007 -1.016707,-0.149032 -1.257794,-0.57538 -0.241089,-0.426518 -0.2001,-0.935746 0.111228,-1.322858 0.0063,-0.008 0.526068,-0.817519 0.774236,-2.119914 0.0708,-0.371048 0.0392,-0.683942 0.03343,-0.980066 -3.221026,0.936735 -8.325004,3.790181 -8.97867,6.898326 L 11,31.003892 c 0.0091,-3.89e-4 -0.0093,2e-4 0,0 0.148118,-0.006 0.596207,-0.0075 0.821646,-0.0075 0.585952,0 1.220159,0.05886 1.938766,0.172524 2.333751,0.369178 3.690622,1.875531 3.848987,2.04618 0.365918,0.39387 0.453485,1.350584 0.190227,1.807041 -0.261211,0.453229 -0.776551,0.720783 -1.337351,0.677159 l -0.0259,-1.7e-4 C 12.868469,36.19229 8.341406,38.418846 6.874862,41.260104 6.645884,41.713342 6.148057,42 5.605143,42 5.570303,42 5.535273,41.99902 5.50025,41.996 4.917464,41.95641 4.423364,41.591814 4.261831,41.082086 4.220661,40.950343 3.861073,39.749931 4.059124,38.078867 Z"
     id="path2" /><path
     inkscape:connector-curvature="0"
     d="M 4.05912,37.079133 C 4.214504,35.76626 4.89827,34.653967 5.44752,33.760166 5.640912,33.445598 5.864178,33.268366 6,33.00285 6.01455,24.888013 9.393747,15.214481 17,11.010689 16.392248,10.749402 14.711835,10.583976 14.105761,10.473036 13.653207,10.390866 13.274777,10.111115 13.094239,9.7255322 12.913703,9.3399397 12.954505,8.8983671 13.203419,8.5454129 13.439476,8.2107223 14.703426,7.4013208 17.062701,7.117362 c 2.861573,-0.3446572 4.414674,0.080177 7.542114,1.1403885 1.835178,0.6221882 2.726497,0.7084475 3.758481,0.8082219 0.877532,0.08487 1.872254,0.1811255 3.452556,0.5831222 4.551427,1.1579574 6.69253,2.9947574 7.907101,4.2004074 0.948144,0.941145 1.329587,1.899044 1.277047,2.677336 0.225624,0.11297 0.345548,0.238965 0.59502,0.369518 1.668056,0.872649 2.245624,1.280404 2.378837,1.975486 0.09819,0.512937 -0.08216,0.848973 -0.508446,1.308809 C 42.777479,20.819964 42.386285,21 41.30605,21 c -0.788177,0 -1.002734,-0.240121 -1.973794,-0.453205 -0.85946,-0.188573 -1.929079,-0.423139 -2.741402,-0.501441 -1.031425,-0.09957 -2.063224,-0.0045 -3.620051,0.299678 -0.461123,0.09017 -0.98373,0.192291 -1.556454,0.295614 -0.736121,0.132773 -1.503542,0.400323 -2.281396,0.400323 -0.661782,0 -1.64758,0.02705 -2.125285,-0.03384 -0.346355,0.648229 -0.921687,2.01979 -1.849336,3.123637 -2.420013,2.879753 -4.529906,2.872191 -4.819435,2.87422 -0.52335,0.007 -1.016707,-0.149032 -1.257794,-0.57538 -0.241089,-0.426518 -0.2001,-0.935746 0.111228,-1.322858 0.0063,-0.008 0.526068,-0.817519 0.774236,-2.119914 0.0708,-0.371048 0.0392,-0.683942 0.03343,-0.980066 -3.221026,0.936735 -8.325004,3.790181 -8.97867,6.898326 L 11,30.003919 c 0.0091,-3.89e-4 -0.0093,2e-4 0,0 0.148118,-0.006 0.596207,-0.0075 0.821646,-0.0075 0.585952,0 1.220159,0.05886 1.938766,0.172524 2.333751,0.369178 3.690622,1.875531 3.848987,2.04618 0.365918,0.39387 0.453485,1.350584 0.190227,1.807041 -0.261211,0.453229 -0.776551,0.720783 -1.337351,0.677159 l -0.0259,-1.7e-4 c -3.567906,0.493164 -8.094969,2.71972 -9.561513,5.560978 -0.228978,0.453238 -0.726805,0.739896 -1.269719,0.739896 -0.03484,0 -0.06987,-9.8e-4 -0.104893,-0.004 C 4.917464,40.956437 4.423364,40.591841 4.261831,40.082113 4.220661,39.95037 3.861073,38.749958 4.059124,37.078894 Z"
     style="fill:#545e70;fill-opacity:1"
     id="path4" /><circle
     r="1.5"
     cy="16.5"
     cx="-37.5"
     style="opacity:0.2;fill:#000000;fill-opacity:1"
     id="circle6"
     transform="scale(-1,1)" /><circle
     style="opacity:1;fill:#ffffff;fill-opacity:1"
     cx="-37.5"
     cy="15.5"
     r="1.5"
     id="circle8"
     transform="scale(-1,1)" /><path
     inkscape:connector-curvature="0"
     style="opacity:0.1;fill:#ffffff;fill-opacity:1"
     d="m 19.007812,7.0019531 c 1.790635,0.02378 3.252077,0.4607004 5.597657,1.2558594 1.835178,0.6221882 2.725828,0.7088194 3.757812,0.8085937 0.877532,0.08487 1.872823,0.1800346 3.453125,0.5820313 4.551427,1.1579575 6.691679,2.9955215 7.90625,4.2011715 0.948144,0.941145 1.329884,1.899443 1.277344,2.677735 0.225624,0.11297 0.346231,0.238587 0.595703,0.36914 1.668055,0.872649 2.245693,1.279528 2.378906,1.97461 0.05297,0.276714 0.0181,0.503651 -0.08594,0.724609 -0.232245,-0.541568 -0.8579,-0.948457 -2.292969,-1.699219 C 41.346231,17.765931 41.225624,17.640314 41,17.527344 41.05254,16.749052 40.6708,15.790754 39.722656,14.849609 38.508085,13.643959 36.367833,11.806394 31.816406,10.648438 30.236104,10.246441 29.240813,10.151276 28.363281,10.066406 27.331297,9.966632 26.440647,9.8800007 24.605469,9.2578125 21.478029,8.1976005 19.924073,7.7725303 17.0625,8.1171875 c -2.359275,0.2839588 -3.623318,1.0930438 -3.859375,1.4277344 -0.0431,0.061108 -0.07101,0.1276894 -0.101563,0.1933593 -0.0023,-0.00471 -0.0056,-0.00893 -0.0078,-0.013672 -0.180548,-0.3855923 -0.139551,-0.8267331 0.109363,-1.1796873 0.236057,-0.3346906 1.5001,-1.1437756 3.859375,-1.4277344 0.715393,-0.086164 1.348434,-0.1231609 1.945312,-0.1152344 z M 15.828125,11.734375 C 16.298253,11.812929 16.746886,11.900946 17,12.009766 9.393747,16.213558 6.01455,25.887116 6,34.001953 c -0.135822,0.265516 -0.359342,0.443245 -0.552734,0.757813 -0.54898,0.893361 -1.232845,2.00633 -1.388672,3.318359 0,0 0,0.002 0,0.002 -0.02361,0.199667 -0.01815,0.367541 -0.02734,0.552734 -0.03175,-0.449492 -0.04327,-0.955642 0.02734,-1.552734 0,0 0,-0.002 0,-0.002 C 4.214421,35.766096 4.898286,34.653127 5.447266,33.759766 5.640658,33.445198 5.864178,33.267469 6,33.001953 6.013776,25.318736 9.049879,16.246656 15.828125,11.734375 Z M 20,23.005859 c 0.0058,0.296124 0.0376,0.609421 -0.0332,0.980469 -0.248168,1.302395 -0.769091,2.113094 -0.775391,2.121094 -0.0605,0.07523 -0.100627,0.15728 -0.140625,0.240234 -0.193659,-0.409073 -0.151521,-0.876973 0.140625,-1.240234 0.0062,-0.0079 0.516759,-0.806897 0.767578,-2.087891 0.01289,-0.0038 0.02818,-0.0099 0.04102,-0.01367 z m -8.177734,6.990235 c 0.585952,0 1.218893,0.05821 1.9375,0.171875 2.333751,0.369178 3.691244,1.876226 3.849609,2.046875 0.315025,0.33909 0.407508,1.079151 0.263672,1.574218 -0.05698,-0.226627 -0.13724,-0.438128 -0.263672,-0.574218 -0.158365,-0.170649 -1.515858,-1.677697 -3.849609,-2.046875 -0.718607,-0.113664 -1.351548,-0.171875 -1.9375,-0.171875 -0.225439,0 -0.674148,0.0018 -0.822266,0.0078 l 0.01953,-1 c 0.158223,-0.0056 0.58265,-0.0078 0.802736,-0.0078 z"
     id="path10" /></svg>