<?xml version="1.0" encoding="UTF-8" standalone="no"?>
<svg
   xmlns:dc="http://purl.org/dc/elements/1.1/"
   xmlns:cc="http://creativecommons.org/ns#"
   xmlns:rdf="http://www.w3.org/1999/02/22-rdf-syntax-ns#"
   xmlns:svg="http://www.w3.org/2000/svg"
   xmlns="http://www.w3.org/2000/svg"
   xmlns:sodipodi="http://sodipodi.sourceforge.net/DTD/sodipodi-0.dtd"
   xmlns:inkscape="http://www.inkscape.org/namespaces/inkscape"
   height="48"
   width="48"
   version="1"
   id="svg22"
   sodipodi:docname="equalizer-music-player-booster.svg"
   inkscape:version="0.92.1 r15371">
  <metadata
     id="metadata28">
    <rdf:RDF>
      <cc:Work
         rdf:about="">
        <dc:format>image/svg+xml</dc:format>
        <dc:type
           rdf:resource="http://purl.org/dc/dcmitype/StillImage" />
        <dc:title />
      </cc:Work>
    </rdf:RDF>
  </metadata>
  <defs
     id="defs26" />
  <sodipodi:namedview
     pagecolor="#ffffff"
     bordercolor="#666666"
     borderopacity="1"
     objecttolerance="10"
     gridtolerance="10"
     guidetolerance="10"
     inkscape:pageopacity="0"
     inkscape:pageshadow="2"
     inkscape:window-width="1600"
     inkscape:window-height="822"
     id="namedview24"
     showgrid="false"
     inkscape:zoom="10.66"
     inkscape:cx="24.541534"
     inkscape:cy="23.688739"
     inkscape:window-x="0"
     inkscape:window-y="0"
     inkscape:window-maximized="1"
     inkscape:current-layer="svg22" />
  <rect
     transform="matrix(0,-1,-1,0,0,0)"
     rx="2"
     ry="2"
     height="40"
     width="40"
     y="-44"
     x="-44"
     fill="#e94a63"
     id="rect2"
     style="fill:#d4945f;fill-opacity:1" />
  <rect
     style="fill:#5d5d5d;fill-opacity:1;stroke-width:0.85000002"
     id="rect4517"
     x="-41"
     y="-41"
     width="34"
     height="34"
     ry="1.7"
     rx="1.7"
     transform="matrix(0,-1,-1,0,0,0)" />
  <path
     style="opacity:1;fill:#ffe172;fill-opacity:1;stroke:none;stroke-width:3.09744835;stroke-linecap:round;stroke-linejoin:round;stroke-miterlimit:4;stroke-dasharray:none;stroke-dashoffset:0;stroke-opacity:1"
     d="M 14,22 V 35.246688 C 14,35.664023 13.644984,36 13.204,36 H 12.796 C 12.355016,36 12,35.664023 12,35.246688 V 22 Z"
     id="rect4547"
     inkscape:connector-curvature="0"
     sodipodi:nodetypes="csssscc" />
  <path
     style="opacity:0.3;fill:#000000;fill-opacity:1;stroke:none;stroke-width:3.09744835;stroke-linecap:round;stroke-linejoin:round;stroke-miterlimit:4;stroke-dasharray:none;stroke-dashoffset:0;stroke-opacity:1"
     d="M 12.796875 12 C 12.355891 12 12 12.336571 12 12.753906 L 12 22 L 14 22 L 14 12.753906 C 14 12.336571 13.644109 12 13.203125 12 L 12.796875 12 z "
     id="rect4531" />
  <path
     opacity=".2"
     fill="#fff"
     d="m6 4c-1.108 0-2 0.892-2 2v1c0-1.108 0.892-2 2-2h36c1.108 0 2 0.892 2 2v-1c0-1.108-0.892-2-2-2h-36z"
     id="path4" />
  <path
     opacity=".2"
     d="m6 45c-1.108 0-2-0.892-2-2v-1c0 1.108 0.892 2 2 2h36c1.108 0 2-0.892 2-2v1c0 1.108-0.892 2-2 2h-36z"
     id="path6" />
  <rect
     ry="2"
     rx="2"
     y="19"
     x="9"
     height="6"
     width="8"
     id="rect4521"
     style="opacity:0.2;fill:#000000;fill-opacity:1;stroke:none;stroke-width:3.24941468;stroke-linecap:round;stroke-linejoin:round;stroke-miterlimit:4;stroke-dasharray:none;stroke-dashoffset:0;stroke-opacity:1" />
  <rect
     style="opacity:1;fill:#a6a6a6;fill-opacity:1;stroke:none;stroke-width:3.24941468;stroke-linecap:round;stroke-linejoin:round;stroke-miterlimit:4;stroke-dasharray:none;stroke-dashoffset:0;stroke-opacity:1"
     id="rect4519"
     width="8"
     height="6"
     x="9"
     y="18"
     rx="2"
     ry="2" />
  <path
     id="path4511"
     d="m 39,30 a 9.0000001,8.9999999 0 0 1 -9,9 9.0000001,8.9999999 0 0 1 -9,-9 9.0000001,8.9999999 0 0 1 9,-9 9.0000001,8.9999999 0 0 1 9,9 z"
     inkscape:connector-curvature="0"
     style="opacity:0.3;fill:#000000;fill-opacity:1;stroke-width:2.25" />
  <path
     id="path4515"
     d="m 37.000001,31 a 7.0000001,6.9999999 0 0 1 -7,7 7.0000001,6.9999999 0 0 1 -7,-7 7.0000001,6.9999999 0 0 1 7,-7 7.0000001,6.9999999 0 0 1 7,7 z"
     inkscape:connector-curvature="0"
     style="opacity:0.2;fill:#000000;fill-opacity:1;stroke-width:1.75" />
  <path
     style="opacity:1;fill:#a6a6a6;fill-opacity:1;stroke-width:1.75"
     inkscape:connector-curvature="0"
     d="M 36.062179,33.5 A 7.0000001,6.9999999 30 0 1 26.500001,36.062178 7.0000001,6.9999999 30 0 1 23.937823,26.5 7.0000001,6.9999999 30 0 1 33.500001,23.937822 7.0000001,6.9999999 30 0 1 36.062179,33.5 Z"
     id="path4513" />
  <path
     style="opacity:0.1;fill:#ffffff;fill-opacity:1;stroke-width:1.75"
     d="M 29.669922 23.007812 A 7.0000001 6.9999999 30 0 0 23.9375 26.5 A 7.0000001 6.9999999 30 0 0 23.023438 30.494141 A 7.0000001 6.9999999 30 0 1 23.9375 27.5 A 7.0000001 6.9999999 30 0 1 33.5 24.9375 A 7.0000001 6.9999999 30 0 1 36.976562 30.505859 A 7.0000001 6.9999999 30 0 0 33.5 23.9375 A 7.0000001 6.9999999 30 0 0 29.669922 23.007812 z "
     id="path4565" />
  <rect
     style="opacity:1;fill:#d54a4a;fill-opacity:1;stroke:none;stroke-width:3.46299195;stroke-linecap:round;stroke-linejoin:round;stroke-miterlimit:4;stroke-dasharray:none;stroke-dashoffset:0;stroke-opacity:1"
     id="rect4523"
     width="2"
     height="6"
     x="39.980762"
     y="2.9807615"
     rx="1"
     ry="1"
     transform="rotate(30)" />
  <rect
     style="opacity:1;fill:#ffe172;fill-opacity:1;stroke:none;stroke-width:2.32113361;stroke-linecap:round;stroke-linejoin:round;stroke-miterlimit:4;stroke-dasharray:none;stroke-dashoffset:0;stroke-opacity:1"
     id="rect4533"
     width="4"
     height="2"
     x="-39"
     y="17"
     transform="scale(-1,1)" />
  <rect
     y="13"
     x="-39"
     height="2"
     width="8"
     id="rect4535"
     style="opacity:1;fill:#ffe172;fill-opacity:1;stroke:none;stroke-width:3.28257871;stroke-linecap:round;stroke-linejoin:round;stroke-miterlimit:4;stroke-dasharray:none;stroke-dashoffset:0;stroke-opacity:1"
     transform="scale(-1,1)" />
  <rect
     style="opacity:0.3;fill:#000000;fill-opacity:1;stroke:none;stroke-width:4.02032137;stroke-linecap:round;stroke-linejoin:round;stroke-miterlimit:4;stroke-dasharray:none;stroke-dashoffset:0;stroke-opacity:1"
     id="rect4537"
     width="12"
     height="2"
     x="-39"
     y="9"
     transform="scale(-1,1)" />
  <path
     style="opacity:0.1;fill:#ffffff;fill-opacity:1;stroke:none;stroke-width:3.24941468;stroke-linecap:round;stroke-linejoin:round;stroke-miterlimit:4;stroke-dasharray:none;stroke-dashoffset:0;stroke-opacity:1"
     d="M 11 18 C 9.892 18 9 18.892 9 20 L 9 21 C 9 19.892 9.892 19 11 19 L 15 19 C 16.108 19 17 19.892 17 21 L 17 20 C 17 18.892 16.108 18 15 18 L 11 18 z "
     id="rect4563" />
</svg>
