<?xml version="1.0" encoding="UTF-8" standalone="no"?>
<svg
   xmlns:dc="http://purl.org/dc/elements/1.1/"
   xmlns:cc="http://creativecommons.org/ns#"
   xmlns:rdf="http://www.w3.org/1999/02/22-rdf-syntax-ns#"
   xmlns:svg="http://www.w3.org/2000/svg"
   xmlns="http://www.w3.org/2000/svg"
   xmlns:sodipodi="http://sodipodi.sourceforge.net/DTD/sodipodi-0.dtd"
   xmlns:inkscape="http://www.inkscape.org/namespaces/inkscape"
   height="48"
   width="48"
   version="1"
   id="svg20"
   sodipodi:docname="fm-player.svg"
   inkscape:version="0.92.1 r15371">
  <metadata
     id="metadata26">
    <rdf:RDF>
      <cc:Work
         rdf:about="">
        <dc:format>image/svg+xml</dc:format>
        <dc:type
           rdf:resource="http://purl.org/dc/dcmitype/StillImage" />
        <dc:title />
      </cc:Work>
    </rdf:RDF>
  </metadata>
  <defs
     id="defs24" />
  <sodipodi:namedview
     pagecolor="#ffffff"
     bordercolor="#666666"
     borderopacity="1"
     objecttolerance="10"
     gridtolerance="10"
     guidetolerance="10"
     inkscape:pageopacity="0"
     inkscape:pageshadow="2"
     inkscape:window-width="1600"
     inkscape:window-height="831"
     id="namedview22"
     showgrid="false"
     inkscape:zoom="7.54"
     inkscape:cx="-33.694134"
     inkscape:cy="28.375321"
     inkscape:window-x="0"
     inkscape:window-y="0"
     inkscape:window-maximized="1"
     inkscape:current-layer="svg20"
     showguides="false" />
  <path
     opacity=".2"
     d="m4.0117 24.5c-0.0041 0.167-0.0117 0.332-0.0117 0.5 0 11.08 8.92 20 20 20s20-8.92 20-20c0-0.16787-0.0076-0.33314-0.01172-0.5-0.264 10.846-9.076 19.5-19.988 19.5s-19.724-8.654-19.988-19.5z"
     id="path18" />
  <rect
     ry="20"
     rx="20"
     transform="matrix(0.70710678,-0.70710678,-0.70710678,-0.70710678,0,0)"
     height="40"
     width="40"
     y="-53.941124"
     x="-20"
     id="rect2"
     style="fill:#d6223a;fill-opacity:1" />
  <path
     opacity=".2"
     fill="#fff"
     d="m24 4c-11.08 0-20 8.92-20 20 0 0.168 0.008 0.333 0.0117 0.5 0.2647-10.846 9.0763-19.5 19.988-19.5s19.724 8.6539 19.988 19.5c0.004-0.16686 0.0117-0.33213 0.0117-0.5 0-11.08-8.92-20-20-20z"
     id="path4"
     style="opacity:0.1" />
  <path
     id="path4578"
     d="M 35.6645,13.328605 C 32.369442,10.048985 28.499519,9.3787509 28.499519,9.3787509 a 1.50015,1.50015 0 1 0 -0.513757,2.9554851 c 0,0 2.941499,0.512052 5.562942,3.121213 1.308987,1.302907 2.137155,2.761588 2.608837,3.860086 0.235841,0.549249 0.382121,1.010541 0.454372,1.288536 0.0124,0.04772 0.01001,0.04261 0.01795,0.07872 a 1.50015,1.50015 0 0 0 0.53033,1.207054 c 0.07143,0.06196 0.164669,0.13432 0.305214,0.205781 0.07027,0.03572 0.248126,0.0993 0.248593,0.09944 4.66e-4,1.41e-4 0.329634,0.05936 0.330075,0.05939 8.8e-4,6.2e-5 0.761577,-0.146017 0.762349,-0.146393 7.73e-4,-3.75e-4 0.504806,-0.399702 0.505472,-0.400509 6.34e-4,-7.8e-4 0.170636,-0.248418 0.212682,-0.342507 0.04205,-0.09408 0.06484,-0.167934 0.08148,-0.230638 0.03329,-0.12541 0.04144,-0.206091 0.04696,-0.27069 0.02207,-0.258394 -9.91e-4,-0.325485 -0.01381,-0.422608 -0.02564,-0.194247 -0.06524,-0.370577 -0.122916,-0.592478 -0.115344,-0.443804 -0.304995,-1.027851 -0.600764,-1.716668 -0.59154,-1.377634 -1.601797,-3.161843 -3.251034,-4.803354 z m -3.556252,3.514816 c -2.222933,-2.125112 -4.709442,-3.132263 -4.709442,-3.132263 a 1.5006017,1.5006017 0 1 0 -1.140762,2.775947 c 0,0 2.018854,0.844923 3.77584,2.524592 1.697928,1.623216 2.454157,3.663974 2.454157,3.663974 a 1.50015,1.50015 0 1 0 2.822903,-1.010942 c 0,0 -0.920709,-2.63974 -3.202696,-4.821308 z m -9.309779,-3.652925 c -0.543836,-0.673533 -1.093266,-0.866147 -2.276,-0.720917 -5.491112,1.520768 -9.523844,6.553848 -9.523844,12.529048 0,7.179702 5.821671,13.001373 13.001373,13.001373 5.927424,0 10.927586,-3.968758 12.49176,-9.392642 0.155506,-0.950005 -0.05037,-1.813441 -0.683629,-2.407202 -0.976311,-0.976311 -2.559223,-0.976311 -3.535534,0 -0.365029,0.366726 -0.607257,0.837695 -0.693296,1.347922 -1.065213,3.166912 -4.053364,5.449694 -7.579301,5.449694 -4.418278,0 -7.999146,-3.580868 -7.999146,-7.999145 0,-3.523848 2.280183,-6.509677 5.44417,-7.576538 0.512526,-0.08572 0.985603,-0.329016 1.353447,-0.696059 0.97631,-0.976311 0.97631,-2.559223 0,-3.535534 z m 6.109844,6.819713 c -1.371547,-1.271336 -2.80633,-2.002547 -2.806329,-2.002548 a 1.50015,1.50015 0 1 0 -1.374163,2.666842 c 0,0 1.116646,0.583899 2.142036,1.534367 0.92336,0.855888 1.403165,1.95283 1.403165,1.95283 a 1.5003183,1.5003183 0 1 0 2.769041,-1.155955 c 0,0 -0.660168,-1.629623 -2.13375,-2.995536 z"
     style="opacity:0.2;fill:#000000;fill-opacity:1;stroke:none;stroke-width:6.20961285;stroke-linecap:round;stroke-linejoin:round;stroke-miterlimit:4;stroke-dasharray:none;stroke-dashoffset:0;stroke-opacity:1"
     inkscape:connector-curvature="0" />
  <path
     inkscape:connector-curvature="0"
     style="opacity:1;fill:#ffffff;fill-opacity:1;stroke:none;stroke-width:6.20961285;stroke-linecap:round;stroke-linejoin:round;stroke-miterlimit:4;stroke-dasharray:none;stroke-dashoffset:0;stroke-opacity:1"
     d="M 35.6645,12.329976 C 32.369442,9.0503555 28.499519,8.3801219 28.499519,8.3801219 a 1.50015,1.50015 0 1 0 -0.513757,2.9554851 c 0,0 2.941499,0.512052 5.562942,3.121213 1.308987,1.302907 2.137155,2.761588 2.608837,3.860086 0.235841,0.549249 0.382121,1.010541 0.454372,1.288536 0.0124,0.04772 0.01001,0.04261 0.01795,0.07872 a 1.50015,1.50015 0 0 0 0.53033,1.207054 c 0.07143,0.06196 0.164669,0.13432 0.305214,0.205781 0.07027,0.03572 0.248126,0.0993 0.248593,0.09944 4.66e-4,1.41e-4 0.329634,0.05936 0.330075,0.05939 8.8e-4,6.2e-5 0.761577,-0.146017 0.762349,-0.146393 7.73e-4,-3.75e-4 0.504806,-0.399702 0.505472,-0.400509 6.34e-4,-7.8e-4 0.170636,-0.248418 0.212682,-0.342507 0.04205,-0.09408 0.06484,-0.167934 0.08148,-0.230638 0.03329,-0.12541 0.04144,-0.206091 0.04696,-0.27069 0.02207,-0.258394 -9.91e-4,-0.325485 -0.01381,-0.422608 -0.02564,-0.194247 -0.06524,-0.370577 -0.122916,-0.592478 -0.115344,-0.443804 -0.304995,-1.027851 -0.600764,-1.716668 -0.59154,-1.377634 -1.601797,-3.161843 -3.251034,-4.803354 z m -3.556252,3.514816 C 29.885315,13.71968 27.398806,12.712529 27.398806,12.712529 a 1.5006017,1.5006017 0 1 0 -1.140762,2.775947 c 0,0 2.018854,0.844923 3.77584,2.524592 1.697928,1.623216 2.454157,3.663974 2.454157,3.663974 A 1.50015,1.50015 0 1 0 35.310944,20.6661 c 0,0 -0.920709,-2.63974 -3.202696,-4.821308 z m -9.309779,-3.652925 c -0.543836,-0.673533 -1.093266,-0.866147 -2.276,-0.720917 -5.491112,1.520768 -9.523844,6.553848 -9.523844,12.529048 0,7.179702 5.821671,13.001373 13.001373,13.001373 5.927424,0 10.927586,-3.968758 12.49176,-9.392642 0.155506,-0.950005 -0.05037,-1.813441 -0.683629,-2.407202 -0.976311,-0.976311 -2.559223,-0.976311 -3.535534,0 -0.365029,0.366726 -0.607257,0.837695 -0.693296,1.347922 -1.065213,3.166912 -4.053364,5.449694 -7.579301,5.449694 -4.418278,0 -7.999146,-3.580868 -7.999146,-7.999145 0,-3.523848 2.280183,-6.509677 5.44417,-7.576538 0.512526,-0.08572 0.985603,-0.329016 1.353447,-0.696059 0.97631,-0.976311 0.97631,-2.559223 0,-3.535534 z m 6.109844,6.819713 c -1.371547,-1.271336 -2.80633,-2.002547 -2.806329,-2.002548 a 1.50015,1.50015 0 1 0 -1.374163,2.666842 c 0,0 1.116646,0.583899 2.142036,1.534367 0.92336,0.855888 1.403165,1.95283 1.403165,1.95283 a 1.5003182,1.5003182 0 1 0 2.769041,-1.155955 c 0,0 -0.660168,-1.629623 -2.13375,-2.995536 z"
     id="path4505" />
</svg>
