<svg width="48" height="48" version="1" xmlns="http://www.w3.org/2000/svg">
 <rect transform="matrix(0,-1,-1,0,0,0)" x="-44" y="-44" width="40" height="40" rx="2" ry="2" fill="#f59335" style="fill:#2369b3"/>
 <path d="m6 4c-1.108 0-2 0.892-2 2v1c0-1.108 0.892-2 2-2h36c1.108 0 2 0.892 2 2v-1c0-1.108-0.892-2-2-2h-36z" fill="#fff" opacity=".2" style="opacity:.1"/>
 <path d="m6 45c-1.108 0-2-0.892-2-2v-1c0 1.108 0.892 2 2 2h36c1.108 0 2-0.892 2-2v1c0 1.108-0.892 2-2 2h-36z" opacity=".2"/>
 <g transform="matrix(.5 0 0 .5 12 15)" style="fill:#000000;opacity:.2">
  <path d="m37.966184-5.2804757-19.372886 3.4594439c-5.03698 0.4362086-4.593298 3.8210318-4.593298 5.8210318v22.266c-0.653-0.173-1.325-0.262-2-0.266-4.4183 0-8 3.5817-8 8s3.5817 8 8 8c4.0287-0.0038 7.4261-3.0029 7.9297-7 0 0 0.07031-0.72732 0.07031-1v-26.0713l16-2.8574v16.1943c-0.653-0.173-1.325-0.262-2-0.266-4.4183 0-8 3.5817-8 8s3.5817 8 8 8c4.0287-0.0038 7.4261-3.0029 7.9297-7l0.07-1v-28.9996c2.9e-4 -2 0.03643-6.0072528-4.033526-5.2804757z" style="fill:#000000"/>
 </g>
 <g transform="matrix(.5 0 0 .5 12 14)" style="fill:#4ee7b1">
  <path d="m37.966184-5.2804757-19.372886 3.4594439c-5.03698 0.4362086-4.593298 3.8210318-4.593298 5.8210318v22.266c-0.653-0.173-1.325-0.262-2-0.266-4.4183 0-8 3.5817-8 8s3.5817 8 8 8c4.0287-0.0038 7.4261-3.0029 7.9297-7 0 0 0.07031-0.72732 0.07031-1v-26.0713l16-2.8574v16.1943c-0.653-0.173-1.325-0.262-2-0.266-4.4183 0-8 3.5817-8 8s3.5817 8 8 8c4.0287-0.0038 7.4261-3.0029 7.9297-7l0.07-1v-28.9996c2.9e-4 -2 0.03643-6.0072528-4.033526-5.2804757z" style="fill:#4ee7b1"/>
 </g>
 <g transform="matrix(.5 0 0 .5 12 14)" style="fill:#ffffff;opacity:.1">
  <path transform="matrix(2,0,0,2,-24,-28)" d="m31.654297 11.328125c-0.194259-0.021962-0.417503-0.014174-0.671875 0.03125l-9.685547 1.730469c-2.51849 0.218104-2.296875 1.910156-2.296875 2.910156v1c0-1-0.221615-2.692052 2.296875-2.910156l9.685547-1.730469c2.034978-0.363389 2.017723 1.640625 2.017578 2.640625v-1c1.27e-4 -0.875 0.014112-2.518138-1.345703-2.671875zm-2.654297 13.171875c-2.20915 0-4 1.79085-4 4 0 0.171167 0.029918 0.334494 0.050781 0.5 0.24841-1.970584 1.911236-3.5 3.949219-3.5 0.3375 2e-3 0.6735 0.046313 1 0.132812v-1c-0.3265-0.086499-0.6625-0.130812-1-0.132812zm-11 2.5c-2.20915 0-4 1.79085-4 4 0 0.171167 0.029918 0.334494 0.050781 0.5 0.24841-1.970584 1.911236-3.5 3.949219-3.5 0.3375 2e-3 0.6735 0.046313 1 0.132812v-1c-0.3265-0.086499-0.6625-0.130812-1-0.132812z" style="fill:#ffffff;stroke-width:.5"/>
 </g>
</svg>
