<?xml version="1.0" encoding="UTF-8" standalone="no"?>
<svg
   xmlns:dc="http://purl.org/dc/elements/1.1/"
   xmlns:cc="http://creativecommons.org/ns#"
   xmlns:rdf="http://www.w3.org/1999/02/22-rdf-syntax-ns#"
   xmlns:svg="http://www.w3.org/2000/svg"
   xmlns="http://www.w3.org/2000/svg"
   xmlns:sodipodi="http://sodipodi.sourceforge.net/DTD/sodipodi-0.dtd"
   xmlns:inkscape="http://www.inkscape.org/namespaces/inkscape"
   height="48"
   width="48"
   version="1"
   id="svg12"
   sodipodi:docname="ghostery-privacy-browser.svg"
   inkscape:version="0.92.1 r15371">
  <metadata
     id="metadata18">
    <rdf:RDF>
      <cc:Work
         rdf:about="">
        <dc:format>image/svg+xml</dc:format>
        <dc:type
           rdf:resource="http://purl.org/dc/dcmitype/StillImage" />
        <dc:title />
      </cc:Work>
    </rdf:RDF>
  </metadata>
  <defs
     id="defs16" />
  <sodipodi:namedview
     pagecolor="#ffffff"
     bordercolor="#666666"
     borderopacity="1"
     objecttolerance="10"
     gridtolerance="10"
     guidetolerance="10"
     inkscape:pageopacity="0"
     inkscape:pageshadow="2"
     inkscape:window-width="1600"
     inkscape:window-height="822"
     id="namedview14"
     showgrid="true"
     inkscape:zoom="12.24"
     inkscape:cx="4.0917891"
     inkscape:cy="22.487658"
     inkscape:window-x="0"
     inkscape:window-y="0"
     inkscape:window-maximized="1"
     inkscape:current-layer="svg12"
     showguides="false">
    <inkscape:grid
       type="xygrid"
       id="grid4500" />
  </sodipodi:namedview>
  <path
     id="path4527"
     d="m 16.891026,44.684043 c -0.36629,-0.182673 -0.936728,-0.731633 -1.26764,-1.219911 -0.330903,-0.488279 -0.880145,-1.203151 -1.220529,-1.588605 -0.59105,-0.669313 -0.674358,-0.899995 -1.852705,-0.879291 -0.701509,0.01232 -1.98743,0.246928 -2.9805821,0.543345 -1.9688823,0.58763 -3.0644835,0.660459 -3.4195341,0.22731 C 5.8042987,41.345093 6.0344609,40.552882 7.0667931,38.015343 8.8521302,33.626843 9,33.138097 9,24.390612 9,16.996236 9.2101639,15.86654 10.689833,12.93794 c 0.614101,-1.215453 1.205516,-1.989434 2.565018,-3.3568177 2.617482,-2.632661 4.707579,-3.724144 8.365848,-4.368782 7.465317,-1.315487 15.188618,3.513575 17.006201,10.7091157 0.339752,1.345005 0.384977,2.203681 0.387969,7.365348 0.0049,8.473236 0.244661,10.132732 2.15623,14.923916 0.709726,1.77886 0.867909,2.47488 0.824206,3.009765 -0.05689,0.695981 -0.104148,0.745617 -0.763593,0.801502 -0.386635,0.03276 -1.734443,-0.211592 -2.99513,-0.543015 -1.260687,-0.331424 -2.50489,-0.482736 -2.764909,-0.482736 -0.892471,0 -1.787599,0.622053 -2.337256,1.495775 -0.806526,1.28203 -1.628775,2.206251 -2.337948,2.443225 -0.735296,0.245705 -1.514661,-0.225108 -3.733261,-1.117453 -2.526194,-1.016059 -2.925856,-1.048463 -4.872911,-0.395094 -0.939375,0.315225 -2.210383,0.959763 -2.824455,1.187823 -1.338563,0.497125 -1.609298,0.50517 -2.474816,0.07353 z"
     style="opacity:0.2;fill:#000000;fill-opacity:1;stroke-width:0.19623685"
     inkscape:connector-curvature="0" />
  <path
     style="fill:#00aef0;stroke-width:0.19623685;fill-opacity:1"
     d="M 16.891026,43.687807 C 16.524736,43.505134 15.954298,42.956174 15.623386,42.467896 15.292483,41.979617 14.743241,41.264745 14.402857,40.879291 13.811807,40.209978 13.728499,39.979296 12.550152,40 c -0.701509,0.01232 -1.98743,0.246928 -2.9805821,0.543345 -1.9688823,0.58763 -3.0644835,0.660459 -3.4195341,0.22731 C 5.8042987,40.348857 6.0344609,39.556646 7.0667931,37.019107 8.8521302,32.630607 9,32.141861 9,23.394376 9,16 9.2101639,14.870304 10.689833,11.941704 c 0.614101,-1.215453 1.205516,-1.9894341 2.565018,-3.3568181 2.617482,-2.632661 4.707579,-3.724144 8.365848,-4.368782 7.465317,-1.315487 15.188618,3.513575 17.006201,10.7091161 0.339752,1.345005 0.384977,2.203681 0.387969,7.365348 0.0049,8.473236 0.244661,10.132732 2.15623,14.923916 0.709726,1.77886 0.867909,2.47488 0.824206,3.009765 -0.05689,0.695981 -0.104148,0.745617 -0.763593,0.801502 -0.386635,0.03276 -1.734443,-0.211592 -2.99513,-0.543015 C 36.975895,40.151312 35.731692,40 35.471673,40 c -0.892471,0 -1.787599,0.622053 -2.337256,1.495775 -0.806526,1.28203 -1.628775,2.206251 -2.337948,2.443225 -0.735296,0.245705 -1.514661,-0.225108 -3.733261,-1.117453 -2.526194,-1.016059 -2.925856,-1.048463 -4.872911,-0.395094 -0.939375,0.315225 -2.210383,0.959763 -2.824455,1.187823 -1.338563,0.497125 -1.609298,0.50517 -2.474816,0.07353 z"
     id="path4512" />
  <path
     sodipodi:nodetypes="sscccccccs"
     inkscape:connector-curvature="0"
     id="path4516"
     d="m 26.647619,30.480689 c 1.396582,-0.671528 2.963083,-2.312274 3.808601,-3.98911 0.421128,-0.835185 0.631022,-1.448029 0.509651,-1.488068 -0.113496,-0.03744 -0.538411,0.228822 -0.944256,0.591697 C 28.351278,27.088698 26.39608,28.003608 24.072438,28 21.685236,27.9963 20.229688,27.302951 18.248787,25.782789 17.636524,25.312935 17.08717,24.976427 17.028,25.034991 c -0.241849,0.239357 1.136663,2.665835 2.068433,3.640892 1.749994,1.831276 3.00261,2.394397 5.154605,2.317282 1.053044,-0.03774 1.694552,-0.174914 2.396581,-0.512476 z"
     style="opacity:0.2;fill:#000000;fill-opacity:1;stroke-width:0.19073613" />
  <path
     style="fill:#ffffff;fill-opacity:1;stroke-width:0.19073613"
     d="m 26.647619,29.480689 c 1.396582,-0.671528 2.963083,-2.312274 3.808601,-3.98911 0.421128,-0.835185 0.631022,-1.448029 0.509651,-1.488068 -0.113496,-0.03744 -0.538411,0.228822 -0.944256,0.591697 C 28.351278,26.088698 26.39608,27.003608 24.072438,27 21.685236,26.9963 20.229688,26.302951 18.248787,24.782789 17.636524,24.312935 17.08717,23.976427 17.028,24.034991 c -0.241849,0.239357 1.136663,2.665835 2.068433,3.640892 1.749994,1.831276 3.00261,2.394397 5.154605,2.317282 1.053044,-0.03774 1.694552,-0.174914 2.396581,-0.512476 z"
     id="path4510"
     inkscape:connector-curvature="0"
     sodipodi:nodetypes="sscccccccs" />
  <path
     sodipodi:nodetypes="ccccc"
     inkscape:connector-curvature="0"
     id="path4518"
     d="m 21.255502,21.575112 c 2.325997,-1.410505 2.325997,-6.913595 0,-8.3241 C 18.374535,12.08012 17.019037,15.26713 17,17.413062 c 0,1.666148 0.374658,2.702256 1.339214,3.703513 0.974598,1.011702 1.792117,1.140242 2.916288,0.458537 z"
     style="opacity:0.2;fill:#000000;fill-opacity:1;stroke-width:0.20387191" />
  <path
     style="fill:#ffffff;fill-opacity:1;stroke-width:0.20387191"
     d="m 21.255502,20.575112 c 2.325997,-1.410505 2.325997,-6.913595 0,-8.3241 C 18.374535,11.08012 17.019037,14.26713 17,16.413062 c 0,1.666148 0.374658,2.702256 1.339214,3.703513 0.974598,1.011702 1.792117,1.140242 2.916288,0.458537 z"
     id="path4508"
     inkscape:connector-curvature="0"
     sodipodi:nodetypes="ccccc" />
  <path
     style="opacity:0.2;fill:#000000;fill-opacity:1;stroke-width:0.20387191"
     d="m 26.744498,21.575112 c -2.325997,-1.410505 -2.325997,-6.913595 0,-8.3241 2.880967,-1.170892 4.236465,2.016118 4.255502,4.16205 0,1.666148 -0.374658,2.702256 -1.339214,3.703513 -0.974598,1.011702 -1.792117,1.140242 -2.916288,0.458537 z"
     id="path4520"
     inkscape:connector-curvature="0"
     sodipodi:nodetypes="ccccc" />
  <path
     sodipodi:nodetypes="ccccc"
     inkscape:connector-curvature="0"
     id="path4514"
     d="m 26.744498,20.575112 c -2.325997,-1.410505 -2.325997,-6.913595 0,-8.3241 2.880967,-1.170892 4.236465,2.016118 4.255502,4.16205 0,1.666148 -0.374658,2.702256 -1.339214,3.703513 -0.974598,1.011702 -1.792117,1.140242 -2.916288,0.458537 z"
     style="fill:#ffffff;fill-opacity:1;stroke-width:0.20387191" />
  <path
     style="fill:#ffffff;stroke-width:0.19623685;fill-opacity:1;opacity:0.2"
     d="M 24.419922 4.0039062 C 23.490734 3.983704 22.554258 4.052361 21.621094 4.2167969 C 17.962825 4.8614349 15.871388 5.9513234 13.253906 8.5839844 C 11.894404 9.9513684 11.303554 10.725953 10.689453 11.941406 C 9.209784 14.870006 9 16.000155 9 23.394531 C 9 32.142016 8.8517433 32.631031 7.0664062 37.019531 C 6.104324 39.384391 5.8455626 40.227817 6.09375 40.673828 C 6.2379928 40.106037 6.5525086 39.278819 7.0664062 38.015625 C 8.8517433 33.627125 9 33.13811 9 24.390625 C 9 16.996249 9.209784 15.8661 10.689453 12.9375 C 11.303554 11.722047 11.894404 10.949415 13.253906 9.5820312 C 15.871388 6.9493702 17.962825 5.8575286 21.621094 5.2128906 C 29.086411 3.8974036 36.80937 8.7263343 38.626953 15.921875 C 38.966705 17.26688 39.012633 18.125442 39.015625 23.287109 C 39.020525 31.760345 39.260306 33.419753 41.171875 38.210938 C 41.652208 39.414846 41.865751 40.103898 41.949219 40.601562 C 41.968817 40.501976 41.983022 40.38453 41.996094 40.224609 C 42.039797 39.689724 41.881601 38.993704 41.171875 37.214844 C 39.260306 32.42366 39.020525 30.764252 39.015625 22.291016 C 39.012633 17.129349 38.966705 16.270786 38.626953 14.925781 C 37.036568 8.6296828 30.924239 4.1453219 24.419922 4.0039062 z "
     id="path4522" />
</svg>
