<svg width="48" height="48" version="1.1" viewBox="0 0 48 48" xmlns="http://www.w3.org/2000/svg">
 <path d="m24 5a20 20 0 0 0-20 20 20 20 0 0 0 20 20 20 20 0 0 0 20-20 20 20 0 0 0-20-20z" style="fill:#000000;opacity:.2"/>
 <path d="m24 4a20 20 0 0 0-20 20 20 20 0 0 0 20 20 20 20 0 0 0 20-20 20 20 0 0 0-20-20z" style="fill:#484b61"/>
 <circle cx="24" cy="25" r="12" style="fill:#000000;opacity:.2"/>
 <circle cx="24" cy="24" r="12" style="fill:#9499b2"/>
 <rect transform="rotate(90)" x="24" y="-9" width="2" height="4" rx="1.166" ry="1.194" style="fill:#000000;opacity:.1"/>
 <path d="M 24,4 A 20,20 0 0 0 4,24 20,20 0 0 0 4.0214844,24.417969 20,20 0 0 1 24,5 20,20 0 0 1 43.978516,24.582031 20,20 0 0 0 44,24 20,20 0 0 0 24,4 Z" style="fill:#ffffff;opacity:.1"/>
 <rect transform="matrix(.8660254 .5 -.5 .8660254 0 0)" x="31.29" y="-6.35" width="4" height="18" rx="2" ry="2" style="fill:#000000;opacity:.1"/>
 <rect transform="matrix(.8660254 .5 -.5 .8660254 0 0)" x="30.79" y="-7.22" width="4" height="18" rx="2" ry="2" style="fill:#ffffff"/>
 <rect x="23" y="6" width="2" height="4" rx="1.166" ry="1.194" style="fill:#000000;opacity:.1"/>
 <rect x="23" y="5" width="2" height="4" rx="1.166" ry="1.194" style="fill:#9499b2"/>
 <rect x="23" y="40" width="2" height="4" rx="1.166" ry="1.194" style="fill:#000000;opacity:.1"/>
 <rect x="23" y="39" width="2" height="4" rx="1.166" ry="1.194" style="fill:#9499b2"/>
 <rect transform="rotate(90)" x="24" y="-43" width="2" height="4" rx="1.166" ry="1.194" style="fill:#000000;opacity:.1"/>
 <rect transform="rotate(90)" x="23" y="-43" width="2" height="4" rx="1.166" ry="1.194" style="fill:#9499b2"/>
 <rect transform="rotate(90)" x="23" y="-9" width="2" height="4" rx="1.166" ry="1.194" style="fill:#9499b2"/>
</svg>
