<?xml version="1.0" encoding="UTF-8" standalone="no"?>
<svg
   xmlns:dc="http://purl.org/dc/elements/1.1/"
   xmlns:cc="http://creativecommons.org/ns#"
   xmlns:rdf="http://www.w3.org/1999/02/22-rdf-syntax-ns#"
   xmlns:svg="http://www.w3.org/2000/svg"
   xmlns="http://www.w3.org/2000/svg"
   xmlns:sodipodi="http://sodipodi.sourceforge.net/DTD/sodipodi-0.dtd"
   xmlns:inkscape="http://www.inkscape.org/namespaces/inkscape"
   height="48"
   width="48"
   version="1"
   id="svg12"
   sodipodi:docname="gom-player.svg"
   inkscape:version="0.92.1 r15371">
  <metadata
     id="metadata18">
    <rdf:RDF>
      <cc:Work
         rdf:about="">
        <dc:format>image/svg+xml</dc:format>
        <dc:type
           rdf:resource="http://purl.org/dc/dcmitype/StillImage" />
        <dc:title></dc:title>
      </cc:Work>
    </rdf:RDF>
  </metadata>
  <defs
     id="defs16" />
  <sodipodi:namedview
     pagecolor="#ffffff"
     bordercolor="#666666"
     borderopacity="1"
     objecttolerance="10"
     gridtolerance="10"
     guidetolerance="10"
     inkscape:pageopacity="0"
     inkscape:pageshadow="2"
     inkscape:window-width="1600"
     inkscape:window-height="822"
     id="namedview14"
     showgrid="false"
     inkscape:zoom="1"
     inkscape:cx="23.332713"
     inkscape:cy="18.497949"
     inkscape:window-x="0"
     inkscape:window-y="0"
     inkscape:window-maximized="1"
     inkscape:current-layer="svg12"
     showguides="true">
    <inkscape:grid
       type="xygrid"
       id="grid4524" />
  </sodipodi:namedview>
  <path
     sodipodi:nodetypes="scsscssscsccscs"
     inkscape:connector-curvature="0"
     id="path4542"
     d="M 22,5 C 19.861345,5 17.908695,5.8931293 16.460938,7.3007812 15.967145,7.2143989 15.515715,7 15,7 10.08866,7 6,11.08866 6,16 6,19.317343 7.943688,22.144825 10.667969,23.705078 10.276659,25.082273 10,26.504508 10,28 c 0,8.777333 7.222667,16 16,16 8.777333,0 16,-7.222667 16,-16 0,-2.117698 -0.43795,-4.137043 -1.199219,-5.994141 C 41.49474,20.973713 42,19.80936 42,18.5 42,16.587292 41.088594,14.891784 39.728516,13.691406 39.185685,11.022218 37.168088,8.9444913 34.527344,8.3164062 33.159984,6.3715054 31.011,5 28.5,5 27.356423,5 26.297016,5.3172839 25.318359,5.7929688 24.296321,5.3114 23.187824,5 22,5 Z"
     style="color:#000000;font-style:normal;font-variant:normal;font-weight:normal;font-stretch:normal;font-size:medium;line-height:normal;font-family:sans-serif;font-variant-ligatures:normal;font-variant-position:normal;font-variant-caps:normal;font-variant-numeric:normal;font-variant-alternates:normal;font-feature-settings:normal;text-indent:0;text-align:start;text-decoration:none;text-decoration-line:none;text-decoration-style:solid;text-decoration-color:#000000;letter-spacing:normal;word-spacing:normal;text-transform:none;writing-mode:lr-tb;direction:ltr;text-orientation:mixed;dominant-baseline:auto;baseline-shift:baseline;text-anchor:start;white-space:normal;shape-padding:0;clip-rule:nonzero;display:inline;overflow:visible;visibility:visible;opacity:0.2;isolation:auto;mix-blend-mode:normal;color-interpolation:sRGB;color-interpolation-filters:linearRGB;solid-color:#000000;solid-opacity:1;vector-effect:none;fill:#000000;fill-opacity:1;fill-rule:nonzero;stroke:none;stroke-width:10;stroke-linecap:round;stroke-linejoin:round;stroke-miterlimit:4;stroke-dasharray:none;stroke-dashoffset:0;stroke-opacity:1;color-rendering:auto;image-rendering:auto;shape-rendering:auto;text-rendering:auto;enable-background:accumulate" />
  <path
     style="color:#000000;font-style:normal;font-variant:normal;font-weight:normal;font-stretch:normal;font-size:medium;line-height:normal;font-family:sans-serif;font-variant-ligatures:normal;font-variant-position:normal;font-variant-caps:normal;font-variant-numeric:normal;font-variant-alternates:normal;font-feature-settings:normal;text-indent:0;text-align:start;text-decoration:none;text-decoration-line:none;text-decoration-style:solid;text-decoration-color:#000000;letter-spacing:normal;word-spacing:normal;text-transform:none;writing-mode:lr-tb;direction:ltr;text-orientation:mixed;dominant-baseline:auto;baseline-shift:baseline;text-anchor:start;white-space:normal;shape-padding:0;clip-rule:nonzero;display:inline;overflow:visible;visibility:visible;opacity:1;isolation:auto;mix-blend-mode:normal;color-interpolation:sRGB;color-interpolation-filters:linearRGB;solid-color:#000000;solid-opacity:1;vector-effect:none;fill:#ef542b;fill-opacity:1;fill-rule:nonzero;stroke:none;stroke-width:10;stroke-linecap:round;stroke-linejoin:round;stroke-miterlimit:4;stroke-dasharray:none;stroke-dashoffset:0;stroke-opacity:1;color-rendering:auto;image-rendering:auto;shape-rendering:auto;text-rendering:auto;enable-background:accumulate"
     d="M 22,4 C 19.861345,4 17.908695,4.8931293 16.460938,6.3007812 15.967145,6.2143989 15.515715,6 15,6 10.08866,6 6,10.08866 6,15 6,18.317343 7.943688,21.144825 10.667969,22.705078 10.276659,24.082273 10,25.504508 10,27 c 0,8.777333 7.222667,16 16,16 8.777333,0 16,-7.222667 16,-16 0,-2.117698 -0.43795,-4.137043 -1.199219,-5.994141 C 41.49474,19.973713 42,18.80936 42,17.5 42,15.587292 41.088594,13.891784 39.728516,12.691406 39.185685,10.022218 37.168088,7.9444913 34.527344,7.3164062 33.159984,5.3715054 31.011,4 28.5,4 27.356423,4 26.297016,4.3172839 25.318359,4.7929688 24.296321,4.3114 23.187824,4 22,4 Z"
     id="path4530"
     inkscape:connector-curvature="0"
     sodipodi:nodetypes="scsscssscsccscs" />
  <path
     id="path4544"
     d="m 22,10 a 3,3 0 0 0 -3,3 3,3 0 0 0 3,3 3,3 0 0 0 3,-3 3,3 0 0 0 -3,-3 z m 6.5,0 A 2.5,2.5 0 0 0 26,12.5 2.5,2.5 0 0 0 28.5,15 2.5,2.5 0 0 0 31,12.5 2.5,2.5 0 0 0 28.5,10 Z M 15,12 a 4,4 0 0 0 -4,4 4,4 0 0 0 4,4 4,4 0 0 0 4,-4 4,4 0 0 0 -4,-4 z m 18,1 a 2,2 0 0 0 -2,2 2,2 0 0 0 2,2 2,2 0 0 0 2,-2 2,2 0 0 0 -2,-2 z m -7,4 A 11,11 0 0 0 15,28 11,11 0 0 0 26,39 11,11 0 0 0 37,28 11,11 0 0 0 26,17 Z m 9.5,0 A 1.5,1.5 0 0 0 34,18.5 1.5,1.5 0 0 0 35.5,20 1.5,1.5 0 0 0 37,18.5 1.5,1.5 0 0 0 35.5,17 Z"
     style="opacity:0.2;fill:#000000;fill-opacity:1;stroke:none;stroke-width:12.03547192;stroke-linecap:round;stroke-linejoin:round;stroke-miterlimit:4;stroke-dasharray:none;stroke-dashoffset:0;stroke-opacity:1"
     inkscape:connector-curvature="0" />
  <path
     inkscape:connector-curvature="0"
     style="opacity:1;fill:#ffffff;fill-opacity:1;stroke:none;stroke-width:12.03547192;stroke-linecap:round;stroke-linejoin:round;stroke-miterlimit:4;stroke-dasharray:none;stroke-dashoffset:0;stroke-opacity:1"
     d="m 22,9 a 3,3 0 0 0 -3,3 3,3 0 0 0 3,3 3,3 0 0 0 3,-3 3,3 0 0 0 -3,-3 z m 6.5,0 A 2.5,2.5 0 0 0 26,11.5 2.5,2.5 0 0 0 28.5,14 2.5,2.5 0 0 0 31,11.5 2.5,2.5 0 0 0 28.5,9 Z M 15,11 a 4,4 0 0 0 -4,4 4,4 0 0 0 4,4 4,4 0 0 0 4,-4 4,4 0 0 0 -4,-4 z m 18,1 a 2,2 0 0 0 -2,2 2,2 0 0 0 2,2 2,2 0 0 0 2,-2 2,2 0 0 0 -2,-2 z m -7,4 A 11,11 0 0 0 15,27 11,11 0 0 0 26,38 11,11 0 0 0 37,27 11,11 0 0 0 26,16 Z m 9.5,0 A 1.5,1.5 0 0 0 34,17.5 1.5,1.5 0 0 0 35.5,19 1.5,1.5 0 0 0 37,17.5 1.5,1.5 0 0 0 35.5,16 Z"
     id="path4509" />
  <circle
     style="opacity:0.2;fill:#0f0700;fill-opacity:1;stroke:none;stroke-width:4.37653494;stroke-linecap:round;stroke-linejoin:round;stroke-miterlimit:4;stroke-dasharray:none;stroke-dashoffset:0;stroke-opacity:1"
     id="circle4551"
     cx="22"
     cy="24"
     r="4" />
  <circle
     r="4"
     cy="23"
     cx="22"
     id="circle4521"
     style="opacity:1;fill:#ff9537;fill-opacity:1;stroke:none;stroke-width:4.37653494;stroke-linecap:round;stroke-linejoin:round;stroke-miterlimit:4;stroke-dasharray:none;stroke-dashoffset:0;stroke-opacity:1" />
  <path
     style="color:#000000;font-style:normal;font-variant:normal;font-weight:normal;font-stretch:normal;font-size:medium;line-height:normal;font-family:sans-serif;font-variant-ligatures:normal;font-variant-position:normal;font-variant-caps:normal;font-variant-numeric:normal;font-variant-alternates:normal;font-feature-settings:normal;text-indent:0;text-align:start;text-decoration:none;text-decoration-line:none;text-decoration-style:solid;text-decoration-color:#000000;letter-spacing:normal;word-spacing:normal;text-transform:none;writing-mode:lr-tb;direction:ltr;text-orientation:mixed;dominant-baseline:auto;baseline-shift:baseline;text-anchor:start;white-space:normal;shape-padding:0;clip-rule:nonzero;display:inline;overflow:visible;visibility:visible;opacity:0.1;isolation:auto;mix-blend-mode:normal;color-interpolation:sRGB;color-interpolation-filters:linearRGB;solid-color:#000000;solid-opacity:1;vector-effect:none;fill:#ffffff;fill-opacity:1;fill-rule:nonzero;stroke:none;stroke-width:10;stroke-linecap:round;stroke-linejoin:round;stroke-miterlimit:4;stroke-dasharray:none;stroke-dashoffset:0;stroke-opacity:1;color-rendering:auto;image-rendering:auto;shape-rendering:auto;text-rendering:auto;enable-background:accumulate"
     d="M 22 4 C 19.861345 4 17.908694 4.8931293 16.460938 6.3007812 C 15.967145 6.2143989 15.515715 6 15 6 C 10.08866 6 6 10.08866 6 15 C 6 15.141528 6.0223116 15.276331 6.0292969 15.416016 C 6.3390111 10.769989 10.285601 7 15 7 C 15.515715 7 15.967145 7.2143989 16.460938 7.3007812 C 17.908694 5.8931293 19.861345 5 22 5 C 23.187824 5 24.296321 5.3114 25.318359 5.7929688 C 26.297016 5.3172838 27.356423 5 28.5 5 C 31.011 5 33.159984 6.3715055 34.527344 8.3164062 C 37.168088 8.9444913 39.185685 11.022218 39.728516 13.691406 C 40.939728 14.760399 41.792105 16.222812 41.964844 17.880859 C 41.97457 17.753215 42 17.630513 42 17.5 C 42 15.587292 41.088594 13.891784 39.728516 12.691406 C 39.185685 10.022218 37.168088 7.9444913 34.527344 7.3164062 C 33.159984 5.3715054 31.011 4 28.5 4 C 27.356423 4 26.297016 4.3172838 25.318359 4.7929688 C 24.296321 4.3114 23.187824 4 22 4 z M 41.025391 21.632812 C 40.950001 21.756973 40.881822 21.885325 40.800781 22.005859 C 41.501141 23.71437 41.910811 25.564643 41.974609 27.498047 C 41.979857 27.331297 42 27.167928 42 27 C 42 25.115826 41.638029 23.31627 41.025391 21.632812 z M 10.447266 23.560547 C 10.179183 24.670521 10 25.811675 10 27 C 10 27.155415 10.01894 27.306529 10.023438 27.460938 C 10.08047 26.162724 10.324277 24.914682 10.667969 23.705078 C 10.591439 23.661248 10.522538 23.60636 10.447266 23.560547 z "
     id="path4546" />
</svg>
