<svg width="48" height="48" version="1" xmlns="http://www.w3.org/2000/svg">
 <rect transform="matrix(0,-1,-1,0,0,0)" x="-41" y="-42" width="24" height="36" rx="2" ry="2" fill="#5f7c8a" style="fill:#4f4f4f"/>
 <path d="m8 17c-1.108 0-2 0.892-2 2v1c0-1.108 0.892-2 2-2h32c1.108 0 2 0.892 2 2v-1c0-1.108-0.892-2-2-2h-32z" fill="#fff" opacity=".2" style="opacity:.1"/>
 <path d="m6 39v1c0 1.108 0.892 2 2 2h32c1.108 0 2-0.892 2-2v-1c0 1.108-0.892 2-2 2h-32c-1.108 0-2-0.892-2-2z" opacity=".2"/>
 <path d="m34 24a2 2 0 0 1-2 2 2 2 0 0 1-2-2 2 2 0 0 1 2-2 2 2 0 0 1 2 2z" opacity=".2"/>
 <path d="m34 23a2 2 0 0 1-2 2 2 2 0 0 1-2-2 2 2 0 0 1 2-2 2 2 0 0 1 2 2z" fill="#fff"/>
 <path d="m18 24a2 2 0 0 1-2 2 2 2 0 0 1-2-2 2 2 0 0 1 2-2 2 2 0 0 1 2 2z" opacity=".2"/>
 <path d="m18 23a2 2 0 0 1-2 2 2 2 0 0 1-2-2 2 2 0 0 1 2-2 2 2 0 0 1 2 2z" fill="#fff"/>
 <path d="m17 7h14c1.108 0 2 0.892 2 2v14c0 3-7 5-9 7-2-2-9-4-9-7v-14c0-1.108 0.892-2 2-2z" opacity=".2"/>
 <path d="m17 6h14c1.108 0 2 0.892 2 2v14c0 3-7 5-9 7-2-2-9-4-9-7v-14c0-1.108 0.892-2 2-2z" fill="#10c36e" style="fill:#4788f4"/>
 <path d="m12 24a2 2 0 0 1-2 2 2 2 0 0 1-2-2 2 2 0 0 1 2-2 2 2 0 0 1 2 2z" opacity=".2"/>
 <path d="m12 23a2 2 0 0 1-2 2 2 2 0 0 1-2-2 2 2 0 0 1 2-2 2 2 0 0 1 2 2z" fill="#fff"/>
 <path d="m40 24a2 2 0 0 1-2 2 2 2 0 0 1-2-2 2 2 0 0 1 2-2 2 2 0 0 1 2 2z" opacity=".2"/>
 <path d="m40 23a2 2 0 0 1-2 2 2 2 0 0 1-2-2 2 2 0 0 1 2-2 2 2 0 0 1 2 2z" fill="#fff"/>
 <path d="m14 32a2 2 0 0 1-2 2 2 2 0 0 1-2-2 2 2 0 0 1 2-2 2 2 0 0 1 2 2z" opacity=".2"/>
 <path d="m14 31a2 2 0 0 1-2 2 2 2 0 0 1-2-2 2 2 0 0 1 2-2 2 2 0 0 1 2 2z" fill="#fff"/>
 <path d="m20 32a2 2 0 0 1-2 2 2 2 0 0 1-2-2 2 2 0 0 1 2-2 2 2 0 0 1 2 2z" opacity=".2"/>
 <path d="m20 31a2 2 0 0 1-2 2 2 2 0 0 1-2-2 2 2 0 0 1 2-2 2 2 0 0 1 2 2z" fill="#fff"/>
 <path d="m26 32a2 2 0 0 1-2 2 2 2 0 0 1-2-2 2 2 0 0 1 2-2 2 2 0 0 1 2 2z" opacity=".2"/>
 <path d="m26 31a2 2 0 0 1-2 2 2 2 0 0 1-2-2 2 2 0 0 1 2-2 2 2 0 0 1 2 2z" fill="#fff"/>
 <path d="m32 32a2 2 0 0 1-2 2 2 2 0 0 1-2-2 2 2 0 0 1 2-2 2 2 0 0 1 2 2z" opacity=".2"/>
 <path d="m32 31a2 2 0 0 1-2 2 2 2 0 0 1-2-2 2 2 0 0 1 2-2 2 2 0 0 1 2 2z" fill="#fff"/>
 <path d="m38 32a2 2 0 0 1-2 2 2 2 0 0 1-2-2 2 2 0 0 1 2-2 2 2 0 0 1 2 2z" opacity=".2"/>
 <path d="m38 31a2 2 0 0 1-2 2 2 2 0 0 1-2-2 2 2 0 0 1 2-2 2 2 0 0 1 2 2z" fill="#fff"/>
 <rect x="9" y="36" width="30" height="4" rx="1" ry="1" style="fill:#000000;opacity:.2"/>
 <rect x="9" y="35" width="30" height="4" rx="1" ry="1" opacity=".2" style="fill:#e4e4e4;opacity:1"/>
 <path d="m24.148438 9c-2.744898 0-5.190131 1.580859-6.378906 3.880859l1.414062 0.955079-1.417968-0.955079c-0.484695 0.94-0.765626 1.999141-0.765626 3.119141 0 1.16 0.29524 2.250937 0.810547 3.210938l2.470703-1.738282a4 4 0 0 1-0.28125-1.472656 4 4 0 0 1 0.267579-1.429688 4 4 0 0 1 3.732421-2.570312 4 4 0 0 1 2.75 1.101562l2.091797-2.226562c-1.214286-1.16-2.856625-1.875-4.693359-1.875zm-0.148438 5v3h3.865235c-0.04238 0.169994-0.09588 0.337021-0.160156 0.5-0.07325 0.179187-0.159417 0.352821-0.257813 0.519531-0.0022 0.0038-0.0037 8e-3 -0.0059 0.01172l-0.01172 0.01563c-0.09687 0.16309-0.205214 0.319082-0.324219 0.466797-0.122277 0.151432-0.255442 0.293737-0.398437 0.425781-0.0014 0.0013-0.0025 0.0027-0.0039 0.0039l-0.0078 0.0059c-0.135147 0.123743-0.278874 0.237732-0.429687 0.341797-0.0027 0.0019-0.0051 4e-3 -0.0078 0.0059a4 4 0 0 1-2.257803 0.703044 4 4 0 0 1-3.716796-2.525391l-2.466797 1.736329c1.204083 2.25 3.622847 3.789062 6.332031 3.789062 1.795918 0 3.402145-0.674063 4.611328-1.789062 1.382679-1.280039 2.240234-3.145938 2.240234-5.210938-0.01216-0.653819-0.119298-1.331442-0.199218-2h-6.800782z" style="fill:#ffffff"/>
</svg>
