<svg width="48" height="48" version="1" xmlns="http://www.w3.org/2000/svg">
 <path d="m10 5c-1.108 0-2 0.892-2 2v36c0 1.108 0.892 2 2 2h28c1.108 0 2-0.892 2-2v-26l-11-1-1-11z" style="fill:#000000;opacity:.2"/>
 <path d="m10 4c-1.108 0-2 0.892-2 2v36c0 1.108 0.892 2 2 2h28c1.108 0 2-0.892 2-2v-26l-11-1-1-11z" fill="#528ff5"/>
 <path d="m10 4c-1.108 0-2 0.892-2 2v1c0-1.108 0.892-2 2-2h18l11 11h1l-12-12z" fill="#fff" opacity=".1" style="opacity:.2"/>
 <path d="m28 5v10c0 1.1046 0.89543 2 2 2h10l-12-12z" style="fill:#000000;opacity:.2"/>
 <path d="m28 4v10c0 1.1046 0.89543 2 2 2h10l-12-12z" fill="#a5c5f9"/>
 <path d="m15 37v-2h11v2zm0-4v-2h17v2zm0-4v-2h17v2zm0-4v-2h17v2z" fill="#fff" style="enable-background:new"/>
</svg>
