<svg width="48" height="48" version="1" xmlns="http://www.w3.org/2000/svg">
 <rect transform="matrix(0,-1,-1,0,0,0)" x="-40" y="-44" width="32" height="40" rx="2" ry="2" style="fill:#0dacf3"/>
 <path d="m6 8c-1.108 0-2 0.892-2 2v1c0-1.108 0.892-2 2-2h36c1.108 0 2 0.892 2 2v-1c0-1.108-0.892-2-2-2z" style="fill:#ffffff;opacity:.2"/>
 <path d="m4 38v1c0 1.108 0.892 2 2 2h36c1.108 0 2-0.892 2-2v-1c0 1.108-0.892 2-2 2h-36c-1.108 0-2-0.892-2-2z" style="opacity:.2"/>
 <path d="m12 15c-1.108 0-2 0.892-2 2v5h2v-5h24v16h-13v2h13c1.108 0 2-0.892 2-2v-16c0-1.108-0.892-2-2-2z" style="color-rendering:auto;color:#000000;dominant-baseline:auto;fill:#000000;font-feature-settings:normal;font-variant-alternates:normal;font-variant-caps:normal;font-variant-ligatures:normal;font-variant-numeric:normal;font-variant-position:normal;image-rendering:auto;isolation:auto;mix-blend-mode:normal;opacity:.2;shape-padding:0;shape-rendering:auto;solid-color:#000000;text-decoration-color:#000000;text-decoration-line:none;text-decoration-style:solid;text-indent:0;text-orientation:mixed;text-transform:none;white-space:normal"/>
 <path d="m12 14c-1.108 0-2 0.892-2 2v5h2v-5h24v16h-13v2h13c1.108 0 2-0.892 2-2v-16c0-1.108-0.892-2-2-2z" style="color-rendering:auto;color:#000000;dominant-baseline:auto;fill:#ffffff;font-feature-settings:normal;font-variant-alternates:normal;font-variant-caps:normal;font-variant-ligatures:normal;font-variant-numeric:normal;font-variant-position:normal;image-rendering:auto;isolation:auto;mix-blend-mode:normal;shape-padding:0;shape-rendering:auto;solid-color:#000000;text-decoration-color:#000000;text-decoration-line:none;text-decoration-style:solid;text-indent:0;text-orientation:mixed;text-transform:none;white-space:normal"/>
 <path d="m10 24v2a8.9999999 8.9999999 0 0 1 9 9h2a11 11 0 0 0-11-11zm0 4v2a5.0000001 5.0000001 0 0 1 5 5h2a7 7 0 0 0-7-7zm0 4v3h3c0-1.656854-1.343146-3-3-3z" style="fill:#000000;opacity:.2"/>
 <path d="m10 23v2a8.9999999 8.9999999 0 0 1 9 9h2a11 11 0 0 0-11-11zm0 4v2a5.0000001 5.0000001 0 0 1 5 5h2a7 7 0 0 0-7-7zm0 4v3h3c0-1.656854-1.343146-3-3-3z" style="fill:#ffffff"/>
</svg>
