<svg width="48" height="48" preserveAspectRatio="xMidYMid" version="1.1" viewBox="0 0 48 48" xmlns="http://www.w3.org/2000/svg">
 <path d="m41.5 39h-32.664659l-1.3982597-1.004016c-1.1023533-0.791541-1.9779995-0.41647-2.3661312-1.739722l-1.0709505-3.651175v-19.624119l0.8700381-1.449591c0.6921627-1.153228 1.4704861-0.573388 1.9562262-1.8788485l0.242795-0.6525285h33.877107l0.662589 0.8700381c0.822227 1.0796589 0.742623 1.0392539 1.629962 2.0957579l0.761283 0.906417v19.866743l-0.736278 3.382838c-0.293488 1.34843-1.240869 2.008459-2.633869 2.008459z" style="fill:#e4e4e4"/>
 <path d="m6.5 10c-1.2225 0-2.224 0.19-2.4511 1.163-0.0317 0.136-0.0489 0.287-0.0489 0.455v24.922c0 1.371 1.107 2.46 2.5 2.46h2.5v-27.382c0-0.167-0.0179-0.319-0.0509-0.455-0.227-0.973-1.2266-1.163-2.4491-1.163z" style="fill:#376bc9"/>
 <path d="m41.5 10c-1.393 0-2.5 0.175-2.5 1.544v27.456h2.5c1.393 0 2.5-1.087 2.5-2.457v-24.999c0-1.3692-1.107-1.5442-2.5-1.5442z" style="fill:#376bc9"/>
 <path d="m6.5 9c-1.3929 0-0.356554 1.461761-0.356554 2.806761v1c0-1.345-1.036346-2.806761 0.356554-2.806761h35c1.3571 0 0.480214 1.838762 0.480214 3.218562v-1c0-1.38 0.876786-3.218962-0.480214-3.218962h-35z" style="fill:#ffffff;opacity:.2"/>
 <path d="m4 36.523v1c0 1.38 1.1429 2.477 2.5 2.477h35c1.3929 0 2.5-1.0968 2.5-2.4766v-1c0 1.38-1.107 2.477-2.5 2.477h-35c-1.3571 0-2.5-1.097-2.5-2.477z" opacity=".2"/>
 <path d="m6.5378817 10.000314a2.4983286 2.4972189 0 0 0-1.4227338 4.576475l17.486552 11.985452a2.4983286 2.4972189 0 0 0 2.82595 0l17.486551-11.985452a2.4987736 2.4976638 0 1 0-2.82595-4.119998l-16.073576 11.017876-16.073576-11.017876a2.4983286 2.4972189 0 0 0-1.4032177-0.456477z" style="fill-rule:evenodd;opacity:.2"/>
 <path d="m6.5378817 9.0003133a2.4983286 2.4972189 0 0 0-1.4227338 4.5764757l17.486552 11.985452a2.4983286 2.4972189 0 0 0 2.82595 0l17.486551-11.985452a2.4987736 2.4976638 0 1 0-2.82595-4.1199985l-16.073576 11.017876-16.073576-11.017876a2.4983286 2.4972189 0 0 0-1.4032177-0.4564772z" style="fill-rule:evenodd;fill:#4f8cf6"/>
</svg>
