<svg width="48" height="48" version="1" xmlns="http://www.w3.org/2000/svg">
 <path d="m14.053 9c-4.9768 0-8.7209 4.0039-8.9824 8.9629l-0.9983 18.922c-0.6298 3.7 2.9673 6.0372 5.9902 1.9922l5.2344-7.8359c0.23039 0.01766 0.46028 0.03711 0.69531 0.03711h15.988l5.9941 8.0488c2.9976 4.0243 6.3771 0.71189 5.9961-2.0117l-0.985-18.836c4e-3 -0.105 0.016-0.209 0.016-0.316 0-4.965-4.0064-8.9629-8.9824-8.9629h-19.965z" opacity=".2"/>
 <path d="m14.053 8c-4.9771 0-8.7212 4.004-8.9827 8.963l-0.998 18.922c-0.6298 3.7 2.9673 6.037 5.9897 1.992l5.235-7.836c0.23 0.018 0.46 0.037 0.695 0.037h15.988l5.995 8.049c2.997 4.024 6.377 0.712 5.996-2.012l-0.987-18.836c4e-3 -0.105 0.016-0.209 0.016-0.316 0-4.965-4.006-8.963-8.982-8.963h-19.965z" fill="#4f4f4f" style="fill:#6e9e43"/>
 <circle cx="14.5" cy="18.5" r="6.5" style="fill-rule:evenodd;fill:#000000;opacity:.2"/>
 <circle cx="14.5" cy="17.5" r="6.5" style="fill-rule:evenodd;fill:#ffffff"/>
 <path d="m33.519531 14a1.5 1.5 0 0 0-1.5 1.5 1.5 1.5 0 0 0 1.5 1.5 1.5 1.5 0 0 0 1.5-1.5 1.5 1.5 0 0 0-1.5-1.5zm-3 3a1.5 1.5 0 0 0-1.5 1.5 1.5 1.5 0 0 0 1.5 1.5 1.5 1.5 0 0 0 1.5-1.5 1.5 1.5 0 0 0-1.5-1.5zm6 0a1.5 1.5 0 0 0-1.5 1.5 1.5 1.5 0 0 0 1.5 1.5 1.5 1.5 0 0 0 1.5-1.5 1.5 1.5 0 0 0-1.5-1.5zm-3 3a1.5 1.5 0 0 0-1.5 1.5 1.5 1.5 0 0 0 1.5 1.5 1.5 1.5 0 0 0 1.5-1.5 1.5 1.5 0 0 0-1.5-1.5z" style="fill:#000000;opacity:.1"/>
 <g fill="#e4e4e4" style="fill:#3f3f3f">
  <rect x="13.02" y="12.93" width="3" height="9" ry="0" style="fill:#3f3f3f"/>
  <rect transform="rotate(90)" x="15.93" y="-19.02" width="3" height="9" ry="0" style="fill:#3f3f3f"/>
 </g>
 <circle cx="36.52" cy="17.43" r="1.5" fill="#ffca58" style="fill:#3f3f3f"/>
 <g fill="#ee5353" style="fill:#3f3f3f">
  <circle cx="30.52" cy="17.43" r="1.5" style="fill:#3f3f3f"/>
  <circle transform="rotate(90)" cx="14.43" cy="-33.52" r="1.5" style="fill:#3f3f3f"/>
 </g>
 <circle transform="rotate(90)" cx="20.43" cy="-33.52" r="1.5" fill="#ffca58" style="fill:#3f3f3f"/>
 <path d="m14.052 8c-4.9771 0-8.7224 4.1075-8.984 9.1939l-0.9985 19.409c-0.0819 0.494-0.0876 0.962-0.037 1.397 0.0118-0.125 0.0158-0.247 0.037-0.375l0.9982-19.41c0.2616-5.086 4.0069-9.1935 8.9843-9.1935h19.964c4.817 0 8.7141 3.8445 8.9606 8.7091 0.01-0.1782 0.02336-0.35587 0.02336-0.53671 0-5.0934-4.0068-9.1939-8.984-9.1939h-19.964z" fill="#fff" opacity=".1"/>
</svg>
