<svg width="48" height="48" version="1" xmlns="http://www.w3.org/2000/svg">
 <rect transform="matrix(0,-1,-1,0,0,0)" x="-40" y="-43" width="30" height="38" rx="1.875" ry="1.9" style="fill:#000000;opacity:.2;stroke-width:.94372928"/>
 <rect transform="matrix(0,-1,-1,0,0,0)" x="-39" y="-43" width="30" height="38" rx="1.875" ry="1.9" style="fill:#0fa0e6;stroke-width:.94372928"/>
 <rect x="3" y="20" width="8" height="15" rx="1.5" ry="1.5" style="fill:#000000;opacity:.2"/>
 <rect x="3" y="19" width="8" height="15" rx="1.5" ry="1.5" style="fill:#e4e4e4"/>
 <rect x="36.999989" y="20" width="8" height="15" rx="1.5" ry="1.5" style="fill:#000000;opacity:.2"/>
 <rect x="36.999989" y="19" width="8" height="15" rx="1.5" ry="1.5" style="fill:#e4e4e4"/>
 <rect x="13" y="20" width="22" height="15" rx="1.5" ry="1.5" style="fill:#000000;opacity:.2"/>
 <rect x="13" y="19" width="22" height="15" rx="1.5" ry="1.5" style="fill:#e4e4e4"/>
 <path d="m6.9003906 9c-1.0526 0-1.9003906 0.83625-1.9003906 1.875v1c0-1.03875 0.8477906-1.875 1.9003906-1.875h34.199218c1.0526 0 1.900391 0.83625 1.900391 1.875v-1c0-1.03875-0.847791-1.875-1.900391-1.875h-34.199218z" style="fill:#ffffff;opacity:.2;stroke-width:.94372928"/>
</svg>
