<svg width="48" height="48" version="1" xmlns="http://www.w3.org/2000/svg">
 <path d="M 24.000265,6 C 15,6 14,14 14.000266,23 h 4.105577 C 18,14 20.23625,10 24.000265,10 27.764281,10 30,14 29.894687,23 h 4.105579 C 34,14 33,6 24.000265,6 Z" style="fill:#000000;opacity:.2;stroke-linecap:round;stroke-width:.97493327"/>
 <rect transform="matrix(0,-1,-1,0,0,0)" x="-44" y="-38" width="28" height="28" rx="14" ry="14" style="fill:#000000;opacity:.2;stroke-width:.875"/>
 <path d="M 24.000265,5 C 15,5 14,13 14.000266,22 h 4.105577 C 18,13 20.23625,9 24.000265,9 27.764281,9 30,13 29.894687,22 h 4.105579 C 34,13 33,5 24.000265,5 Z" style="fill:#e4e4e4;stroke-linecap:round;stroke-width:.97493327"/>
 <path d="m24 5c-9.000265 0-10.000266 8-10 17h0.01758c0.081924-8.57842 1.321583-16 9.98242-16 8.660327 0 9.900023 7.42158 9.982422 16h0.017578c-2.66e-4 -9-1.000265-17-10-17z" style="fill:#ffffff;opacity:.2;stroke-linecap:round;stroke-width:.97493327"/>
 <rect transform="matrix(0,-1,-1,0,0,0)" x="-43" y="-38" width="28" height="28" rx="14" ry="14" style="fill:#a0a0a0;stroke-width:.875"/>
 <rect transform="matrix(0,-1,-1,0,0,0)" x="-39" y="-34" width="20" height="20" rx="10" ry="10" style="fill:#5d5d5d;stroke-width:.625"/>
 <path d="m28.949219 25.051385-2.121095 0.707031-1.46289 0.488282a4 4 0 0 0-4.193359 0.925781 4 4 0 0 0 0 5.65625 4 4 0 0 0 5.65625 0 4 4 0 0 0 0.925781-4.193359l0.488282-1.46289z" style="fill:#000000;opacity:.2"/>
 <path d="m28.949219 24.050781-2.121094 0.707031-1.462891 0.488282a4 4 0 0 0-4.193359 0.925781 4 4 0 0 0 0 5.65625 4 4 0 0 0 5.65625 0 4 4 0 0 0 0.925781-4.193359l0.488282-1.462891z" style="fill:#ff5969"/>
</svg>
