<svg width="48" height="48" version="1" xmlns="http://www.w3.org/2000/svg">
 <path d="m24 5c-11.08 0-20 8.92-20 20s8.92 20 20 20h18c1.108 0 2-0.892 2-2v-18.154297l-0.0039 0.0039c-0.080801-11.009759-8.966596-19.849603-19.9961-19.849603z" style="fill:#000000;opacity:.2"/>
 <path d="m24 4c-11.08 0-20 8.92-20 20s8.92 20 20 20h18c1.108 0 2-0.892 2-2v-18.154297l-0.003906 0.003906c-0.080795-11.009765-8.96659-19.849609-19.996094-19.849609z" style="fill:#f5bb18"/>
 <path d="m24 15c-5.522847 0-10 4.477153-10 10s4.477153 10 10 10c2.499588-4e-3 4.907043-0.944009 6.748047-2.634766l0.273437 0.314454 1.810547 2.089843c0.436847 0.50516 1.168164 0.135833 1.167969-0.589843v-4.179688c0.01056-1.644396-0.02011-3.419518 0-5 0-5.522847-4.477153-10-10-10z" style="fill-rule:evenodd;fill:#000000;opacity:.2"/>
 <path d="m24 14c-5.522847 0-10 4.477153-10 10s4.477153 10 10 10c2.499588-4e-3 4.907043-0.944009 6.748047-2.634766l0.273437 0.314454 1.810547 2.089843c0.436847 0.50516 1.168164 0.135833 1.167969-0.589843v-4.179688c0.01056-1.644396-0.02011-3.419518 0-5 0-5.522847-4.477153-10-10-10z" style="fill-rule:evenodd;fill:#ffffff"/>
 <path d="M 24 4 C 12.92 4 4 12.92 4 24 C 4 24.167874 4.007647 24.333141 4.0117188 24.5 C 4.2763904 13.653863 13.087874 5 24 5 C 35.029504 5 43.915293 13.83985 43.996094 24.849609 L 44 24.845703 L 44 24 L 44 23.845703 L 43.996094 23.849609 C 43.915299 12.839844 35.029504 4 24 4 z " style="fill:#ffffff;opacity:.2"/>
</svg>
