<svg width="48" height="48" version="1" xmlns="http://www.w3.org/2000/svg">
 <path d="m6 9c-1.108 0-2 0.892-2 2v28c0 1.108 0.892 2 2 2h26l12-12v-18c0-1.108-0.892-2-2-2h-36z" style="fill:#000000;opacity:.2"/>
 <path d="m44 10c0-1.108-0.892-2-2-2h-36c-1.108 0-2 0.892-2 2v28c0 1.108 0.892 2 2 2h26l1-11 11-1z" style="fill:#e4e4e4"/>
 <path d="M 7.9707031,14 C 7.432912,14 7,14.401069 7,14.898438 l 0,2.203124 C 7,17.598931 7.432912,18 7.9707031,18 L 24,18 40.029297,18 C 40.567088,18 41,17.598931 41,17.101562 l 0,-2.203124 C 41,14.401069 40.567088,14 40.029297,14 L 24,14 7.9707031,14 Z" style="fill-rule:evenodd;fill:#000000;opacity:.1"/>
 <path d="M 7.9707031 13 C 7.432912 13 7 13.401069 7 13.898438 L 7 16.101562 C 7 16.598931 7.432912 17 7.9707031 17 L 24 17 L 24 13 L 7.9707031 13 z " style="fill-rule:evenodd;fill:#4f8df5"/>
 <path d="m27 21c-0.554 0-1 0.446-1 1s0.446 1 1 1h12c0.554 0 1-0.446 1-1s-0.446-1-1-1h-12zm0 4c-0.554 0-1 0.446-1 1s0.446 1 1 1h12c0.554 0 1-0.446 1-1s-0.446-1-1-1h-12zm0 4c-0.554 0-1 0.446-1 1s0.446 1 1 1h12c0.554 0 1-0.446 1-1s-0.446-1-1-1h-12zm0 4c-0.554 0-1 0.446-1 1s0.446 1 1 1h5.455078l0.181641-2h-5.636719z" style="fill-rule:evenodd;fill:#000000;opacity:.3"/>
 <path d="m44 28h-10c-1.1046 0-2 0.89543-2 2v10l12-12z" style="fill:#fafafa"/>
 <rect transform="scale(-1)" x="-23" y="-37" width="16" height="16" rx="1.3333334" ry="1.3333334" style="fill-rule:evenodd;fill:#495ab9"/>
 <path d="m 24,13 16.029258,0 C 40.567049,13 41,13.400409 41,13.897778 l 0,2.204444 C 41,16.599591 40.567049,17 40.029258,17 L 24,17 Z" style="fill-rule:evenodd;fill:#0fadf5"/>
 <path d="m34 28c-1.1046 0-2 0.89543-2 2v1c0-1.10457 0.8954-2 2-2h9l1-1h-10z" style="fill:#ffffff;opacity:.2"/>
 <path d="m6 8c-1.108 0-2 0.892-2 2v1c0-1.108 0.892-2 2-2h36c1.108 0 2 0.892 2 2v-1c0-1.108-0.892-2-2-2h-36z" style="fill:#ffffff;opacity:.2"/>
 <path d="m 15.123047,24 c -2.3506,0 -4.448082,1.350312 -5.4687501,3.320312 C 9.2368435,28.130312 9,29.04 9,30 c 0,0.99 0.2524306,1.93 0.6933594,2.75 1.0339376,1.93 3.1076666,3.25 5.4296876,3.25 1.54223,0 2.92012,-0.579063 3.955078,-1.539062 C 20.266183,33.360936 21,31.77 21,30 c 0,-0.341227 -0.03194,-0.673963 -0.08398,-1 L 20,29 18.865234,29 15,29 l 0,2 3.867188,0 C 18.643496,31.866019 18.136,32.632076 17.425781,33.175781 A 4,4 0 0 1 15,34 4,4 0 0 1 11.294922,31.501953 4,4 0 0 1 11,30 4,4 0 0 1 11.28125,28.535156 4,4 0 0 1 15,26 a 4,4 0 0 1 2.691406,1.048828 l 1.457032,-1.449219 C 18.107354,24.609609 16.701,24 15.123047,24 Z" style="fill:#000000;opacity:.2"/>
 <path d="M 15.123047 23 C 12.772447 23 10.674965 24.350312 9.6542969 26.320312 C 9.2368435 27.130312 9 28.04 9 29 C 9 29.99 9.2524306 30.93 9.6933594 31.75 C 10.727297 33.68 12.801026 35 15.123047 35 C 16.665277 35 18.043167 34.420937 19.078125 33.460938 C 20.266183 32.360936 21 30.77 21 29 C 21 28.658773 20.968056 28.326037 20.916016 28 L 20 28 L 18.865234 28 L 15 28 L 15 30 L 18.867188 30 C 18.643496 30.866019 18.136 31.632076 17.425781 32.175781 A 4 4 0 0 1 15 33 A 4 4 0 0 1 11.294922 30.501953 A 4 4 0 0 1 11 29 A 4 4 0 0 1 11.28125 27.535156 A 4 4 0 0 1 15 25 A 4 4 0 0 1 17.691406 26.048828 L 19.148438 24.599609 C 18.107354 23.609609 16.701 23 15.123047 23 z " style="fill:#ffffff"/>
</svg>
