<svg width="48" height="48" version="1" xmlns="http://www.w3.org/2000/svg">
 <rect transform="matrix(0,-1,-1,0,0,0)" x="-44" y="-44" width="40" height="40" rx="20" ry="20" fill="#e05048" style="fill:#de5246"/>
 <path d="m24 4c-11.08 0-20 8.92-20 20 0 0.168-4e-3 0.333 0 0.5 0.2644-10.846 9.088-19.5 20-19.5s19.736 8.654 20 19.5c4e-3 -0.167 0-0.332 0-0.5 0-11.08-8.92-20-20-20z" fill="#fff" opacity=".2"/>
 <path d="m4.0117 24.5c-0.0041 0.167-0.0117 0.332-0.0117 0.5 0 11.08 8.92 20 20 20s20-8.92 20-20c0-0.168-8e-3 -0.333-0.012-0.5-0.264 10.846-9.076 19.5-19.988 19.5s-19.724-8.654-19.988-19.5z" opacity=".2"/>
 <path d="M 18.230469,14 C 13.922349,14 10.0835,16.479844 8.2050781,20.089844 7.4394161,21.569844 7,23.23 7,25 c 0,1.817829 0.4687085,3.524531 1.2734375,5.033203 l -0.00781,0.0059 C 10.164465,33.579061 13.963184,36 18.230469,36 21.058312,36 23.579676,34.929688 25.478516,33.179688 27.652982,31.169649 29,28.25 29,25 29,24.29 28.929151,23.67 28.806641,23 L 18,23 l 0,4 6.630859,0 c -0.418562,1.44 -1.286923,2.749609 -2.460937,3.599609 l 0.0078,0.0059 A 7,7 0 0 1 18,32 7,7 0 0 1 11.480469,27.546875 7,7 0 0 1 11,25 7,7 0 0 1 11.462891,22.519531 7,7 0 0 1 18,18 a 7,7 0 0 1 4.708984,1.832031 l 2.91211,-2.892578 C 23.701837,15.119453 21.129773,14 18.230469,14 Z M 34,20 l 0,3 -3,0 0,4 3,0 0,3 4,0 0,-3 3,0 0,-4 -3,0 0,-3 -4,0 z" style="fill:#000000;opacity:.2"/>
 <path d="m18.230469 13c-4.30812 0-8.146969 2.479844-10.025391 6.089844-0.765662 1.48-1.2050781 3.140156-1.2050781 4.910156 0 1.817829 0.4687085 3.524531 1.2734375 5.033203l-0.0078125 0.005859c1.89884 3.539999 5.697559 5.960938 9.964844 5.960938 2.827843 0 5.349207-1.070312 7.248047-2.820312 2.174466-2.010039 3.521484-4.929688 3.521484-8.179688 0-0.71-0.070849-1.33-0.193359-2h-10.806641v4h6.630859c-0.418562 1.44-1.286923 2.749609-2.460937 3.599609l0.007812 0.00586a7 7 0 0 1-4.177734 1.394531 7 7 0 0 1-6.519531-4.453125 7 7 0 0 1-0.480469-2.546875 7 7 0 0 1 0.462891-2.480469 7 7 0 0 1 6.537109-4.519531 7 7 0 0 1 4.708984 1.832031l2.91211-2.892578c-1.919257-1.82-4.491321-2.939453-7.390625-2.939453zm15.769531 6v3h-3v4h3v3h4v-3h3v-4h-3v-3h-4z" style="fill:#ffffff"/>
</svg>
