<svg width="48" height="48" version="1" xmlns="http://www.w3.org/2000/svg">
 <path d="m30.101562 14 6.291016 10.896484-0.060547 0.103516-10.96875 19h7.433594a3.4085758 3.4738577 0 0 0 0.339844-0.01758 3.4085758 3.4738577 0 0 0 0.335937-0.05078 3.4085758 3.4738577 0 0 0 0.08789-0.02344 3.4085758 3.4738577 0 0 0 0.244141-0.06445 3.4085758 3.4738577 0 0 0 0.201171-0.07422 3.4085758 3.4738577 0 0 0 0.714844-0.376953 3.4085758 3.4738577 0 0 0 0.271485-0.208984 3.4085758 3.4738577 0 0 0 0.25-0.238282 3.4085758 3.4738577 0 0 0 0.421874-0.541015 3.4085758 3.4738577 0 0 0 0-2e-3 3.4085758 3.4738577 0 0 0 0.08398-0.138672l5.285156-9.330078 3.509766-6.197266a3.4085758 3.4738577 0 0 0 0-3.474609l-5.246088-9.261671z" style="fill:#000000;opacity:.2"/>
 <path d="m15.203991 5c-1.217852-1.588e-4 -2.343264 0.6619002-2.952251 1.7367552l-5.4864939 9.6850068-2.4849591 6.00538c-0.6087521 1.074727 0.050226 1.986921 0.6589786 3.061648l8.3009424 14.785987c0.608987 1.074855 0.993048 1.654542 2.2109 1.654383h17.097783s1.107679-0.744273 1.716666-1.819128l8.54806-14.291753c0.608752-1.074727 0.691125-1.822176 0.08237-2.896903l-3.453624-9.663622-3.694104-6.5209988c-0.608987-1.074855-1.734399-1.736914-2.952251-1.7367552z" style="color-rendering:auto;color:#000000;dominant-baseline:auto;fill:#4587f3;font-feature-settings:normal;font-variant-alternates:normal;font-variant-caps:normal;font-variant-ligatures:normal;font-variant-numeric:normal;font-variant-position:normal;image-rendering:auto;isolation:auto;mix-blend-mode:normal;shape-padding:0;shape-rendering:auto;solid-color:#000000;text-decoration-color:#000000;text-decoration-line:none;text-decoration-style:solid;text-indent:0;text-orientation:mixed;text-transform:none;white-space:normal"/>
 <path d="m7.0273438 15.960938-3.5703126 6.300781a3.4085758 3.4738577 0 0 0 0 3.474609l5.2480469 9.263672 3.5468749 6.263672a3.4085758 3.4738577 0 0 0 2.951172 1.736328h10.160156l4.619141-8h-11.964844l-6.349609-11zm27.523437 26.539062a3.4085758 3.4738577 0 0 1-0.226562 0.126953 3.4085758 3.4738577 0 0 0 0.226562-0.126953zm-0.238281 0.134766a3.4085758 3.4738577 0 0 1-0.306641 0.134765 3.4085758 3.4738577 0 0 0 0.306641-0.134765z" style="fill:#f9bc14"/>
 <path d="m30.101562 13 6.191438 10.896484 0.039031 0.103516-10.96875 19h7.433594c0.113498-8.9e-5 0.22692-6e-3 0.339844-0.01758 0.112737-0.01123 0.224855-0.02818 0.335937-0.05078 0.0294-0.0074 0.0587-0.01523 0.08789-0.02344 0.08213-0.01841 0.163569-0.03991 0.244141-0.06445 0.0678-0.02259 0.134893-0.04734 0.201171-0.07422 0.252052-0.09644 0.492006-0.222971 0.714844-0.376953 0.09385-0.06501 0.18446-0.13476 0.271485-0.208984 0.0872-0.07511 0.170635-0.154638 0.25-0.238282 0.157919-0.1656 0.299243-0.346834 0.421874-0.541015v-2e-3c0.02905-0.04555 0.05706-0.09179 0.08398-0.138672l5.285156-9.330078 3.509766-6.197266c0.609167-1.075006 0.609167-2.399603 0-3.474609l-5.246088-9.261671z" style="fill:#dd4d3e"/>
 <path d="m15.203125 5c-1.21738 1.459e-4 -2.342271 0.6619777-2.951172 1.7363281l-8.7949218 15.525391c-0.3809828 0.675331-0.5281874 1.461569-0.4179687 2.232422 0.0617434-0.434013 0.2035643-0.852186 0.4179687-1.232422l8.7949218-15.525391c0.608901-1.0743504 1.733792-1.7361822 2.951172-1.7363281h17.59375c1.21738 1.459e-4 2.342271 0.6619777 2.951172 1.7363281l2.982422 5.2636719h-8.628907l0.578126 1h8.617187l5.246094 9.261719c0.112915 0.200988 0.205825 0.41298 0.277343 0.632812 0.03604 0.109701 0.06667 0.221168 0.0918 0.333985v2e-3c0.0198 0.0898 0.03609 0.180366 0.04883 0.271484 0.01665-0.113951 0.02773-0.228676 0.0332-0.34375v-2e-3c5e-3 -0.115196 0.0043-0.230573-2e-3 -0.345703v-2e-3c-0.0061-0.115107-0.01785-0.229832-0.03516-0.34375v-2e-3c-0.01728-0.113715-0.0401-0.226484-0.06836-0.337891v-2e-3c-0.02852-0.111018-0.06241-0.220527-0.101563-0.328125v-2e-3c-0.03905-0.108302-0.08338-0.214554-0.132812-0.31836l-2e-3 -2e-3c-0.03408-0.07157-0.07056-0.141922-0.109375-0.210937l-5.245997-9.261484-3.548828-6.2636719c-0.608901-1.0743504-1.733792-1.7361822-2.951172-1.7363281z" style="fill:#ffffff;opacity:.2"/>
 <path d="m3.0390625 24.496094a3.4085758 3.4738577 0 0 0 0.4179687 2.240234l5.2480469 9.263672 3.5468749 6.263672a3.4085758 3.4738577 0 0 0 2.951172 1.736328h10.160156l4.619141-8h-0.578125l-4.041016 7h-10.160156a3.4085758 3.4738577 0 0 1-2.951172-1.736328l-3.5468749-6.263672-5.2480469-9.263672a3.4085758 3.4738577 0 0 1-0.4179687-1.240234zm31.511718 18.003906a3.4085758 3.4738577 0 0 1-0.226562 0.126953 3.4085758 3.4738577 0 0 0 0.226562-0.126953zm-0.238281 0.134766a3.4085758 3.4738577 0 0 1-0.306641 0.134765 3.4085758 3.4738577 0 0 0 0.306641-0.134765zm0.238281 0.865234a3.4085758 3.4738577 0 0 1-0.226562 0.126953 3.4085758 3.4738577 0 0 0 0.226562-0.126953zm-0.238281 0.134766a3.4085758 3.4738577 0 0 1-0.306641 0.134765 3.4085758 3.4738577 0 0 0 0.306641-0.134765z" style="fill:#000000;opacity:.2"/>
 <path d="m17.898438 14h12.203124l6.230469 11-6.330031 11h-12.103562l-6.230469-11z" style="color-rendering:auto;color:#000000;dominant-baseline:auto;fill:#000000;font-feature-settings:normal;font-variant-alternates:normal;font-variant-caps:normal;font-variant-ligatures:normal;font-variant-numeric:normal;font-variant-position:normal;image-rendering:auto;isolation:auto;mix-blend-mode:normal;opacity:.2;shape-padding:0;shape-rendering:auto;solid-color:#000000;text-decoration-color:#000000;text-decoration-line:none;text-decoration-style:solid;text-indent:0;text-orientation:mixed;text-transform:none;white-space:normal"/>
 <path d="m17.898438 13h12.203124l6.230469 11-6.330031 11h-12.103562l-6.230469-11z" style="color-rendering:auto;color:#000000;dominant-baseline:auto;fill:#d5d5d5;font-feature-settings:normal;font-variant-alternates:normal;font-variant-caps:normal;font-variant-ligatures:normal;font-variant-numeric:normal;font-variant-position:normal;image-rendering:auto;isolation:auto;mix-blend-mode:normal;shape-padding:0;shape-rendering:auto;solid-color:#000000;text-decoration-color:#000000;text-decoration-line:none;text-decoration-style:solid;text-indent:0;text-orientation:mixed;text-transform:none;white-space:normal"/>
 <circle cx="24" cy="25" r="5" style="fill:#000000;opacity:.2"/>
 <circle cx="24" cy="24" r="5" style="fill:#ffffff"/>
 <path d="m7.0273438 15.960938-3.5703126 6.300781a3.4085758 3.4738577 0 0 0-0.4179687 2.234375 3.4085758 3.4738577 0 0 1 0.4179687-1.234375l3.5703126-6.300781 4.6406252 8.039062 6.349609 11h11.386719l0.578125-1h-11.964844l-6.349609-11zm27.523437 26.539062a3.4085758 3.4738577 0 0 1-0.226562 0.126953 3.4085758 3.4738577 0 0 0 0.226562-0.126953zm-0.238281 0.134766a3.4085758 3.4738577 0 0 1-0.306641 0.134765 3.4085758 3.4738577 0 0 0 0.306641-0.134765zm0.238281 0.865234a3.4085758 3.4738577 0 0 1-0.226562 0.126953 3.4085758 3.4738577 0 0 0 0.226562-0.126953zm-0.238281 0.134766a3.4085758 3.4738577 0 0 1-0.306641 0.134765 3.4085758 3.4738577 0 0 0 0.306641-0.134765z" style="fill:#ffffff;opacity:.2"/>
</svg>
