<svg width="48" height="48" version="1" xmlns="http://www.w3.org/2000/svg">
 <circle cx="24" cy="24" r="16" style="fill:#278df2"/>
 <path d="M 42.396484 18.650391 A 9 10 60 0 1 37.160156 26.794922 A 9 10 60 0 1 24 24 A 9 10 60 0 1 22.923828 20.355469 A 9 10 60 0 0 24 25 A 9 10 60 0 0 37.160156 27.794922 A 9 10 60 0 0 42.396484 18.650391 z " style="fill:#000000;opacity:.2"/>
 <path d="m24.666016 24.037109a10 9 30 0 0-0.382813 0.513672 9 10 60 0 1 0.203125 0.476563 9 10 0 0 1 8.494141 9.386718 9 10 0 0 0 0.019531-0.414062 9 10 0 0 0-8.333984-9.962891zm-1.734375 4.595703a10 9 30 0 0 1.068359 4.847657 9 10 60 0 0 0.257812-0.556641 9 10 60 0 0 0.810547-4.259766 9 10 60 0 1-1.068359 3.816407 10 9 30 0 1-1.068359-3.847657zm19.464843 1.716797a10 9 30 0 1-1.076172 3.650391 10 9 30 0 1-8.808593 4.1875 9 10 0 0 1-0.337891 0.970703 10 9 30 0 0 9.146484-4.158203 10 9 30 0 0 1.076172-4.650391zm-10.222656 8.808594a10 9 30 0 1-0.642578-0.115234 10 9 30 0 0 0.642578 0.115234zm-0.642578-0.115234a10 9 30 0 1-0.455078-0.09375 10 9 30 0 0 0.455078 0.09375zm-0.455078-0.09375a10 9 30 0 1-0.523438-0.144531 10 9 30 0 0 0.523438 0.144531zm-0.523438-0.144531a10 9 30 0 1-0.427734-0.128907 10 9 30 0 0 0.427734 0.128907zm-0.427734-0.128907a10 9 30 0 1-0.482422-0.18164 10 9 30 0 0 0.482422 0.18164zm-0.482422-0.18164a10 9 30 0 1-0.470703-0.191407 10 9 30 0 0 0.470703 0.191407zm-0.470703-0.191407a10 9 30 0 1-0.429687-0.208984 10 9 30 0 0 0.429687 0.208984zm-0.429687-0.208984a10 9 30 0 1-0.582032-0.298828 10 9 30 0 0 0.582032 0.298828zm-4.220704-4.728516a10 9 30 0 0 0.490235 0.683594 10 9 30 0 1-0.490235-0.683594zm-0.513672 0.128907a10 9 30 0 0 0.445313 0.767578 10 9 30 0 1-0.445313-0.767578zm1.09961 0.675781a10 9 30 0 0 0.501953 0.580078 10 9 30 0 1-0.501953-0.580078zm-0.585938 0.195312a10 9 30 0 0 0.490235 0.683594 10 9 30 0 1-0.490235-0.683594zm1.28125 0.589844a10 9 30 0 0 0.466797 0.447266 10 9 30 0 1-0.466797-0.447266zm-0.695312 0.214844a10 9 30 0 0 0.501953 0.580078 10 9 30 0 1-0.501953-0.580078zm1.455078 0.492187a10 9 30 0 0 0.455078 0.361329 10 9 30 0 1-0.455078-0.361329zm-0.759766 0.292969a10 9 30 0 0 0.466797 0.447266 10 9 30 0 1-0.466797-0.447266zm1.552735 0.316406a10 9 30 0 0 0.582031 0.384766 10 9 30 0 1-0.582031-0.384766zm-0.792969 0.390625a10 9 30 0 0 0.455078 0.361329 10 9 30 0 1-0.455078-0.361329zm0.792969 0.609375a10 9 30 0 0 0.582031 0.384766 10 9 30 0 1-0.582031-0.384766z" style="fill:#000000;opacity:.2"/>
 <ellipse transform="rotate(60)" cx="32.784611" cy="-18.784609" rx="9" ry="10" style="fill:#34e0c4"/>
 <ellipse cx="24" cy="34" rx="9" ry="10" style="fill:#34e0c4"/>
 <path d="M 24 24 A 9 10 0 0 0 15 34 A 9 10 0 0 0 15.019531 34.576172 A 9 10 0 0 1 24 25 A 9 10 0 0 1 32.980469 34.423828 A 9 10 0 0 0 33 34 A 9 10 0 0 0 24 24 z " style="fill:#ffffff;opacity:.2"/>
 <ellipse transform="rotate(60)" cx="32.784611" cy="1.2153903" rx="9" ry="10" style="fill:#278df2"/>
 <path d="m16.515625 19.744141a9 10 60 0 0-5.675781 1.460937 9 10 60 0 0-5.2363284 9.144531 9 10 60 0 1 5.2363284-8.144531 9 10 60 0 1 13.160156 2.794922 9 10 60 0 1 1.076172 3.644531 9 10 60 0 0-1.076172-4.644531 9 10 60 0 0-7.484375-4.255859z" style="fill:#ffffff;opacity:.1"/>
 <ellipse transform="matrix(-.5 .8660254 .8660254 .5 0 0)" cx="8.7846098" cy="22.784609" rx="9" ry="10" style="fill:#34e0c4"/>
 <path d="m14.164062 9.7441406a10 9 30 0 0-7.4843745 4.2558594 10 9 30 0 0-1.0761719 4.650391 10 9 30 0 1 1.0761719-3.650391 10 9 30 0 1 13.160156-2.794922 10 9 30 0 1 3.892578 3.845703 9 10 60 0 1 0.265625-0.527343 10 9 30 0 0-4.158203-4.31836 10 9 30 0 0-5.675782-1.4609374z" style="fill:#ffffff;opacity:.2"/>
 <path d="m31.484375 19.744141c-3.19821 0.090482-5.998835 1.683008-7.484375 4.255859 4.970563 0 9 4.477153 9 10-0.0035 1.435898-0.28529 2.854116-0.826172 4.158203 3.810345 0.510706 7.383319-1.113651 9.146484-4.158203 2.485799-4.304734 0.623168-10.033419-4.160156-12.794922-1.745214-1.007238-3.723561-1.516462-5.675781-1.460937zm0.689453 18.414062zm-8.173828-14.158203z" style="fill:#278df2"/>
 <path d="M 5.6035156 18.650391 A 10 9 30 0 0 10.839844 27.794922 A 10 9 30 0 0 24 25 A 10 9 30 0 0 24.251953 24.498047 C 24.170256 24.331251 24.094081 24.162954 24 24 A 10 9 30 0 1 10.839844 26.794922 A 10 9 30 0 1 5.6035156 18.650391 z " style="fill:#000000;opacity:.2"/>
 <path d="M 32.980469 34.423828 A 9 10 0 0 1 24 44 A 9 10 0 0 1 15.832031 38.158203 A 9 10 60 0 1 15.482422 38.197266 A 9 10 0 0 0 24 45 A 9 10 0 0 0 33 35 A 9 10 0 0 0 32.980469 34.423828 z " style="fill:#000000;opacity:.2"/>
 <path d="m24 4a9 10 0 0 0-9 10 9 10 0 0 0 9 10 9 10 60 0 1 4.160156-12.794922 9 10 60 0 1 4.013672-1.3632811 9 10 0 0 0-8.173828-5.8417969zm0 20a9 10 0 0 0 8.554688-6.916016 9 10 0 0 1-1.208985 2.669922 10 9 30 0 0-7.345703 4.246094zm8.554688-6.916016a9 10 0 0 0 0.216796-0.882812 9 10 0 0 1-0.216796 0.882812zm-0.275391-6.976562a9 10 0 0 1 0.300781 0.912109 9 10 0 0 0-0.300781-0.912109zm0.314453 0.953125a9 10 0 0 1 0.183594 0.791015 9 10 0 0 0-0.183594-0.791015zm0.234375 1.035156a9 10 0 0 1 0.087891 0.638672 9 10 0 0 0-0.087891-0.638672zm0.130859 1.037109a9 10 0 0 1 0.041016 0.867188 9 10 0 0 0-0.041016-0.867188zm0.021485 1.308594a9 10 0 0 1-0.039063 0.65625 9 10 0 0 0 0.039063-0.65625zm-0.070313 0.886719a9 10 0 0 1-0.117187 0.775391 9 10 0 0 0 0.117187-0.775391z" style="fill:#278df2"/>
 <path d="m25.076172 28.644531a9 10 60 0 1-5.236328 8.150391 9 10 60 0 1-13.160156-2.794922 9 10 60 0 1-1.0761719-3.650391 9 10 60 0 0 1.0761719 4.650391 9 10 60 0 0 13.160156 2.794922 9 10 60 0 0 5.236328-9.150391z" style="fill:#000000;opacity:.2"/>
 <path d="m15.019531 14.423828c-0.011493 0.191809-0.018006 0.383946-0.019531 0.576172 0.002762 5.24529 3.651659 9.57544 8.337891 9.958984a10 9 30 0 0 0.519531-0.740234c0.068671-0.114556 0.142578-0.21875 0.142578-0.21875l-0.486328-0.019531c-4.621958-0.284377-8.295989-4.417977-8.494141-9.556641zm8.988281 18.070313c0.136615 0.261116 0.285206 0.517243 0.445313 0.767578-0.160107-0.250335-0.308699-0.506462-0.445313-0.767578zm0.513672 0.871093c0.153629 0.233547 0.317191 0.461621 0.490235 0.683594-0.173044-0.221973-0.336606-0.450047-0.490235-0.683594zm0.585938 0.804688c0.159899 0.198793 0.327342 0.392298 0.501953 0.580078-0.174611-0.18778-0.342054-0.381285-0.501953-0.580078zm0.695312 0.785156c0.150885 0.153431 0.306567 0.302598 0.466797 0.447266-0.16023-0.144668-0.315912-0.293835-0.466797-0.447266zm0.759766 0.707031c0.148351 0.124307 0.300108 0.244801 0.455078 0.361329-0.15497-0.116529-0.306727-0.237022-0.455078-0.361329zm0.792969 0.609375c0.189832 0.13426 0.38396 0.262594 0.582031 0.384766-0.198071-0.122172-0.392199-0.250506-0.582031-0.384766z" style="fill:#000000;opacity:.2"/>
 <path d="m33.835938 9.7441406a9 10 60 0 0-5.675782 1.4609374 9 10 60 0 0-5.236328 9.150391 9 10 60 0 1 5.236328-8.150391 9 10 60 0 1 13.160156 2.794922 9 10 60 0 1 1.076172 3.650391 9 10 60 0 0-1.076172-4.650391 9 10 60 0 0-7.484374-4.2558594z" style="fill:#ffffff;opacity:.2"/>
 <path d="m24 4c-4.970563 0-9 4.4771525-9 10 0.0038 0.141414 0.01032 0.282721 0.01953 0.423828 0.274684-5.2882709 4.213107-9.4211325 8.98047-9.423828 3.178869 5e-3 6.119577 1.8729163 7.736328 4.9140625 0.145541-0.027162 0.291412-0.051256 0.4375-0.072266-1.46286-3.5549426-4.655815-5.8369337-8.173828-5.8417965zm8.279297 6.107422c0.113499 0.298443 0.213878 0.602838 0.300781 0.912109-0.0869-0.309271-0.187282-0.613666-0.300781-0.912109zm0.314453 0.953125c0.07087 0.260783 0.132118 0.524676 0.183594 0.791015-0.05148-0.266339-0.112725-0.530232-0.183594-0.791015zm-0.314453 0.04687c0.113499 0.298443 0.213878 0.602838 0.300781 0.912109-0.0869-0.309271-0.187282-0.613666-0.300781-0.912109zm0.314453 0.953125c0.07087 0.260783 0.132118 0.524676 0.183594 0.791015-0.05148-0.266339-0.112725-0.530232-0.183594-0.791015zm0.234375 1.035156c0.03548 0.211783 0.06479 0.424785 0.08789 0.638672-0.0231-0.213887-0.05241-0.426889-0.08789-0.638672zm0.08203 2.232422c-0.0299 0.260071-0.06899 0.518734-0.117187 0.775391 0.0482-0.256657 0.08729-0.51532 0.117187-0.775391zm0 1c-0.0299 0.260071-0.06899 0.518734-0.117187 0.775391 0.0482-0.256657 0.08729-0.51532 0.117187-0.775391zm-1.523437 3.353516c-0.01553 0.02417-0.03115 0.04825-0.04687 0.07227h0.0059c0.01376-0.02402 0.02744-0.0481 0.04102-0.07227zm-0.04102 0.07227-0.0059 2e-3v-2e-3c-0.03259 0.0031-0.06514 0.0064-0.09766 0.0098-0.283427 0.01349-0.56495 0.0389-0.84375 0.07617-0.03586 0.0063-0.07167 0.01282-0.107422 0.01953-0.280153 0.04081-0.557118 0.09359-0.830078 0.158203-0.03392 0.0089-0.06778 0.01805-0.101563 0.02734-0.271601 0.0678-0.53879 0.147304-0.800781 0.238281-0.04182 0.01663-0.08349 0.03356-0.125 0.05078-0.246785 0.08952-0.488534 0.189217-0.72461 0.298828-0.06295 0.03119-0.125451 0.06309-0.1875 0.0957-0.214236 0.104519-0.423375 0.217233-0.626953 0.33789-0.06576 0.04213-0.130866 0.0851-0.195312 0.128906-0.190424 0.120651-0.375446 0.248341-0.554688 0.382813-0.0787 0.06248-0.156187 0.126292-0.232422 0.191406-0.155291 0.124442-0.305762 0.254069-0.451171 0.388672-0.0846 0.08357-0.167298 0.168877-0.248047 0.255859-0.128939 0.129478-0.253345 0.263003-0.373047 0.400391-0.07432 0.09157-0.1466 0.18469-0.216797 0.279297-0.11724 0.146594-0.229274 0.297058-0.335938 0.451172-0.100643 0.148474-0.196438 0.300257-0.287059 0.455056 0.222342 0.0032 0.444499 0.0156 0.666016 0.03711 0.137698-0.169554 0.282324-0.333725 0.433593-0.492187 0.06255-0.07071 0.126362-0.140381 0.191407-0.208984 0.107126-0.10371 0.217186-0.204653 0.330078-0.302735 0.11896-0.112125 0.241401-0.220889 0.367187-0.326172 0.06374-0.04708 0.128197-0.0933 0.19336-0.138672 0.182652-0.142028 0.37159-0.27689 0.566406-0.404297 0.02725-0.01577 0.05459-0.03139 0.08203-0.04687 0.235826-0.14708 0.479566-0.283288 0.730469-0.408204 0.0072-0.0033 0.01432-0.0065 0.02148-0.0098 0.895882-0.43846 1.873928-0.729962 2.896485-0.863281 0.331748-0.04749 0.667496-0.07813 1.005859-0.0918 1.95222-0.05552 3.930567 0.453699 5.675781 1.460937 3.062982 1.772545 5.054345 4.86989 5.236328 8.144531 0.213468-3.599394-1.835143-7.177012-5.236328-9.144531-1.745214-1.007238-3.723561-1.516462-5.675781-1.460937-0.04628 0.0029-0.0925 0.0062-0.138672 0.0098zm-7.345698 4.246094c0.100779 0.181171 0.194585 0.366177 0.28125 0.554688 8.12e-4 -0.0012 0.0011-0.0027 2e-3 -0.0039-0.087437-0.187219-0.181894-0.370921-0.28325-0.550788zc-16 16-8 8 0 0z" style="fill:#ffffff;opacity:.1"/>
</svg>
