<svg width="48" height="48" version="1.1" viewBox="0 0 48 48" xmlns="http://www.w3.org/2000/svg">
 <path d="m21.751615 6.5961987-17.233619 29.569334c-0.727783 1.263216-0.659585 2.393625 0.0225 3.080796 0.47749 0.487669 1.250473 0.753671 2.250851 0.753671h34.400238c1.000378 0 1.773361-0.288159 2.25085-0.753642 0.704815-0.709318 0.773023-1.817579 0.02274-3.081087l-17.234619-29.569335c-1.227773-2.1279149-3.228528-2.1279149-4.479001 0z" style="fill:#000000;opacity:.2"/>
 <path d="m21.751615 5.5961987-17.233619 29.569334c-0.727783 1.263216-0.659585 2.393625 0.0225 3.080796 0.47749 0.487669 1.250473 0.753671 2.250851 0.753671h34.400238c1.000378 0 1.773361-0.288159 2.25085-0.753642 0.704815-0.709318 0.773023-1.817579 0.02274-3.081087l-17.234619-29.569335c-1.227773-2.1279149-3.228528-2.1279149-4.479001 0z" style="fill:#008fd7"/>
 <path d="m41.191585 39c1.000378 0 1.773361-0.288159 2.25085-0.753642 0.704815-0.709318 0.773023-1.817579 0.02274-3.081087l-17.234619-29.569335c-0.630961-1.0935508-1.398047-1.625118-2.230556-1.5947015v34.998765h17.191585z" style="fill:#ffffff;opacity:.2"/>
 <path d="M 24,17 9,44.048828 10.183594,45 24,40 37.816406,45 39,44.048828 Z" style="fill-rule:evenodd;fill:#000000;opacity:.2"/>
 <path d="M 24,16 9,43.048828 10.183594,44 24,39 37.816406,44 39,43.048828 Z" style="fill-rule:evenodd;fill:#e4e4e4"/>
 <path d="m24 16v23l13.816406 5 1.183594-0.951172z" style="fill-rule:evenodd;fill:#000000;opacity:.1"/>
 <path d="m24 4c-0.809969 0-1.62281 0.5317457-2.248047 1.5957031l-17.234375 29.570313c-0.4701041 0.815961-0.6040317 1.573839-0.4589843 2.195312 0.0731668-0.377454 0.2183182-0.777587 0.4589843-1.195312l17.234375-29.570313c1.250473-2.1279149 3.250743-2.1279149 4.478516 0l17.234375 29.570313c0.247495 0.416792 0.396758 0.81324 0.472656 1.1875 0.150266-0.621368 0.012583-1.370338-0.472656-2.1875l-17.234375-29.570313c-0.613887-1.0639574-1.4205-1.5957031-2.230469-1.5957031z" style="fill:#ffffff;opacity:.2"/>
 <path d="M 24 16 L 9 43.048828 L 9.3828125 43.357422 L 24 17 L 38.617188 43.357422 L 39 43.048828 L 24 16 z " style="fill-rule:evenodd;fill:#ffffff;opacity:.2"/>
</svg>
