<svg width="48" height="48" version="1" xmlns="http://www.w3.org/2000/svg">
 <circle cx="24" cy="24" r="20" fill="#009587" style="fill:#3d62c2"/>
 <path d="m24 4a20 20 0 0 0-20 20 20 20 0 0 0 0.0215 0.582 20 20 0 0 1 19.978-19.582 20 20 0 0 1 19.979 19.418 20 20 0 0 0 0.021-0.418 20 20 0 0 0-20-20z" fill="#fff" opacity=".2" style="opacity:.1"/>
 <path d="m43.979 24.418a20 20 0 0 1-19.979 19.582 20 20 0 0 1-19.978-19.418 20 20 0 0 0-0.022 0.418 20 20 0 0 0 20 20 20 20 0 0 0 20-20 20 20 0 0 0-0.021-0.582z" opacity=".2"/>
 <path d="m24 12c-2.762 0-5 2.239-5 5s2.238 5 5 5 5-2.239 5-5-2.238-5-5-5zm0 13c-9.999 6e-3 -10 6.4-10 6.4v2.6s1.846142 4 10 4 10-4 10-4v-2.6s0-6.404-9.998-6.4z" style="opacity:.2"/>
 <path d="m24 11c-2.762 0-5 2.239-5 5s2.238 5 5 5 5-2.239 5-5-2.238-5-5-5zm0 13c-9.999 6e-3 -10 6.4-10 6.4v2.6s1.846142 4 10 4 10-4 10-4v-2.6s0-6.404-9.998-6.4z" style="fill:#ffffff"/>
</svg>
