<svg width="48" height="48" version="1" xmlns="http://www.w3.org/2000/svg">
 <path d="m23.951596 5.0003432a3.3046783 3.3336381 0 0 0-2.287873 0.9765541l-7.847826 7.9165987-7.8478257 7.916599a3.3046783 3.3336381 0 0 0-0.9680715 2.35675v17.49985a3.3046783 3.3336381 0 0 0 3.3043481 3.333305h31.391305a3.3046783 3.3336381 0 0 0 3.304347-3.333305v-17.49985a3.3046783 3.3336381 0 0 0-0.968071-2.35675l-15.695652-15.833198a3.3046783 3.3336381 0 0 0-2.384681-0.9765541z" style="block-progression:tb;color-rendering:auto;color:#000000;fill-rule:evenodd;fill:#000000;image-rendering:auto;isolation:auto;mix-blend-mode:normal;opacity:.2;shape-rendering:auto;solid-color:#000000;text-decoration-color:#000000;text-decoration-line:none;text-decoration-style:solid;text-indent:0;text-transform:none;white-space:normal"/>
 <path d="m23.951596 4.0003432a3.3046783 3.3336381 0 0 0-2.287873 0.9765541l-7.847826 7.9165987-7.8478257 7.916599a3.3046783 3.3336381 0 0 0-0.9680715 2.35675v17.49985a3.3046783 3.3336381 0 0 0 3.3043481 3.333305h31.391305a3.3046783 3.3336381 0 0 0 3.304347-3.333305v-17.49985a3.3046783 3.3336381 0 0 0-0.968071-2.35675l-15.695652-15.833198a3.3046783 3.3336381 0 0 0-2.384681-0.9765541z" style="block-progression:tb;color-rendering:auto;color:#000000;fill-rule:evenodd;fill:#4587f3;image-rendering:auto;isolation:auto;mix-blend-mode:normal;shape-rendering:auto;solid-color:#000000;text-decoration-color:#000000;text-decoration-line:none;text-decoration-style:solid;text-indent:0;text-transform:none;white-space:normal"/>
 <path d="m23.951172 4c-0.859241 0.013166-1.679606 0.3634502-2.28711 0.9765625l-7.847656 7.9160155-7.847656 7.917969c-0.619623 0.624607-0.9680644 1.471826-0.96875 2.355469v10.833984l25.162109-25.162109-3.826171-3.8613281c-0.631434-0.6372418-1.491683-0.989514-2.384766-0.9765625z" style="block-progression:tb;color-rendering:auto;color:#000000;fill-rule:evenodd;fill:#dd4d3e;image-rendering:auto;isolation:auto;mix-blend-mode:normal;shape-rendering:auto;solid-color:#000000;text-decoration-color:#000000;text-decoration-line:none;text-decoration-style:solid;text-indent:0;text-transform:none;white-space:normal"/>
 <rect x="14" y="35" width="20" height="9" style="fill-rule:evenodd;fill:#3caa59"/>
 <path d="m14 25-9 9v6.666016a3.3046783 3.3336381 0 0 0 3.3046875 3.333984h5.6953125v-19z" style="fill-rule:evenodd;fill:#f9bc14"/>
 <path d="m24 16 10 10v10h-20v-10z" style="block-progression:tb;color-rendering:auto;color:#000000;fill-rule:evenodd;fill:#000000;image-rendering:auto;isolation:auto;mix-blend-mode:normal;opacity:.2;shape-rendering:auto;solid-color:#000000;text-decoration-color:#000000;text-decoration-line:none;text-decoration-style:solid;text-indent:0;text-transform:none;white-space:normal"/>
 <path d="m24 15 10 10v10h-20v-10z" style="block-progression:tb;color-rendering:auto;color:#000000;fill-rule:evenodd;fill:#ffffff;image-rendering:auto;isolation:auto;mix-blend-mode:normal;shape-rendering:auto;solid-color:#000000;text-decoration-color:#000000;text-decoration-line:none;text-decoration-style:solid;text-indent:0;text-transform:none;white-space:normal"/>
 <path d="m23.951172 4a3.3046783 3.3336381 0 0 0-2.28711 0.9765625l-7.847656 7.9160155-7.847656 7.917969a3.3046783 3.3336381 0 0 0-0.96875 2.355469v1a3.3046783 3.3336381 0 0 1 0.96875-2.355469l7.847656-7.917969 7.847656-7.9160155a3.3046783 3.3336381 0 0 1 2.28711-0.9765625 3.3046783 3.3336381 0 0 1 2.384766 0.9765625l7.847656 7.9160155 7.847656 7.917969a3.3046783 3.3336381 0 0 1 0.96875 2.355469v-1a3.3046783 3.3336381 0 0 0-0.96875-2.355469l-7.847656-7.917969-7.847656-7.9160155a3.3046783 3.3336381 0 0 0-2.384766-0.9765625z" style="block-progression:tb;color-rendering:auto;color:#000000;fill-rule:evenodd;fill:#ffffff;image-rendering:auto;isolation:auto;mix-blend-mode:normal;opacity:.2;shape-rendering:auto;solid-color:#000000;text-decoration-color:#000000;text-decoration-line:none;text-decoration-style:solid;text-indent:0;text-transform:none;white-space:normal"/>
</svg>
