<svg width="48" height="48" version="1" xmlns="http://www.w3.org/2000/svg">
 <path d="m19 17c-1.662 0-3 1.338-3 3v11h-9c-1.662 0-3 1.338-3 3v8c0 1.662 1.338 3 3 3h23v-25c0-1.662-1.338-3-3-3z" style="fill:#000000;opacity:.2"/>
 <path d="m44 42v-34c0-1.662-1.338-3-3-3h-8c-1.662 0-3 1.338-3 3v37h11c1.662 0 3-1.338 3-3z" style="fill:#000000;opacity:.2"/>
 <path d="m19 16c-1.662 0-3 1.338-3 3v11h-9c-1.662 0-3 1.338-3 3v8c0 1.662 1.338 3 3 3h23v-25c0-1.662-1.338-3-3-3z" style="fill:#ffc311"/>
 <path transform="matrix(0,-1,-1,0,0,0)" d="m-41-44h34c1.662 0 3 1.338 3 3v8c0 1.662-1.338 3-3 3h-37v-11c0-1.662 1.338-3 3-3z" style="fill:#f57e04"/>
 <path d="m19 16c-1.662 0-3 1.338-3 3v1c0-1.662 1.338-3 3-3h8c1.662 0 3 1.338 3 3v-1c0-1.662-1.338-3-3-3h-8zm-12 14c-1.662 0-3 1.338-3 3v1c0-1.662 1.338-3 3-3h9v-1h-9z" style="fill:#ffffff;opacity:.2"/>
 <path d="m33 4c-1.662 0-3 1.338-3 3v1c0-1.662 1.338-3 3-3h8c1.662 0 3 1.338 3 3v-1c0-1.662-1.338-3-3-3h-8z" style="fill:#ffffff;opacity:.2"/>
</svg>
