<svg width="48" height="48" version="1" xmlns="http://www.w3.org/2000/svg">
 <path d="m24 3.9792c-7.0164 0-13.151 3.594-16.719 9.0312-0.12607 8.1469 5.0559 10.986 8.8125 15.25-0.691-1.275-1.094-2.723-1.094-4.281 0-4.986 4.0449-6.4456 9-7l17.875-2c-3.281-6.5394-10.033-11-17.875-11z" style="fill:#e6910e"/>
 <path d="m6.6997 34.037c3.5082 6.0764 9.6881 9.5924 16.181 9.9632 6.9232-3.8162 10.593-8.6676 8.8006-15.257-0.759 1.2363-1.8114 2.3088-3.1608 3.0878-2.1442 1.238-4.1295-0.0632-6.3395-0.64303-2.2405-0.58777-4.6997-0.47742-5.9547-2.6512l-8.9385-15.481c-4.0225 6.112-4.5096 14.189-0.5888 20.981z" style="fill:#fab700"/>
 <path d="m41.376 33.982c3.5082-6.0764 3.4632-13.186 0.53809-18.994l-17.613 7e-3c1.4502 0.0392 2.9052 0.41435 4.2546 1.1934 2.3076 1.3323 2.0907 3.9649 2.6011 6.371 0.44469 2.0962 1.8538 3.9128 0.6931 5.9232l-8.9375 15.48c7.304 0.428 14.543-3.189 18.464-9.981z" style="fill:#ffce41"/>
 <rect transform="matrix(0,-1,-1,0,0,0)" x="-33.98" y="-33" width="18" height="18" rx="9" ry="9" style="opacity:.2"/>
 <rect transform="matrix(0,-1,-1,0,0,0)" x="-33" y="-33" width="18" height="18" rx="9" ry="9" style="fill:#ffffff"/>
 <rect transform="matrix(0,-1,-1,0,0,0)" x="-31" y="-31" width="14" height="14" rx="7" ry="7" style="fill:#f5b80c"/>
 <path d="m24 3.9792c-11.08 0-20 8.92-20 20 0 0.168 0.0076 0.333 0.0117 0.5 0.2642-10.847 9.0763-19.5 19.988-19.5s19.724 8.653 19.988 19.5c0.0041-0.16686 0.01172-0.33213 0.01172-0.5 0-11.08-8.92-20-20-20z" style="fill:#ffffff;opacity:.2"/>
 <path d="m4.0117 24.5c-0.0041 0.167-0.0117 0.332-0.0117 0.5 0 11.08 8.92 20 20 20s20-8.92 20-20c0-0.168-8e-3 -0.333-0.012-0.5-0.264 10.846-9.076 19.5-19.988 19.5s-19.724-8.654-19.988-19.5z" style="opacity:.2"/>
</svg>
