<svg width="48" height="48" version="1" xmlns="http://www.w3.org/2000/svg">
 <path d="m36.927808 23.001674a1.3524455 1.3315734 0 0 0-1.098753 0.663985l-3.324429 5.669023-3.32355 5.668158a1.3524455 1.3315734 0 0 0 1.170947 1.99716h13.295956a1.3524455 1.3315734 0 0 0 1.170945-1.99716l-3.323548-5.668158-3.32443-5.669023a1.3524455 1.3315734 0 0 0-1.107557-0.663985 1.3524455 1.3315734 0 0 0-0.135581 0z" style="block-progression:tb;color-rendering:auto;color:#000000;fill-rule:evenodd;fill:#000000;image-rendering:auto;isolation:auto;mix-blend-mode:normal;opacity:.2;shape-rendering:auto;solid-color:#000000;text-decoration-color:#000000;text-decoration-line:none;text-decoration-style:solid;text-indent:0;text-transform:none;white-space:normal"/>
 <path d="m36.927808 22.001674a1.3524455 1.3315734 0 0 0-1.098753 0.663985l-3.324429 5.669023-3.32355 5.668158a1.3524455 1.3315734 0 0 0 1.170947 1.99716h13.295956a1.3524455 1.3315734 0 0 0 1.170945-1.99716l-3.323548-5.668158-3.32443-5.669023a1.3524455 1.3315734 0 0 0-1.107557-0.663985 1.3524455 1.3315734 0 0 0-0.135581 0z" style="block-progression:tb;color-rendering:auto;color:#000000;fill-rule:evenodd;fill:#c4c4c4;image-rendering:auto;isolation:auto;mix-blend-mode:normal;shape-rendering:auto;solid-color:#000000;text-decoration-color:#000000;text-decoration-line:none;text-decoration-style:solid;text-indent:0;text-transform:none;white-space:normal"/>
 <path d="m19.855613 9.0033477a2.7048909 2.6631468 0 0 0-2.197504 1.3279733l-6.648859 11.338046-6.6470973 11.336312a2.7048909 2.6631468 0 0 0 2.3418914 3.994321h26.591912a2.7048909 2.6631468 0 0 0 2.341892-3.994321l-6.647098-11.336312-6.648859-11.338046a2.7048909 2.6631468 0 0 0-2.215112-1.3279733 2.7048909 2.6631468 0 0 0-0.271166 0z" style="block-progression:tb;color-rendering:auto;color:#000000;fill-rule:evenodd;fill:#000000;image-rendering:auto;isolation:auto;mix-blend-mode:normal;opacity:.2;shape-rendering:auto;solid-color:#000000;text-decoration-color:#000000;text-decoration-line:none;text-decoration-style:solid;text-indent:0;text-transform:none;white-space:normal"/>
 <path d="m36.927734 22.001953a1.3524455 1.3315734 0 0 0-1.099609 0.664063l-3.324219 5.667968-3.322265 5.667969a1.3524455 1.3315734 0 0 0-0.082032 1.166016 1.3524455 1.3315734 0 0 1 0.082032-0.166016l3.322265-5.667969 3.324219-5.667968a1.3524455 1.3315734 0 0 1 1.099609-0.664063 1.3524455 1.3315734 0 0 1 0.134766 0 1.3524455 1.3315734 0 0 1 1.109375 0.664063l3.324219 5.667968 3.322265 5.667969a1.3524455 1.3315734 0 0 1 0.082032 0.167969 1.3524455 1.3315734 0 0 0-0.082032-1.167969l-3.322265-5.667969-3.324219-5.667968a1.3524455 1.3315734 0 0 0-1.109375-0.664063 1.3524455 1.3315734 0 0 0-0.134766 0z" style="block-progression:tb;color-rendering:auto;color:#000000;fill-rule:evenodd;fill:#ffffff;image-rendering:auto;isolation:auto;mix-blend-mode:normal;opacity:.1;shape-rendering:auto;solid-color:#000000;text-decoration-color:#000000;text-decoration-line:none;text-decoration-style:solid;text-indent:0;text-transform:none;white-space:normal"/>
 <path d="m19.855613 8.0033477a2.7048909 2.6631468 0 0 0-2.197504 1.3279729l-6.648859 11.338046-6.6470973 11.336312a2.7048909 2.6631468 0 0 0 2.3418914 3.994321h26.591912a2.7048909 2.6631468 0 0 0 2.341892-3.994321l-6.647098-11.336312-6.648859-11.338046a2.7048909 2.6631468 0 0 0-2.215112-1.3279729 2.7048909 2.6631468 0 0 0-0.271166 0z" style="block-progression:tb;color-rendering:auto;color:#000000;fill-rule:evenodd;fill:#e4e4e4;image-rendering:auto;isolation:auto;mix-blend-mode:normal;shape-rendering:auto;solid-color:#000000;text-decoration-color:#000000;text-decoration-line:none;text-decoration-style:solid;text-indent:0;text-transform:none;white-space:normal"/>
 <path d="m19.855469 8.0039062a2.7048909 2.6631468 0 0 0-2.197266 1.328125l-6.648437 11.337891-6.6484379 11.335937a2.7048909 2.6631468 0 0 0-0.3105469 1.832032 2.7048909 2.6631468 0 0 1 0.3105469-0.832032l6.6484379-11.335937 6.648437-11.337891a2.7048909 2.6631468 0 0 1 2.197266-1.3281248 2.7048909 2.6631468 0 0 1 0.271484 0 2.7048909 2.6631468 0 0 1 2.214844 1.3281248l6.648437 11.337891 6.648438 11.335937a2.7048909 2.6631468 0 0 1 0.310547 0.833985 2.7048909 2.6631468 0 0 0-0.310547-1.833985l-6.648438-11.335937-6.648437-11.337891a2.7048909 2.6631468 0 0 0-2.214844-1.328125 2.7048909 2.6631468 0 0 0-0.271484 0z" style="block-progression:tb;color-rendering:auto;color:#000000;fill-rule:evenodd;fill:#ffffff;image-rendering:auto;isolation:auto;mix-blend-mode:normal;opacity:.2;shape-rendering:auto;solid-color:#000000;text-decoration-color:#000000;text-decoration-line:none;text-decoration-style:solid;text-indent:0;text-transform:none;white-space:normal"/>
 <path d="m31 9a6 6 0 0 0-5.648438 4h-1.351562a4 4 0 0 0-4 4 4 4 0 0 0 4 4h7a6 6 0 0 0 6-6 6 6 0 0 0-6-6z" style="fill-rule:evenodd;fill:#000000;opacity:.2"/>
 <path d="m31 8a6 6 0 0 0-5.648438 4h-1.351562a4 4 0 0 0-4 4 4 4 0 0 0 4 4h7a6 6 0 0 0 6-6 6 6 0 0 0-6-6z" style="fill-rule:evenodd;fill:#039be5"/>
</svg>
