<svg width="48" height="48" version="1" xmlns="http://www.w3.org/2000/svg">
 <rect transform="matrix(0,-1,-1,0,0,0)" x="-43" y="-42" width="36" height="36" rx="1.8" ry="1.8" style="fill:#000000;opacity:.2"/>
 <rect transform="matrix(0,-1,-1,0,0,0)" x="-42" y="-42" width="36" height="36" rx="1.8" ry="1.8" style="fill:#586cd7"/>
 <path d="M 7.8007812 6 C 6.8035813 6 6 6.8035813 6 7.8007812 L 6 8.8007812 C 6 7.8035813 6.8035813 7 7.8007812 7 L 40.199219 7 C 41.196419 7 42 7.8035813 42 8.8007812 L 42 7.8007812 C 42 6.8035813 41.196419 6 40.199219 6 L 7.8007812 6 z " style="fill:#ffffff;opacity:.1"/>
 <path d="m6 16c-1.108 0-2 0.892-2 2v14c0 1.108 0.892 2 2 2h8.96875c4.031056 0 5.03125-5 9.03125-5s5.000194 5 9.03125 5h8.96875c1.108 0 2-0.892 2-2v-14c0-1.108-0.892-2-2-2h-36z" style="fill-rule:evenodd;fill:#000000;opacity:.2"/>
 <path d="m6 15c-1.108 0-2 0.892-2 2v14c0 1.108 0.892 2 2 2h8.96875c4.031056 0 5.03125-5 9.03125-5s5.000194 5 9.03125 5h8.96875c1.108 0 2-0.892 2-2v-14c0-1.108-0.892-2-2-2h-36z" style="fill-rule:evenodd;fill:#e4e4e4"/>
 <path d="m4 18v12h9a6 6 0 0 0 6-6 6 6 0 0 0-6-6h-9z" style="fill-rule:evenodd;fill:#16aef6"/>
 <path d="m44 18v12h-9a6 6 0 0 1-6-6 6 6 0 0 1 6-6h9z" style="fill-rule:evenodd;fill:#da4b38"/>
 <path d="m6 15c-1.108 0-2 0.892-2 2v1c0-1.108 0.892-2 2-2h36c1.108 0 2 0.892 2 2v-1c0-1.108-0.892-2-2-2h-36z" style="fill-rule:evenodd;fill:#ffffff;opacity:.2"/>
</svg>
