<svg width="48" height="48" version="1" xmlns="http://www.w3.org/2000/svg">
 <rect transform="scale(-1,1)" x="-42" y="5" width="36" height="40" rx="2" ry="2" style="opacity:.2"/>
 <rect transform="scale(-1,1)" x="-42" y="4" width="36" height="40" rx="2" ry="2" style="fill:#e4e4e4"/>
 <rect transform="scale(-1,1)" x="-38" y="8" width="28" height="28" rx="0" ry="0" style="fill:#4fc3f7"/>
 <path d="m8 4c-1.108 0-2 0.892-2 2v1c0-1.108 0.892-2 2-2h32c1.108 0 2 0.892 2 2v-1c0-1.108-0.892-2-2-2h-32z" style="fill:#ffffff;opacity:.2"/>
 <circle cx="24" cy="21" r="10" style="fill-rule:evenodd;fill:#319df4"/>
 <circle cx="27" cy="18.000008" r="10" style="fill-rule:evenodd;fill:#0b82e3"/>
 <path d="m23.892578 8c-1.779851 1.8032129-2.892578 4.265809-2.892578 7 0 5.522847 4.477153 10 10 10 2.727109 0 5.195965-1.095087 7-2.865234v-14.134766h-14.107422z" style="fill-rule:evenodd;fill:#094fb4"/>
 <path d="m31 11.000008a5 5 0 0 0-5 5 5 5 0 0 0 5 5 5 5 0 0 0 5-5 5 5 0 0 0-5-5zm0 2a3 3 0 0 1 3 3 3 3 0 0 1-3 3 3 3 0 0 1-3-3 3 3 0 0 1 3-3z" style="fill-rule:evenodd;fill:#000000;opacity:.2"/>
 <path d="m31 10.000008a5 5 0 0 0-5 5 5 5 0 0 0 5 5 5 5 0 0 0 5-5 5 5 0 0 0-5-5zm0 2a3 3 0 0 1 3 3 3 3 0 0 1-3 3 3 3 0 0 1-3-3 3 3 0 0 1 3-3z" style="fill-rule:evenodd;fill:#ffffff"/>
</svg>
