<svg width="48" height="48" version="1.1" viewBox="0 0 48 48" xmlns="http://www.w3.org/2000/svg">
 <circle cx="24" cy="25" r="20" style="fill-rule:evenodd;fill:#000000;opacity:.2"/>
 <circle cx="24" cy="24" r="20" style="fill-rule:evenodd;fill:#3f61ba"/>
 <path d="m17.142578 14c-2.65774 0-4.843109 2.156056-5.113281 4.921875h-0.0293c4.62e-4 0.09041 0.0092 0.22767 0.01172 0.332031-0.003405 0.082156-0.011717 0.16304-0.011717 0.246094 0 0.383858 0.03549 0.759414 0.105469 1.121094 0.287325 2.827829 1.401276 7.592682 5.541015 11.732422 4.13974 4.139739 8.904593 5.253689 11.732422 5.541015 0.36168 0.069979 0.737236 0.105469 1.121094 0.105469 0.08305 0 0.163938-0.0083 0.246094-0.01172 0.104361 0.0025 0.241619 0.01126 0.332031 0.01172v-0.0293c2.765819-0.270169 4.921875-2.455538 4.921875-5.113278 0-2.840321-2.462433-3.857422-5.5-3.857422-2.59807 0-4.77003 0.747754-5.345703 2.740234-1.311854-0.628415-2.698661-1.538504-4.027344-2.867187s-2.238772-2.71549-2.867187-4.027344c1.99248-0.575673 2.740234-2.747633 2.740234-5.345703 0-3.037567-1.017101-5.5-3.857422-5.5z" style="block-progression:tb;color-rendering:auto;color:#000000;fill-rule:evenodd;fill:#000000;image-rendering:auto;isolation:auto;mix-blend-mode:normal;opacity:.2;shape-rendering:auto;solid-color:#000000;text-decoration-color:#000000;text-decoration-line:none;text-decoration-style:solid;text-indent:0;text-transform:none;white-space:normal"/>
 <path d="m17.142578 13c-2.65774 0-4.843109 2.156056-5.113281 4.921875h-0.029297c4.62e-4 0.090412 0.009204 0.22767 0.011719 0.332031-0.003407 0.082156-0.011719 0.16304-0.011719 0.246094 0 0.383858 0.03549 0.759414 0.105469 1.121094 0.287325 2.827829 1.401276 7.592682 5.541015 11.732422 4.13974 4.139739 8.904593 5.253689 11.732422 5.541015 0.36168 0.069979 0.737236 0.105469 1.121094 0.105469 0.083054 0 0.163938-0.008312 0.246094-0.011719 0.104361 0.002515 0.241619 0.011257 0.332031 0.011719v-0.029297c2.765819-0.270172 4.921875-2.455541 4.921875-5.113281 0-2.840321-2.462433-3.857422-5.5-3.857422-2.59807 0-4.77003 0.747754-5.345703 2.740234-1.311854-0.628415-2.698661-1.538504-4.027344-2.867187s-2.238772-2.71549-2.867187-4.027344c1.99248-0.575673 2.740234-2.747633 2.740234-5.345703 0-3.037567-1.017101-5.5-3.857422-5.5z" style="block-progression:tb;color-rendering:auto;color:#000000;fill-rule:evenodd;fill:#ffffff;image-rendering:auto;isolation:auto;mix-blend-mode:normal;shape-rendering:auto;solid-color:#000000;text-decoration-color:#000000;text-decoration-line:none;text-decoration-style:solid;text-indent:0;text-transform:none;white-space:normal"/>
 <path d="M 24 4 A 20 20 0 0 0 4 24 A 20 20 0 0 0 4.0214844 24.582031 A 20 20 0 0 1 24 5 A 20 20 0 0 1 43.978516 24.417969 A 20 20 0 0 0 44 24 A 20 20 0 0 0 24 4 z " style="fill-rule:evenodd;fill:#ffffff;opacity:.1"/>
</svg>
