<svg width="48" height="48" version="1" xmlns="http://www.w3.org/2000/svg">
 <path d="m9.0292969 23-7.828125 18.871094a1.4988504 2.0859308 0 0 0 1.296875 3.128906h43.003906a1.4988504 2.0859308 0 0 0 1.296875-3.128906l-7.828125-18.871094z" style="color-rendering:auto;color:#000000;dominant-baseline:auto;fill:#000000;font-feature-settings:normal;font-variant-alternates:normal;font-variant-caps:normal;font-variant-ligatures:normal;font-variant-numeric:normal;font-variant-position:normal;image-rendering:auto;isolation:auto;mix-blend-mode:normal;opacity:.2;shape-padding:0;shape-rendering:auto;solid-color:#000000;text-decoration-color:#000000;text-decoration-line:none;text-decoration-style:solid;text-indent:0;text-orientation:mixed;text-transform:none;white-space:normal"/>
 <path d="m41.040816 40.77551 2.959184-6.448979v-28.326531c0-1.108-0.892-2-2-2h-36c-1.108 0-2 0.892-2 2v28.428571l2.244898 6.551021c0.3591843 1.048165 2.8307824 1.697809 3.938775 1.693877l28.755103-0.10204c1.107993-0.0039 1.639948-0.788876 2.10204-1.795919z" style="fill:#3f3f3f"/>
 <path d="m9.0292969 22-7.828125 18.871094a1.4988504 2.0859308 0 0 0 1.296875 3.128906h43.003906a1.4988504 2.0859308 0 0 0 1.296875-3.128906l-7.828125-18.871094h-29.941406z" style="color-rendering:auto;color:#000000;dominant-baseline:auto;fill:#f4a600;font-feature-settings:normal;font-variant-alternates:normal;font-variant-caps:normal;font-variant-ligatures:normal;font-variant-numeric:normal;font-variant-position:normal;image-rendering:auto;isolation:auto;mix-blend-mode:normal;shape-padding:0;shape-rendering:auto;solid-color:#000000;text-decoration-color:#000000;text-decoration-line:none;text-decoration-style:solid;text-indent:0;text-orientation:mixed;text-transform:none;white-space:normal"/>
 <path d="m20 22h8l9 22h-26z" style="fill:#ffd52d"/>
 <path d="m20 22-9 22h0.408203l8.591797-21h8l8.591797 21h0.408203l-9-22z" style="fill:#ffffff;opacity:.2"/>
 <circle cx="24" cy="23" r="4" style="fill:#000000;opacity:.2"/>
 <circle cx="24" cy="22" r="4" style="fill:#ffffff"/>
 <path d="m6 4c-1.108 0-2 0.892-2 2v1c0-1.108 0.892-2 2-2h36c1.108 0 2 0.892 2 2v-1c0-1.108-0.892-2-2-2z" style="fill:#ffffff;opacity:.1"/>
 <path d="m24 4s-3.304051 8.203262-6 11.400391c-2.602104 3.085841-9 6.599609-9 6.599609h30s-6.397896-3.513768-9-6.599609c-2.695949-3.197129-6-11.400391-6-11.400391z" style="fill:#e94a41"/>
 <path d="M 24,4 C 24,4 20.695949,12.203262 18,15.400391 15.397896,18.486232 9,22 9,22 h 1.6875 C 12.755799,20.75141 16.217836,18.513863 18,16.400391 20.695949,13.203262 24,5 24,5 24,5 27.304051,13.203262 30,16.400391 31.782164,18.513863 35.244201,20.75141 37.3125,22 H 39 C 39,22 32.602104,18.486232 30,15.400391 27.304051,12.203262 24,4 24,4 Z" style="fill:#ffffff;opacity:.2"/>
</svg>
