<svg width="48" height="48" version="1" xmlns="http://www.w3.org/2000/svg">
 <path d="m14.48903 35.625445c-11.66061-6.975212-10.94621-6.519304-11.24134-7.173912-0.21556-0.478103-0.24789-1.341316-0.24769-6.612103 1.6e-4 -5.45064 0.0271-6.118762 0.26631-6.6228 0.23128-0.487275 0.87308-0.92496 4.9074303-3.346686 3.3594497-2.0165942 4.8094797-2.8040438 5.2500597-2.8510834 0.55737-0.05951 0.99372-0.1318054 5.17397 2.3970534 4.39438 2.658396 4.5966 2.593467 5.40223 2.593467 0.80564 0 1.00786 0.06493 5.40224-2.593467 4.18025-2.5288588 4.6166-2.4565621 5.17397-2.3970534 0.44058 0.047038 1.89061 0.8344892 5.25006 2.8510834 4.03435 2.421726 4.67615 2.859411 4.90743 3.346686 0.23922 0.504038 0.26609 1.17216 0.2663 6.6228 1.6e-4 5.281989-0.0318 6.133304-0.2488 6.614597-0.29296 0.649776 0.24824 0.305371-11.63563 7.404592-6.70332 4.004448-8.72766 5.144347-9.13054 5.141375-0.39625-0.0029-2.6232-1.263336-9.496-5.374549z" style="fill:#000000;opacity:.2"/>
 <path d="m14.48903 34.625445c-11.66061-6.975212-10.94621-6.519304-11.24134-7.173912-0.21556-0.478103-0.24789-1.341316-0.24769-6.612103 1.6e-4 -5.45064 0.0271-6.118762 0.26631-6.6228 0.23128-0.487275 0.87308-0.92496 4.9074303-3.346686 3.3594497-2.0165944 4.8094797-2.804044 5.2500597-2.8510836 0.55737-0.05951 0.99372-0.1318054 5.17397 2.3970536 4.39438 2.658396 4.5966 2.593467 5.40223 2.593467 0.80564 0 1.00786 0.06493 5.40224-2.593467 4.18025-2.528859 4.6166-2.4565623 5.17397-2.3970536 0.44058 0.047038 1.89061 0.8344892 5.25006 2.8510836 4.03435 2.421726 4.67615 2.859411 4.90743 3.346686 0.23922 0.504038 0.26609 1.17216 0.2663 6.6228 1.6e-4 5.281989-0.0318 6.133304-0.2488 6.614597-0.29296 0.649776 0.24824 0.305371-11.63563 7.404592-6.70332 4.004448-8.72766 5.144347-9.13054 5.141375-0.39625-0.0029-2.6232-1.263336-9.496-5.374549z" style="fill:#c2352a"/>
 <path d="m33.430838 11.00009c-0.389011-8e-3 -0.455924 0.517278-0.423771 0.896476 0.0028 3.548945-5e-3 7.098371 0.0036 10.647155 0.03421 0.42432 0.468299 0.593855 0.715101 0.330712 2.637706-1.816953 6.474427-3.621424 9.108196-5.446218 0.287387-0.251167 0.177319-0.836076-0.143454-0.957676-2.637778-1.809752-6.464693-3.629425-9.104616-5.433017-0.04931-0.02463-0.102303-0.03735-0.155328-0.03744z" style="fill:#000000;opacity:.2;stroke-width:1.0337868"/>
 <path d="m33.430838 10.00009c-0.389011-8e-3 -0.455924 0.517278-0.423771 0.896476 0.0028 3.548945-5e-3 7.098371 0.0036 10.647155 0.03421 0.42432 0.468299 0.593855 0.715101 0.330712 2.637706-1.816953 6.474427-3.621424 9.108196-5.446218 0.287387-0.251167 0.177319-0.836076-0.143454-0.957676-2.637778-1.809752-6.464693-3.629425-9.104616-5.433017-0.04931-0.02463-0.102303-0.03735-0.155328-0.03744z" style="fill:#ffffff;stroke-width:1.0337868"/>
 <path d="m13.878906 8.0117188c-0.184604-0.0243672-0.315735-0.0070651-0.455078 0.0078124-0.44058 0.0470396-1.89055 0.833015-5.2499999 2.8496098-4.0343503 2.421726-4.6769231 2.860381-4.9082031 3.347656-0.23921 0.504038-0.265465 1.172407-0.265625 6.623047-9.7e-6 0.256175 0.003745 0.26028 0.0039062 0.496094 0.0030567-4.751512 0.0341753-5.639686 0.2617188-6.119141 0.23128-0.487275 0.8738528-0.92593 4.9082031-3.347656 3.3594499-2.0165946 4.8094199-2.8025702 5.2499999-2.8496098 0.55737-0.0595099 0.993578-0.1323744 5.173828 2.3964848 4.39438 2.658396 4.596714 2.59375 5.402344 2.59375 0.80564 0 1.007964 0.064647 5.402344-2.59375 4.18025-2.5288592 4.616458-2.4559934 5.173828-2.3964848 0.44058 0.0470381 1.89055 0.8330152 5.25 2.8496098 4.03435 2.421726 4.676923 2.860381 4.908203 3.347656 0.227598 0.479551 0.258637 1.366999 0.261719 6.121094 1.62e-4 -0.236939 0.003914-0.240514 0.003906-0.498047-2.1e-4 -5.45064-0.026405-6.119009-0.265625-6.623047-0.23128-0.487275-0.873853-0.92593-4.908203-3.347656-3.35945-2.0165948-4.80942-2.8025717-5.25-2.8496098-0.55737-0.0595087-0.993578-0.1323746-5.173828 2.3964848-4.39438 2.658397-4.596704 2.59375-5.402344 2.59375-0.80563 0-1.007964 0.064646-5.402344-2.59375-3.135187-1.8966446-4.164937-2.3311958-4.71875-2.4042972z" style="fill:#ffffff;opacity:.2"/>
</svg>
