<svg width="48" height="48" version="1" xmlns="http://www.w3.org/2000/svg">
 <path d="m5 3c-1.108 0-2 0.892-2 2v1c0-1.108 0.892-2 2-2h36c1.108 0 2 0.892 2 2v-1c0-1.108-0.892-2-2-2h-36z" fill="#fff" opacity=".1"/>
 <path d="m23 3v20h20v-18c0-1.108-0.892-2-2-2h-18z" fill="#595959" style="fill:#474b4e"/>
 <path d="m5 43c-1.108 0-2-0.892-2-2v-18h20v20h-18z" fill="#8c8c8c" style="fill:#676a6f"/>
 <path d="m3 23v-18c0-1.108 0.892-2 2-2h18v20h-20z" fill="#a6a6a6" style="fill:#898f94"/>
 <path d="m41 43c1.108 0 2-0.892 2-2v-18h-20v20h18z" fill="#666"/>
 <path d="m3 41v1c0 1.108 0.892 2 2 2h36c1.108 0 2-0.892 2-2v-1c0 1.108-0.892 2-2 2h-36c-1.108 0-2-0.892-2-2z" opacity=".2"/>
 <circle cx="33" cy="33" r="12" fill="#009587" style="fill:#4788f4"/>
 <path d="m10 28.586-1.4141 1.4141 3.00003 3.00003-3.00003 3.00003 1.4141 1.4141 3.00003-3.00003 3.00003 3.00003 1.4141-1.4141-3.00003-3.00003 3.00003-3.00003-1.4141-1.4141-3.00003 3.00003-3.00003-3.00003z" fill="#ebebeb" fill-rule="evenodd" style="fill:#ffffff"/>
 <path d="m29 30v2h8v-2zm0 4v2h8v-2z" fill="#fff" style="enable-background:new"/>
 <path d="m29 12v2h8v-2z" fill="#ebebeb" style="enable-background:new;fill:#ffffff"/>
 <path d="m14 9v3h3v2h-3v3h-2v-3h-3v-2h3v-3z" fill="#ebebeb" style="enable-background:new;fill:#ffffff"/>
 <path d="m44.98 33.406a12 12 0 0 1-11.98 11.594 12 12 0 0 1-11.98-11.406 12 12 0 0 0-0.02 0.406 12 12 0 0 0 12 12 12 12 0 0 0 12-12 12 12 0 0 0-0.02-0.594z" opacity=".2"/>
 <path d="m3 6v-1c0-1.108 0.892-2 2-2h36c1.108 0 2 0.892 2 2v1c0-1.108-0.892-2-2-2h-36c-1.108 0-2 0.892-2 2z" fill="#fff" opacity=".1"/>
</svg>
