<svg width="48" height="48" version="1.1" viewBox="0 0 48 48" xmlns="http://www.w3.org/2000/svg">
 <circle cx="24" cy="25" r="20" style="opacity:.2"/>
 <circle cx="24" cy="24" r="20" style="fill:#d2d2d2"/>
 <path d="m15.014084 34.985971s3.999751 0.464471 3.999751-1.999871c0-2.464346-3.999751-1.999876-3.999751-1.999876m9.8e-5 7.999597v-7.999498" style="fill:none;opacity:.1;stroke-linecap:round;stroke-linejoin:bevel;stroke-width:1.999874;stroke:#000000"/>
 <path d="M 24,4 A 20,20 0 0 0 4,24 20,20 0 0 0 4.0215,24.582 20,20 0 0 1 24,5 20,20 0 0 1 43.979,24.418 20,20 0 0 0 44,24 20,20 0 0 0 24,4 Z" style="fill:#ffffff;opacity:.2"/>
 <g transform="translate(8,2.9997)" style="fill:#000000;opacity:.1">
  <path d="m9.0841 12.539" style="fill:#000000"/>
  <path d="m17.461 10.779" style="fill:#000000"/>
  <path transform="translate(-8,-8.9997)" d="m20.865234 14.902344-0.865234 0.5 1.197266 2.074218c-2.188 1.0571-2.197266 3.523438-2.197266 3.523438h10s-0.0093-2.466338-2.197266-3.523438l1.197266-2.074218-0.865234-0.5-1.294922 2.242187c-0.315515-0.070555-1.200132-0.11141-1.839844-0.128906-0.639712 0.0175-1.524329 0.05835-1.839844 0.128906l-1.294922-2.242187zm0.636719 4.097656c0.277 0 0.498047 0.223047 0.498047 0.498047s-0.224047 0.501953-0.498047 0.501953c-0.277 0-0.501953-0.223953-0.501953-0.501953 0-0.275 0.224953-0.498047 0.501953-0.498047zm4.996094 0c0.277 0 0.501953 0.223047 0.501953 0.498047 0 0.278-0.224953 0.501953-0.501953 0.501953-0.274 0-0.498047-0.226953-0.498047-0.501953s0.221047-0.498047 0.498047-0.498047zm-9.453125 2.998047v2e-3c-0.5753-9.4e-5 -1.044922 0.530547-1.044922 1.183547v4.628906c0 0.653 0.469622 1.1875 1.044922 1.1875s0.955078-0.5345 0.955078-1.1875v-4.628906c0-0.654-0.379078-1.185547-0.955078-1.185547zm13.910156 0c-0.576 0-0.955078 0.531547-0.955078 1.185547v4.628906c0 0.653 0.379778 1.1875 0.955078 1.1875s1.044922-0.5345 1.044922-1.1875v-4.628906c0-0.653-0.469622-1.183688-1.044922-1.183594v-2e-3zm-11.955078 0.001953v8.5c-7e-6 0.23573 0.26427 0.5 0.5 0.5h1.5v1.875c0 0.622 0.396 1.125 1 1.125 0.60019 0 1.0199-0.50369 1-1.125v-1.875h2v1.875c-0.0199 0.62131 0.39981 1.125 1 1.125 0.604 0 1-0.503 1-1.125v-1.875h1.5c0.23573 0 0.500007-0.26427 0.5-0.5v-8.5h-10z" style="fill:#000000"/>
 </g>
 <g transform="translate(8,1.9997008)" style="fill:#4d992c">
  <path d="m9.0841 12.539" style="fill:#4d992c"/>
  <path d="m17.461 10.779" style="fill:#4d992c"/>
  <path transform="translate(-8,-8.9997)" d="m20.865234 14.902344-0.865234 0.5 1.197266 2.074218c-2.188 1.0571-2.197266 3.523438-2.197266 3.523438h10s-0.0093-2.466338-2.197266-3.523438l1.197266-2.074218-0.865234-0.5-1.294922 2.242187c-0.315515-0.070555-1.200132-0.11141-1.839844-0.128906-0.639712 0.0175-1.524329 0.05835-1.839844 0.128906l-1.294922-2.242187zm0.636719 4.097656c0.277 0 0.498047 0.223047 0.498047 0.498047s-0.224047 0.501953-0.498047 0.501953c-0.277 0-0.501953-0.223953-0.501953-0.501953 0-0.275 0.224953-0.498047 0.501953-0.498047zm4.996094 0c0.277 0 0.501953 0.223047 0.501953 0.498047 0 0.278-0.224953 0.501953-0.501953 0.501953-0.274 0-0.498047-0.226953-0.498047-0.501953s0.221047-0.498047 0.498047-0.498047zm-9.453125 2.998047v2e-3c-0.5753-9.4e-5 -1.044922 0.530547-1.044922 1.183547v4.628906c0 0.653 0.469622 1.1875 1.044922 1.1875s0.955078-0.5345 0.955078-1.1875v-4.628906c0-0.654-0.379078-1.185547-0.955078-1.185547zm13.910156 0c-0.576 0-0.955078 0.531547-0.955078 1.185547v4.628906c0 0.653 0.379778 1.1875 0.955078 1.1875s1.044922-0.5345 1.044922-1.1875v-4.628906c0-0.653-0.469622-1.183688-1.044922-1.183594v-2e-3zm-11.955078 0.001953v8.5c-7e-6 0.23573 0.26427 0.5 0.5 0.5h1.5v1.875c0 0.622 0.396 1.125 1 1.125 0.60019 0 1.0199-0.50369 1-1.125v-1.875h2v1.875c-0.0199 0.62131 0.39981 1.125 1 1.125 0.604 0 1-0.503 1-1.125v-1.875h1.5c0.23573 0 0.500007-0.26427 0.5-0.5v-8.5h-10z" style="fill:#4d992c"/>
 </g>
 <path d="m15.014084 33.985971s3.999751 0.464471 3.999751-1.999871c0-2.464346-3.999751-1.999876-3.999751-1.999876m9.8e-5 7.999597v-7.999498" style="fill:none;stroke-linecap:round;stroke-linejoin:bevel;stroke-width:1.999874;stroke:#4f4f4f"/>
 <path d="m22.014179 35.98601h3.999748m-3.999648 2.999811v-5.999623m3.999648 5.999623v-5.999623m-3.999748 0s0-1.999875 1.999874-1.999875 1.999874 1.999875 1.999874 1.999875" style="fill:none;opacity:.1;stroke-linecap:round;stroke-linejoin:bevel;stroke-width:1.999874;stroke:#000000"/>
 <path d="m22.014179 34.98601h3.999748m-3.999648 2.999811v-5.999623m3.999648 5.999623v-5.999623m-3.999748 0s0-1.999875 1.999874-1.999875 1.999874 1.999875 1.999874 1.999875" style="fill:none;stroke-linecap:round;stroke-linejoin:bevel;stroke-width:1.999874;stroke:#4f4f4f"/>
 <path d="m31.008333 38.985821v-3.999751m2.999811-3.999747-2.999811 3.999747m-2.999811-3.999747 2.999811 3.999747" style="fill:none;opacity:.1;stroke-linecap:round;stroke-width:1.999874;stroke:#000000"/>
 <path d="m31.008333 37.985821v-3.999751m2.999811-3.999747-2.999811 3.999747m-2.999811-3.999747 2.999811 3.999747" style="fill:none;stroke-linecap:round;stroke-width:1.999874;stroke:#4f4f4f"/>
</svg>
