<svg width="48" height="48" version="1" xmlns="http://www.w3.org/2000/svg">
 <path d="m4 39c0 1.108 0.892 2 2 2h36c1.108 0 2-0.892 2-2v-28c0-1.108-0.892-2-2-2h-26l-1 11-11 1z" style="fill:#000000;opacity:.2"/>
 <path d="m4 38c0 1.108 0.892 2 2 2h36c1.108 0 2-0.892 2-2v-28c0-1.108-0.892-2-2-2h-26l-1 11-11 1z" style="fill:#6579ec"/>
 <path d="m4 21h10c1.1046 0 2-0.89543 2-2v-10l-12 12z" style="fill:#000000;opacity:.2"/>
 <path d="m4 20h10c1.1046 0 2-0.89543 2-2v-10l-12 12z" style="fill:#93a1f1"/>
 <rect x="8" y="22" width="12" height="12" rx="1" ry="1" style="fill-rule:evenodd;fill:#000000;opacity:.4"/>
 <rect x="22" y="14" width="18" height="4" rx="1" ry="1" style="fill-rule:evenodd;fill:#000000;opacity:.4"/>
 <rect x="22" y="20" width="18" height="2" rx="1" ry="1" style="fill-rule:evenodd;fill:#000000;opacity:.4"/>
 <rect x="22" y="23.999994" width="18" height="2" rx="1" ry="1" style="fill-rule:evenodd;fill:#000000;opacity:.4"/>
 <rect x="22" y="28.000006" width="18" height="2" rx="1" ry="1" style="fill-rule:evenodd;fill:#000000;opacity:.4"/>
 <rect x="22" y="32" width="18" height="2" rx="1" ry="1" style="fill-rule:evenodd;fill:#000000;opacity:.4"/>
 <path d="m16 8v1h26c1.108 0 2 0.892 2 2v-1c0-1.108-0.892-2-2-2z" style="fill:#ffffff;opacity:.2"/>
</svg>
