<svg width="48" height="48" version="1" xmlns="http://www.w3.org/2000/svg">
 <path d="m17 4-2 2v4h-12v30c0 1.108 0.892 2 2 2h36c1.108 0 2-0.892 2-2v-30h-12v-4l-2-2zm0 2h12v4h-12z" fill="#e4e4e4"/>
 <path d="m17 6v1h12v-1h-12zm-14 34v1c0 1.108 0.892 2 2 2h36c1.108 0 2-0.892 2-2v-1c0 1.108-0.892 2-2 2h-36c-1.108 0-2-0.892-2-2z" opacity=".2"/>
 <path d="m17 4-2 2v1l2-2h12l2 2v-1l-2-2h-12zm-14 6v1h12v-1h-12zm14 0v1h12v-1h-12zm14 0v1h12v-1h-12z" fill="#fff" opacity=".2"/>
 <path d="m22.998047 21.978516c-7.0164 0-13.15075 3.59405-16.71875 9.03125-0.0818208 5.287422 2.0778571 8.33372 4.6269531 10.990234h3.09375c-1.8e-5 -0.007294-0.001953-0.014185-0.001953-0.021484 0-4.986 4.0449-6.4456 9-7l17.875-2c-3.281-6.5394-10.033-11-17.875-11z" style="fill:#dd4d3e"/>
 <path d="m6.2871094 31.054688c-1.8647506 2.833401-2.9585307 6.091114-3.2167969 9.445312 0.2219513 0.862993 0.9955223 1.5 1.9296875 1.5h7.605469l-6.3183596-10.945312z" style="fill:#109f5b"/>
 <path d="m40.912109 32.988281-17.611328 0.00586c1.4502 0.0392 2.904506 0.414309 4.253907 1.193359 2.3076 1.3323 2.091162 3.964994 2.601562 6.371094 0.104814 0.494075 0.263996 0.972199 0.429688 1.441406h10.414062c1.024343 0 1.853646-0.765233 1.974609-1.755859-0.224226-2.524408-0.920912-4.989163-2.0625-7.25586z" style="fill:#ffce41"/>
 <path d="m22.998047 32.980469c-4.986 0-9 4.014-9 9 0 0.006618 0.001939 0.012916 0.001953 0.019531h17.998047c1.4e-5 -0.006583 0-0.012945 0-0.019531 0-4.986-4.014-9-9-9z" style="fill:#ffffff"/>
 <path d="m22.998047 34.480469c-4.155 0-7.5 3.345-7.5 7.5 0 0.006624 0.001936 0.012911 0.001953 0.019531h14.998047c1.7e-5 -0.006588 0-0.012939 0-0.019531 0-4.155-3.345-7.5-7.5-7.5z" style="fill:#4587f3"/>
</svg>
