<svg width="48" height="48" version="1" xmlns="http://www.w3.org/2000/svg">
 <rect transform="matrix(0,-1,-1,0,0,0)" x="-44" y="-44" width="40" height="40" rx="2" ry="2" style="fill:#039be5"/>
 <path d="m6 4c-1.108 0-2 0.892-2 2v1c0-1.108 0.892-2 2-2h36c1.108 0 2 0.892 2 2v-1c0-1.108-0.892-2-2-2h-36z" style="fill:#ffffff;opacity:.2"/>
 <path d="m6 45c-1.108 0-2-0.892-2-2v-1c0 1.108 0.892 2 2 2h36c1.108 0 2-0.892 2-2v1c0 1.108-0.892 2-2 2h-36z" style="opacity:.2"/>
 <rect x="15" y="20.000002" width="4" height="12" style="fill-rule:evenodd;fill:#e4e4e4"/>
 <rect x="29" y="20.000002" width="4" height="12" style="fill-rule:evenodd;fill:#e4e4e4"/>
 <rect x="22" y="20.000002" width="4" height="12" style="fill-rule:evenodd;fill:#e4e4e4"/>
 <rect x="13" y="31" width="22" height="4" rx="1.2054795" ry="1.1428571" style="fill-rule:evenodd;fill:#f1f1f1"/>
 <rect x="13" y="18" width="22" height="4" rx="1.2054795" ry="1.1428571" style="fill-rule:evenodd;fill:#000000;opacity:.1"/>
 <rect x="13" y="17" width="22" height="4" rx="1.2054795" ry="1.1428571" style="fill-rule:evenodd;fill:#f1f1f1"/>
 <path d="m22.984309 11.410488-4.984309 2.613036-4.968146 2.604562c-1.094054 0.537323-0.946627 0.294385-1.031854 1.32382v1.886825c0 0.089365 0.06613 0.161269 0.148242 0.161269h23.703516c0.082114 0 0.148242-0.071903 0.148242-0.161269v-1.844855c-0.0024-1.085782-0.02967-0.84039-1.072182-1.386932l-4.927818-2.58342-4.957048-2.598744c-0.917701-0.628871-1.139861-0.495966-2.058643-0.01429z" style="fill-rule:evenodd;fill:#000000;opacity:.1"/>
 <path d="m22.984309 10.410488-4.984309 2.613036-4.968146 2.604562c-1.094054 0.537323-0.946627 0.294385-1.031854 1.32382v1.886825c0 0.089365 0.06613 0.161269 0.148242 0.161269h23.703516c0.082114 0 0.148242-0.071903 0.148242-0.161269v-1.844855c-0.0024-1.085782-0.02967-0.84039-1.072182-1.386932l-4.927818-2.58342-4.957048-2.598744c-0.917701-0.628871-1.139861-0.495966-2.058643-0.01429z" style="fill-rule:evenodd;fill:#ffffff"/>
 <path d="M 13.315137,34 C 12.586589,34 12,34.567147 12,35.271552 L 12,37 36,37 36,35.271552 C 36,34.567147 35.413411,34 34.684863,34 l -21.369726,0 z" style="fill-rule:evenodd;fill:#000000;opacity:.2"/>
 <path d="M 13.315137,33 C 12.586589,33 12,33.567147 12,34.271552 L 12,36 36,36 36,34.271552 C 36,33.567147 35.413411,33 34.684863,33 l -21.369726,0 z" style="fill-rule:evenodd;fill:#ffffff"/>
 <path d="M 14.205078,31 C 13.537242,31 13,31.509435 13,32.142578 l 0,1 C 13,32.509435 13.537242,32 14.205078,32 l 19.589844,0 C 34.462758,32 35,32.509435 35,33.142578 l 0,-1 C 35,31.509435 34.462758,31 33.794922,31 l -19.589844,0 z" style="fill-rule:evenodd;fill:#ffffff"/>
</svg>
