<svg width="48" height="48" version="1" xmlns="http://www.w3.org/2000/svg">
 <rect transform="matrix(0,-1,-1,0,0,0)" x="-41" y="-42" width="24" height="36" rx="2" ry="2" fill="#5f7c8a" style="fill:#4f4f4f"/>
 <path d="m8 17c-1.108 0-2 0.892-2 2v1c0-1.108 0.892-2 2-2h32c1.108 0 2 0.892 2 2v-1c0-1.108-0.892-2-2-2h-32z" fill="#fff" opacity=".2" style="opacity:.1"/>
 <path d="m6 39v1c0 1.108 0.892 2 2 2h32c1.108 0 2-0.892 2-2v-1c0 1.108-0.892 2-2 2h-32c-1.108 0-2-0.892-2-2z" opacity=".2"/>
 <path d="m34 24a2 2 0 0 1-2 2 2 2 0 0 1-2-2 2 2 0 0 1 2-2 2 2 0 0 1 2 2z" opacity=".2"/>
 <path d="m34 23a2 2 0 0 1-2 2 2 2 0 0 1-2-2 2 2 0 0 1 2-2 2 2 0 0 1 2 2z" fill="#fff"/>
 <path d="m18 24a2 2 0 0 1-2 2 2 2 0 0 1-2-2 2 2 0 0 1 2-2 2 2 0 0 1 2 2z" opacity=".2"/>
 <path d="m18 23a2 2 0 0 1-2 2 2 2 0 0 1-2-2 2 2 0 0 1 2-2 2 2 0 0 1 2 2z" fill="#fff"/>
 <path d="m17 7h14c1.108 0 2 0.892 2 2v14c0 3-7 5-9 7-2-2-9-4-9-7v-14c0-1.108 0.892-2 2-2z" opacity=".2"/>
 <path d="m17 6h14c1.108 0 2 0.892 2 2v14c0 3-7 5-9 7-2-2-9-4-9-7v-14c0-1.108 0.892-2 2-2z" fill="#10c36e" style="fill:#15c2d8"/>
 <path d="m12 24a2 2 0 0 1-2 2 2 2 0 0 1-2-2 2 2 0 0 1 2-2 2 2 0 0 1 2 2z" opacity=".2"/>
 <path d="m12 23a2 2 0 0 1-2 2 2 2 0 0 1-2-2 2 2 0 0 1 2-2 2 2 0 0 1 2 2z" fill="#fff"/>
 <path d="m40 24a2 2 0 0 1-2 2 2 2 0 0 1-2-2 2 2 0 0 1 2-2 2 2 0 0 1 2 2z" opacity=".2"/>
 <path d="m40 23a2 2 0 0 1-2 2 2 2 0 0 1-2-2 2 2 0 0 1 2-2 2 2 0 0 1 2 2z" fill="#fff"/>
 <path d="m14 32a2 2 0 0 1-2 2 2 2 0 0 1-2-2 2 2 0 0 1 2-2 2 2 0 0 1 2 2z" opacity=".2"/>
 <path d="m14 31a2 2 0 0 1-2 2 2 2 0 0 1-2-2 2 2 0 0 1 2-2 2 2 0 0 1 2 2z" fill="#fff"/>
 <path d="m20 32a2 2 0 0 1-2 2 2 2 0 0 1-2-2 2 2 0 0 1 2-2 2 2 0 0 1 2 2z" opacity=".2"/>
 <path d="m20 31a2 2 0 0 1-2 2 2 2 0 0 1-2-2 2 2 0 0 1 2-2 2 2 0 0 1 2 2z" fill="#fff"/>
 <path d="m26 32a2 2 0 0 1-2 2 2 2 0 0 1-2-2 2 2 0 0 1 2-2 2 2 0 0 1 2 2z" opacity=".2"/>
 <path d="m26 31a2 2 0 0 1-2 2 2 2 0 0 1-2-2 2 2 0 0 1 2-2 2 2 0 0 1 2 2z" fill="#fff"/>
 <path d="m32 32a2 2 0 0 1-2 2 2 2 0 0 1-2-2 2 2 0 0 1 2-2 2 2 0 0 1 2 2z" opacity=".2"/>
 <path d="m32 31a2 2 0 0 1-2 2 2 2 0 0 1-2-2 2 2 0 0 1 2-2 2 2 0 0 1 2 2z" fill="#fff"/>
 <path d="m38 32a2 2 0 0 1-2 2 2 2 0 0 1-2-2 2 2 0 0 1 2-2 2 2 0 0 1 2 2z" opacity=".2"/>
 <path d="m38 31a2 2 0 0 1-2 2 2 2 0 0 1-2-2 2 2 0 0 1 2-2 2 2 0 0 1 2 2z" fill="#fff"/>
 <rect x="9" y="36" width="30" height="4" rx="1" ry="1" style="fill:#000000;opacity:.2"/>
 <rect x="9" y="35" width="30" height="4" rx="1" ry="1" opacity=".2" style="fill:#e4e4e4;opacity:1"/>
 <path d="m23.259587 23c-0.782009 0.736837-1.368549 1.552655-1.759587 2.447256l2.051996 0.552744c0.390541-0.94739 0.944911-1.789469 1.661455-2.526239l-1.954361-0.473761" style="fill:#ffffff"/>
 <rect x="20" y="8" width="8" height="2" style="fill-rule:evenodd;fill:#ffffff"/>
 <rect x="18" y="11" width="12" height="2" style="fill-rule:evenodd;fill:#ffffff"/>
 <path d="m24 14a5 4 0 0 0-5 4 5 4 0 0 0 5 4 5 4 0 0 0 5-4 5 4 0 0 0-5-4zm0 2a3 2 0 0 1 3 2 3 2 0 0 1-3 2 3 2 0 0 1-3-2 3 2 0 0 1 3-2z" style="fill-rule:evenodd;fill:#ffffff"/>
</svg>
