<svg width="48" height="48" version="1" xmlns="http://www.w3.org/2000/svg">
 <rect transform="matrix(0,-1,-1,0,0,0)" x="-43" y="-42" width="36" height="36" rx="1.8000001" ry="1.8000001" style="fill:#000000;opacity:.2"/>
 <path transform="matrix(0,-1,-1,0,0,0)" d="m-40.2-42h30.4c0.9972002 0 1.8000002 0.8028 1.8000002 1.8v32.4c0 0.9972001-0.8028 1.8000001-1.8000001 1.8000001h-30.4c-0.9972 0-1.8-0.8028-1.8-1.8000001v-32.4c0-0.9972 0.8028-1.8 1.8-1.8z" style="fill:#528ff5"/>
 <path d="m7.9902344 6.996515c-0.9904875 0-1.6733896 0.2985568-2.0820313 1.8652344l-2.734375 9.8378906c-0.7169288 2.675614 1.2579792 5.406118 3.9335938 6.123047 2.6756145 0.716929 5.7149501-0.795674 6.1250001-3.535156l0.15039-1.003907c-0.136469 2.610109 2.945068 4.712891 5.617188 4.712891 2.77 0 5-2.23 5-5 0 2.77 2.23 5 5 5 2.67212 0 5.753658-2.102782 5.617188-4.712891l0.15039 1.003907c0.41005 2.739482 3.449386 4.252085 6.125 3.535156 2.675615-0.716929 4.650523-3.447433 3.933594-6.123047l-2.734375-9.8378906c-0.408642-1.5666776-1.091543-1.8652344-2.082031-1.8652344h-32.019532z" style="fill-rule:evenodd;fill:#000000;opacity:.2"/>
 <path d="m15.351562 6c-0.028319 0.2551264-0.057089 0.5115564-0.095703 0.7695312l-1.873047 12.517578c-0.13647 2.610109 2.945068 4.712891 5.617188 4.712891 2.77 0 5-2.23 5-5v-13h-8.648438z" style="fill-rule:evenodd;fill:#4a5bb9"/>
 <path d="M 5.909,7.8653765 3.1738281,17.703125 c -0.7169288,2.675614 1.2579792,5.406118 3.9335938,6.123047 2.6756145,0.716929 5.7149501,-0.795674 6.1250001,-3.535156 L 15.255859,6.7695312 C 15.294473,6.5115564 15.323243,6.2551264 15.351562,6 L 7.9904875,6 C 7,6 6.3176417,6.2986989 5.909,7.8653765 Z" style="fill-rule:evenodd;fill:#8ccaf8"/>
 <path d="m32.648438 6c0.02832 0.2551264 0.05709 0.5115564 0.0957 0.7695312l1.87305 12.517578c0.13647 2.610109-2.945068 4.712891-5.617188 4.712891-2.77 0-5-2.23-5-5v-13h8.648438z" style="fill-rule:evenodd;fill:#8ccaf8"/>
 <path d="m42.091 7.8653765 2.735172 9.8377485c0.716929 2.675614-1.257979 5.406118-3.933594 6.123047-2.675614 0.716929-5.71495-0.795674-6.125-3.535156l-2.023437-13.521485c-0.038614-0.2579748-0.067384-0.5144048-0.095703-0.7695312h7.361074c0.990488 0 1.672846 0.2986989 2.081488 1.8653765z" style="fill-rule:evenodd;fill:#4a5bb9"/>
 <path d="m7.9902344 6c-0.9904875 0-1.6733896 0.2985568-2.0820313 1.8652344l-2.734375 9.8378906c-0.1464705 0.546635-0.176497 1.095327-0.1152343 1.628906 0.0240776-0.209387 0.059043-0.419197 0.1152343-0.628906l2.734375-9.8378906c0.4086417-1.5666776 1.0915438-1.8652344 2.0820313-1.8652344h32.019532c0.990488 0 1.673389 0.2985568 2.082031 1.8652344l2.734375 9.8378906c0.056191 0.209709 0.091157 0.419519 0.115234 0.628906 0.061263-0.533579 0.031236-1.082271-0.115234-1.628906l-2.734375-9.8378906c-0.408642-1.5666776-1.091543-1.8652344-2.082031-1.8652344h-32.019532z" style="fill-rule:evenodd;fill:#ffffff;opacity:.1"/>
 <path d="m3.3691406 17-0.1953125 0.703125c-0.7169288 2.675614 1.2579792 5.406118 3.9335938 6.123047 2.6756145 0.716929 5.7149501-0.795674 6.1250001-3.535156l0.15039-1.003907c-0.136468 2.610109 2.945068 4.712891 5.617188 4.712891 2.77 0 5-2.23 5-5 0 2.77 2.23 5 5 5 2.67212 0 5.753658-2.102782 5.617188-4.712891l0.15039 1.003907c0.41005 2.739482 3.449386 4.252085 6.125 3.535156 2.675615-0.716929 4.650523-3.447433 3.933594-6.123047l-0.195313-0.703125h-41.261718z" style="fill-rule:evenodd;fill:#000000;opacity:.1"/>
 <path d="m 33.123047,28 c -2.3506,0 -4.448082,1.350313 -5.46875,3.320313 C 27.236844,32.130313 27,33.04 27,34 c 0,0.99 0.252431,1.93 0.693359,2.75 1.033938,1.93 3.107667,3.25 5.429688,3.25 1.54223,0 2.92012,-0.579063 3.955078,-1.539062 C 38.266183,37.360936 39,35.77 39,34 39,33.658773 38.96806,33.326037 38.91602,33 l -0.916016,0 -1.134766,0 -3.865234,0 0,2 3.867188,0 c -0.223692,0.866019 -0.731188,1.632076 -1.441407,2.175781 A 4,4 0 0 1 33.000004,38 4,4 0 0 1 29.294926,35.501953 4,4 0 0 1 29.000004,34 4,4 0 0 1 29.281254,32.535156 4,4 0 0 1 33.000004,30 4,4 0 0 1 35.69141,31.048828 L 37.148442,29.59961 C 36.107358,28.60961 34.701004,28 33.123051,28 Z" style="fill:#000000;opacity:.2"/>
 <path d="m 33.123047,27 c -2.3506,0 -4.448082,1.350313 -5.46875,3.320313 C 27.236844,31.130313 27,32.04 27,33 c 0,0.99 0.252431,1.93 0.693359,2.75 1.033938,1.93 3.107667,3.25 5.429688,3.25 1.54223,0 2.92012,-0.579063 3.955078,-1.539062 C 38.266183,36.360936 39,34.77 39,33 39,32.658773 38.96806,32.326037 38.91602,32 l -0.916016,0 -1.134766,0 -3.865234,0 0,2 3.867188,0 c -0.223692,0.866019 -0.731188,1.632076 -1.441407,2.175781 A 4,4 0 0 1 33.000004,37 4,4 0 0 1 29.294926,34.501953 4,4 0 0 1 29.000004,33 4,4 0 0 1 29.281254,31.535156 4,4 0 0 1 33.000004,29 4,4 0 0 1 35.69141,30.048828 L 37.148442,28.59961 C 36.107358,27.60961 34.701004,27 33.123051,27 Z" style="fill:#ffffff"/>
</svg>
