<svg width="48" height="48" version="1" xmlns="http://www.w3.org/2000/svg">
 <path d="m10 5c-1.108 0-2 0.892-2 2v36c0 1.108 0.892 2 2 2h28c1.108 0 2-0.892 2-2v-26l-11-1-1-11z" style="fill:#000000;opacity:.2"/>
 <path d="m10 4c-1.108 0-2 0.892-2 2v36c0 1.108 0.892 2 2 2h28c1.108 0 2-0.892 2-2v-26l-11-1-1-11z" style="fill:#de564a"/>
 <path d="m10 4c-1.108 0-2 0.892-2 2v1c0-1.108 0.892-2 2-2h18l11 11h1l-12-12z" style="fill:#ffffff;opacity:.2"/>
 <path d="m28 5v10c0 1.1046 0.89543 2 2 2h10l-12-12z" style="fill:#000000;opacity:.2"/>
 <path d="m28 4v10c0 1.1046 0.89543 2 2 2h10l-12-12z" style="fill:#e99087"/>
 <path d="M 24.00008,19 C 19.581703,19 16,22.516814 16,26.855215 c 0,0.271129 0.02272,0.521392 0.04992,0.785454 0.02192,0.262796 0.05728,0.528126 0.100001,0.785522 C 17.065931,33.947507 20.800101,37.858048 24,41 c 3.200032,-3.142019 6.934069,-7.051893 7.850078,-12.573809 0.04272,-0.257396 0.07808,-0.522726 0.100001,-0.785522 C 31.97744,27.376607 32,27.126344 32,26.855215 32,22.51688 28.418231,19 23.99992,19 Z" style="fill:#000000;opacity:.2"/>
 <path d="M 24.00008,18 C 19.581703,18 16,21.516814 16,25.855215 c 0,0.271129 0.02272,0.521392 0.04992,0.785454 0.02192,0.262796 0.05728,0.528126 0.100001,0.785522 C 17.065931,32.947507 20.800101,36.858048 24,40 c 3.200032,-3.142019 6.934069,-7.051893 7.850078,-12.573809 0.04272,-0.257396 0.07808,-0.522726 0.100001,-0.785522 C 31.97744,26.376607 32,26.126344 32,25.855215 32,21.51688 28.418231,18 23.99992,18 Z" style="fill:#ffffff"/>
 <path d="m24 23.000152c1.65684 0 3 1.343126 3 2.999924s-1.34316 2.999924-3 2.999924-3-1.343126-3-2.999924 1.34316-2.999924 3-2.999924z" style="fill:#4f4f4f"/>
</svg>
