<svg width="48" height="48" version="1" xmlns="http://www.w3.org/2000/svg">
 <path d="m24 5c-11.08 0-20 8.92-20 20s8.92 20 20 20 20-8.92 20-20v-18c0-1.108-0.892-2-2-2h-18z" style="fill:#000000;opacity:.2"/>
 <path d="m24 4c-11.08 0-20 8.92-20 20s8.92 20 20 20 20-8.92 20-20v-18c0-1.108-0.892-2-2-2h-18z" style="fill:#548fef"/>
 <path d="m24 4c-11.08 0-20 8.92-20 20 0 0.167874 0.007647 0.333141 0.0117188 0.5 0.2646716-10.846137 9.0761552-19.5 19.988281-19.5h18c1.108 0 2 0.892 2 2v-1c0-1.108-0.892-2-2-2h-18z" style="fill:#ffffff;opacity:.2"/>
 <path d="m17 18c-1.108 0-2 0.892-2 2v10c0 1.108 0.892 2 2 2h12c1.108 0 2-0.892 2-2v-3l4 4v-12l-4 4v-3c0-1.108-0.892-2-2-2h-12z" style="fill-rule:evenodd;fill:#000000;opacity:.2"/>
 <path d="m17 17c-1.108 0-2 0.892-2 2v10c0 1.108 0.892 2 2 2h12c1.108 0 2-0.892 2-2v-3l4 4v-12l-4 4v-3c0-1.108-0.892-2-2-2h-12z" style="fill-rule:evenodd;fill:#ffffff"/>
</svg>
