<svg width="48" height="48" version="1" xmlns="http://www.w3.org/2000/svg">
 <path d="m24 6a8 8 0 0 0-8 8 8 8 0 0 0 8 8 8 8 0 0 0 8-8 8 8 0 0 0-8-8zm0 4a4 4 0 0 1 4 4 4 4 0 0 1-4 4 4 4 0 0 1-4-4 4 4 0 0 1 4-4z" style="fill:#000000;opacity:.2"/>
 <rect transform="matrix(0,-1,-1,0,0,0)" x="-44" y="-44" width="30" height="40" rx="4" ry="4" style="fill:#000000;opacity:.2"/>
 <path d="m24 5a8 8 0 0 0-8 8 8 8 0 0 0 8 8 8 8 0 0 0 8-8 8 8 0 0 0-8-8zm0 4a4 4 0 0 1 4 4 4 4 0 0 1-4 4 4 4 0 0 1-4-4 4 4 0 0 1 4-4z" style="fill:#4f4f4f"/>
 <path d="M 24 5 A 8 8 0 0 0 16 13 A 8 8 0 0 0 16.021484 13.423828 A 8 8 0 0 1 24 6 A 8 8 0 0 1 31.978516 13.576172 A 8 8 0 0 0 32 13 A 8 8 0 0 0 24 5 z M 20.035156 13.494141 A 4 4 0 0 0 20 14 A 4 4 0 0 0 24 18 A 4 4 0 0 0 28 14 A 4 4 0 0 0 27.964844 13.505859 A 4 4 0 0 1 24 17 A 4 4 0 0 1 20.035156 13.494141 z " style="fill:#ffffff;opacity:.1"/>
 <rect transform="matrix(0,-1,-1,0,0,0)" x="-43" y="-44" width="30" height="40" rx="4" ry="4" style="fill:#08bed5"/>
 <rect x="10" y="13" width="4" height="30" style="fill:#ffffff"/>
 <path d="m10 21c-1.108 0-2 0.892-2 2v4c0 1.108 0.892 2 2 2h4c1.108 0 2-0.892 2-2v-4c0-1.108-0.892-2-2-2h-4zm0 2h4v4h-1v-1c0-0.554-0.446-1-1-1s-1 0.446-1 1v1h-1v-4z" style="fill:#000000;opacity:.1"/>
 <path d="m10 20c-1.108 0-2 0.892-2 2v4c0 1.108 0.892 2 2 2h4c1.108 0 2-0.892 2-2v-4c0-1.108-0.892-2-2-2h-4zm0 2h4v4h-1v-1c0-0.554-0.446-1-1-1s-1 0.446-1 1v1h-1v-4z" style="fill:#4f4f4f"/>
 <rect x="33.999996" y="13" width="4" height="30" style="fill:#ffffff"/>
 <path d="m34 21c-1.108 0-2 0.892-2 2v4c0 1.108 0.892 2 2 2h4c1.108 0 2-0.892 2-2v-4c0-1.108-0.892-2-2-2h-4zm0 2h4v4h-1v-1c0-0.554-0.446-1-1-1s-1 0.446-1 1v1h-1v-4z" style="fill:#000000;opacity:.1"/>
 <path d="m34 20c-1.108 0-2 0.892-2 2v4c0 1.108 0.892 2 2 2h4c1.108 0 2-0.892 2-2v-4c0-1.108-0.892-2-2-2h-4zm0 2h4v4h-1v-1c0-0.554-0.446-1-1-1s-1 0.446-1 1v1h-1v-4z" style="fill:#4f4f4f"/>
 <path d="m8 13c-2.216 0-4 1.784-4 4v1c0-2.216 1.784-4 4-4h32c2.216 0 4 1.784 4 4v-1c0-2.216-1.784-4-4-4h-32z" style="fill:#ffffff;opacity:.2"/>
</svg>
