<svg width="48" height="48" version="1" xmlns="http://www.w3.org/2000/svg">
 <rect transform="matrix(0,-1,-1,0,0,0)" x="-44" y="-44" width="40" height="40" rx="20" ry="20" style="fill:#3b89f0"/>
 <path d="m24 9a16 16 0 0 0-16 16 16 16 0 0 0 16 16 16 16 0 0 0 16-16 16 16 0 0 0-16-16zm0 1a15 15 0 0 1 15 15 15 15 0 0 1-15 15 15 15 0 0 1-15-15 15 15 0 0 1 15-15z" style="fill:#000000;opacity:.2"/>
 <path d="m24 4c-11.08 0-20 8.92-20 20 0 0.168 8e-3 0.333 0.0117 0.5 0.2647-10.846 9.0763-19.5 19.988-19.5s19.724 8.6539 19.988 19.5c4e-3 -0.16686 0.0117-0.33213 0.0117-0.5 0-11.08-8.92-20-20-20z" style="fill:#ffffff;opacity:.2"/>
 <path d="m4.0117 24.5c-0.0041 0.167-0.0117 0.332-0.0117 0.5 0 11.08 8.92 20 20 20s20-8.92 20-20c0-0.16787-0.0076-0.33314-0.01172-0.5-0.264 10.846-9.076 19.5-19.988 19.5s-19.724-8.654-19.988-19.5z" style="opacity:.2"/>
 <path d="M 24.230469,14 C 19.922349,14 16.0835,16.479844 14.205078,20.089844 13.439417,21.569844 13,23.23 13,25 c 0,1.817829 0.468707,3.524531 1.273438,5.033203 l -0.0078,0.0059 C 16.164465,33.579063 19.963184,36 24.230469,36 27.058312,36 29.579676,34.929688 31.478516,33.179688 33.652994,31.169688 35,28.25 35,25 35,24.29 34.929148,23.67 34.806641,23 H 24 v 4 h 6.630859 c -0.418562,1.44 -1.286923,2.749609 -2.460937,3.599609 l 0.0078,0.0059 A 7,7 0 0 1 24,32 7,7 0 0 1 17.480469,27.546875 7,7 0 0 1 17,25 7,7 0 0 1 17.462891,22.519531 7,7 0 0 1 24,18 a 7,7 0 0 1 4.708984,1.832031 l 2.91211,-2.892578 C 29.701836,15.119453 27.129773,14 24.230469,14 Z" style="fill:#000000;opacity:.2"/>
 <path d="M 24.230469,13 C 19.922349,13 16.0835,15.479844 14.205078,19.089844 13.439417,20.569844 13,22.23 13,24 c 0,1.817829 0.468707,3.524531 1.273438,5.033203 l -0.0078,0.0059 C 16.164465,32.579063 19.963184,35 24.230469,35 27.058312,35 29.579676,33.929688 31.478516,32.179688 33.652994,30.169688 35,27.25 35,24 35,23.29 34.929148,22.67 34.806641,22 H 24 v 4 h 6.630859 c -0.418562,1.44 -1.286923,2.749609 -2.460937,3.599609 l 0.0078,0.0059 A 7,7 0 0 1 24,31 7,7 0 0 1 17.480469,26.546875 7,7 0 0 1 17,24 7,7 0 0 1 17.462891,21.519531 7,7 0 0 1 24,17 a 7,7 0 0 1 4.708984,1.832031 l 2.91211,-2.892578 C 29.701836,14.119453 27.129773,13 24.230469,13 Z" style="fill:#ffffff"/>
 <path d="m24 8a16 16 0 0 0-16 16 16 16 0 0 0 16 16 16 16 0 0 0 16-16 16 16 0 0 0-16-16zm0 1a15 15 0 0 1 15 15 15 15 0 0 1-15 15 15 15 0 0 1-15-15 15 15 0 0 1 15-15z" style="fill:#ffffff"/>
</svg>
