<svg width="48" height="48" version="1" xmlns="http://www.w3.org/2000/svg">
 <rect x="15" y="8.9978504" width="22" height="32" rx="3" ry="3" style="fill:#000000;opacity:.2"/>
 <path d="m22.456054 4.9985604c-0.217889 0.00675-0.431837 0.066183-0.626952 0.1741569l-9 4.1996749c-0.508172 0.2824077-0.829141 0.8595838-0.829102 1.4909158v28.268085c-3.8e-5 0.631331 0.320931 1.208507 0.829102 1.490914l9 4.199645c0.997423 0.553991 2.170862-0.251895 2.170898-1.490914v-36.667405c-5.5e-4 -0.9392241-0.699021-1.6924927-1.543946-1.6650724z" style="color-rendering:auto;color:#000000;dominant-baseline:auto;fill:#000000;font-feature-settings:normal;font-variant-alternates:normal;font-variant-caps:normal;font-variant-ligatures:normal;font-variant-numeric:normal;font-variant-position:normal;image-rendering:auto;isolation:auto;mix-blend-mode:normal;opacity:.2;shape-padding:0;shape-rendering:auto;solid-color:#000000;text-decoration-color:#000000;text-decoration-line:none;text-decoration-style:solid;text-indent:0;text-orientation:mixed;text-transform:none;white-space:normal"/>
 <rect x="15" y="8" width="22" height="32" rx="3" ry="3" style="fill:#e4e4e4"/>
 <path d="m15 12v1h22v-1zm0 6v1h22v-1zm0 6v1h22v-1zm0 6v1h22v-1zm0 6v1h22v-1z" style="fill:#000000;opacity:.2"/>
 <path d="m33.7 24c-1.084051-0.47741-2.316089 10.12503-5.7 10s-2-7-4-9c-0.942809-0.942809-4 0-4 0" style="fill:none;stroke-linejoin:round;stroke-width:2;stroke:#4f4f4f"/>
 <path d="m18 8c-1.662 0-3 1.338-3 3v0.998047c0-1.662 1.338-3.0000001 3-3.0000001h16c1.662 0 3 1.3380001 3 3.0000001v-0.998047c0-1.662-1.338-3-3-3h-16z" style="fill:#ffffff;opacity:.2"/>
 <path d="m22.456054 4.0007105c-0.217889 0.00675-0.431837 0.066183-0.626952 0.1741569l-9 4.1996749c-0.508172 0.2824077-0.829141 0.8595837-0.829102 1.4909154v28.268085c-3.8e-5 0.631331 0.320931 1.208507 0.829102 1.490914l9 4.199645c0.997423 0.553991 2.170862-0.251895 2.170898-1.490914v-36.667405c-5.5e-4 -0.9392241-0.699021-1.6924927-1.543946-1.6650724z" style="color-rendering:auto;color:#000000;dominant-baseline:auto;fill:#8b59e3;font-feature-settings:normal;font-variant-alternates:normal;font-variant-caps:normal;font-variant-ligatures:normal;font-variant-numeric:normal;font-variant-position:normal;image-rendering:auto;isolation:auto;mix-blend-mode:normal;shape-padding:0;shape-rendering:auto;solid-color:#000000;text-decoration-color:#000000;text-decoration-line:none;text-decoration-style:solid;text-indent:0;text-orientation:mixed;text-transform:none;white-space:normal"/>
 <path d="m15 7.3632812-2.169922 1.0117188c-0.508172 0.2824077-0.830117 0.8589027-0.830078 1.4902344v28.267578c-3.8e-5 0.631332 0.321907 1.209781 0.830078 1.492188l2.169922 1.011719v-33.273438z" style="fill:#000000;opacity:.2"/>
 <path d="m28 8h5v10l-2.5-1.5-2.5 1.5z" style="fill:#bc5dcc"/>
 <circle cx="33" cy="25" r="2" style="fill:#000000;opacity:.2"/>
 <circle cx="33" cy="24" r="2" style="fill:#44acff"/>
 <path d="m22.455078 4c-0.217889 0.00675-0.429885 0.0678073-0.625 0.1757812l-9 4.1992188c-0.508172 0.2824077-0.830117 0.8589027-0.830078 1.4902344v0.9980466c-3.9e-5 -0.631332 0.321906-1.2078264 0.830078-1.4902341l9-4.2011719c0.195115-0.1079739 0.407111-0.1670781 0.625-0.1738281 0.844925-0.0274203 1.544372 0.7267915 1.544922 1.6660156v-0.9980469c-5.5e-4 -0.9392241-0.699997-1.6934359-1.544922-1.6660156z" style="color-rendering:auto;color:#000000;dominant-baseline:auto;fill:#ffffff;font-feature-settings:normal;font-variant-alternates:normal;font-variant-caps:normal;font-variant-ligatures:normal;font-variant-numeric:normal;font-variant-position:normal;image-rendering:auto;isolation:auto;mix-blend-mode:normal;opacity:.1;shape-padding:0;shape-rendering:auto;solid-color:#000000;text-decoration-color:#000000;text-decoration-line:none;text-decoration-style:solid;text-indent:0;text-orientation:mixed;text-transform:none;white-space:normal"/>
</svg>
