<svg width="48" height="48" version="1" xmlns="http://www.w3.org/2000/svg">
 <path d="m10 22.188c-1.108 0-2 0.892-2 2v10c0 1.108 0.892 2 2 2s2-0.892 2-2v-10c0-1.108-0.892-2-2-2z" fill="#93b133"/>
 <path d="m38 22.188c-1.108 0-2 0.892-2 2v10c0 1.108 0.892 2 2 2s2-0.892 2-2v-10c0-1.108-0.892-2-2-2z" fill="#93b133"/>
 <path d="m18.138672 5.2128906c-0.129-0.0178-0.262484-0.0105093-0.396484 0.0253906-0.535001 0.1434-0.850032 0.6895094-0.707032 1.2246094l1.263672 4.7148434c-6.294 3.021-6.298828 10.822266-6.298828 10.822266v2.763672c0-0.422807 0.297411-0.763672 0.666016-0.763672h7.333984l4 4 4-4h7.333984c0.368605 0 0.666016 0.340865 0.666016 0.763672v-2.763672s-0.004828-7.801266-6.298828-10.822266l1.263672-4.7148434c0.143-0.5351-0.172032-1.0812093-0.707032-1.2246094-0.535-0.1433999-1.080609 0.1719313-1.224609 0.7070313l-1.214844 4.5351565c-1.115-0.304-2.378359-0.480469-3.818359-0.480469s-2.703359 0.176469-3.818359 0.480469l-1.214844-4.5351565c-0.108-0.4013-0.442125-0.6791219-0.828125-0.7324219zm-0.138672 33.787109v4c0 1.108 0.892 2 2 2s2-0.892 2-2v-4h-4zm8 0v4c0 1.108 0.892 2 2 2s2-0.892 2-2v-4h-4z" style="fill:#a4c639"/>
 <path d="m16.4 22h15.2c0.2216 0 0.4 0.223 0.4 0.5s-0.1784 0.5-0.4 0.5h-15.2c-0.2216 0-0.4-0.223-0.4-0.5s0.1784-0.5 0.4-0.5z" style="fill:#000000;opacity:.4"/>
 <circle cx="18" cy="17" r="1" fill="#fff"/>
 <circle cx="30" cy="17" r="1" fill="#fff"/>
 <path d="m18.139 5.2129c-0.129-0.0178-0.263-0.0105-0.397 0.0254-0.535 0.1434-0.85 0.6895-0.707 1.2246l0.08008 0.29688c0.1233-0.24649 0.33853-0.4442 0.62695-0.52148 0.13378-0.035846 0.26778-0.043154 0.39648-0.025391 0.3861 0.053291 0.72059 0.33108 0.82812 0.73242l1.2148 4.5352c1.116-0.305 2.379-0.481 3.819-0.481 1.4401 0 2.7032 0.17631 3.8184 0.48047l1.2148-4.5352c0.14339-0.53512 0.68949-0.85042 1.2246-0.70703 0.28842 0.077283 0.50365 0.27499 0.62695 0.52148l0.08008-0.29688c0.143-0.5345-0.172-1.0806-0.707-1.224s-1.081 0.1719-1.225 0.707l-1.215 4.5347c-1.115-0.304-2.378-0.48-3.818-0.48-1.4401 0-2.7032 0.17631-3.8184 0.48047l-1.215-4.5347c-0.108-0.4013-0.442-0.6791-0.828-0.7324zm-0.07227 6.0957c-6.049 3.103-6.067 10.691-6.067 10.691v1s0.0052-7.8011 6.2988-10.822l-0.23242-0.86914zm11.867 0-0.23242 0.86914c6.293 3.021 6.298 10.822 6.298 10.822v-1s-0.01752-7.5881-6.0664-10.691zm-19.934 10.879c-1.108 0-2 0.892-2 2v1c0-1.108 0.892-2 2-2s2 0.892 2 2v-1c0-1.108-0.892-2-2-2zm28 0c-1.108 0-2 0.892-2 2v1c0-1.108 0.892-2 2-2s2 0.892 2 2v-1c0-1.108-0.892-2-2-2z" fill="#fff" opacity=".2"/>
 <path d="m30.885 6.76c-20.59 28.16-10.295 14.08 0 0zm-22.885 27.428v1c0 1.108 0.892 2 2 2s2-0.892 2-2v0.54492c0 2.363 1.784 4.267 4 4.267h2v-1h-2c-2.216 0-4-1.9038-4-4.2676v-0.544c0 1.108-0.892 2-2 2s-2-0.892-2-2zm28 0v0.54492c0 2.363-1.784 4.267-4 4.267h-2v1h2c2.216 0 4-1.9038 4-4.2676v-0.544c0 1.108 0.892 2 2 2s2-0.892 2-2v-1c0 1.108-0.892 2-2 2s-2-0.892-2-2zm-14 4.812v1h4v-1zm-4 4v1c0 1.108 0.892 2 2 2s2-0.892 2-2v-1c0 1.108-0.892 2-2 2s-2-0.892-2-2zm8 0v1c0 1.108 0.892 2 2 2s2-0.892 2-2v-1c0 1.108-0.892 2-2 2s-2-0.892-2-2z" opacity=".2"/>
 <path d="M 21,15.666666 C 21,15.666666 22.5,15 23.999999,15 25.5,15 27,15.666666 27,15.666666 L 27,17 C 27,17 25.5,16.333333 23.999999,16.333333 22.5,16.333333 21,17 21,17 Z" style="fill:#212121"/>
 <rect x="13" y="15" width="9" height="7" rx="1.125" ry="1.1666666" style="fill:#000000;opacity:.1"/>
 <path d="M 21,16.666666 C 21,16.666666 22.5,16 23.999999,16 25.5,16 27,16.666666 27,16.666666 L 27,18 C 27,18 25.5,17.333333 23.999999,17.333333 22.5,17.333333 21,18 21,18 Z" style="fill:#000000;opacity:.1"/>
 <rect x="13" y="14" width="9" height="7" rx="1.125" ry="1.1666666" style="fill:#4f4f4f"/>
 <rect x="12" y="16" width="2" height="3" rx=".66666663" ry=".75" style="fill:#000000;opacity:.1"/>
 <rect x="12" y="15" width="2" height="3" rx=".66666663" ry=".75" style="fill:#212121"/>
 <rect x="26" y="15" width="9" height="7" rx="1.125" ry="1.1666666" style="fill:#000000;opacity:.1"/>
 <rect x="26" y="14" width="9" height="7" rx="1.125" ry="1.1666666" style="fill:#4f4f4f"/>
 <rect x="34" y="16" width="2" height="3" rx=".66666663" ry=".75" style="fill:#000000;opacity:.1"/>
 <rect x="34" y="15" width="2" height="3" rx=".66666663" ry=".75" style="fill:#212121"/>
 <rect x="20" y="24" width="8" height="5" style="fill:#ffffff"/>
 <path d="m12.666016 24c-0.368605 0-0.666016 0.340865-0.666016 0.763672v9.96875c0 2.364 1.784 4.267578 4 4.267578h16c2.216 0 4-1.903578 4-4.267578v-9.96875c0-0.422807-0.297411-0.763672-0.666016-0.763672h-7.333984l-4 4-4-4z" style="fill:#f2535e"/>
 <circle cx="24" cy="31" r="1" style="fill:#3f3f3f"/>
 <circle cx="24" cy="35" r="1" style="fill:#3f3f3f"/>
</svg>
