<svg width="48" height="48" version="1" xmlns="http://www.w3.org/2000/svg">
 <path d="m23.929101 3.0018279a1.3536832 1.3055556 0 0 0-1.102165 0.6509861l-1.521116 2.543787-1.525413 2.5459354a1.3536832 1.3055556 0 0 0 1.173064 1.9572556h6.093057a1.3536832 1.3055556 0 0 0 1.173065-1.9572556l-1.523265-2.5459354-1.523264-2.543787a1.3536832 1.3055556 0 0 0-1.243963-0.6509861zm-15.565657 17.598108a1.3055556 1.3536832 0 0 0-0.6209075 0.180471l-2.5459354 1.525413-2.543787 1.521116a1.3055556 1.3536832 0 0 0-0.6509861 1.102165 1.3055556 1.3536832 0 0 0 0.6509861 1.243963l2.543787 1.523264 2.5459354 1.523265a1.3055556 1.3536832 0 0 0 1.9572551-1.173065v-6.093057a1.3055556 1.3536832 0 0 0-1.3363476-1.353535zm31.273112 0a1.3055556 1.3536832 0 0 0-1.336348 1.353535v6.093057a1.3055556 1.3536832 0 0 0 1.957255 1.173065l2.545935-1.523265 2.543787-1.523264a1.3055556 1.3536832 0 0 0 0.650987-1.243963 1.3055556 1.3536832 0 0 0-0.650987-1.102165l-2.543787-1.521116-2.545935-1.525413a1.3055556 1.3536832 0 0 0-0.620907-0.180471zm-18.683085 18.700272a1.3536832 1.3055556 0 0 0-1.173064 1.957255l1.525413 2.545935 1.521116 2.543787a1.3536832 1.3055556 0 0 0 1.102165 0.650987 1.3536832 1.3055556 0 0 0 1.243963-0.650987l1.523264-2.543787 1.523265-2.545935a1.3536832 1.3055556 0 0 0-1.173065-1.957255h-3.046528z" style="color-rendering:auto;color:#000000;dominant-baseline:auto;fill:#000000;font-feature-settings:normal;font-variant-alternates:normal;font-variant-caps:normal;font-variant-ligatures:normal;font-variant-numeric:normal;font-variant-position:normal;image-rendering:auto;isolation:auto;mix-blend-mode:normal;opacity:.2;shape-padding:0;shape-rendering:auto;solid-color:#000000;text-decoration-color:#000000;text-decoration-line:none;text-decoration-style:solid;text-indent:0;text-orientation:mixed;text-transform:none;white-space:normal"/>
 <path d="m23.929101 2.0018283a1.3536832 1.3055556 0 0 0-1.102165 0.6509861l-1.521116 2.543787-1.525413 2.5459354a1.3536832 1.3055556 0 0 0 1.173064 1.9572551h6.093057a1.3536832 1.3055556 0 0 0 1.173065-1.9572551l-1.523265-2.5459354-1.523264-2.543787a1.3536832 1.3055556 0 0 0-1.243963-0.6509861zm-15.565657 17.598108a1.3055556 1.3536832 0 0 0-0.6209075 0.180471l-2.5459354 1.525413-2.543787 1.521116a1.3055556 1.3536832 0 0 0-0.6509861 1.102165 1.3055556 1.3536832 0 0 0 0.6509861 1.243963l2.543787 1.523264 2.5459354 1.523265a1.3055556 1.3536832 0 0 0 1.9572551-1.173065v-6.093057a1.3055556 1.3536832 0 0 0-1.3363476-1.353535zm31.273112 0a1.3055556 1.3536832 0 0 0-1.336348 1.353535v6.093057a1.3055556 1.3536832 0 0 0 1.957255 1.173065l2.545935-1.523265 2.543787-1.523264a1.3055556 1.3536832 0 0 0 0.650987-1.243963 1.3055556 1.3536832 0 0 0-0.650987-1.102165l-2.543787-1.521116-2.545935-1.525413a1.3055556 1.3536832 0 0 0-0.620907-0.180471zm-18.683085 18.700272a1.3536832 1.3055556 0 0 0-1.173064 1.957255l1.525413 2.545935 1.521116 2.543787a1.3536832 1.3055556 0 0 0 1.102165 0.650987 1.3536832 1.3055556 0 0 0 1.243963-0.650987l1.523264-2.543787 1.523265-2.545935a1.3536832 1.3055556 0 0 0-1.173065-1.957255h-3.046528z" style="color-rendering:auto;color:#000000;dominant-baseline:auto;fill:#c74527;font-feature-settings:normal;font-variant-alternates:normal;font-variant-caps:normal;font-variant-ligatures:normal;font-variant-numeric:normal;font-variant-position:normal;image-rendering:auto;isolation:auto;mix-blend-mode:normal;shape-padding:0;shape-rendering:auto;solid-color:#000000;text-decoration-color:#000000;text-decoration-line:none;text-decoration-style:solid;text-indent:0;text-orientation:mixed;text-transform:none;white-space:normal"/>
 <path d="m23.929688 2.0019531a1.3536832 1.3055556 0 0 0-1.103516 0.6503907l-1.519531 2.5449218-1.525391 2.5449219a1.3536832 1.3055556 0 0 0-0.076172 1.1523437 1.3536832 1.3055556 0 0 1 0.076172-0.1523437l1.525391-2.5449219 1.519531-2.5449218a1.3536832 1.3055556 0 0 1 1.103516-0.6503907 1.3536832 1.3055556 0 0 1 1.24414 0.6503907l1.523438 2.5449218 1.521484 2.5449219a1.3536832 1.3055556 0 0 1 0.076172 0.1523437 1.3536832 1.3055556 0 0 0-0.076172-1.1523437l-1.521484-2.5449219-1.523438-2.5449218a1.3536832 1.3055556 0 0 0-1.24414-0.6503907zm-15.566407 17.597656a1.3055556 1.3536832 0 0 0-0.6210937 0.181641l-2.5449219 1.525391-2.5449218 1.519531a1.3055556 1.3536832 0 0 0-0.6503907 1.103516 1.3055556 1.3536832 0 0 0 0.0917969 0.570312 1.3055556 1.3536832 0 0 1 0.5585938-0.673828l2.5449218-1.519531 2.5449219-1.525391a1.3055556 1.3536832 0 0 1 0.6210937-0.181641 1.3055556 1.3536832 0 0 1 1.3359376 1.353516v-1a1.3055556 1.3536832 0 0 0-1.3359376-1.353516zm31.273438 0a1.3055556 1.3536832 0 0 0-1.335938 1.353516v1a1.3055556 1.3536832 0 0 1 1.335938-1.353516 1.3055556 1.3536832 0 0 1 0.621093 0.181641l2.544922 1.525391 2.544922 1.519531a1.3055556 1.3536832 0 0 1 0.558594 0.673828 1.3055556 1.3536832 0 0 0 0.091797-0.570312 1.3055556 1.3536832 0 0 0-0.650391-1.103516l-2.544922-1.519531-2.544922-1.525391a1.3055556 1.3536832 0 0 0-0.621093-0.181641zm-18.683594 18.701172a1.3536832 1.3055556 0 0 0-1.248047 1.804688 1.3536832 1.3055556 0 0 1 1.248047-0.804688h6.09375a1.3536832 1.3055556 0 0 1 1.248047 0.804688 1.3536832 1.3055556 0 0 0-1.248047-1.804688h-6.09375z" style="color-rendering:auto;color:#000000;dominant-baseline:auto;fill:#ffffff;font-feature-settings:normal;font-variant-alternates:normal;font-variant-caps:normal;font-variant-ligatures:normal;font-variant-numeric:normal;font-variant-position:normal;image-rendering:auto;isolation:auto;mix-blend-mode:normal;opacity:.1;shape-padding:0;shape-rendering:auto;solid-color:#000000;text-decoration-color:#000000;text-decoration-line:none;text-decoration-style:solid;text-indent:0;text-orientation:mixed;text-transform:none;white-space:normal"/>
 <circle cx="24" cy="25" r="17" style="fill:#000000;opacity:.2"/>
 <circle cx="24" cy="24" r="17" style="fill:#ff613d"/>
 <circle cx="24" cy="25" r="13" style="fill:#000000;opacity:.2"/>
 <circle cx="24" cy="24" r="13" style="fill:#ffffff"/>
 <rect x="19" y="15" width="4" height="19" rx="2" ry="2" style="fill:#ffa639"/>
 <path d="M 24 7 A 17 17 0 0 0 7 24 A 17 17 0 0 0 7.0214844 24.580078 A 17 17 0 0 1 24 8 A 17 17 0 0 1 40.978516 24.419922 A 17 17 0 0 0 41 24 A 17 17 0 0 0 24 7 z " style="fill:#ffffff;opacity:.2"/>
 <path d="m21.1325 18h9.735c1.181405 0 2.1325 0.973213 2.1325 2.182093l-4 3.317907 4 3.317907c0.93045 0.771786-0.951095 2.182093-2.1325 2.182093h-11.8675v-11z" style="fill:#000000;opacity:.1"/>
 <path d="m21.1325 17h9.735c1.181405 0 2.1325 0.973213 2.1325 2.182093l-4 3.317907 4 3.317907c0.93045 0.771786-0.951095 2.182093-2.1325 2.182093h-11.8675v-11z" style="fill:#ff613d"/>
</svg>
