<svg width="48" height="48" version="1.1" viewBox="0 0 48 48" xmlns="http://www.w3.org/2000/svg">
 <rect x="15" y="22" width="27" height="23" rx="2" ry="2" style="fill-rule:evenodd;fill:#000000;opacity:.2"/>
 <rect x="15" y="21" width="27" height="23" rx="2" ry="2" style="fill-rule:evenodd;fill:#e4e4e4"/>
 <path d="m17.5 5c0.15543 0 0.32915 0.0356046 0.505859 0.0761719-0.178393-0.0442271-0.350379-0.0761719-0.505859-0.0761719zm0.505859 0.0761719c0.132559 0.0328637 0.267426 0.0700004 0.408203 0.1191406-0.072602-0.02773-0.146776-0.0598672-0.216796-0.0820313-0.036672-0.0105389-0.071492-0.0163606-0.107422-0.0253906-0.029672-0.0074725-0.054694-0.0049945-0.083985-0.0117187zm0.525391 0.1660156c0.252528 0.0960529 0.516493 0.2190788 0.794922 0.375-0.085637-0.048138-0.171129-0.095091-0.25586-0.140625-0.187354-0.0957123-0.36478-0.168344-0.539062-0.234375zm0.888672 0.4296875c0.276695 0.1598314 0.559754 0.3448981 0.855469 0.5585938-0.087533-0.0634431-0.173276-0.1207587-0.259766-0.1816407-0.203997-0.1395892-0.401544-0.2643031-0.595703-0.3769531zm0.988281 0.6582031c0.274986 0.2042268 0.553823 0.4253578 0.839844 0.671875-0.053837-0.0465535-0.106546-0.0874505-0.160156-0.1328125-0.230455-0.194238-0.456745-0.3728468-0.679688-0.5390625zm1.033203 0.84375c0.28454 0.2534412 0.571098 0.5212353 0.861328 0.8125-0.290602-0.2908208-0.57642-0.5595674-0.861328-0.8125zm1.0625 1.0195313c0.311998 0.3213089 0.62689 0.6610705 0.939453 1.0214844-0.313539-0.3610279-0.626411-0.7000115-0.939453-1.0214844zm0.998047 1.0898437c0.318273 0.3690339 0.632882 0.7669129 0.945313 1.1718749 0.351 0.455269 0.696606 0.933272 1.033203 1.429688 0.018195 0.026834 0.036545 0.051177 0.054687 0.078125-0.118157-0.175816-0.239158-0.340784-0.359375-0.511719-0.003265-0.004643-0.006499-0.009033-0.009765-0.013672-0.080671-0.114477-0.160548-0.231552-0.242188-0.34375-0.028656-0.039495-0.05728-0.077771-0.085937-0.117188 0.092404 0.125551 0.181978 0.258171 0.273437 0.386719-0.213853-0.301678-0.42778-0.601526-0.646484-0.886719 0.010945 0.014216 0.022268 0.026758 0.033203 0.041016-0.007259-0.009526-0.014215-0.019805-0.021485-0.029297-0.011233-0.014629-0.021959-0.028392-0.033203-0.042969-0.00518-0.006715-0.010442-0.012827-0.015625-0.019531-0.21961-0.284101-0.44161-0.5596672-0.664062-0.8261716-0.08735-0.1041228-0.174319-0.2128639-0.261719-0.3164063zm0.996094 1.2343749c0.114104 0.149749 0.227219 0.30408 0.339844 0.458984-0.113287-0.153922-0.225334-0.309672-0.339844-0.458984zm1.037109 1.445313c0.112583 0.16752 0.217706 0.347782 0.328125 0.519531 0.340303 0.529201 0.667923 1.079577 0.982422 1.644531 0.52634 0.948122 1.016507 1.933893 1.4375 2.962891 0.096294 0.233847 0.184135 0.471707 0.273438 0.708984 0.002983 0.007926 0.006781 0.015513 0.009765 0.023438 0.089882 0.239636 0.177194 0.480046 0.259766 0.722656 0.194052 0.567967 0.364503 1.145354 0.515625 1.726562-0.133919-0.525547-0.284882-1.046024-0.455078-1.560546 0.022946 0.069071 0.051908 0.135809 0.074219 0.205078-0.031907-0.099299-0.068269-0.196904-0.103516-0.294922-0.001185-0.003295-0.002721-0.006471-0.003906-0.009766-0.074282-0.221349-0.150075-0.441293-0.230469-0.660156-0.05877-0.159808-0.11978-0.31819-0.181641-0.476563-0.006608-0.016917-0.012889-0.033881-0.019531-0.050781-0.014914-0.037865-0.025935-0.077462-0.041016-0.115234-0.00663-0.016608-0.014821-0.032237-0.021484-0.048828-0.001313-0.003269-0.002592-0.006498-0.003906-0.009766-0.072597-0.181063-0.148198-0.360087-0.22461-0.539062-0.076225-0.178443-0.154582-0.35503-0.234375-0.53125-0.102748-0.226972-0.206129-0.452757-0.314453-0.675782-0.07675-0.158062-0.15699-0.312809-0.236328-0.46875-0.118598-0.232986-0.237317-0.465386-0.361328-0.693359-0.069318-0.127554-0.142028-0.251067-0.212891-0.376953-0.141324-0.250761-0.280711-0.502281-0.427734-0.746094-0.066058-0.109734-0.136041-0.214025-0.203125-0.322266-0.132592-0.213536-0.26213-0.431157-0.398437-0.638672l-0.001954 0.001954c-0.066997-0.10222-0.137296-0.196196-0.205078-0.296875zm3.806641 8.308593c0.016249 0.063767 0.033149 0.127503 0.048828 0.191407-0.016019-0.063982-0.032228-0.127564-0.048828-0.191407zm0.048828 0.191407c0.147316 0.588399 0.274393 1.180897 0.367187 1.779297-0.092795-0.598401-0.222651-1.190213-0.367187-1.779297zm0.367187 1.779297-12.257812 12.257812-12.273438-12.273438c-0.1444125 0.918829-0.2265625 1.845636-0.2265625 2.773438 0 10 9 20 12.5 20s12.5-10 12.5-20c0-0.922768-0.10031-1.842901-0.242188-2.757812zm-22.09375-7.242188c-0.2585935 0.504608-0.4982944 1.023633-0.7285156 1.548828 0.2299753-0.5254 0.4698367-1.044053 0.7285156-1.548828zm19.816406 0.300781c0.018571 0.037426 0.038217 0.073783 0.05664 0.111328-0.018376-0.037484-0.038114-0.073961-0.05664-0.111328zm0.83789 1.867188c0.027216 0.067146 0.055355 0.133747 0.082032 0.201172 0.004309 0.010902 0.007423 0.022293 0.011718 0.033203-0.031047-0.078287-0.062127-0.156358-0.09375-0.234375zm-22.734375 3.318359c-0.1409161 0.569905-0.2620565 1.144228-0.3535156 1.722656 0.091452-0.57841 0.2129282-1.152742 0.3535156-1.722656z" style="fill-rule:evenodd;fill:#000000;opacity:.1"/>
 <path d="m17.5 4c0.15543 0 0.32915 0.035605 0.505859 0.0761719-0.178393-0.0442271-0.350379-0.0761719-0.505859-0.0761719zm0.505859 0.0761719c0.132559 0.0328636 0.267426 0.0700006 0.408203 0.1191406-0.072601-0.0277306-0.146776-0.0598671-0.216796-0.0820313-0.036675-0.0105381-0.071491-0.0163579-0.107422-0.0253906-0.029672-0.0074724-0.054694-0.0049945-0.083985-0.0117187zm0.525391 0.1660156c0.252528 0.0960529 0.516493 0.2190788 0.794922 0.375-0.085637-0.0481381-0.171129-0.0950908-0.25586-0.140625-0.187354-0.0957123-0.36478-0.1683443-0.539062-0.234375zm0.888672 0.4296875c0.276695 0.1598314 0.559754 0.3448981 0.855469 0.5585938-0.087533-0.063443-0.173273-0.1207589-0.259766-0.1816407-0.203997-0.1395892-0.401544-0.2643031-0.595703-0.3769531zm0.988281 0.6582031c0.274986 0.2042268 0.553823 0.4253578 0.839844 0.671875-0.053837-0.0465531-0.106548-0.0874509-0.160156-0.1328125-0.230455-0.194238-0.456745-0.3728468-0.679688-0.5390625zm1.033203 0.84375c0.28454 0.2534412 0.571098 0.5212353 0.861328 0.8125-0.290602-0.2908208-0.57642-0.5595674-0.861328-0.8125zm1.0625 1.0195313c0.311998 0.3213089 0.62689 0.6610705 0.939453 1.0214844-0.313539-0.3610279-0.626411-0.7000115-0.939453-1.0214844zm0.998047 1.0898437c0.318273 0.369034 0.632882 0.7669132 0.945313 1.171875 0.351 0.4552694 0.696606 0.9332719 1.033203 1.4296879 0.018195 0.026834 0.036545 0.051177 0.054687 0.078125-0.118157-0.175816-0.239158-0.340784-0.359375-0.511719-0.003265-0.004643-0.006499-0.009033-0.009765-0.013672-0.080671-0.114477-0.160544-0.231552-0.242188-0.34375-0.028656-0.039495-0.05728-0.077772-0.085937-0.1171875 0.092404 0.1255505 0.181978 0.2581705 0.273437 0.3867185-0.213853-0.301678-0.42778-0.6015263-0.646484-0.8867185 0.010945 0.0142159 0.022268 0.0267571 0.033203 0.0410156-0.007259-0.009526-0.014215-0.0198052-0.021485-0.0292969-0.011233-0.0146293-0.021959-0.0283923-0.033203-0.0429687-0.00518-0.0067151-0.010442-0.0128273-0.015625-0.0195313-0.21961-0.2841022-0.44161-0.5596674-0.664062-0.8261718-0.08735-0.1041228-0.174321-0.2128639-0.261719-0.3164063zm0.996094 1.234375c0.114104 0.1497486 0.227219 0.3040805 0.339844 0.4589844-0.113287-0.1539222-0.225334-0.3096721-0.339844-0.4589844zm1.037109 1.4453129c0.112583 0.16752 0.217706 0.347782 0.328125 0.519531 0.340303 0.529201 0.667923 1.079577 0.982422 1.644531 0.52634 0.948122 1.016507 1.933893 1.4375 2.962891 0.09629 0.233847 0.184135 0.471707 0.273438 0.708984 0.002983 0.007926 0.006781 0.015513 0.009765 0.023438 0.089882 0.239636 0.177194 0.480046 0.259766 0.722656 0.194717 0.569913 0.366102 1.149182 0.517578 1.732422-0.134339-0.527906-0.286084-1.049616-0.457031-1.566406 0.02581 0.067948 0.051907 0.135809 0.074219 0.205078-0.031907-0.099299-0.068269-0.196904-0.103516-0.294922-0.001185-0.003295-0.002721-0.006471-0.003906-0.009766-0.074282-0.221349-0.150075-0.441293-0.230469-0.660156-0.05877-0.159808-0.11978-0.31819-0.181641-0.476563-0.006608-0.016917-0.012889-0.033881-0.019531-0.050781-0.014914-0.037865-0.025935-0.077462-0.041016-0.115234-0.00663-0.016607-0.014082-0.032693-0.021484-0.048828-0.001313-0.003269-0.002592-0.006498-0.003906-0.009766-0.072597-0.181063-0.148198-0.360087-0.22461-0.539062-0.076225-0.178443-0.154582-0.35503-0.234375-0.53125-0.102748-0.226972-0.206129-0.452757-0.314453-0.675782-0.07675-0.158062-0.15699-0.312809-0.236328-0.46875-0.118598-0.232986-0.237317-0.465386-0.361328-0.693359-0.069318-0.127554-0.142028-0.251067-0.212891-0.376953-0.141324-0.250761-0.280711-0.502281-0.427734-0.746094-0.066058-0.109734-0.136041-0.214025-0.203125-0.322266-0.132592-0.213536-0.26213-0.431157-0.398437-0.638672l-0.001954 0.001954c-0.066997-0.10222-0.137296-0.196196-0.205078-0.296875zm3.808594 8.314453c0.015081 0.059264 0.030333 0.118351 0.044922 0.177734-0.014889-0.059375-0.029533-0.118479-0.044922-0.177734zm0.044922 0.177734c0.148189 0.590954 0.275935 1.18606 0.36914 1.78711-0.09314-0.600631-0.223884-1.195874-0.36914-1.78711zm0.36914 1.78711-12.257812 12.257812-12.273438-12.273438c-0.1444125 0.918829-0.2265625 1.845636-0.2265625 2.773438 0 10 9 20 12.5 20s12.5-10 12.5-20c0-0.922768-0.10031-1.842901-0.242188-2.757812zm-22.09375-7.242188c-0.2585935 0.504608-0.4982944 1.023633-0.7285156 1.548828 0.2299753-0.5254 0.4698367-1.044053 0.7285156-1.548828zm19.816406 0.300781c0.018571 0.037426 0.038217 0.073783 0.05664 0.111328-0.018376-0.037484-0.038114-0.073961-0.05664-0.111328zm0.83789 1.867188c0.027216 0.067146 0.055355 0.133747 0.082032 0.201172 0.004309 0.010902 0.007423 0.022293 0.011718 0.033203-0.031048-0.078288-0.062127-0.156358-0.09375-0.234375zm-22.734375 3.318359c-0.1409161 0.569905-0.2620565 1.144228-0.3535156 1.722656 0.0914524-0.57841 0.2129282-1.152742 0.3535156-1.722656z" style="fill-rule:evenodd;fill:#118227"/>
 <path d="m25.730469 12.269531-8.230469 8.230469-5.5-5.5h-4.3359375c-1.1482733 2.240692-2.040788 4.702471-2.4375 7.226562l12.273438 12.273438 12.257812-12.257812c-0.56003-3.611437-2.139503-7.088829-4.027343-9.972657z" style="fill-rule:evenodd;fill:#000000;opacity:.1"/>
 <path d="m17 21c-1.108 0-2 0.892-2 2v1c0-1.108 0.892-2 2-2h23c1.108 0 2 0.892 2 2v-1c0-1.108-0.892-2-2-2h-23z" style="fill-rule:evenodd;fill:#ffffff;opacity:.2"/>
 <path d="m17.5 4c-1.368135 0-3.37573 1.541296-5.558594 4h0.058594v6h-4.3359375c-1.1482733 2.240692-2.040788 4.70247-2.4375 7.226562l12.273438 12.273438 12.257812-12.257812c-1.395638-8.999939-9.080781-17.242188-12.257812-17.242188z" style="fill-rule:evenodd;fill:#000000;opacity:.2"/>
 <path d="m9.2539062 11.269531c-0.5627449 0.859639-1.0929221 1.777517-1.5820312 2.730469h-0.0078125c-0.035915 0.070083-0.0661553 0.144333-0.1015625 0.214844-0.2172551 0.432177-0.422964 0.871187-0.6191406 1.318359-0.0382561 0.087246-0.0798103 0.172008-0.1171875 0.259766-0.2273992 0.533699-0.4374294 1.076186-0.6289063 1.626953-0.0353537 0.101591-0.0655891 0.204555-0.0996094 0.30664-0.1491712 0.448156-0.2847387 0.900735-0.40625 1.357422-0.0413176 0.154855-0.081225 0.309186-0.1191406 0.464844-0.1199286 0.494075-0.2236157 0.991381-0.3066406 1.492188-0.0104051 0.062294-0.0292593 0.123173-0.0390625 0.185546l0.0019531 0.001954c-7.073e-4 0.004539-0.001249 0.009131-0.0019531 0.013672l12.257812 12.257812 0.007813-0.007812 0.007812 0.007812 12.257812-12.257812c-7.04e-4 -0.004541-0.001245-0.009133-0.001953-0.013672l0.001953-0.001954c-0.009803-0.062373-0.028657-0.123252-0.039062-0.185546-0.083025-0.500807-0.186712-0.998113-0.306641-1.492188-0.037915-0.155658-0.077823-0.309989-0.11914-0.464844-0.121512-0.456687-0.257079-0.909266-0.40625-1.357422-0.034021-0.102085-0.064256-0.205049-0.09961-0.30664-0.191476-0.550767-0.401507-1.093254-0.628906-1.626953-0.037377-0.087758-0.078931-0.17252-0.117187-0.259766-0.196177-0.447172-0.401886-0.886182-0.619141-1.318359-0.035407-0.070511-0.065648-0.144761-0.101563-0.214844h-0.007812c-0.489109-0.952952-1.019286-1.87083-1.582031-2.730469l-2.730469 2.730469h-0.015625l-5.492187 5.492188-5.492188-5.492188h-0.015625l-2.7304688-2.730469z" style="fill-rule:evenodd;fill:#7abb2d"/>
 <path d="m17.5 5c-0.184576 0-0.383131 0.033317-0.589844 0.087891-3e-3 7.899e-4 -0.0068 0.00115-0.0098 0.00195-0.03253 0.00775-0.06429 0.01385-0.09766 0.023437-0.08197 0.025945-0.169796 0.065457-0.253906 0.095703-0.01712 0.00615-0.03557 0.015264-0.05273 0.021484-0.0057 0.00213-0.01188 0.00566-0.01758 0.00781-0.07486 0.030403-0.149502 0.063379-0.226563 0.099609-0.106453 0.04469-0.210444 0.081546-0.322265 0.1386719-0.0931 0.050032-0.18713 0.1009949-0.28125 0.1542969-0.01614 0.00912-0.03271 0.020157-0.04883 0.029297-0.200158 0.1154292-0.404648 0.2445737-0.615234 0.3886719-0.08649 0.060882-0.172236 0.1181976-0.259766 0.1816407-0.04391 0.031734-0.08875 0.067334-0.132812 0.099609-0.222943 0.1662157-0.449233 0.3448245-0.679688 0.5390625-0.05361 0.045362-0.106316 0.08626-0.160156 0.1328125-0.06278 0.054106-0.126453 0.1120798-0.189453 0.1679688-0.286513 0.2550768-0.574908 0.5249482-0.867188 0.8183593-0.06652 0.067006-0.132548 0.1360442-0.199218 0.2050782-0.318525 0.3280312-0.639981 0.6740804-0.958985 1.0429687l-2e-3 0.00195c-0.100005 0.1158547-0.199078 0.2424304-0.298828 0.3613282-0.239096 0.286444-0.47717 0.5816956-0.71289 0.8886716-0.150625 0.196666-0.298828 0.400888-0.447266 0.605469-0.1766461 0.242754-0.3507656 0.490938-0.5234376 0.744141-0.0013 2e-3 -0.00261 4e-3 -0.00391 0.0059-0.096034 0.140894-0.1964556 0.270107-0.2910156 0.414062l0.011719 0.01172 2.7305562 2.7304368 5.5 5.5 8.242189-8.242189c-0.09456-0.143955-0.194982-0.273168-0.291016-0.414062-0.0013-0.0019-0.0026-0.0039-0.0039-0.0059-0.172679-0.253161-0.346799-0.501345-0.523445-0.744099-0.148438-0.204581-0.296642-0.408803-0.447266-0.605469-0.23572-0.306976-0.473794-0.6022276-0.71289-0.8886716-0.099745-0.1188978-0.198823-0.2454734-0.298828-0.3613282l-2e-3 -0.00195c-0.318957-0.3688914-0.640413-0.7149406-0.958938-1.0429718-0.066668-0.0690342-0.1327-0.1380718-0.199218-0.2050782-0.292279-0.2934112-0.580675-0.5632825-0.867188-0.8183593-0.063002-0.0558889-0.126677-0.1138624-0.189453-0.1679688-0.053837-0.0465531-0.106548-0.0874509-0.160156-0.1328125-0.230455-0.194238-0.456745-0.3728468-0.679688-0.5390625-0.044062-0.0322754-0.088898-0.0678749-0.132812-0.0996093-0.087533-0.063443-0.173273-0.1207589-0.259766-0.1816407-0.210586-0.1440982-0.415076-0.2732427-0.615234-0.3886719-0.016117-0.0091391-0.032686-0.0201809-0.048829-0.0292968-0.094117-0.0533016-0.188152-0.1042653-0.28125-0.1542969-0.111821-0.0571256-0.215812-0.0939819-0.322265-0.1386719-0.077061-0.0362306-0.151705-0.0692064-0.226563-0.0996094-0.0057-0.00215-0.01189-0.00568-0.01758-0.00781-0.01716-0.00622-0.03561-0.015335-0.05273-0.021484-0.08411-0.030246-0.17194-0.069758-0.253906-0.095703-0.03337-0.00959-0.06513-0.015688-0.09766-0.023437-0.0032-7.681e-4 -0.0065-0.00114-0.0098-0.00195-0.206677-0.0545803-0.405232-0.0878972-0.589808-0.0878972z" style="fill-rule:evenodd;fill:#000000;opacity:.2"/>
 <path d="m17.5 4c-0.184576 0-0.383131 0.0333169-0.589844 0.0878906-0.002992 7.899e-4 -0.006769 0.0011522-0.009765 0.0019532-0.032532 0.0077499-0.064293 0.0138497-0.097657 0.0234374-0.081966 0.0259451-0.169796 0.0654572-0.253906 0.0957032-0.01712 0.006149-0.035574 0.0152644-0.052734 0.0214844-0.00569 0.0021341-0.01188 0.0056613-0.017578 0.0078124-0.074858 0.030403-0.149502 0.0633788-0.226563 0.0996094-0.106453 0.04469-0.210444 0.0815463-0.322265 0.1386719-0.093098 0.0500316-0.18713 0.1009949-0.28125 0.1542969-0.01614 0.009116-0.032709 0.0201568-0.048829 0.0292968-0.200158 0.1154292-0.404648 0.2445737-0.615234 0.3886719-0.086493 0.0608818-0.172236 0.1181976-0.259766 0.1816407-0.043912 0.0317339-0.088752 0.0673343-0.132812 0.0996093-0.222943 0.1662157-0.449233 0.3448245-0.679688 0.5390625-0.053608 0.0453615-0.106316 0.0862595-0.160156 0.1328125-0.062776 0.0541064-0.126453 0.1120798-0.189453 0.1679688-0.286513 0.2550768-0.574908 0.5249482-0.867188 0.8183593-0.066518 0.0670064-0.132548 0.1360442-0.199218 0.2050782-0.318525 0.3280312-0.639981 0.6740804-0.958985 1.0429687l-0.001953 0.0019531c-0.100005 0.1158547-0.199078 0.2424304-0.298828 0.3613282-0.239096 0.286444-0.47717 0.5816951-0.71289 0.8886718-0.150625 0.1966662-0.298828 0.400888-0.447266 0.6054688-0.1766461 0.242754-0.3507656 0.490938-0.5234376 0.744141-0.0013 2e-3 -0.0026063 0.003959-0.0039063 0.005859-0.096034 0.140894-0.1964556 0.270107-0.2910156 0.414062l0.0117187 0.011719 2.7304688 2.730469 5.5 5.5 8.242188-8.242188c-0.09456-0.143955-0.194982-0.273168-0.291016-0.414062-0.001309-0.001929-0.002596-0.003932-0.003906-0.005859-0.172672-0.253203-0.346792-0.501387-0.523438-0.744141-0.148438-0.2045806-0.296642-0.4088026-0.447266-0.6054688-0.23572-0.3069767-0.473794-0.6022278-0.71289-0.8886718-0.099745-0.1188978-0.198823-0.2454734-0.298828-0.3613282l-0.001953-0.0019531c-0.319004-0.3688883-0.64046-0.7149375-0.958985-1.0429687-0.066668-0.0690342-0.1327-0.1380718-0.199218-0.2050782-0.292279-0.2934112-0.580675-0.5632825-0.867188-0.8183593-0.063002-0.0558889-0.126677-0.1138624-0.189453-0.1679688-0.053837-0.0465531-0.106548-0.0874509-0.160156-0.1328125-0.230455-0.194238-0.456745-0.3728468-0.679688-0.5390625-0.044062-0.0322754-0.088898-0.0678749-0.132812-0.0996093-0.087533-0.063443-0.173273-0.1207589-0.259766-0.1816407-0.210586-0.1440982-0.415076-0.2732427-0.615234-0.3886719-0.016117-0.0091391-0.032686-0.0201809-0.048829-0.0292968-0.094117-0.0533016-0.188152-0.1042653-0.28125-0.1542969-0.111821-0.0571256-0.215812-0.0939819-0.322265-0.1386719-0.077061-0.0362306-0.151705-0.0692064-0.226563-0.0996094-0.005698-0.0021511-0.011888-0.0056783-0.017578-0.0078124-0.01716-0.0062183-0.035605-0.015335-0.052734-0.0214844-0.084106-0.0302458-0.17194-0.0697576-0.253906-0.0957032-0.033368-0.0095878-0.065126-0.0156877-0.097657-0.0234374-0.003224-7.681e-4 -0.006525-0.0011387-0.009765-0.0019532-0.206713-0.0545737-0.405268-0.0878906-0.589844-0.0878906z" style="fill-rule:evenodd;fill:#a5f775"/>
 <path d="m17.5 4c-0.184576 0-0.383131 0.0333169-0.589844 0.0878906-0.002992 7.899e-4 -0.006769 0.0011522-0.009765 0.0019532-0.032532 0.0077499-0.064293 0.0138497-0.097657 0.0234374-0.081966 0.0259451-0.169796 0.0654572-0.253906 0.0957032-0.01712 0.006149-0.035574 0.0152644-0.052734 0.0214844-0.00569 0.0021341-0.01188 0.0056613-0.017578 0.0078124-0.074858 0.030403-0.149502 0.0633788-0.226563 0.0996094-0.106453 0.04469-0.210445 0.0815463-0.322265 0.1386719-0.093099 0.0500316-0.187131 0.1009949-0.28125 0.1542969-0.016141 0.009116-0.032709 0.0201568-0.048829 0.0292968-0.200158 0.1154292-0.404648 0.2445737-0.615234 0.3886719-0.086493 0.0608818-0.172236 0.1181975-0.259766 0.1816407-0.043912 0.0317338-0.088752 0.0673343-0.132812 0.0996093-0.222943 0.1662157-0.449233 0.3448245-0.679688 0.5390625-0.053608 0.0453615-0.106316 0.0862595-0.160156 0.1328125-0.062776 0.0541064-0.126453 0.1120798-0.189453 0.1679688-0.286513 0.2550768-0.574908 0.5249483-0.867188 0.8183593-0.066518 0.0670064-0.132548 0.1360442-0.199218 0.2050782-0.318525 0.3280312-0.639981 0.6740804-0.958985 1.0429687l-0.001953 0.0019531c-0.100005 0.1158547-0.199078 0.2424304-0.298828 0.3613282-0.239096 0.286444-0.47717 0.5816952-0.71289 0.8886718-0.150625 0.1966663-0.298828 0.400888-0.447266 0.6054688-0.1766462 0.242754-0.3507656 0.490938-0.5234376 0.744141-0.0013 2e-3 -0.0026063 0.003959-0.0039063 0.005859-0.096034 0.140894-0.1964556 0.270108-0.2910156 0.414062l0.0117187 0.011719 0.4003907 0.400391c0.1343487-0.194437 0.2693691-0.388065 0.4062501-0.576172 0.148438-0.204581 0.296641-0.408803 0.447266-0.605469 0.235719-0.306976 0.473794-0.6022276 0.71289-0.8886716 0.09975-0.1188978 0.198823-0.2454735 0.298828-0.3613282l0.001953-0.0019531c0.319004-0.3688883 0.64046-0.7149375 0.958985-1.0429687 0.06667-0.069034 0.132698-0.1380722 0.199218-0.2050782 0.29228-0.2934111 0.580675-0.5632825 0.867188-0.8183593 0.063-0.055889 0.126673-0.1138628 0.189453-0.1679688 0.05384-0.0465525 0.106546-0.0874505 0.160156-0.1328125 0.230455-0.194238 0.456745-0.3728468 0.679688-0.5390625 0.044062-0.032275 0.088902-0.0678753 0.132812-0.0996093 0.08753-0.0634432 0.173276-0.1207587 0.259766-0.1816407 0.210586-0.1440982 0.415076-0.2732426 0.615234-0.3886719 0.01612-0.0091399 0.032688-0.0201768 0.048829-0.0292968 0.094119-0.053302 0.18815-0.1042649 0.28125-0.1542969 0.11182-0.0571259 0.215812-0.0939819 0.322265-0.1386719 0.077061-0.03623 0.151703-0.0692064 0.226563-0.0996094 0.0057-0.0021499 0.011878-0.0056824 0.017578-0.0078124 0.01716-0.0062201 0.035614-0.0153344 0.052734-0.0214844 0.08411-0.030246 0.171936-0.0697581 0.253906-0.0957032 0.03337-0.0095869 0.065127-0.0156875 0.097657-0.0234374 3e-3 -8e-4 0.006765-0.0011633 0.009765-0.0019532 0.206713-0.054574 0.405268-0.0878906 0.589844-0.0878906s0.383167 0.0333103 0.589844 0.0878906c0.0033 8.1e-4 0.006565 0.001185 0.009765 0.0019532 0.03253 0.007749 0.064287 0.0138474 0.097657 0.0234374 0.081966 0.0259451 0.169796 0.0654572 0.253906 0.0957032 0.01712 0.006149 0.035574 0.0152644 0.052734 0.0214844 0.00569 0.00213 0.011878 0.0056624 0.017578 0.0078124 0.074858 0.030403 0.149502 0.0633788 0.226563 0.0996094 0.106453 0.04469 0.210444 0.0815463 0.322265 0.1386719 0.093098 0.0500316 0.187133 0.1009953 0.28125 0.1542969 0.016143 0.0091159 0.032712 0.0201577 0.048829 0.0292968 0.200158 0.1154292 0.404648 0.2445737 0.615234 0.3886719 0.086493 0.0608818 0.172233 0.1181977 0.259766 0.1816407 0.043914 0.0317344 0.08875 0.0673339 0.132812 0.0996093 0.222943 0.1662157 0.449233 0.3448245 0.679688 0.5390625 0.053608 0.0453616 0.106319 0.0862594 0.160156 0.1328125 0.062776 0.0541064 0.126451 0.1120799 0.189453 0.1679688 0.286513 0.2550768 0.574909 0.5249481 0.867188 0.8183593 0.066518 0.0670065 0.13255 0.136044 0.199218 0.2050782 0.318525 0.3280312 0.640028 0.6740773 0.958985 1.0429687l0.001953 0.0019531c0.100005 0.1158549 0.199083 0.2424304 0.298828 0.3613282 0.239096 0.286444 0.47717 0.5816956 0.71289 0.8886716 0.150624 0.196666 0.298828 0.400888 0.447266 0.605469 0.136881 0.188107 0.271898 0.381755 0.40625 0.576172l0.41211-0.41211c-0.09456-0.143955-0.194982-0.273168-0.291016-0.414062-0.001309-0.001929-0.002596-0.003932-0.003906-0.005859-0.172672-0.253203-0.346792-0.501387-0.523438-0.744141-0.148438-0.2045806-0.296642-0.4088026-0.447266-0.6054688-0.23572-0.3069766-0.473794-0.6022278-0.71289-0.8886718-0.099745-0.1188978-0.198823-0.2454733-0.298828-0.3613282l-0.001953-0.0019531c-0.319004-0.3688883-0.64046-0.7149375-0.958985-1.0429687-0.066668-0.0690342-0.1327-0.1380717-0.199218-0.2050782-0.292279-0.2934112-0.580675-0.5632825-0.867188-0.8183593-0.063002-0.0558889-0.126677-0.1138624-0.189453-0.1679688-0.053837-0.0465531-0.106548-0.0874509-0.160156-0.1328125-0.230455-0.194238-0.456745-0.3728468-0.679688-0.5390625-0.044062-0.0322754-0.088898-0.0678749-0.132812-0.0996093-0.087533-0.063443-0.173273-0.1207589-0.259766-0.1816407-0.210586-0.1440982-0.415076-0.2732427-0.615234-0.3886719-0.016117-0.0091391-0.032686-0.0201809-0.048829-0.0292968-0.094117-0.0533016-0.188152-0.1042653-0.28125-0.1542969-0.111821-0.0571256-0.215812-0.0939819-0.322265-0.1386719-0.077061-0.0362306-0.151705-0.0692064-0.226563-0.0996094-0.005698-0.0021511-0.011888-0.0056783-0.017578-0.0078124-0.01716-0.0062183-0.035605-0.015335-0.052734-0.0214844-0.084106-0.0302458-0.17194-0.0697576-0.253906-0.0957032-0.033368-0.0095878-0.065126-0.0156877-0.097657-0.0234374-0.003224-7.681e-4 -0.006525-0.0011387-0.009765-0.0019532-0.206713-0.0545737-0.405268-0.0878906-0.589844-0.0878906z" style="fill-rule:evenodd;fill:#ffffff;opacity:.2"/>
</svg>
