<svg width="48" height="48" version="1" xmlns="http://www.w3.org/2000/svg">
 <rect transform="matrix(0,-1,-1,0,0,0)" x="-40" y="-44" width="32" height="40" rx="2" ry="2" style="fill:#f4b504"/>
 <rect transform="matrix(0,-1,-1,0,0,0)" x="-37" y="-41" width="26" height="34" rx="0" ry="0" style="fill:#18a15f"/>
 <g transform="translate(5,15)" style="opacity:.5">
  <path d="m12 5c-1.6572 0-3 1.3434-3 3s1.3428 3 3 3 3-1.3434 3-3-1.3428-3-3-3z" style="fill:#ffffff"/>
  <path d="m12 12.000001c-4.9995 0.0032-5 3.446153-5 3.446153v1.4s0.923071 2.153846 5 2.153846 5-2.153846 5-2.153846v-1.4s0-3.448307-4.999-3.446153z" style="fill:#ffffff"/>
 </g>
 <g transform="translate(19,15)" style="opacity:.5">
  <path d="m12 5c-1.6572 0-3 1.3434-3 3s1.3428 3 3 3 3-1.3434 3-3-1.3428-3-3-3z" style="fill:#ffffff"/>
  <path d="m12 12.000001c-4.9995 0.0032-5 3.446153-5 3.446153v1.4s0.923071 2.153846 5 2.153846 5-2.153846 5-2.153846v-1.4s0-3.448307-4.999-3.446153z" style="fill:#ffffff"/>
 </g>
 <path d="m6 8c-1.108 0-2 0.892-2 2v1c0-1.108 0.892-2 2-2h36c1.108 0 2 0.892 2 2v-1c0-1.108-0.892-2-2-2h-36z" fill="#fff" style="opacity:.2"/>
 <path d="m4 38v1c0 1.108 0.892 2 2 2h36c1.108 0 2-0.892 2-2v-1c0 1.108-0.892 2-2 2h-36c-1.108 0-2-0.892-2-2z" opacity=".2"/>
 <g transform="translate(8,10)" style="fill:#000000;opacity:.2">
  <path d="m16 6c-2.2096 0-4 1.7912-4 4s1.7904 4 4 4 4-1.7912 4-4-1.7904-4-4-4z" style="fill:#000000"/>
  <path d="m16 16.000001c-6.9993 0.0042-7 4.430769-7 4.430769v1.8s1.292299 2.76923 7 2.76923 7-2.76923 7-2.76923v-1.8s0-4.433538-6.9986-4.430769z" style="fill:#000000"/>
 </g>
 <g transform="translate(8,9)">
  <path d="m16 6c-2.2096 0-4 1.7912-4 4s1.7904 4 4 4 4-1.7912 4-4-1.7904-4-4-4z" style="fill:#ffffff"/>
  <path d="m16 16.000001c-6.9993 0.0042-7 4.430769-7 4.430769v1.8s1.292299 2.76923 7 2.76923 7-2.76923 7-2.76923v-1.8s0-4.433538-6.9986-4.430769z" style="fill:#ffffff"/>
 </g>
 <rect x="30" y="36" width="8" height="2" rx="1" ry="1" style="fill:#000000;opacity:.2"/>
 <rect x="30" y="35" width="8" height="2" rx="1" ry="1" style="fill:#ffffff"/>
</svg>
