<svg width="48" height="48" version="1" xmlns="http://www.w3.org/2000/svg">
 <path d="m23.5 4c-2.493 0-4.5 2.007-4.5 4.5v4.5h-9c-1.662 0-3 1.338-3 3v9h4.5c2.493 0 4.5 2.007 4.5 4.5s-2.007 4.5-4.5 4.5h-4.5v9c0 1.662 1.338 3 3 3h27c1.662 0 3-1.338 3-3v-27c0-1.662-1.338-3-3-3h-9v-4.5c0-2.493-2.007-4.5-4.5-4.5z" style="fill:#000000;opacity:.2"/>
 <path d="m23.5 3c-2.493 0-4.5 2.007-4.5 4.5v4.5h-4.8c-1.662 0-3.018466 1.338103-3 3l0.2886 7.629149 4.2114 1.370851c2.370573 0.771644 4.5 2.007 4.5 4.5s-2.007 4.5-4.5 4.5l-4.13925 1.298701-0.36075 7.701299c-0.07777 1.66018 1.338 3 3 3l2.525031-1.370851 13.209067-1.226552 5.0457 0.07215c1.66183 0.02376 1.862488 0.200917 2.63925-1.268398l1.298701-3.132938 0.50505-16.985388 0.577201-1.861192v-4.226831c0-1.662-1.338-3-3-3h-9v-4.5c0-2.493-2.007-4.5-4.5-4.5z" style="fill:#5e973d"/>
 <path d="m31.070312 27.972656-17.029296 17.027344h22.958984c1.662 0 3-1.338 3-3v-5.097656l-8.929688-8.929688z" style="fill-rule:evenodd;fill:#d03c53"/>
 <path d="m23.5 3c-2.493 0-4.5 2.007-4.5 4.5v1c0-2.493 2.007-4.5 4.5-4.5s4.5 2.007 4.5 4.5v-1c0-2.493-2.007-4.5-4.5-4.5zm-13.5 9c-1.662 0-3 1.338-3 3v1c0-1.662 1.338-3 3-3h9v-1h-9zm18 0v1h9c1.662 0 3 1.338 3 3v-1c0-1.662-1.338-3-3-3h-9zm-12.050781 17c-0.250526 2.252432-2.127789 4-4.449219 4h-4.5v1h4.5c2.493 0 4.5-2.007 4.5-4.5 0-0.17157-0.032266-0.33353-0.050781-0.5z" style="fill:#ffffff;opacity:.1"/>
 <path d="m10 12c-1.662 0-3 1.338-3 3v9h4.5c2.493 0 4.5 2.007 4.5 4.5s-2.007 4.5-4.5 4.5h-4.5v9c0 1.662 1.338 3 3 3h4.041016l17.029296-17.027344-15.972656-15.972656h-5.097656z" style="fill-rule:evenodd;fill:#2fc0bc"/>
 <path d="m40 19.041016-8.929688 8.93164 8.929688 8.929688v-17.861328z" style="fill-rule:evenodd;fill:#ff9243"/>
 <path d="m10 12c-1.662 0-3 1.338-3 3v1c0-1.662 1.338-3 3-3h5.097656l15.472656 15.472656 0.5-0.5-15.972656-15.972656h-5.097656zm5.949219 17c-0.250526 2.252432-2.127789 4-4.449219 4h-4.5v1h4.5c2.493 0 4.5-2.007 4.5-4.5 0-0.17157-0.032266-0.33353-0.050781-0.5z" style="fill-rule:evenodd;fill:#ffffff;opacity:.2"/>
 <path d="m40 19.041016-8.929688 8.93164 0.5 0.5 8.429688-8.43164v-1z" style="fill-rule:evenodd;fill:#ffffff;opacity:.2"/>
 <path d="m31.070312 27.972656-0.5 0.5-16.529296 16.527344h1l16.029296-16.027344 8.929688 8.929688v-1l-8.929688-8.929688z" style="fill-rule:evenodd;fill:#000000;opacity:.2"/>
</svg>
