<svg width="48" height="48" version="1" xmlns="http://www.w3.org/2000/svg">
 <path d="m26.519531 25-0.683593 1.78125c-0.199992 0.380988-0.374487 0.794338-0.535157 1.21875l-5.18164 13.685547-1.271485 3.314453h14.152344c1.662 0 2.411569-1.445654 3-3l5.300781-14c0.588431-1.554346-1.338-3-3-3h-11.78125z" style="fill:#000000;opacity:.2"/>
 <path d="m26.519531 24-0.683593 1.78125c-0.199992 0.380988-0.374487 0.794338-0.535157 1.21875l-5.18164 13.685547-1.271485 3.314453h14.152344c1.662 0 2.411569-1.445654 3-3l5.300781-14c0.588431-1.554346-1.338-3-3-3h-11.78125z" style="fill:#4989f4"/>
 <path d="m26.519531 24-0.683593 1.78125c-0.199992 0.380988-0.374487 0.794338-0.535157 1.21875l-5.18164 13.685547-1.271485 3.314453h0.382813l0.888672-2.314453 5.18164-13.685547c0.16067-0.424412 0.335164-0.837762 0.535157-1.21875l0.683593-1.78125h11.78125c1.264887 0 2.675441 0.838494 3.021485 1.923828 0.498048-1.524882-1.386845-2.923828-3.021485-2.923828h-11.78125z" style="fill:#ffffff;opacity:.1"/>
 <path d="m20 5c-1.662 0-2.406438 1.4476059-3 3l-13 34c-0.5935625 1.552394 1.338 3 3 3h11.847656l1.136719-2.962891c0.004903-0.012753 0.010743-0.024341 0.015625-0.037109l0.464844-1.216797 0.128906-0.335937 13.595703-35.447266h-14.189453z" style="fill:#000000;opacity:.2"/>
 <path d="m20 4c-1.662 0-2.406438 1.4476059-3 3l-13 34c-0.5935625 1.552394 1.338 3 3 3h11.847656l1.136719-2.962891c0.004903-0.012753 0.010743-0.024341 0.015625-0.037109l0.464844-1.216797 0.128906-0.335937 13.595703-35.447266h-14.189453z" style="fill:#f5b912"/>
 <path d="m20 4c-1.662 0-2.406438 1.4476059-3 3l-13 34c-0.1425711 0.372878-0.1335069 0.7379-0.0234375 1.080078 0.0087946-0.026871 0.0131364-0.053137 0.0234375-0.080078l13-34c0.593562-1.5523941 1.338-3 3-3h13.806641l0.382812-1h-14.189453z" style="fill:#ffffff;opacity:.2"/>
</svg>
