<svg width="48" height="48" version="1" xmlns="http://www.w3.org/2000/svg">
 <path d="m19.899 5.0008998c-0.425 0.0462-0.799 0.3931-0.877 0.8125l-0.845 4.2812002c-1.517 0.5923-2.943 1.4062-4.195 2.4062l-3.773598-1.274513-0.4372505 0.294449c-0.4326-0.1489-0.2943212 0.706979-0.5267212 1.100279l-3.2022758 6.559012c-0.2257 0.399-0.8864757 0.619561-0.5383757 0.918561l2.6555212 2.527212c-0.11686 0.77924-0.18783 1.5632-0.18783 2.375 0 0.81174 0.071027 1.5957 0.18783 2.375l-2.8922636 3.000697c-0.3481 0.299 0.928206 0.424864 1.153906 0.823864l3.8650546 6.179824c0.2324 0.39342 0.236227 1.343956 0.668767 1.195066l3.027336-1.074761c1.2514 0.99995 2.6776 1.8138 4.195 2.4062l0.892608 3.192185c0.08565 0.44814 1.128991 0.522189 1.586011 0.528389l6.357103 0.142045c0.45701-6e-3 0.790093 0.109145 0.875783-0.338995l1.934275-3.523624c1.5174-0.59236 2.9436-1.4063 4.195-2.4062l4.1637 1.4062c0.43256 0.14889 0.95722-0.0441 1.1896-0.43749l4.0071-6.9374c0.22571-0.399 0.1289-0.95119-0.21914-1.25l-3.317-2.906c0.11686-0.77924 0.18784-1.5632 0.18784-2.375 0-0.81174-0.07103-1.5957-0.18784-2.375l3.3184-2.9062c0.34804-0.29878 0.44485-0.85097 0.21914-1.25l-4.007-6.9378c-0.232-0.3934-0.757-0.5863-1.189-0.4374l-4.1637 1.4062c-1.252-1-2.678-1.8139-4.195-2.4062l-0.845-4.2812002c-0.086-0.4481-0.514-0.8063-0.971-0.8125h-8.0143c-0.03126-1e-3 -0.06261-1e-3 -0.09387 0z" style="fill:#000000;opacity:.2"/>
 <path d="m19.899 4.0009c-0.425 0.0462-0.799 0.3931-0.877 0.8125l-0.845 4.2812c-1.517 0.5923-2.943 1.4062-4.195 2.4062l-3.773598-1.274513-0.4372505 0.294449c-0.4326-0.1489-0.2943212 0.706979-0.5267212 1.100279l-3.2022758 6.559012c-0.2257 0.399-0.8864757 0.619561-0.5383757 0.918561l2.6555212 2.527212c-0.11686 0.77924-0.18783 1.5632-0.18783 2.375 0 0.81174 0.071027 1.5957 0.18783 2.375l-2.8922636 3.000697c-0.3481 0.299 0.928206 0.424864 1.153906 0.823864l3.8650546 6.179824c0.2324 0.39342 0.236227 1.343956 0.668767 1.195066l3.027336-1.074761c1.2514 0.99995 2.6776 1.8138 4.195 2.4062l0.892608 3.192185c0.08565 0.44814 1.128991 0.522189 1.586011 0.528389l6.357103 0.142045c0.45701-6e-3 0.790093 0.109145 0.875783-0.338995l1.934275-3.523624c1.5174-0.59236 2.9436-1.4063 4.195-2.4062l4.1637 1.4062c0.43256 0.14889 0.95722-0.0441 1.1896-0.43749l4.0071-6.9374c0.22571-0.399 0.1289-0.95119-0.21914-1.25l-3.317-2.906c0.11686-0.77924 0.18784-1.5632 0.18784-2.375 0-0.81174-0.07103-1.5957-0.18784-2.375l3.3184-2.9062c0.34804-0.29878 0.44485-0.85097 0.21914-1.25l-4.007-6.9378c-0.232-0.3934-0.757-0.5863-1.189-0.4374l-4.1637 1.4062c-1.252-1-2.678-1.8139-4.195-2.4062l-0.845-4.2812c-0.086-0.4481-0.514-0.8063-0.971-0.8125h-8.0143c-0.03126-1e-3 -0.06261-1e-3 -0.09387 0z" style="fill:#3b89f0"/>
 <path d="m19.898438 4c-0.425001 0.0462-0.798954 0.3931-0.876954 0.8125l-0.84375 4.28125c-1.517 0.5923-2.943312 1.40625-4.195312 2.40625l-3.773438-1.273438-0.4374996 0.294922c-0.4326-0.1489-0.2949438 0.70631-0.5273438 1.09961l-3.2011718 6.558594c-0.2257 0.399-0.8871625 0.618968-0.5390626 0.917968l0.3359376 0.320313c0.077-0.073667 0.153128-0.149895 0.203125-0.238281l3.2011718-6.558594c0.2324-0.3933 0.0947438-1.24851 0.5273438-1.09961l0.4374996-0.294922 3.773438 1.273438c1.252-1 2.678312-1.81395 4.195312-2.40625l0.84375-4.28125c0.078-0.4194 0.451953-0.7663 0.876954-0.8125h0.001953c0.03126-1e-3 0.06249-1e-3 0.09375 0h8.015625c0.457 0.0062 0.884703 0.3644 0.970703 0.8125l0.84375 4.28125c1.517 0.5923 2.943312 1.40625 4.195312 2.40625l4.164063-1.40625c0.432-0.1489 0.957453 0.0441 1.189453 0.4375l3.998047 6.925781c0.164738-0.300402 0.177552-0.6882 0.007812-0.988281l-4.005859-6.9375c-0.232-0.3934-0.757453-0.5864-1.189453-0.4375l-4.164063 1.40625c-1.252-1-2.678312-1.81395-4.195312-2.40625l-0.84375-4.28125c-0.086-0.4481-0.513703-0.8063-0.970703-0.8125h-8.015625c-0.03126-1e-3 -0.06249-1e-3 -0.09375 0h-0.001953zm-11.84375 18.523438c-0.0482855 0.485856-0.0839844 0.974898-0.0839844 1.476562 0 0.168952 0.0155582 0.333246 0.0214844 0.5 0.0225592-0.634168 0.0754711-1.258212 0.1679687-1.875l-0.1054687-0.101562zm31.894532 0.007812-0.107422 0.09375c0.09246 0.616851 0.145397 1.240844 0.167969 1.875 0.005922-0.166746 0.019531-0.331051 0.019531-0.5 0-0.498888-0.032281-0.985481-0.080078-1.46875zm0 3.9375c-0.029994 0.303556-0.062309 0.605431-0.107422 0.90625l3.316406 2.90625c0.08701 0.074703 0.158398 0.165603 0.212891 0.265625l0.007812-0.015625c0.22571-0.399 0.127337-0.95119-0.220703-1.25l-3.208984-2.8125zm-31.894532 0.015625-2.7871094 2.892578c-0.2064259 0.177309 0.1569475 0.296709 0.5351563 0.445313l2.3574218-2.447266c-0.0443127-0.295651-0.0757118-0.59237-0.1054687-0.890625z" style="fill:#ffffff;opacity:.1"/>
 <path d="m24 17c4.4183 0 8 3.5817 8 8s-3.5817 8-8 8-8-3.5817-8-8 3.5817-8 8-8z" opacity=".2"/>
 <path d="m24 16c4.4183 0 8 3.5817 8 8s-3.5817 8-8 8-8-3.5817-8-8 3.5817-8 8-8z" fill="#fff"/>
 <path d="m38.160329 39.123943-28.284272-28.284272c-7.8347431 7.834743-7.8347431 20.449528 0 28.284272 7.8347437 7.834743 20.449528 7.834743 28.284272 0z" style="fill:#000000;opacity:.2"/>
 <path d="m38.160329 38.123943-28.284272-28.284272c-7.8347431 7.8347429-7.8347431 20.449528 0 28.284272 7.8347437 7.834743 20.449528 7.834743 28.284272 0z" style="fill:#e4e4e4"/>
 <path d="m9.8756148 9.8392287c-4.0452791 4.0452793-5.9836464 9.3645853-5.8515625 14.642578 0.1237312-4.944223 2.0620985-9.853114 5.8515625-13.642578l27.771484 27.771484c0.172113-0.160631 0.345852-0.318507 0.513672-0.486328z" style="fill:#ffffff;opacity:.2"/>
</svg>
