<svg width="48" height="48" version="1" xmlns="http://www.w3.org/2000/svg">
 <rect transform="matrix(0,-1,-1,0,0,0)" x="-44" y="-44" width="40" height="40" rx="20" ry="20" fill="#e05048" style="fill:#de5246"/>
 <path d="m24 4c-11.08 0-20 8.92-20 20 0 0.168-4e-3 0.333 0 0.5 0.2644-10.846 9.088-19.5 20-19.5s19.736 8.654 20 19.5c4e-3 -0.167 0-0.332 0-0.5 0-11.08-8.92-20-20-20z" fill="#fff" opacity=".2"/>
 <path d="m4.0117 24.5c-0.0041 0.167-0.0117 0.332-0.0117 0.5 0 11.08 8.92 20 20 20s20-8.92 20-20c0-0.168-8e-3 -0.333-0.012-0.5-0.264 10.846-9.076 19.5-19.988 19.5s-19.724-8.654-19.988-19.5z" opacity=".2"/>
 <path d="M 24.230469,14 C 19.922349,14 16.0835,16.479844 14.205078,20.089844 13.439416,21.569844 13,23.23 13,25 c 0,1.817829 0.468709,3.524531 1.273438,5.033203 l -0.0078,0.0059 C 16.164465,33.579061 19.963184,36 24.230469,36 27.058312,36 29.579676,34.929688 31.478516,33.179688 33.652982,31.169649 35,28.25 35,25 35,24.29 34.929151,23.67 34.806641,23 H 24 v 4 h 6.630859 c -0.418562,1.44 -1.286923,2.749609 -2.460937,3.599609 l 0.0078,0.0059 C 26.971464,31.507738 25.506342,31.996784 24,32 21.117182,31.999711 18.529351,30.232109 17.480469,27.546875 17.163172,26.735226 17.000223,25.871465 17,25 17.00277,24.151964 17.159615,23.311489 17.462891,22.519531 18.492604,19.802185 21.094098,18.003602 24,18 c 1.743007,0.0031 3.422155,0.65638 4.708984,1.832031 l 2.91211,-2.892578 C 29.701837,15.119453 27.129773,14 24.230469,14 Z" style="fill:#000000;opacity:.2"/>
 <path d="M 24.230469,13 C 19.922349,13 16.0835,15.479844 14.205078,19.089844 13.439416,20.569844 13,22.23 13,24 c 0,1.817829 0.468709,3.524531 1.273438,5.033203 l -0.0078,0.0059 C 16.164465,32.579061 19.963184,35 24.230469,35 27.058312,35 29.579676,33.929688 31.478516,32.179688 33.652982,30.169649 35,27.25 35,24 35,23.29 34.929151,22.67 34.806641,22 H 24 v 4 h 6.630859 c -0.418562,1.44 -1.286923,2.749609 -2.460937,3.599609 l 0.0078,0.0059 C 26.971477,30.507715 25.506351,30.996775 24,31 21.117182,30.999711 18.529351,29.232109 17.480469,26.546875 17.163172,25.735226 17.000223,24.871465 17,24 17.00277,23.151964 17.159615,22.311489 17.462891,21.519531 18.492604,18.802185 21.094098,17.003602 24,17 c 1.743007,0.0031 3.422155,0.65638 4.708984,1.832031 l 2.91211,-2.892578 C 29.701837,14.119453 27.129773,13 24.230469,13 Z" style="fill:#ffffff"/>
 <circle cx="36" cy="37" r="11" style="opacity:.2"/>
 <circle cx="36" cy="36" r="11" style="fill:#05ab5f"/>
 <rect x="34" y="29" width="4" height="14" style="fill:#ffffff;stroke-width:1.3146659"/>
 <rect transform="rotate(90)" x="34" y="-43" width="4" height="14" style="fill:#ffffff;stroke-width:1.3146659"/>
</svg>
