<svg width="48" height="48" version="1" xmlns="http://www.w3.org/2000/svg">
 <path d="m10 5c-1.108 0-2 0.892-2 2v36c0 1.108 0.892 2 2 2h28c1.108 0 2-0.892 2-2v-26l-11-1-1-11z" style="fill:#000000;opacity:.2"/>
 <path d="m10 4c-1.108 0-2 0.892-2 2v36c0 1.108 0.892 2 2 2h28c1.108 0 2-0.892 2-2v-26l-11-1-1-11z" fill="#528ff5" style="fill:#f5ba14"/>
 <path d="m10 4c-1.108 0-2 0.892-2 2v1c0-1.108 0.892-2 2-2h18l11 11h1l-12-12z" fill="#fff" opacity=".1" style="opacity:.2"/>
 <path d="m28 5v10c0 1.1046 0.89543 2 2 2h10l-12-12z" style="fill:#000000;opacity:.2"/>
 <path d="m28 4v10c0 1.1046 0.89543 2 2 2h10l-12-12z" fill="#a5c5f9" style="fill:#fadc86"/>
 <path d="m18 23c-1.108 0-2 0.892-2 2v12c0 1.108 0.892 2 2 2h12c1.108 0 2-0.892 2-2v-12c0-1.108-0.892-2-2-2h-12zm0 4h12v8h-12v-8z" style="fill-rule:evenodd;fill:#000000;opacity:.2"/>
 <path d="m18 22c-1.108 0-2 0.892-2 2v12c0 1.108 0.892 2 2 2h12c1.108 0 2-0.892 2-2v-12c0-1.108-0.892-2-2-2h-12zm0 4h12v8h-12v-8z" style="fill-rule:evenodd;fill:#ffffff"/>
</svg>
