<svg width="48" height="48" version="1" xmlns="http://www.w3.org/2000/svg">
 <path d="m44 41v-32c0-1.108-0.892-2-2-2h-36c-1.108 0-2 0.892-2 2v32c0 1.108 0.892 2 2 2h36c1.108 0 2-0.892 2-2z" style="fill:#000000;opacity:.2"/>
 <path d="m44 40v-32c0-1.108-0.892-2-2-2h-36c-1.108 0-2 0.892-2 2v32c0 1.108 0.892 2 2 2h36c1.108 0 2-0.892 2-2z" style="fill:#6992a8"/>
 <path d="m6 6c-1.108 0-2 0.892-2 2v1c0-1.108 0.892-2 2-2h36c1.108 0 2 0.892 2 2v-1c0-1.108-0.892-2-2-2z" style="fill:#ffffff;opacity:.1"/>
 <path d="m11 30 8-10 8 6 10-8" style="fill:none;stroke-width:2;stroke:#ffffff"/>
 <g transform="translate(0,1)" style="fill:#000000;opacity:.2">
  <circle cx="11" cy="30" r="3" style="fill:#000000;stroke-width:.75"/>
  <circle cx="19" cy="20" r="3" style="fill:#000000;stroke-width:.75"/>
  <circle cx="27" cy="26" r="3" style="fill:#000000;stroke-width:.75"/>
  <circle cx="37" cy="18" r="3" style="fill:#000000;stroke-width:.75"/>
 </g>
 <g style="fill:#394951">
  <circle cx="11" cy="30" r="3" style="fill:#394951;stroke-width:.75"/>
  <circle cx="19" cy="20" r="3" style="fill:#394951;stroke-width:.75"/>
  <circle cx="27" cy="26" r="3" style="fill:#394951;stroke-width:.75"/>
  <circle cx="37" cy="18" r="3" style="fill:#394951;stroke-width:.75"/>
 </g>
</svg>
