<!-- Created with Inkscape (http://www.inkscape.org/) -->
<svg width="48" height="48" version="1.1" viewBox="0 0 48 48.000001" xmlns="http://www.w3.org/2000/svg">
 <g transform="translate(0,-1004.3622)">
  <path d="m8.9472656 1009.3638a2.8798336 2.8317324 0 0 0-1.8847656 0.6387h-0.00195a2.8798336 2.8317324 0 0 0-0.074219 0.066 2.8798336 2.8317324 0 0 0-0.013672 0.012 2.8798336 2.8317324 0 0 0-0.972659 2.1154v34.3398a2.8798336 2.8317324 0 0 0 1.0390625 2.168h-0.00195a2.8798336 2.8317324 0 0 0 0.029297 0.022 2.8798336 2.8317324 0 0 0 0.1542969 0.1172h0.00195a2.8798336 2.8317324 0 0 0 3.0957026 0.1445l15.121094-8.586 7.943359-4.5078h-2e-3l7.181641-4.0742a2.8798336 2.8317324 0 0 0 0-4.9043l-7.203125-4.0879-0.103516-0.059-7.816406-4.4375-15.121094-8.586a2.8798336 2.8317324 0 0 0-1.3710932-0.3789z" style="fill:#000000;opacity:.2"/>
  <path d="m7.0605866 1008.9998a2.8798336 2.8317324 0 0 0-1.060586 2.1935v34.3399a2.8798336 2.8317324 0 0 0 1.2211095 2.3092l19.66614-19.3379v-0.3187l-19.826663-19.186z" style="fill:#4ac0ed"/>
  <path d="m33.256064 1021.764-6.530876 6.4218v0.4781l6.451384 6.3436 7.385123-4.1928a2.8798336 2.8317324 0 0 0 0-4.9029l-7.305631-4.1478z" style="fill:#ffd530"/>
  <path d="m26.725188 1028.3452-19.688193 19.3593a2.8798336 2.8317324 0 0 0 3.2817646 0.2802l15.121553-8.585 7.941743-4.5088-6.656868-6.5457z" style="fill:#e54257"/>
  <path d="m8.947896 1008.3629a2.8798336 2.8317324 0 0 0-1.9760333 0.7144l19.753325 19.2679 6.633618-6.5228-7.918493-4.4956-15.121553-8.585a2.8798336 2.8317324 0 0 0-1.370864-0.3789z" style="fill:#4c9946"/>
  <path d="m8.9472656 1008.3642a2.8798336 2.8317324 0 0 0-1.8847656 0.6386h-0.00195a2.8798336 2.8317324 0 0 0-0.074222 0.066 2.8798336 2.8317324 0 0 0-0.013672 0.012 2.8798336 2.8317324 0 0 0-0.972656 2.1154v1a2.8798336 2.8317324 0 0 1 0.9726562-2.1152 2.8798336 2.8317324 0 0 1 0.013672-0.012 2.8798336 2.8317324 0 0 1 0.074219-0.066h0.00195a2.8798336 2.8317324 0 0 1 1.8847687-0.6386 2.8798336 2.8317324 0 0 1 1.3710934 0.3789l15.121094 8.5859 7.816406 4.4375 0.103516 0.059 7.203125 4.0879a2.8798336 2.8317324 0 0 1 1.390625 1.9512 2.8798336 2.8317324 0 0 0-1.390625-2.9512l-7.203125-4.0879-0.103516-0.058-7.816406-4.4375-15.121094-8.586a2.8798336 2.8317324 0 0 0-1.3710934-0.3789z" style="fill:#ffffff;opacity:.2"/>
 </g>
</svg>
