<svg width="48" height="48" version="1" xmlns="http://www.w3.org/2000/svg">
 <path d="m16.910156 4.9999971a2.8007721 2.8010278 0 0 0-1.980468 0.8164062l-10.083985 10.052735a2.8007721 2.8010278 0 0 0-0.8242187 1.980468l-0.0214844 14.240235a2.8007721 2.8010278 0 0 0 0.8183594 1.982422l10.052735 10.083984a2.8007721 2.8010278 0 0 0 1.980468 0.824219l14.240235 0.01953a2.8007721 2.8010278 0 0 0 1.980469-0.816406l10.083984-10.052734a2.8007721 2.8010278 0 0 0 0.822266-1.980468l0.021484-14.240235a2.8007721 2.8010278 0 0 0-0.818359-1.982422l-10.052735-10.083984a2.8007721 2.8010278 0 0 0-1.740234-0.8125 2.8007721 2.8010278 0 0 0-0.238281-0.011719zm3.089844 9.9999999h8l6 6v8l-6 6h-8l-6-6v-8z" style="color-rendering:auto;color:#000000;dominant-baseline:auto;fill:#000000;font-feature-settings:normal;font-variant-alternates:normal;font-variant-caps:normal;font-variant-ligatures:normal;font-variant-numeric:normal;font-variant-position:normal;image-rendering:auto;isolation:auto;mix-blend-mode:normal;opacity:.2;shape-padding:0;shape-rendering:auto;solid-color:#000000;text-decoration-color:#000000;text-decoration-line:none;text-decoration-style:solid;text-indent:0;text-orientation:mixed;text-transform:none;white-space:normal"/>
 <path d="m16.910156 4a2.8007721 2.8010278 0 0 0-1.980468 0.8164062l-10.083985 10.052735a2.8007721 2.8010278 0 0 0-0.8242187 1.980468l-0.0214844 14.240235a2.8007721 2.8010278 0 0 0 0.8183594 1.982422l10.052735 10.083984a2.8007721 2.8010278 0 0 0 1.980468 0.824219l14.240235 0.019531a2.8007721 2.8010278 0 0 0 1.980469-0.816406l10.083984-10.052735a2.8007721 2.8010278 0 0 0 0.822266-1.980468l0.021484-14.240235a2.8007721 2.8010278 0 0 0-0.818359-1.982422l-10.052735-10.083984a2.8007721 2.8010278 0 0 0-1.740234-0.8125 2.8007721 2.8010278 0 0 0-0.238281-0.0117188l-14.240235-0.0195312zm3.089844 10h8l6 6v8l-6 6h-8l-6-6v-8l6-6z" style="color-rendering:auto;color:#000000;dominant-baseline:auto;fill:#e4e4e4;font-feature-settings:normal;font-variant-alternates:normal;font-variant-caps:normal;font-variant-ligatures:normal;font-variant-numeric:normal;font-variant-position:normal;image-rendering:auto;isolation:auto;mix-blend-mode:normal;shape-padding:0;shape-rendering:auto;solid-color:#000000;text-decoration-color:#000000;text-decoration-line:none;text-decoration-style:solid;text-indent:0;text-orientation:mixed;text-transform:none;white-space:normal"/>
 <path d="m20 4.0039062v9.9960938h8l7.138672-7.1386719-2.009766-2.0175781c-0.466198-0.4674877-1.082535-0.7552501-1.740234-0.8125-0.07923-0.00729-0.158724-0.0111987-0.238281-0.0117188l-11.150391-0.015625zm-13.138672 8.8574218-2.0175781 2.009766c-0.467488 0.466198-0.75525 1.082535-0.8125 1.740234-0.0073 0.07923-0.0111987 0.158724-0.0117188 0.238281l-0.015625 11.150391h9.9960938v-8l-7.1386719-7.138672zm27.138672 7.138672v8l7.138672 7.138672 2.017578-2.009766c0.467488-0.466198 0.75525-1.082535 0.8125-1.740234 0.0073-0.07923 0.011199-0.158724 0.011719-0.238281l0.015625-11.150391h-9.996094zm-14 14-7.138672 7.138672 2.009766 2.017578c0.466198 0.467488 1.082535 0.75525 1.740234 0.8125 0.07923 0.0073 0.158724 0.011199 0.238281 0.011719l11.150391 0.015625v-9.996094h-8z" style="fill:#11aef5"/>
 <path d="m16.910156 4a2.8007721 2.8010278 0 0 0-1.980468 0.8164062l-10.083985 10.052735a2.8007721 2.8010278 0 0 0-0.8242187 1.980468l-0.0214844 14.240235a2.8007721 2.8010278 0 0 0 0.0019531 0.029297l0.0195313-13.269532a2.8007721 2.8010278 0 0 1 0.8242187-1.980468l10.083985-10.052735a2.8007721 2.8010278 0 0 1 1.980468-0.8164062l14.240235 0.0195312a2.8007721 2.8010278 0 0 1 0.238281 0.0117188 2.8007721 2.8010278 0 0 1 1.740234 0.8125l10.052735 10.083984a2.8007721 2.8010278 0 0 1 0.816406 1.953125l0.001953-0.970703a2.8007721 2.8010278 0 0 0-0.818359-1.982422l-10.052735-10.083984a2.8007721 2.8010278 0 0 0-1.740234-0.8125 2.8007721 2.8010278 0 0 0-0.238281-0.0117188l-14.240235-0.0195312zm-2.910156 24v1l6 6h8l6-6v-1l-6 6h-8l-6-6z" style="color-rendering:auto;color:#000000;dominant-baseline:auto;fill:#ffffff;font-feature-settings:normal;font-variant-alternates:normal;font-variant-caps:normal;font-variant-ligatures:normal;font-variant-numeric:normal;font-variant-position:normal;image-rendering:auto;isolation:auto;mix-blend-mode:normal;opacity:.2;shape-padding:0;shape-rendering:auto;solid-color:#000000;text-decoration-color:#000000;text-decoration-line:none;text-decoration-style:solid;text-indent:0;text-orientation:mixed;text-transform:none;white-space:normal"/>
</svg>
