<svg width="48" height="48" version="1" xmlns="http://www.w3.org/2000/svg">
 <rect transform="matrix(0,-1,-1,0,0,0)" x="-44" y="-44" width="40" height="40" rx="20" ry="20" fill="#37a0f2" style="fill:#1a9f5e"/>
 <path d="m24 4c-11.08 0-20 8.92-20 20 0 0.168-4e-3 0.333 0 0.5 0.2644-10.846 9.088-19.5 20-19.5s19.736 8.654 20 19.5c4e-3 -0.167 0-0.332 0-0.5 0-11.08-8.92-20-20-20z" fill="#fff" opacity=".2"/>
 <path d="m4.0117 24.5c-0.0041 0.167-0.0117 0.332-0.0117 0.5 0 11.08 8.92 20 20 20s20-8.92 20-20c0-0.168-8e-3 -0.333-0.012-0.5-0.264 10.846-9.076 19.5-19.988 19.5s-19.724-8.654-19.988-19.5z" opacity=".2"/>
 <path d="m24 11.000418c-7.731986 0-14 6.268014-14 14 0.0084 6.42747 4.470823 11.735539 10.630859 13.570312 1.01547 0.302459 1.57659 1.137561 2.25 1.84375 0.5775 0.605612 1.08929 1.101955 1.138672 1.103516 0.04938 0.0016 0.522662-0.444255 1.050781-0.990234 0.668698-0.691314 1.341988-1.622087 2.529297-2.003906 6.038891-1.942009 10.39772-7.179969 10.400391-13.523438 0-7.731986-6.268014-14-14-14z" style="fill:#000000;opacity:.2"/>
 <path d="m24 10c-7.731986 0-14 6.268014-14 14 0.0084 6.42747 4.470823 11.735539 10.630859 13.570312 1.01547 0.302459 1.57659 1.137561 2.25 1.84375 0.5775 0.605612 1.08929 1.101955 1.138672 1.103516 0.04938 0.0016 0.522662-0.444255 1.050781-0.990234 0.668698-0.691314 1.341988-1.622087 2.529297-2.003906 6.038891-1.942009 10.39772-7.179969 10.400391-13.523438 0-7.731986-6.268014-14-14-14z" style="fill:#ffffff"/>
 <path d="m20 15c-1.108 0-2 0.892-2 2v14c0 1.108 0.892 2 2 2h8c1.108 0 2-0.892 2-2v-14c0-1.108-0.892-2-2-2h-8zm0 3h8v12h-8v-12z" style="fill-rule:evenodd;fill:#4f4f4f"/>
</svg>
