<svg width="48" height="48" version="1" xmlns="http://www.w3.org/2000/svg">
 <path d="m31.931299 5.9845289c-0.250716 0.013028-0.504429 0.1301941-0.712891 0.390625l-6.902344 8.6269521c-0.10727-1.1e-4 -0.204986-2e-3 -0.3125-2e-3 -0.110201 0-0.210367 0.0018-0.320312 2e-3l-6.902344-8.6269521c-0.187156-0.2410557-0.474134-0.3834656-0.779297-0.3867187-0.851297-0.010176-1.3252 0.9801749-0.783203 1.6367187l4.447266 7.4101551c-5.346272 0.07487-9.7960081 0.275792-10.962891 0.527344-0.98742 0.212862-1.7702219 0.615986-2.4824219 1.279297-0.56667 0.527772-0.8794131 1.007205-1.2207031 1.875-0.37475 0.952908-0.5740975 1.851-0.7109375 3.203125-0.26095 2.579157-0.3065031 3.852521-0.2832031 7.738281 0.01978 3.304209 0.034119 3.687896 0.2246094 5.808594 0.1688 1.87921 0.3529675 2.767883 0.8046874 3.886719 0.49407 1.223768 1.1784769 1.983084 2.2792969 2.527343 0.66651 0.329536 1.2575875 0.484502 2.4609375 0.642579 1.6409202 0.215548 4.3241762 0.325512 10.935547 0.451171 5.320329 0.101133 14.555868-0.11492 17.580078-0.412109 0.97595-0.09591 1.581386-0.244897 2.216796-0.544922 0.627511-0.296293 1.377673-0.885035 1.757813-1.378906 0.55407-0.719848 1.044702-1.985646 1.294922-3.337891 0.09733-0.52597 0.244171-1.995848 0.363281-3.646484 0.10178-1.41099 0.1018-7.910581 0-9.322266-0.21438-2.972683-0.359048-3.976235-0.736328-5.111328-0.36615-1.101622-0.674104-1.64337-1.271484-2.240234-0.76326-0.762603-1.545459-1.188192-2.611328-1.417969-1.167436-0.251671-5.62102-0.452559-10.970704-0.527344l4.447266-7.4101551c0.625387-0.7812926-0.09746-1.6797088-0.849609-1.640625z" style="fill:#000000;opacity:.2"/>
 <path d="m31.931299 4.9845285c-0.250716 0.013028-0.504429 0.1301941-0.712891 0.390625l-6.902344 8.6269525c-0.10727-1.1e-4 -0.204986-2e-3 -0.3125-2e-3 -0.110201 0-0.210367 0.0018-0.320312 2e-3l-6.902344-8.6269525c-0.187156-0.2410557-0.474134-0.3834656-0.779297-0.3867187-0.851297-0.010176-1.3252 0.9801749-0.783203 1.6367187l4.447266 7.4101555c-5.346272 0.07487-9.7960081 0.275792-10.962891 0.527344-0.98742 0.212862-1.7702219 0.615986-2.4824219 1.279297-0.56667 0.527772-0.8794131 1.007205-1.2207031 1.875-0.37475 0.952908-0.5740975 1.851-0.7109375 3.203125-0.26095 2.579157-0.3065031 3.852521-0.2832031 7.738281 0.01978 3.304209 0.034119 3.687896 0.2246094 5.808594 0.1688 1.87921 0.3529675 2.767883 0.8046874 3.886719 0.49407 1.223768 1.1784769 1.983084 2.2792969 2.527343 0.66651 0.329536 1.2575875 0.484502 2.4609375 0.642579 1.6409202 0.215548 4.3241762 0.325512 10.935547 0.451171 5.320329 0.101133 14.555868-0.11492 17.580078-0.412109 0.97595-0.09591 1.581386-0.244897 2.216796-0.544922 0.627511-0.296293 1.377673-0.885035 1.757813-1.378906 0.55407-0.719848 1.044702-1.985646 1.294922-3.337891 0.09733-0.52597 0.244171-1.995848 0.363281-3.646484 0.10178-1.41099 0.1018-7.910581 0-9.322266-0.21438-2.972683-0.359048-3.976235-0.736328-5.111328-0.36615-1.101622-0.674104-1.64337-1.271484-2.240234-0.76326-0.762603-1.545459-1.188192-2.611328-1.417969-1.167436-0.251671-5.62102-0.452559-10.970704-0.527344l4.447266-7.4101555c0.625387-0.7812926-0.09746-1.6797088-0.849609-1.640625z" style="fill:#00adf1"/>
 <path d="m18.862122 37.983822c-4.29739-0.08078-6.041638-0.152108-7.108236-0.290675-0.782178-0.10162-1.166301-0.20069-1.599532-0.412534-0.7155328-0.34988-1.1605358-0.837772-1.4816817-1.62448-0.2936183-0.719252-0.4131721-1.29052-0.5228924-2.498584-0.1238187-1.363306-0.1334969-1.610113-0.146354-3.734248-0.015148-2.497989 0.01534-3.316558 0.1849576-4.974587 0.08895-0.869224 0.2185817-1.446896 0.4621694-2.059479 0.2218384-0.557869 0.4243721-0.86575 0.7927077-1.205031 0.4629301-0.426415 0.9713394-0.685633 1.6131624-0.822472 0.957996-0.204252 5.28799-0.361732 9.945811-0.361732 4.657822 0 8.987815 0.15748 9.945811 0.361732 0.692815 0.147714 1.201297 0.420556 1.697415 0.910801 0.388297 0.383698 0.588289 0.732351 0.826287 1.440536 0.245232 0.729703 0.339281 1.375484 0.478628 3.286495 0.06618 0.907512 0.06616 5.085087 0 5.992152-0.07742 1.061123-0.172433 2.00608-0.235697 2.344203-0.162643 0.869301-0.482079 1.683207-0.842224 2.145966-0.247091 0.317489-0.734864 0.695783-1.142746 0.886257-0.413016 0.192873-0.80652 0.288494-1.440887 0.35015-1.965736 0.191049-7.968458 0.330544-11.426673 0.26553z" style="fill:#000000;opacity:.2;stroke-width:.64641863"/>
 <path d="m18.862122 36.983822c-4.29739-0.08078-6.041638-0.152108-7.108236-0.290675-0.782178-0.10162-1.166301-0.20069-1.599532-0.412534-0.7155328-0.34988-1.1605358-0.837772-1.4816817-1.62448-0.2936183-0.719252-0.4131721-1.29052-0.5228924-2.498584-0.1238187-1.363306-0.1334969-1.610113-0.146354-3.734248-0.015148-2.497989 0.01534-3.316558 0.1849576-4.974587 0.08895-0.869224 0.2185817-1.446896 0.4621694-2.059479 0.2218384-0.557869 0.4243721-0.86575 0.7927077-1.205031 0.4629301-0.426415 0.9713394-0.685633 1.6131624-0.822472 0.957996-0.204252 5.28799-0.361732 9.945811-0.361732 4.657822 0 8.987815 0.15748 9.945811 0.361732 0.692815 0.147714 1.201297 0.420556 1.697415 0.910801 0.388297 0.383698 0.588289 0.732351 0.826287 1.440536 0.245232 0.729703 0.339281 1.375484 0.478628 3.286495 0.06618 0.907512 0.06616 5.085087 0 5.992152-0.07742 1.061123-0.172433 2.00608-0.235697 2.344203-0.162643 0.869301-0.482079 1.683207-0.842224 2.145966-0.247091 0.317489-0.734864 0.695783-1.142746 0.886257-0.413016 0.192873-0.80652 0.288494-1.440887 0.35015-1.965736 0.191049-7.968458 0.330544-11.426673 0.26553z" style="fill:#4f4f4f;stroke-width:.64641863"/>
 <circle cx="38.5" cy="35.5" r="2.5" style="fill:#000000;opacity:.2"/>
 <circle cx="38.5" cy="34.5" r="2.5" style="fill:#ffffff"/>
 <circle cx="38.5" cy="29.5" r="1.5" style="fill:#000000;opacity:.2"/>
 <circle cx="38.5" cy="28.5" r="1.5" style="fill:#ffffff"/>
 <circle cx="38.5" cy="25.5" r="1.5" style="fill:#000000;opacity:.2"/>
 <circle cx="38.5" cy="24.5" r="1.5" style="fill:#ffffff"/>
 <circle cx="38.5" cy="21.5" r="1.5" style="fill:#000000;opacity:.2"/>
 <circle cx="38.5" cy="20.5" r="1.5" style="fill:#ffffff"/>
 <path d="m31.931641 4.984375c-0.250716 0.013028-0.504429 0.1301941-0.712891 0.390625l-6.902344 8.626953c-0.10727-1.1e-4 -0.204986-0.001953-0.3125-0.001953-0.110201 0-0.210367 0.0018-0.320312 2e-3l-6.902344-8.627c-0.187156-0.2410557-0.474134-0.3834656-0.779297-0.3867188-0.793799-0.0094887-1.247332 0.8475237-0.867187 1.4960938 0.169612-0.2893422 0.475176-0.5007797 0.867187-0.4960938 0.305163 0.0032532 0.592141 0.1456631 0.779297 0.3867188l6.902344 8.626953c0.109945-2e-4 0.210111-2e-3 0.320312-2e-3 0.107514 0 0.20523 0.0018 0.3125 2e-3l6.902344-8.626953c0.208462-0.2604309 0.462175-0.377597 0.712891-0.390625 0.370958-0.019276 0.733166 0.1916663 0.93164 0.5019531 0.444417-0.7450622-0.223523-1.5387489-0.93164-1.5019531zm-12.859375 9.0625c-5.066979 0.081291-9.2477828 0.273887-10.369141 0.515625-0.98742 0.212862-1.7702219 0.615986-2.4824219 1.279297-0.56667 0.527772-0.8794131 1.007205-1.2207031 1.875-0.37475 0.952908-0.5740975 1.851-0.7109375 3.203125-0.26095 2.579157-0.3065031 3.852521-0.2832031 7.738281 0.00105 0.175433 0.00481 0.195805 0.00586 0.355469-0.011408-3.260642 0.035685-4.705258 0.2773437-7.09375 0.1368394-1.352125 0.3361869-2.250217 0.7109369-3.203125 0.34129-0.867795 0.6540331-1.347228 1.2207031-1.875 0.7122-0.663311 1.4950019-1.066435 2.4824219-1.279297 1.1668827-0.251552 5.616619-0.452474 10.962891-0.527344zm9.855468 0-0.59375 0.988281c5.349684 0.07478 9.803267 0.275673 10.970704 0.527344 1.065869 0.229777 1.848068 0.655366 2.611328 1.417969 0.59738 0.596864 0.905334 1.138612 1.271484 2.240234 0.37728 1.135093 0.521948 2.138645 0.736328 5.111328 0.04637 0.643014 0.06814 2.369589 0.07227 4.16211 0.0049-2.14289-0.01683-4.393394-0.07227-5.16211-0.21438-2.972683-0.359048-3.976235-0.736328-5.111328-0.36615-1.101622-0.674104-1.64337-1.271484-2.240234-0.76326-0.762603-1.545459-1.188192-2.611328-1.417969-1.121914-0.241857-5.306526-0.434415-10.376954-0.515625z" style="fill:#ffffff;opacity:.2"/>
</svg>
