<svg width="48" height="48" version="1" xmlns="http://www.w3.org/2000/svg">
 <path d="m34.604444 8.0002578c5.138244 0.036089 9.698071 3.8491082 10.385068 9.3711952 0.151492 4.736173-1.346641 6.674793-3.942879 9.375105-4.765509 4.95277-15.352592 15.604314-15.97522 15.995357-0.270527 0.169906-0.671354 0.253026-1.071413 0.258085v-29c0.04897 0.01317 1.066422-0.981297 2.250561-2.08742 2.303746-2.1520468 3.185748-2.7668969 4.743984-3.3081705 1.206725-0.4191705 2.42415-0.6124799 3.609899-0.6041517z" style="fill:#000000;opacity:.2"/>
 <path d="m13.395556 8.0002578c-5.1382442 0.036089-9.6980706 3.8491082-10.385068 9.3711952-0.1514924 4.736173 1.3466411 6.674793 3.9428786 9.375105 4.7655092 4.95277 15.352592 15.604314 15.97522 15.995357 0.270527 0.169906 0.671354 0.253026 1.071413 0.258085v-29c-0.04897 0.01317-1.066422-0.981297-2.250561-2.08742-2.303746-2.1520468-3.185748-2.7668969-4.743984-3.3081705-1.206725-0.4191705-2.42415-0.6124799-3.609899-0.6041517z" style="fill:#000000;opacity:.2"/>
 <path d="m34.604444 7.0002578c5.138244 0.036089 9.698071 3.8491082 10.385068 9.3711952 0.151492 4.736173-1.346641 6.674793-3.942879 9.375105-4.765509 4.95277-15.352592 15.604314-15.97522 15.995357-0.270527 0.169906-0.671354 0.253026-1.071413 0.258085v-29c0.04897 0.01317 1.066422-0.981297 2.250561-2.08742 2.303746-2.1520468 3.185748-2.7668969 4.743984-3.3081705 1.206725-0.4191705 2.42415-0.6124799 3.609899-0.6041517z" style="fill:#8a134f"/>
 <path d="m34.603516 7c-1.185749-0.0083282-2.40265 0.1843451-3.609375 0.6035156-1.558236 0.5412736-2.440395 1.156547-4.744141 3.3085934-1.184139 1.106123-2.20103 2.101061-2.25 2.087891v1c0.04897 0.01317 1.065861-0.981768 2.25-2.087891 2.303746-2.1520464 3.185905-2.7673198 4.744141-3.3085934 1.206725-0.4191705 2.423626-0.6118438 3.609375-0.6035156 5.117789 0.0359453 9.660078 3.820122 10.375 9.306641 0.005608-0.308438 0.02244-0.600345 0.011718-0.935547-0.686997-5.522087-5.248474-9.335005-10.386718-9.371094z" style="fill:#ffffff;opacity:.1"/>
 <path d="m32.079576 8.0002578c3.914853 0.036089 7.389006 3.8491082 7.912433 9.3711952 0.115422 4.736173-1.026012 6.674793-3.004099 9.375105-3.630863 4.95277-11.697213 15.604314-12.171596 15.995357-0.206116 0.169906-0.511507 0.253026-0.816314 0.258085v-29c0.03731 0.01317 0.812512-0.981297 1.714713-2.08742 1.755235-2.1520468 2.427237-2.7668969 3.614464-3.3081705 0.919409-0.4191705 1.846972-0.6124799 2.750399-0.6041517z" style="fill:#000000;opacity:.2"/>
 <path d="m32.079576 7.0002578c3.914853 0.036089 7.389006 3.8491082 7.912433 9.3711952 0.115422 4.736173-1.026012 6.674793-3.004099 9.375105-3.630863 4.95277-11.697213 15.604314-12.171596 15.995357-0.206116 0.169906-0.511507 0.253026-0.816314 0.258085v-29c0.03731 0.01317 0.812512-0.981297 1.714713-2.08742 1.755235-2.1520468 2.427237-2.7668969 3.614464-3.3081705 0.919409-0.4191705 1.846972-0.6124799 2.750399-0.6041517z" style="fill:#ca186c"/>
 <path d="m32.080078 7c-0.903427-0.0083282-1.830591 0.1843451-2.75 0.6035156-1.187227 0.5412736-1.859999 1.156547-3.615234 3.3085934-0.902201 1.106123-1.677534 2.101061-1.714844 2.087891v1c0.03731 0.01317 0.812643-0.981768 1.714844-2.087891 1.755235-2.1520464 2.428007-2.7673198 3.615234-3.3085934 0.919409-0.4191705 1.846573-0.6118438 2.75-0.6035156 3.898791 0.0359409 7.356993 3.819258 7.902344 9.304688 0.004239-0.307847 0.017917-0.599092 0.009766-0.933594-0.523428-5.522087-3.997257-9.335005-7.91211-9.371094z" style="fill:#ffffff;opacity:.1"/>
 <path d="m29.554709 8.0002578c2.69146 0.036089 5.079941 3.8491082 5.439797 9.3711952 0.07935 4.736173-0.705383 6.674793-2.065318 9.375105-2.496218 4.95277-8.041833 15.604314-8.367971 15.995357-0.141706 0.169906-0.351663 0.253026-0.561217 0.258085v-29c0.02565 0.01317 0.558602-0.981297 1.178866-2.08742 1.206724-2.1520468 1.668725-2.7668969 2.484943-3.3081705 0.632094-0.4191705 1.269794-0.6124799 1.8909-0.6041517z" style="fill:#000000;opacity:.2"/>
 <path d="m29.554709 7.0002578c2.69146 0.036089 5.079941 3.8491082 5.439797 9.3711952 0.07935 4.736173-0.705383 6.674793-2.065318 9.375105-2.496218 4.95277-8.041833 15.604314-8.367971 15.995357-0.141706 0.169906-0.351663 0.253026-0.561217 0.258085v-29c0.02565 0.01317 0.558602-0.981297 1.178866-2.08742 1.206724-2.1520468 1.668725-2.7668969 2.484943-3.3081705 0.632094-0.4191705 1.269794-0.6124799 1.8909-0.6041517z" style="fill:#ff9717"/>
 <path d="m13.395556 7.0002578c-5.1382442 0.036089-9.6980706 3.8491082-10.385068 9.3711952-0.1514924 4.736173 1.3466411 6.674793 3.9428786 9.375105 4.7655092 4.95277 15.352592 15.604314 15.97522 15.995357 0.270527 0.169906 0.671354 0.253026 1.071413 0.258085v-29c-0.04897 0.01317-1.066422-0.981297-2.250561-2.08742-2.303746-2.1520468-3.185748-2.7668969-4.743984-3.3081705-1.206725-0.4191705-2.42415-0.6124799-3.609899-0.6041517z" style="fill:#dc4f43"/>
 <path d="m13.396484 7c-5.1382438 0.036089-9.6997212 3.849007-10.386718 9.371094-0.0107218 0.335202 0.0061099 0.627109 0.0117188 0.935547 0.7149218-5.486519 5.2572103-9.2706957 10.375-9.306641 1.185749-0.0083282 2.40265 0.1843451 3.609375 0.6035156 1.558236 0.5412736 2.440395 1.156547 4.744141 3.3085934 1.184139 1.106123 2.20103 2.101061 2.25 2.087891v-1c-0.04897 0.01317-1.065861-0.981768-2.25-2.087891-2.303746-2.1520464-3.185905-2.7673198-4.744141-3.3085934-1.206725-0.4191705-2.423626-0.6118438-3.609375-0.6035156z" style="fill:#ffffff;opacity:.2"/>
 <path d="m29.554688 7c-0.621107-0.0083282-1.258532 0.1843451-1.890626 0.6035156-0.816218 0.5412736-1.27765 1.156547-2.484374 3.3085934-0.620264 1.106123-1.154038 2.101061-1.179688 2.087891v1c0.02565 0.01317 0.559424-0.981768 1.179688-2.087891 1.206724-2.1520464 1.668156-2.7673198 2.484374-3.3085934 0.632094-0.4191705 1.269519-0.6118438 1.890626-0.6035156 2.681083 0.0359499 5.059569 3.820954 5.433593 9.308594 0.002962-0.309026 0.011487-0.601601 0.00586-0.9375-0.359856-5.522087-2.747993-9.335005-5.439453-9.371094z" style="fill:#ffffff;opacity:.2"/>
</svg>
