<svg width="48" height="48" version="1" xmlns="http://www.w3.org/2000/svg">
 <path d="m24 4c-7.428013 0-13.87064 4.0188854-17.320312 10h34.640624c-3.449672-5.9811146-9.892299-10-17.320312-10zm-17.322266 10.003906c-0.1951788 0.338577-0.3771973 0.684316-0.5527344 1.035156 0.1756899-0.350163 0.3577928-0.696995 0.5527344-1.035156zm34.644532 0c0.194941 0.338161 0.377044 0.684993 0.552734 1.035156-0.175537-0.35084-0.357556-0.696579-0.552734-1.035156zm-35.34375 1.337891c-0.2488086 0.519028-0.4754612 1.048843-0.6796875 1.591797 0.2052211-0.541852 0.4303875-1.073541 0.6796875-1.591797zm36.042968 0c0.2493 0.518256 0.474467 1.049945 0.679688 1.591797-0.204226-0.542954-0.430879-1.072769-0.679688-1.591797zm-36.986328 2.318359c-0.08542 0.257095-0.1650474 0.515666-0.2402343 0.777344 0.075809-0.261334 0.154213-0.520579 0.2402343-0.777344zm37.929688 0c0.08602 0.256765 0.164425 0.51601 0.240234 0.777344-0.07519-0.261678-0.154814-0.520249-0.240234-0.777344zm-38.460938 1.910156c-0.1208736 0.537852-0.2298043 1.079239-0.3066406 1.632813 0.077739-0.552658 0.1846793-1.096021 0.3066406-1.632813zm38.992188 0c0.121961 0.536792 0.228901 1.080155 0.30664 1.632813-0.07684-0.553574-0.185767-1.094961-0.30664-1.632813zm-39.333985 1.921876c-0.038085 0.306861-0.069622 0.616632-0.09375 0.927734 0.024486-0.311313 0.055132-0.620767 0.09375-0.927734zm39.675782 0c0.03862 0.306967 0.06926 0.616421 0.09375 0.927734-0.02413-0.311102-0.05567-0.620873-0.09375-0.927734zm-39.796875 1.27539c-0.024622 0.408175-0.0410156 0.817845-0.0410156 1.232422 0-0.414464 0.016073-0.824584 0.0410156-1.232422zm39.917968 0c0.024943 0.407838 0.041016 0.817958 0.041016 1.232422 0-0.414577-0.01639-0.824247-0.04102-1.232422z" style="fill:#2e9bf4"/>
 <path d="m6.6796875 14c-1.6960334 2.940618-2.6796875 6.348013-2.6796875 10 0 11.08 8.92 20 20 20s20-8.92 20-20c0-3.651987-0.983654-7.059382-2.679688-10z" style="fill:#cccccc"/>
 <path d="m18.964844 14-1.121094 6h-13.441406c-0.1333242 0.654018-0.2253734 1.323756-0.2929688 2h13.361328l-1.865234 10h-9.9433596c0.2999181 0.68966 0.6448813 1.353811 1.0175781 2h8.5507815l-1.351563 7.246094c0.599713 0.351621 1.217537 0.674094 1.855469 0.96289l1.533203-8.208984h14.085938l1.705078 7.830078c0.626317-0.317605 1.234474-0.663529 1.820312-1.042969l-1.476562-6.787109h7.917968c0.372697-0.646189 0.717661-1.31034 1.017579-2h-9.371094l-2.177735-10h13.101563c-0.067595-0.676244-0.159645-1.345982-0.292969-2h-13.24414l-1.306641-6h-2.046875l1.306641 6h-8.425782l1.119141-6zm0.541015 8h9.236329l2.175781 10h-13.277344z" style="color-rendering:auto;color:#000000;dominant-baseline:auto;fill:#ae8034;font-feature-settings:normal;font-variant-alternates:normal;font-variant-caps:normal;font-variant-ligatures:normal;font-variant-numeric:normal;font-variant-position:normal;image-rendering:auto;isolation:auto;mix-blend-mode:normal;shape-padding:0;shape-rendering:auto;solid-color:#000000;text-decoration-color:#000000;text-decoration-line:none;text-decoration-style:solid;text-indent:0;text-orientation:mixed;text-transform:none;white-space:normal"/>
 <path d="m24 4c-11.08 0-20 8.92-20 20 0 0.168 8e-3 0.333 0.0117 0.5 0.2647-10.846 9.0763-19.5 19.988-19.5s19.724 8.6539 19.988 19.5c4e-3 -0.16686 0.0117-0.33213 0.0117-0.5 0-11.08-8.92-20-20-20z" style="fill:#ffffff;opacity:.2"/>
 <path d="m4.0117 24.5c-0.0041 0.167-0.0117 0.332-0.0117 0.5 0 11.08 8.92 20 20 20s20-8.92 20-20c0-0.16787-0.0076-0.33314-0.01172-0.5-0.264 10.846-9.076 19.5-19.988 19.5s-19.724-8.654-19.988-19.5z" style="opacity:.2"/>
 <path d="M 21,14 15.734375,42.208984 C 18.253746,43.349521 21.045191,44 24,44 c 3.268344,0 6.339644,-0.791144 9.058594,-2.169922 L 27,14 Z" style="fill:#ffffff"/>
 <path d="M 4.109375,22 C 4.0435546,22.658487 4,23.323304 4,24 c 0,2.849477 0.5971885,5.551219 1.6621094,8 H 42.337891 C 43.402811,29.551219 44,26.849477 44,24 44,23.323304 43.95645,22.658487 43.890625,22 Z" style="fill:#ffd040"/>
 <path d="M 6.6796875,14 C 4.9836541,16.940618 4,20.348013 4,24 4,24.192794 4.00831,24.382768 4.013672,24.574219 4.08738,21.084172 5.0501511,17.825324 6.6796875,15 H 41.320312 c 1.629537,2.825324 2.592308,6.084172 2.666016,9.574219 C 43.991694,24.382768 44,24.192794 44,24 44,20.348013 43.016346,16.940618 41.320312,14 Z" style="fill:#ffffff;opacity:.2"/>
 <path d="m24.056641 15.001953c-0.399878-0.02006-0.778131 0.179063-0.978516 0.515625l-2.933594 4.929688c-0.410744 0.690118 0.102859 1.552942 0.923828 1.552734h0.931641v3h-3v-0.931641c2.08e-4 -0.820969-0.862616-1.334572-1.552734-0.923828l-4.929688 2.933594c-0.336562 0.200385-0.535685 0.578638-0.515625 0.978516 0.01849 0.360154 0.212466 0.686719 0.515625 0.867187l2.464844 1.464844 2.464844 1.466797c0.172529 0.102685 0.355258 0.147731 0.533203 0.144531 0.53384-0.0095 1.019688-0.452632 1.019531-1.068359v-0.931641h3v3h-0.931641c-0.820969-2.08e-4 -1.334572 0.862616-0.923828 1.552734l2.933594 4.929688c0.200385 0.336562 0.578638 0.535685 0.978516 0.515625 0.360154-0.018487 0.686719-0.212466 0.867187-0.515625l1.464844-2.464844 1.466797-2.464844c0.102685-0.172529 0.147731-0.355258 0.144531-0.533203-0.009514-0.53384-0.452632-1.019688-1.068359-1.019531h-0.931641v-3h3v0.931641c-1.57e-4 0.615727 0.485691 1.058845 1.019531 1.068359 0.177945 0.0032 0.360674-0.04185 0.533203-0.144531l2.464844-1.466797 2.464844-1.464844c0.303159-0.180468 0.497138-0.507033 0.515625-0.867187 0.02006-0.399878-0.179063-0.778131-0.515625-0.978516l-4.929688-2.933594c-0.690118-0.410744-1.552942 0.102859-1.552734 0.923828v0.931641h-3v-3h0.931641c0.615727 1.57e-4 1.058845-0.485691 1.068359-1.019531 0.0032-0.177945-0.041846-0.360674-0.144531-0.533203l-1.466797-2.464844-1.464844-2.464844c-0.180468-0.303159-0.507033-0.497138-0.867187-0.515625z" style="fill:#3f3f3f"/>
</svg>
