<svg width="48" height="48" version="1" xmlns="http://www.w3.org/2000/svg">
 <rect transform="matrix(0,-1,-1,0,0,0)" x="-40.000031" y="-44" width="32" height="40" rx="2" ry="2" style="fill:#0fa0e6"/>
 <circle cx="11" cy="25" r="3" style="fill:#000000;opacity:.2"/>
 <path d="m6 8c-1.108 0-2 0.892-2 2v1c0-1.108 0.892-2 2-2h36c1.108 0 2 0.892 2 2v-1c0-1.108-0.892-2-2-2z" style="fill:#ffffff;opacity:.2"/>
 <path d="m4 38v1c0 1.108 0.892 2 2 2h36c1.108 0 2-0.892 2-2v-1c0 1.108-0.892 2-2 2h-36c-1.108 0-2-0.892-2-2z" style="opacity:.2"/>
 <circle cx="11" cy="16" r="3" style="fill:#000000;opacity:.2"/>
 <circle cx="11" cy="24" r="3" style="fill:#ffffff"/>
 <circle cx="11" cy="34" r="3" style="fill:#000000;opacity:.2"/>
 <circle cx="11" cy="15" r="3" style="fill:#ffffff"/>
 <circle cx="11" cy="33" r="3" style="fill:#ffffff"/>
</svg>
