<svg width="48" height="48" version="1" xmlns="http://www.w3.org/2000/svg">
 <rect transform="matrix(0,-1,-1,0,0,0)" x="-41" y="-42" width="24" height="36" rx="2" ry="2" fill="#5f7c8a" style="fill:#4f4f4f"/>
 <path d="m8 17c-1.108 0-2 0.892-2 2v1c0-1.108 0.892-2 2-2h32c1.108 0 2 0.892 2 2v-1c0-1.108-0.892-2-2-2h-32z" fill="#fff" opacity=".2" style="opacity:.1"/>
 <path d="m6 39v1c0 1.108 0.892 2 2 2h32c1.108 0 2-0.892 2-2v-1c0 1.108-0.892 2-2 2h-32c-1.108 0-2-0.892-2-2z" opacity=".2"/>
 <path d="m34 24a2 2 0 0 1-2 2 2 2 0 0 1-2-2 2 2 0 0 1 2-2 2 2 0 0 1 2 2z" opacity=".2"/>
 <path d="m34 23a2 2 0 0 1-2 2 2 2 0 0 1-2-2 2 2 0 0 1 2-2 2 2 0 0 1 2 2z" fill="#fff"/>
 <path d="m18 24a2 2 0 0 1-2 2 2 2 0 0 1-2-2 2 2 0 0 1 2-2 2 2 0 0 1 2 2z" opacity=".2"/>
 <path d="m18 23a2 2 0 0 1-2 2 2 2 0 0 1-2-2 2 2 0 0 1 2-2 2 2 0 0 1 2 2z" fill="#fff"/>
 <path d="m17 7h14c1.108 0 2 0.892 2 2v14c0 3-7 5-9 7-2-2-9-4-9-7v-14c0-1.108 0.892-2 2-2z" opacity=".2"/>
 <path d="m17 6h14c1.108 0 2 0.892 2 2v14c0 3-7 5-9 7-2-2-9-4-9-7v-14c0-1.108 0.892-2 2-2z" fill="#10c36e" style="fill:#15c2d8"/>
 <path d="m12 24a2 2 0 0 1-2 2 2 2 0 0 1-2-2 2 2 0 0 1 2-2 2 2 0 0 1 2 2z" opacity=".2"/>
 <path d="m12 23a2 2 0 0 1-2 2 2 2 0 0 1-2-2 2 2 0 0 1 2-2 2 2 0 0 1 2 2z" fill="#fff"/>
 <path d="m40 24a2 2 0 0 1-2 2 2 2 0 0 1-2-2 2 2 0 0 1 2-2 2 2 0 0 1 2 2z" opacity=".2"/>
 <path d="m40 23a2 2 0 0 1-2 2 2 2 0 0 1-2-2 2 2 0 0 1 2-2 2 2 0 0 1 2 2z" fill="#fff"/>
 <path d="m14 32a2 2 0 0 1-2 2 2 2 0 0 1-2-2 2 2 0 0 1 2-2 2 2 0 0 1 2 2z" opacity=".2"/>
 <path d="m14 31a2 2 0 0 1-2 2 2 2 0 0 1-2-2 2 2 0 0 1 2-2 2 2 0 0 1 2 2z" fill="#fff"/>
 <path d="m20 32a2 2 0 0 1-2 2 2 2 0 0 1-2-2 2 2 0 0 1 2-2 2 2 0 0 1 2 2z" opacity=".2"/>
 <path d="m20 31a2 2 0 0 1-2 2 2 2 0 0 1-2-2 2 2 0 0 1 2-2 2 2 0 0 1 2 2z" fill="#fff"/>
 <path d="m26 32a2 2 0 0 1-2 2 2 2 0 0 1-2-2 2 2 0 0 1 2-2 2 2 0 0 1 2 2z" opacity=".2"/>
 <path d="m26 31a2 2 0 0 1-2 2 2 2 0 0 1-2-2 2 2 0 0 1 2-2 2 2 0 0 1 2 2z" fill="#fff"/>
 <path d="m32 32a2 2 0 0 1-2 2 2 2 0 0 1-2-2 2 2 0 0 1 2-2 2 2 0 0 1 2 2z" opacity=".2"/>
 <path d="m32 31a2 2 0 0 1-2 2 2 2 0 0 1-2-2 2 2 0 0 1 2-2 2 2 0 0 1 2 2z" fill="#fff"/>
 <path d="m38 32a2 2 0 0 1-2 2 2 2 0 0 1-2-2 2 2 0 0 1 2-2 2 2 0 0 1 2 2z" opacity=".2"/>
 <path d="m38 31a2 2 0 0 1-2 2 2 2 0 0 1-2-2 2 2 0 0 1 2-2 2 2 0 0 1 2 2z" fill="#fff"/>
 <rect x="9" y="36" width="30" height="4" rx="1" ry="1" style="fill:#000000;opacity:.2"/>
 <rect x="9" y="35" width="30" height="4" rx="1" ry="1" opacity=".2" style="fill:#e4e4e4;opacity:1"/>
 <path d="m28.046485 9.353516c-0.35444 0.9451-0.767674 1.819494-1.240234 2.646484h-3.806641v1h1.03125v1.919922c-1e-5 0.354421-0.02118 0.765038-0.06055 1.080078h-1.949219v1h1.832032c-0.2363 2.0872-1.043575 4.089381-2.421876 5.113281l0.625004 0.886719c1.6146-1.1814 2.560257-3.4796 2.835937-6h3.097656v5.941406h1.009766v-5.941406h2v-1h-2v-3h1v-1h-1.953125c0.4332-0.6695 0.865628-1.424616 1.298828-2.2910152l-1.298828-0.3554688zm-3.544922 0.1777344-1.179687 0.3554688c0.433 0.5512998 0.767906 1.1797718 1.003906 1.8886718l1.240234-0.412109c-0.2363-0.6694-0.591893-1.280682-1.064453-1.8320316zm-5.480469 0.4687496v2h-2.021485v1h2.021485v2.970703c-0.7482 0.31506-1.254714 0.630273-2.121094 0.945313l0.414062 1.238281c0.708801-0.27566 1.076932-0.550502 1.707032-0.826172v3.720703c0 0.47257-0.09802 0.708984-0.294922 0.708984-0.5513 0-1.183363-0.07881-1.695313-0.236328l0.236328 1.240235c0.4726 0.11814 0.98577 0.177734 1.53711 0.177734 0.47255 0 0.707387-0.117235 0.904297-0.353515 0.1969-0.236301 0.294922-0.649515 0.294922-1.240235v-4.607422l1.113281-0.646484-0.177735-1.060547c-0.511899 0.2363-0.423546 0.190797-0.935546 0.466797v-2.498047h1.996094v-1h-1.996094v-2h-0.982422zm5.988282 3h2.982422v3h-3.041016c0.03937-0.27566 0.05859-0.626664 0.05859-0.902344v-2.097656z" style="fill:#ffffff"/>
</svg>
