<svg width="48" height="48" version="1.1" viewBox="0 0 48 48" xmlns="http://www.w3.org/2000/svg">
 <path d="m43.590343 42c1.040675-5.08e-4 1.722424-1.213582 1.268294-2.256746l-13.929802-30.858044c-0.235981-0.5417581-0.729147-0.885592-1.269671-0.88521h-11.250175c-1.039718 0.00106-1.720991 1.2124596-1.268293 2.2552118l13.42932 30.859579c0.235764 0.54126 0.728268 0.885003 1.268294 0.885209z" style="fill:#000000;opacity:.2"/>
 <path d="m43.590343 41c1.040675-5.08e-4 1.722424-1.213582 1.268294-2.256746l-13.929802-30.858044c-0.235981-0.5417581-0.729147-0.885592-1.269671-0.88521h-11.250175c-1.039718 0.00106-1.720991 1.2124596-1.268293 2.255212l13.42932 30.859579c0.235764 0.54126 0.728268 0.885003 1.268294 0.885209z" style="fill:#2370d4"/>
 <path d="m18.408203 7c-0.973678 9.927e-4 -1.620096 1.0633143-1.328125 2.0546875 0.188214-0.5948085 0.68917-1.0540361 1.328125-1.0546875h11.25c0.540524-3.82e-4 1.035504 0.3430075 1.271485 0.8847656l13.929687 30.859375c0.02884 0.06626 0.04067 0.133896 0.06055 0.201171 0.118031-0.373441 0.114521-0.799029-0.06055-1.201171l-13.929687-30.859375c-0.235981-0.5417581-0.730961-0.8851476-1.271485-0.8847656z" style="fill:#ffffff;opacity:.1"/>
 <path d="m4.4096569 42a1.4102748 1.5711343 0 0 1-1.2682943-2.256746l13.429321-30.858044a1.4102748 1.5711343 0 0 1 1.269671-0.88521h11.750656a1.4102748 1.5711343 0 0 1 1.268293 2.2552118l-13.42932 30.859579a1.4102748 1.5711343 0 0 1-1.268294 0.885209z" style="fill:#000000;opacity:.2"/>
 <path d="m4.4096569 41a1.4102748 1.5711343 0 0 1-1.2682943-2.256746l13.429321-30.858044a1.4102748 1.5711343 0 0 1 1.269671-0.88521h11.750656a1.4102748 1.5711343 0 0 1 1.268293 2.255212l-13.42932 30.859579a1.4102748 1.5711343 0 0 1-1.268294 0.885209z" style="fill:#4c8cf6"/>
 <path d="m17.8125 7a1.4102748 1.5711343 0 0 0-1.242188 0.8847656l-13.429687 30.859375a1.4102748 1.5711343 0 0 0-0.066406 1.18164 1.4102748 1.5711343 0 0 1 0.066406-0.18164l13.429687-30.859375a1.4102748 1.5711343 0 0 1 1.269532-0.8847656h11.751953a1.4102748 1.5711343 0 0 1 1.333984 1.0742188 1.4102748 1.5711343 0 0 0-1.333984-2.0742188h-11.751953a1.4102748 1.5711343 0 0 0-0.027344 0z" style="fill:#ffffff;opacity:.2"/>
</svg>
