<svg width="48" height="48" version="1.1" viewBox="0 0 48 48" xmlns="http://www.w3.org/2000/svg">
 <path transform="matrix(0,-1,-1,0,0,0)" d="m-42-44h31.013802l1.7239646 1.003764c0.9575217 0.557509 1.4658322 0.60787 2.1254705 1.498118l3.1367629 4.233375v31.264743c0 1.108-0.892 2-2 2h-36c-1.108 0-2-0.892-2-2v-36c0-1.108 0.892-2 2-2z" style="fill:#1ea362"/>
 <path d="m6.0001 4c-1.108 0-2 0.892-2 2v1c0-1.108 0.892-2 2-2h31.013702l0.501882-1z" style="fill:#ffffff;opacity:.1"/>
 <path d="m44 6-18.681641 19.039062h-4.748047c-1.108 1e-6 -2 0.892-2 2v4.390626l-12.570312 12.570312h36l-6.734375-6.734375c0.30312-0.3504 0.494141-0.800932 0.494141-1.302734v-0.582032l8.240234 6.619141v-36z" style="fill-rule:evenodd;fill:#e4e4e4"/>
 <path d="m40.465 4-4.407223 4.3993665-32.057777 32.000634v1.535c0 1.108 0.892 2 2 2h1.5371l31.742158-31.687315 1.082197-2.4542157-0.376411-1.9135116c-0.213859-1.0871653-1.083933-0.4920027-0.619825-1.4981179l1.099681-2.3839398z" style="fill-rule:evenodd;fill:#ffffff"/>
 <path d="m6.0001 45c-1.108 0-2-0.892-2-2v-1c0 1.108 0.892 2 2 2h36c1.108 0 2-0.892 2-2v1c0 1.108-0.892 2-2 2h-36z" style="opacity:.2"/>
 <circle cx="35" cy="14" r="11" style="fill-rule:evenodd;fill:#000000;opacity:.1"/>
 <circle cx="35" cy="13" r="11" style="fill-rule:evenodd;fill:#ffb505"/>
 <path d="m35.564453 26c-6.564453 0-12.564456 3-12.564453 7.994141v10.005859h19c1.108 0 2-0.892 2-2v-14.220703c-2.224465-1.121954-5.179547-1.779297-8.435547-1.779297z" style="fill-rule:evenodd;fill:#ffb505"/>
 <path d="m35.564453 26c-2.95824 0-5.795811 0.613801-8.027344 1.740234l2.357422 2.359375 5.894531 5.900391 5.605469-6 2.234375-2.390625c-2.178325-1.014434-4.982516-1.609375-8.064453-1.609375z" style="fill-rule:evenodd;fill:#fa7102"/>
 <path d="M 35 2 A 11 11 0 0 0 24 13 A 11 11 0 0 0 24.021484 13.585938 A 11 11 0 0 1 35 3 A 11 11 0 0 1 45.978516 13.414062 A 11 11 0 0 0 46 13 A 11 11 0 0 0 35 2 z " style="fill-rule:evenodd;fill:#ffffff;opacity:.2"/>
 <path d="m 13.123047,7.9999995 c -2.3506,0 -4.4480816,1.3503125 -5.4687501,3.3203125 C 7.2368435,12.130312 7,13.039999 7,14 c 0,0.99 0.2524306,1.93 0.6933594,2.75 1.0339372,1.929998 3.1076666,3.25 5.4296876,3.25 1.54223,0 2.92012,-0.579065 3.955078,-1.539063 C 18.266183,17.360934 19,15.77 19,14 19,13.658772 18.96806,13.326036 18.91602,13 l -0.916016,0 -1.134766,0 -3.865234,0 0,2 3.867187,0 c -0.223695,0.866018 -0.731191,1.632076 -1.44141,2.175781 A 4,4 0 0 1 13,18 4,4 0 0 1 9.2949219,15.501953 4,4 0 0 1 9,14 4,4 0 0 1 9.28125,12.535156 4,4 0 0 1 13,9.9999995 4,4 0 0 1 15.691406,11.048828 l 1.457031,-1.4492191 c -1.041083,-0.99 -2.447437,-1.5996094 -4.02539,-1.5996094 z" style="fill:#000000;opacity:.2"/>
 <path d="m 13.123047,6.9999995 c -2.3506,0 -4.4480816,1.3503125 -5.4687501,3.3203125 C 7.2368435,11.130312 7,12.039999 7,13 c 0,0.99 0.2524306,1.93 0.6933594,2.75 1.0339372,1.929998 3.1076666,3.25 5.4296876,3.25 1.54223,0 2.92012,-0.579065 3.955078,-1.539063 C 18.266183,16.360934 19,14.77 19,13 19,12.658772 18.96806,12.326036 18.91602,12 l -0.916016,0 -1.134766,0 -3.865234,0 0,2 3.867187,0 c -0.223695,0.866018 -0.731191,1.632076 -1.44141,2.175781 A 4,4 0 0 1 13,17 4,4 0 0 1 9.2949219,14.501953 4,4 0 0 1 9,13 4,4 0 0 1 9.28125,11.535156 4,4 0 0 1 13,8.9999995 4,4 0 0 1 15.691406,10.048828 l 1.457031,-1.4492191 c -1.041083,-0.99 -2.447437,-1.5996094 -4.02539,-1.5996094 z" style="fill:#ffffff"/>
</svg>
