<svg width="48" height="48" version="1" xmlns="http://www.w3.org/2000/svg">
 <rect transform="matrix(0,-1,-1,0,0,0)" x="-44" y="-44" width="40" height="40" rx="20" ry="20" style="fill:#4e8df5"/>
 <path d="m31 19a3 3 0 0 0-3 3 3 3 0 0 0 3 3 3 3 0 0 0 3-3 3 3 0 0 0-3-3zm7.414062 0.01367c-0.448977 0.01875-0.913481 0.05537-1.128906 0.09961-0.310859 0.06384-0.422752 0.442986-0.65625 2.242188-0.226645 1.746388-0.424779 2.501352-0.914062 3.474609-0.816902 1.624941-2.324145 2.725445-4.197266 3.064453-2.632329 0.476414-3.530467 0.718386-4.564453 1.232422-1.218919 0.681583-2.719793 2.08023-2.953125 3.873048h11v-1.222656s-0.01249-0.611399 0.417969-1.011719l3.609375-4.130859c0.06757-0.128685 0.333044-1.762723 0.589844-3.63086 0.428083-3.114177 0.451582-3.417664 0.292968-3.660156-0.09515-0.145466-0.303485-0.289793-0.46289-0.320312-0.151105-0.02893-0.584226-0.02851-1.033204-0.0098z" style="fill:#ffffff;opacity:.4"/>
 <path d="m24 4c-11.08 0-20 8.92-20 20 0 0.168-4e-3 0.333 0 0.5 0.2644-10.846 9.088-19.5 20-19.5s19.736 8.654 20 19.5c4e-3 -0.167 0-0.332 0-0.5 0-11.08-8.92-20-20-20z" style="fill:#ffffff;opacity:.2"/>
 <path d="m4.0117 24.5c-0.0041 0.167-0.0117 0.332-0.0117 0.5 0 11.08 8.92 20 20 20s20-8.92 20-20c0-0.168-8e-3 -0.333-0.012-0.5-0.264 10.846-9.076 19.5-19.988 19.5s-19.724-8.654-19.988-19.5z" style="opacity:.2"/>
 <path d="m11.255859 16c-0.240495 0.0015-0.432087 0.0107-0.53125 0.0293-0.209218 0.03925-0.482537 0.225081-0.607421 0.412109-0.2081817 0.311776-0.1751407 0.70309 0.386718 4.707032 0.337049 2.40189 0.773438 4.667968 0.773438 4.667968l4.365234 5.478516c0.336263 0.319256 0.357422 0.984372 0.357422 0.984372v1.720703h15c-0.306248-2.305052-2.277122-4.104149-3.876953-4.980469-1.357106-0.660904-2.535302-0.971451-5.990235-1.583984-2.45847-0.435867-4.43758-1.852196-5.509765-3.941406-0.642184-1.25133-0.901749-2.219487-1.199219-4.464844-0.306467-2.313261-0.451373-2.800734-0.859375-2.882813-0.424118-0.08532-1.587108-0.150958-2.308594-0.146484zm9.744141 0a4 4 0 0 0-4 4 4 4 0 0 0 4 4 4 4 0 0 0 4-4 4 4 0 0 0-4-4z" style="fill:#000000;opacity:.2"/>
 <path d="m11.255859 15c-0.240495 0.0015-0.432087 0.0107-0.53125 0.0293-0.209218 0.03925-0.482537 0.225081-0.607421 0.412109-0.2081817 0.311776-0.1751407 0.70309 0.386718 4.707032 0.337049 2.40189 0.773438 4.667968 0.773438 4.667968l4.365234 5.478516c0.336263 0.319256 0.357422 0.984372 0.357422 0.984372v1.720703h15c-0.306248-2.305052-2.277122-4.104149-3.876953-4.980469-1.357106-0.660904-2.535302-0.971451-5.990235-1.583984-2.45847-0.435867-4.43758-1.852196-5.509765-3.941406-0.642184-1.25133-0.901749-2.219487-1.199219-4.464844-0.306467-2.313261-0.451373-2.800734-0.859375-2.882813-0.424118-0.08532-1.587108-0.150958-2.308594-0.146484zm9.744141 0a4 4 0 0 0-4 4 4 4 0 0 0 4 4 4 4 0 0 0 4-4 4 4 0 0 0-4-4z" style="fill:#ffffff"/>
</svg>
