<svg width="48" height="48" version="1" xmlns="http://www.w3.org/2000/svg">
 <path d="m40 42v-36c0-1.108-0.892-2-2-2h-28c-1.108 0-2 0.892-2 2v36c0 1.108 0.892 2 2 2h28c1.108 0 2-0.892 2-2z" fill="#e4e4e4"/>
 <path d="m15 31v-2h12.5v2zm0-4v-2h18v2zm0-4v-2h18v2zm0-4v-2h18v2z" style="opacity:.5"/>
 <path d="m10 4c-1.108 0-2 0.892-2 2v1c0-1.108 0.892-2 2-2h28c1.108 0 2 0.892 2 2v-1c0-1.108-0.892-2-2-2z" fill="#fff" opacity=".2"/>
 <path d="m8 42v1c0 1.108 0.892 2 2 2h28c1.108 0 2-0.892 2-2v-1c0 1.108-0.892 2-2 2h-28c-1.108 0-2-0.892-2-2z" opacity=".2"/>
 <circle cx="36" cy="37" r="11" opacity=".2"/>
 <circle cx="36" cy="36" r="11" fill="#f34235" style="fill:#4585f3"/>
 <path d="m39.699 35.99995c0-1.3-0.72-2.42-1.79-3v6c1.06-0.58 1.79-1.7 1.79-3zm-10.699-2.909v5.8182h2.8182l4.0907 4.0909v-14l-4.0907 4.0909zm8.909-4.091v1.5c2.32 0.74 4 2.93 4 5.5s-1.68 4.76-4 5.5v1.5c3.15-0.78 5.5-3.6 5.5-7s-2.35-6.22-5.5-7z" style="fill:#ffffff"/>
</svg>
