<svg width="48" height="48" version="1" xmlns="http://www.w3.org/2000/svg">
 <path d="m33 5c-1.108 0-2 0.892-2 2v9.744141a15 15 0 0 0-7-1.744141 15 15 0 0 0-15 15 15 15 0 0 0 15 15 15 15 0 0 0 15-15 15 15 0 0 0-0.0039-0.09961h0.0039v-22.90039c0-1.108-0.892-2-2-2z" style="fill-rule:evenodd;fill:#000000;opacity:.2"/>
 <path d="m33 4c-1.108 0-2 0.892-2 2v9.744141a15 15 0 0 0-7-1.744141 15 15 0 0 0-15 15 15 15 0 0 0 15 15 15 15 0 0 0 15-15 15 15 0 0 0-0.0039-0.09961h0.0039v-22.90039c0-1.108-0.892-2-2-2z" style="fill-rule:evenodd;fill:#2a8dce"/>
 <path d="m33 4c-1.108 0-2 0.892-2 2v1c0-1.108 0.892-2 2-2h4c1.108 0 2 0.892 2 2v-1c0-1.108-0.892-2-2-2zm-9 10a15 15 0 0 0-15 15 15 15 0 0 0 0.0195312 0.414062 15 15 0 0 1 14.980469-14.414062 15 15 0 0 1 7 1.744141v-1a15 15 0 0 0-7-1.744141z" style="fill-rule:evenodd;fill:#ffffff;opacity:.1"/>
 <path d="m25.75 8c-0.9695 0-1.75 0.892-1.75 2v19h7v-19c0-1.108-0.7805-2-1.75-2z" style="fill:#20d6ba"/>
 <path d="m18.75 12c-0.9695 0-1.75 0.892-1.75 2v15h7v-15c0-1.108-0.7805-2-1.75-2z" style="fill:#f8ca4b"/>
 <circle cx="24" cy="30" r="7" style="fill-rule:evenodd;fill:#000000;opacity:.2"/>
 <circle cx="24" cy="29" r="7" style="fill-rule:evenodd;fill:#ffffff"/>
 <path d="m25.75 8c-0.9695 0-1.75 0.892-1.75 2v1c0-1.108 0.7805-2 1.75-2h3.5c0.9695 0 1.75 0.892 1.75 2v-1c0-1.108-0.7805-2-1.75-2z" style="fill:#ffffff;opacity:.2"/>
 <path d="m18.75 12c-0.9695 0-1.75 0.892-1.75 2v1c0-1.108 0.7805-2 1.75-2h3.5c0.9695 0 1.75 0.892 1.75 2v-1c0-1.108-0.7805-2-1.75-2z" style="fill:#ffffff;opacity:.2"/>
</svg>
