<svg width="48" height="48" version="1.1" viewBox="0 0 48 48" xmlns="http://www.w3.org/2000/svg">
 <circle cx="24" cy="25" r="20" style="opacity:.2"/>
 <circle cx="24" cy="24" r="20" style="fill:#5390f5"/>
 <path d="m 24.296875,11 c -5.489796,0 -10.378308,3.159766 -12.755859,7.759766 l 3.33789,2.259765 -3.347656,-2.259765 C 10.561862,20.639766 10,22.76 10,25 c 0,2.32 0.592435,4.499922 1.623047,6.419922 L 16.5625,27.943359 A 8,8 0 0 1 16,25 8,8 0 0 1 16.537109,22.140625 8,8 0 0 1 24,17 8,8 0 0 1 29.5,19.203125 L 33.683594,14.75 C 31.255022,12.43 27.970345,11 24.296875,11 Z M 24,22 l 0,6 7.408203,0 c -0.589832,1.456204 -1.597432,2.703639 -2.892578,3.591797 A 8,8 0 0 1 24,33 8,8 0 0 1 16.566406,27.949219 l -4.933594,3.470703 C 14.040978,35.919922 18.878508,39 24.296875,39 27.888712,39 31.101164,37.649922 33.519531,35.419922 36.284838,32.859922 38,29.13 38,25 38,24.328025 37.94037,23.676599 37.851562,23.033203 l 0.01172,-0.08008 L 37.699219,22 35.353516,22 24,22 Z" style="opacity:.2"/>
 <path d="M 24,4 A 20,20 0 0 0 4,24 20,20 0 0 0 4.0215,24.582 20,20 0 0 1 24,5 20,20 0 0 1 43.979,24.418 20,20 0 0 0 44,24 20,20 0 0 0 24,4 Z" style="fill:#ffffff;opacity:.2"/>
 <path d="m24.296875 10c-5.489796 0-10.378308 3.159766-12.755859 7.759766l3.33789 2.259765-3.347656-2.259765c-0.969388 1.88-1.53125 4.000234-1.53125 6.240234 0 2.32 0.592435 4.499922 1.623047 6.419922l4.939453-3.476563a8 8 0 0 1-0.5625-2.943359 8 8 0 0 1 0.537109-2.859375 8 8 0 0 1 7.462891-5.140625 8 8 0 0 1 5.5 2.203125l4.183594-4.453125c-2.428572-2.32-5.713249-3.75-9.386719-3.75zm-0.296875 11v6h7.408203c-0.589832 1.456204-1.597432 2.703639-2.892578 3.591797a8 8 0 0 1-4.515625 1.408203 8 8 0 0 1-7.433594-5.050781l-4.933594 3.470703c2.408165 4.5 7.245696 7.580078 12.664063 7.580078 3.591837 0 6.804289-1.350078 9.222656-3.580078 2.765307-2.56 4.480469-6.289922 4.480469-10.419922 0-0.671975-0.059629-1.323401-0.148438-1.966797l0.011719-0.080078-0.164062-0.953125h-13.699219z" style="fill:#ffffff"/>
</svg>
