<svg width="48" height="48" version="1.1" viewBox="0 0 48 48" xmlns="http://www.w3.org/2000/svg">
 <path d="m18 10a15 15 0 0 0-15 15 15 15 0 0 0 15 15h17c5.522847 0 10-4.477153 10-10s-4.477153-10-10-10h-2.875a15 15 0 0 0-14.125-10z" style="fill:#000000;opacity:.2"/>
 <path d="m18 9a15 15 0 0 0-15 15 15 15 0 0 0 15 15h17c5.522847 0 10-4.477153 10-10s-4.477153-10-10-10h-2.875a15 15 0 0 0-14.125-10z" style="fill:#4989f4"/>
 <path d="m18 17.000475a8 8 0 0 0-8 8 8 8 0 0 0 8 8 8 8 0 0 0 4.232422-1.222656l4.263672 3.83789a1.5005246 1.5005246 0 1 0 2.007812-2.230468l-4.0625-3.65625a8 8 0 0 0 1.558594-4.728516 8 8 0 0 0-8-8zm0 3a5 5 0 0 1 5 5 5 5 0 0 1-5 5 5 5 0 0 1-5-5 5 5 0 0 1 5-5z" style="fill:#000000;opacity:.2"/>
 <path d="m18 16.000475a8 8 0 0 0-8 8 8 8 0 0 0 8 8 8 8 0 0 0 4.232422-1.222656l4.263672 3.83789a1.5005246 1.5005246 0 1 0 2.007812-2.230468l-4.0625-3.65625a8 8 0 0 0 1.558594-4.728516 8 8 0 0 0-8-8zm0 3a5 5 0 0 1 5 5 5 5 0 0 1-5 5 5 5 0 0 1-5-5 5 5 0 0 1 5-5z" style="fill:#ffffff"/>
 <path d="M 18,9 A 15,15 0 0 0 3,24 15,15 0 0 0 3.0195312,24.414062 15,15 0 0 1 18,10 15,15 0 0 1 32.125,20 H 35 c 5.353879,0 9.712153,4.211262 9.974609,9.5 C 44.982892,29.333088 45,29.168968 45,29 45,23.477153 40.522847,19 35,19 H 32.125 A 15,15 0 0 0 18,9 Z" style="fill:#ffffff;opacity:.2"/>
</svg>
