<svg width="48" height="48" version="1" xmlns="http://www.w3.org/2000/svg">
 <path d="m24 9.0001527c-1.250544 0-2.500753 0.4792687-3.458984 1.4375003l-12.5625 12.5625h-1.9785156v4c0 1.250544 0.4792687 2.500753 1.4375 3.458984l13.103516 13.103516c1.916462 1.916463 5.001506 1.916463 6.917968 0l13.103516-13.103516c0.958231-0.958231 1.4375-2.20844 1.4375-3.458984v-4h-1.978516l-12.5625-12.5625c-0.958231-0.9582316-2.20844-1.4375003-3.458984-1.4375003z" style="fill:#000000;opacity:.2;stroke-width:.7078836"/>
 <path d="m24 8c-1.250544 0-2.500753 0.4792687-3.458984 1.4375l-12.5625 12.5625h-1.9785156v4c0 1.250544 0.4792687 2.500753 1.4375 3.458984l13.103516 13.103516c1.916462 1.916463 5.001506 1.916463 6.917968 0l13.103516-13.103516c0.958231-0.958231 1.4375-2.20844 1.4375-3.458984v-4h-1.978516l-12.5625-12.5625c-0.958231-0.9582313-2.20844-1.4375-3.458984-1.4375z" style="fill:#cccccc;stroke-width:.7078836"/>
 <rect transform="matrix(-.70710678 -.70710678 -.70710678 .70710678 0 0)" x="-46.684586" y="-15.571885" width="28.315344" height="28.315344" rx="4.8922157" ry="4.8922157" style="fill:#e4e4e4;stroke-width:.7078836"/>
 <path d="m24 4c-1.250544 0-2.500753 0.4792687-3.458984 1.4375l-13.103516 13.103516c-1.0865475 1.086547-1.5341708 2.546924-1.3886719 3.958984 0.1111334-1.078545 0.5587567-2.129069 1.3886719-2.958984l13.103516-13.103516c1.916462-1.9164627 5.001506-1.9164627 6.917968 0l13.103516 13.103516c0.829915 0.829915 1.277538 1.880439 1.388672 2.958984 0.145499-1.41206-0.302125-2.872437-1.388672-3.958984l-13.103516-13.103516c-0.958231-0.9582313-2.20844-1.4375-3.458984-1.4375z" style="fill:#ffffff;opacity:.2;stroke-width:.7078836"/>
 <circle transform="rotate(-45)" cx="-6.3084507" cy="27.249575" r="3" style="fill:#000000;opacity:.1"/>
 <circle transform="rotate(-45)" cx="-5.6013236" cy="26.542448" r="3" style="fill:#3f575e"/>
 <circle transform="rotate(-45)" cx="7.6915498" cy="27.249575" r="3" style="fill:#000000;opacity:.1"/>
 <circle transform="rotate(-45)" cx="8.3986769" cy="26.542448" r="3" style="fill:#3f575e"/>
 <path d="m31.071067 15.950933c3.905242 3.905242 3.905242 10.236893 0 14.142135-3.905243 3.905243-10.236893 3.905243-14.142136 0z" style="fill:#000000;opacity:.1"/>
 <path d="m31.071067 14.950904c3.905242 3.905242 3.905242 10.236893 0 14.142135-3.905243 3.905243-10.236893 3.905243-14.142136 0z" style="fill:#3f575e"/>
</svg>
