<svg width="48" height="48" version="1" xmlns="http://www.w3.org/2000/svg">
 <path d="m24 7.0007535c-6.46451 0-11.506995 2.629832-14.931641 4.9902335-3.4246426 2.360403-5.4804688 4.738282-5.4804688 4.738282a3.9237009 2.7881619 0 0 0-0.0625 2.861328l8.5371094 10.507812 2.169922 2.669922 6.367187 7.837891c0.734349 0.903553 2.117275 1.440127 3.583985 1.390625 1.33494-0.04427 2.546441-0.568302 3.214844-1.390625l1.982421-2.441407 6.552735-8.066406 4.386718-5.396484 4.154297-5.111328c0.722688-0.888959 0.699434-1.988211-0.06055-2.861328 0 0-2.061685-2.377881-5.486328-4.738282-3.424585-2.3604007-8.463225-4.9902335-14.927731-4.9902335zm0 7.9999995c0.540136 0 1.062324 0.0278 1.568359 0.07813 0.501907 0.04992 0.988824 0.121817 1.462891 0.214844 0.0073 0.0014 0.01422 0.0044 0.02148 0.0059 0.0012 2.44e-4 0.0027-2.44e-4 0.0039 0 0.45988 0.09106 0.914756 0.202407 1.36914 0.333984h2e-3c0.457065 0.132522 0.900403 0.282489 1.332032 0.447266 0.189996 0.07253 0.369519 0.156458 0.554687 0.234375 0.235935 0.09854 0.477093 0.190971 0.705078 0.296875 0.399285 0.185487 0.797639 0.387744 1.197266 0.605469 0.77736 0.423502 1.505986 0.880084 2.177734 1.339844 0.230761 0.158085 0.143923 0.144623 0.355469 0.298828l-0.01367 0.01758-10.738281 13.126953-4.078125-4.919922 0.03125-0.03125-1.681641-2.05664-5.019569-6.13872c0.169977-0.123169 0.174636-0.174378 0.353516-0.296875 2.690849-1.842701 6.099607-3.556641 10.396484-3.556641z" style="block-progression:tb;color-rendering:auto;color:#000000;fill:#000000;image-rendering:auto;isolation:auto;mix-blend-mode:normal;opacity:.2;shape-rendering:auto;solid-color:#000000;text-decoration-color:#000000;text-decoration-line:none;text-decoration-style:solid;text-indent:0;text-transform:none;white-space:normal"/>
 <path d="m24.000016 6.0000002c-6.46451 0-11.507521 2.6295366-14.932166 4.9899398-3.4246427 2.360403-5.4808451 4.738718-5.4808451 4.738718a3.9237009 2.7881619 0 0 0-0.061939 2.860306l8.5381123 10.508592 8.536522 10.508593a3.9237009 2.7881619 0 0 0 3.582958 1.390746 3.9237009 2.7881619 0 0 0 3.214498-1.390746l8.536523-10.508593 8.539699-10.508592a3.9237009 2.7881619 0 0 0-0.06035-2.860306s-2.060967-2.378317-5.48561-4.738718c-3.424642-2.3604032-8.462894-4.9899398-14.9274-4.9899398z" style="block-progression:tb;color-rendering:auto;color:#000000;fill:#41a010;image-rendering:auto;isolation:auto;mix-blend-mode:normal;opacity:.58699999;shape-rendering:auto;solid-color:#000000;text-decoration-color:#000000;text-decoration-line:none;text-decoration-style:solid;text-indent:0;text-transform:none;white-space:normal"/>
 <path d="m19.919604 26.080078-5.687393 5.6875 6.367067 7.837891c0.734349 0.903553 2.117208 1.440127 3.583918 1.390625 1.33494-0.04427 2.546382-0.568302 3.214784-1.390625l1.982384-2.441407-5.382711-6.164062z" style="block-progression:tb;color-rendering:auto;color:#000000;fill:#f4b70a;image-rendering:auto;isolation:auto;mix-blend-mode:normal;shape-rendering:auto;solid-color:#000000;text-decoration-color:#000000;text-decoration-line:none;text-decoration-style:solid;text-indent:0;text-transform:none;white-space:normal"/>
 <path d="m23.999606 6c-6.46451 0-11.506715 2.6298316-14.931361 4.990234-3.4246426 2.360403-5.4803658 4.738282-5.4803658 4.738282a3.9237009 2.7881619 0 0 0-0.062499 2.861328l8.5369493 10.507812 2.169881 2.669922 5.718643-5.71875-1.68161-2.05664-5.019436-6.138672c0.169977-0.123169 0.174629-0.174378 0.353509-0.296875 2.6908491-1.842701 6.0994121-3.556641 10.396289-3.556641v-8z" style="block-progression:tb;color-rendering:auto;color:#000000;fill:#518ff5;image-rendering:auto;isolation:auto;mix-blend-mode:normal;shape-rendering:auto;solid-color:#000000;text-decoration-color:#000000;text-decoration-line:none;text-decoration-style:solid;text-indent:0;text-transform:none;white-space:normal"/>
 <path d="m23.999606 6v8c0.540136 0 1.062294 0.0278 1.568329 0.07813 0.501907 0.04992 0.988797 0.121817 1.462864 0.214844 0.0073 0.0014 0.01422 0.0044 0.02148 0.0059 0.0012 2.44e-4 0.0027-2.44e-4 0.0039 0 0.45988 0.09106 0.914731 0.202406 1.369115 0.333984 5.98e-4 1.74e-4 0.0014-1.73e-4 2e-3 0 0.457065 0.132521 0.900378 0.282489 1.332007 0.447266 0.189996 0.07253 0.369509 0.156458 0.554677 0.234375 0.235935 0.09854 0.47708 0.190971 0.705065 0.296875 0.399285 0.185487 0.797616 0.387744 1.197243 0.605469 0.77736 0.423502 1.505945 0.880084 2.177693 1.339844 0.230761 0.158085 0.143917 0.144623 0.355463 0.298828l-0.01367 0.01758c0.0036 0.0027 0.0058 0.0058 0 0l-10.738119 13.126905 5.382711 6.164062 6.552612-8.066406 8.540854-10.507812c0.722688-0.888959 0.699431-1.988211-0.06055-2.861328 0 0-2.061582-2.377881-5.486225-4.738282-3.424588-2.3604016-8.462943-4.990234-14.927449-4.990234z" style="block-progression:tb;color-rendering:auto;color:#000000;fill:#dc4b3f;image-rendering:auto;isolation:auto;mix-blend-mode:normal;shape-rendering:auto;solid-color:#000000;text-decoration-color:#000000;text-decoration-line:none;text-decoration-style:solid;text-indent:0;text-transform:none;white-space:normal"/>
 <path d="m34.749404 17.855469-0.01363 0.01763-10.738121 13.126901 5.382711 6.164062 6.552612-8.066406 4.386635-5.396484c-1.168519-2.174519-5.135073-5.562119-5.570207-5.845703z" style="block-progression:tb;color-rendering:auto;color:#000000;fill:#3aab58;image-rendering:auto;isolation:auto;mix-blend-mode:normal;shape-rendering:auto;solid-color:#000000;text-decoration-color:#000000;text-decoration-line:none;text-decoration-style:solid;text-indent:0;text-transform:none;white-space:normal"/>
 <path d="m23.999606 14.999988c1.075865 0 2.078307 0.106318 3.030341 0.293136 0.468558 0.09195 0.932227 0.205717 1.395012 0.339728 0.913563 0.264522 1.779769 0.599887 2.594644 0.978414 0.399285 0.185487 0.796097 0.387961 1.195724 0.605686 0.77736 0.423502 1.506737 0.879735 2.178485 1.339495 0.230761 0.158085 0.144046 0.144755 0.355592 0.29896l-5.021263 6.136446a8.0035578 7.9523552 0 0 0 0 2e-3l-5.730488 7.006147-5.728538-7.00809-5.019307-6.138386c0.169977-0.123169 0.174757-0.174568 0.353637-0.297065 2.690849-1.842701 6.099284-3.556471 10.396161-3.556471z" style="block-progression:tb;color-rendering:auto;color:#000000;fill:#000000;image-rendering:auto;isolation:auto;mix-blend-mode:normal;opacity:.2;shape-rendering:auto;solid-color:#000000;text-decoration-color:#000000;text-decoration-line:none;text-decoration-style:solid;text-indent:0;text-transform:none;white-space:normal"/>
 <path d="m23.999606 13.999988c1.075865 0 2.078307 0.106318 3.030341 0.293136 0.468558 0.09195 0.932227 0.205717 1.395012 0.339728 0.913563 0.264522 1.779769 0.599887 2.594644 0.978414 0.399285 0.185487 0.796097 0.387961 1.195724 0.605686 0.77736 0.423502 1.506737 0.879735 2.178485 1.339495 0.230761 0.158085 0.144046 0.144755 0.355592 0.29896l-5.021263 6.136446a8.0035578 7.9523552 0 0 0 0 2e-3l-5.730488 7.006147-5.728538-7.00809-5.019307-6.138386c0.169977-0.123169 0.174757-0.174568 0.353637-0.297065 2.690849-1.842701 6.099284-3.556471 10.396161-3.556471z" style="block-progression:tb;color-rendering:auto;color:#000000;fill:#ffffff;image-rendering:auto;isolation:auto;mix-blend-mode:normal;shape-rendering:auto;solid-color:#000000;text-decoration-color:#000000;text-decoration-line:none;text-decoration-style:solid;text-indent:0;text-transform:none;white-space:normal"/>
 <path d="m24 6c-6.46451 0-11.506995 2.6298328-14.931641 4.990234-3.4246426 2.360403-5.4804688 4.738282-5.4804688 4.738282a3.9237009 2.7881619 0 0 0-0.5195312 1.96875 3.9237009 2.7881619 0 0 1 0.5195312-0.96875s2.0558262-2.377879 5.4804688-4.738282c3.4246456-2.3604007 8.4671306-4.990234 14.931641-4.990234 6.464506 0 11.503152 2.6298341 14.927734 4.990234 3.424643 2.360401 5.486328 4.738282 5.486328 4.738282 0.261049 0.299906 0.428799 0.627309 0.515626 0.96289 0.170099-0.667486 0.002771-1.367325-0.515626-1.96289 0 0-2.061685-2.377881-5.486328-4.738282-3.424585-2.3604004-8.463228-4.990234-14.927734-4.990234z" style="block-progression:tb;color-rendering:auto;color:#000000;fill:#ffffff;image-rendering:auto;isolation:auto;mix-blend-mode:normal;opacity:.2;shape-rendering:auto;solid-color:#000000;text-decoration-color:#000000;text-decoration-line:none;text-decoration-style:solid;text-indent:0;text-transform:none;white-space:normal"/>
</svg>
