<svg width="48" height="48" version="1" xmlns="http://www.w3.org/2000/svg">
 <path d="M 2.0234,25.568 C 2.0151,25.743 2,25.915 2,26.092 2,32.117 6.9249,37 13,37 l 23.375,0 C 41.691,37 46,32.727 46,27.455 46,27.282 45.986,27.112 45.977,26.941 45.719,31.985 41.525,36 36.375,36 L 13,36 C 7.0871,36 2.277,31.37 2.023,25.568 Z" style="opacity:.2"/>
 <path d="M 24,6 C 18.305,6 13.455,9.458 11.367,14.352 6.0657,15.134 2,19.616 2,25.091 2,31.116 6.9249,36 13,36 l 23.375,0 C 41.691,36 46,31.726 46,26.455 46,21.555 42.285,17.54 37.492,16.994 36.242,10.74 30.674,6 24,6 Z" style="fill:#e4e4e4"/>
 <path d="M 24,6 C 18.305,6 13.455,9.457 11.367,14.352 6.0657,15.133 2,19.617 2,25.092 2,25.253 2.0165,25.409 2.0234,25.568 2.2741,20.334 6.2364,16.108 11.367,15.352 13.455,10.457 18.305,7 24,7 c 6.674,0 12.242,4.739 13.492,10.994 4.624,0.526 8.234,4.284 8.485,8.947 C 45.985,26.779 46,26.619 46,26.455 46,21.555 42.285,17.54 37.492,16.994 36.242,10.739 30.674,6 24,6 Z" style="fill:#ffffff;opacity:.2"/>
 <rect x="11" y="25" width="26" height="3" rx="1.5" ry="1.5" style="fill-rule:evenodd;fill:#4f4f4f"/>
 <path d="m15 26v15c0 1.108 0.892 2 2 2h14c1.108 0 2-0.892 2-2v-15h-18z" style="fill-rule:evenodd;fill:#000000;opacity:.2"/>
 <path d="m15 25v15c0 1.108 0.892 2 2 2h14c1.108 0 2-0.892 2-2v-15h-18z" style="fill-rule:evenodd;fill:#4c7dce"/>
 <path d="m18 31v2h12v-2h-12zm0 3v2h12v-2h-12zm0 3v2h12v-2h-12z" style="fill-rule:evenodd;fill:#000000;opacity:.2"/>
 <path d="m18 30v2h12v-2h-12zm0 3v2h12v-2h-12zm0 3v2h12v-2h-12z" style="fill-rule:evenodd;fill:#ffffff"/>
 <path d="m12.5 25c-0.831 0-1.5 0.669-1.5 1.5 0 0.17676 0.036139 0.342779 0.091797 0.5 0.206006-0.581923 0.753963-1 1.408203-1h23c0.65424 0 1.202197 0.418077 1.408203 1 0.055658-0.157221 0.091797-0.32324 0.091797-0.5 0-0.831-0.669-1.5-1.5-1.5h-23z" style="fill-rule:evenodd;fill:#000000;opacity:.1"/>
</svg>
