<svg width="48" height="48" version="1.1" xmlns="http://www.w3.org/2000/svg">
 <path d="m24 5.0000004c-11.035307 0-20 8.9646896-20 20s8.964693 20.000003 20 20c11.035307 0 20.00001-8.96469 20-20 0-11.03531-8.964693-20-20-20z" style="opacity:.2"/>
 <path d="m24 4.0000004c-11.035307 0-20 8.9646896-20 20s8.964693 20.000003 20 20c11.035307 0 20.00001-8.96469 20-20 0-11.03531-8.964693-20-20-20z" style="fill:#e4e4e4"/>
 <path d="M 24,4 C 12.964693,4 4,12.96469 4,24 4,24.167832 4.0076,24.33315 4.011719,24.5 4.2786829,13.696117 13.132525,5 24,5 34.867475,5 43.721317,13.696117 43.988281,24.5 43.992404,24.33315 44,24.167832 44,24 44,12.96469 35.035307,4 24,4 Z" style="fill:#ffffff;opacity:.1"/>
 <path d="M 24.000001,9.0000001 C 15.171752,9.0000001 8,16.171751 8,24.999999 8,33.828248 15.171752,41.000002 24.000001,41 32.828248,41 40.000006,33.828248 40,24.999999 40,16.171751 32.828248,9.0000001 24.000001,9.0000001 Z" style="opacity:.2"/>
 <path d="M 24.000001,8.0000001 C 15.171752,8.0000001 8,15.171751 8,23.999999 8,32.828248 15.171752,40.000002 24.000001,40 32.828248,40 40.000006,32.828248 40,23.999999 40,15.171751 32.828248,8.0000001 24.000001,8.0000001 Z" style="fill:#4f8df5"/>
 <path d="M 24,8 C 15.171751,8 8,15.171752 8,24 8,24.168765 8.020188,24.332484 8.025391,24.5 8.2923691,15.904616 15.340516,9 24,9 32.659482,9 39.707631,15.904616 39.974609,24.5 39.979812,24.332484 40,24.168765 40,24 40,15.171752 32.828247,8 24,8 Z" style="fill:#ffffff;opacity:.1"/>
 <path d="m24 21c-2.207062 0-4 1.792938-4 4 0 2.207061 1.792938 4 4 4 2.207061 0 4-1.792939 4-4 0-2.207062-1.792939-4-4-4z" style="opacity:.2"/>
 <path d="m24 24.9998 16-16" style="fill:none;opacity:.2;stroke-linecap:round;stroke-linejoin:round;stroke-width:4;stroke:#000000"/>
 <path d="m24 24 16-16" style="fill:none;stroke-linecap:round;stroke-linejoin:round;stroke-width:4;stroke:#ffffff"/>
 <path d="m15 18.9998 9 6" style="fill:none;opacity:.2;stroke-linecap:round;stroke-linejoin:round;stroke-width:4;stroke:#000000"/>
 <path d="m15 18 9 6" style="fill:none;stroke-linecap:round;stroke-linejoin:round;stroke-width:4;stroke:#ffffff"/>
 <path d="m24 20c-2.207062 0-4 1.792938-4 4 0 2.207061 1.792938 4 4 4 2.207061 0 4-1.792939 4-4 0-2.207062-1.792939-4-4-4z" style="fill:#4f4f4f"/>
</svg>
