<svg width="48" height="48" version="1.1" viewBox="0 0 48 48" xmlns="http://www.w3.org/2000/svg">
 <path d="m24 5.0034351c-0.479692-0.0254558-0.772904 0.0735521-1.181641 0.3027344-0.69998 0.3924846-17.143585 12.843504-17.921875 13.570312-0.60194 0.562122-0.8964844 1.210207-0.8964844 1.976563 0 0.763849 6.7395564 22.442271 7.1601564 23.03125 0.33313 0.46648 0.960425 0.850293 1.677735 1.027343 0.24105 0.0595 5.095739 0.09874 11.162109 0.08594 6.066371 0.0128 10.921059-0.02644 11.162109-0.08594 0.71731-0.17705 1.344605-0.560862 1.677735-1.027343 0.4206-0.58898 7.160156-22.267401 7.160156-23.03125 0-0.766356-0.294544-1.414443-0.896484-1.976563-0.77829-0.72681-17.221895-13.177828-17.921875-13.570312-0.408737-0.2291823-0.701949-0.3281902-1.181641-0.3027344z" style="fill:#000000;opacity:.2"/>
 <path d="m24 4.0039062c-0.479692-0.0254558-0.772904 0.0735521-1.181641 0.3027344-0.69998 0.3924846-17.143585 12.843503-17.921875 13.570312-0.60194 0.562121-0.8964844 1.210207-0.8964844 1.976563 0 0.763849 6.7395564 22.44227 7.1601564 23.03125 0.33313 0.46648 0.960425 0.850293 1.677735 1.027343 0.24105 0.0595 5.095739 0.09874 11.162109 0.08594 6.066371 0.0128 10.921059-0.02644 11.162109-0.08594 0.71731-0.17705 1.344605-0.560862 1.677735-1.027343 0.4206-0.58898 7.160156-22.267401 7.160156-23.03125 0-0.766356-0.294544-1.414443-0.896484-1.976563-0.77829-0.72681-17.221895-13.177828-17.921875-13.570312-0.408737-0.2291823-0.701949-0.3281902-1.181641-0.3027344z" style="fill:#4a8bf5"/>
 <path d="m24 4.0039062c-0.479692-0.0254558-0.772904 0.0735521-1.181641 0.3027344-0.69998 0.3924846-17.143585 12.843503-17.921875 13.570312-0.60194 0.562121-0.8964844 1.210207-0.8964844 1.976563 0 0.02831 0.068091 0.267947 0.085937 0.351562 0.1237286-0.491592 0.3872222-0.932803 0.8105474-1.328125 0.77829-0.726809 17.221895-13.177828 17.921875-13.570312 0.408737-0.2291823 0.701949-0.3281901 1.181641-0.3027344 0.479692-0.025456 0.772904 0.073552 1.181641 0.3027344 0.69998 0.3924846 17.143585 12.843502 17.921875 13.570312 0.423325 0.395321 0.686819 0.836532 0.810546 1.328125 0.017847-0.083615 0.085938-0.323255 0.085938-0.351562 0-0.766356-0.294544-1.414443-0.896484-1.976563-0.77829-0.72681-17.221895-13.177828-17.921875-13.570312-0.408737-0.2291823-0.701949-0.3281902-1.181641-0.3027344z" style="fill:#ffffff;opacity:.1"/>
 <path d="m16.0002 23.000083 8 8 16-16" style="fill:none;opacity:.2;stroke-linecap:round;stroke-linejoin:round;stroke-width:4;stroke:#000000"/>
 <path d="m16.0002 22.000083 8 8 16-16" style="fill:none;stroke-linecap:round;stroke-linejoin:round;stroke-width:4;stroke:#ffffff"/>
</svg>
