<svg width="48" height="48" version="1" xmlns="http://www.w3.org/2000/svg">
 <path d="m24 9-20 20v10c0 1.108 0.892 2 2 2h36c1.108 0 2-0.892 2-2v-28c0-1.108-0.892-2-2-2z" style="fill:#000000;opacity:.2"/>
 <rect x="4" y="12" width="30" height="20" rx="2" ry="2.5" style="fill-rule:evenodd;fill:#1fa363"/>
 <path d="m6 12c-1.108 0-2 1.115-2 2.5v1c0-1.385 0.892-2.5 2-2.5h26c1.108 0 2 1.115 2 2.5v-1c0-1.385-0.892-2.5-2-2.5h-26z" style="fill-rule:evenodd;fill:#ffffff;opacity:.1"/>
 <path d="m24 8-20 20v10c0 1.108 0.892 2 2 2h36c1.108 0 2-0.892 2-2v-28c0-1.108-0.892-2-2-2z" style="fill:#4587f3"/>
 <path d="m24 9-20 20h18c1.108 0 2-0.892 2-2v-16z" style="fill-rule:evenodd;fill:#000000;opacity:.2"/>
 <path d="m24 8-20 20h18c1.108 0 2-0.892 2-2v-16z" style="fill-rule:evenodd;fill:#dd4d3e"/>
 <path d="m24 9-20 20c4.8890947-1.525575 9.543671-2.918179 11.863281-3.691406 3.209303-1.069802 3.800918-2.043522 4.583985-4.919922 0.186224-0.68405 1.912298-6.385949 3.552734-11.388672z" style="fill-rule:evenodd;fill:#000000;opacity:.2"/>
 <path d="m24 8-20 20c4.8890947-1.525575 9.543671-2.918179 11.863281-3.691406 3.209303-1.069802 3.800918-2.043522 4.583985-4.919922 0.186224-0.68405 1.912298-6.385949 3.552734-11.388672z" style="fill-rule:evenodd;fill:#f9bc14"/>
 <path d="m24 8-20 20v1l20-20h18c1.108 0 2 0.892 2 2v-1c0-1.108-0.892-2-2-2h-18z" style="fill:#ffffff;opacity:.1"/>
</svg>
