<svg width="48" height="48" version="1" xmlns="http://www.w3.org/2000/svg">
 <path d="m24.076779 4.000922a3.2594087 3.3749472 0 0 0-1.705144 0.4508038l-14.743269 8.8128052a3.2594087 3.3749472 0 0 0-1.6283657 2.922848v17.625611a3.2594087 3.3749472 0 0 0 1.6283657 2.922848l14.743269 8.812805a3.2594087 3.3749472 0 0 0 3.25673 0l14.743268-8.812805a3.2594087 3.3749472 0 0 0 1.628367-2.922848v-17.625611a3.2594087 3.3749472 0 0 0-1.628367-2.922848l-14.743268-8.8128052a3.2594087 3.3749472 0 0 0-1.551586-0.4508038z" style="color-rendering:auto;color:#000000;dominant-baseline:auto;fill:#000000;font-feature-settings:normal;font-variant-alternates:normal;font-variant-caps:normal;font-variant-ligatures:normal;font-variant-numeric:normal;font-variant-position:normal;image-rendering:auto;isolation:auto;mix-blend-mode:normal;opacity:.2;shape-padding:0;shape-rendering:auto;solid-color:#000000;text-decoration-color:#000000;text-decoration-line:none;text-decoration-style:solid;text-indent:0;text-orientation:mixed;text-transform:none;white-space:normal"/>
 <path d="m24.076779 3.0009219c-0.288168-0.00697-0.503429 0.630236-0.780797 0.7006138-0.297786 0.075559-0.596927 0.5554206-0.864972 0.7155674l-14.644279 8.7518039c-0.4961303 0.296919-1.0568012-0.186765-1.3374127 0.307671-0.2894949 0.510089-0.4494681 1.098665-0.4493177 1.710801v17.625611c-2.962e-4 1.205487 0.620399 2.319609 1.6283657 2.922848l14.743269 8.812805c1.007784 0.601809 2.248946 0.601809 3.25673 0l14.743268-8.812805c1.007967-0.603238 1.628663-1.71736 1.628367-2.922848v-17.625611c2.96e-4 -1.205488-0.6204-2.31961-1.628367-2.922848l-14.743268-8.8128053c-0.472601-0.2823736-1.006102-0.4373791-1.551586-0.4508038z" style="color-rendering:auto;color:#000000;dominant-baseline:auto;fill:#e4e4e4;font-feature-settings:normal;font-variant-alternates:normal;font-variant-caps:normal;font-variant-ligatures:normal;font-variant-numeric:normal;font-variant-position:normal;image-rendering:auto;isolation:auto;mix-blend-mode:normal;shape-padding:0;shape-rendering:auto;solid-color:#000000;text-decoration-color:#000000;text-decoration-line:none;text-decoration-style:solid;text-indent:0;text-orientation:mixed;text-transform:none;white-space:normal"/>
 <path d="m24 4.0015311c-0.571617-7.486e-4 -1.133373 0.1541722-1.628906 0.4492188l-14.742188 8.8125001c-0.5589898 0.334391-0.9924133 0.829176-1.2734374 1.40625l17.644531 10.1875z" style="color-rendering:auto;color:#000000;dominant-baseline:auto;fill:#000000;font-feature-settings:normal;font-variant-alternates:normal;font-variant-caps:normal;font-variant-ligatures:normal;font-variant-numeric:normal;font-variant-position:normal;image-rendering:auto;isolation:auto;mix-blend-mode:normal;opacity:.2;shape-padding:0;shape-rendering:auto;solid-color:#000000;text-decoration-color:#000000;text-decoration-line:none;text-decoration-style:solid;text-indent:0;text-orientation:mixed;text-transform:none;white-space:normal"/>
 <path d="m24 3.0019531c-0.571617-7.486e-4 -1.133373 0.1541722-1.628906 0.4492188l-14.742188 8.8125001c-0.5589898 0.334391-0.9924133 0.829176-1.2734374 1.40625l17.644531 10.1875z" style="color-rendering:auto;color:#000000;dominant-baseline:auto;fill:#0c8c7f;font-feature-settings:normal;font-variant-alternates:normal;font-variant-caps:normal;font-variant-ligatures:normal;font-variant-numeric:normal;font-variant-position:normal;image-rendering:auto;isolation:auto;mix-blend-mode:normal;shape-padding:0;shape-rendering:auto;solid-color:#000000;text-decoration-color:#000000;text-decoration-line:none;text-decoration-style:solid;text-indent:0;text-orientation:mixed;text-transform:none;white-space:normal"/>
 <path d="m24 23.857422v21.140625a3.2594087 3.3749472 0 0 0 0.0059 0 3.2594087 3.3749472 0 0 0 0.232422-0.0098 3.2594087 3.3749472 0 0 0 0.02148-2e-3 3.2594087 3.3749472 0 0 0 0.0918-0.0078 3.2594087 3.3749472 0 0 0 2e-3 0 3.2594087 3.3749472 0 0 0 0.207031-0.0332 3.2594087 3.3749472 0 0 0 0.01953-0.0039 3.2594087 3.3749472 0 0 0 0.09375-0.01563 3.2594087 3.3749472 0 0 0 0.0098-2e-3 3.2594087 3.3749472 0 0 0 0.197265-0.05469 3.2594087 3.3749472 0 0 0 0.05078-0.01367 3.2594087 3.3749472 0 0 0 0.05859-0.01758 3.2594087 3.3749472 0 0 0 0.0059-2e-3 3.2594087 3.3749472 0 0 0 0.142578-0.05273 3.2594087 3.3749472 0 0 0 0.0293-0.01172 3.2594087 3.3749472 0 0 0 0.132812-0.05469 3.2594087 3.3749472 0 0 0 0.140625-0.07031 3.2594087 3.3749472 0 0 0 0.1875-0.09766l14.742188-8.8125a3.2594087 3.3749472 0 0 0 0.191406-0.128906 3.2594087 3.3749472 0 0 0 0.0039-2e-3 3.2594087 3.3749472 0 0 0 0.166016-0.125 3.2594087 3.3749472 0 0 0 0.0098-0.0078 3.2594087 3.3749472 0 0 0 0.07812-0.06641 3.2594087 3.3749472 0 0 0 0.0059-0.0039 3.2594087 3.3749472 0 0 0 0.152344-0.140625 3.2594087 3.3749472 0 0 0 0.08008-0.08008 3.2594087 3.3749472 0 0 0 0.15039-0.169922 3.2594087 3.3749472 0 0 0 0.07227-0.08984 3.2594087 3.3749472 0 0 0 0.119141-0.164063 3.2594087 3.3749472 0 0 0 0.07031-0.103515 3.2594087 3.3749472 0 0 0 0.0039-0.0078 3.2594087 3.3749472 0 0 0 0.105469-0.18164 3.2594087 3.3749472 0 0 0 0.0039-0.0078 3.2594087 3.3749472 0 0 0 0.04687-0.0918 3.2594087 3.3749472 0 0 0 2e-3 -2e-3 3.2594087 3.3749472 0 0 0 0.09766-0.214843 3.2594087 3.3749472 0 0 0 0.01758-0.04297z" style="fill:#000000;opacity:.2"/>
 <path d="m41.646484 13.667969-17.646484 10.189453 17.748047 10.248047c0.165297-0.409636 0.250916-0.849015 0.251953-1.292969v-17.625c-0.0014-0.528175-0.122468-1.048642-0.353516-1.519531z" style="fill:#000000;opacity:.1"/>
 <path d="m24 23.857422v21.140625a3.2594087 3.3749472 0 0 1-0.0059 0 3.2594087 3.3749472 0 0 1-0.232422-0.0098 3.2594087 3.3749472 0 0 1-0.02148-2e-3 3.2594087 3.3749472 0 0 1-0.0918-0.0078 3.2594087 3.3749472 0 0 1-2e-3 0 3.2594087 3.3749472 0 0 1-0.207031-0.0332 3.2594087 3.3749472 0 0 1-0.01953-0.0039 3.2594087 3.3749472 0 0 1-0.09375-0.01563 3.2594087 3.3749472 0 0 1-0.0098-2e-3 3.2594087 3.3749472 0 0 1-0.197265-0.05469 3.2594087 3.3749472 0 0 1-0.05078-0.01367 3.2594087 3.3749472 0 0 1-0.05859-0.01758 3.2594087 3.3749472 0 0 1-0.0059-2e-3 3.2594087 3.3749472 0 0 1-0.142578-0.05273 3.2594087 3.3749472 0 0 1-0.0293-0.01172 3.2594087 3.3749472 0 0 1-0.132812-0.05469 3.2594087 3.3749472 0 0 1-0.140625-0.07031 3.2594087 3.3749472 0 0 1-0.1875-0.09766l-14.742188-8.8125a3.2594087 3.3749472 0 0 1-0.191406-0.128906 3.2594087 3.3749472 0 0 1-0.0039-2e-3 3.2594087 3.3749472 0 0 1-0.166016-0.125 3.2594087 3.3749472 0 0 1-0.0098-0.0078 3.2594087 3.3749472 0 0 1-0.07812-0.06641 3.2594087 3.3749472 0 0 1-0.0059-0.0039 3.2594087 3.3749472 0 0 1-0.152344-0.140625 3.2594087 3.3749472 0 0 1-0.08008-0.08008 3.2594087 3.3749472 0 0 1-0.15039-0.169922 3.2594087 3.3749472 0 0 1-0.07227-0.08984 3.2594087 3.3749472 0 0 1-0.119141-0.164063 3.2594087 3.3749472 0 0 1-0.07031-0.103515 3.2594087 3.3749472 0 0 1-0.0039-0.0078 3.2594087 3.3749472 0 0 1-0.105469-0.18164 3.2594087 3.3749472 0 0 1-0.0039-0.0078 3.2594087 3.3749472 0 0 1-0.04687-0.0918 3.2594087 3.3749472 0 0 1-2e-3 -2e-3 3.2594087 3.3749472 0 0 1-0.09766-0.214843 3.2594087 3.3749472 0 0 1-0.01758-0.04297z" style="fill:#000000;opacity:.3"/>
 <path d="M 6.353516,13.667969 24,23.857422 6.251953,34.105469 C 6.086656,33.695833 6.001037,33.256454 6,32.8125 v -17.625 c 0.0014,-0.528175 0.122468,-1.048642 0.353516,-1.519531 z" style="fill:#000000;opacity:.4"/>
 <path d="m24.076172 3a3.2594087 3.3749472 0 0 0-1.705078 0.4511719l-14.742188 8.8125001a3.2594087 3.3749472 0 0 0-1.6289062 2.923828v1a3.2594087 3.3749472 0 0 1 1.6289062-2.923828l14.742188-8.8125001a3.2594087 3.3749472 0 0 1 1.705078-0.4511719 3.2594087 3.3749472 0 0 1 1.552734 0.4511719l14.742188 8.8125001a3.2594087 3.3749472 0 0 1 1.628906 2.923828v-1a3.2594087 3.3749472 0 0 0-1.628906-2.923828l-14.742188-8.8125001a3.2594087 3.3749472 0 0 0-1.552734-0.4511719z" style="color-rendering:auto;color:#000000;dominant-baseline:auto;fill:#ffffff;font-feature-settings:normal;font-variant-alternates:normal;font-variant-caps:normal;font-variant-ligatures:normal;font-variant-numeric:normal;font-variant-position:normal;image-rendering:auto;isolation:auto;mix-blend-mode:normal;opacity:.2;shape-padding:0;shape-rendering:auto;solid-color:#000000;text-decoration-color:#000000;text-decoration-line:none;text-decoration-style:solid;text-indent:0;text-orientation:mixed;text-transform:none;white-space:normal"/>
 <path d="m24 23.857422-17.748047 10.248047a3.2594087 3.3749472 0 0 0 0.0175781 0.042969 3.2594087 3.3749472 0 0 0 0.0976563 0.214843 3.2594087 3.3749472 0 0 1 0.0019531 0.001953 3.2594087 3.3749472 0 0 0 0.046875 0.091797 3.2594087 3.3749472 0 0 0 0.0039063 0.007813 3.2594087 3.3749472 0 0 0 0.1054687 0.18164 3.2594087 3.3749472 0 0 0 0.0039063 0.007813 3.2594087 3.3749472 0 0 0 0.0703125 0.103515 3.2594087 3.3749472 0 0 0 0.0742187 0.103516l17.326172-10.003906v-1z" style="fill:#ffffff;opacity:.1"/>
 <path d="m24 23.857422v1l17.326172 10.003906a3.2594087 3.3749472 0 0 0 0.074219-0.103516 3.2594087 3.3749472 0 0 0 0.070312-0.103515 3.2594087 3.3749472 0 0 0 0.003906-0.007813 3.2594087 3.3749472 0 0 0 0.105469-0.18164 3.2594087 3.3749472 0 0 0 0.003906-0.007813 3.2594087 3.3749472 0 0 0 0.046875-0.091797 3.2594087 3.3749472 0 0 0 0.001953-0.001953 3.2594087 3.3749472 0 0 0 0.097657-0.214843 3.2594087 3.3749472 0 0 0 0.017578-0.042969l-17.748047-10.248047z" style="fill:#000000;opacity:.1"/>
 <path d="m41.646484 13.667969-17.646484 10.189453 0.865234 0.5 16.78125-9.689453c0.231048 0.470889 0.352116 0.991356 0.353516 1.519531v-1c-0.0014-0.528175-0.122468-1.048642-0.353516-1.519531z" style="fill:#000000;opacity:.1"/>
</svg>
