<svg width="48" height="48" version="1" xmlns="http://www.w3.org/2000/svg">
 <rect transform="matrix(0,-1,-1,0,0,0)" x="-45" y="-38" width="28" height="28" rx="14" ry="14" style="fill:#000000;opacity:.2;stroke-width:.875"/>
 <path d="M 24.000265,6 C 15,6 14,14 14.000266,23 h 4.105577 C 18,14 20.23625,10 24.000265,10 27.764281,10 30,14 29.894687,23 h 4.105579 C 34,14 33,6 24.000265,6 Z" style="fill:#000000;opacity:.2;stroke-linecap:round;stroke-width:.97493327"/>
 <path d="M 24.000265,5 C 15,5 14,13 14.000266,22 h 4.105577 C 18,13 20.23625,9 24.000265,9 27.764281,9 30,13 29.894687,22 h 4.105579 C 34,13 33,5 24.000265,5 Z" style="fill:#e4e4e4;stroke-linecap:round;stroke-width:.97493327"/>
 <path d="m24 5c-9.000265 0-10.000266 8-10 17h0.01758c0.081924-8.57842 1.321583-16 9.98242-16 8.660327 0 9.900023 7.42158 9.982422 16h0.017578c-2.66e-4 -9-1.000265-17-10-17z" style="fill:#ffffff;opacity:.2;stroke-linecap:round;stroke-width:.97493327"/>
 <rect transform="matrix(0,-1,-1,0,0,0)" x="-44" y="-38" width="28" height="28" rx="14" ry="14" style="fill:#fb5a3a;stroke-width:.875"/>
 <g transform="translate(6,18)" style="opacity:.5">
  <path d="m12 5c-1.6572 0-3 1.3434-3 3s1.3428 3 3 3 3-1.3434 3-3-1.3428-3-3-3z" style="fill:#ffffff"/>
  <path d="m12 12.000001c-4.9995 0.0032-5 3.446153-5 3.446153v1.4s0.923071 2.153846 5 2.153846 5-2.153846 5-2.153846v-1.4s0-3.448307-4.999-3.446153z" style="fill:#ffffff"/>
 </g>
 <g transform="translate(18,18)" style="opacity:.5">
  <path d="m12 5c-1.6572 0-3 1.3434-3 3s1.3428 3 3 3 3-1.3434 3-3-1.3428-3-3-3z" style="fill:#ffffff"/>
  <path d="m12 12.000001c-4.9995 0.0032-5 3.446153-5 3.446153v1.4s0.923071 2.153846 5 2.153846 5-2.153846 5-2.153846v-1.4s0-3.448307-4.999-3.446153z" style="fill:#ffffff"/>
 </g>
 <g transform="translate(7.9999995,15)" style="fill:#000000;opacity:.2">
  <path d="m16 6c-2.2096 0-4 1.7912-4 4s1.7904 4 4 4 4-1.7912 4-4-1.7904-4-4-4z" style="fill:#000000"/>
  <path d="m16 16.000001c-6.9993 0.0042-7 4.430769-7 4.430769v1.8s1.292299 2.76923 7 2.76923 7-2.76923 7-2.76923v-1.8s0-4.433538-6.9986-4.430769z" style="fill:#000000"/>
 </g>
 <g transform="translate(7.9999995,14)">
  <path d="m16 6c-2.2096 0-4 1.7912-4 4s1.7904 4 4 4 4-1.7912 4-4-1.7904-4-4-4z" style="fill:#ffffff"/>
  <path d="m16 16.000001c-6.9993 0.0042-7 4.430769-7 4.430769v1.8s1.292299 2.76923 7 2.76923 7-2.76923 7-2.76923v-1.8s0-4.433538-6.9986-4.430769z" style="fill:#ffffff"/>
 </g>
 <path d="m24 16c-7.756 0-14 6.244-14 14 0 0.168842 0.01952 0.33264 0.02539 0.5 0.263743-7.520568 6.387452-13.5 13.97461-13.5s13.710867 5.979432 13.974609 13.5c0.00587-0.16736 0.025391-0.331158 0.025391-0.5 0-7.756-6.244-14-14-14z" style="fill:#ffffff;opacity:.1;stroke-width:.875"/>
</svg>
