<?xml version="1.0" encoding="UTF-8" standalone="no"?>
<svg
   xmlns:dc="http://purl.org/dc/elements/1.1/"
   xmlns:cc="http://creativecommons.org/ns#"
   xmlns:rdf="http://www.w3.org/1999/02/22-rdf-syntax-ns#"
   xmlns:svg="http://www.w3.org/2000/svg"
   xmlns="http://www.w3.org/2000/svg"
   xmlns:sodipodi="http://sodipodi.sourceforge.net/DTD/sodipodi-0.dtd"
   xmlns:inkscape="http://www.inkscape.org/namespaces/inkscape"
   height="48"
   width="48"
   version="1"
   id="svg22"
   sodipodi:docname="green-banana-music.svg"
   inkscape:version="0.92.1 r15371">
  <metadata
     id="metadata28">
    <rdf:RDF>
      <cc:Work
         rdf:about="">
        <dc:format>image/svg+xml</dc:format>
        <dc:type
           rdf:resource="http://purl.org/dc/dcmitype/StillImage" />
        <dc:title />
      </cc:Work>
    </rdf:RDF>
  </metadata>
  <defs
     id="defs26" />
  <sodipodi:namedview
     pagecolor="#ffffff"
     bordercolor="#666666"
     borderopacity="1"
     objecttolerance="10"
     gridtolerance="10"
     guidetolerance="10"
     inkscape:pageopacity="0"
     inkscape:pageshadow="2"
     inkscape:window-width="1600"
     inkscape:window-height="822"
     id="namedview24"
     showgrid="false"
     inkscape:zoom="2.67"
     inkscape:cx="-75.910112"
     inkscape:cy="15.439658"
     inkscape:window-x="0"
     inkscape:window-y="0"
     inkscape:window-maximized="1"
     inkscape:current-layer="svg22">
    <inkscape:grid
       type="xygrid"
       id="grid4551" />
  </sodipodi:namedview>
  <circle
     cy="24"
     cx="24"
     r="20"
     fill="#ff5722"
     id="circle2"
     style="fill:#3f3f3f;fill-opacity:1" />
  <path
     opacity=".2"
     fill="#fff"
     d="m24 4a20 20 0 0 0 -20 20 20 20 0 0 0 0.0215 0.582 20 20 0 0 1 19.978 -19.582 20 20 0 0 1 19.979 19.418 20 20 0 0 0 0.021 -0.418 20 20 0 0 0 -20 -20z"
     id="path18"
     style="opacity:0.1" />
  <path
     opacity=".2"
     d="m43.979 24.418a20 20 0 0 1 -19.979 19.582 20 20 0 0 1 -19.978 -19.418 20 20 0 0 0 -0.022 0.418 20 20 0 0 0 20 20 20 20 0 0 0 20 -20 20 20 0 0 0 -0.021 -0.582z"
     id="path20" />
  <path
     sodipodi:nodetypes="scccccccccccccccccccccccccccccccccccccccccccccccccsccccccccccccccccccc"
     inkscape:connector-curvature="0"
     id="path4594"
     d="m 24.929688,12 c -0.633961,0 -1.661716,0.504724 -1.978696,1.109375 -1.056601,1.713178 -1.055644,4.937243 -0.527344,7.154297 0,0 -0.528341,0.504724 -1.05664,1.109375 -1.056603,1.108527 -1.719758,2.317284 -2.142399,3.929687 -0.5283,1.813954 -0.10562,3.52586 1.056641,4.835938 1.267921,1.511628 3.16962,2.217175 5.494141,2.015625 0.42264,1.914728 0.739429,3.123895 0.105468,4.232422 C 25,37.390046 24,37 23.902344,36.785156 24.575647,36.444767 25.000106,35.754455 25,35 c -5.6e-4,-0.129216 -0.01364,-0.258074 -0.03906,-0.384766 -0.0027,-0.01389 -0.0068,-0.02723 -0.0098,-0.04102 -0.02354,-0.109313 -0.05621,-0.21646 -0.09766,-0.320313 -0.01041,-0.02585 -0.02176,-0.05087 -0.0332,-0.07617 -0.04382,-0.09773 -0.09542,-0.191783 -0.154296,-0.28125 -0.0083,-0.01259 -0.01677,-0.02472 -0.02539,-0.03711 -0.06568,-0.09542 -0.139525,-0.184945 -0.220703,-0.267578 -0.0065,-0.0059 -0.01298,-0.01176 -0.01953,-0.01758 -0.08371,-0.08271 -0.174558,-0.157873 -0.271485,-0.22461 h -0.002 c -0.01047,-0.0072 -0.02064,-0.01452 -0.03125,-0.02148 -0.09128,-0.05983 -0.187303,-0.112088 -0.287109,-0.15625 -0.02058,-0.0091 -0.04156,-0.01696 -0.0625,-0.02539 -0.111184,-0.04541 -0.226232,-0.0807 -0.34375,-0.105468 C 23.270114,33.013786 23.135156,33.000042 23,33 c -0.129216,5.6e-4 -0.258074,0.01364 -0.384766,0.03906 -0.01389,0.0027 -0.02723,0.0068 -0.04102,0.0098 -0.109313,0.02354 -0.21646,0.05621 -0.320313,0.09766 -0.02585,0.01041 -0.05087,0.02176 -0.07617,0.0332 -0.09773,0.04382 -0.191783,0.09542 -0.28125,0.154296 -0.01259,0.0083 -0.02472,0.01677 -0.03711,0.02539 -0.09542,0.06568 -0.184945,0.139525 -0.267578,0.220703 -0.0062,0.0062 -0.01143,0.01327 -0.01758,0.01953 -0.08271,0.08371 -0.157873,0.174558 -0.22461,0.271485 v 0.002 c -0.0072,0.01047 -0.01452,0.02064 -0.02148,0.03125 -0.05983,0.09128 -0.112088,0.187303 -0.15625,0.287109 -0.0091,0.02058 -0.01695,0.04156 -0.02539,0.0625 -0.04541,0.111184 -0.0807,0.226232 -0.105468,0.34375 C 21.013786,34.729886 21.000042,34.864844 21,35 c 9.47e-4,0.133916 0.01534,0.267398 0.04297,0.398438 0.207915,1.722807 1.70728,2.577095 3.253906,2.601562 1.162261,0 2.323454,-0.403222 2.746094,-2.015625 0.42264,-1.310077 -0.316215,-3.425433 -0.421875,-4.130859 1.16226,-0.503876 2.218561,-2.015686 2.324218,-3.023438 0.211322,-1.108527 -0.211551,-2.419195 -0.951171,-3.326172 -0.739621,-0.806201 -1.796536,-1.309759 -3.064453,-1.208984 -0.105662,-0.201551 -0.660058,-2.880367 -0.660058,-2.880367 0,0 1.112248,-1.45286 1.429228,-1.855961 1.5849,-2.418605 1.689221,-4.333319 0.738281,-6.248047 C 26.120158,12.605121 25.774967,12 24.929688,12 Z m 0.228515,2 c 0.756707,0.01098 0.82002,0.790028 0.839844,1.320312 0.05262,1.407722 -1.306289,3.113732 -1.958985,3.679688 -0.149058,-2.022374 0.110846,-5.014625 1.119141,-5 z m -1.745034,8.436063 c 0.10566,0.503877 0.46164,1.758492 0.5673,2.161593 C 22.712548,25.101532 21.89434,26.713359 22,28.023438 22.03815,28.83435 22.121872,30.083746 22.722656,30 c 0.33993,-0.04738 0.308524,-0.890117 0.210938,-1.373047 -0.10566,-0.906977 0.729129,-1.611737 1.46875,-1.914062 0.10566,0.604651 0.845512,3.728167 0.951172,4.433593 -1.373581,0.403101 -2.853747,-6e-5 -3.804688,-1.007812 -0.73962,-0.705426 -1.056832,-1.712951 -0.951172,-2.720703 0.390324,-2.238094 1.423113,-3.461979 2.815513,-4.981906 z m 1.940347,3.974093 c 1.37358,0 1.796683,1.108618 1.902343,1.511719 0.316981,1.108527 -2.32e-4,2.217614 -0.951171,2.822266 -0.211322,-0.705427 -0.317977,-1.510992 -0.529297,-2.417969 -0.10566,-0.604651 -0.210555,-1.311365 -0.421875,-1.916016 z"
     style="opacity:0.2;fill:#000000;fill-opacity:1;stroke-width:1.03188717" />
  <path
     style="fill:#43fa62;stroke-width:1.03188717;fill-opacity:1"
     d="m 24.929688,11 c -0.633961,0 -1.661716,0.504724 -1.978696,1.109375 -1.056601,1.713178 -1.055644,4.937243 -0.527344,7.154297 0,0 -0.528341,0.504724 -1.05664,1.109375 -1.056603,1.108527 -1.719758,2.317284 -2.142399,3.929687 -0.5283,1.813954 -0.10562,3.52586 1.056641,4.835938 1.267921,1.511628 3.16962,2.217175 5.494141,2.015625 0.42264,1.914728 0.739429,3.123895 0.105468,4.232422 C 25,36.390046 24,36 23.902344,35.785156 24.575647,35.444767 25.000106,34.754455 25,34 c -5.6e-4,-0.129216 -0.01364,-0.258074 -0.03906,-0.384766 -0.0027,-0.01389 -0.0068,-0.02723 -0.0098,-0.04102 -0.02354,-0.109313 -0.05621,-0.21646 -0.09766,-0.320313 -0.01041,-0.02585 -0.02176,-0.05087 -0.0332,-0.07617 -0.04382,-0.09773 -0.09542,-0.191783 -0.154296,-0.28125 -0.0083,-0.01259 -0.01677,-0.02472 -0.02539,-0.03711 -0.06568,-0.09542 -0.139525,-0.184945 -0.220703,-0.267578 -0.0065,-0.0059 -0.01298,-0.01176 -0.01953,-0.01758 -0.08371,-0.08271 -0.174558,-0.157873 -0.271485,-0.22461 h -0.002 c -0.01047,-0.0072 -0.02064,-0.01452 -0.03125,-0.02148 -0.09128,-0.05983 -0.187303,-0.112088 -0.287109,-0.15625 -0.02058,-0.0091 -0.04156,-0.01696 -0.0625,-0.02539 -0.111184,-0.04541 -0.226232,-0.0807 -0.34375,-0.105468 C 23.270114,32.013786 23.135156,32.000042 23,32 c -0.129216,5.6e-4 -0.258074,0.01364 -0.384766,0.03906 -0.01389,0.0027 -0.02723,0.0068 -0.04102,0.0098 -0.109313,0.02354 -0.21646,0.05621 -0.320313,0.09766 -0.02585,0.01041 -0.05087,0.02176 -0.07617,0.0332 -0.09773,0.04382 -0.191783,0.09542 -0.28125,0.154296 -0.01259,0.0083 -0.02472,0.01677 -0.03711,0.02539 -0.09542,0.06568 -0.184945,0.139525 -0.267578,0.220703 -0.0062,0.0062 -0.01143,0.01327 -0.01758,0.01953 -0.08271,0.08371 -0.157873,0.174558 -0.22461,0.271485 v 0.002 c -0.0072,0.01047 -0.01452,0.02064 -0.02148,0.03125 -0.05983,0.09128 -0.112088,0.187303 -0.15625,0.287109 -0.0091,0.02058 -0.01695,0.04156 -0.02539,0.0625 -0.04541,0.111184 -0.0807,0.226232 -0.105468,0.34375 C 21.013786,33.729886 21.000042,33.864844 21,34 c 9.47e-4,0.133916 0.01534,0.267398 0.04297,0.398438 0.207915,1.722807 1.70728,2.577095 3.253906,2.601562 1.162261,0 2.323454,-0.403222 2.746094,-2.015625 0.42264,-1.310077 -0.316215,-3.425433 -0.421875,-4.130859 1.16226,-0.503876 2.218561,-2.015686 2.324218,-3.023438 0.211322,-1.108527 -0.211551,-2.419195 -0.951171,-3.326172 -0.739621,-0.806201 -1.796536,-1.309759 -3.064453,-1.208984 -0.105662,-0.201551 -0.660058,-2.880367 -0.660058,-2.880367 0,0 1.112248,-1.45286 1.429228,-1.855961 1.5849,-2.418605 1.689221,-4.333319 0.738281,-6.248047 C 26.120158,11.605121 25.774967,11 24.929688,11 Z m 0.228515,2 c 0.756707,0.01098 0.82002,0.790028 0.839844,1.320312 0.05262,1.407722 -1.306289,3.113732 -1.958985,3.679688 -0.149058,-2.022374 0.110846,-5.014625 1.119141,-5 z m -1.745034,8.436063 c 0.10566,0.503877 0.46164,1.758492 0.5673,2.161593 C 22.712548,24.101532 21.89434,25.713359 22,27.023438 22.03815,27.83435 22.121872,29.083746 22.722656,29 c 0.33993,-0.04738 0.308524,-0.890117 0.210938,-1.373047 -0.10566,-0.906977 0.729129,-1.611737 1.46875,-1.914062 0.10566,0.604651 0.845512,3.728167 0.951172,4.433593 -1.373581,0.403101 -2.853747,-6e-5 -3.804688,-1.007812 -0.73962,-0.705426 -1.056832,-1.712951 -0.951172,-2.720703 0.390324,-2.238094 1.423113,-3.461979 2.815513,-4.981906 z m 1.940347,3.974093 c 1.37358,0 1.796683,1.108618 1.902343,1.511719 0.316981,1.108527 -2.32e-4,2.217614 -0.951171,2.822266 -0.211322,-0.705427 -0.317977,-1.510992 -0.529297,-2.417969 -0.10566,-0.604651 -0.210555,-1.311365 -0.421875,-1.916016 z"
     id="path4565"
     inkscape:connector-curvature="0"
     sodipodi:nodetypes="scccccccccccccccccccccccccccccccccccccccccccccccccsccccccccccccccccccc" />
</svg>
