<svg width="48" height="48" version="1" xmlns="http://www.w3.org/2000/svg">
 <rect transform="scale(-1,1)" x="-40" y="3" width="32" height="40" rx="2" ry="2" style="fill:#8e8e8e"/>
 <rect x="9" y="4" width="30" height="17" rx="0" ry="0" stroke-miterlimit="3.429" style="fill-rule:evenodd;fill:#3f3f3f;stroke-miterlimit:3.4289999"/>
 <path d="m10 3c-1.108 0-2 0.892-2 2v1c0-1.108 0.892-2 2-2h28c1.108 0 2 0.892 2 2v-1c0-1.108-0.892-2-2-2h-28z" fill="#fff" opacity=".1"/>
 <path d="m8 41v1c0 1.108 0.892 2 2 2h28c1.108 0 2-0.892 2-2v-1c0 1.108-0.892 2-2 2h-28c-1.108 0-2-0.892-2-2z" opacity=".2"/>
 <circle cx="24" cy="33" r="8" style="fill:#000000;opacity:.2"/>
 <circle cx="24" cy="32" r="8" style="fill:#ffffff"/>
 <circle cx="24" cy="32" r="4" style="fill:#8e8e8e"/>
</svg>
