<?xml version="1.0" encoding="UTF-8" standalone="no"?>
<svg
   xmlns:dc="http://purl.org/dc/elements/1.1/"
   xmlns:cc="http://creativecommons.org/ns#"
   xmlns:rdf="http://www.w3.org/1999/02/22-rdf-syntax-ns#"
   xmlns:svg="http://www.w3.org/2000/svg"
   xmlns="http://www.w3.org/2000/svg"
   xmlns:sodipodi="http://sodipodi.sourceforge.net/DTD/sodipodi-0.dtd"
   xmlns:inkscape="http://www.inkscape.org/namespaces/inkscape"
   height="48"
   width="48"
   version="1"
   id="svg10"
   sodipodi:docname="habit-browser.svg"
   inkscape:version="0.92.1 r15371">
  <metadata
     id="metadata16">
    <rdf:RDF>
      <cc:Work
         rdf:about="">
        <dc:format>image/svg+xml</dc:format>
        <dc:type
           rdf:resource="http://purl.org/dc/dcmitype/StillImage" />
        <dc:title />
      </cc:Work>
    </rdf:RDF>
  </metadata>
  <defs
     id="defs14" />
  <sodipodi:namedview
     pagecolor="#ffffff"
     bordercolor="#666666"
     borderopacity="1"
     objecttolerance="10"
     gridtolerance="10"
     guidetolerance="10"
     inkscape:pageopacity="0"
     inkscape:pageshadow="2"
     inkscape:window-width="1600"
     inkscape:window-height="822"
     id="namedview12"
     showgrid="false"
     inkscape:zoom="9.2"
     inkscape:cx="2.6956522"
     inkscape:cy="24"
     inkscape:window-x="0"
     inkscape:window-y="0"
     inkscape:window-maximized="1"
     inkscape:current-layer="svg10" />
  <circle
     r="20"
     cy="25"
     cx="24"
     id="circle4513"
     style="opacity:0.2;vector-effect:none;fill:#000000;fill-opacity:1;stroke:none;stroke-width:9.70068359;stroke-linecap:round;stroke-linejoin:round;stroke-miterlimit:4;stroke-dasharray:none;stroke-dashoffset:0;stroke-opacity:1" />
  <circle
     style="opacity:1;vector-effect:none;fill:#5b9f1e;fill-opacity:1;stroke:none;stroke-width:9.70068359;stroke-linecap:round;stroke-linejoin:round;stroke-miterlimit:4;stroke-dasharray:none;stroke-dashoffset:0;stroke-opacity:1"
     id="path4497"
     cx="24"
     cy="24"
     r="20" />
  <rect
     id="rect4506"
     x="-40"
     y="-39"
     width="29.999002"
     height="29.999624"
     ry="14.999812"
     rx="14.999501"
     transform="matrix(0,-1,-1,0,0,0)"
     style="opacity:0.2;fill:#000000;fill-opacity:1;stroke-width:0.74998283" />
  <rect
     style="fill:#4f9ad9;stroke-width:0.74998283;fill-opacity:1"
     transform="matrix(0,-1,-1,0,0,0)"
     rx="14.999501"
     ry="14.999812"
     height="29.999624"
     width="29.999002"
     y="-39"
     x="-38.999191"
     id="rect4" />
  <path
     style="opacity:0.2;fill:#000000;fill-opacity:1;stroke-width:0.74998283"
     d="M 22.080078 10.125 C 20.129578 10.372192 18.301514 10.994214 16.662109 11.912109 L 17.726562 12.179688 L 18.416016 12.660156 L 18.416016 13.074219 L 19.587891 13.832031 L 19.3125 14.935547 L 18.693359 14.453125 L 18.279297 14.935547 L 17.796875 15.210938 L 17.521484 14.382812 L 17.660156 13.902344 L 17.521484 13.556641 L 16.832031 12.9375 L 16.556641 12.9375 L 16.832031 13.626953 L 16.832031 14.246094 C 16.561284 14.170574 16.281402 14.142746 16.003906 14.107422 L 16.763672 14.660156 L 16.832031 15.003906 L 17.728516 15.763672 L 18.623047 15.556641 L 18.623047 15.003906 L 19.037109 15.279297 L 18.832031 15.763672 L 19.519531 15.763672 L 19.865234 16.382812 L 20.279297 16.867188 L 21.105469 17.003906 L 20.623047 17.486328 L 20.484375 17.96875 L 21.105469 17.96875 L 21.863281 18.382812 L 21.863281 19.623047 L 21.519531 19.623047 L 21.175781 19.966797 L 20.416016 19.623047 L 20.140625 18.865234 L 19.589844 18.519531 L 19.519531 18.244141 L 18.625 18.039062 L 18.142578 18.589844 L 17.591797 18.865234 L 17.935547 19.486328 L 17.453125 19.347656 L 17.175781 18.726562 L 17.796875 18.039062 L 17.521484 18.039062 L 16.970703 18.519531 L 16.832031 19.210938 L 16.349609 19.830078 L 16.212891 18.935547 L 15.935547 18.794922 C 15.643643 19.104107 15.423626 19.482119 15.177734 19.830078 L 14.212891 19.898438 L 13.730469 20.244141 L 13.9375 20.587891 L 14.488281 21.070312 L 15.248047 21.070312 L 16.28125 20.726562 L 16.763672 20.794922 L 17.175781 21.208984 L 18.279297 20.105469 L 19.037109 19.898438 L 20.140625 20.037109 L 21.175781 20.3125 C 21.738956 20.963935 22.295032 21.633995 22.828125 22.310547 L 23.449219 23.898438 L 23.173828 24.173828 L 23.724609 25 L 23.103516 26.447266 C 22.60148 27.026689 22.089185 27.590116 21.587891 28.169922 L 20.830078 27.550781 L 20.554688 27.894531 L 19.726562 27.412109 L 19.451172 27.6875 L 18.693359 27.6875 L 18.210938 28.238281 L 18.486328 29.205078 L 17.935547 29.826172 L 18.003906 30.927734 L 17.521484 31.753906 L 17.865234 32.445312 C 17.894614 32.946993 17.935547 33.459129 17.935547 33.960938 C 17.693592 34.640701 17.404251 35.276286 17.175781 35.960938 L 17.039062 37.0625 L 17.039062 37.289062 C 19.118482 38.376412 21.482078 39 24 39 C 26.24914 39 28.371932 38.494843 30.283203 37.615234 L 30.205078 37.337891 L 29.447266 37.132812 L 28.894531 35.615234 L 29.033203 35.271484 L 28.6875 34.650391 L 27.791016 34.443359 L 27.378906 33.410156 L 27.447266 32.03125 L 26.757812 31.066406 L 26.689453 30.101562 C 27.630092 29.625666 28.513678 29.144331 29.447266 28.654297 L 29.929688 27.6875 L 30.755859 27.482422 L 31.238281 26.240234 L 32.341797 26.378906 L 33.375 25.621094 L 34.410156 26.585938 L 34.410156 26.722656 C 34.722287 26.630666 35.097083 26.62153 35.375 26.447266 L 35.582031 25.759766 L 35.582031 25.070312 L 36.269531 25.138672 C 36.212181 24.675277 36.122022 24.15474 36.064453 23.691406 L 36.478516 23.691406 L 36.890625 24.242188 L 37.304688 24.449219 L 37.857422 24.103516 L 37.925781 23.416016 L 37.857422 22.587891 L 36.960938 21.966797 L 36.271484 21.966797 L 36.132812 21.554688 L 35.306641 21.759766 L 34.685547 22.519531 L 34.546875 21.208984 L 33.445312 20.3125 L 33.099609 19.279297 L 32.273438 18.935547 L 31.791016 18.314453 L 30.755859 18.107422 L 30.273438 17.279297 L 31.791016 17.279297 L 30.826172 16.867188 L 30.134766 16.867188 L 29.240234 16.521484 L 29.101562 17.417969 L 28.6875 16.796875 L 29.169922 16.453125 L 29.033203 16.107422 L 29.378906 15.763672 L 29.791016 15.695312 L 29.654297 15.28125 L 29.998047 14.660156 L 30.6875 14.935547 L 30.550781 14.384766 L 31.376953 13.902344 L 31.998047 15.074219 L 31.927734 15.419922 L 32.548828 15.695312 L 32.962891 16.591797 L 33.099609 15.763672 L 34.203125 15.349609 L 34.410156 14.728516 L 32.962891 13.902344 L 32.341797 13.283203 L 32.273438 12.523438 L 32.308594 12.501953 C 32.149596 12.395831 31.981857 12.303171 31.818359 12.203125 L 32.066406 12.800781 L 31.376953 12.800781 L 31.169922 12.248047 L 30.550781 12.730469 L 29.998047 12.730469 L 29.998047 12.179688 L 30.619141 11.902344 L 31.169922 12.248047 L 31.101562 12.109375 C 30.824067 11.909281 30.558137 11.68095 30.275391 11.488281 L 29.585938 11.697266 C 29.157694 11.994256 28.774697 12.295256 28.345703 12.591797 L 27.654297 11.972656 L 28.414062 11.697266 L 28.689453 11.007812 L 29.226562 10.947266 C 28.936317 10.83987 28.648105 10.730322 28.349609 10.640625 L 26.966797 11.628906 L 26.966797 12.248047 L 27.517578 12.869141 L 26.759766 14.384766 L 26.207031 14.109375 L 25.587891 13.076172 C 24.662403 12.784282 23.772177 12.444728 22.898438 12.041016 L 22.966797 12.455078 L 22.554688 12.730469 L 21.794922 12.179688 L 22.140625 11.765625 L 22.691406 12.041016 L 22.761719 11.972656 L 22.082031 10.125 L 22.080078 10.125 z M 15.183594 12.867188 C 14.949766 13.037018 14.711533 13.203906 14.488281 13.386719 L 14.763672 13.695312 L 15.521484 12.867188 L 15.185547 12.867188 L 15.183594 12.867188 z M 20.896484 13.626953 L 21.3125 13.626953 L 21.3125 14.039062 L 21.037109 14.382812 L 21.037109 15.003906 L 21.173828 15.900391 L 20.484375 15.763672 L 19.933594 15.279297 L 20.416016 14.798828 C 20.567117 14.388074 20.707262 14.020915 20.896484 13.626953 z M 21.931641 14.523438 L 22.345703 14.660156 L 22.277344 15.486328 L 21.65625 15.142578 L 21.931641 14.523438 z M 11.177734 21.554688 L 10.556641 22.242188 L 9.8691406 22.173828 C 9.6268186 22.39882 9.3859034 22.590211 9.1601562 22.814453 C 9.0839348 23.340853 9.0428094 23.879008 9.0214844 24.421875 C 9.132312 28.43296 10.7911 32.041529 13.439453 34.664062 L 14.003906 34.099609 L 13.316406 33.546875 L 12.625 33.134766 L 12.349609 32.789062 L 12.556641 32.03125 L 12.556641 30.101562 L 12.005859 28.929688 L 11.384766 28.240234 L 10.626953 26.447266 L 10.626953 25.964844 C 10.981759 26.010454 11.312986 26.078369 11.660156 26.103516 L 10.970703 25.345703 L 10.005859 24.65625 L 9.453125 24.037109 L 9.453125 23.416016 C 9.571361 23.188617 9.6798421 22.885618 9.7988281 22.658203 L 10.28125 23.277344 L 10.625 22.794922 L 11.177734 22.380859 L 11.177734 21.554688 z M 13.865234 21.898438 L 13.246094 22.65625 L 12.417969 24.378906 L 11.9375 24.929688 L 12.212891 25.550781 L 11.730469 26.101562 C 11.931864 26.114802 12.142649 26.101563 12.349609 26.101562 C 12.725564 25.295489 13.028159 24.464366 13.314453 23.621094 L 13.796875 23.070312 L 14.074219 22.035156 L 13.865234 21.898438 z M 38.966797 24.650391 C 38.934712 24.709773 38.890625 24.792969 38.890625 24.792969 L 37.71875 25.482422 L 36.476562 25.826172 L 35.994141 26.515625 L 35.167969 27.136719 L 34.753906 26.998047 L 34.408203 27.205078 L 34.408203 27.273438 L 34.822266 28.583984 L 35.167969 29.066406 L 35.099609 29.341797 L 35.375 30.376953 L 34.339844 32.238281 L 33.306641 33.201172 L 32.824219 33.822266 L 32.892578 35.269531 L 32.546875 36.029297 L 32.605469 36.289062 C 36.307183 33.698227 38.761053 29.478695 38.966797 24.650391 z "
     id="path4501" />
  <path
     style="opacity:1;stroke-width:0.74998283;fill:#b3cbf3;fill-opacity:1"
     inkscape:connector-curvature="0"
     d="m 22.080961,9.1253584 c -1.9505,0.2471918 -3.778977,0.8691461 -5.418382,1.7870406 l 1.064912,0.266594 0.688469,0.481919 v 0.413071 l 1.17186,0.75875 -0.274496,1.102988 -0.619493,-0.481859 -0.414745,0.481859 -0.482243,0.275391 -0.275247,-0.827598 0.137998,-0.481934 -0.137998,-0.344163 -0.689931,-0.62107 h -0.275389 l 0.275389,0.689917 v 0.619607 c -0.270747,-0.07552 -0.549744,-0.102446 -0.82724,-0.13777 l 0.758765,0.552229 0.06885,0.344224 0.896463,0.758749 0.895039,-0.206535 v -0.552229 l 0.414543,0.275383 -0.20654,0.483381 h 0.688468 l 0.345701,0.619607 0.41308,0.483382 0.827615,0.137688 -0.483392,0.481919 -0.137691,0.483381 h 0.621083 l 0.75734,0.413071 v 1.240684 h -0.34423 l -0.344231,0.344224 -0.758766,-0.344224 -0.275389,-0.75875 -0.55224,-0.344223 -0.06885,-0.275384 -0.895038,-0.206535 -0.483392,0.550766 -0.550778,0.275384 0.344231,0.621069 -0.481929,-0.137688 -0.276852,-0.621069 0.621083,-0.688455 h -0.27539 l -0.55224,0.481919 -0.137691,0.689917 -0.481929,0.619607 -0.137691,-0.89502 -0.276851,-0.139158 c -0.291904,0.309185 -0.511449,0.686182 -0.757341,1.034141 l -0.965313,0.06885 -0.483391,0.345694 0.208002,0.344223 0.550778,0.481919 h 0.758766 l 1.034162,-0.344223 0.481929,0.06885 0.41308,0.413071 1.103011,-1.102988 0.758766,-0.206536 1.103011,0.137688 1.034162,0.276846 c 0.563175,0.651435 1.120711,1.321456 1.653804,1.998008 l 0.621082,1.586347 -0.276851,0.275384 0.55224,0.827597 -0.621082,1.447227 c -0.502036,0.579423 -1.014812,1.142812 -1.516106,1.722618 l -0.758765,-0.619607 -0.275389,0.344223 -0.827615,-0.481919 -0.275389,0.275384 h -0.757341 l -0.483391,0.550767 0.275389,0.965292 -0.550778,0.62107 0.06885,1.102988 -0.481929,0.826173 0.344231,0.689917 c 0.02938,0.50168 0.06885,1.014266 0.06885,1.516074 -0.241955,0.679763 -0.530296,1.314782 -0.758766,1.999434 l -0.137691,1.102988 v 0.550767 H 16.62547 l -0.689932,-0.413071 h -0.657704 c 2.456369,1.755616 5.460382,2.799206 8.723141,2.799206 2.450069,0 4.752466,-0.594265 6.79094,-1.62737 l 0.03369,-0.06885 -0.483392,-0.481919 -0.13769,-0.483382 -0.757341,-0.206535 -0.552241,-1.516075 0.137691,-0.344223 -0.344231,-0.62107 -0.896463,-0.206535 -0.41308,-1.034141 0.06885,-1.378379 -0.689931,-0.965293 -0.06885,-0.965293 c 0.940639,-0.475897 1.824653,-0.957193 2.758241,-1.447227 l 0.481929,-0.965293 0.827615,-0.206535 0.481929,-1.240684 1.103011,0.137688 1.034162,-0.757325 1.034162,0.963868 v 0.137688 c 0.312131,-0.09199 0.687396,-0.101119 0.965313,-0.275383 l 0.20654,-0.688455 v -0.689917 l 0.688469,0.06885 c -0.05735,-0.463395 -0.148971,-0.983893 -0.20654,-1.447227 h 0.41455 l 0.413079,0.550766 0.41308,0.206536 0.552241,-0.344223 0.06885,-0.688455 -0.06885,-0.827598 -0.896464,-0.621069 h -0.688469 l -0.139161,-0.413071 -0.826189,0.206535 -0.621082,0.75875 L 34.547651,20.209435 33.44464,19.31299 33.100409,18.278849 32.272794,17.934625 31.790865,17.313556 30.756703,17.10702 30.273312,16.279423 h 1.517531 L 30.82553,15.866352 h -0.689932 l -0.895038,-0.344224 -0.139161,0.89502 -0.41308,-0.619607 0.481929,-0.344223 -0.137691,-0.345694 0.345701,-0.344223 0.41308,-0.06885 -0.137691,-0.413071 0.344231,-0.621077 0.689931,0.275383 -0.137691,-0.550766 0.82619,-0.483382 0.621082,1.171836 -0.06885,0.345694 0.61962,0.275383 0.41455,0.896445 0.13769,-0.827597 1.103012,-0.413071 0.206539,-0.621077 -1.447256,-0.827598 -0.621083,-0.619607 -0.06885,-0.758749 0.03662,-0.02197 c -0.158998,-0.106122 -0.327746,-0.198894 -0.491244,-0.29894 l 0.24902,0.59764 H 31.37723 l -0.20654,-0.552229 -0.619619,0.481919 H 29.99883 V 11.17895 l 0.621082,-0.276846 0.550778,0.345694 -0.06885,-0.137688 c -0.277496,-0.200094 -0.543743,-0.428461 -0.826489,-0.62113 l -0.689992,0.208043 c -0.428244,0.29699 -0.81149,0.598405 -1.240484,0.894946 l -0.689992,-0.619555 0.758991,-0.275391 0.275246,-0.689902 0.537744,-0.060073 C 28.936618,9.8396519 28.647872,9.7306055 28.349376,9.6409085 l -1.382833,0.9872675 v 0.619607 l 0.550493,0.621054 -0.75674,1.516074 -0.552744,-0.27539 -0.619492,-1.034141 c -0.925488,-0.29189 -1.815727,-0.630429 -2.689466,-1.034141 l 0.06885,0.413072 -0.41308,0.276845 -0.758765,-0.552229 0.3457,-0.413071 0.550778,0.275383 0.06885,-0.06884 -0.678217,-1.8471136 z m -6.896388,2.7420586 c -0.234237,0.170155 -0.472142,0.335397 -0.695797,0.51854 l 0.273927,0.309073 0.758765,-0.827598 h -0.33691 z m 5.712828,0.75875 h 0.41455 v 0.413071 l -0.275389,0.344224 v 0.621069 l 0.137691,0.896445 -0.690742,-0.137995 -0.550493,-0.482984 0.482244,-0.481934 c 0.151101,-0.410754 0.292707,-0.777874 0.481929,-1.171836 z m 1.034162,0.896445 0.414543,0.137688 -0.06885,0.826173 -0.620993,-0.344014 0.275247,-0.619554 z m -10.753365,7.031016 -0.621068,0.688477 -0.6884909,-0.069 c -0.242322,0.224992 -0.483219,0.417736 -0.7089662,0.641978 -0.1032737,0.713227 -0.159673,1.442952 -0.159673,2.185428 0,4.925236 2.3610451,9.266692 6.0057751,11.998101 l -0.932988,-1.107713 0.139498,-0.481484 -0.82784,-0.689977 0.619342,-0.62098 -0.688191,-0.551232 -0.689916,-0.412486 -0.275397,-0.345738 0.20654,-0.757325 v -1.930586 l -0.550778,-1.171836 -0.621082,-0.689917 -0.758766,-1.791465 v -0.483382 c 0.354806,0.04561 0.686992,0.114011 1.034162,0.139158 L 10.971568,24.345427 10.006255,23.65545 9.4540368,23.035971 v -0.62107 c 0.118236,-0.227399 0.2267146,-0.529909 0.3457006,-0.757324 l 0.4819286,0.619607 0.344231,-0.481919 0.552241,-0.414534 v -0.826173 z m 2.687966,0.344224 -0.61962,0.757325 -0.827614,1.724042 -0.481929,0.550767 0.275389,0.621069 -0.481929,0.550767 c 0.201395,0.01324 0.41266,0 0.61962,0 0.375955,-0.806073 0.679019,-1.638095 0.965313,-2.481367 l 0.481928,-0.55076 0.276852,-1.03414 -0.208002,-0.137688 z m 25.123186,2.708385 c -0.02749,0.04806 -0.09961,0.186031 -0.09961,0.186031 l -1.17186,0.689917 -1.24071,0.344224 -0.483391,0.689917 -0.82619,0.619607 -0.414542,-0.137688 -0.344231,0.206535 v 0.06885 l 0.41308,1.309532 0.345701,0.483381 -0.06885,0.275383 0.275389,1.034141 -1.034162,1.861738 -1.034162,0.963868 -0.481929,0.621069 0.06885,1.447227 -0.3457,0.75875 0.253414,1.113263 c 3.755053,-2.72091 6.199123,-7.129638 6.199123,-12.141346 0,-0.132056 -0.0069,-0.262814 -0.01025,-0.39403 z"
     id="path6" />
  <path
     style="opacity:0.1;vector-effect:none;fill:#ffffff;fill-opacity:1;stroke:none;stroke-width:9.70068359;stroke-linecap:round;stroke-linejoin:round;stroke-miterlimit:4;stroke-dasharray:none;stroke-dashoffset:0;stroke-opacity:1"
     d="M 24 4 A 20 20 0 0 0 4 24 A 20 20 0 0 0 4.0214844 24.582031 A 20 20 0 0 1 24 5 A 20 20 0 0 1 43.978516 24.417969 A 20 20 0 0 0 44 24 A 20 20 0 0 0 24 4 z "
     id="circle4508" />
</svg>
