<svg width="48" height="48" version="1" xmlns="http://www.w3.org/2000/svg">
 <rect transform="matrix(0,-1,-1,0,0,0)" x="-44" y="-44" width="40" height="40" rx="2" ry="2" fill="#37a0f2"/>
 <g transform="matrix(2 0 0 -2 -1082 -669)" opacity=".2">
  <path d="m552-354v10h2v-10h-2zm0 12v2h2v-2h-2z" style="enable-background:new"/>
 </g>
 <g transform="matrix(2 0 0 -2 -1082 -670)" fill="#fff">
  <path d="m552-354v10h2v-10h-2zm0 12v2h2v-2h-2z" style="enable-background:new"/>
 </g>
 <path d="m6 4c-1.108 0-2 0.892-2 2v1c0-1.108 0.892-2 2-2h36c1.108 0 2 0.892 2 2v-1c0-1.108-0.892-2-2-2h-36z" fill="#fff" opacity=".2"/>
 <path d="m6 45c-1.108 0-2-0.892-2-2v-1c0 1.108 0.892 2 2 2h36c1.108 0 2-0.892 2-2v1c0 1.108-0.892 2-2 2h-36z" opacity=".2"/>
</svg>
