<?xml version="1.0" encoding="UTF-8" standalone="no"?>
<svg
   xmlns:dc="http://purl.org/dc/elements/1.1/"
   xmlns:cc="http://creativecommons.org/ns#"
   xmlns:rdf="http://www.w3.org/1999/02/22-rdf-syntax-ns#"
   xmlns:svg="http://www.w3.org/2000/svg"
   xmlns="http://www.w3.org/2000/svg"
   xmlns:xlink="http://www.w3.org/1999/xlink"
   xmlns:sodipodi="http://sodipodi.sourceforge.net/DTD/sodipodi-0.dtd"
   xmlns:inkscape="http://www.inkscape.org/namespaces/inkscape"
   height="48"
   width="48"
   version="1"
   id="svg20"
   sodipodi:docname="ijoy-music-player.svg"
   inkscape:version="0.92.1 r15371">
  <metadata
     id="metadata26">
    <rdf:RDF>
      <cc:Work
         rdf:about="">
        <dc:format>image/svg+xml</dc:format>
        <dc:type
           rdf:resource="http://purl.org/dc/dcmitype/StillImage" />
        <dc:title></dc:title>
      </cc:Work>
    </rdf:RDF>
  </metadata>
  <defs
     id="defs24">
    <linearGradient
       x1="167.98311"
       y1="8.50811"
       x2="167.98311"
       y2="54.780239"
       id="linearGradient5414"
       xlink:href="#linearGradient5803"
       gradientUnits="userSpaceOnUse"
       gradientTransform="matrix(0.70801035,0,0,0.71090703,-90.897626,-0.11035266)" />
    <linearGradient
       id="linearGradient5803">
      <stop
         id="stop5805"
         style="stop-color:#fff5ef;stop-opacity:1"
         offset="0" />
      <stop
         id="stop5807"
         style="stop-color:#fef8dd;stop-opacity:1"
         offset="1" />
    </linearGradient>
  </defs>
  <sodipodi:namedview
     pagecolor="#ffffff"
     bordercolor="#666666"
     borderopacity="1"
     objecttolerance="10"
     gridtolerance="10"
     guidetolerance="10"
     inkscape:pageopacity="0"
     inkscape:pageshadow="2"
     inkscape:window-width="1600"
     inkscape:window-height="822"
     id="namedview22"
     showgrid="true"
     inkscape:zoom="11.33"
     inkscape:cx="22.475814"
     inkscape:cy="24"
     inkscape:window-x="0"
     inkscape:window-y="0"
     inkscape:window-maximized="1"
     inkscape:current-layer="svg20">
    <inkscape:grid
       type="xygrid"
       id="grid4500" />
  </sodipodi:namedview>
  <rect
     ry="20"
     rx="20"
     transform="matrix(0,-1,-1,0,0,0)"
     height="40"
     width="40"
     y="-44"
     x="-44"
     fill="#1da6e8"
     id="rect2"
     style="fill:#3b9ddd;fill-opacity:1" />
  <path
     opacity=".2"
     fill="#fff"
     d="m24 4c-11.08 0-20 8.92-20 20 0 0.168 0.008 0.333 0.0117 0.5 0.2647-10.846 9.0763-19.5 19.988-19.5s19.724 8.6539 19.988 19.5c0.004-0.16686 0.0117-0.33213 0.0117-0.5 0-11.08-8.92-20-20-20z"
     id="path4"
     style="opacity:0.2" />
  <path
     opacity=".2"
     d="m4.0117 24.5c-0.0041 0.167-0.0117 0.332-0.0117 0.5 0 11.08 8.92 20 20 20s20-8.92 20-20c0-0.16787-0.0076-0.33314-0.01172-0.5-0.264 10.846-9.076 19.5-19.988 19.5s-19.724-8.654-19.988-19.5z"
     id="path18" />
  <path
     sodipodi:nodetypes="cccccccccccccc"
     d="M 24.862574,10.000444 C 24,10.00023 24,10.717415 24,11.447908 v 18.660007 c 0,0 -0.647731,-0.05183 -1.062514,-0.05183 -3.148758,-0.192741 -6.589072,2.199752 -6.903855,5.50832 -0.370992,2.630505 2.397043,4.794826 4.865434,4.385699 C 24.009091,39.618317 26,37 25.993425,33.35556 c 0.009,-5.478491 -0.01753,-8.963094 0.01315,-14.437624 2.800065,1.157358 5.813144,4.871625 5.993425,7.289028 0.164218,2.384617 -1.19091,4.71792 -2,6.928592 6.083743,-8.291495 1.260317,-11.935278 -2.3598,-18.043615 -0.897877,-1.426008 -1.581221,-3.017951 -1.795027,-4.701463 -0.176029,-0.35106 -0.538964,-0.393807 -0.881842,-0.390032 z"
     id="path4502"
     style="opacity:0.2;fill:#000000;fill-opacity:1;stroke:none;stroke-width:0.99796063"
     inkscape:connector-curvature="0" />
  <path
     inkscape:connector-curvature="0"
     style="fill:#ffffff;fill-opacity:1;stroke:none;stroke-width:0.99796063"
     id="path7249-8-0-3-6-1-6-0"
     d="M 24.862574,9.0003284 C 24,9.0001144 24,9.7172994 24,10.447792 v 18.660007 c 0,0 -0.647731,-0.05183 -1.062514,-0.05183 -3.148758,-0.192741 -6.589072,2.199752 -6.903855,5.50832 -0.370992,2.630505 2.397043,4.794826 4.865434,4.385699 3.110026,-0.331787 5.100935,-2.950104 5.09436,-6.594544 0.009,-5.478491 -0.01753,-8.963094 0.01315,-14.437624 2.800065,1.157358 5.813144,4.871625 5.993425,7.289028 0.164218,2.384617 -1.19091,4.71792 -2,6.928592 6.083743,-8.291495 1.260317,-11.935278 -2.3598,-18.043615 -0.897877,-1.426008 -1.581221,-3.017951 -1.795027,-4.7014626 -0.176029,-0.35106 -0.538964,-0.3938074 -0.881842,-0.390032 z"
     sodipodi:nodetypes="cccccccccccccc" />
</svg>
