<?xml version="1.0" encoding="UTF-8" standalone="no"?>
<svg
   xmlns:dc="http://purl.org/dc/elements/1.1/"
   xmlns:cc="http://creativecommons.org/ns#"
   xmlns:rdf="http://www.w3.org/1999/02/22-rdf-syntax-ns#"
   xmlns:svg="http://www.w3.org/2000/svg"
   xmlns="http://www.w3.org/2000/svg"
   xmlns:sodipodi="http://sodipodi.sourceforge.net/DTD/sodipodi-0.dtd"
   xmlns:inkscape="http://www.inkscape.org/namespaces/inkscape"
   height="48"
   width="48"
   version="1"
   id="svg12"
   sodipodi:docname="jetaudio.svg"
   inkscape:version="0.92.1 r15371">
  <metadata
     id="metadata18">
    <rdf:RDF>
      <cc:Work
         rdf:about="">
        <dc:format>image/svg+xml</dc:format>
        <dc:type
           rdf:resource="http://purl.org/dc/dcmitype/StillImage" />
        <dc:title></dc:title>
      </cc:Work>
    </rdf:RDF>
  </metadata>
  <defs
     id="defs16" />
  <sodipodi:namedview
     pagecolor="#ffffff"
     bordercolor="#666666"
     borderopacity="1"
     objecttolerance="10"
     gridtolerance="10"
     guidetolerance="10"
     inkscape:pageopacity="0"
     inkscape:pageshadow="2"
     inkscape:window-width="1600"
     inkscape:window-height="831"
     id="namedview14"
     showgrid="false"
     inkscape:zoom="7.54"
     inkscape:cx="7.2655598"
     inkscape:cy="24"
     inkscape:window-x="0"
     inkscape:window-y="0"
     inkscape:window-maximized="1"
     inkscape:current-layer="svg12">
    <inkscape:grid
       type="xygrid"
       id="grid4511" />
  </sodipodi:namedview>
  <rect
     transform="matrix(0,-1,-1,0,0,0)"
     rx="20"
     ry="20"
     height="40"
     width="40"
     y="-44"
     x="-44"
     id="rect2"
     style="fill:#5d5d5d;fill-opacity:1;stroke-width:1.00005007" />
  <path
     opacity=".2"
     d="m24 4c-11.079 0-19.998 8.92-19.998 20 0 0.16772-0.004 0.33329 0 0.5 0.2642-10.846 9.087-19.5 19.998-19.5s19.734 8.6536 19.998 19.5c0.004-0.16671 0-0.33228 0-0.5 0-11.08-8.919-20-19.998-20z"
     fill="#fff"
     id="path8"
     style="opacity:0.1" />
  <path
     opacity=".2"
     d="m4.0117 24.5c-0.0041 0.167-0.0117 0.332-0.0117 0.5 0 11.08 8.92 20 20 20s20-8.92 20-20c0-0.168-0.008-0.333-0.012-0.5-0.264 10.846-9.076 19.5-19.988 19.5s-19.724-8.654-19.988-19.5z"
     id="path10" />
  <path
     sodipodi:nodetypes="ssccssscscccsssscc"
     inkscape:connector-curvature="0"
     id="path4521"
     d="m 27.870258,14.005793 c -1.524585,0.04098 -3.150521,0.299595 -4.803609,0.798828 -4.77879,1.443198 -8.477821,4.498487 -9.782006,7.695256 -1.163268,3.105849 1.46823,4.35576 3.748387,5.586803 2.31482,2.583142 4.398398,3.78988 9.676241,2.195968 6.61235,-1.996933 11.157404,-7.080364 10.151244,-11.354347 -0.754619,-3.205489 -4.416502,-5.045457 -8.990257,-4.922508 z m 2.886568,6.585277 c 0.210736,0.363548 0.29375,0.789635 0.270348,1.258778 -0.120688,2.419483 -3.271685,5.984119 -6.130327,8.021287 0.326895,-1.157024 1.05166,-2.054083 0.592303,-2.911376 -1.306721,-2.427903 -7.730646,-0.798816 -7.730646,-0.798816 l -1.070627,-0.607781 c -0.398549,-0.226251 -0.575164,-0.504637 -0.582381,-0.815213 -0.03532,-1.5198 4.285341,-3.810413 6.206803,-4.534517 1.376816,-0.518854 3.203373,-1.082858 4.838188,-1.114504 1.420496,-0.0275 2.89619,0.346931 3.606339,1.502139 z"
     style="opacity:0.2;fill:#000000;fill-opacity:1;stroke:none;stroke-width:6.54708004;stroke-linecap:round;stroke-linejoin:round;stroke-miterlimit:4;stroke-dasharray:none;stroke-dashoffset:0;stroke-opacity:1" />
  <path
     style="opacity:1;fill:#f57f15;fill-opacity:1;stroke:none;stroke-width:6.54708004;stroke-linecap:round;stroke-linejoin:round;stroke-miterlimit:4;stroke-dasharray:none;stroke-dashoffset:0;stroke-opacity:1"
     d="m 27.870258,13.005794 c -1.524585,0.04098 -3.150521,0.299595 -4.803609,0.798828 -4.77879,1.443198 -8.477821,4.498487 -9.782006,7.695256 -1.163268,3.105849 1.46823,4.35576 3.748387,5.586803 2.31482,2.583142 4.398398,3.78988 9.676241,2.195968 6.61235,-1.996933 11.157404,-7.080364 10.151244,-11.354347 -0.754619,-3.205489 -4.416502,-5.045457 -8.990257,-4.922508 z m 2.886568,6.585277 c 0.210736,0.363548 0.29375,0.789635 0.270348,1.258778 -0.120688,2.419483 -3.271685,5.984119 -6.130327,8.021287 0.326895,-1.157024 1.05166,-2.054083 0.592303,-2.911376 -1.306721,-2.427903 -7.730646,-0.798816 -7.730646,-0.798816 l -1.070627,-0.607781 c -0.398549,-0.226251 -0.575164,-0.504637 -0.582381,-0.815213 -0.03532,-1.5198 4.285341,-3.810413 6.206803,-4.534517 1.376816,-0.518854 3.203373,-1.082858 4.838188,-1.114504 1.420496,-0.0275 2.89619,0.346931 3.606339,1.502139 z"
     id="ellipse4501"
     inkscape:connector-curvature="0"
     sodipodi:nodetypes="ssccssscscccsssscc" />
  <path
     style="opacity:0.1;fill:#ffffff;fill-opacity:1;stroke:none;stroke-width:6.54708004;stroke-linecap:round;stroke-linejoin:round;stroke-miterlimit:4;stroke-dasharray:none;stroke-dashoffset:0;stroke-opacity:1"
     d="M 27.871094 13.005859 C 26.346509 13.046839 24.719494 13.305454 23.066406 13.804688 C 18.287616 15.247886 14.589341 18.303231 13.285156 21.5 C 13.009896 22.234926 12.952114 22.862633 13.046875 23.414062 C 13.09018 23.127045 13.163159 22.825724 13.285156 22.5 C 14.589341 19.303231 18.287616 16.247885 23.066406 14.804688 C 24.719494 14.305454 26.346509 14.046839 27.871094 14.005859 C 32.444849 13.88291 36.106709 15.722245 36.861328 18.927734 C 36.91739 19.165877 36.948507 19.407896 36.970703 19.650391 C 37.0229 19.068079 36.993895 18.490854 36.861328 17.927734 C 36.106709 14.722245 32.444849 12.88291 27.871094 13.005859 z M 30.982422 21.216797 C 30.617003 23.464246 27.988339 26.497095 25.423828 28.466797 C 25.275647 28.857439 25.089432 29.274746 24.945312 29.732422 C 25.005876 29.719912 25.079072 29.697035 25.140625 29.683594 C 27.931991 27.622186 30.910065 24.200748 31.027344 21.849609 C 31.03843 21.627371 31.021361 21.41764 30.982422 21.216797 z M 16.259766 24.189453 C 16.160091 24.379798 16.101432 24.564584 16.105469 24.738281 C 16.112686 25.048857 16.288951 25.326483 16.6875 25.552734 L 17.757812 26.160156 C 17.757813 26.160156 24.18156 24.531081 25.488281 26.958984 C 25.514943 27.008743 25.525929 27.059306 25.544922 27.109375 C 25.660082 26.707666 25.686182 26.328324 25.488281 25.958984 C 24.18156 23.531081 17.757813 25.160156 17.757812 25.160156 L 16.6875 24.552734 C 16.493946 24.442856 16.35465 24.321639 16.259766 24.189453 z "
     id="path4525" />
  <ellipse
     transform="matrix(0.84899574,-0.5283997,0.47212719,0.88153044,0,0)"
     ry="4.9637618"
     rx="7.7692385"
     cy="35.584641"
     cx="2.5907362"
     id="ellipse4523"
     style="opacity:0.2;fill:#000000;fill-opacity:1;stroke:none;stroke-width:4.08128452;stroke-linecap:round;stroke-linejoin:round;stroke-miterlimit:4;stroke-dasharray:none;stroke-dashoffset:0;stroke-opacity:1" />
  <ellipse
     style="opacity:1;fill:#ffb428;fill-opacity:1;stroke:none;stroke-width:4.08128452;stroke-linecap:round;stroke-linejoin:round;stroke-miterlimit:4;stroke-dasharray:none;stroke-dashoffset:0;stroke-opacity:1"
     id="path4499"
     cx="3.0638623"
     cy="34.733849"
     rx="7.7692385"
     ry="4.9637618"
     transform="matrix(0.84899574,-0.5283997,0.47212719,0.88153044,0,0)" />
  <path
     style="opacity:0.1;fill:#ffffff;fill-opacity:1;stroke:none;stroke-width:4.07697153;stroke-linecap:round;stroke-linejoin:round;stroke-miterlimit:4;stroke-dasharray:none;stroke-dashoffset:0;stroke-opacity:1"
     d="M 22.099609 23.005859 A 4.9461164 7.7804839 55.562126 0 0 16.65625 24.625 A 4.9461164 7.7804839 55.562126 0 0 12.037109 31.884766 A 4.9461164 7.7804839 55.562126 0 1 16.65625 25.625 A 4.9461164 7.7804839 55.562126 0 1 25.595703 25.894531 A 4.9461164 7.7804839 55.562126 0 1 25.962891 27.115234 A 4.9461164 7.7804839 55.562126 0 0 25.595703 24.894531 A 4.9461164 7.7804839 55.562126 0 0 22.099609 23.005859 z "
     id="ellipse4527" />
</svg>
