<?xml version="1.0" encoding="UTF-8" standalone="no"?>
<svg
   xmlns:dc="http://purl.org/dc/elements/1.1/"
   xmlns:cc="http://creativecommons.org/ns#"
   xmlns:rdf="http://www.w3.org/1999/02/22-rdf-syntax-ns#"
   xmlns:svg="http://www.w3.org/2000/svg"
   xmlns="http://www.w3.org/2000/svg"
   xmlns:sodipodi="http://sodipodi.sourceforge.net/DTD/sodipodi-0.dtd"
   xmlns:inkscape="http://www.inkscape.org/namespaces/inkscape"
   height="48"
   width="48"
   version="1"
   id="svg12"
   sodipodi:docname="kepler-music-player.svg"
   inkscape:version="0.92.1 r15371">
  <metadata
     id="metadata18">
    <rdf:RDF>
      <cc:Work
         rdf:about="">
        <dc:format>image/svg+xml</dc:format>
        <dc:type
           rdf:resource="http://purl.org/dc/dcmitype/StillImage" />
        <dc:title></dc:title>
      </cc:Work>
    </rdf:RDF>
  </metadata>
  <defs
     id="defs16" />
  <sodipodi:namedview
     pagecolor="#ffffff"
     bordercolor="#666666"
     borderopacity="1"
     objecttolerance="10"
     gridtolerance="10"
     guidetolerance="10"
     inkscape:pageopacity="0"
     inkscape:pageshadow="2"
     inkscape:window-width="1600"
     inkscape:window-height="822"
     id="namedview14"
     showgrid="false"
     inkscape:zoom="1"
     inkscape:cx="22.924322"
     inkscape:cy="23.519691"
     inkscape:window-x="0"
     inkscape:window-y="0"
     inkscape:window-maximized="1"
     inkscape:current-layer="svg12" />
  <path
     style="fill:#cf67df;fill-opacity:1"
     inkscape:connector-curvature="0"
     d="m 9.84885,9.367 c 3.9141,-3.9141 9.0341,-5.8728 14.142,-5.8761 v 20.018 z"
     id="path4497" />
  <path
     style="fill:#ef4646;fill-opacity:1"
     inkscape:connector-curvature="0"
     d="m 38.13295,9.367 c -3.914,-3.9141 -9.034,-5.8728 -14.142,-5.8761 v 20.018 z"
     id="path4499" />
  <path
     style="fill:#636ad8;fill-opacity:1"
     inkscape:connector-curvature="0"
     d="m 9.86705,9.3648 c -3.9141,3.9143 -5.8728,9.0343 -5.8761,14.142 h 20.018 z"
     id="path4501" />
  <path
     style="fill:#38a3e3;fill-opacity:1"
     inkscape:connector-curvature="0"
     d="m 9.86705,37.6491 c -3.9141,-3.914 -5.8728,-9.034 -5.8761,-14.142 h 20.018 z"
     id="path4503" />
  <path
     style="fill:#ee8e56;fill-opacity:1"
     inkscape:connector-curvature="0"
     d="m 38.13295,9.3648 c 3.914,3.914 5.8727,9.0341 5.8761,14.142 h -20.018 z"
     id="path4505" />
  <path
     style="fill:#fdbf5c;fill-opacity:1"
     inkscape:connector-curvature="0"
     d="m 38.13295,37.6491 c 3.914,-3.914 5.8727,-9.0341 5.8761,-14.142 h -20.018 z"
     id="path4507" />
  <path
     style="fill:#49ddbe;fill-opacity:1"
     inkscape:connector-curvature="0"
     d="m 9.84885,37.6331 c 3.9141,3.914 9.0341,5.873 14.142,5.876 v -20.018 z"
     id="path4509" />
  <path
     style="fill:#52c72b;fill-opacity:1"
     inkscape:connector-curvature="0"
     d="m 38.13295,37.6331 c -3.914,3.914 -9.034,5.873 -14.142,5.876 v -20.018 z"
     id="path4511" />
  <path
     style="opacity:0.2;fill:#ffffff"
     inkscape:connector-curvature="0"
     d="m 23.99095,3.5091 c -11.08,0 -20,8.92 -20,20 0,0.168 0.008,0.333 0.0117,0.5 0.2647,-10.846 9.0763,-19.5 19.988,-19.5 10.9117,0 19.724,8.6539 19.988,19.5 0.004,-0.16686 0.0117,-0.33213 0.0117,-0.5 0,-11.08 -8.92,-20 -20,-20 z"
     id="path4513" />
  <path
     inkscape:connector-curvature="0"
     id="path4555"
     d="m 24,10 c -7.732,0 -14,6.268 -14,14 v 5 c 0,3.5696 2.5419,4.541041 4,4.806641 V 37 h 5 V 27 h -5 v -3 c 0,-5.54 4.46,-10 10,-10 5.54,0 10,4.46 10,10 v 3 h -5 v 10 h 5 V 33.8125 C 35.458,33.5445 38,32.57 38,29 V 24 C 38,16.268 31.732,10 24,10 Z"
     style="opacity:0.2;fill:#000000;fill-opacity:1" />
  <path
     style="opacity:0.2"
     inkscape:connector-curvature="0"
     d="m 4.00265,24.0091 c -0.0041,0.167 -0.0117,0.332 -0.0117,0.5 0,11.08 8.92,20 20,20 11.08,0 20,-8.92 20,-20 0,-0.168 -0.008,-0.333 -0.012,-0.5 -0.264,10.846 -9.076,19.5 -19.988,19.5 -10.912,0 -19.724,-8.654 -19.988,-19.5 z"
     id="path4515" />
  <path
     style="opacity:1;fill:#ffffff;fill-opacity:1"
     d="M 24,9 C 16.268,9 10,15.268 10,23 v 5 c 0,3.5696 2.5419,4.541041 4,4.806641 V 36 h 5 V 26 h -5 v -3 c 0,-5.54 4.46,-10 10,-10 5.54,0 10,4.46 10,10 v 3 h -5 v 10 h 5 V 32.8125 C 35.458,32.5445 38,31.57 38,28 V 23 C 38,15.268 31.732,9 24,9 Z"
     id="path2"
     inkscape:connector-curvature="0" />
</svg>
