<?xml version="1.0" encoding="UTF-8" standalone="no"?>
<svg
   xmlns:dc="http://purl.org/dc/elements/1.1/"
   xmlns:cc="http://creativecommons.org/ns#"
   xmlns:rdf="http://www.w3.org/1999/02/22-rdf-syntax-ns#"
   xmlns:svg="http://www.w3.org/2000/svg"
   xmlns="http://www.w3.org/2000/svg"
   xmlns:sodipodi="http://sodipodi.sourceforge.net/DTD/sodipodi-0.dtd"
   xmlns:inkscape="http://www.inkscape.org/namespaces/inkscape"
   height="48"
   width="48"
   version="1"
   id="svg20"
   sodipodi:docname="kmplayer.svg"
   inkscape:version="0.92.1 r15371">
  <metadata
     id="metadata26">
    <rdf:RDF>
      <cc:Work
         rdf:about="">
        <dc:format>image/svg+xml</dc:format>
        <dc:type
           rdf:resource="http://purl.org/dc/dcmitype/StillImage" />
        <dc:title />
      </cc:Work>
    </rdf:RDF>
  </metadata>
  <defs
     id="defs24" />
  <sodipodi:namedview
     pagecolor="#ffffff"
     bordercolor="#666666"
     borderopacity="1"
     objecttolerance="10"
     gridtolerance="10"
     guidetolerance="10"
     inkscape:pageopacity="0"
     inkscape:pageshadow="2"
     inkscape:window-width="1600"
     inkscape:window-height="831"
     id="namedview22"
     showgrid="false"
     inkscape:zoom="7.54"
     inkscape:cx="-13.482759"
     inkscape:cy="24"
     inkscape:window-x="0"
     inkscape:window-y="0"
     inkscape:window-maximized="1"
     inkscape:current-layer="svg20" />
  <path
     style="opacity:0.2;fill:#020002;fill-opacity:1;stroke:none;stroke-width:8.57920456;stroke-linecap:round;stroke-linejoin:round;stroke-miterlimit:4;stroke-dasharray:none;stroke-dashoffset:0;stroke-opacity:1"
     d="M 40.464854,8.0010767 A 3.4524368,3.7541025 0 0 1 44,11.753173 v 13.248542 13.248541 a 3.4524368,3.7541025 0 0 1 -5.175931,3.248497 L 28.268351,34.880013 17.71761,28.250206 a 3.4524368,3.7541025 0 0 1 0,-6.491451 L 28.268351,15.128949 38.824069,8.5102112 a 3.4524368,3.7541025 0 0 1 1.640785,-0.5091345 z"
     id="path4511"
     inkscape:connector-curvature="0" />
  <path
     inkscape:connector-curvature="0"
     id="path4499"
     d="M 40.464854,7.0010771 A 3.4524368,3.7541025 0 0 1 44,10.753173 v 13.248542 13.248541 a 3.4524368,3.7541025 0 0 1 -5.175931,3.248497 L 28.268351,33.880013 17.71761,27.250206 a 3.4524368,3.7541025 0 0 1 0,-6.491451 L 28.268351,14.128949 38.824069,7.5102116 a 3.4524368,3.7541025 0 0 1 1.640785,-0.5091345 z"
     style="opacity:1;fill:#9440a2;fill-opacity:1;stroke:none;stroke-width:8.57920456;stroke-linecap:round;stroke-linejoin:round;stroke-miterlimit:4;stroke-dasharray:none;stroke-dashoffset:0;stroke-opacity:1" />
  <path
     style="opacity:0.1;fill:#ffffff;fill-opacity:1;stroke:none;stroke-width:8.57920456;stroke-linecap:round;stroke-linejoin:round;stroke-miterlimit:4;stroke-dasharray:none;stroke-dashoffset:0;stroke-opacity:1"
     d="M 40.464844 7.0019531 A 3.4524368 3.7541025 0 0 0 38.824219 7.5097656 L 28.267578 14.128906 L 17.716797 20.757812 A 3.4524368 3.7541025 0 0 0 16.033203 24.511719 A 3.4524368 3.7541025 0 0 1 17.716797 21.757812 L 28.267578 15.128906 L 38.824219 8.5097656 A 3.4524368 3.7541025 0 0 1 40.464844 8.0019531 A 3.4524368 3.7541025 0 0 1 44 11.753906 L 44 10.753906 A 3.4524368 3.7541025 0 0 0 40.464844 7.0019531 z "
     id="path4501" />
  <path
     inkscape:connector-curvature="0"
     id="path4513"
     d="M 7.5351459,8.0010767 A 3.4524368,3.7541025 0 0 0 4,11.753173 v 13.248542 13.248541 a 3.4524368,3.7541025 0 0 0 5.1759301,3.248497 L 19.731649,34.880013 30.28239,28.250206 a 3.4524368,3.7541025 0 0 0 0,-6.491451 L 19.731649,15.128949 9.1759301,8.5102112 A 3.4524368,3.7541025 0 0 0 7.5351459,8.0010767 Z"
     style="opacity:0.2;fill:#020002;fill-opacity:1;stroke:none;stroke-width:8.57920456;stroke-linecap:round;stroke-linejoin:round;stroke-miterlimit:4;stroke-dasharray:none;stroke-dashoffset:0;stroke-opacity:1" />
  <path
     style="opacity:1;fill:#677af5;fill-opacity:1;stroke:none;stroke-width:8.57920456;stroke-linecap:round;stroke-linejoin:round;stroke-miterlimit:4;stroke-dasharray:none;stroke-dashoffset:0;stroke-opacity:1"
     d="M 7.5351459,7.0010771 A 3.4524368,3.7541025 0 0 0 4,10.753173 v 13.248542 13.248541 a 3.4524368,3.7541025 0 0 0 5.1759301,3.248497 L 19.731649,33.880013 30.28239,27.250206 a 3.4524368,3.7541025 0 0 0 0,-6.491451 L 19.731649,14.128949 9.1759301,7.5102116 A 3.4524368,3.7541025 0 0 0 7.5351459,7.0010771 Z"
     id="path4514"
     inkscape:connector-curvature="0" />
  <path
     style="opacity:0.1;fill:#ffffff;fill-opacity:1;stroke:none;stroke-width:8.57920456;stroke-linecap:round;stroke-linejoin:round;stroke-miterlimit:4;stroke-dasharray:none;stroke-dashoffset:0;stroke-opacity:1"
     d="M 7.5351562 7.0019531 A 3.4524368 3.7541025 0 0 0 4 10.753906 L 4 11.753906 A 3.4524368 3.7541025 0 0 1 7.5351562 8.0019531 A 3.4524368 3.7541025 0 0 1 9.1757812 8.5097656 L 19.732422 15.128906 L 30.283203 21.757812 A 3.4524368 3.7541025 0 0 1 31.966797 24.511719 A 3.4524368 3.7541025 0 0 0 30.283203 20.757812 L 19.732422 14.128906 L 9.1757812 7.5097656 A 3.4524368 3.7541025 0 0 0 7.5351562 7.0019531 z "
     id="path4503" />
</svg>
