<?xml version="1.0" encoding="UTF-8" standalone="no"?>
<svg
   xmlns:dc="http://purl.org/dc/elements/1.1/"
   xmlns:cc="http://creativecommons.org/ns#"
   xmlns:rdf="http://www.w3.org/1999/02/22-rdf-syntax-ns#"
   xmlns:svg="http://www.w3.org/2000/svg"
   xmlns="http://www.w3.org/2000/svg"
   xmlns:sodipodi="http://sodipodi.sourceforge.net/DTD/sodipodi-0.dtd"
   xmlns:inkscape="http://www.inkscape.org/namespaces/inkscape"
   height="48"
   width="48"
   version="1"
   id="svg22"
   sodipodi:docname="kx-music-player.svg"
   inkscape:version="0.92.1 r15371">
  <metadata
     id="metadata28">
    <rdf:RDF>
      <cc:Work
         rdf:about="">
        <dc:format>image/svg+xml</dc:format>
        <dc:type
           rdf:resource="http://purl.org/dc/dcmitype/StillImage" />
        <dc:title></dc:title>
      </cc:Work>
    </rdf:RDF>
  </metadata>
  <defs
     id="defs26" />
  <sodipodi:namedview
     pagecolor="#ffffff"
     bordercolor="#666666"
     borderopacity="1"
     objecttolerance="10"
     gridtolerance="10"
     guidetolerance="10"
     inkscape:pageopacity="0"
     inkscape:pageshadow="2"
     inkscape:window-width="1600"
     inkscape:window-height="822"
     id="namedview24"
     showgrid="false"
     inkscape:zoom="1"
     inkscape:cx="26.030488"
     inkscape:cy="23.688739"
     inkscape:window-x="0"
     inkscape:window-y="0"
     inkscape:window-maximized="1"
     inkscape:current-layer="svg22">
    <inkscape:grid
       type="xygrid"
       id="grid4636" />
  </sodipodi:namedview>
  <rect
     transform="matrix(0,-1,-1,0,0,0)"
     rx="2"
     ry="2"
     height="40"
     width="40"
     y="-44"
     x="-44"
     fill="#e94a63"
     id="rect2"
     style="fill:#5d5d5d;fill-opacity:1" />
  <path
     opacity=".2"
     fill="#fff"
     d="m6 4c-1.108 0-2 0.892-2 2v1c0-1.108 0.892-2 2-2h36c1.108 0 2 0.892 2 2v-1c0-1.108-0.892-2-2-2h-36z"
     id="path4"
     style="opacity:0.1" />
  <path
     opacity=".2"
     d="m6 45c-1.108 0-2-0.892-2-2v-1c0 1.108 0.892 2 2 2h36c1.108 0 2-0.892 2-2v1c0 1.108-0.892 2-2 2h-36z"
     id="path6" />
  <path
     id="path4511"
     d="m 41,33 a 9.0000001,8.9999999 0 0 1 -9,9 9.0000001,8.9999999 0 0 1 -9,-9 9.0000001,8.9999999 0 0 1 9,-9 9.0000001,8.9999999 0 0 1 9,9 z"
     inkscape:connector-curvature="0"
     style="opacity:0.3;fill:#000000;fill-opacity:1;stroke-width:2.25" />
  <path
     id="path4515"
     d="m 39.000001,34 a 7.0000001,6.9999999 0 0 1 -7,7 7.0000001,6.9999999 0 0 1 -7,-7 7.0000001,6.9999999 0 0 1 7,-7 7.0000001,6.9999999 0 0 1 7,7 z"
     inkscape:connector-curvature="0"
     style="opacity:0.2;fill:#000000;fill-opacity:1;stroke-width:1.75" />
  <path
     style="opacity:1;fill:#979797;fill-opacity:1;stroke-width:1.75"
     inkscape:connector-curvature="0"
     d="M 38.062179,36.5 A 7.0000001,6.9999999 30 0 1 28.500001,39.062178 7.0000001,6.9999999 30 0 1 25.937823,29.5 7.0000001,6.9999999 30 0 1 35.500001,26.937822 7.0000001,6.9999999 30 0 1 38.062179,36.5 Z"
     id="path4513" />
  <path
     style="opacity:0.1;fill:#ffffff;fill-opacity:1;stroke-width:1.75"
     d="M 31.669922,26.007812 A 7.0000001,6.9999999 30 0 0 25.9375,29.5 7.0000001,6.9999999 30 0 0 25.023438,33.494141 7.0000001,6.9999999 30 0 1 25.9375,30.5 7.0000001,6.9999999 30 0 1 35.5,27.9375 7.0000001,6.9999999 30 0 1 38.976562,33.505859 7.0000001,6.9999999 30 0 0 35.5,26.9375 7.0000001,6.9999999 30 0 0 31.669922,26.007812 Z"
     id="path4565"
     inkscape:connector-curvature="0" />
  <rect
     style="opacity:1;fill:#0bd5d5;fill-opacity:1;stroke:none;stroke-width:3.46299195;stroke-linecap:round;stroke-linejoin:round;stroke-miterlimit:4;stroke-dasharray:none;stroke-dashoffset:0;stroke-opacity:1"
     id="rect4523"
     width="2"
     height="6"
     x="43.212814"
     y="4.5788379"
     rx="1"
     ry="1"
     transform="rotate(30)" />
  <path
     sodipodi:nodetypes="csssscc"
     inkscape:connector-curvature="0"
     id="path4527"
     d="m 17,34 v 4.623344 C 17,38.832011 16.822492,39 16.602,39 H 16.398 C 16.177508,39 16,38.832011 16,38.623344 V 34 Z"
     style="opacity:1;fill:#0bd5d5;fill-opacity:1;stroke:none;stroke-width:1.54872417;stroke-linecap:round;stroke-linejoin:round;stroke-miterlimit:4;stroke-dasharray:none;stroke-dashoffset:0;stroke-opacity:1" />
  <path
     id="path4529"
     d="M 16.398437,27 C 16.177945,27 16,27.168285 16,27.376953 V 34 h 1 V 27.376953 C 17,27.168285 16.822054,27 16.601562,27 Z"
     style="opacity:0.3;fill:#000000;fill-opacity:1;stroke:none;stroke-width:1.54872417;stroke-linecap:round;stroke-linejoin:round;stroke-miterlimit:4;stroke-dasharray:none;stroke-dashoffset:0;stroke-opacity:1"
     inkscape:connector-curvature="0"
     sodipodi:nodetypes="ssccsss" />
  <rect
     style="opacity:0.2;fill:#000000;fill-opacity:1;stroke:none;stroke-width:1.14884162;stroke-linecap:round;stroke-linejoin:round;stroke-miterlimit:4;stroke-dasharray:none;stroke-dashoffset:0;stroke-opacity:1"
     id="rect4583"
     width="3"
     height="2"
     x="15"
     y="34"
     rx="0.75"
     ry="0.66666669" />
  <rect
     ry="0.66666669"
     rx="0.75"
     y="33"
     x="15"
     height="2"
     width="3"
     id="rect4534"
     style="opacity:1;fill:#979797;fill-opacity:1;stroke:none;stroke-width:1.14884162;stroke-linecap:round;stroke-linejoin:round;stroke-miterlimit:4;stroke-dasharray:none;stroke-dashoffset:0;stroke-opacity:1" />
  <path
     style="opacity:1;fill:#0bd5d5;fill-opacity:1;stroke:none;stroke-width:1.54872417;stroke-linecap:round;stroke-linejoin:round;stroke-miterlimit:4;stroke-dasharray:none;stroke-dashoffset:0;stroke-opacity:1"
     d="m 10,32 v 6.623344 C 10,38.832011 9.822492,39 9.602,39 H 9.398 C 9.177508,39 9,38.832011 9,38.623344 V 32 Z"
     id="path4538"
     inkscape:connector-curvature="0"
     sodipodi:nodetypes="csssscc" />
  <path
     inkscape:connector-curvature="0"
     style="opacity:0.3;fill:#000000;fill-opacity:1;stroke:none;stroke-width:1.54872417;stroke-linecap:round;stroke-linejoin:round;stroke-miterlimit:4;stroke-dasharray:none;stroke-dashoffset:0;stroke-opacity:1"
     d="M 9.398437,27 C 9.177945,27 9,27.168285 9,27.376953 V 32 h 1 V 27.376953 C 10,27.168285 9.822054,27 9.601562,27 Z"
     id="path4540" />
  <rect
     ry="0.66666669"
     rx="0.75"
     y="31"
     x="8"
     height="2"
     width="3"
     id="rect4585"
     style="opacity:0.2;fill:#000000;fill-opacity:1;stroke:none;stroke-width:1.14884162;stroke-linecap:round;stroke-linejoin:round;stroke-miterlimit:4;stroke-dasharray:none;stroke-dashoffset:0;stroke-opacity:1" />
  <rect
     style="opacity:1;fill:#979797;fill-opacity:1;stroke:none;stroke-width:1.14884162;stroke-linecap:round;stroke-linejoin:round;stroke-miterlimit:4;stroke-dasharray:none;stroke-dashoffset:0;stroke-opacity:1"
     id="rect4544"
     width="3"
     height="2"
     x="8"
     y="30"
     rx="0.75"
     ry="0.66666669" />
  <path
     style="opacity:0.1;fill:#ffffff;fill-opacity:1;stroke:none;stroke-width:1.14884162;stroke-linecap:round;stroke-linejoin:round;stroke-miterlimit:4;stroke-dasharray:none;stroke-dashoffset:0;stroke-opacity:1"
     d="M 15.75,33 C 15.3345,33 15,33.296682 15,33.666016 v 0.667968 C 15,34.392974 15.02108,34.445606 15.03711,34.5 15.12146,34.213805 15.400857,34 15.75,34 h 1.5 c 0.349143,0 0.628545,0.213805 0.712891,0.5 0.01603,-0.05439 0.03711,-0.107031 0.03711,-0.166016 v -0.667968 c 0,-0.369334 -0.3345,-0.666016 -0.75,-0.666016 z"
     id="rect4568"
     inkscape:connector-curvature="0" />
  <path
     style="opacity:0.1;fill:#ffffff;fill-opacity:1;stroke:none;stroke-width:1.14884162;stroke-linecap:round;stroke-linejoin:round;stroke-miterlimit:4;stroke-dasharray:none;stroke-dashoffset:0;stroke-opacity:1"
     d="M 8.75,30 C 8.3345,30 8,30.296682 8,30.666016 v 0.667968 C 8,31.392974 8.02108,31.445606 8.03711,31.5 8.121455,31.213805 8.400857,31 8.75,31 h 1.5 c 0.349143,0 0.628545,0.213805 0.712891,0.5 C 10.978921,31.44561 11,31.392969 11,31.333984 V 30.666016 C 11,30.296682 10.6655,30 10.25,30 Z"
     id="rect4570"
     inkscape:connector-curvature="0" />
  <rect
     transform="scale(-1,1)"
     style="opacity:0.3;fill:#000000;fill-opacity:1;stroke:none;stroke-width:2.84279656;stroke-linecap:round;stroke-linejoin:round;stroke-miterlimit:4;stroke-dasharray:none;stroke-dashoffset:0;stroke-opacity:1"
     id="rect4624"
     width="6"
     height="2"
     x="-13"
     y="13.000003" />
  <rect
     y="9.9999771"
     x="-13"
     height="2"
     width="6"
     id="rect4628"
     style="opacity:0.3;fill:#000000;fill-opacity:1;stroke:none;stroke-width:2.84279656;stroke-linecap:round;stroke-linejoin:round;stroke-miterlimit:4;stroke-dasharray:none;stroke-dashoffset:0;stroke-opacity:1"
     transform="scale(-1,1)" />
  <rect
     transform="scale(-1,1)"
     style="opacity:0.3;fill:#000000;fill-opacity:1;stroke:none;stroke-width:2.84279656;stroke-linecap:round;stroke-linejoin:round;stroke-miterlimit:4;stroke-dasharray:none;stroke-dashoffset:0;stroke-opacity:1"
     id="rect4632"
     width="6"
     height="2"
     x="-13"
     y="7" />
  <rect
     y="7"
     x="-20"
     height="2"
     width="6"
     id="rect4634"
     style="opacity:0.3;fill:#000000;fill-opacity:1;stroke:none;stroke-width:2.84279656;stroke-linecap:round;stroke-linejoin:round;stroke-miterlimit:4;stroke-dasharray:none;stroke-dashoffset:0;stroke-opacity:1"
     transform="scale(-1,1)" />
  <rect
     y="13.000003"
     x="-27"
     height="2"
     width="6"
     id="rect4617"
     style="opacity:0.3;fill:#000000;fill-opacity:1;stroke:none;stroke-width:2.84279656;stroke-linecap:round;stroke-linejoin:round;stroke-miterlimit:4;stroke-dasharray:none;stroke-dashoffset:0;stroke-opacity:1"
     transform="scale(-1,1)" />
  <rect
     transform="scale(-1,1)"
     style="opacity:0.3;fill:#000000;fill-opacity:1;stroke:none;stroke-width:2.84279656;stroke-linecap:round;stroke-linejoin:round;stroke-miterlimit:4;stroke-dasharray:none;stroke-dashoffset:0;stroke-opacity:1"
     id="rect4621"
     width="6"
     height="2"
     x="-27"
     y="9.9999771" />
  <rect
     y="9.9999771"
     x="-34"
     height="2"
     width="6"
     id="rect4623"
     style="opacity:0.3;fill:#000000;fill-opacity:1;stroke:none;stroke-width:2.84279656;stroke-linecap:round;stroke-linejoin:round;stroke-miterlimit:4;stroke-dasharray:none;stroke-dashoffset:0;stroke-opacity:1"
     transform="scale(-1,1)" />
  <rect
     y="7"
     x="-27"
     height="2"
     width="6"
     id="rect4625"
     style="opacity:0.3;fill:#000000;fill-opacity:1;stroke:none;stroke-width:2.84279656;stroke-linecap:round;stroke-linejoin:round;stroke-miterlimit:4;stroke-dasharray:none;stroke-dashoffset:0;stroke-opacity:1"
     transform="scale(-1,1)" />
  <rect
     transform="scale(-1,1)"
     style="opacity:0.3;fill:#000000;fill-opacity:1;stroke:none;stroke-width:2.84279656;stroke-linecap:round;stroke-linejoin:round;stroke-miterlimit:4;stroke-dasharray:none;stroke-dashoffset:0;stroke-opacity:1"
     id="rect4627"
     width="6"
     height="2"
     x="-34"
     y="7" />
  <g
     id="g4769"
     style="fill:#0bd5d5;fill-opacity:1"
     transform="translate(1)">
    <rect
       y="18.999994"
       x="-12"
       height="2"
       width="6"
       id="rect4616"
       style="opacity:1;fill:#0bd5d5;fill-opacity:1;stroke:none;stroke-width:2.84279656;stroke-linecap:round;stroke-linejoin:round;stroke-miterlimit:4;stroke-dasharray:none;stroke-dashoffset:0;stroke-opacity:1"
       transform="scale(-1,1)" />
    <rect
       transform="scale(-1,1)"
       style="opacity:1;fill:#0bd5d5;fill-opacity:1;stroke:none;stroke-width:2.84279656;stroke-linecap:round;stroke-linejoin:round;stroke-miterlimit:4;stroke-dasharray:none;stroke-dashoffset:0;stroke-opacity:1"
       id="rect4618"
       width="6"
       height="2"
       x="-19"
       y="18.999994" />
    <rect
       y="16"
       x="-12"
       height="2"
       width="6"
       id="rect4620"
       style="opacity:1;fill:#0bd5d5;fill-opacity:1;stroke:none;stroke-width:2.84279656;stroke-linecap:round;stroke-linejoin:round;stroke-miterlimit:4;stroke-dasharray:none;stroke-dashoffset:0;stroke-opacity:1"
       transform="scale(-1,1)" />
    <rect
       transform="scale(-1,1)"
       style="opacity:1;fill:#0bd5d5;fill-opacity:1;stroke:none;stroke-width:2.84279656;stroke-linecap:round;stroke-linejoin:round;stroke-miterlimit:4;stroke-dasharray:none;stroke-dashoffset:0;stroke-opacity:1"
       id="rect4622"
       width="6"
       height="2"
       x="-19"
       y="16" />
    <rect
       transform="scale(-1,1)"
       style="opacity:1;fill:#0bd5d5;fill-opacity:1;stroke:none;stroke-width:2.84279656;stroke-linecap:round;stroke-linejoin:round;stroke-miterlimit:4;stroke-dasharray:none;stroke-dashoffset:0;stroke-opacity:1"
       id="rect4626"
       width="6"
       height="2"
       x="-19"
       y="13.000003" />
    <rect
       y="9.9999771"
       x="-19"
       height="2"
       width="6"
       id="rect4630"
       style="opacity:1;fill:#0bd5d5;fill-opacity:1;stroke:none;stroke-width:2.84279656;stroke-linecap:round;stroke-linejoin:round;stroke-miterlimit:4;stroke-dasharray:none;stroke-dashoffset:0;stroke-opacity:1"
       transform="scale(-1,1)" />
    <rect
       transform="scale(-1,1)"
       style="opacity:1;fill:#0bd5d5;fill-opacity:1;stroke:none;stroke-width:2.84279656;stroke-linecap:round;stroke-linejoin:round;stroke-miterlimit:4;stroke-dasharray:none;stroke-dashoffset:0;stroke-opacity:1"
       id="rect4609"
       width="6"
       height="2"
       x="-26"
       y="18.999994" />
    <rect
       y="18.999994"
       x="-33"
       height="2"
       width="6"
       id="rect4611"
       style="opacity:1;fill:#0bd5d5;fill-opacity:1;stroke:none;stroke-width:2.84279656;stroke-linecap:round;stroke-linejoin:round;stroke-miterlimit:4;stroke-dasharray:none;stroke-dashoffset:0;stroke-opacity:1"
       transform="scale(-1,1)" />
    <rect
       transform="scale(-1,1)"
       style="opacity:1;fill:#0bd5d5;fill-opacity:1;stroke:none;stroke-width:2.84279656;stroke-linecap:round;stroke-linejoin:round;stroke-miterlimit:4;stroke-dasharray:none;stroke-dashoffset:0;stroke-opacity:1"
       id="rect4613"
       width="6"
       height="2"
       x="-26"
       y="16" />
    <rect
       y="16"
       x="-33"
       height="2"
       width="6"
       id="rect4615"
       style="opacity:1;fill:#0bd5d5;fill-opacity:1;stroke:none;stroke-width:2.84279656;stroke-linecap:round;stroke-linejoin:round;stroke-miterlimit:4;stroke-dasharray:none;stroke-dashoffset:0;stroke-opacity:1"
       transform="scale(-1,1)" />
    <rect
       y="13.000003"
       x="-33"
       height="2"
       width="6"
       id="rect4619"
       style="opacity:1;fill:#0bd5d5;fill-opacity:1;stroke:none;stroke-width:2.84279656;stroke-linecap:round;stroke-linejoin:round;stroke-miterlimit:4;stroke-dasharray:none;stroke-dashoffset:0;stroke-opacity:1"
       transform="scale(-1,1)" />
    <rect
       y="18.999994"
       x="-40"
       height="2"
       width="6"
       id="rect4659"
       style="opacity:1;fill:#0bd5d5;fill-opacity:1;stroke:none;stroke-width:2.84279656;stroke-linecap:round;stroke-linejoin:round;stroke-miterlimit:4;stroke-dasharray:none;stroke-dashoffset:0;stroke-opacity:1"
       transform="scale(-1,1)" />
    <rect
       y="16"
       x="-40"
       height="2"
       width="6"
       id="rect4663"
       style="opacity:1;fill:#0bd5d5;fill-opacity:1;stroke:none;stroke-width:2.84279656;stroke-linecap:round;stroke-linejoin:round;stroke-miterlimit:4;stroke-dasharray:none;stroke-dashoffset:0;stroke-opacity:1"
       transform="scale(-1,1)" />
    <rect
       y="13.000003"
       x="-40"
       height="2"
       width="6"
       id="rect4667"
       style="opacity:1;fill:#0bd5d5;fill-opacity:1;stroke:none;stroke-width:2.84279656;stroke-linecap:round;stroke-linejoin:round;stroke-miterlimit:4;stroke-dasharray:none;stroke-dashoffset:0;stroke-opacity:1"
       transform="scale(-1,1)" />
    <rect
       transform="scale(-1,1)"
       style="opacity:1;fill:#0bd5d5;fill-opacity:1;stroke:none;stroke-width:2.84279656;stroke-linecap:round;stroke-linejoin:round;stroke-miterlimit:4;stroke-dasharray:none;stroke-dashoffset:0;stroke-opacity:1"
       id="rect4671"
       width="6"
       height="2"
       x="-40"
       y="9.9999771" />
    <rect
       y="7"
       x="-40"
       height="2"
       width="6"
       id="rect4675"
       style="opacity:1;fill:#0bd5d5;fill-opacity:1;stroke:none;stroke-width:2.84279656;stroke-linecap:round;stroke-linejoin:round;stroke-miterlimit:4;stroke-dasharray:none;stroke-dashoffset:0;stroke-opacity:1"
       transform="scale(-1,1)" />
  </g>
</svg>
