<?xml version="1.0" encoding="UTF-8" standalone="no"?>
<svg
   xmlns:dc="http://purl.org/dc/elements/1.1/"
   xmlns:cc="http://creativecommons.org/ns#"
   xmlns:rdf="http://www.w3.org/1999/02/22-rdf-syntax-ns#"
   xmlns:svg="http://www.w3.org/2000/svg"
   xmlns="http://www.w3.org/2000/svg"
   xmlns:sodipodi="http://sodipodi.sourceforge.net/DTD/sodipodi-0.dtd"
   xmlns:inkscape="http://www.inkscape.org/namespaces/inkscape"
   height="48"
   width="48"
   version="1"
   id="svg20"
   sodipodi:docname="lark-player.svg"
   inkscape:version="0.92.1 r15371">
  <metadata
     id="metadata26">
    <rdf:RDF>
      <cc:Work
         rdf:about="">
        <dc:format>image/svg+xml</dc:format>
        <dc:type
           rdf:resource="http://purl.org/dc/dcmitype/StillImage" />
        <dc:title></dc:title>
      </cc:Work>
    </rdf:RDF>
  </metadata>
  <defs
     id="defs24" />
  <sodipodi:namedview
     pagecolor="#ffffff"
     bordercolor="#666666"
     borderopacity="1"
     objecttolerance="10"
     gridtolerance="10"
     guidetolerance="10"
     inkscape:pageopacity="0"
     inkscape:pageshadow="2"
     inkscape:window-width="1600"
     inkscape:window-height="822"
     id="namedview22"
     showgrid="true"
     inkscape:zoom="9.14"
     inkscape:cx="4.3958839"
     inkscape:cy="22.26016"
     inkscape:window-x="0"
     inkscape:window-y="0"
     inkscape:window-maximized="1"
     inkscape:current-layer="svg20"
     inkscape:measure-start="0,0"
     inkscape:measure-end="0,0">
    <inkscape:grid
       type="xygrid"
       id="grid4510" />
  </sodipodi:namedview>
  <path
     sodipodi:nodetypes="scscscscccccssscsss"
     inkscape:connector-curvature="0"
     id="path4552"
     d="M 19.429688,5.15625 C 17.712148,5.1322229 16.664069,5.5942799 15,6 c 1.181114,0.3298724 2.097421,0.3455907 3.152771,0.8902835 0.894196,0.4615172 1.94309,0.8853372 2.774963,1.5452634 C 20.927734,8.4355469 18.450959,8 16.304688,8 14.158416,8 12,9 12,9 c 0,-3e-7 3.309715,-0.086845 4.902344,0.2929688 0.944516,0.2252502 2.673828,1.1582032 2.673828,1.1582032 -1.912793,1.264117 -3.907454,2.653339 -5.683594,4.130859 -0.04845,0.03943 -0.09656,0.07915 -0.144531,0.119141 -0.101685,0.08547 -0.210502,0.167849 -0.310547,0.253906 -0.02583,0.02222 -0.03102,0.05041 -0.05078,0.07422 C 10.085458,17.95618 8,22.220818 8,27 8,35.864 15.136,43 24,43 32.864,43 40,35.864 40,27 40,21.442664 37.193215,16.565347 32.916016,13.699219 32.002027,13.022392 31.030146,12.2769 30.142578,11.664063 26.892066,9.4196875 24.145176,5.5525071 20.210938,5.1992188 19.934537,5.1743984 19.67505,5.1596824 19.429688,5.15625 Z"
     style="opacity:0.2;fill:#010101;fill-opacity:1;stroke-width:0.79999995" />
  <path
     style="opacity:1;fill:#5d5d5d;fill-opacity:1;stroke:none;stroke-width:2.66874671;stroke-linecap:round;stroke-linejoin:round;stroke-miterlimit:4;stroke-dasharray:none;stroke-dashoffset:0;stroke-opacity:1"
     d="M 24,6 A 19,19 0 0 0 5,25 19,19 0 0 0 5.050781,26 H 7.035156 A 17,17 0 0 1 7,25 17,17 0 0 1 24,8 17,17 0 0 1 41,25 17,17 0 0 1 40.95117,26 h 2.013672 A 19,19 0 0 0 43,25 19,19 0 0 0 24,6 Z"
     id="path4529"
     inkscape:connector-curvature="0" />
  <path
     style="opacity:1;fill:#66c6ff;fill-opacity:1;stroke-width:0.79999995"
     d="M 19.429688,4.15625 C 17.712148,4.1322229 16.664069,4.5942799 15,5 c 1.181114,0.3298724 2.097421,0.3455907 3.152771,0.8902835 0.894196,0.4615172 1.94309,0.8853372 2.774963,1.5452634 C 20.927734,7.4355469 18.450959,7 16.304688,7 14.158416,7 12,8 12,8 c 0,-3e-7 3.309715,-0.086845 4.902344,0.2929688 0.944516,0.2252502 2.673828,1.1582031 2.673828,1.1582031 -1.912793,1.2641171 -3.907454,2.6533391 -5.683594,4.1308591 -0.04845,0.03943 -0.09656,0.07915 -0.144531,0.119141 -0.101685,0.08547 -0.210502,0.167849 -0.310547,0.253906 -0.02583,0.02222 -0.03102,0.05041 -0.05078,0.07422 C 10.085458,16.95618 8,21.220818 8,26 8,34.864 15.136,42 24,42 32.864,42 40,34.864 40,26 40,20.442664 37.193215,15.565347 32.916016,12.699219 32.002027,12.022392 31.030146,11.2769 30.142578,10.664063 26.892066,8.4196875 24.145176,4.5525071 20.210938,4.1992188 19.934537,4.1743984 19.67505,4.1596824 19.429688,4.15625 Z"
     id="rect2"
     inkscape:connector-curvature="0"
     sodipodi:nodetypes="scscscscccccssscsss" />
  <path
     inkscape:connector-curvature="0"
     style="opacity:0.1;fill:#ffffff;fill-opacity:1;stroke-width:0.79999995"
     d="M 19.429688,4.15625 C 17.712148,4.1322229 16.664069,4.5942799 15,5 c 0.738906,0.2063685 1.373398,0.2998971 2.003906,0.4667969 0.744471,-0.1870767 1.49215,-0.3236077 2.425782,-0.3105469 0.245362,0.00343 0.504849,0.018148 0.78125,0.042969 3.934237,0.3532883 6.681128,4.2204687 9.93164,6.464844 0.887568,0.612837 1.859449,1.358329 2.773438,2.035156 4.119533,2.760477 6.866903,7.388952 7.064453,12.691406 C 39.983611,26.259503 40,26.131905 40,26 40,20.442664 37.193215,15.565347 32.916016,12.699219 32.002027,12.022392 31.030146,11.2769 30.142578,10.664063 26.892066,8.4196875 24.145175,4.5525071 20.210938,4.1992188 19.934537,4.1743983 19.67505,4.1596824 19.429688,4.15625 Z M 16.304688,7 C 14.158416,7 12,8 12,8 c 0,-2e-7 1.711909,-0.037877 3.265625,0.078125 C 15.607359,8.0334876 15.954144,8 16.304688,8 18.450959,8 20.927734,8.4355469 20.927734,8.4355469 20.246041,7.8947585 19.430719,7.5169355 18.662109,7.1425781 17.915928,7.0667178 17.104283,7 16.304688,7 Z m 2.43164,3.029297 c -1.649805,1.110865 -3.325657,2.289877 -4.84375,3.552734 -0.04845,0.03943 -0.09656,0.07915 -0.144531,0.119141 -0.101685,0.08547 -0.210502,0.167849 -0.310547,0.253906 -0.02583,0.02222 -0.03102,0.05041 -0.05078,0.07422 C 10.085457,16.956179 8,21.220818 8,26 c 0,0.175423 0.019843,0.345503 0.025391,0.519531 0.1360682,-4.581896 2.172352,-8.662904 5.361328,-11.490234 0.01976,-0.02381 0.02495,-0.052 0.05078,-0.07422 0.100045,-0.08606 0.208862,-0.168436 0.310547,-0.253906 0.04797,-0.03999 0.09608,-0.07971 0.144531,-0.119141 1.77614,-1.47752 3.770801,-2.866742 5.683594,-4.130859 0,0 -0.404462,-0.209174 -0.839844,-0.421875 z"
     id="path4537" />
  <circle
     style="opacity:1;fill:#5d5d5d;fill-opacity:1;stroke:none;stroke-width:1.78885436;stroke-linecap:round;stroke-linejoin:round;stroke-miterlimit:4;stroke-dasharray:none;stroke-dashoffset:0;stroke-opacity:1"
     id="path4514"
     cx="15"
     cy="28"
     r="2" />
  <circle
     r="2"
     cy="27.890711"
     cx="33"
     id="circle4516"
     style="opacity:1;fill:#5d5d5d;fill-opacity:1;stroke:none;stroke-width:1.78885436;stroke-linecap:round;stroke-linejoin:round;stroke-miterlimit:4;stroke-dasharray:none;stroke-dashoffset:0;stroke-opacity:1" />
  <path
     sodipodi:nodetypes="sssss"
     inkscape:connector-curvature="0"
     id="path4523"
     d="m 27,33.5 c 0,0.5 -1.343146,2.5 -3,2.5 -1.656854,0 -3,-2 -3,-2.5 0,0 1.5,-2.5 3,-2.5 1.5,0 3,2.5 3,2.5 z"
     style="opacity:1;fill:#f7b424;fill-opacity:1;stroke:none;stroke-width:1.95503271;stroke-linecap:round;stroke-linejoin:round;stroke-miterlimit:4;stroke-dasharray:none;stroke-dashoffset:0;stroke-opacity:1" />
  <path
     style="opacity:0.2;fill:#000000;fill-opacity:1;stroke:none;stroke-width:1.95503271;stroke-linecap:round;stroke-linejoin:round;stroke-miterlimit:4;stroke-dasharray:none;stroke-dashoffset:0;stroke-opacity:1"
     d="m 24,31 c -2,0 -4,2.5 -4,2.5 0,0.245994 0.437118,0.854809 1.140625,1.410156 C 21.512577,35.670923 22.644601,37 24,37 25.355399,37 26.487423,35.670923 26.859375,34.910156 27.562882,34.354809 28,33.745994 28,33.5 28,33.5 26,31 24,31 Z"
     id="path4558"
     inkscape:connector-curvature="0" />
  <path
     style="opacity:1;fill:#fcdb46;fill-opacity:1;stroke:none;stroke-width:2.25747728;stroke-linecap:round;stroke-linejoin:round;stroke-miterlimit:4;stroke-dasharray:none;stroke-dashoffset:0;stroke-opacity:1"
     d="m 28,32.5 c 0,0.5 -1.790861,2.5 -4,2.5 -2.209139,0 -4,-2 -4,-2.5 0,0 2,-2.5 4,-2.5 2,0 4,2.5 4,2.5 z"
     id="path4520"
     inkscape:connector-curvature="0"
     sodipodi:nodetypes="sssss" />
  <rect
     ry="3"
     y="21"
     x="4"
     height="13"
     width="5"
     id="rect4554"
     style="opacity:0.2;fill:#010101;fill-opacity:1;stroke:none;stroke-width:2;stroke-linecap:round;stroke-linejoin:round;stroke-miterlimit:4;stroke-dasharray:none;stroke-dashoffset:0;stroke-opacity:1" />
  <rect
     style="opacity:1;fill:#f87982;fill-opacity:1;stroke:none;stroke-width:2;stroke-linecap:round;stroke-linejoin:round;stroke-miterlimit:4;stroke-dasharray:none;stroke-dashoffset:0;stroke-opacity:1"
     id="rect4525"
     width="5"
     height="13"
     x="4"
     y="20"
     ry="3" />
  <rect
     style="opacity:0.2;fill:#010101;fill-opacity:1;stroke:none;stroke-width:2;stroke-linecap:round;stroke-linejoin:round;stroke-miterlimit:4;stroke-dasharray:none;stroke-dashoffset:0;stroke-opacity:1"
     id="rect4556"
     width="5"
     height="13"
     x="39"
     y="21"
     ry="3" />
  <rect
     ry="3"
     y="20"
     x="39"
     height="13"
     width="5"
     id="rect4527"
     style="opacity:1;fill:#f87982;fill-opacity:1;stroke:none;stroke-width:2;stroke-linecap:round;stroke-linejoin:round;stroke-miterlimit:4;stroke-dasharray:none;stroke-dashoffset:0;stroke-opacity:1" />
  <path
     inkscape:connector-curvature="0"
     style="opacity:0.1;fill:#ffffff;fill-opacity:1;stroke:none;stroke-width:2;stroke-linecap:round;stroke-linejoin:round;stroke-miterlimit:4;stroke-dasharray:none;stroke-dashoffset:0;stroke-opacity:1"
     d="M 6.5,20 C 5.115,20 4,21.338 4,23 v 1 C 4,22.338 5.115,21 6.5,21 7.885,21 9,22.338 9,24 V 23 C 9,21.338 7.885,20 6.5,20 Z"
     id="rect4539" />
  <path
     inkscape:connector-curvature="0"
     style="opacity:0.1;fill:#ffffff;fill-opacity:1;stroke:none;stroke-width:2;stroke-linecap:round;stroke-linejoin:round;stroke-miterlimit:4;stroke-dasharray:none;stroke-dashoffset:0;stroke-opacity:1"
     d="M 41.5,20 C 40.115,20 39,21.338 39,23 v 1 c 0,-1.662 1.115,-3 2.5,-3 1.385,0 2.5,1.338 2.5,3 v -1 c 0,-1.662 -1.115,-3 -2.5,-3 z"
     id="rect4541" />
</svg>
