<svg width="48" height="48" version="1" xmlns="http://www.w3.org/2000/svg">
 <path d="m40 42v-36c0-1.108-0.892-2-2-2h-28c-1.108 0-2 0.892-2 2v36c0 1.108 0.892 2 2 2h28c1.108 0 2-0.892 2-2z" fill="#3e50b4"/>
 <path d="m12 8c-1 0-1 1-1 1v32s0 1 1 1h24.062s0.938 0 0.938-1v-20l-12.234-13zm16.883 0 8.117 8.625v-7.625c0-1-1-1-1-1z" opacity=".1"/>
 <path d="m10 4c-1.108 0-2 0.892-2 2v1c0-1.108 0.892-2 2-2h28c1.108 0 2 0.892 2 2v-1c0-1.108-0.892-2-2-2z" fill="#fff" opacity=".1"/>
 <path d="m12 7c-1 0-1 1-1 1v32s0 1 1 1h24.062s0.938 0 0.938-1v-20l-12.234-13zm16.883 0 8.117 8.625v-7.625c0-1-1-1-1-1z" fill="#f5f5f5"/>
 <path d="m16 36.022v-2h11v2zm0-4v-2h17v2zm0-4v-2h17v2zm0-4v-2h17v2z" opacity=".5" style="enable-background:new"/>
 <path d="m8 42v1c0 1.108 0.892 2 2 2h28c1.108 0 2-0.892 2-2v-1c0 1.108-0.892 2-2 2h-28c-1.108 0-2-0.892-2-2z" opacity=".2"/>
</svg>
