<?xml version="1.0" encoding="UTF-8" standalone="no"?>
<svg
   xmlns:dc="http://purl.org/dc/elements/1.1/"
   xmlns:cc="http://creativecommons.org/ns#"
   xmlns:rdf="http://www.w3.org/1999/02/22-rdf-syntax-ns#"
   xmlns:svg="http://www.w3.org/2000/svg"
   xmlns="http://www.w3.org/2000/svg"
   xmlns:sodipodi="http://sodipodi.sourceforge.net/DTD/sodipodi-0.dtd"
   xmlns:inkscape="http://www.inkscape.org/namespaces/inkscape"
   height="48"
   viewBox="0 0 48 48"
   width="48"
   version="1.1"
   id="svg22"
   sodipodi:docname="localcast-for-chromecast.svg"
   inkscape:version="0.92.1 r15371">
  <metadata
     id="metadata28">
    <rdf:RDF>
      <cc:Work
         rdf:about="">
        <dc:format>image/svg+xml</dc:format>
        <dc:type
           rdf:resource="http://purl.org/dc/dcmitype/StillImage" />
        <dc:title></dc:title>
      </cc:Work>
    </rdf:RDF>
  </metadata>
  <defs
     id="defs26" />
  <sodipodi:namedview
     pagecolor="#ffffff"
     bordercolor="#666666"
     borderopacity="1"
     objecttolerance="10"
     gridtolerance="10"
     guidetolerance="10"
     inkscape:pageopacity="0"
     inkscape:pageshadow="2"
     inkscape:window-width="1600"
     inkscape:window-height="822"
     id="namedview24"
     showgrid="false"
     inkscape:zoom="7.03"
     inkscape:cx="42.873854"
     inkscape:cy="16.728528"
     inkscape:window-x="0"
     inkscape:window-y="0"
     inkscape:window-maximized="1"
     inkscape:current-layer="svg22" />
  <rect
     style="fill:#7e7e7e"
     id="rect2"
     x="-41.999989"
     y="-36"
     width="32"
     height="24"
     transform="matrix(0,-1,-1,0,0,0)"
     rx="2"
     ry="2" />
  <rect
     style="fill:#757575"
     id="rect4"
     x="-37.999989"
     y="-44"
     width="32"
     height="40"
     ry="2"
     rx="2"
     transform="matrix(0,-1,-1,0,0,0)" />
  <rect
     style="fill:#62c3d5;fill-opacity:1"
     id="rect6"
     x="-34.999989"
     y="-41"
     width="26"
     height="34"
     transform="matrix(0,-1,-1,0,0,0)"
     rx="0"
     ry="0" />
  <path
     transform="matrix(0.77797152,0,0,0.51332805,-5.3968321,17.033524)"
     inkscape:transform-center-y="-1.6666674"
     d="m 29.752802,15.519268 5.623598,9.74036 5.6236,9.74036 -11.247198,-1e-6 -11.247199,0 5.6236,-9.740359 z"
     inkscape:randomized="0"
     inkscape:rounded="0"
     inkscape:flatsided="false"
     sodipodi:arg2="-0.52359878"
     sodipodi:arg1="-1.5707963"
     sodipodi:r2="6.4935722"
     sodipodi:r1="12.987146"
     sodipodi:cy="28.506414"
     sodipodi:cx="29.752802"
     sodipodi:sides="3"
     id="path4556"
     style="opacity:1;vector-effect:none;fill:#00776a;fill-opacity:1;stroke:none;stroke-width:0.74176019;stroke-linecap:butt;stroke-linejoin:miter;stroke-miterlimit:4;stroke-dasharray:none;stroke-dashoffset:0;stroke-opacity:1"
     sodipodi:type="star" />
  <path
     sodipodi:type="star"
     style="opacity:1;vector-effect:none;fill:#47b75a;fill-opacity:1;stroke:none;stroke-width:0.74176019;stroke-linecap:butt;stroke-linejoin:miter;stroke-miterlimit:4;stroke-dasharray:none;stroke-dashoffset:0;stroke-opacity:1"
     id="path4554"
     sodipodi:sides="3"
     sodipodi:cx="29.752802"
     sodipodi:cy="28.506414"
     sodipodi:r1="12.987146"
     sodipodi:r2="6.4935722"
     sodipodi:arg1="-1.5707963"
     sodipodi:arg2="-0.52359878"
     inkscape:flatsided="false"
     inkscape:rounded="0"
     inkscape:randomized="0"
     d="m 29.752802,15.519268 5.623598,9.74036 5.6236,9.74036 -11.247198,-1e-6 -11.247199,0 5.6236,-9.740359 z"
     inkscape:transform-center-y="-2.6666668"
     transform="matrix(1.2447544,0,0,0.82132488,-10.034931,6.2536275)" />
  <path
     style="opacity:0.2;fill:#ffffff"
     inkscape:connector-curvature="0"
     id="path8"
     d="m 6,5.9999886 c -1.108,0 -2,0.892 -2,2 v 1 c 0,-1.108 0.892,-2 2,-2 h 36 c 1.108,0 2,0.892 2,2 v -1 c 0,-1.108 -0.892,-2 -2,-2 z" />
  <path
     style="opacity:0.2"
     inkscape:connector-curvature="0"
     id="path10"
     d="m 12,38.999989 v 1 c 0,1.108 0.892,2 2,2 h 20 c 1.108,0 2,-0.892 2,-2 v -1 c 0,1.108 -0.892,2 -2,2 H 14 c -1.108,0 -2,-0.892 -2,-2 z" />
  <path
     style="opacity:0.2"
     inkscape:connector-curvature="0"
     id="path12"
     d="m 4,34.999989 v 1 c 0,1.108 0.892,2 2,2 h 36 c 1.108,0 2,-0.892 2,-2 v -1 c 0,1.108 -0.892,2 -2,2 H 6 c -1.108,0 -2,-0.892 -2,-2 z" />
  <circle
     style="opacity:0.2;enable-background:new"
     cx="36"
     cy="35"
     r="11"
     id="circle16" />
  <circle
     style="fill:#f59335;fill-opacity:1;enable-background:new"
     cx="36"
     cy="34"
     r="11"
     id="circle18" />
  <circle
     r="4"
     cy="16"
     cx="13"
     id="circle4560"
     style="opacity:0.2;vector-effect:none;fill:#000000;fill-opacity:1;stroke:none;stroke-width:0.93179768;stroke-linecap:butt;stroke-linejoin:miter;stroke-miterlimit:4;stroke-dasharray:none;stroke-dashoffset:0;stroke-opacity:1" />
  <circle
     style="opacity:1;vector-effect:none;fill:#fcef73;fill-opacity:1;stroke:none;stroke-width:0.93179768;stroke-linecap:butt;stroke-linejoin:miter;stroke-miterlimit:4;stroke-dasharray:none;stroke-dashoffset:0;stroke-opacity:1"
     id="path4558"
     cx="13"
     cy="15"
     r="4" />
  <path
     inkscape:connector-curvature="0"
     style="fill:#ffffff;enable-background:new"
     d="m 31,28 c 0,0.5 0.5,1 1,1 4.9706,-5e-6 9,4.0294 9,9 0,0.5 0.45347,1 1,1 0.5,0 1,-0.5 1,-1 0,-6.075 -4.925,-11 -11,-11 -0.5,0 -1,0.5 -1,1 z m 0,4 c 0,0.5 0.5,1 1,1 2.7614,-3e-6 5,2.2386 5,5 0,0.5 0.5,1 1,1 0.5,0 1,-0.5 1,-1 0,-3.866 -3.134,-7 -7,-7 -0.5,0 -1,0.5 -1,1 z m 2,3 c -1.1046,0 -2,0.89545 -2,2 0,1.1045 0.8955,2 2,2 1.1046,0 2,-0.89545 2,-2 0,-1.10455 -0.89545,-2 -2,-2 z"
     id="path4566" />
</svg>
