<?xml version="1.0" encoding="UTF-8" standalone="no"?>
<svg
   xmlns:dc="http://purl.org/dc/elements/1.1/"
   xmlns:cc="http://creativecommons.org/ns#"
   xmlns:rdf="http://www.w3.org/1999/02/22-rdf-syntax-ns#"
   xmlns:svg="http://www.w3.org/2000/svg"
   xmlns="http://www.w3.org/2000/svg"
   xmlns:sodipodi="http://sodipodi.sourceforge.net/DTD/sodipodi-0.dtd"
   xmlns:inkscape="http://www.inkscape.org/namespaces/inkscape"
   height="48"
   width="48"
   version="1"
   id="svg20"
   sodipodi:docname="mail.ru-cloud.svg"
   inkscape:version="0.92.1 r15371">
  <metadata
     id="metadata26">
    <rdf:RDF>
      <cc:Work
         rdf:about="">
        <dc:format>image/svg+xml</dc:format>
        <dc:type
           rdf:resource="http://purl.org/dc/dcmitype/StillImage" />
      </cc:Work>
    </rdf:RDF>
  </metadata>
  <defs
     id="defs24" />
  <sodipodi:namedview
     pagecolor="#ffffff"
     bordercolor="#666666"
     borderopacity="1"
     objecttolerance="10"
     gridtolerance="10"
     guidetolerance="10"
     inkscape:pageopacity="0"
     inkscape:pageshadow="2"
     inkscape:window-width="1600"
     inkscape:window-height="822"
     id="namedview22"
     showgrid="false"
     inkscape:zoom="6.56"
     inkscape:cx="23.094925"
     inkscape:cy="24"
     inkscape:window-x="0"
     inkscape:window-y="0"
     inkscape:window-maximized="1"
     inkscape:current-layer="svg20" />
  <path
     sodipodi:nodetypes="ccccsccccccccccsscccc"
     inkscape:connector-curvature="0"
     id="path4536"
     d="m 24.996094,10 c -2.554149,0.002 -4.955967,0.894387 -6.972656,2.351562 C 17.353853,12.21048 16.698348,12.000853 16.005859,12 h -0.002 H 16 C 10.737147,12 6.433638,16.239126 6.1171875,21.431641 4.186459,23.448679 3.0005065,26.124038 3,29 c 0,6.015909 4.9840909,11 11,11 1.705903,-1.4e-4 3.356885,-0.420037 4.853516,-1.158203 1.619187,0.706314 3.340877,1.155036 5.136718,1.158203 H 24 24.0098 c 1.583532,-0.0033 3.109608,-0.375657 4.572265,-0.933594 1.403066,0.562285 2.87656,0.930647 4.408203,0.933594 h 0.0059 H 33 C 39.568194,40 45,34.568194 45,28 45,22.35733 40.913411,17.776973 35.619141,16.535156 33.605072,12.651739 29.573315,10.005497 25.005859,10 h -0.0039 z"
     style="color:#000000;font-style:normal;font-variant:normal;font-weight:normal;font-stretch:normal;font-size:medium;line-height:normal;font-family:sans-serif;font-variant-ligatures:normal;font-variant-position:normal;font-variant-caps:normal;font-variant-numeric:normal;font-variant-alternates:normal;font-feature-settings:normal;text-indent:0;text-align:start;text-decoration:none;text-decoration-line:none;text-decoration-style:solid;text-decoration-color:#000000;letter-spacing:normal;word-spacing:normal;text-transform:none;writing-mode:lr-tb;direction:ltr;text-orientation:mixed;dominant-baseline:auto;baseline-shift:baseline;text-anchor:start;white-space:normal;shape-padding:0;clip-rule:nonzero;display:inline;overflow:visible;visibility:visible;opacity:0.2;isolation:auto;mix-blend-mode:normal;color-interpolation:sRGB;color-interpolation-filters:linearRGB;solid-color:#000000;solid-opacity:1;vector-effect:none;fill:#000000;fill-opacity:1;fill-rule:nonzero;stroke:none;stroke-width:10;stroke-linecap:butt;stroke-linejoin:miter;stroke-miterlimit:4;stroke-dasharray:none;stroke-dashoffset:0;stroke-opacity:1;color-rendering:auto;image-rendering:auto;shape-rendering:auto;text-rendering:auto;enable-background:accumulate" />
  <path
     style="color:#000000;font-style:normal;font-variant:normal;font-weight:normal;font-stretch:normal;font-size:medium;line-height:normal;font-family:sans-serif;font-variant-ligatures:normal;font-variant-position:normal;font-variant-caps:normal;font-variant-numeric:normal;font-variant-alternates:normal;font-feature-settings:normal;text-indent:0;text-align:start;text-decoration:none;text-decoration-line:none;text-decoration-style:solid;text-decoration-color:#000000;letter-spacing:normal;word-spacing:normal;text-transform:none;writing-mode:lr-tb;direction:ltr;text-orientation:mixed;dominant-baseline:auto;baseline-shift:baseline;text-anchor:start;white-space:normal;shape-padding:0;clip-rule:nonzero;display:inline;overflow:visible;visibility:visible;opacity:1;isolation:auto;mix-blend-mode:normal;color-interpolation:sRGB;color-interpolation-filters:linearRGB;solid-color:#000000;solid-opacity:1;vector-effect:none;fill:#1da6e8;fill-opacity:1;fill-rule:nonzero;stroke:none;stroke-width:10;stroke-linecap:butt;stroke-linejoin:miter;stroke-miterlimit:4;stroke-dasharray:none;stroke-dashoffset:0;stroke-opacity:1;color-rendering:auto;image-rendering:auto;shape-rendering:auto;text-rendering:auto;enable-background:accumulate"
     d="M 24.996094,9 C 22.441945,9.00195 20.040127,9.8943871 18.023438,11.351562 17.353853,11.21048 16.698348,11.000853 16.005859,11 h -0.002 H 16 C 10.737147,11 6.433638,15.239126 6.1171875,20.431641 4.186459,22.448679 3.0005065,25.124038 3,28 c 0,6.015909 4.9840909,11 11,11 1.705903,-1.4e-4 3.356885,-0.420037 4.853516,-1.158203 1.619187,0.706314 3.340877,1.155036 5.136718,1.158203 H 24 24.0098 c 1.583532,-0.0033 3.109608,-0.375657 4.572265,-0.933594 1.403066,0.562285 2.87656,0.930647 4.408203,0.933594 h 0.0059 H 33 C 39.568194,39 45,33.568194 45,27 45,21.35733 40.913411,16.776973 35.619141,15.535156 33.605072,11.651739 29.573315,9.0054965 25.005859,9 h -0.0039 z"
     id="circle4508"
     inkscape:connector-curvature="0"
     sodipodi:nodetypes="ccccsccccccccccsscccc" />
  <circle
     cy="29"
     cx="14"
     r="6"
     id="circle4521"
     style="opacity:0.2;fill:#000000;fill-opacity:1" />
  <circle
     style="opacity:1;fill:#ffe174;fill-opacity:1"
     id="circle6"
     r="6"
     cx="14"
     cy="28" />
  <circle
     cy="22"
     cx="16"
     r="5"
     id="circle4523"
     style="opacity:0.2;fill:#000000;fill-opacity:1" />
  <circle
     style="opacity:1;fill:#ffd338;fill-opacity:1"
     id="circle14"
     r="5"
     cx="16"
     cy="21" />
  <circle
     cy="22"
     cx="25"
     r="7"
     id="circle4525"
     style="opacity:0.2;fill:#000000;fill-opacity:1" />
  <circle
     style="opacity:1;fill:#ffb822;fill-opacity:1"
     id="circle12"
     r="7"
     cx="25"
     cy="21" />
  <circle
     cy="28"
     cx="33"
     r="7"
     id="circle4527"
     style="opacity:0.2;fill:#000000;fill-opacity:1" />
  <circle
     style="opacity:1;fill:#ff7c2d;fill-opacity:1"
     id="circle10"
     r="7"
     cx="33"
     cy="27" />
  <circle
     cy="27"
     cx="24"
     r="8"
     id="circle4529"
     style="opacity:0.2;fill:#000000;fill-opacity:1" />
  <circle
     style="opacity:1;fill:#ff972d;fill-opacity:1"
     id="circle8"
     r="8"
     cx="24"
     cy="26" />
  <path
     style="color:#000000;font-style:normal;font-variant:normal;font-weight:normal;font-stretch:normal;font-size:medium;line-height:normal;font-family:sans-serif;font-variant-ligatures:normal;font-variant-position:normal;font-variant-caps:normal;font-variant-numeric:normal;font-variant-alternates:normal;font-feature-settings:normal;text-indent:0;text-align:start;text-decoration:none;text-decoration-line:none;text-decoration-style:solid;text-decoration-color:#000000;letter-spacing:normal;word-spacing:normal;text-transform:none;writing-mode:lr-tb;direction:ltr;text-orientation:mixed;dominant-baseline:auto;baseline-shift:baseline;text-anchor:start;white-space:normal;shape-padding:0;clip-rule:nonzero;display:inline;overflow:visible;visibility:visible;opacity:0.2;isolation:auto;mix-blend-mode:normal;color-interpolation:sRGB;color-interpolation-filters:linearRGB;solid-color:#000000;solid-opacity:1;vector-effect:none;fill:#ffffff;fill-opacity:1;fill-rule:nonzero;stroke:none;stroke-width:10;stroke-linecap:butt;stroke-linejoin:miter;stroke-miterlimit:4;stroke-dasharray:none;stroke-dashoffset:0;stroke-opacity:1;color-rendering:auto;image-rendering:auto;shape-rendering:auto;text-rendering:auto;enable-background:accumulate"
     d="M 24.996094 9 C 22.441945 9.00195 20.040127 9.8943876 18.023438 11.351562 C 17.353853 11.210481 16.698348 11.000853 16.005859 11 L 16.003906 11 L 16 11 C 10.737147 11 6.433638 15.239126 6.1171875 20.431641 C 4.186459 22.448679 3.0005065 25.124038 3 28 C 3 28.169229 3.0175907 28.334445 3.0253906 28.501953 C 3.154564 25.817059 4.298966 23.331142 6.1171875 21.431641 C 6.433638 16.239126 10.737147 12 16 12 L 16.003906 12 L 16.005859 12 C 16.698348 12.000853 17.353853 12.210481 18.023438 12.351562 C 20.040127 10.894387 22.441945 10.002 24.996094 10 L 25.001953 10 L 25.005859 10 C 29.573315 10.005497 33.605072 12.651739 35.619141 16.535156 C 40.74457 17.73737 44.727057 22.071916 44.976562 27.466797 C 44.982748 27.310688 45 27.157474 45 27 C 45 21.35733 40.913411 16.776973 35.619141 15.535156 C 33.605072 11.651739 29.573315 9.0054965 25.005859 9 L 25.001953 9 L 24.996094 9 z "
     id="path4531" />
</svg>
