<?xml version="1.0" encoding="UTF-8" standalone="no"?>
<svg
   xmlns:dc="http://purl.org/dc/elements/1.1/"
   xmlns:cc="http://creativecommons.org/ns#"
   xmlns:rdf="http://www.w3.org/1999/02/22-rdf-syntax-ns#"
   xmlns:svg="http://www.w3.org/2000/svg"
   xmlns="http://www.w3.org/2000/svg"
   xmlns:xlink="http://www.w3.org/1999/xlink"
   xmlns:sodipodi="http://sodipodi.sourceforge.net/DTD/sodipodi-0.dtd"
   xmlns:inkscape="http://www.inkscape.org/namespaces/inkscape"
   height="48"
   width="48"
   version="1"
   id="svg20"
   sodipodi:docname="mediamonkey.svg"
   inkscape:version="0.92.1 r15371">
  <metadata
     id="metadata26">
    <rdf:RDF>
      <cc:Work
         rdf:about="">
        <dc:format>image/svg+xml</dc:format>
        <dc:type
           rdf:resource="http://purl.org/dc/dcmitype/StillImage" />
        <dc:title></dc:title>
      </cc:Work>
    </rdf:RDF>
  </metadata>
  <defs
     id="defs24">
    <linearGradient
       x1="167.98311"
       y1="8.50811"
       x2="167.98311"
       y2="54.780239"
       id="linearGradient5414"
       xlink:href="#linearGradient5803"
       gradientUnits="userSpaceOnUse"
       gradientTransform="matrix(0.70801035,0,0,0.71090703,-90.897626,-0.11035266)" />
    <linearGradient
       id="linearGradient5803">
      <stop
         id="stop5805"
         style="stop-color:#fff5ef;stop-opacity:1"
         offset="0" />
      <stop
         id="stop5807"
         style="stop-color:#fef8dd;stop-opacity:1"
         offset="1" />
    </linearGradient>
  </defs>
  <sodipodi:namedview
     pagecolor="#ffffff"
     bordercolor="#666666"
     borderopacity="1"
     objecttolerance="10"
     gridtolerance="10"
     guidetolerance="10"
     inkscape:pageopacity="0"
     inkscape:pageshadow="2"
     inkscape:window-width="1600"
     inkscape:window-height="822"
     id="namedview22"
     showgrid="false"
     inkscape:zoom="1"
     inkscape:cx="19.101505"
     inkscape:cy="22.902032"
     inkscape:window-x="0"
     inkscape:window-y="0"
     inkscape:window-maximized="1"
     inkscape:current-layer="svg20">
    <inkscape:grid
       type="xygrid"
       id="grid4500" />
  </sodipodi:namedview>
  <rect
     ry="20"
     rx="20"
     transform="matrix(0,-1,-1,0,0,0)"
     height="40"
     width="40"
     y="-44"
     x="-44"
     fill="#1da6e8"
     id="rect2"
     style="fill:#fbcf46;fill-opacity:1" />
  <path
     opacity=".2"
     fill="#fff"
     d="m24 4c-11.08 0-20 8.92-20 20 0 0.168 0.008 0.333 0.0117 0.5 0.2647-10.846 9.0763-19.5 19.988-19.5s19.724 8.6539 19.988 19.5c0.004-0.16686 0.0117-0.33213 0.0117-0.5 0-11.08-8.92-20-20-20z"
     id="path4"
     style="opacity:0.2" />
  <path
     opacity=".2"
     d="m4.0117 24.5c-0.0041 0.167-0.0117 0.332-0.0117 0.5 0 11.08 8.92 20 20 20s20-8.92 20-20c0-0.16787-0.0076-0.33314-0.01172-0.5-0.264 10.846-9.076 19.5-19.988 19.5s-19.724-8.654-19.988-19.5z"
     id="path18" />
  <path
     sodipodi:nodetypes="cssssscscsssscscsssscccccaaaascsssccsccsssssccccsssccscccccc"
     style="opacity:0.2;fill:#000000;fill-opacity:1;stroke-width:0.08705492"
     d="M 24.719217,42.795043 C 24.128639,42.551967 23.746432,42.490762 22.593659,41.441214 21.479508,40.426835 21.107758,40.162428 21.04,39.353625 c -0.08041,-0.9599 0.266091,-1.239823 1.532242,-2.550854 1.147343,-1.188005 1.608356,-1.470071 1.456157,-2.021663 -0.23265,-0.843167 -1.772762,-1.535922 -3.165839,-1.42402 -1.021177,0.08201 -1.375723,0.452722 -1.525842,1.595342 -0.04993,0.380019 -0.151406,1.157249 -0.225509,1.359931 -0.265554,0.726349 -1.226595,1.326193 -2.42773,1.515298 -0.287184,0.04522 -0.739898,0.119906 -1.006031,0.16598 -1.226708,0.212385 -2.339294,0.02166 -2.96962,-0.509095 -0.643648,-0.54196 -0.96768,-1.758782 -0.633812,-2.09287 0.154517,-0.154625 1.199125,-0.663383 1.805085,-0.879141 0.589919,-0.210042 0.895548,-0.646691 1.090366,-1.002719 0.151996,-0.277784 0.161194,-0.416719 0.103783,-1.56752 -0.08322,-1.668129 -0.06084,-2.052856 0.14264,-2.451979 0.230959,-0.453019 0.612535,-0.684907 1.994643,-1.212157 1.683645,-0.642276 2.649381,-1.010683 2.649381,-1.299666 0,-0.222505 -0.358407,-0.435424 -0.732954,-0.435424 -0.308605,0 -0.459463,0.05979 -0.761474,0.301748 C 17.260192,27.730361 16.099439,27.627645 13.923844,27.866 9.7249581,28.377035 6.0608606,28.138285 3.5836612,24.623577 2.2905576,22.468278 1.8398948,20.769466 2.0490025,18.665448 2.1178875,17.849928 2.5278029,16.664755 2.9528168,15.931732 4.1184442,13.852593 7,12 8.0208136,13.534269 c 0.086459,0.461203 -0.6395585,1.04393 -0.9044052,1.59464 -0.6649333,1.382631 -1.5965106,2.743233 -1.7098425,4.273253 -0.081331,1.098002 0.1148744,2.323091 0.7618301,3.213973 0.4688391,0.64561 1.2581374,1.107481 2.0439545,1.245729 3.3154655,0.583289 7.4167315,-0.351595 9.8997235,-1.997073 0.895833,-0.593666 0.903715,-0.760183 0.08807,-1.861391 C 17.099469,18.517361 16.838112,17.003126 17.418489,15.474671 18.172929,13.487807 20.522525,12 22.905804,12 c 2.123468,0 4.01177,1.06145 4.818892,2.70879 0.256213,0.522934 0.334107,0.811049 0.414478,1.533098 0.132161,1.187254 0.382646,1.806216 0.880372,1.671902 0.107586,-0.02905 0.671342,-0.434937 1.252789,-0.902007 1.327019,-1.065975 2.391425,-1.728428 3.533498,-2.199142 2.067242,-1.009931 4.84921,-0.950713 6.722652,-0.372432 1.691505,0.53171 3.169583,1.611335 4.125719,3.01353 0.392907,0.576206 0.922766,1.533418 1.088333,2.177155 0.491835,1.91233 0.264966,4.539521 -0.560583,6.197666 -0.417586,0.838728 -1.254639,1.87527 -1.675913,2.07531 -0.674065,0.320079 -1.510833,0.08276 -1.795226,-0.50916 -0.229034,-0.476683 0.120056,-1.777543 0.748859,-2.79058 1.22183,-1.795077 1.123562,-4.244305 -0.370406,-5.769015 -0.485204,-0.471884 -0.9758,-0.710987 -1.806744,-0.880556 -2.213772,-0.277968 -4.820232,0.708575 -6.514355,1.905481 -1.354596,0.974581 -4.289928,3.398489 -4.639103,4.052764 -0.233293,0.437137 -0.266161,1.153358 -0.137116,2.987988 0.177547,2.524158 0.09308,3.040836 -0.697016,4.263748 -0.573379,0.887483 -0.502647,1.036109 -0.343376,2.264521 0.0752,0.580061 0.135975,1.550709 0.135039,2.156994 -0.0015,1.069184 -0.18534,2.867642 -0.31512,3.085192 -0.231893,0.388729 -0.57923,0.723859 -1.032075,0.995817 -0.68001,0.637293 -0.700413,1.22006 -0.700677,1.770718 0,0.558644 -0.04299,1.139135 -0.09554,1.289971 -0.08386,0.240753 -0.134351,0.273996 -0.413368,0.272179 -0.174812,-0.0012 -0.539579,-0.09334 -0.810603,-0.204888 z"
     id="path4513"
     inkscape:connector-curvature="0" />
  <path
     inkscape:connector-curvature="0"
     id="path4504"
     d="M 24.719217,41.795043 C 24.128639,41.551967 23.746432,41.490762 22.593659,40.441214 21.479508,39.426835 21.107758,39.162428 21.04,38.353625 c -0.08041,-0.9599 0.266091,-1.239823 1.532242,-2.550854 1.147343,-1.188005 1.608356,-1.470071 1.456157,-2.021663 -0.23265,-0.843167 -1.772762,-1.535922 -3.165839,-1.42402 -1.021177,0.08201 -1.375723,0.452722 -1.525842,1.595342 -0.04993,0.380019 -0.151406,1.157249 -0.225509,1.359931 -0.265554,0.726349 -1.226595,1.326193 -2.42773,1.515298 -0.287184,0.04522 -0.739898,0.119906 -1.006031,0.16598 -1.226708,0.212385 -2.339294,0.02166 -2.96962,-0.509095 -0.643648,-0.54196 -0.96768,-1.758782 -0.633812,-2.09287 0.154517,-0.154625 1.199125,-0.663383 1.805085,-0.879141 0.589919,-0.210042 0.895548,-0.646691 1.090366,-1.002719 0.151996,-0.277784 0.161194,-0.416719 0.103783,-1.56752 -0.08322,-1.668129 -0.06084,-2.052856 0.14264,-2.451979 0.230959,-0.453019 0.612535,-0.684907 1.994643,-1.212157 1.683645,-0.642276 2.649381,-1.010683 2.649381,-1.299666 0,-0.222505 -0.358407,-0.435424 -0.732954,-0.435424 -0.308605,0 -0.459463,0.05979 -0.761474,0.301748 C 17.260192,26.730361 16.099439,26.627645 13.923844,26.866 9.7249581,27.377035 6.0608606,27.138285 3.5836612,23.623577 2.2905576,21.468278 1.8398948,19.769466 2.0490025,17.665448 2.1178875,16.849928 2.5278029,15.664755 2.9528168,14.931732 4.1184442,12.852593 7,11 8.0208136,12.534269 c 0.086459,0.461203 -0.6395585,1.04393 -0.9044052,1.59464 -0.6649333,1.382631 -1.5965106,2.743233 -1.7098425,4.273253 -0.081331,1.098002 0.1148744,2.323091 0.7618301,3.213973 0.4688391,0.64561 1.2581374,1.107481 2.0439545,1.245729 3.3154655,0.583289 7.4167315,-0.351595 9.8997235,-1.997073 0.895833,-0.593666 0.903715,-0.760183 0.08807,-1.861391 C 17.099469,17.517361 16.838112,16.003126 17.418489,14.474671 18.172929,12.487807 20.522525,11 22.905804,11 c 2.123468,0 4.01177,1.06145 4.818892,2.70879 0.256213,0.522934 0.334107,0.811049 0.414478,1.533098 0.132161,1.187254 0.382646,1.806216 0.880372,1.671902 0.107586,-0.02905 0.671342,-0.434937 1.252789,-0.902007 1.327019,-1.065975 2.391425,-1.728428 3.533498,-2.199142 2.067242,-1.009931 4.84921,-0.950713 6.722652,-0.372432 1.691505,0.53171 3.169583,1.611335 4.125719,3.01353 0.392907,0.576206 0.922766,1.533418 1.088333,2.177155 0.491835,1.91233 0.264966,4.539521 -0.560583,6.197666 -0.417586,0.838728 -1.254639,1.87527 -1.675913,2.07531 -0.674065,0.320079 -1.510833,0.08276 -1.795226,-0.50916 -0.229034,-0.476683 0.120056,-1.777543 0.748859,-2.79058 1.22183,-1.795077 1.123562,-4.244305 -0.370406,-5.769015 -0.485204,-0.471884 -0.9758,-0.710987 -1.806744,-0.880556 -2.213772,-0.277968 -4.820232,0.708575 -6.514355,1.905481 -1.354596,0.974581 -4.289928,3.398489 -4.639103,4.052764 -0.233293,0.437137 -0.266161,1.153358 -0.137116,2.987988 0.177547,2.524158 0.09308,3.040836 -0.697016,4.263748 -0.573379,0.887483 -0.502647,1.036109 -0.343376,2.264521 0.0752,0.580061 0.135975,1.550709 0.135039,2.156994 -0.0015,1.069184 -0.18534,2.867642 -0.31512,3.085192 -0.231893,0.388729 -0.57923,0.723859 -1.032075,0.995817 -0.68001,0.637293 -0.700413,1.22006 -0.700677,1.770718 0,0.558644 -0.04299,1.139135 -0.09554,1.289971 -0.08386,0.240753 -0.134351,0.273996 -0.413368,0.272179 -0.174812,-0.0012 -0.539579,-0.09334 -0.810603,-0.204888 z"
     style="fill:#585c5a;stroke-width:0.08705492;fill-opacity:1"
     sodipodi:nodetypes="cssssscscsssscscsssscccccaaaascsssccsccsssssccccsssccscccccc" />
</svg>
