<?xml version="1.0" encoding="UTF-8" standalone="no"?>
<svg
   xmlns:dc="http://purl.org/dc/elements/1.1/"
   xmlns:cc="http://creativecommons.org/ns#"
   xmlns:rdf="http://www.w3.org/1999/02/22-rdf-syntax-ns#"
   xmlns:svg="http://www.w3.org/2000/svg"
   xmlns="http://www.w3.org/2000/svg"
   xmlns:sodipodi="http://sodipodi.sourceforge.net/DTD/sodipodi-0.dtd"
   xmlns:inkscape="http://www.inkscape.org/namespaces/inkscape"
   height="48"
   width="48"
   version="1.1"
   id="svg25"
   sodipodi:docname="mttcross-player.svg"
   inkscape:version="0.92.1 r15371">
  <metadata
     id="metadata29">
    <rdf:RDF>
      <cc:Work
         rdf:about="">
        <dc:format>image/svg+xml</dc:format>
        <dc:type
           rdf:resource="http://purl.org/dc/dcmitype/StillImage" />
        <dc:title></dc:title>
      </cc:Work>
    </rdf:RDF>
  </metadata>
  <sodipodi:namedview
     pagecolor="#ffffff"
     bordercolor="#666666"
     borderopacity="1"
     objecttolerance="10"
     gridtolerance="10"
     guidetolerance="10"
     inkscape:pageopacity="0"
     inkscape:pageshadow="2"
     inkscape:window-width="1600"
     inkscape:window-height="822"
     id="namedview27"
     showgrid="false"
     inkscape:zoom="13.01"
     inkscape:cx="24"
     inkscape:cy="24"
     inkscape:window-x="0"
     inkscape:window-y="0"
     inkscape:window-maximized="1"
     inkscape:current-layer="svg25" />
  <defs
     id="defs7">
    <linearGradient
       id="linearGradient4282"
       y2="506.8"
       gradientUnits="userSpaceOnUse"
       y1="540.8"
       gradientTransform="matrix(.11765 0 0 .11765 -24.07 -85.62)"
       x2="409.57"
       x1="409.57">
      <stop
         stop-color="#2a2c2f"
         offset="0"
         id="stop2" />
      <stop
         stop-color="#424649"
         offset="1"
         id="stop4" />
    </linearGradient>
  </defs>
  <rect
     ry="20"
     height="40"
     width="40"
     y="4"
     x="4"
     fill="#5d5d5d"
     id="rect9" />
  <path
     opacity=".1"
     d="m12.89 7.35c-5.3674 3.579-8.8926 9.686-8.8926 16.648h16c0-1.621 0.96933-3.0084 2.3555-3.6367l-9.462-13.012z"
     fill="#fff"
     id="path11" />
  <path
     opacity=".1"
     d="m35.06 40.6c5.3674-3.5793 8.8926-9.6857 8.8926-16.648h-16c0 1.621-0.96933 3.0084-2.3555 3.6367l9.4629 13.012z"
     fill="#fff"
     id="path13" />
  <rect
     ry="7"
     height="14"
     width="14"
     y="17"
     x="17"
     fill="#fe9473"
     id="rect15"
     style="fill:#febc4c;fill-opacity:1" />
  <rect
     transform="scale(1,-1)"
     ry="2"
     height="4"
     width="4"
     y="-26"
     x="22"
     fill="url(#linearGradient4282)"
     id="rect17" />
  <path
     d="m24 18c-3.324 0-6 2.676-6 6s2.676 6 6 6 6-2.676 6-6-2.676-6-6-6zm0 1c2.77 0 5 2.23 5 5s-2.23 5-5 5-5-2.23-5-5 2.23-5 5-5z"
     fill="#fff"
     fill-opacity=".275"
     id="path19" />
  <path
     opacity=".1"
     d="m24 4c11.07 0 19.982 8.92 19.982 20 0 0.16787-0.008 0.33314-0.0117 0.5-0.264-10.846-9.068-19.5-19.97-19.5s-19.706 8.654-19.97 19.5c-0.0034-0.167-0.0111-0.332-0.0111-0.5 0-11.08 8.9118-20 19.982-20z"
     fill="#fff"
     id="path21" />
  <path
     opacity=".2"
     d="m4.0117 24.5c-0.004 0.167-0.0117 0.332-0.0117 0.5 0 11.08 8.92 20 20 20s20-8.92 20-20c0-0.168-0.008-0.333-0.012-0.5-0.264 10.847-9.076 19.5-19.988 19.5s-19.724-8.653-19.988-19.5z"
     id="path23" />
</svg>
