<?xml version="1.0" encoding="UTF-8" standalone="no"?>
<svg
   xmlns:dc="http://purl.org/dc/elements/1.1/"
   xmlns:cc="http://creativecommons.org/ns#"
   xmlns:rdf="http://www.w3.org/1999/02/22-rdf-syntax-ns#"
   xmlns:svg="http://www.w3.org/2000/svg"
   xmlns="http://www.w3.org/2000/svg"
   xmlns:sodipodi="http://sodipodi.sourceforge.net/DTD/sodipodi-0.dtd"
   xmlns:inkscape="http://www.inkscape.org/namespaces/inkscape"
   height="48"
   width="48"
   version="1"
   id="svg12"
   sodipodi:docname="musixmatch.svg"
   inkscape:version="0.92.1 r15371">
  <metadata
     id="metadata18">
    <rdf:RDF>
      <cc:Work
         rdf:about="">
        <dc:format>image/svg+xml</dc:format>
        <dc:type
           rdf:resource="http://purl.org/dc/dcmitype/StillImage" />
        <dc:title></dc:title>
      </cc:Work>
    </rdf:RDF>
  </metadata>
  <defs
     id="defs16" />
  <sodipodi:namedview
     pagecolor="#ffffff"
     bordercolor="#666666"
     borderopacity="1"
     objecttolerance="10"
     gridtolerance="10"
     guidetolerance="10"
     inkscape:pageopacity="0"
     inkscape:pageshadow="2"
     inkscape:window-width="1600"
     inkscape:window-height="822"
     id="namedview14"
     showgrid="false"
     inkscape:zoom="1"
     inkscape:cx="19.589037"
     inkscape:cy="24"
     inkscape:window-x="0"
     inkscape:window-y="0"
     inkscape:window-maximized="1"
     inkscape:current-layer="svg12" />
  <rect
     transform="matrix(0,-1,-1,0,0,0)"
     rx="20"
     ry="20"
     height="40"
     width="40"
     y="-44"
     x="-44"
     id="rect2"
     style="fill:#ef5c46;fill-opacity:1;stroke-width:1.00005007" />
  <path
     id="path4530"
     d="M 14.273438,15.000689 C 13.027439,14.970989 12.000309,15.967817 12,17.20772 v 7.792969 7.791016 c 0.002,1.697634 1.849502,2.757635 3.328125,1.910156 L 24,28.967486 32.671875,34.701861 C 34.150498,35.54934 35.998,34.489339 36,32.791705 V 25.000689 17.20772 c -3.09e-4,-1.239903 -1.027439,-2.236731 -2.273438,-2.207031 -0.371242,0.01045 -0.733813,0.114744 -1.054687,0.300781 L 24,21.033892 15.328125,15.30147 c -0.320874,-0.186037 -0.683444,-0.290334 -1.054687,-0.300781 z"
     style="opacity:0.2;fill:#000000;fill-opacity:1;stroke:none;stroke-width:5.27526188;stroke-linecap:round;stroke-linejoin:round;stroke-miterlimit:4;stroke-dasharray:none;stroke-dashoffset:0;stroke-opacity:1"
     inkscape:connector-curvature="0" />
  <path
     opacity=".2"
     d="m24 4c-11.079 0-19.998 8.92-19.998 20 0 0.16772-0.004 0.33329 0 0.5 0.2642-10.846 9.087-19.5 19.998-19.5s19.734 8.6536 19.998 19.5c0.004-0.16671 0-0.33228 0-0.5 0-11.08-8.919-20-19.998-20z"
     fill="#fff"
     id="path8"
     style="opacity:0.1" />
  <path
     opacity=".2"
     d="m4.0117 24.5c-0.0041 0.167-0.0117 0.332-0.0117 0.5 0 11.08 8.92 20 20 20s20-8.92 20-20c0-0.168-0.008-0.333-0.012-0.5-0.264 10.846-9.076 19.5-19.988 19.5s-19.724-8.654-19.988-19.5z"
     id="path10" />
  <path
     style="opacity:1;fill:#ffd9d8;fill-opacity:1;stroke:none;stroke-width:5.27526188;stroke-linecap:round;stroke-linejoin:round;stroke-miterlimit:4;stroke-dasharray:none;stroke-dashoffset:0;stroke-opacity:1"
     d="M 14.273438 14 C 13.027439 13.9703 12.000309 14.967128 12 16.207031 L 12 24 L 12 31.791016 C 12.002 33.48865 13.849502 34.548651 15.328125 33.701172 L 24 27.966797 L 32.671875 33.701172 C 34.150498 34.548651 35.998 33.48865 36 31.791016 L 36 24 L 36 16.207031 C 35.999691 14.967128 34.972561 13.9703 33.726562 14 C 33.35532 14.010447 32.992749 14.114744 32.671875 14.300781 L 24 20.033203 L 15.328125 14.300781 C 15.007251 14.114744 14.644681 14.010447 14.273438 14 z "
     id="path4514" />
  <path
     style="opacity:1;fill:#fec3c4;fill-opacity:1;stroke:none;stroke-width:4.78739929;stroke-linecap:round;stroke-linejoin:round;stroke-miterlimit:4;stroke-dasharray:none;stroke-dashoffset:0;stroke-opacity:1"
     d="M 23.974609 20.017578 L 18 24 L 12 28 L 12 31.791016 C 12.002 33.48865 13.849502 34.548651 15.328125 33.701172 L 24 27.966797 L 32.671875 33.701172 C 34.150498 34.548651 35.998 33.48865 36 31.791016 L 36 28 L 30 24 L 24.025391 20.017578 L 24 20.033203 L 23.974609 20.017578 z "
     id="path4512" />
  <path
     style="opacity:1;fill:#ffffff;fill-opacity:1;stroke:none;stroke-width:4.78739929;stroke-linecap:round;stroke-linejoin:round;stroke-miterlimit:4;stroke-dasharray:none;stroke-dashoffset:0;stroke-opacity:1"
     d="M 14.273438 14 C 13.027438 13.9703 12.000309 14.967128 12 16.207031 L 12 20 L 18 24 L 23.974609 27.982422 L 24 27.966797 L 24.025391 27.982422 L 30 24 L 36 20 L 36 16.207031 C 35.999691 14.967128 34.972561 13.9703 33.726562 14 C 33.35532 14.010447 32.992749 14.114744 32.671875 14.300781 L 24 20.033203 L 15.328125 14.300781 C 15.007251 14.114744 14.64468 14.010447 14.273438 14 z "
     id="path4517" />
  <rect
     style="opacity:1;fill:#ffd9d8;fill-opacity:1;stroke:none;stroke-width:4.38229036;stroke-linecap:round;stroke-linejoin:round;stroke-miterlimit:4;stroke-dasharray:none;stroke-dashoffset:0;stroke-opacity:1"
     id="rect4528"
     width="7.2111025"
     height="7.2111025"
     x="32.449963"
     y="3.6055522"
     transform="matrix(0.8320503,0.55470019,-0.8320503,0.55470019,0,0)" />
</svg>
