<?xml version="1.0" encoding="UTF-8" standalone="no"?>
<svg
   xmlns:dc="http://purl.org/dc/elements/1.1/"
   xmlns:cc="http://creativecommons.org/ns#"
   xmlns:rdf="http://www.w3.org/1999/02/22-rdf-syntax-ns#"
   xmlns:svg="http://www.w3.org/2000/svg"
   xmlns="http://www.w3.org/2000/svg"
   xmlns:sodipodi="http://sodipodi.sourceforge.net/DTD/sodipodi-0.dtd"
   xmlns:inkscape="http://www.inkscape.org/namespaces/inkscape"
   height="48"
   width="48"
   version="1"
   id="svg12"
   sodipodi:docname="musicplayer-mp3.svg"
   inkscape:version="0.92.1 r15371">
  <metadata
     id="metadata18">
    <rdf:RDF>
      <cc:Work
         rdf:about="">
        <dc:format>image/svg+xml</dc:format>
        <dc:type
           rdf:resource="http://purl.org/dc/dcmitype/StillImage" />
        <dc:title />
      </cc:Work>
    </rdf:RDF>
  </metadata>
  <defs
     id="defs16" />
  <sodipodi:namedview
     pagecolor="#ffffff"
     bordercolor="#666666"
     borderopacity="1"
     objecttolerance="10"
     gridtolerance="10"
     guidetolerance="10"
     inkscape:pageopacity="0"
     inkscape:pageshadow="2"
     inkscape:window-width="1600"
     inkscape:window-height="822"
     id="namedview14"
     showgrid="false"
     inkscape:zoom="1"
     inkscape:cx="-172.54043"
     inkscape:cy="24"
     inkscape:window-x="0"
     inkscape:window-y="0"
     inkscape:window-maximized="1"
     inkscape:current-layer="svg12" />
  <rect
     transform="matrix(0,-1,-1,0,0,0)"
     rx="20"
     ry="20"
     height="40"
     width="40"
     y="-44"
     x="-44"
     id="rect2"
     style="fill:#5d5d5d;fill-opacity:1;stroke-width:1.00005007" />
  <path
     style="opacity:0.2;fill:#000000;fill-opacity:1;stroke:none;stroke-width:2.06455207;stroke-linecap:round;stroke-linejoin:round;stroke-miterlimit:4;stroke-dasharray:none;stroke-dashoffset:0;stroke-opacity:1"
     d="M 26.212891 7.1621094 A 2 2 0 0 0 25 9 A 2 2 0 0 0 27 11 A 2 2 0 0 0 29 9 A 2 2 0 0 0 28.435547 7.609375 A 17 17 0 0 0 26.212891 7.1621094 z M 21.789062 7.1660156 A 17 17 0 0 0 19.583984 7.5898438 A 2 2 0 0 0 19 9 A 2 2 0 0 0 21 11 A 2 2 0 0 0 23 9 A 2 2 0 0 0 21.789062 7.1660156 z M 31.052734 8.5507812 A 2 2 0 0 0 31 9 A 2 2 0 0 0 33 11 A 2 2 0 0 0 34.310547 10.509766 A 17 17 0 0 0 31.052734 8.5507812 z M 12 12 A 2 2 0 0 0 11.972656 12.001953 A 17 17 0 0 0 10.027344 14.322266 A 2 2 0 0 0 12 16 A 2 2 0 0 0 14 14 A 2 2 0 0 0 12 12 z M 18 12 A 2 2 0 0 0 16 14 A 2 2 0 0 0 18 16 A 2 2 0 0 0 20 14 A 2 2 0 0 0 18 12 z M 24 12 A 2 2 0 0 0 22 14 A 2 2 0 0 0 24 16 A 2 2 0 0 0 26 14 A 2 2 0 0 0 24 12 z M 30 12 A 2 2 0 0 0 28 14 A 2 2 0 0 0 30 16 A 2 2 0 0 0 32 14 A 2 2 0 0 0 30 12 z M 36 12 A 2 2 0 0 0 34 14 A 2 2 0 0 0 36 16 A 2 2 0 0 0 37.96875 14.345703 A 17 17 0 0 0 36.029297 12.001953 A 2 2 0 0 0 36 12 z M 9 17 A 2 2 0 0 0 8.4921875 17.068359 A 17 17 0 0 0 7.4375 20.244141 A 2 2 0 0 0 9 21 A 2 2 0 0 0 11 19 A 2 2 0 0 0 9 17 z M 15 17 A 2 2 0 0 0 13 19 A 2 2 0 0 0 15 21 A 2 2 0 0 0 17 19 A 2 2 0 0 0 15 17 z M 21 17 A 2 2 0 0 0 19 19 A 2 2 0 0 0 21 21 A 2 2 0 0 0 23 19 A 2 2 0 0 0 21 17 z M 27 17 A 2 2 0 0 0 25 19 A 2 2 0 0 0 27 21 A 2 2 0 0 0 29 19 A 2 2 0 0 0 27 17 z M 33 17 A 2 2 0 0 0 31 19 A 2 2 0 0 0 33 21 A 2 2 0 0 0 35 19 A 2 2 0 0 0 33 17 z M 39 17 A 2 2 0 0 0 37 19 A 2 2 0 0 0 39 21 A 2 2 0 0 0 40.560547 20.251953 A 17 17 0 0 0 39.496094 17.064453 A 2 2 0 0 0 39 17 z M 12 22 A 2 2 0 0 0 10 24 A 2 2 0 0 0 12 26 A 2 2 0 0 0 14 24 A 2 2 0 0 0 12 22 z M 18 22 A 2 2 0 0 0 16 24 A 2 2 0 0 0 18 26 A 2 2 0 0 0 20 24 A 2 2 0 0 0 18 22 z M 24 22 A 2 2 0 0 0 22 24 A 2 2 0 0 0 24 26 A 2 2 0 0 0 26 24 A 2 2 0 0 0 24 22 z M 30 22 A 2 2 0 0 0 28 24 A 2 2 0 0 0 30 26 A 2 2 0 0 0 32 24 A 2 2 0 0 0 30 22 z M 36 22 A 2 2 0 0 0 34 24 A 2 2 0 0 0 36 26 A 2 2 0 0 0 38 24 A 2 2 0 0 0 36 22 z M 9 27 A 2 2 0 0 0 7.4394531 27.748047 A 17 17 0 0 0 8.5039062 30.935547 A 2 2 0 0 0 9 31 A 2 2 0 0 0 11 29 A 2 2 0 0 0 9 27 z M 15 27 A 2 2 0 0 0 13 29 A 2 2 0 0 0 15 31 A 2 2 0 0 0 17 29 A 2 2 0 0 0 15 27 z M 21 27 A 2 2 0 0 0 19 29 A 2 2 0 0 0 21 31 A 2 2 0 0 0 23 29 A 2 2 0 0 0 21 27 z M 27 27 A 2 2 0 0 0 25 29 A 2 2 0 0 0 27 31 A 2 2 0 0 0 29 29 A 2 2 0 0 0 27 27 z M 33 27 A 2 2 0 0 0 31 29 A 2 2 0 0 0 33 31 A 2 2 0 0 0 35 29 A 2 2 0 0 0 33 27 z M 39 27 A 2 2 0 0 0 37 29 A 2 2 0 0 0 39 31 A 2 2 0 0 0 39.507812 30.931641 A 17 17 0 0 0 40.5625 27.755859 A 2 2 0 0 0 39 27 z M 12 32 A 2 2 0 0 0 10.03125 33.654297 A 17 17 0 0 0 11.970703 35.998047 A 2 2 0 0 0 12 36 A 2 2 0 0 0 14 34 A 2 2 0 0 0 12 32 z M 18 32 A 2 2 0 0 0 16 34 A 2 2 0 0 0 18 36 A 2 2 0 0 0 20 34 A 2 2 0 0 0 18 32 z M 24 32 A 2 2 0 0 0 22 34 A 2 2 0 0 0 24 36 A 2 2 0 0 0 26 34 A 2 2 0 0 0 24 32 z M 30 32 A 2 2 0 0 0 28 34 A 2 2 0 0 0 30 36 A 2 2 0 0 0 32 34 A 2 2 0 0 0 30 32 z M 36 32 A 2 2 0 0 0 34 34 A 2 2 0 0 0 36 36 A 2 2 0 0 0 36.027344 35.998047 A 17 17 0 0 0 37.972656 33.677734 A 2 2 0 0 0 36 32 z M 15 37 A 2 2 0 0 0 13.689453 37.490234 A 17 17 0 0 0 16.947266 39.449219 A 2 2 0 0 0 17 39 A 2 2 0 0 0 15 37 z M 21 37 A 2 2 0 0 0 19 39 A 2 2 0 0 0 19.564453 40.390625 A 17 17 0 0 0 21.787109 40.837891 A 2 2 0 0 0 23 39 A 2 2 0 0 0 21 37 z M 27 37 A 2 2 0 0 0 25 39 A 2 2 0 0 0 26.210938 40.833984 A 17 17 0 0 0 28.416016 40.410156 A 2 2 0 0 0 29 39 A 2 2 0 0 0 27 37 z M 33 37 A 2 2 0 0 0 31 39 A 2 2 0 0 0 31.050781 39.445312 A 17 17 0 0 0 34.314453 37.496094 A 2 2 0 0 0 33 37 z "
     id="path4490" />
  <path
     opacity=".2"
     d="m24 4c-11.079 0-19.998 8.92-19.998 20 0 0.16772-0.004 0.33329 0 0.5 0.2642-10.846 9.087-19.5 19.998-19.5s19.734 8.6536 19.998 19.5c0.004-0.16671 0-0.33228 0-0.5 0-11.08-8.919-20-19.998-20z"
     fill="#fff"
     id="path8"
     style="opacity:0.1" />
  <path
     opacity=".2"
     d="m4.0117 24.5c-0.0041 0.167-0.0117 0.332-0.0117 0.5 0 11.08 8.92 20 20 20s20-8.92 20-20c0-0.168-0.008-0.333-0.012-0.5-0.264 10.846-9.076 19.5-19.988 19.5s-19.724-8.654-19.988-19.5z"
     id="path10" />
  <path
     id="path4488"
     d="M 24,8 C 14.582,8 7,15.582 7,25 7,34.418 14.582,42 24,42 33.418,42 41,34.418 41,25 41,15.582 33.418,8 24,8 Z m 0,3 c 7.756,0 14,6.244 14,14 0,7.756 -6.244,14 -14,14 -7.756,0 -14,-6.244 -14,-14 0,-7.756 6.244,-14 14,-14 z"
     style="opacity:0.2;fill:#000000;fill-opacity:1;stroke-width:0.85004258"
     inkscape:connector-curvature="0" />
  <path
     style="fill:#f35c5c;fill-opacity:1;stroke-width:0.85004258"
     d="M 24 7 C 14.582 7 7 14.582 7 24 C 7 33.418 14.582 41 24 41 C 33.418 41 41 33.418 41 24 C 41 14.582 33.418 7 24 7 z M 24 10 C 31.756 10 38 16.244 38 24 C 38 31.756 31.756 38 24 38 C 16.244 38 10 31.756 10 24 C 10 16.244 16.244 10 24 10 z "
     id="rect4506" />
  <path
     transform="matrix(1.0285801,0,0,1.0392393,-0.17894438,-0.35547027)"
     inkscape:transform-center-x="-1.9999989"
     d="m 31.284821,24.398106 -5.833285,3.367848 -5.833283,3.367848 0,-6.735697 0,-6.735695 5.833284,3.367848 z"
     inkscape:randomized="0"
     inkscape:rounded="0"
     inkscape:flatsided="false"
     sodipodi:arg2="1.0471976"
     sodipodi:arg1="0"
     sodipodi:r2="3.8888559"
     sodipodi:r1="7.7777119"
     sodipodi:cy="24.398106"
     sodipodi:cx="23.507109"
     sodipodi:sides="3"
     id="path4489"
     style="opacity:0.2;fill:#000000;fill-opacity:1;stroke:none;stroke-width:4;stroke-linecap:round;stroke-linejoin:round;stroke-miterlimit:4;stroke-dasharray:none;stroke-dashoffset:0;stroke-opacity:1"
     sodipodi:type="star" />
  <path
     sodipodi:type="star"
     style="opacity:1;fill:#feefef;fill-opacity:1;stroke:none;stroke-width:4;stroke-linecap:round;stroke-linejoin:round;stroke-miterlimit:4;stroke-dasharray:none;stroke-dashoffset:0;stroke-opacity:1"
     id="path4487"
     sodipodi:sides="3"
     sodipodi:cx="23.507109"
     sodipodi:cy="24.398106"
     sodipodi:r1="7.7777119"
     sodipodi:r2="3.8888559"
     sodipodi:arg1="0"
     sodipodi:arg2="1.0471976"
     inkscape:flatsided="false"
     inkscape:rounded="0"
     inkscape:randomized="0"
     d="m 31.284821,24.398106 -5.833285,3.367848 -5.833283,3.367848 0,-6.735697 0,-6.735695 5.833284,3.367848 z"
     inkscape:transform-center-x="-1.9999989"
     transform="matrix(1.0285801,0,0,1.0392393,-0.17894438,-1.3554702)" />
</svg>
