<?xml version="1.0" encoding="UTF-8" standalone="no"?>
<svg
   xmlns:dc="http://purl.org/dc/elements/1.1/"
   xmlns:cc="http://creativecommons.org/ns#"
   xmlns:rdf="http://www.w3.org/1999/02/22-rdf-syntax-ns#"
   xmlns:svg="http://www.w3.org/2000/svg"
   xmlns="http://www.w3.org/2000/svg"
   xmlns:sodipodi="http://sodipodi.sourceforge.net/DTD/sodipodi-0.dtd"
   xmlns:inkscape="http://www.inkscape.org/namespaces/inkscape"
   height="48"
   width="48"
   version="1"
   id="svg12"
   sodipodi:docname="music-player-go.svg"
   inkscape:version="0.92.1 r15371">
  <metadata
     id="metadata18">
    <rdf:RDF>
      <cc:Work
         rdf:about="">
        <dc:format>image/svg+xml</dc:format>
        <dc:type
           rdf:resource="http://purl.org/dc/dcmitype/StillImage" />
        <dc:title></dc:title>
      </cc:Work>
    </rdf:RDF>
  </metadata>
  <defs
     id="defs16" />
  <sodipodi:namedview
     pagecolor="#ffffff"
     bordercolor="#666666"
     borderopacity="1"
     objecttolerance="10"
     gridtolerance="10"
     guidetolerance="10"
     inkscape:pageopacity="0"
     inkscape:pageshadow="2"
     inkscape:window-width="1600"
     inkscape:window-height="822"
     id="namedview14"
     showgrid="false"
     inkscape:zoom="11.42"
     inkscape:cx="27.832476"
     inkscape:cy="20.028252"
     inkscape:window-x="0"
     inkscape:window-y="0"
     inkscape:window-maximized="1"
     inkscape:current-layer="svg12" />
  <rect
     transform="matrix(0,-1,-1,0,0,0)"
     rx="20"
     ry="20"
     height="40"
     width="40"
     y="-44"
     x="-44"
     id="rect2"
     style="fill:#57af30;fill-opacity:1;stroke-width:1.00005007" />
  <path
     opacity=".2"
     d="m24 4c-11.079 0-19.998 8.92-19.998 20 0 0.16772-0.004 0.33329 0 0.5 0.2642-10.846 9.087-19.5 19.998-19.5s19.734 8.6536 19.998 19.5c0.004-0.16671 0-0.33228 0-0.5 0-11.08-8.919-20-19.998-20z"
     fill="#fff"
     id="path8"
     style="opacity:0.1" />
  <path
     opacity=".2"
     d="m4.0117 24.5c-0.0041 0.167-0.0117 0.332-0.0117 0.5 0 11.08 8.92 20 20 20s20-8.92 20-20c0-0.168-0.008-0.333-0.012-0.5-0.264 10.846-9.076 19.5-19.988 19.5s-19.724-8.654-19.988-19.5z"
     id="path10" />
  <path
     style="opacity:1;fill:#a1ec7d;fill-opacity:1;stroke:none;stroke-width:1;stroke-linecap:round;stroke-linejoin:round;stroke-miterlimit:4;stroke-dasharray:none;stroke-dashoffset:0;stroke-opacity:1"
     d="M 10.113281,31 C 8.2668943,31.090415 6.9261994,31.677148 5.7363281,32.152344 8.7484867,39.371252 15.664185,44 24,44 32.423949,44 39.586927,38.837378 42.542969,31.496094 41.866117,31.156795 41.136052,30.964802 40.359375,31 36.359629,31.181261 34.579896,37.167381 26.697266,37 18.814637,36.832619 14.790296,30.770973 10.113281,31 Z"
     id="path4500"
     inkscape:connector-curvature="0"
     sodipodi:nodetypes="scscsss" />
  <path
     style="opacity:1;fill:#78d54b;fill-opacity:1;stroke:none;stroke-width:1;stroke-linecap:round;stroke-linejoin:round;stroke-miterlimit:4;stroke-dasharray:none;stroke-dashoffset:0;stroke-opacity:1"
     d="m 40.359375,31 c -3.759126,0.170357 -5.560024,5.466995 -12.306641,5.964844 1.458538,0.594329 3.010564,0.999548 4.6875,1.035156 3.133382,0.06654 5.557459,-1.07189 7.601563,-2.472656 0.877873,-1.246745 1.623066,-2.595533 2.201172,-4.03125 C 41.866117,31.156795 41.136052,30.964802 40.359375,31 Z"
     id="path4517"
     inkscape:connector-curvature="0"
     sodipodi:nodetypes="scsccs" />
  <path
     style="opacity:1;fill:#79e649;fill-opacity:1;stroke:none;stroke-width:1;stroke-linecap:round;stroke-linejoin:round;stroke-miterlimit:4;stroke-dasharray:none;stroke-dashoffset:0;stroke-opacity:1"
     d="M 14.929688,30 C 12.308217,30.12837 8.5420264,30.741194 5.7363281,32.152344 6.9261994,31.677148 8.2668945,31.090415 10.113281,31 c 4.677015,-0.229027 8.701356,5.832619 16.583985,6 0.47421,0.01007 0.92362,-0.0033 1.355468,-0.03516 C 22.655248,34.76546 18.611723,29.819696 14.929688,30 Z"
     id="path4506"
     inkscape:connector-curvature="0"
     sodipodi:nodetypes="scsscs" />
  <path
     style="opacity:0.1;fill:#ffffff;fill-opacity:1;stroke:none;stroke-width:1;stroke-linecap:round;stroke-linejoin:round;stroke-miterlimit:4;stroke-dasharray:none;stroke-dashoffset:0;stroke-opacity:1"
     d="M 10.113281 31 C 8.2668945 31.090415 6.9261994 31.677148 5.7363281 32.152344 C 5.8566784 32.440774 5.992345 32.718017 6.125 32.998047 C 7.2218097 32.557769 8.4607112 32.080924 10.113281 32 C 14.790296 31.770973 18.814637 37.832619 26.697266 38 C 34.579896 38.167381 36.359629 32.181261 40.359375 32 C 40.995998 31.971149 41.599568 32.099591 42.169922 32.332031 C 42.296747 32.054631 42.428573 31.780193 42.542969 31.496094 C 41.866117 31.156795 41.136052 30.964802 40.359375 31 C 36.359629 31.181261 34.579896 37.167381 26.697266 37 C 18.814637 36.832619 14.790296 30.770973 10.113281 31 z "
     id="path4529" />
  <path
     inkscape:connector-curvature="0"
     id="path4523"
     d="M 19.020083,16.00057 A 1.9728211,1.987466 0 0 0 17,17.986974 v 7.013934 7.013933 a 1.9728211,1.987466 0 0 0 2.957674,1.719793 l 6.03184,-3.504038 6.028994,-3.509899 a 1.9728211,1.987466 0 0 0 0,-3.43665 l -6.028994,-3.509898 -6.03184,-3.504036 A 1.9728211,1.987466 0 0 0 19.020083,16.00057 Z"
     style="opacity:0.2;fill:#000000;fill-opacity:1;stroke:none;stroke-width:4.71872568;stroke-linecap:round;stroke-linejoin:round;stroke-miterlimit:4;stroke-dasharray:none;stroke-dashoffset:0;stroke-opacity:1" />
  <path
     style="opacity:1;fill:#ffffff;fill-opacity:1;stroke:none;stroke-width:4.71872568;stroke-linecap:round;stroke-linejoin:round;stroke-miterlimit:4;stroke-dasharray:none;stroke-dashoffset:0;stroke-opacity:1"
     d="M 19.020083,15.00057 A 1.9728211,1.987466 0 0 0 17,16.986974 v 7.013934 7.013933 a 1.9728211,1.987466 0 0 0 2.957674,1.719793 l 6.03184,-3.504038 6.028994,-3.509899 a 1.9728211,1.987466 0 0 0 0,-3.43665 l -6.028994,-3.509898 -6.03184,-3.504036 A 1.9728211,1.987466 0 0 0 19.020083,15.00057 Z"
     id="path4514"
     inkscape:connector-curvature="0" />
</svg>
