<?xml version="1.0" encoding="UTF-8" standalone="no"?>
<svg
   xmlns:dc="http://purl.org/dc/elements/1.1/"
   xmlns:cc="http://creativecommons.org/ns#"
   xmlns:rdf="http://www.w3.org/1999/02/22-rdf-syntax-ns#"
   xmlns:svg="http://www.w3.org/2000/svg"
   xmlns="http://www.w3.org/2000/svg"
   xmlns:sodipodi="http://sodipodi.sourceforge.net/DTD/sodipodi-0.dtd"
   xmlns:inkscape="http://www.inkscape.org/namespaces/inkscape"
   height="48"
   width="48"
   version="1"
   id="svg12"
   sodipodi:docname="mvideoplayer.svg"
   inkscape:version="0.92.1 r15371">
  <metadata
     id="metadata18">
    <rdf:RDF>
      <cc:Work
         rdf:about="">
        <dc:format>image/svg+xml</dc:format>
        <dc:type
           rdf:resource="http://purl.org/dc/dcmitype/StillImage" />
        <dc:title></dc:title>
      </cc:Work>
    </rdf:RDF>
  </metadata>
  <defs
     id="defs16" />
  <sodipodi:namedview
     pagecolor="#ffffff"
     bordercolor="#666666"
     borderopacity="1"
     objecttolerance="10"
     gridtolerance="10"
     guidetolerance="10"
     inkscape:pageopacity="0"
     inkscape:pageshadow="2"
     inkscape:window-width="1600"
     inkscape:window-height="822"
     id="namedview14"
     showgrid="false"
     inkscape:zoom="9.28"
     inkscape:cx="40.531374"
     inkscape:cy="27.660096"
     inkscape:window-x="0"
     inkscape:window-y="0"
     inkscape:window-maximized="1"
     inkscape:current-layer="svg12" />
  <path
     style="fill:#3eb5ea;fill-opacity:1;stroke-width:1.00005007"
     d="m 19,4.75 c -0.274743,3.775e-4 -0.548132,0.038494 -0.8125,0.1132812 -0.02925,0.00779 -0.04892,0.0061 -0.08008,0.015625 C 9.9216324,7.382309 4,14.973063 4,24 c 0,11.08 8.92,20 20,20 11.08,0 20,-8.92 20,-20 0,-0.80429 -0.05195,-1.595577 -0.146484,-2.373047 -0.0026,-0.02514 -0.0026,-0.0512 -0.0059,-0.07617 -7.86e-4,-0.006 -0.0031,-0.01155 -0.0039,-0.01758 -0.0016,-0.0129 -0.0023,-0.02617 -0.0039,-0.03906 -0.0087,-0.0681 -0.0296,-0.112299 -0.04297,-0.171875 -0.286932,-1.357678 -1.480744,-2.38086 -2.923828,-2.38086 -1.656854,0 -3,1.343146 -3,3 0,0.121555 0.0055,0.241603 0.01953,0.359375 0.0011,0.0094 0.0047,0.01797 0.0059,0.02734 7e-4,0.0069 -8.42e-4,0.01256 0,0.01953 0.06604,0.547738 -2.485576,1.099478 -2.484645,1.652344 0,7.731986 -4.005083,11.306034 -11.737069,11.306034 -7.731986,0 -9.689655,-3.358531 -9.689655,-11.090517 0.0065,-6.242733 0.13817,-11.846594 5.960197,-13.602236 0.106469,-0.03211 0.179349,-0.07101 0.240234,-0.111328 C 21.286475,10.028252 21.998797,8.9467189 22,7.75 c 0,-1.6568542 -1.343146,-3 -3,-3 z"
     id="rect2"
     inkscape:connector-curvature="0"
     sodipodi:nodetypes="cccssscccccssccccscsccc" />
  <circle
     r="14"
     cy="25"
     cx="24"
     id="circle4520"
     style="opacity:0.2;vector-effect:none;fill:#000000;fill-opacity:1;stroke:none;stroke-width:4.37946653;stroke-linecap:butt;stroke-linejoin:miter;stroke-miterlimit:4;stroke-dasharray:none;stroke-dashoffset:0;stroke-opacity:1" />
  <circle
     style="opacity:1;vector-effect:none;fill:#545454;fill-opacity:1;stroke:none;stroke-width:4.37946653;stroke-linecap:butt;stroke-linejoin:miter;stroke-miterlimit:4;stroke-dasharray:none;stroke-dashoffset:0;stroke-opacity:1"
     id="path4518"
     cx="24"
     cy="24"
     r="14" />
  <path
     opacity=".2"
     d="m4.0117 24.5c-0.0041 0.167-0.0117 0.332-0.0117 0.5 0 11.08 8.92 20 20 20s20-8.92 20-20c0-0.168-0.008-0.333-0.012-0.5-0.264 10.846-9.076 19.5-19.988 19.5s-19.724-8.654-19.988-19.5z"
     id="path10" />
  <path
     inkscape:connector-curvature="0"
     id="path4497"
     d="M 26.525105,3.0006974 A 2.4660264,2.4291252 0 0 0 24,5.4285236 v 8.5725864 8.572587 a 2.4660264,2.4291252 0 0 0 3.697093,2.101967 l 7.5398,-4.282713 7.536242,-4.289876 a 2.4660264,2.4291252 0 0 0 0,-4.200351 L 35.236893,7.6128494 27.697093,3.3301377 A 2.4660264,2.4291252 0 0 0 26.525105,3.0006974 Z"
     style="opacity:0.2;fill:#000000;fill-opacity:1;stroke:none;stroke-width:5.83250141;stroke-linecap:round;stroke-linejoin:round;stroke-miterlimit:4;stroke-dasharray:none;stroke-dashoffset:0;stroke-opacity:1" />
  <path
     style="opacity:1;fill:#fdfdfd;fill-opacity:1;stroke:none;stroke-width:5.83250141;stroke-linecap:round;stroke-linejoin:round;stroke-miterlimit:4;stroke-dasharray:none;stroke-dashoffset:0;stroke-opacity:1"
     d="M 26.525105,2.0006975 A 2.4660264,2.4291252 0 0 0 24,4.4285237 v 8.5725863 8.572587 a 2.4660264,2.4291252 0 0 0 3.697093,2.101967 l 7.5398,-4.282713 7.536242,-4.289876 a 2.4660264,2.4291252 0 0 0 0,-4.200351 L 35.236893,6.6128495 27.697093,2.3301378 A 2.4660264,2.4291252 0 0 0 26.525105,2.0006975 Z"
     id="path4514"
     inkscape:connector-curvature="0" />
  <path
     style="opacity:0.1;fill:#ffffff;fill-opacity:1;stroke-width:1.00005007"
     d="m 19,4.75 c -0.274743,3.775e-4 -0.548132,0.038494 -0.8125,0.1132812 -0.02925,0.00779 -0.04892,0.0061 -0.08008,0.015625 C 9.9216323,7.382309 4,14.973063 4,24 c 0,0.209195 0.00931,0.415437 0.015625,0.623047 0.1634535,-8.859498 6.021095,-16.2759339 14.091797,-18.7441408 0.03116,-0.00953 0.05083,-0.00784 0.08008,-0.015625 C 18.451868,5.7884941 18.725257,5.7503775 19,5.75 c 1.489832,0 2.717081,1.0881646 2.951172,2.5117188 C 21.980293,8.0944464 21.999825,7.9236261 22,7.75 c 0,-1.6568542 -1.343146,-3 -3,-3 z m 21.873047,14.191406 c -1.656854,0 -3,1.343146 -3,3 0,0.121555 0.0055,0.241603 0.01953,0.359375 0.0011,0.0094 0.0047,0.01797 0.0059,0.02734 7e-4,0.0069 -8.42e-4,0.01256 0,0.01953 0.0084,0.06994 0.0063,0.140875 0.01367,0.210938 0.189637,-1.474283 1.435055,-2.617188 2.960938,-2.617188 1.443084,0 2.636896,1.023182 2.923828,2.38086 0.01337,0.05958 0.03427,0.103775 0.04297,0.171875 0.0016,0.01289 0.0023,0.02616 0.0039,0.03906 8e-4,0.006 0.0031,0.01158 0.0039,0.01758 0.0033,0.02497 0.0033,0.05103 0.0059,0.07617 0.07703,0.633518 0.117398,1.278262 0.132812,1.929688 C 43.991372,24.371006 44,24.186896 44,24 c 0,-0.80429 -0.05195,-1.595577 -0.146484,-2.373047 -0.0026,-0.02514 -0.0026,-0.0512 -0.0059,-0.07617 -7.86e-4,-0.006 -0.0031,-0.01155 -0.0039,-0.01758 -0.0016,-0.0129 -0.0023,-0.02617 -0.0039,-0.03906 -0.0087,-0.0681 -0.0296,-0.112299 -0.04297,-0.171875 -0.286932,-1.357678 -1.480744,-2.38086 -2.923828,-2.38086 z"
     id="path4533"
     inkscape:connector-curvature="0"
     sodipodi:nodetypes="cccscccccccssccccsccccccscccccs" />
</svg>
