<?xml version="1.0" encoding="UTF-8" standalone="no"?>
<svg
   xmlns:dc="http://purl.org/dc/elements/1.1/"
   xmlns:cc="http://creativecommons.org/ns#"
   xmlns:rdf="http://www.w3.org/1999/02/22-rdf-syntax-ns#"
   xmlns:svg="http://www.w3.org/2000/svg"
   xmlns="http://www.w3.org/2000/svg"
   xmlns:sodipodi="http://sodipodi.sourceforge.net/DTD/sodipodi-0.dtd"
   xmlns:inkscape="http://www.inkscape.org/namespaces/inkscape"
   height="48"
   width="48"
   version="1"
   id="svg12"
   sodipodi:docname="next-browser.svg"
   inkscape:version="0.92.1 r15371">
  <metadata
     id="metadata18">
    <rdf:RDF>
      <cc:Work
         rdf:about="">
        <dc:format>image/svg+xml</dc:format>
        <dc:type
           rdf:resource="http://purl.org/dc/dcmitype/StillImage" />
        <dc:title></dc:title>
      </cc:Work>
    </rdf:RDF>
  </metadata>
  <defs
     id="defs16" />
  <sodipodi:namedview
     pagecolor="#ffffff"
     bordercolor="#666666"
     borderopacity="1"
     objecttolerance="10"
     gridtolerance="10"
     guidetolerance="10"
     inkscape:pageopacity="0"
     inkscape:pageshadow="2"
     inkscape:window-width="1600"
     inkscape:window-height="822"
     id="namedview14"
     showgrid="true"
     inkscape:zoom="9.28"
     inkscape:cx="20.796114"
     inkscape:cy="24.486132"
     inkscape:window-x="0"
     inkscape:window-y="0"
     inkscape:window-maximized="1"
     inkscape:current-layer="svg12">
    <inkscape:grid
       type="xygrid"
       id="grid4566" />
  </sodipodi:namedview>
  <path
     style="opacity:0.2;fill:#000000;fill-opacity:1;stroke-width:0.85004252"
     d="m 7,5 v 23 c 0,0.558222 0.032751,1.090323 0.082031,1.609375 0.006,0.06322 0.016717,0.122892 0.023438,0.185547 0.01226,0.09883 0.023096,0.197929 0.035156,0.296875 0.0018,0.01443 0.00406,0.02855 0.00586,0.04297 0.03536,0.271763 0.0741,0.54178 0.1230468,0.802734 0.0134,0.07891 0.020416,0.159809 0.035156,0.238281 0.03535,0.188346 0.07571,0.374485 0.1171875,0.560547 0.07518,0.337185 0.1610864,0.670817 0.2558594,1 0.0481,0.167033 0.093469,0.335153 0.1464844,0.5 0.127944,0.397856 0.2719693,0.787586 0.4277343,1.171875 0.03553,0.08767 0.06462,0.178697 0.1015625,0.265625 0.200042,0.470629 0.4220524,0.929452 0.6621094,1.376953 0.05664,0.105595 0.1208935,0.206317 0.1796875,0.310547 0.190076,0.336941 0.3896555,0.668202 0.6015625,0.990234 0.0925,0.140575 0.1886262,0.278418 0.285156,0.416016 0.196597,0.280231 0.40051,0.554898 0.613281,0.822266 0.109003,0.136961 0.218923,0.272802 0.332032,0.40625 0.233008,0.274914 0.476733,0.539433 0.726562,0.798828 0.09799,0.101751 0.192473,0.207366 0.292969,0.30664 0.357252,0.352863 0.725854,0.69351 1.113281,1.013672 0.0408,0.03372 0.08583,0.06236 0.126953,0.0957 0.347322,0.281596 0.706818,0.54885 1.076172,0.802734 0.130173,0.08948 0.265659,0.171905 0.398438,0.257812 0.299541,0.19378 0.60378,0.381612 0.916015,0.556641 0.145025,0.0813 0.291814,0.159199 0.439454,0.236328 0.311357,0.16265 0.628727,0.315419 0.951171,0.458985 0.152567,0.06793 0.304058,0.137639 0.458985,0.201171 0.382945,0.15703 0.773384,0.298379 1.169922,0.427735 0.09326,0.03042 0.183374,0.06685 0.277343,0.0957 C 20.561826,44.735373 22.248848,45 24,45 c 2.3545,0 4.593688,-0.474063 6.628906,-1.332031 0.106447,-0.04487 0.207731,-0.09904 0.310547,-0.150391 0.05313,-0.02207 0.114372,-0.03492 0.166016,-0.05859 0.03659,-0.01677 0.07098,-0.03767 0.107422,-0.05469 0.0634,0.0109 0.15206,0.03125 0.183593,0.03125 0,0 -0.07496,-0.05351 -0.101562,-0.07227 C 37.040622,40.641588 41,34.802389 41,28 41,18.582 33.418,11 24,11 22.727386,11 21.490218,11.141595 20.298828,11.404297 17.189232,7.5005952 12.401277,5 7,5 Z"
     id="path4577"
     inkscape:connector-curvature="0" />
  <path
     transform="matrix(0,-1,-1,0,0,0)"
     style="opacity:1;fill:#fe6e3f;fill-opacity:1;stroke-width:0.85004252"
     d="m -27,-41 c 9.418,0 17,7.582 17,17 0,1.320968 -0.149159,2.605816 -0.431623,3.83869 -0.429651,1.875301 -1.771989,3.031615 -2.754,4.063113 -2.975278,3.125212 -7.632791,3.18548 -13.720524,3.18548 -9.418,0 -16.1084,-0.589978 -16.1084,-10.007978 0,-2.539858 -0.434029,-6.025494 0.55612,-8.185597 C -39.777024,-36.956024 -33.878141,-41 -27,-41 Z"
     id="rect2"
     inkscape:connector-curvature="0"
     sodipodi:nodetypes="ssssssss" />
  <rect
     style="opacity:0.2;fill:#000000;fill-opacity:1;stroke-width:0.55002755"
     id="rect4516"
     x="-38"
     y="-35"
     width="22"
     height="22"
     ry="11"
     rx="11"
     transform="matrix(0,-1,-1,0,0,0)" />
  <rect
     style="opacity:0.2;fill:#000000;fill-opacity:1;stroke-width:0.25001252"
     id="rect4520"
     x="-33"
     y="-29"
     width="10"
     height="10"
     ry="5"
     rx="5"
     transform="matrix(0,-1,-1,0,0,0)" />
  <rect
     transform="matrix(0,-1,-1,0,0,0)"
     rx="5"
     ry="5"
     height="10"
     width="10"
     y="-29"
     x="-32"
     id="rect4518"
     style="opacity:1;fill:#ffffff;fill-opacity:1;stroke-width:0.25001252" />
  <path
     inkscape:connector-curvature="0"
     style="opacity:0.2;fill:#fcfef8;fill-opacity:1;stroke-width:0.85004252"
     d="M 24,10 C 14.582,10 7,17.582 7,27 7,27.168936 7.02055,27.332279 7.02539,27.5 7.2907,18.317436 14.750936,11 24,11 33.249064,11 40.7093,18.317436 40.974609,27.5 40.979455,27.332279 41,27.168936 41,27 41,17.582 33.418,10 24,10 Z"
     id="rect4522" />
  <path
     inkscape:connector-curvature="0"
     style="opacity:1;vector-effect:none;fill:#b4d946;fill-opacity:1;stroke:none;stroke-width:1.90687966;stroke-linecap:round;stroke-linejoin:round;stroke-miterlimit:4;stroke-dasharray:none;stroke-dashoffset:0;stroke-opacity:1"
     d="m 7,4 v 23 c 0,0.558222 0.03275,1.090323 0.08203,1.609375 0.006,0.06322 0.01672,0.122892 0.02344,0.185547 0.01226,0.09883 0.0231,0.197929 0.03516,0.296875 0.0018,0.01443 0.0041,0.02855 0.0059,0.04297 0.03536,0.271763 0.0741,0.54178 0.123047,0.802734 0.0134,0.07891 0.02042,0.159809 0.03516,0.238281 0.03535,0.188346 0.07571,0.374485 0.117187,0.560547 0.07518,0.337185 0.161086,0.670817 0.255859,1 0.0481,0.167033 0.09347,0.335153 0.146485,0.5 0.127944,0.397856 0.271969,0.787586 0.427734,1.171875 0.03553,0.08767 0.06462,0.178697 0.101563,0.265625 0.200042,0.470629 0.422052,0.929452 0.662109,1.376953 0.05664,0.105595 0.120893,0.206317 0.179687,0.310547 0.190076,0.336941 0.389656,0.668201 0.601563,0.990234 0.0925,0.140575 0.188626,0.278418 0.285156,0.416016 0.196597,0.280231 0.40051,0.554898 0.613281,0.822266 0.109003,0.136961 0.218923,0.272802 0.332032,0.40625 0.233008,0.274914 0.476733,0.539433 0.726562,0.798828 0.09799,0.101751 0.192473,0.207366 0.292969,0.30664 0.357252,0.352863 0.725854,0.69351 1.113281,1.013672 0.0408,0.03372 0.08583,0.06236 0.126953,0.0957 0.347322,0.281596 0.706818,0.54885 1.076172,0.802734 0.130173,0.08948 0.265659,0.171905 0.398438,0.257812 0.299541,0.19378 0.60378,0.381612 0.916015,0.556641 0.145025,0.0813 0.291814,0.159199 0.439454,0.236328 0.311358,0.16265 0.628727,0.315419 0.951171,0.458985 0.152567,0.06793 0.304058,0.137639 0.458985,0.201171 0.382945,0.15703 0.773384,0.298379 1.169922,0.427735 0.09326,0.03042 0.183374,0.06685 0.277343,0.0957 C 20.561875,43.735367 22.248848,44 24,44 c 2.3545,0 4.593688,-0.474063 6.628906,-1.332031 0.189991,-0.08009 0.370578,-0.176939 0.554688,-0.267578 0.06113,0.0085 0.176355,0.03516 0.21289,0.03516 0,0 -0.104541,-0.07478 -0.115234,-0.08203 C 28.640883,40.421047 25.722311,38.353517 24.142578,35.339802 23.441965,33.69743 22.971991,31.908921 23,30.078137 23.046974,27.007678 24,23.818311 24,21 c 0,-0.548323 -0.03148,-1.088507 -0.08203,-1.623047 -0.01722,-0.183113 -0.04738,-0.361626 -0.07031,-0.542969 -0.04383,-0.344624 -0.09021,-0.6877 -0.154297,-1.02539 -0.04337,-0.229818 -0.09793,-0.455249 -0.15039,-0.681641 -0.06303,-0.270594 -0.129321,-0.53932 -0.205078,-0.804687 -0.07366,-0.259322 -0.152833,-0.515494 -0.238282,-0.769532 C 23.026823,15.33735 22.948255,15.125433 22.867188,14.914062 22.762044,14.638727 22.653954,14.36582 22.535156,14.097656 22.459354,13.927171 22.376101,13.7612 22.294922,13.59375 22.153401,13.300864 22.012991,13.007742 21.855469,12.724609 21.421258,11.944151 20.9225,11.205877 20.375,10.507812 c -0.02474,-0.03154 -0.04536,-0.0663 -0.07031,-0.09766 -6.19e-4,1.37e-4 -0.0013,-1.36e-4 -0.002,0 C 17.19321,6.5033121 12.403803,4 7,4 Z"
     id="rect4499"
     sodipodi:nodetypes="cscccccccccccccccccccccccccccccscccccsscccccccccscccc" />
  <path
     style="opacity:0.2;vector-effect:none;fill:#fcfef8;fill-opacity:1;stroke:none;stroke-width:1.90687966;stroke-linecap:round;stroke-linejoin:round;stroke-miterlimit:4;stroke-dasharray:none;stroke-dashoffset:0;stroke-opacity:1"
     d="M 7 4 L 7 5 C 12.403803 5 17.193254 7.5033164 20.302734 11.410156 C 20.302734 11.410156 20.304688 11.410156 20.304688 11.410156 C 20.329637 11.441516 20.35026 11.476273 20.375 11.507812 C 20.9225 12.205877 21.421258 12.944151 21.855469 13.724609 C 22.012991 14.007742 22.153401 14.300864 22.294922 14.59375 C 22.376101 14.7612 22.459354 14.927171 22.535156 15.097656 C 22.653954 15.36582 22.762044 15.638727 22.867188 15.914062 C 22.948254 16.125433 23.026819 16.33735 23.099609 16.552734 C 23.185058 16.806772 23.264231 17.062944 23.337891 17.322266 C 23.413648 17.587633 23.479939 17.856359 23.542969 18.126953 C 23.595429 18.353345 23.649989 18.578776 23.693359 18.808594 C 23.757446 19.146284 23.803826 19.48936 23.847656 19.833984 C 23.870586 20.015327 23.900749 20.19384 23.917969 20.376953 C 23.955136 20.769982 23.9669 21.170189 23.978516 21.570312 C 23.986366 21.380158 24 21.18703 24 21 C 24 20.451677 23.968519 19.911493 23.917969 19.376953 C 23.900749 19.19384 23.870586 19.015327 23.847656 18.833984 C 23.803826 18.48936 23.757446 18.146284 23.693359 17.808594 C 23.649989 17.578776 23.595429 17.353345 23.542969 17.126953 C 23.479939 16.856359 23.413648 16.587633 23.337891 16.322266 C 23.264231 16.062944 23.185058 15.806772 23.099609 15.552734 C 23.026819 15.33735 22.948254 15.125433 22.867188 14.914062 C 22.762044 14.638727 22.653954 14.36582 22.535156 14.097656 C 22.459354 13.927171 22.376101 13.7612 22.294922 13.59375 C 22.153401 13.300864 22.012991 13.007742 21.855469 12.724609 C 21.421258 11.944151 20.9225 11.205877 20.375 10.507812 C 20.35026 10.476273 20.329637 10.441516 20.304688 10.410156 C 20.304688 10.410156 20.302734 10.410156 20.302734 10.410156 C 17.193254 6.5033164 12.403803 4 7 4 z M 23.025391 30.572266 C 23.017706 30.740822 23.002569 30.910199 23 31.078125 C 22.971991 32.908909 23.441965 34.697472 24.142578 36.339844 C 25.558178 39.040436 28.045069 40.969689 30.447266 42.734375 C 30.506768 42.710087 30.569746 42.692908 30.628906 42.667969 C 30.818897 42.587879 30.999484 42.49103 31.183594 42.400391 C 31.244724 42.408891 31.359949 42.435547 31.396484 42.435547 C 31.396484 42.435547 31.291943 42.360766 31.28125 42.353516 C 28.640883 40.421042 25.722311 38.353559 24.142578 35.339844 C 23.505456 33.846306 23.08 32.229398 23.025391 30.572266 z "
     id="path4582" />
</svg>
