<?xml version="1.0" encoding="UTF-8" standalone="no"?>
<svg
   xmlns:dc="http://purl.org/dc/elements/1.1/"
   xmlns:cc="http://creativecommons.org/ns#"
   xmlns:rdf="http://www.w3.org/1999/02/22-rdf-syntax-ns#"
   xmlns:svg="http://www.w3.org/2000/svg"
   xmlns="http://www.w3.org/2000/svg"
   xmlns:sodipodi="http://sodipodi.sourceforge.net/DTD/sodipodi-0.dtd"
   xmlns:inkscape="http://www.inkscape.org/namespaces/inkscape"
   height="48"
   width="48"
   version="1"
   id="svg20"
   sodipodi:docname="ok.svg"
   inkscape:version="0.92.1 r15371">
  <metadata
     id="metadata26">
    <rdf:RDF>
      <cc:Work
         rdf:about="">
        <dc:format>image/svg+xml</dc:format>
        <dc:type
           rdf:resource="http://purl.org/dc/dcmitype/StillImage" />
        <dc:title></dc:title>
      </cc:Work>
    </rdf:RDF>
  </metadata>
  <defs
     id="defs24" />
  <sodipodi:namedview
     pagecolor="#ffffff"
     bordercolor="#666666"
     borderopacity="1"
     objecttolerance="10"
     gridtolerance="10"
     guidetolerance="10"
     inkscape:pageopacity="0"
     inkscape:pageshadow="2"
     inkscape:window-width="1600"
     inkscape:window-height="827"
     id="namedview22"
     showgrid="false"
     inkscape:zoom="8.0800657"
     inkscape:cx="25.329175"
     inkscape:cy="24"
     inkscape:window-x="0"
     inkscape:window-y="0"
     inkscape:window-maximized="1"
     inkscape:current-layer="svg20" />
  <path
     style="color:#000000;font-style:normal;font-variant:normal;font-weight:normal;font-stretch:normal;font-size:medium;line-height:normal;font-family:sans-serif;font-variant-ligatures:normal;font-variant-position:normal;font-variant-caps:normal;font-variant-numeric:normal;font-variant-alternates:normal;font-feature-settings:normal;text-indent:0;text-align:start;text-decoration:none;text-decoration-line:none;text-decoration-style:solid;text-decoration-color:#000000;letter-spacing:normal;word-spacing:normal;text-transform:none;writing-mode:lr-tb;direction:ltr;text-orientation:mixed;dominant-baseline:auto;baseline-shift:baseline;text-anchor:start;white-space:normal;shape-padding:0;clip-rule:nonzero;display:inline;overflow:visible;visibility:visible;opacity:0.2;isolation:auto;mix-blend-mode:normal;color-interpolation:sRGB;color-interpolation-filters:linearRGB;solid-color:#000000;solid-opacity:1;vector-effect:none;fill:#000000;fill-opacity:1;fill-rule:nonzero;stroke:none;stroke-width:6;stroke-linecap:round;stroke-linejoin:round;stroke-miterlimit:4;stroke-dasharray:none;stroke-dashoffset:0;stroke-opacity:1;color-rendering:auto;image-rendering:auto;shape-rendering:auto;text-rendering:auto;enable-background:accumulate"
     d="m 15.914062,24.983944 a 3.0003,3.0003 0 0 0 -1,5.8125 c 0,0 1.385183,0.539137 3.144532,1.074219 0.694036,0.211081 1.444366,0.422024 2.216797,0.611328 l -6.396485,6.396484 a 3.0003,3.0003 0 1 0 4.242188,4.242188 L 24,37.241757 l 5.878906,5.878906 a 3.0003,3.0003 0 1 0 4.242188,-4.242188 l -6.396485,-6.396484 c 0.772431,-0.189304 1.522761,-0.400247 2.216797,-0.611328 1.759349,-0.535082 3.144532,-1.074219 3.144532,-1.074219 a 3.0003,3.0003 0 1 0 -2.171876,-5.59375 c 0,0 -1.190099,0.460863 -2.71875,0.925781 -1.528649,0.464918 -3.473558,0.871094 -4.195312,0.871094 -0.721754,0 -2.666663,-0.406176 -4.195312,-0.871094 -1.528651,-0.464918 -2.71875,-0.925781 -2.71875,-0.925781 a 3.0003,3.0003 0 0 0 -1.171876,-0.21875 z"
     id="path4531"
     inkscape:connector-curvature="0" />
  <circle
     r="10"
     cy="15"
     cx="24"
     id="circle4522"
     style="opacity:0.2;fill:#090400;fill-opacity:1;stroke:none;stroke-width:1.99752617;stroke-linecap:round;stroke-linejoin:round;stroke-miterlimit:4;stroke-dasharray:none;stroke-dashoffset:0;stroke-opacity:1" />
  <circle
     style="opacity:1;fill:#f58220;fill-opacity:1;stroke:none;stroke-width:1.99752617;stroke-linecap:round;stroke-linejoin:round;stroke-miterlimit:4;stroke-dasharray:none;stroke-dashoffset:0;stroke-opacity:1"
     id="path4514"
     cx="24"
     cy="14"
     r="10" />
  <path
     style="fill:none;stroke:#ffc732;stroke-width:6;stroke-linecap:round;stroke-linejoin:round;stroke-miterlimit:4;stroke-dasharray:none;stroke-opacity:1"
     d="m 16,27 c 0,0 5.151999,2 8,2 2.848001,0 8,-2 8,-2"
     id="path4516"
     inkscape:connector-curvature="0"
     sodipodi:nodetypes="czc" />
  <path
     style="fill:none;stroke:#ffc732;stroke-width:6;stroke-linecap:round;stroke-linejoin:round;stroke-miterlimit:4;stroke-dasharray:none;stroke-opacity:1"
     d="m 16,40 8,-8 8,8"
     id="path4518"
     inkscape:connector-curvature="0"
     sodipodi:nodetypes="ccc" />
  <circle
     style="opacity:0.2;fill:#090400;fill-opacity:1;stroke:none;stroke-width:0.79901046;stroke-linecap:round;stroke-linejoin:round;stroke-miterlimit:4;stroke-dasharray:none;stroke-dashoffset:0;stroke-opacity:1"
     id="circle4524"
     cx="24"
     cy="15"
     r="4" />
  <circle
     r="4"
     cy="14"
     cx="24"
     id="circle4520"
     style="opacity:1;fill:#ffffff;fill-opacity:1;stroke:none;stroke-width:0.79901046;stroke-linecap:round;stroke-linejoin:round;stroke-miterlimit:4;stroke-dasharray:none;stroke-dashoffset:0;stroke-opacity:1" />
  <path
     style="opacity:0.1;fill:#ffffff;fill-opacity:1;stroke:none;stroke-width:1.99752617;stroke-linecap:round;stroke-linejoin:round;stroke-miterlimit:4;stroke-dasharray:none;stroke-dashoffset:0;stroke-opacity:1"
     d="M 24 4 A 10 10 0 0 0 14 14 A 10 10 0 0 0 14.021484 14.585938 A 10 10 0 0 1 24 5 A 10 10 0 0 1 33.978516 14.414062 A 10 10 0 0 0 34 14 A 10 10 0 0 0 24 4 z "
     id="circle4526" />
  <path
     style="color:#000000;font-style:normal;font-variant:normal;font-weight:normal;font-stretch:normal;font-size:medium;line-height:normal;font-family:sans-serif;font-variant-ligatures:normal;font-variant-position:normal;font-variant-caps:normal;font-variant-numeric:normal;font-variant-alternates:normal;font-feature-settings:normal;text-indent:0;text-align:start;text-decoration:none;text-decoration-line:none;text-decoration-style:solid;text-decoration-color:#000000;letter-spacing:normal;word-spacing:normal;text-transform:none;writing-mode:lr-tb;direction:ltr;text-orientation:mixed;dominant-baseline:auto;baseline-shift:baseline;text-anchor:start;white-space:normal;shape-padding:0;clip-rule:nonzero;display:inline;overflow:visible;visibility:visible;opacity:0.1;isolation:auto;mix-blend-mode:normal;color-interpolation:sRGB;color-interpolation-filters:linearRGB;solid-color:#000000;solid-opacity:1;vector-effect:none;fill:#ffffff;fill-opacity:1;fill-rule:nonzero;stroke:none;stroke-width:6;stroke-linecap:round;stroke-linejoin:round;stroke-miterlimit:4;stroke-dasharray:none;stroke-dashoffset:0;stroke-opacity:1;color-rendering:auto;image-rendering:auto;shape-rendering:auto;text-rendering:auto;enable-background:accumulate"
     d="M 15.914062 23.984375 A 3.0003 3.0003 0 0 0 13.001953 27.478516 A 3.0003 3.0003 0 0 1 15.914062 24.984375 A 3.0003 3.0003 0 0 1 17.085938 25.203125 C 17.085938 25.203125 18.276037 25.663988 19.804688 26.128906 C 21.333336 26.593824 23.278246 27 24 27 C 24.721754 27 26.666663 26.593824 28.195312 26.128906 C 29.723963 25.663988 30.914062 25.203125 30.914062 25.203125 A 3.0003 3.0003 0 0 1 34.960938 27.496094 A 3.0003 3.0003 0 0 0 30.914062 24.203125 C 30.914062 24.203125 29.723963 24.663988 28.195312 25.128906 C 26.666663 25.593824 24.721754 26 24 26 C 23.278246 26 21.333337 25.593824 19.804688 25.128906 C 18.276037 24.663988 17.085938 24.203125 17.085938 24.203125 A 3.0003 3.0003 0 0 0 15.914062 23.984375 z M 19.492188 32.265625 L 13.878906 37.878906 A 3.0003 3.0003 0 0 0 13.001953 40.541016 A 3.0003 3.0003 0 0 1 13.878906 38.878906 L 20.275391 32.482422 C 20.002415 32.415522 19.758133 32.336981 19.492188 32.265625 z M 28.507812 32.265625 C 28.241867 32.336981 27.997585 32.415522 27.724609 32.482422 L 34.121094 38.878906 A 3.0003 3.0003 0 0 1 35 40.546875 A 3.0003 3.0003 0 0 0 34.121094 37.878906 L 28.507812 32.265625 z "
     id="path4540" />
</svg>
