<?xml version="1.0" encoding="UTF-8" standalone="no"?>
<svg
   xmlns:dc="http://purl.org/dc/elements/1.1/"
   xmlns:cc="http://creativecommons.org/ns#"
   xmlns:rdf="http://www.w3.org/1999/02/22-rdf-syntax-ns#"
   xmlns:svg="http://www.w3.org/2000/svg"
   xmlns="http://www.w3.org/2000/svg"
   xmlns:sodipodi="http://sodipodi.sourceforge.net/DTD/sodipodi-0.dtd"
   xmlns:inkscape="http://www.inkscape.org/namespaces/inkscape"
   height="48"
   width="48"
   version="1"
   id="svg17"
   sodipodi:docname="opera-mini.svg"
   inkscape:version="0.92.1 r15371">
  <metadata
     id="metadata21">
    <rdf:RDF>
      <cc:Work
         rdf:about="">
        <dc:format>image/svg+xml</dc:format>
        <dc:type
           rdf:resource="http://purl.org/dc/dcmitype/StillImage" />
        <dc:title></dc:title>
      </cc:Work>
    </rdf:RDF>
  </metadata>
  <sodipodi:namedview
     pagecolor="#ffffff"
     bordercolor="#666666"
     borderopacity="1"
     objecttolerance="10"
     gridtolerance="10"
     guidetolerance="10"
     inkscape:pageopacity="0"
     inkscape:pageshadow="2"
     inkscape:window-width="1600"
     inkscape:window-height="822"
     id="namedview19"
     showgrid="false"
     inkscape:zoom="10.57"
     inkscape:cx="24"
     inkscape:cy="12.647114"
     inkscape:window-x="0"
     inkscape:window-y="0"
     inkscape:window-maximized="1"
     inkscape:current-layer="svg17" />
  <defs
     id="defs5">
    <clipPath
       id="clipPath4186"
       clipPathUnits="userSpaceOnUse">
      <circle
         cx="286"
         cy="26"
         r="10"
         fill="url(#linearGradient4190)"
         id="circle2" />
    </clipPath>
  </defs>
  <path
     fill="#e74c3c"
     d="m24 4a20 20 0 0 0 -20 20 20 20 0 0 0 20 20 20 20 0 0 0 20 -20 20 20 0 0 0 -20 -20zm0 8a9 12 0 0 1 9 12 9 12 0 0 1 -9 12 9 12 0 0 1 -9 -12 9 12 0 0 1 9 -12z"
     id="path7" />
  <circle
     opacity="0"
     style="color:#000000"
     clip-path="url(#clipPath4186)"
     r="10"
     transform="matrix(2,0,0,2,-548,-28)"
     cy="26"
     cx="286"
     stroke-width=".455"
     id="circle9" />
  <circle
     opacity="0"
     style="color:#000000"
     clip-path="url(#clipPath4186)"
     r="10"
     transform="matrix(2,0,0,2,-548,-28)"
     cy="26"
     cx="286"
     stroke-width=".909"
     id="circle11" />
  <path
     opacity=".2"
     fill="#fff"
     d="m24 4a20 20 0 0 0 -20 20 20 20 0 0 0 0.0215 0.418 20 20 0 0 1 19.978 -19.418 20 20 0 0 1 19.979 19.582 20 20 0 0 0 0.021 -0.582 20 20 0 0 0 -20 -20zm8.984 20.424a9 12 0 0 1 -8.984 11.576 9 12 0 0 1 -8.984 -11.424 9 12 0 0 0 -0.016 0.424 9 12 0 0 0 9 12 9 12 0 0 0 9 -12 9 12 0 0 0 -0.016 -0.576z"
     id="path13" />
  <path
     opacity=".2"
     style="color:#000000"
     d="m24 12a9 12 0 0 0 -9 12 9 12 0 0 0 0.01563 0.57617 9 12 0 0 1 8.984 -11.576 9 12 0 0 1 8.984 11.424 9 12 0 0 0 0.016 -0.424 9 12 0 0 0 -9 -12zm-19.978 12.418a20 20 0 0 0 -0.0215 0.582 20 20 0 0 0 20 20 20 20 0 0 0 20 -20 20 20 0 0 0 -0.021 -0.418 20 20 0 0 1 -19.98 19.418 20 20 0 0 1 -19.978 -19.582z"
     id="path15" />
  <circle
     style="opacity:0.2;enable-background:new"
     cx="36"
     cy="37"
     r="11"
     id="circle12" />
  <circle
     style="fill:#439f46;enable-background:new;fill-opacity:1"
     cx="36"
     cy="36"
     r="11"
     id="circle14" />
  <path
     inkscape:connector-curvature="0"
     d="M 40.512216,41.5 V 30.479242 m -8.999433,0 4.499717,5.999622 4.499716,-5.999622 M 31.512783,41.5 V 30.479242"
     style="fill:none;stroke:#ffffff;stroke-width:2.99981093;stroke-linecap:round;stroke-linejoin:round"
     id="path180"
     sodipodi:nodetypes="ccccccc" />
</svg>
