<?xml version="1.0" encoding="UTF-8" standalone="no"?>
<svg
   xmlns:dc="http://purl.org/dc/elements/1.1/"
   xmlns:cc="http://creativecommons.org/ns#"
   xmlns:rdf="http://www.w3.org/1999/02/22-rdf-syntax-ns#"
   xmlns:svg="http://www.w3.org/2000/svg"
   xmlns="http://www.w3.org/2000/svg"
   xmlns:sodipodi="http://sodipodi.sourceforge.net/DTD/sodipodi-0.dtd"
   xmlns:inkscape="http://www.inkscape.org/namespaces/inkscape"
   height="48"
   width="48"
   version="1"
   id="svg18"
   sodipodi:docname="orfox.svg"
   inkscape:version="0.92.1 r15371">
  <metadata
     id="metadata24">
    <rdf:RDF>
      <cc:Work
         rdf:about="">
        <dc:format>image/svg+xml</dc:format>
        <dc:type
           rdf:resource="http://purl.org/dc/dcmitype/StillImage" />
        <dc:title></dc:title>
      </cc:Work>
    </rdf:RDF>
  </metadata>
  <defs
     id="defs22" />
  <sodipodi:namedview
     pagecolor="#ffffff"
     bordercolor="#666666"
     borderopacity="1"
     objecttolerance="10"
     gridtolerance="10"
     guidetolerance="10"
     inkscape:pageopacity="0"
     inkscape:pageshadow="2"
     inkscape:window-width="1600"
     inkscape:window-height="822"
     id="namedview20"
     showgrid="false"
     inkscape:zoom="6.1300268"
     inkscape:cx="12.875332"
     inkscape:cy="26.539577"
     inkscape:window-x="0"
     inkscape:window-y="0"
     inkscape:window-maximized="1"
     inkscape:current-layer="svg18">
    <inkscape:grid
       type="xygrid"
       id="grid4522" />
  </sodipodi:namedview>
  <path
     sodipodi:nodetypes="cssscccscscccssscccscscccscscccscsccscscscccscc"
     inkscape:connector-curvature="0"
     id="path4547"
     d="M 11.782832,5.0000999 C 10.67783,4.9935669 9.1005501,5.3196099 7.8404972,6.2814779 6.5804442,7.2433459 5.9043207,8.5466699 5.5659985,9.5845424 4.889354,11.660287 4.9742121,13.26063 5.0510177,15.471849 c 0.1136509,3.272021 1.0179978,5.664147 2.0384658,7.580836 0.046959,0.299939 0.1292054,0.353988 0.1072879,0.54107 -0.267657,1.739543 -0.236371,3.387474 -0.037063,5.502503 0.1132116,1.201212 0.2406398,2.320388 0.774422,3.640989 0.5337821,1.320601 1.63146,2.61263 2.5417426,3.320644 0.940678,0.731664 2.081776,1.501993 3.210827,2.201391 0.564526,0.349699 1.10481,0.668652 1.663935,0.959081 0.0223,0.01158 0.0518,0.02365 0.07413,0.03516 0.07265,0.290218 0.06476,0.517203 0.179464,0.84774 0.335959,0.968092 1.088333,2.119718 1.874608,2.814735 0.786275,0.695017 1.413548,0.990196 1.860953,1.218872 0.34556,0.17662 0.642326,0.345386 1.281601,0.562556 0.319637,0.108585 0.721629,0.256218 1.517633,0.298859 0.44406,0.02378 1.123085,-0.06559 1.860953,-0.298859 0.737868,0.233276 1.416893,0.322645 1.860953,0.298859 0.796004,-0.04265 1.197996,-0.190274 1.517633,-0.298859 0.639275,-0.21717 0.936041,-0.385936 1.281601,-0.562556 0.447406,-0.228677 1.074678,-0.523854 1.860953,-1.218872 0.786275,-0.695018 1.538649,-1.846643 1.874608,-2.814735 0.114707,-0.330537 0.106812,-0.557522 0.179464,-0.84774 0.02232,-0.0115 0.05183,-0.02357 0.07413,-0.03516 0.559125,-0.290428 1.099409,-0.609382 1.663935,-0.959081 1.12905,-0.699397 2.27015,-1.469729 3.210827,-2.201391 0.910282,-0.708014 2.007961,-2.000043 2.541743,-3.320644 0.533781,-1.320601 0.66121,-2.439777 0.774421,-3.640989 0.199315,-2.115033 0.230593,-3.762959 -0.03706,-5.502503 -0.04608,-0.174668 0.07093,-0.357572 0.107335,-0.541076 1.02047,-1.916691 1.924814,-4.308815 2.038465,-7.580836 0.0768,-2.211219 0.161664,-3.811563 -0.514981,-5.8873066 C 42.095623,8.5466701 41.4195,7.2433463 40.159447,6.2814779 38.899393,5.3196095 37.322115,4.9935659 36.217112,5.0000999 h -0.002 c -2.224328,0.013998 -3.556282,0.7878446 -4.824044,1.5450763 -1.267762,0.7572315 -2.430253,1.6617945 -3.604866,2.6701887 -0.950782,0.8162331 -1.839513,1.4460621 -2.890916,2.5940091 -0.299966,0.32751 -0.555294,0.781118 -0.830991,1.189572 -0.01925,4.1e-5 -0.04502,-0.002 -0.06437,-0.002 -0.01936,0 -0.04512,0.002 -0.06437,0.002 C 23.659861,12.590492 23.404533,12.136884 23.104567,11.809374 22.053205,10.661427 21.164474,10.031598 20.213692,9.2153649 19.039079,8.2069708 17.876588,7.3024077 16.608826,6.5451762 15.341065,5.7879446 14.009108,5.0140997 11.784782,5.0000999 Z"
     style="color:#000000;font-style:normal;font-variant:normal;font-weight:normal;font-stretch:normal;font-size:medium;line-height:normal;font-family:sans-serif;font-variant-ligatures:normal;font-variant-position:normal;font-variant-caps:normal;font-variant-numeric:normal;font-variant-alternates:normal;font-feature-settings:normal;text-indent:0;text-align:start;text-decoration:none;text-decoration-line:none;text-decoration-style:solid;text-decoration-color:#000000;letter-spacing:normal;word-spacing:normal;text-transform:none;writing-mode:lr-tb;direction:ltr;text-orientation:mixed;dominant-baseline:auto;baseline-shift:baseline;text-anchor:start;white-space:normal;shape-padding:0;clip-rule:nonzero;display:inline;overflow:visible;visibility:visible;opacity:0.2;isolation:auto;mix-blend-mode:normal;color-interpolation:sRGB;color-interpolation-filters:linearRGB;solid-color:#000000;solid-opacity:1;vector-effect:none;fill:#000000;fill-opacity:1;fill-rule:nonzero;stroke:none;stroke-width:9.99425125;stroke-linecap:butt;stroke-linejoin:miter;stroke-miterlimit:4;stroke-dasharray:none;stroke-dashoffset:0;stroke-opacity:1;color-rendering:auto;image-rendering:auto;shape-rendering:auto;text-rendering:auto;enable-background:accumulate" />
  <path
     style="color:#000000;font-style:normal;font-variant:normal;font-weight:normal;font-stretch:normal;font-size:medium;line-height:normal;font-family:sans-serif;font-variant-ligatures:normal;font-variant-position:normal;font-variant-caps:normal;font-variant-numeric:normal;font-variant-alternates:normal;font-feature-settings:normal;text-indent:0;text-align:start;text-decoration:none;text-decoration-line:none;text-decoration-style:solid;text-decoration-color:#000000;letter-spacing:normal;word-spacing:normal;text-transform:none;writing-mode:lr-tb;direction:ltr;text-orientation:mixed;dominant-baseline:auto;baseline-shift:baseline;text-anchor:start;white-space:normal;shape-padding:0;clip-rule:nonzero;display:inline;overflow:visible;visibility:visible;opacity:1;isolation:auto;mix-blend-mode:normal;color-interpolation:sRGB;color-interpolation-filters:linearRGB;solid-color:#000000;solid-opacity:1;vector-effect:none;fill:#4f3663;fill-opacity:1;fill-rule:nonzero;stroke:none;stroke-width:9.99425125;stroke-linecap:butt;stroke-linejoin:miter;stroke-miterlimit:4;stroke-dasharray:none;stroke-dashoffset:0;stroke-opacity:1;color-rendering:auto;image-rendering:auto;shape-rendering:auto;text-rendering:auto;enable-background:accumulate"
     d="M 11.782832,4.0000979 C 10.67783,3.9935649 9.1005501,4.3196079 7.8404972,5.2814759 6.5804442,6.2433439 5.9043207,7.5466679 5.5659985,8.5845404 4.889354,10.660285 4.9742121,12.260628 5.0510177,14.471847 c 0.1136509,3.272021 1.0179978,5.664147 2.0384658,7.580836 0.046959,0.299939 0.1292054,0.353988 0.1072879,0.54107 -0.267657,1.739543 -0.236371,3.387474 -0.037063,5.502503 0.1132116,1.201212 0.2406398,2.320388 0.774422,3.640989 0.5337821,1.320601 1.63146,2.61263 2.5417426,3.320644 0.940678,0.731664 2.081776,1.501993 3.210827,2.201391 0.564526,0.349699 1.10481,0.668652 1.663935,0.959081 0.0223,0.01158 0.0518,0.02365 0.07413,0.03516 0.07265,0.290218 0.06476,0.517203 0.179464,0.84774 0.335959,0.968092 1.088333,2.119718 1.874608,2.814735 0.786275,0.695017 1.413548,0.990196 1.860953,1.218872 0.34556,0.17662 0.642326,0.345386 1.281601,0.562556 0.319637,0.108585 0.721629,0.256218 1.517633,0.298859 0.44406,0.02378 1.123085,-0.06559 1.860953,-0.298859 0.737868,0.233276 1.416893,0.322645 1.860953,0.298859 0.796004,-0.04265 1.197996,-0.190274 1.517633,-0.298859 0.639275,-0.21717 0.936041,-0.385936 1.281601,-0.562556 0.447406,-0.228677 1.074678,-0.523854 1.860953,-1.218872 0.786275,-0.695018 1.538649,-1.846643 1.874608,-2.814735 0.114707,-0.330537 0.106812,-0.557522 0.179464,-0.84774 0.02232,-0.0115 0.05183,-0.02357 0.07413,-0.03516 0.559125,-0.290428 1.099409,-0.609382 1.663935,-0.959081 1.12905,-0.699397 2.27015,-1.469729 3.210827,-2.201391 0.910282,-0.708014 2.007961,-2.000043 2.541743,-3.320644 0.533781,-1.320601 0.66121,-2.439777 0.774421,-3.640989 0.199315,-2.115033 0.230593,-3.762959 -0.03706,-5.502503 -0.04608,-0.174668 0.07093,-0.357572 0.107335,-0.541076 1.02047,-1.916691 1.924814,-4.308815 2.038465,-7.580836 0.0768,-2.211219 0.161664,-3.811563 -0.514981,-5.8873066 C 42.095623,7.5466681 41.4195,6.2433443 40.159447,5.2814759 38.899393,4.3196075 37.322115,3.9935639 36.217112,4.0000979 h -0.002 c -2.224328,0.013998 -3.556282,0.7878446 -4.824044,1.5450763 -1.267762,0.7572315 -2.430253,1.6617945 -3.604866,2.6701887 -0.950782,0.8162334 -1.839513,1.446062 -2.890916,2.5940091 -0.299966,0.32751 -0.555294,0.781118 -0.830991,1.189572 -0.01925,4.1e-5 -0.04502,-0.002 -0.06437,-0.002 -0.01936,0 -0.04512,0.002 -0.06437,0.002 C 23.659861,11.59049 23.404533,11.136882 23.104567,10.809372 22.053205,9.6614249 21.164474,9.0315963 20.213692,8.2153629 19.039079,7.2069688 17.876588,6.3024057 16.608826,5.5451742 15.341065,4.7879426 14.009108,4.0140977 11.784782,4.0000979 Z"
     id="path4543"
     inkscape:connector-curvature="0"
     sodipodi:nodetypes="cssscccscscccssscccscscccscscccscsccscscscccscc" />
  <path
     sodipodi:nodetypes="cscccccsscscccccccccccscsscccccsccccssscccc"
     inkscape:connector-curvature="0"
     id="path4549"
     d="m 11.738717,9.999634 c -1.421023,-0.00839 -1.8538242,1.269966 -1.713734,5.297695 0.124528,3.580334 0.630349,4.489326 1.883353,6.387685 l 0.571244,0.865367 -0.265151,0.826301 c -0.307634,0.957105 -0.339358,2.683701 -0.09749,5.246907 0.191681,2.031054 0.490494,2.769057 1.40959,3.482962 1.388286,1.078358 4.382008,2.984838 4.913094,2.984838 0.352559,0 0.569294,-0.12817 0.569294,-0.955227 v -0.836067 c 0,0 0,-0.300828 0.499108,-0.300828 0.499108,0 0.499108,0.300828 0.499108,0.300828 0,0 -0.0659,-0.240523 -0.0078,1.748045 0.106138,3.631716 0.204174,3.912842 1.608453,4.629624 1.067404,0.544828 1.095343,0.415625 0.721366,-0.523519 -0.423252,-1.062864 -0.354588,-1.586425 0.261252,-1.974914 0.327517,-0.206618 0.880734,-0.175774 1.40959,-0.179717 0.528855,0.0039 1.082073,-0.0269 1.409589,0.179717 0.61584,0.388489 0.684505,0.91205 0.261252,1.974914 -0.373976,0.939144 -0.346037,1.068347 0.721367,0.523519 1.404279,-0.716782 1.502314,-0.997908 1.608453,-4.629624 0.0581,-1.988568 -0.0078,-1.748045 -0.0078,-1.748045 0,0 0,-0.300828 0.499108,-0.300828 0.499107,0 0.499107,0.300828 0.499107,0.300828 v 0.836067 c 0,0.827057 0.216735,0.955227 0.569295,0.955227 0.531085,0 3.524806,-1.90648 4.913094,-2.984838 0.919095,-0.713905 1.217908,-1.451908 1.409589,-3.482962 0.241876,-2.563206 0.210153,-4.289802 -0.09748,-5.246907 l -0.265151,-0.826301 0.571244,-0.865367 c 1.253007,-1.898359 1.758828,-2.807351 1.883356,-6.387685 0.14009,-4.027729 -0.292712,-5.3060863 -1.713734,-5.297695 -1.260146,0.00792 -3.135634,1.227279 -5.215287,3.010232 -2.115274,1.813485 -3.192238,2.430313 -3.79205,4.692108 -0.163309,0.615815 -0.26921,1.246355 -0.395777,1.295123 -0.711524,0 -0.690324,-0.529127 -1.004064,-0.771604 -0.294813,-0.227849 -0.855893,-0.228552 -1.854108,-0.228552 -0.998216,0 -1.559295,7.03e-4 -1.854108,0.228552 -0.31374,0.242477 -0.29254,0.771604 -1.004064,0.771604 -0.12656,-0.04877 -0.232462,-0.679308 -0.395771,-1.295123 -0.599812,-2.261795 -1.676776,-2.878623 -3.79205,-4.692108 -2.079653,-1.782953 -3.95514,-3.002311 -5.215287,-3.010232 z"
     style="opacity:0.2;fill:#000000;fill-opacity:1;stroke-width:0.16271091" />
  <path
     style="fill:#eaeace;fill-opacity:1;stroke-width:0.16271091"
     d="m 11.738717,8.999632 c -1.421023,-0.00839 -1.8538242,1.269966 -1.713734,5.297695 0.124528,3.580334 0.630349,4.489326 1.883353,6.387685 l 0.571244,0.865367 -0.265151,0.826301 c -0.307634,0.957105 -0.339358,2.683701 -0.09749,5.246907 0.191681,2.031054 0.490494,2.769057 1.40959,3.482962 1.388286,1.078358 4.382008,2.984838 4.913094,2.984838 0.352559,0 0.569294,-0.12817 0.569294,-0.955227 v -0.836067 c 0,0 0,-0.300828 0.499108,-0.300828 0.499108,0 0.499108,0.300828 0.499108,0.300828 0,0 -0.0659,-0.240523 -0.0078,1.748045 0.106138,3.631716 0.204174,3.912842 1.608453,4.629624 1.067404,0.544828 1.095343,0.415625 0.721366,-0.523519 -0.423252,-1.062864 -0.354588,-1.586425 0.261252,-1.974914 0.327517,-0.206618 0.880734,-0.175774 1.40959,-0.179717 0.528855,0.0039 1.082073,-0.0269 1.409589,0.179717 0.61584,0.388489 0.684505,0.91205 0.261252,1.974914 -0.373976,0.939144 -0.346037,1.068347 0.721367,0.523519 1.404279,-0.716782 1.502314,-0.997908 1.608453,-4.629624 0.0581,-1.988568 -0.0078,-1.748045 -0.0078,-1.748045 0,0 0,-0.300828 0.499108,-0.300828 0.499107,0 0.499107,0.300828 0.499107,0.300828 v 0.836067 c 0,0.827057 0.216735,0.955227 0.569295,0.955227 0.531085,0 3.524806,-1.90648 4.913094,-2.984838 0.919095,-0.713905 1.217908,-1.451908 1.409589,-3.482962 0.241876,-2.563206 0.210153,-4.289802 -0.09748,-5.246907 l -0.265151,-0.826301 0.571244,-0.865367 c 1.253007,-1.898359 1.758828,-2.807351 1.883356,-6.387685 0.14009,-4.027729 -0.292712,-5.3060863 -1.713734,-5.297695 -1.260146,0.00792 -3.135634,1.227279 -5.215287,3.010232 -2.115274,1.813485 -3.192238,2.430313 -3.79205,4.692108 -0.163309,0.615815 -0.26921,1.246355 -0.395777,1.295123 -0.711524,0 -0.690324,-0.529127 -1.004064,-0.771604 -0.294813,-0.227849 -0.855893,-0.228552 -1.854108,-0.228552 -0.998216,0 -1.559295,7.03e-4 -1.854108,0.228552 -0.31374,0.242477 -0.29254,0.771604 -1.004064,0.771604 -0.12656,-0.04877 -0.232462,-0.679308 -0.395771,-1.295123 -0.599812,-2.261795 -1.676776,-2.878623 -3.79205,-4.692108 -2.079653,-1.782953 -3.95514,-3.0023114 -5.215287,-3.010232 z"
     id="path4535"
     inkscape:connector-curvature="0"
     sodipodi:nodetypes="cscccccsscscccccccccccscsscccccsccccssscccc" />
  <path
     id="path4599"
     d="m 17.961968,25.999349 c 2.04504,0 2.573812,0.326841 3.361179,1.711171 0.680773,1.196909 0.822656,1.706723 0.5498,1.974877 -0.298682,0.293547 -1.662683,0.415227 -2.464345,0.21878 -0.7358,-0.1803 -1.446676,-0.689645 -1.902849,-1.310725 -0.328936,-0.447846 -0.05871,-1.100592 -0.493259,-1.593967 -0.998216,0 -0.999095,-0.299602 -0.982619,-0.720801 -0.01648,-0.279059 0.321578,-0.279335 1.932093,-0.279335 z"
     style="opacity:0.2;fill:#000000;fill-opacity:1;stroke-width:0.16270936"
     inkscape:connector-curvature="0" />
  <path
     style="fill:#323232;fill-opacity:1;stroke-width:0.16270936"
     d="m 17.961968,24.998446 c 2.04504,0 2.573812,0.326841 3.361179,1.711171 0.680773,1.196909 0.822656,1.706723 0.5498,1.974877 -0.298682,0.293547 -1.662683,0.415227 -2.464345,0.21878 -0.7358,-0.1803 -1.446676,-0.689645 -1.902849,-1.310725 -0.328936,-0.447846 -0.05871,-1.100592 -0.493259,-1.593967 -0.998216,0 -0.999095,-0.299602 -0.982619,-0.720801 -0.01648,-0.279059 0.321578,-0.279335 1.932093,-0.279335 z"
     id="path4533" />
  <path
     id="path4601"
     d="m 30.038039,25.999349 c 1.610515,0 1.948569,2.76e-4 1.932094,0.279335 0.01647,0.421199 0.0156,0.720801 -0.982619,0.720801 -0.434554,0.493375 -0.164323,1.146121 -0.493259,1.593967 -0.456174,0.62108 -1.167049,1.130425 -1.902849,1.310725 -0.801662,0.196447 -2.165663,0.07477 -2.464345,-0.21878 -0.272857,-0.268154 -0.130973,-0.777968 0.549799,-1.974877 0.787368,-1.38433 1.316139,-1.711171 3.361179,-1.711171 z"
     style="opacity:0.2;fill:#000000;fill-opacity:1;stroke-width:0.16270936"
     inkscape:connector-curvature="0" />
  <path
     style="fill:#323232;fill-opacity:1;stroke-width:0.16270936"
     d="m 30.038039,24.998446 c 1.610515,0 1.948569,2.76e-4 1.932094,0.279335 0.01647,0.421199 0.0156,0.720801 -0.982619,0.720801 -0.434554,0.493375 -0.164323,1.146121 -0.493259,1.593967 -0.456174,0.62108 -1.167049,1.130425 -1.902849,1.310725 -0.801662,0.196447 -2.165663,0.07477 -2.464345,-0.21878 -0.272857,-0.268154 -0.130973,-0.777968 0.549799,-1.974877 0.787368,-1.38433 1.316139,-1.711171 3.361179,-1.711171 z"
     id="path4509" />
  <path
     style="color:#000000;font-style:normal;font-variant:normal;font-weight:normal;font-stretch:normal;font-size:medium;line-height:normal;font-family:sans-serif;font-variant-ligatures:normal;font-variant-position:normal;font-variant-caps:normal;font-variant-numeric:normal;font-variant-alternates:normal;font-feature-settings:normal;text-indent:0;text-align:start;text-decoration:none;text-decoration-line:none;text-decoration-style:solid;text-decoration-color:#000000;letter-spacing:normal;word-spacing:normal;text-transform:none;writing-mode:lr-tb;direction:ltr;text-orientation:mixed;dominant-baseline:auto;baseline-shift:baseline;text-anchor:start;white-space:normal;shape-padding:0;clip-rule:nonzero;display:inline;overflow:visible;visibility:visible;opacity:0.1;isolation:auto;mix-blend-mode:normal;color-interpolation:sRGB;color-interpolation-filters:linearRGB;solid-color:#000000;solid-opacity:1;vector-effect:none;fill:#ffffff;fill-opacity:1;fill-rule:nonzero;stroke:none;stroke-width:9.99425125;stroke-linecap:butt;stroke-linejoin:miter;stroke-miterlimit:4;stroke-dasharray:none;stroke-dashoffset:0;stroke-opacity:1;color-rendering:auto;image-rendering:auto;shape-rendering:auto;text-rendering:auto;enable-background:accumulate"
     d="M 11.783203 4 C 10.678201 3.993467 9.0998967 4.319382 7.8398438 5.28125 C 6.5797907 6.243118 5.9047284 7.5461119 5.5664062 8.5839844 C 5.0227655 10.251713 4.9733091 11.626793 5.0136719 13.244141 C 5.0266439 12.033786 5.137511 10.899708 5.5664062 9.5839844 C 5.9047284 8.5461119 6.5797907 7.243118 7.8398438 6.28125 C 9.0998967 5.319382 10.678201 4.993467 11.783203 5 L 11.785156 5 C 14.009482 5.0139998 15.341614 5.7876903 16.609375 6.5449219 C 17.877137 7.3021534 19.038278 8.2064496 20.212891 9.2148438 C 21.163673 10.031077 22.054107 10.660647 23.105469 11.808594 C 23.405435 12.136104 23.659853 12.589593 23.935547 12.998047 C 23.954797 12.998047 23.98064 12.996094 24 12.996094 C 24.01935 12.996094 24.045203 12.998088 24.064453 12.998047 C 24.34015 12.589593 24.594565 12.136104 24.894531 11.808594 C 25.945934 10.660647 26.836327 10.031077 27.787109 9.2148438 C 28.961722 8.2064495 30.122863 7.3021534 31.390625 6.5449219 C 32.658387 5.7876902 33.990516 5.013998 36.214844 5 L 36.216797 5 C 37.3218 4.993466 38.900102 5.3193816 40.160156 6.28125 C 41.420209 7.2431184 42.095213 8.5461181 42.433594 9.5839844 C 42.862489 10.899707 42.973356 12.033786 42.986328 13.244141 C 43.02669 11.626793 42.977235 10.251712 42.433594 8.5839844 C 42.095213 7.5461181 41.420209 6.2431184 40.160156 5.28125 C 38.900102 4.3193816 37.3218 3.993466 36.216797 4 L 36.214844 4 C 33.990516 4.013998 32.658387 4.7876902 31.390625 5.5449219 C 30.122863 6.3021534 28.961722 7.2064496 27.787109 8.2148438 C 26.836327 9.0310771 25.945934 9.6606466 24.894531 10.808594 C 24.594565 11.136104 24.34015 11.589593 24.064453 11.998047 C 24.045203 11.998088 24.01935 11.996094 24 11.996094 C 23.98064 11.996094 23.954797 11.998047 23.935547 11.998047 C 23.659853 11.589593 23.405435 11.136104 23.105469 10.808594 C 22.054107 9.6606467 21.163673 9.0310772 20.212891 8.2148438 C 19.038278 7.2064496 17.877137 6.3021534 16.609375 5.5449219 C 15.341614 4.7876903 14.009482 4.0139998 11.785156 4 L 11.783203 4 z M 40.869141 23.185547 C 40.82282 23.323903 40.767851 23.461521 40.802734 23.59375 C 40.914091 24.317484 40.963173 25.031418 40.980469 25.763672 C 41.002077 24.872019 40.967087 24.025921 40.869141 23.185547 z M 7.1289062 23.203125 C 7.0325702 24.037564 6.9980731 24.878223 7.0195312 25.763672 C 7.0368262 25.031417 7.0859074 24.317484 7.1972656 23.59375 C 7.2139048 23.451722 7.1713193 23.357603 7.1289062 23.203125 z "
     id="path4551" />
  <path
     style="fill:#ffffff;fill-opacity:1;stroke-width:0.16271091;opacity:0.1"
     d="M 11.738281 9 C 10.416218 8.9921943 9.9574935 10.127815 10.011719 13.525391 C 10.064375 10.903513 10.555008 9.9930137 11.738281 10 C 12.998428 10.007921 14.873472 11.226813 16.953125 13.009766 C 19.068399 14.823251 20.146282 15.439377 20.746094 17.701172 C 20.909403 18.316987 21.016018 18.949277 21.142578 18.998047 C 21.854102 18.998047 21.832744 18.467086 22.146484 18.224609 C 22.441297 17.99676 23.001784 17.996094 24 17.996094 C 24.998215 17.996094 25.558703 17.99676 25.853516 18.224609 C 26.167256 18.467086 26.145898 18.998047 26.857422 18.998047 C 26.983989 18.949279 27.090597 18.316987 27.253906 17.701172 C 27.853718 15.439377 28.931601 14.823251 31.046875 13.009766 C 33.126528 11.226813 35.001573 10.00792 36.261719 10 C 37.444991 9.9930126 37.935625 10.903513 37.988281 13.525391 C 38.042506 10.127815 37.583781 8.9921931 36.261719 9 C 35.001573 9.00792 33.126528 10.226813 31.046875 12.009766 C 28.931601 13.823251 27.853718 14.439377 27.253906 16.701172 C 27.090597 17.316987 26.983989 17.949279 26.857422 17.998047 C 26.145898 17.998047 26.167256 17.467086 25.853516 17.224609 C 25.558703 16.99676 24.998215 16.996094 24 16.996094 C 23.001784 16.996094 22.441297 16.99676 22.146484 17.224609 C 21.832744 17.467086 21.854102 17.998047 21.142578 17.998047 C 21.016018 17.949277 20.909403 17.316987 20.746094 16.701172 C 20.146282 14.439377 19.068399 13.823251 16.953125 12.009766 C 14.873472 10.226813 12.998428 9.0079206 11.738281 9 z M 12.263672 22.224609 L 12.214844 22.376953 C 12.020051 22.982989 11.946792 23.93567 11.972656 25.175781 C 11.999191 24.422664 12.075808 23.80952 12.214844 23.376953 L 12.480469 22.550781 L 12.263672 22.224609 z M 35.736328 22.224609 L 35.519531 22.550781 L 35.785156 23.376953 C 35.924192 23.80952 36.00081 24.422664 36.027344 25.175781 C 36.05321 23.93567 35.979948 22.982989 35.785156 22.376953 L 35.736328 22.224609 z M 19.992188 33.261719 C 19.99251 33.299098 19.991659 33.335347 19.992188 33.376953 C 19.99893 33.353456 20.007812 33.300781 20.007812 33.300781 C 20.007812 33.300781 19.993263 33.270458 19.992188 33.261719 z M 28.007812 33.261719 C 28.006737 33.270458 27.992188 33.300781 27.992188 33.300781 C 27.992188 33.300781 28.00107 33.353456 28.007812 33.376953 C 28.008341 33.335347 28.00749 33.299098 28.007812 33.261719 z M 22.162109 37.626953 C 22.005378 37.941916 22.055418 38.369407 22.271484 38.96875 C 22.65048 39.077314 22.597985 38.827073 22.330078 38.154297 C 22.25074 37.955063 22.206515 37.79095 22.162109 37.626953 z M 25.837891 37.626953 C 25.793485 37.79095 25.749261 37.955063 25.669922 38.154297 C 25.402016 38.827073 25.34952 39.077314 25.728516 38.96875 C 25.944582 38.369407 25.994622 37.941916 25.837891 37.626953 z "
     id="path4553" />
</svg>
