<?xml version="1.0" encoding="UTF-8" standalone="no"?>
<svg
   xmlns:dc="http://purl.org/dc/elements/1.1/"
   xmlns:cc="http://creativecommons.org/ns#"
   xmlns:rdf="http://www.w3.org/1999/02/22-rdf-syntax-ns#"
   xmlns:svg="http://www.w3.org/2000/svg"
   xmlns="http://www.w3.org/2000/svg"
   xmlns:sodipodi="http://sodipodi.sourceforge.net/DTD/sodipodi-0.dtd"
   xmlns:inkscape="http://www.inkscape.org/namespaces/inkscape"
   height="48"
   width="48"
   version="1"
   id="svg22"
   sodipodi:docname="podcast-addict.svg"
   inkscape:version="0.92.1 r15371">
  <metadata
     id="metadata28">
    <rdf:RDF>
      <cc:Work
         rdf:about="">
        <dc:format>image/svg+xml</dc:format>
        <dc:type
           rdf:resource="http://purl.org/dc/dcmitype/StillImage" />
        <dc:title />
      </cc:Work>
    </rdf:RDF>
  </metadata>
  <defs
     id="defs26" />
  <sodipodi:namedview
     pagecolor="#ffffff"
     bordercolor="#666666"
     borderopacity="1"
     objecttolerance="10"
     gridtolerance="10"
     guidetolerance="10"
     inkscape:pageopacity="0"
     inkscape:pageshadow="2"
     inkscape:window-width="1600"
     inkscape:window-height="831"
     id="namedview24"
     showgrid="false"
     inkscape:zoom="7.46"
     inkscape:cx="9.5884482"
     inkscape:cy="24"
     inkscape:window-x="0"
     inkscape:window-y="0"
     inkscape:window-maximized="1"
     inkscape:current-layer="svg22">
    <inkscape:grid
       type="xygrid"
       id="grid4515" />
  </sodipodi:namedview>
  <g
     transform="translate(0,3)"
     id="g4509"
     style="opacity:0.2;fill:#000000;fill-opacity:1;stroke:#000000;stroke-width:6;stroke-linecap:round;stroke-linejoin:round;stroke-miterlimit:4;stroke-dasharray:none;stroke-opacity:1">
    <path
       sodipodi:nodetypes="ccccccccccccccccccscsc"
       inkscape:connector-curvature="0"
       id="path4507"
       transform="translate(0,-2)"
       d="M 14.998047,12 C 9.5310055,12.0028 5.0874921,16.129771 4.2890625,21.423828 3.6065899,25.0989 4,29.717919 4,34 c 1.657e-4,1.656786 1.3432144,2.999834 3,3 h 2 c 1.656786,-1.66e-4 2.999834,-1.343214 3,-3 v -0.595703 c 0.980176,0.28473 1.961881,0.591323 2.986328,0.595703 0.0046,1e-5 0.0091,1e-5 0.01367,0 3.807968,0 7.022856,-2.089522 9,-5.060547 C 25.977144,31.910478 29.192032,34 33,34 c 0.0033,5e-6 0.0065,5e-6 0.0098,0 1.36171,-0.0042 2.703604,-0.28892 3.970703,-0.785156 C 37.532338,33.718993 38.252521,33.998987 39,34 h 2 c 1.656786,-1.66e-4 2.999834,-1.343214 3,-3 -0.09259,-3.208863 0.292983,-6.433595 -0.298828,-9.597656 C 42.89383,16.121815 38.460382,12.006799 33.003906,12 H 33 c -3.807968,0 -7.022856,2.089522 -9,5.060547 C 22.022856,14.089522 18.807968,12 15,12 Z"
       style="color:#000000;font-style:normal;font-variant:normal;font-weight:normal;font-stretch:normal;font-size:medium;line-height:normal;font-family:sans-serif;font-variant-ligatures:normal;font-variant-position:normal;font-variant-caps:normal;font-variant-numeric:normal;font-variant-alternates:normal;font-feature-settings:normal;text-indent:0;text-align:start;text-decoration:none;text-decoration-line:none;text-decoration-style:solid;text-decoration-color:#000000;letter-spacing:normal;word-spacing:normal;text-transform:none;writing-mode:lr-tb;direction:ltr;text-orientation:mixed;dominant-baseline:auto;baseline-shift:baseline;text-anchor:start;white-space:normal;shape-padding:0;clip-rule:nonzero;display:inline;overflow:visible;visibility:visible;opacity:1;isolation:auto;mix-blend-mode:normal;color-interpolation:sRGB;color-interpolation-filters:linearRGB;solid-color:#000000;solid-opacity:1;vector-effect:none;fill:#000000;fill-opacity:1;fill-rule:nonzero;stroke:none;stroke-width:6;stroke-linecap:round;stroke-linejoin:round;stroke-miterlimit:4;stroke-dasharray:none;stroke-dashoffset:0;stroke-opacity:1;color-rendering:auto;image-rendering:auto;shape-rendering:auto;text-rendering:auto;enable-background:accumulate" />
  </g>
  <g
     style="fill:none;fill-opacity:1;stroke:#000000;stroke-opacity:1;stroke-linecap:round;stroke-linejoin:round;stroke-width:6;stroke-miterlimit:4;stroke-dasharray:none"
     id="g4495"
     transform="translate(0,2)">
    <path
       style="color:#000000;font-style:normal;font-variant:normal;font-weight:normal;font-stretch:normal;font-size:medium;line-height:normal;font-family:sans-serif;font-variant-ligatures:normal;font-variant-position:normal;font-variant-caps:normal;font-variant-numeric:normal;font-variant-alternates:normal;font-feature-settings:normal;text-indent:0;text-align:start;text-decoration:none;text-decoration-line:none;text-decoration-style:solid;text-decoration-color:#000000;letter-spacing:normal;word-spacing:normal;text-transform:none;writing-mode:lr-tb;direction:ltr;text-orientation:mixed;dominant-baseline:auto;baseline-shift:baseline;text-anchor:start;white-space:normal;shape-padding:0;clip-rule:nonzero;display:inline;overflow:visible;visibility:visible;opacity:1;isolation:auto;mix-blend-mode:normal;color-interpolation:sRGB;color-interpolation-filters:linearRGB;solid-color:#000000;solid-opacity:1;vector-effect:none;fill:#f4842d;fill-opacity:1;fill-rule:nonzero;stroke:none;stroke-width:6;stroke-linecap:round;stroke-linejoin:round;stroke-miterlimit:4;stroke-dasharray:none;stroke-dashoffset:0;stroke-opacity:1;color-rendering:auto;image-rendering:auto;shape-rendering:auto;text-rendering:auto;enable-background:accumulate"
       d="M 14.998047,12 C 9.5310055,12.0028 5.0874921,16.129771 4.2890625,21.423828 3.6065899,25.0989 4,29.717919 4,34 c 1.657e-4,1.656786 1.3432144,2.999834 3,3 h 2 c 1.656786,-1.66e-4 2.999834,-1.343214 3,-3 v -0.595703 c 0.980176,0.28473 1.961881,0.591323 2.986328,0.595703 0.0046,1e-5 0.0091,1e-5 0.01367,0 3.807968,0 7.022856,-2.089522 9,-5.060547 C 25.977144,31.910478 29.192032,34 33,34 c 0.0033,5e-6 0.0065,5e-6 0.0098,0 1.36171,-0.0042 2.703604,-0.28892 3.970703,-0.785156 C 37.532338,33.718993 38.252521,33.998987 39,34 h 2 c 1.656786,-1.66e-4 2.999834,-1.343214 3,-3 -0.09259,-3.208863 0.292983,-6.433595 -0.298828,-9.597656 C 42.89383,16.121815 38.460382,12.006799 33.003906,12 H 33 c -3.807968,0 -7.022856,2.089522 -9,5.060547 C 22.022856,14.089522 18.807968,12 15,12 Z"
       transform="translate(0,-2)"
       id="path4504"
       inkscape:connector-curvature="0"
       sodipodi:nodetypes="ccccccccccccccccccscsc" />
  </g>
  <g
     id="g4521"
     transform="translate(0,3)"
     style="opacity:0.2;fill:#000000;fill-opacity:1">
    <path
       style="opacity:1;fill:#000000;fill-opacity:1;stroke:none;stroke-width:2;stroke-linecap:round;stroke-linejoin:round;stroke-miterlimit:4;stroke-dasharray:none;stroke-opacity:1"
       d="M 15,13 A 8,8 0 0 0 7.0097656,20.699219 H 7 V 21 32 H 9 V 29 26.28125 21 a 6,6 0 0 1 6,-6 6,6 0 0 1 6,6 6,6 0 0 1 -6,6 6,6 0 0 1 -3,-0.810547 v 2.212891 A 8,8 0 0 0 15,29 8,8 0 0 0 23,21 8,8 0 0 0 15,13 Z"
       id="path4517"
       inkscape:connector-curvature="0" />
    <path
       style="opacity:1;fill:#000000;fill-opacity:1;stroke:none;stroke-width:2;stroke-linecap:round;stroke-linejoin:round;stroke-miterlimit:4;stroke-dasharray:none;stroke-opacity:1"
       d="m 33,13 a 8,8 0 0 0 -8,8 8,8 0 0 0 8,8 8,8 0 0 0 3,-0.59375 V 26.1875 A 6,6 0 0 1 33,27 a 6,6 0 0 1 -6,-6 6,6 0 0 1 6,-6 6,6 0 0 1 6,6 V 26.277344 29 h 2 V 21 20.699219 H 40.98437 A 8,8 0 0 0 33,13 Z"
       id="path4519"
       inkscape:connector-curvature="0" />
  </g>
  <g
     transform="translate(0,2)"
     id="g4285"
     style="fill:#ffffff;fill-opacity:1">
    <path
       inkscape:connector-curvature="0"
       id="path4240"
       d="M 15,13 A 8,8 0 0 0 7.0097656,20.699219 H 7 V 21 32 H 9 V 29 26.28125 21 a 6,6 0 0 1 6,-6 6,6 0 0 1 6,6 6,6 0 0 1 -6,6 6,6 0 0 1 -3,-0.810547 v 2.212891 A 8,8 0 0 0 15,29 8,8 0 0 0 23,21 8,8 0 0 0 15,13 Z"
       style="opacity:1;fill:#ffffff;fill-opacity:1;stroke:none;stroke-width:2;stroke-linecap:round;stroke-linejoin:round;stroke-miterlimit:4;stroke-dasharray:none;stroke-opacity:1" />
    <path
       inkscape:connector-curvature="0"
       id="path4246"
       d="m 33,13 a 8,8 0 0 0 -8,8 8,8 0 0 0 8,8 8,8 0 0 0 3,-0.59375 V 26.1875 A 6,6 0 0 1 33,27 a 6,6 0 0 1 -6,-6 6,6 0 0 1 6,-6 6,6 0 0 1 6,6 V 26.277344 29 h 2 V 21 20.699219 H 40.98437 A 8,8 0 0 0 33,13 Z"
       style="opacity:1;fill:#ffffff;fill-opacity:1;stroke:none;stroke-width:2;stroke-linecap:round;stroke-linejoin:round;stroke-miterlimit:4;stroke-dasharray:none;stroke-opacity:1" />
  </g>
  <g
     transform="translate(0,2)"
     id="g4513"
     style="fill:#ffffff;fill-opacity:1;stroke:#000000;stroke-opacity:1;stroke-linecap:round;stroke-linejoin:round;stroke-width:6;stroke-miterlimit:4;stroke-dasharray:none;opacity:0.1">
    <path
       style="color:#000000;font-style:normal;font-variant:normal;font-weight:normal;font-stretch:normal;font-size:medium;line-height:normal;font-family:sans-serif;font-variant-ligatures:normal;font-variant-position:normal;font-variant-caps:normal;font-variant-numeric:normal;font-variant-alternates:normal;font-feature-settings:normal;text-indent:0;text-align:start;text-decoration:none;text-decoration-line:none;text-decoration-style:solid;text-decoration-color:#000000;letter-spacing:normal;word-spacing:normal;text-transform:none;writing-mode:lr-tb;direction:ltr;text-orientation:mixed;dominant-baseline:auto;baseline-shift:baseline;text-anchor:start;white-space:normal;shape-padding:0;clip-rule:nonzero;display:inline;overflow:visible;visibility:visible;opacity:1;isolation:auto;mix-blend-mode:normal;color-interpolation:sRGB;color-interpolation-filters:linearRGB;solid-color:#000000;solid-opacity:1;vector-effect:none;fill:#ffffff;fill-opacity:1;fill-rule:nonzero;stroke:none;stroke-width:6;stroke-linecap:round;stroke-linejoin:round;stroke-miterlimit:4;stroke-dasharray:none;stroke-dashoffset:0;stroke-opacity:1;color-rendering:auto;image-rendering:auto;shape-rendering:auto;text-rendering:auto;enable-background:accumulate"
       d="M 14.998047 12 C 9.5310054 12.0028 5.0874921 16.129771 4.2890625 21.423828 C 3.9348517 23.331231 3.8725805 25.49555 3.8925781 27.732422 C 3.9010523 25.853972 3.9880267 24.044887 4.2890625 22.423828 C 5.0874921 17.129771 9.5310054 13.0028 14.998047 13 L 15 13 C 18.807968 13 22.022856 15.089522 24 18.060547 C 25.977144 15.089522 29.192032 13 33 13 L 33.003906 13 C 38.460382 13.006799 42.89383 17.121815 43.701172 22.402344 C 43.970932 23.844591 44.025881 25.299556 44.027344 26.759766 C 44.053285 24.96388 44.032476 23.17363 43.701172 21.402344 C 42.89383 16.121815 38.460382 12.006799 33.003906 12 L 33 12 C 29.192032 12 25.977144 14.089522 24 17.060547 C 22.022856 14.089522 18.807968 12 15 12 L 14.998047 12 z "
       transform="translate(0,-2)"
       id="path4511" />
  </g>
  <g
     style="opacity:0.1;fill:#ffffff;fill-opacity:1;stroke:#000000;stroke-width:6;stroke-linecap:round;stroke-linejoin:round;stroke-miterlimit:4;stroke-dasharray:none;stroke-opacity:1"
     id="g4517"
     transform="translate(0,3)" />
</svg>
