<?xml version="1.0" encoding="UTF-8" standalone="no"?>
<svg
   xmlns:dc="http://purl.org/dc/elements/1.1/"
   xmlns:cc="http://creativecommons.org/ns#"
   xmlns:rdf="http://www.w3.org/1999/02/22-rdf-syntax-ns#"
   xmlns:svg="http://www.w3.org/2000/svg"
   xmlns="http://www.w3.org/2000/svg"
   xmlns:xlink="http://www.w3.org/1999/xlink"
   xmlns:sodipodi="http://sodipodi.sourceforge.net/DTD/sodipodi-0.dtd"
   xmlns:inkscape="http://www.inkscape.org/namespaces/inkscape"
   height="48"
   width="48"
   version="1"
   id="svg20"
   sodipodi:docname="real-player.svg"
   inkscape:version="0.92.1 r15371">
  <metadata
     id="metadata26">
    <rdf:RDF>
      <cc:Work
         rdf:about="">
        <dc:format>image/svg+xml</dc:format>
        <dc:type
           rdf:resource="http://purl.org/dc/dcmitype/StillImage" />
        <dc:title />
      </cc:Work>
    </rdf:RDF>
  </metadata>
  <defs
     id="defs24">
    <linearGradient
       x1="167.98311"
       y1="8.50811"
       x2="167.98311"
       y2="54.780239"
       id="linearGradient5414"
       xlink:href="#linearGradient5803"
       gradientUnits="userSpaceOnUse"
       gradientTransform="matrix(0.70801035,0,0,0.71090703,-90.897626,-0.11035266)" />
    <linearGradient
       id="linearGradient5803">
      <stop
         id="stop5805"
         style="stop-color:#fff5ef;stop-opacity:1"
         offset="0" />
      <stop
         id="stop5807"
         style="stop-color:#fef8dd;stop-opacity:1"
         offset="1" />
    </linearGradient>
  </defs>
  <sodipodi:namedview
     pagecolor="#ffffff"
     bordercolor="#666666"
     borderopacity="1"
     objecttolerance="10"
     gridtolerance="10"
     guidetolerance="10"
     inkscape:pageopacity="0"
     inkscape:pageshadow="2"
     inkscape:window-width="1600"
     inkscape:window-height="822"
     id="namedview22"
     showgrid="true"
     inkscape:zoom="5.7195172"
     inkscape:cx="17.198864"
     inkscape:cy="20.552528"
     inkscape:window-x="0"
     inkscape:window-y="0"
     inkscape:window-maximized="1"
     inkscape:current-layer="svg20">
    <inkscape:grid
       type="xygrid"
       id="grid4500" />
  </sodipodi:namedview>
  <path
     sodipodi:nodetypes="ssccccs"
     inkscape:connector-curvature="0"
     id="path4508"
     d="M 24,5 C 14.611159,5 7,12.611159 7,22 c 0,9.388841 7.611159,17 17,17 2.726875,-0.0026 5.41312,-0.661064 7.832031,-1.919922 L 35,45 C 36.389752,37.427493 40.69436,29.242641 41,22 41,12.611159 33.388841,5 24,5 Z"
     style="opacity:0.2;fill:#000000;fill-opacity:1;stroke:none;stroke-width:6.97665262;stroke-linecap:square;stroke-linejoin:miter;stroke-miterlimit:4;stroke-dasharray:none;stroke-dashoffset:0;stroke-opacity:1" />
  <path
     style="opacity:1;fill:#4297e2;fill-opacity:1;stroke:none;stroke-width:6.97665262;stroke-linecap:square;stroke-linejoin:miter;stroke-miterlimit:4;stroke-dasharray:none;stroke-dashoffset:0;stroke-opacity:1"
     d="M 24,4 C 14.611159,4 7,11.611159 7,21 c 0,9.388841 7.611159,17 17,17 2.726875,-0.0026 5.41312,-0.661064 7.832031,-1.919922 L 35,44 C 36.389752,36.427493 40.69436,28.242641 41,21 41,11.611159 33.388841,4 24,4 Z"
     id="path4492"
     inkscape:connector-curvature="0"
     sodipodi:nodetypes="ssccccs" />
  <path
     id="path4510"
     d="m 24,9 c -7.227081,0 -13,5.772919 -13,13 0,7.227081 5.772919,13 13,13 2.084114,-0.0026 4.137638,-0.506648 5.986328,-1.46875 l 3.917969,-2.039062 0.443359,1.107421 C 35.670392,28.591485 36.847107,24.926692 36.990234,21.908203 36.940181,14.725352 31.195561,9 24,9 Z"
     style="opacity:0.2;fill:#000000;fill-opacity:1;stroke:none;stroke-width:6.97665262;stroke-linecap:square;stroke-linejoin:miter;stroke-miterlimit:4;stroke-dasharray:none;stroke-dashoffset:0;stroke-opacity:1"
     inkscape:connector-curvature="0" />
  <path
     style="opacity:1;fill:#ffffff;fill-opacity:1;stroke:none;stroke-width:6.97665262;stroke-linecap:square;stroke-linejoin:miter;stroke-miterlimit:4;stroke-dasharray:none;stroke-dashoffset:0;stroke-opacity:1"
     d="M 24 8 C 16.772919 8 11 13.772919 11 21 C 11 28.227081 16.772919 34 24 34 C 26.084114 33.997387 28.137638 33.493352 29.986328 32.53125 L 33.904297 30.492188 L 34.347656 31.599609 C 35.670392 27.591485 36.847107 23.926692 36.990234 20.908203 C 36.940181 13.725352 31.195561 8 24 8 z "
     id="path4501" />
  <path
     style="opacity:1;fill:#456f99;fill-opacity:1;stroke:none;stroke-width:6.27571678;stroke-linecap:square;stroke-linejoin:miter;stroke-miterlimit:4;stroke-dasharray:none;stroke-dashoffset:0;stroke-opacity:1"
     d="m 30.517578,14.853516 c -2.061832,0.08842 -3.350448,0.872836 -5.298828,2.490234 L 26,15 h -6 l -4,12 h 6 l 2,-6 c 2.464831,-2.256445 4.48989,-2 7.666016,-2 L 33,15 c -0.961883,-0.126565 -1.768665,-0.177093 -2.482422,-0.146484 z"
     id="rect4514"
     inkscape:connector-curvature="0" />
  <path
     style="opacity:0.2;fill:#f0f7fd;fill-opacity:1;stroke:none;stroke-width:6.97665262;stroke-linecap:square;stroke-linejoin:miter;stroke-miterlimit:4;stroke-dasharray:none;stroke-dashoffset:0;stroke-opacity:1"
     d="M 24 4 C 14.611159 4 7 11.611159 7 21 C 7 21.16879 7.0205047 21.332393 7.0253906 21.5 C 7.292282 12.344569 14.779949 5 24 5 C 33.188417 5 40.655291 12.29471 40.970703 21.40625 C 40.979076 21.271318 40.994333 21.134294 41 21 C 41 11.611159 33.388841 4 24 4 z "
     id="path4512" />
</svg>
