<?xml version="1.0" encoding="UTF-8" standalone="no"?>
<svg
   xmlns:dc="http://purl.org/dc/elements/1.1/"
   xmlns:cc="http://creativecommons.org/ns#"
   xmlns:rdf="http://www.w3.org/1999/02/22-rdf-syntax-ns#"
   xmlns:svg="http://www.w3.org/2000/svg"
   xmlns="http://www.w3.org/2000/svg"
   xmlns:sodipodi="http://sodipodi.sourceforge.net/DTD/sodipodi-0.dtd"
   xmlns:inkscape="http://www.inkscape.org/namespaces/inkscape"
   height="48"
   width="48"
   version="1"
   id="svg20"
   sodipodi:docname="shazam.svg"
   inkscape:version="0.92.1 r15371">
  <metadata
     id="metadata26">
    <rdf:RDF>
      <cc:Work
         rdf:about="">
        <dc:format>image/svg+xml</dc:format>
        <dc:type
           rdf:resource="http://purl.org/dc/dcmitype/StillImage" />
        <dc:title></dc:title>
      </cc:Work>
    </rdf:RDF>
  </metadata>
  <defs
     id="defs24" />
  <sodipodi:namedview
     pagecolor="#ffffff"
     bordercolor="#666666"
     borderopacity="1"
     objecttolerance="10"
     gridtolerance="10"
     guidetolerance="10"
     inkscape:pageopacity="0"
     inkscape:pageshadow="2"
     inkscape:window-width="1600"
     inkscape:window-height="822"
     id="namedview22"
     showgrid="true"
     inkscape:zoom="7.54"
     inkscape:cx="24"
     inkscape:cy="24"
     inkscape:window-x="0"
     inkscape:window-y="0"
     inkscape:window-maximized="1"
     inkscape:current-layer="svg20">
    <inkscape:grid
       type="xygrid"
       id="grid4503" />
  </sodipodi:namedview>
  <rect
     transform="matrix(0,-1,-1,0,0,0)"
     rx="20"
     ry="20"
     height="40"
     width="40"
     y="-44"
     x="-44"
     fill="#e91e63"
     id="rect2"
     style="fill:#0088ff;fill-opacity:1" />
  <path
     opacity=".2"
     d="m24 4c-11.08 0-20 8.92-20 20 0 0.168 0.008 0.333 0.0117 0.5 0.2647-10.846 9.0763-19.5 19.988-19.5s19.724 8.6539 19.988 19.5c0.004-0.16686 0.0117-0.33213 0.0117-0.5 0-11.08-8.92-20-20-20z"
     fill="#fff"
     id="path4" />
  <path
     opacity=".2"
     d="m4.0117 24.5c-0.0041 0.167-0.0117 0.332-0.0117 0.5 0 11.08 8.92 20 20 20s20-8.92 20-20c0-0.168-0.008-0.333-0.012-0.5-0.264 10.846-9.076 19.5-19.988 19.5s-19.724-8.654-19.988-19.5z"
     id="path6" />
  <path
     d="m 25.669524,20.979582 -4.662965,4.663247 C 20.332456,26.31665 19.240208,26.316086 18.566105,25.642265 17.891721,24.9676 17.891158,23.875351 18.56526,23.20153 l 4.663247,-4.663528 c 3.336723,-3.337005 8.729261,-3.39135 12.137224,-0.168948 0.03126,0.02647 0.06251,0.05378 0.09179,0.08307 0.01436,0.01464 0.02788,0.02957 0.04167,0.04449 0.01464,0.01408 0.03013,0.02731 0.04421,0.04111 0.02985,0.02985 0.05632,0.06054 0.08278,0.09151 3.222683,3.408526 3.167775,8.800501 -0.168948,12.137506 l -4.663247,4.662683 c -0.674102,0.674103 -1.76607,0.674103 -2.440172,0 -0.674103,-0.674666 -0.674666,-1.766914 -5.63e-4,-2.440454 l 4.662965,-4.663528 c 2.034415,-2.034415 2.048494,-5.335659 0.04196,-7.388659 -2.052437,-2.005694 -5.353962,-1.991897 -7.388659,0.0428 z"
     id="path4507"
     style="opacity:0.2;fill:#000000;fill-opacity:1;stroke-width:0.28158"
     inkscape:connector-curvature="0" />
  <path
     inkscape:connector-curvature="0"
     style="fill:#ffffff;fill-opacity:1;stroke-width:0.28158"
     id="path14"
     d="m 25.669524,19.979582 -4.662965,4.663247 C 20.332456,25.31665 19.240208,25.316086 18.566105,24.642265 17.891721,23.9676 17.891158,22.875351 18.56526,22.20153 l 4.663247,-4.663528 c 3.336723,-3.337005 8.729261,-3.39135 12.137224,-0.168948 0.03126,0.02647 0.06251,0.05378 0.09179,0.08307 0.01436,0.01464 0.02788,0.02957 0.04167,0.04449 0.01464,0.01408 0.03013,0.02731 0.04421,0.04111 0.02985,0.02985 0.05632,0.06054 0.08278,0.09151 3.222683,3.408526 3.167775,8.800501 -0.168948,12.137506 l -4.663247,4.662683 c -0.674102,0.674103 -1.76607,0.674103 -2.440172,0 -0.674103,-0.674666 -0.674666,-1.766914 -5.63e-4,-2.440454 l 4.662965,-4.663528 c 2.034415,-2.034415 2.048494,-5.335659 0.04196,-7.388659 -2.052437,-2.005694 -5.353962,-1.991897 -7.388659,0.0428 z" />
  <path
     d="m 19.64926,14.570743 c 0.674103,0.674103 0.67354,1.766633 -5.63e-4,2.440454 l -4.662965,4.662965 c -2.034697,2.03526 -2.047368,5.336222 -0.04139,7.389222 2.052718,2.005413 5.353681,1.992179 7.388378,-0.04224 l 4.662683,-4.663246 c 0.674103,-0.673821 1.767478,-0.673821 2.44158,0 0.674103,0.674666 0.674103,1.768041 0,2.441862 l -4.662965,4.662964 c -3.337004,3.337005 -8.729543,3.39135 -12.136661,0.168948 -0.03125,-0.02675 -0.06251,-0.05294 -0.09208,-0.08307 -0.01436,-0.01492 -0.02731,-0.02928 -0.04196,-0.04364 -0.01436,-0.01464 -0.03013,-0.02816 -0.04477,-0.04224 -0.02928,-0.02985 -0.05519,-0.06082 -0.08194,-0.09208 -3.2232411,-3.407109 -3.1686146,-8.799648 0.16839,-12.136652 l 4.662402,-4.662965 c 0.674102,-0.674384 1.76804,-0.674384 2.441861,-2.82e-4 z"
     id="path4509"
     style="opacity:0.2;fill:#000000;fill-opacity:1;stroke-width:0.28158"
     inkscape:connector-curvature="0" />
  <path
     inkscape:connector-curvature="0"
     style="fill:#ffffff;fill-opacity:1;stroke-width:0.28158"
     id="path16"
     d="m 19.64926,13.570743 c 0.674103,0.674103 0.67354,1.766633 -5.63e-4,2.440454 l -4.662965,4.662965 c -2.034697,2.03526 -2.047368,5.336222 -0.04139,7.389222 2.052718,2.005413 5.353681,1.992179 7.388378,-0.04224 l 4.662683,-4.663246 c 0.674103,-0.673821 1.767478,-0.673821 2.44158,0 0.674103,0.674666 0.674103,1.768041 0,2.441862 l -4.662965,4.662964 c -3.337004,3.337005 -8.729543,3.39135 -12.136661,0.168948 -0.03125,-0.02675 -0.06251,-0.05294 -0.09208,-0.08307 -0.01436,-0.01492 -0.02731,-0.02928 -0.04196,-0.04364 -0.01436,-0.01464 -0.03013,-0.02816 -0.04477,-0.04224 -0.02928,-0.02985 -0.05519,-0.06082 -0.08194,-0.09208 -3.2232411,-3.407109 -3.1686146,-8.799648 0.16839,-12.136652 l 4.662402,-4.662965 c 0.674102,-0.674384 1.76804,-0.674384 2.441861,-2.82e-4 z" />
</svg>
