<?xml version="1.0" encoding="UTF-8" standalone="no"?>
<svg
   xmlns:dc="http://purl.org/dc/elements/1.1/"
   xmlns:cc="http://creativecommons.org/ns#"
   xmlns:rdf="http://www.w3.org/1999/02/22-rdf-syntax-ns#"
   xmlns:svg="http://www.w3.org/2000/svg"
   xmlns="http://www.w3.org/2000/svg"
   xmlns:sodipodi="http://sodipodi.sourceforge.net/DTD/sodipodi-0.dtd"
   xmlns:inkscape="http://www.inkscape.org/namespaces/inkscape"
   height="48"
   width="48"
   version="1"
   id="svg12"
   sodipodi:docname="smart-swf-player.svg"
   inkscape:version="0.92.1 r15371">
  <metadata
     id="metadata18">
    <rdf:RDF>
      <cc:Work
         rdf:about="">
        <dc:format>image/svg+xml</dc:format>
        <dc:type
           rdf:resource="http://purl.org/dc/dcmitype/StillImage" />
        <dc:title />
      </cc:Work>
    </rdf:RDF>
  </metadata>
  <defs
     id="defs16" />
  <sodipodi:namedview
     pagecolor="#ffffff"
     bordercolor="#666666"
     borderopacity="1"
     objecttolerance="10"
     gridtolerance="10"
     guidetolerance="10"
     inkscape:pageopacity="0"
     inkscape:pageshadow="2"
     inkscape:window-width="1600"
     inkscape:window-height="822"
     id="namedview14"
     showgrid="true"
     inkscape:zoom="8.66"
     inkscape:cx="15.483529"
     inkscape:cy="24.069494"
     inkscape:window-x="0"
     inkscape:window-y="0"
     inkscape:window-maximized="1"
     inkscape:current-layer="svg12">
    <inkscape:grid
       type="xygrid"
       id="grid4566" />
  </sodipodi:namedview>
  <rect
     transform="matrix(0,-1,-1,0,0,0)"
     rx="20"
     ry="20"
     height="40"
     width="40"
     y="-44"
     x="-44"
     id="rect2"
     style="fill:#e44444;fill-opacity:1;stroke-width:1.00005007" />
  <path
     opacity=".2"
     d="m24 4c-11.079 0-19.998 8.92-19.998 20 0 0.16772-0.004 0.33329 0 0.5 0.2642-10.846 9.087-19.5 19.998-19.5s19.734 8.6536 19.998 19.5c0.004-0.16671 0-0.33228 0-0.5 0-11.08-8.919-20-19.998-20z"
     fill="#fff"
     id="path8"
     style="opacity:0.2" />
  <path
     opacity=".2"
     d="m4.0117 24.5c-0.0041 0.167-0.0117 0.332-0.0117 0.5 0 11.08 8.92 20 20 20s20-8.92 20-20c0-0.168-0.008-0.333-0.012-0.5-0.264 10.846-9.076 19.5-19.988 19.5s-19.724-8.654-19.988-19.5z"
     id="path10" />
  <path
     sodipodi:nodetypes="cccssccssssssccsccscc"
     inkscape:connector-curvature="0"
     id="path4568"
     d="m 31.65506,11.00066 c -0.295026,0.01826 -0.960192,0.415374 -2.195683,1.281495 l -10.213831,7.508921 c -1.113083,0.884684 -2.101842,1.773903 -2.197486,1.976061 -0.320036,0.676493 0.10247,0.996089 3.29188,2.489756 2.6696,1.250239 3.293225,1.442012 3.52342,1.909214 0.233609,0.474125 0.234977,0.55839 0.01528,0.967486 -0.278931,0.519502 -2.324056,3.149712 -5.114367,6.22599 C 15.896497,36.521262 14,38.710447 14,38.859161 c 0,0.315472 0.603184,0.08159 1.310436,-0.508199 0.421634,-0.351598 1.424261,-1.0807 2.228138,-1.620092 0.803868,-0.5394 2.603929,-1.78645 4.000132,-2.771354 1.396193,-0.984896 3.542423,-2.468831 4.769386,-3.297781 4.632505,-3.129741 7.01142,-4.767259 7.34639,-5.0565 0.460691,-0.397792 0.460691,-1.131119 0,-1.539633 -0.190391,-0.16883 -1.829847,-0.876161 -3.277193,-1.571762 -3.875271,-1.862493 -4.035708,-2.145791 -2.562579,-4.523414 l 3.26457,-5.090655 c 0.422207,-0.803445 0.767452,-1.558333 0.767452,-1.67768 0,-0.139645 -0.05765,-0.209727 -0.191712,-0.201431 z"
     style="opacity:0.2;fill:#000000;fill-opacity:1;stroke-width:0.15098681" />
  <path
     style="fill:#f2c90c;stroke-width:0.15098681"
     d="m 31.65506,10.00066 c -0.295026,0.01826 -0.960192,0.415374 -2.195683,1.281495 l -10.213831,7.508921 c -1.113083,0.884684 -2.101842,1.773903 -2.197486,1.976061 -0.320036,0.676493 0.10247,0.996089 3.29188,2.489756 2.6696,1.250239 3.293225,1.442012 3.52342,1.909214 0.233609,0.474125 0.234977,0.55839 0.01528,0.967486 -0.278931,0.519502 -2.324056,3.149712 -5.114367,6.22599 C 15.896497,35.521262 14,37.710447 14,37.859161 c 0,0.315472 0.603184,0.08159 1.310436,-0.508199 0.421634,-0.351598 1.424261,-1.0807 2.228138,-1.620092 0.803868,-0.5394 2.603929,-1.78645 4.000132,-2.771354 1.396193,-0.984896 3.542423,-2.468831 4.769386,-3.297781 4.632505,-3.129741 7.01142,-4.767259 7.34639,-5.0565 0.460691,-0.397792 0.460691,-1.131119 0,-1.539633 -0.190391,-0.16883 -1.829847,-0.876161 -3.277193,-1.571762 -3.875271,-1.862493 -4.035708,-2.145791 -2.562579,-4.523414 l 3.26457,-5.090655 c 0.422207,-0.803445 0.767452,-1.558333 0.767452,-1.67768 0,-0.139645 -0.05765,-0.2097269 -0.191712,-0.201431 z"
     id="path4550"
     inkscape:connector-curvature="0"
     sodipodi:nodetypes="cccssccssssssccsccscc" />
  <path
     style="fill:#ffffff;stroke-width:0.15098681;fill-opacity:1;opacity:0.1"
     d="M 31.654297 10 C 31.359271 10.01826 30.694475 10.415129 29.458984 11.28125 L 19.246094 18.791016 C 18.133011 19.6757 17.144472 20.56542 17.048828 20.767578 C 16.912061 21.056676 16.928263 21.284275 17.220703 21.5625 C 17.550583 21.207505 18.344479 20.507623 19.246094 19.791016 L 29.458984 12.28125 C 30.521306 11.536526 31.143962 11.157368 31.490234 11.048828 C 31.692056 10.625497 31.847656 10.27524 31.847656 10.201172 C 31.847656 10.061527 31.788359 9.9917041 31.654297 10 z M 27.068359 19.375 C 26.642276 20.572995 27.438324 21.081807 30.376953 22.494141 C 31.824299 23.189742 33.463906 23.897576 33.654297 24.066406 C 33.745353 24.14715 33.804314 24.246634 33.859375 24.347656 C 34.09332 23.941079 34.028608 23.398324 33.654297 23.066406 C 33.463906 22.897576 31.824299 22.189742 30.376953 21.494141 C 28.385803 20.537174 27.380392 19.996448 27.068359 19.375 z M 23.859375 26.160156 C 23.551235 26.712835 21.52861 29.31107 18.763672 32.359375 C 15.895896 35.521054 14 37.710661 14 37.859375 C 14 38.13364 14.463044 37.97397 15.046875 37.544922 C 15.879699 36.572231 17.137118 35.152625 18.763672 33.359375 C 21.553983 30.283097 23.599975 27.652314 23.878906 27.132812 C 24.098603 26.723716 24.09689 26.640141 23.863281 26.166016 C 23.862248 26.163919 23.860424 26.162242 23.859375 26.160156 z "
     id="path4570" />
</svg>
