<svg width="48" height="48" version="1" xmlns="http://www.w3.org/2000/svg">
 <rect x="17" y="23" width="14" height="22" rx="5.6" ry="5.5" style="opacity:.2"/>
 <rect x="17" y="22" width="14" height="22" rx="5.6" ry="5.5" style="fill:#4f4f4f"/>
 <rect x="21" y="25" width="6" height="16" rx="3" ry="2.667" style="opacity:.3"/>
 <path d="m30 5.3671875v9.6328125l-6 5-6-5v-9.6191406c-4.864353 2.3092652-7.993067 7.2080796-8 12.619141 0 7.731985 6.268015 14 14 14s14-6.268015 14-14c-0.0027-5.415462-3.131437-10.322092-8-12.632812z" style="opacity:.2"/>
 <path d="m30 4.3671875v9.6328125l-6 5-6-5v-9.6191406c-4.864353 2.3092652-7.993067 7.2080796-8 12.619141 0 7.731985 6.268015 14 14 14s14-6.268015 14-14c-0.002725-5.415462-3.131437-10.322092-8-12.632812z" style="fill:#8e8e8e"/>
 <path d="m30 4.3671875v1c4.694347 2.2280338 7.761906 6.8707015 7.978516 12.054688 0.004222-0.141384 0.021484-0.279468 0.021484-0.421875-0.002725-5.415462-3.131437-10.322092-8-12.632812zm-12 0.0136719c-4.864353 2.3092652-7.993067 7.2080796-8 12.619141 0 0.142407 0.017262 0.280491 0.021484 0.421875 0.220793-5.179068 3.288565-9.8145449 7.978516-12.041016v-1zm0 9.6191406v1l6 5 6-5v-1l-6 5-6-5z" style="fill:#ffffff;opacity:.1"/>
</svg>
