<svg width="48" height="48" version="1.1" viewBox="0 0 48 48" xmlns="http://www.w3.org/2000/svg">
 <path d="m4.9960938 13.000094c0.0177702 3.478082 0.8278681 13.480212 9.1757812 21.828125 8.347913 8.347913 18.350043 9.158011 21.828125 9.175781v-7.964844c-2.122331 0.04598-9.597065-0.292377-16.171875-6.867187s-6.913167-14.049544-6.867187-16.171875h-7.9648442z" style="block-progression:tb;color-rendering:auto;color:#000000;fill-rule:evenodd;fill:#000000;image-rendering:auto;isolation:auto;mix-blend-mode:normal;opacity:.2;shape-rendering:auto;solid-color:#000000;text-decoration-color:#000000;text-decoration-line:none;text-decoration-style:solid;text-indent:0;text-transform:none;white-space:normal"/>
 <path d="m4.9960938 12c0.0177702 3.478082 0.8278681 13.480212 9.1757812 21.828125 8.347913 8.347913 18.350043 9.158011 21.828125 9.175781v-7.964844c-2.122331 0.045981-9.597065-0.292377-16.171875-6.867187s-6.913167-14.049544-6.867187-16.171875h-7.9648442z" style="block-progression:tb;color-rendering:auto;color:#000000;fill-rule:evenodd;fill:#0a76b1;image-rendering:auto;isolation:auto;mix-blend-mode:normal;shape-rendering:auto;solid-color:#000000;text-decoration-color:#000000;text-decoration-line:none;text-decoration-style:solid;text-indent:0;text-transform:none;white-space:normal"/>
 <path d="m 20,14 c 0,4.970563 -1.694702,9 -6.428571,9 C 8.8375592,23 5,18.970563 5,14 5,9.0294373 8.8375592,5 13.571429,5 18.305298,5 20,9.0294373 20,14 Z" style="fill-rule:evenodd;fill:#000000;opacity:.2"/>
 <path d="m 20,13 c 0,4.970563 -1.694702,9 -6.428571,9 C 8.8375592,22 5,17.970563 5,13 5,8.0294373 8.8375592,4 13.571429,4 18.305298,4 20,8.0294373 20,13 Z" style="fill-rule:evenodd;fill:#3eafe3"/>
 <path d="m35 29c4.970563 0 9 1.694702 9 6.428571 0 4.73387-4.029437 8.571429-9 8.571429s-9-3.837559-9-8.571429c0-4.733869 4.029437-6.428571 9-6.428571z" style="fill-rule:evenodd;fill:#000000;opacity:.2"/>
 <path d="m35 28c4.970563 0 9 1.694702 9 6.428571 0 4.73387-4.029437 8.571429-9 8.571429s-9-3.837559-9-8.571429c0-4.733869 4.029437-6.428571 9-6.428571z" style="fill-rule:evenodd;fill:#3eafe3"/>
 <path d="M 13.572266 4 C 8.8383958 4 5 8.0294373 5 13 C 5 13.168867 5.0166473 13.333426 5.0253906 13.5 C 5.2740032 8.7635223 8.999222 5 13.572266 5 C 18.143061 5 19.862285 8.7668095 19.976562 13.5 C 19.98064 13.331133 20 13.171227 20 13 C 20 8.0294373 18.306135 4 13.572266 4 z " style="fill-rule:evenodd;fill:#ffffff;opacity:.2"/>
 <path d="m35 28c-4.970563 0-9 1.693865-9 6.427734 0 0.17133 0.016934 0.338971 0.027344 0.507813 0.276724-4.352903 4.181654-5.935547 8.972656-5.935547s8.695932 1.582644 8.972656 5.935547c0.01041-0.168842 0.027344-0.336483 0.027344-0.507813 0-4.733869-4.029437-6.427734-9-6.427734z" style="fill-rule:evenodd;fill:#ffffff;opacity:.2"/>
</svg>
