<svg width="48" height="48" version="1" xmlns="http://www.w3.org/2000/svg">
 <g transform="translate(1.125e-7 1)">
  <rect transform="matrix(0,-1,-1,0,0,0)" x="-42.98" y="-43.98" width="39.964" height="39.964" rx="19.982" ry="19.982" fill="#6573c3"/>
  <path d="m38.129 8.8707-28.258 28.258c7.8276 7.8276 20.431 7.8276 28.259 0 7.8276-7.8276 7.8276-20.431 0-28.259z" opacity=".1"/>
  <path d="m24 3.0182c-11.07 0-19.982 8.9119-19.982 19.982 0 0.16757-4e-3 0.33299 0 0.49955 0.2644-10.837 9.08-19.483 19.982-19.483s19.718 8.6458 19.982 19.482c4e-3 -0.16656 0-0.33198 0-0.49955 0-11.069-8.912-19.981-19.982-19.981z" fill="#fff" opacity=".2"/>
  <path d="m9.8707 37.129 12.363-15.895 3.5323 3.5323z" fill="#f2f2f2"/>
  <path d="m38.129 8.8707-15.895 12.363 3.532 3.532z" fill="#f34235"/>
  <path d="m38.129 8.8707-28.258 28.258c-7.8276-7.8276-7.8276-20.431 0-28.259 7.8276-7.8276 20.431-7.8276 28.259 0z" fill="#fff" opacity=".2"/>
 </g>
 <path d="m4.0312 24.526c-0.0039 0.164-0.0136 0.327-0.0136 0.492 0 11.07 8.9124 19.982 19.982 19.982s19.982-8.912 19.982-19.982c0-0.165-9e-3 -0.328-0.013-0.492-0.26 10.841-9.064 19.492-19.969 19.492s-19.709-8.651-19.969-19.492z" opacity=".2"/>
</svg>
