<svg width="48" height="48" version="1" xmlns="http://www.w3.org/2000/svg">
 <path d="m5.5345836 27c-0.1634865-4.33e-4 -3.2685518-9.42e-4 -0.1536258 2.783203l16.563286 14.400391c0.615085 0.534797 1.249599 0.80623 2.055756 0.816406 0.806157-0.01018 1.440671-0.281609 2.055756-0.816406l16.563286-14.400391c3.114926-2.784145 0.009861-2.783636-0.153626-2.783203h-36.930832z" style="fill-rule:evenodd;opacity:.2"/>
 <path d="m13 4c-0.831 0-2 0.892-2 2v21h26v-21c0-1.108-1.169-2-2-2z" style="fill:#58992d"/>
 <path d="m5.5345836 26c-0.1634865-4.33e-4 -3.2685518-9.42e-4 -0.1536258 2.783203l16.563286 14.400391c0.615085 0.534797 1.249599 0.80623 2.055756 0.816406 0.806157-0.01018 1.440671-0.281609 2.055756-0.816406l16.563286-14.400391c3.114926-2.784145 0.009861-2.783636-0.153626-2.783203h-36.930832z" style="fill-rule:evenodd;fill:#81d547"/>
 <path d="m13 4c-0.831 0-2 0.892-2 2v1c0-1.108 1.169-2 2-2h22c0.831 0 2 0.892 2 2v-1c0-1.108-1.169-2-2-2h-22z" style="fill:#ffffff;opacity:.1"/>
 <path d="m5.5351562 26c-0.1299387-3.44e-4 -2.1089281 0.004636-1.3554687 1.402344 0.3837086-0.398853 1.2699117-0.402571 1.3554687-0.402344h36.929688c0.085557-2.27e-4 0.97176 0.003491 1.355468 0.402344 0.75346-1.397708-1.225529-1.402688-1.355468-1.402344h-36.929688z" style="fill-rule:evenodd;fill:#ffffff;opacity:.2"/>
</svg>
