<svg width="48" height="48" version="1" xmlns="http://www.w3.org/2000/svg">
 <rect transform="matrix(0,-1,-1,0,0,0)" x="-44" y="-44" width="40" height="40" rx="20" ry="20" fill="#37a0f2"/>
 <path d="m22 15c-0.554 0-1 0.32812-1 0.73633v11.264h-4l7 9 7-9h-4v-11.264c0-0.408-0.446-0.736-1-0.736h-4zm2 21h-8.0996c-0.498 0-0.9 0.446-0.9 1s0.40179 1 0.90039 1h16.199c0.499 0 0.901-0.446 0.901-1s-0.402-1-0.9-1h-8.1z" opacity=".2"/>
 <path d="m24 4c-11.08 0-20 8.92-20 20 0 0.168-4e-3 0.333 0 0.5 0.2644-10.846 9.088-19.5 20-19.5s19.736 8.654 20 19.5c4e-3 -0.167 0-0.332 0-0.5 0-11.08-8.92-20-20-20z" fill="#fff" opacity=".2"/>
 <path d="m22 14c-0.554 0-1 0.32812-1 0.73633v11.264h-4l7 9 7-9h-4v-11.264c0-0.408-0.446-0.736-1-0.736h-4zm2 21h-8.0996c-0.498 0-0.9 0.446-0.9 1s0.40179 1 0.90039 1h16.199c0.499 0 0.901-0.446 0.901-1s-0.402-1-0.9-1h-8.1z" fill="#fff"/>
 <path d="m4.0117 24.5c-0.0041 0.167-0.0117 0.332-0.0117 0.5 0 11.08 8.92 20 20 20s20-8.92 20-20c0-0.168-8e-3 -0.333-0.012-0.5-0.264 10.846-9.076 19.5-19.988 19.5s-19.724-8.654-19.988-19.5z" opacity=".2"/>
</svg>
