<svg width="48" height="48" version="1" xmlns="http://www.w3.org/2000/svg">
 <rect transform="matrix(0,-1,-1,0,0,0)" x="-44" y="-44" width="40" height="40" rx="2" ry="2" fill="#e94a63" style="fill:#3f3f3f"/>
 <path d="m12 20.899506v14.100494c0 1.108 0.892 2 2 2s2-0.892 2-2v-14.100494zm10 7.495881v6.604613c0 1.108 0.892 2 2 2s2-0.892 2-2v-6.275124zm10-6.836903v13.441516c0 1.108 0.892 2 2 2s2-0.892 2-2v-13.276771z" style="fill:#007dba"/>
 <path d="m6 4c-1.108 0-2 0.892-2 2v1c0-1.108 0.892-2 2-2h36c1.108 0 2 0.892 2 2v-1c0-1.108-0.892-2-2-2h-36z" fill="#fff" opacity=".2" style="opacity:.1"/>
 <path d="m6 45c-1.108 0-2-0.892-2-2v-1c0 1.108 0.892 2 2 2h36c1.108 0 2-0.892 2-2v1c0 1.108-0.892 2-2 2h-36z" opacity=".2"/>
 <path d="m14 13c-1.108 0-2 0.892-2 2v5.900391h4v-5.900391c0-1.108-0.892-2-2-2zm10 0c-1.108 0-2 0.892-2 2v13.394531l4 0.330078v-13.724609c0-1.108-0.892-2-2-2zm10 0c-1.108 0-2 0.892-2 2v6.558594l4 0.164062v-6.722656c0-1.108-0.892-2-2-2z" style="fill:#000000;opacity:.3"/>
 <path d="m18 22a4 4 0 0 1-4 4 4 4 0 0 1-4-4 4 4 0 0 1 4-4 4 4 0 0 1 4 4z" opacity=".2"/>
 <path d="m18 21a4 4 0 0 1-4 4 4 4 0 0 1-4-4 4 4 0 0 1 4-4 4 4 0 0 1 4 4z" fill="#fff" style="fill:#4f4f4f"/>
 <path d="m28 30a4 4 0 0 1-4 4 4 4 0 0 1-4-4 4 4 0 0 1 4-4 4 4 0 0 1 4 4z" opacity=".2"/>
 <path d="m28 29a4 4 0 0 1-4 4 4 4 0 0 1-4-4 4 4 0 0 1 4-4 4 4 0 0 1 4 4z" fill="#fff" style="fill:#4f4f4f"/>
 <path d="m38 23a4 4 0 0 1-4 4 4 4 0 0 1-4-4 4 4 0 0 1 4-4 4 4 0 0 1 4 4z" opacity=".2"/>
 <path d="m38 22a4 4 0 0 1-4 4 4 4 0 0 1-4-4 4 4 0 0 1 4-4 4 4 0 0 1 4 4z" fill="#fff" style="fill:#4f4f4f"/>
</svg>
