<svg width="48" height="48" version="1" xmlns="http://www.w3.org/2000/svg">
 <rect transform="matrix(0,-1,-1,0,0,0)" x="-29" y="-34" width="24" height="20" rx="10" ry="10" style="opacity:.2"/>
 <path d="m11 18a2 2 0 0 0-2 2v2.5c0 6.358104 5.644991 11.564906 13 12.376953v6.123047h-8a2 2 0 0 0-2 2 2 2 0 0 0 2 2h20a2 2 0 0 0 2-2 2 2 0 0 0-2-2h-8v-6.123047c7.355009-0.812047 13-6.018849 13-12.376953v-2.5a2 2 0 0 0-2-2 2 2 0 0 0-2 2v1.833984c0 5.078-4.906 9.166016-11 9.166016s-11-4.088016-11-9.166016v-1.833984a2 2 0 0 0-2-2z" style="opacity:.2"/>
 <path d="m11 17a2 2 0 0 0-2 2v2.5c0 6.358104 5.644991 11.564906 13 12.376953v6.123047h-8a2 2 0 0 0-2 2 2 2 0 0 0 2 2h20a2 2 0 0 0 2-2 2 2 0 0 0-2-2h-8v-6.123047c7.355009-0.812047 13-6.018849 13-12.376953v-2.5a2 2 0 0 0-2-2 2 2 0 0 0-2 2v1.833984c0 5.078-4.906 9.166016-11 9.166016s-11-4.088016-11-9.166016v-1.833984a2 2 0 0 0-2-2z" style="fill:#4f4f4f"/>
 <rect transform="matrix(0,-1,-1,0,0,0)" x="-28" y="-34" width="24" height="20" rx="10" ry="10" style="fill:#8e8e8e"/>
 <path d="m11 17a2 2 0 0 0-2 2v1a2 2 0 0 1 2-2 2 2 0 0 1 2 2v-1a2 2 0 0 0-2-2zm26 0a2 2 0 0 0-2 2v1a2 2 0 0 1 2-2 2 2 0 0 1 2 2v-1a2 2 0 0 0-2-2zm-24 3.833984v1c0 5.078 4.906 9.166016 11 9.166016s11-4.088016 11-9.166016v-1c0 5.078-4.906 9.166016-11 9.166016s-11-4.088016-11-9.166016zm1 19.166016a2 2 0 0 0-2 2 2 2 0 0 0 0.064453 0.496094 2 2 0 0 1 1.935547-1.496094h8v-1h-8zm12 0v1h8a2 2 0 0 1 1.935547 1.503906 2 2 0 0 0 0.064453-0.503906 2 2 0 0 0-2-2h-8z" style="fill:#ffffff;opacity:.1"/>
 <path d="m24 4c-5.54 0-10 4.46-10 10v1c0-5.54 4.46-10 10-10s10 4.46 10 10v-1c0-5.54-4.46-10-10-10z" style="fill:#ffffff;opacity:.1"/>
</svg>
