<svg width="48" height="48" version="1" xmlns="http://www.w3.org/2000/svg">
 <rect transform="matrix(0,-1,-1,0,0,0)" x="-40" y="-44" width="32" height="40" rx="2" ry="2" style="fill:#325f78"/>
 <rect transform="matrix(0,-1,-1,0,0,0)" x="-37" y="-41" width="26" height="34" rx="0" ry="0" style="opacity:.2"/>
 <path d="m6 8c-1.108 0-2 0.892-2 2v1c0-1.108 0.892-2 2-2h36c1.108 0 2 0.892 2 2v-1c0-1.108-0.892-2-2-2h-36z" fill="#fff" style="opacity:.1"/>
 <path d="m4 38v1c0 1.108 0.892 2 2 2h36c1.108 0 2-0.892 2-2v-1c0 1.108-0.892 2-2 2h-36c-1.108 0-2-0.892-2-2z" opacity=".2"/>
 <g transform="translate(2,5)">
  <circle cx="33" cy="30" r="12" fill="#4aa4e9"/>
  <path d="m31 24-1.1111 0.99938h-2.6979c-1.1908 0-1.191 1.0562-1.191 1.0562v8.7778c0 1.1713 1.191 1.1667 1.191 1.1667h11.642c1.1667 0 1.1667-1.1667 1.1667-1.1667v-8.6673c0-1.1667-1.1667-1.1667-1.1667-1.1667h-2.7222l-1.111-0.999zm2 3.0556c1.933 0 3.5 1.567 3.5 3.5s-1.567 3.5-3.5 3.5-3.5-1.567-3.5-3.5 1.567-3.5 3.5-3.5zm0 1.1667c-1.2887 0-2.3333 1.0447-2.3333 2.3333s1.0447 2.3333 2.3333 2.3333c1.2887 0 2.3333-1.0447 2.3333-2.3333 0-1.2887-1.0447-2.3333-2.3333-2.3333z" fill="#fff"/>
  <path d="m44.98 30.406a12 12 0 0 1-11.98 11.594 12 12 0 0 1-11.98-11.406 12 12 0 0 0-0.02 0.406 12 12 0 0 0 12 12 12 12 0 0 0 12-12 12 12 0 0 0-0.02-0.594z" opacity=".2"/>
 </g>
</svg>
