<svg width="48" height="48" version="1" xmlns="http://www.w3.org/2000/svg">
 <path d="m43 27c0 5.348164-2.099207 10.206031-5.518609 13.794592-3.642774 3.822983-9.698494 0.0062-15.396025 0.0062-5.784925 0-10.081569 3.743114-13.733324-0.183155-3.3208804-3.5705-5.3520418-8.356867-5.3520418-13.617637 0-11.045695 8.954305-20 20-20s20 8.954305 20 20z" style="fill:#0091cf"/>
 <path d="M 23,7 A 20,20 0 0 0 3,27 20,20 0 0 0 3.0214844,27.582031 20,20 0 0 1 23,8 20,20 0 0 1 42.978516,27.417969 20,20 0 0 0 43,27 20,20 0 0 0 23,7 Z" style="fill:#ffffff;opacity:.1"/>
 <path d="m31 6-4 4h-6v6l-4 4 4 4v6h6l4 4 4-4h6v-6l4-4-4-4v-6h-6z" style="opacity:.2"/>
 <path d="m31 5-4 4h-6v6l-4 4 4 4v6h6l4 4 4-4h6v-6l4-4-4-4v-6h-6z" style="fill:#ff8a47"/>
 <circle cx="31" cy="20" r="8" style="opacity:.2"/>
 <circle cx="31" cy="19" r="8" style="fill:#ffcc42"/>
 <path d="m31 5-4 4h-6v1h6l4-4 4 4h6v-1h-6zm-10 10-4 4 0.5 0.5 3.5-3.5zm20 0v1l3.5 3.5 0.5-0.5z" style="fill:#ffffff;opacity:.2"/>
 <path d="m 31,11 a 8,8 0 0 0 -8,8 8,8 0 0 0 0.02148,0.576172 A 8,8 0 0 1 31,12 8,8 0 0 1 38.978516,19.423828 8,8 0 0 0 39,19 8,8 0 0 0 31,11 Z" style="fill:#ffffff;opacity:.2"/>
 <circle cx="23" cy="33" r="8" style="opacity:.2"/>
 <path d="m 23,25 a 8,8 0 0 0 -8,8 8,8 0 0 0 0.01172,0.355469 A 6,6 0 0 0 13,33 6,6 0 0 0 7,39 6,6 0 0 0 13,45 H 33 A 6,6 0 0 0 39,39 6,6 0 0 0 33,33 6,6 0 0 0 30.982422,33.355469 8,8 0 0 0 31,33 8,8 0 0 0 23,25 Z" style="opacity:.2"/>
 <circle cx="13" cy="38" r="6" style="fill:#ffffff"/>
 <circle cx="23" cy="32" r="8" style="fill:#ffffff"/>
 <circle cx="33" cy="38" r="6" style="fill:#ffffff"/>
 <rect x="13" y="36" width="20" height="8" style="fill:#ffffff"/>
</svg>
