<svg width="48" height="48" version="1" xmlns="http://www.w3.org/2000/svg">
 <path d="m39.953125 6.0527344c-0.293001-0.00432-0.62883 0.025377-1.011719 0.09375l-21.802734 4.2929686c-3.228704 0.321657-3.138672 2.560547-3.138672 3.560547v14.265625a8 8 0 0 0-2-0.265625 8 8 0 0 0-8 8 8 8 0 0 0 8 8 8 8 0 0 0 8-8v-20.070312l16-3.257813v10.59375a8 8 0 0 0-2-0.265625 8 8 0 0 0-8 8 8 8 0 0 0 8 8 8 8 0 0 0 8-8v-22.400391c2.54e-4 -0.875 0.0041-2.5166422-2.046875-2.546875z" style="opacity:.2"/>
 <path d="m39.953125 5.0527344c-0.293001-0.004319-0.62883 0.025377-1.011719 0.09375l-21.802734 4.2929687c-3.228704 0.3216573-3.138672 2.5605469-3.138672 3.5605469v14.265625a8 8 0 0 0-2-0.265625 8 8 0 0 0-8 8 8 8 0 0 0 8 8 8 8 0 0 0 8-8v-20.070312l16-3.257813v10.59375a8 8 0 0 0-2-0.265625 8 8 0 0 0-8 8 8 8 0 0 0 8 8 8 8 0 0 0 8-8v-22.400391c2.54e-4 -0.875 0.004132-2.5166422-2.046875-2.546875z" style="fill:#5fbb20"/>
 <path d="m39.953125 5.0527344c-0.293001-0.004319-0.62883 0.025377-1.011719 0.09375l-21.802734 4.2929687c-3.228704 0.3216573-3.138672 2.5605469-3.138672 3.5605469v1c0-1-0.090032-3.23889 3.138672-3.560547l21.802734-4.2929686c0.382889-0.068373 0.718718-0.09807 1.011719-0.09375 2.050975 0.0302328 2.047129 1.671875 2.046875 2.546875v-1c2.54e-4 -0.875 0.004132-2.5166422-2.046875-2.546875zm-5.953125 16.947266a8 8 0 0 0-8 8 8 8 0 0 0 0.021484 0.423828 8 8 0 0 1 7.978516-7.423828 8 8 0 0 1 2 0.265625v-1a8 8 0 0 0-2-0.265625zm-22 5a8 8 0 0 0-8 8 8 8 0 0 0 0.0214844 0.423828 8 8 0 0 1 7.9785156-7.423828 8 8 0 0 1 2 0.265625v-1a8 8 0 0 0-2-0.265625z" style="fill:#ffffff;opacity:.2"/>
</svg>
