<svg width="48" height="48" version="1" xmlns="http://www.w3.org/2000/svg">
 <rect x="6" y="4" width="36" height="24" rx="1.5" ry="1.5" style="fill:#5294e2"/>
 <rect x="6" y="7" width="36" height="24" rx="1.5" ry="1.5" style="opacity:.1"/>
 <rect x="6" y="8" width="36" height="24" rx="1.5" ry="1.5" style="fill:#89e058"/>
 <rect x="6" y="11" width="36" height="24" rx="1.5" ry="1.5" style="opacity:.1"/>
 <rect x="6" y="12" width="36" height="24" rx="1.5" ry="1.5" style="fill:#ffcd54"/>
 <rect x="4" y="17" width="40" height="28" rx="2" ry="2" style="opacity:.2"/>
 <rect x="4" y="16" width="40" height="28" rx="2" ry="2" style="fill:#8e8e8e"/>
 <rect x="17" y="28" width="14" height="4" rx="1" ry="1" style="opacity:.2"/>
 <rect x="17" y="27" width="14" height="4" rx="1" ry="1" style="fill:#ececec"/>
 <path d="m7.5 4c-0.831 0-1.5 0.669-1.5 1.5v1c0-0.831 0.669-1.5 1.5-1.5h33c0.831 0 1.5 0.669 1.5 1.5v-1c0-0.831-0.669-1.5-1.5-1.5h-33z" style="fill:#ffffff;opacity:.1"/>
 <path d="m7.5 8c-0.831 0-1.5 0.669-1.5 1.5v1c0-0.831 0.669-1.5 1.5-1.5h33c0.831 0 1.5 0.669 1.5 1.5v-1c0-0.831-0.669-1.5-1.5-1.5z" style="fill:#ffffff;opacity:.1"/>
 <path d="m7.5 12c-0.831 0-1.5 0.669-1.5 1.5v1c0-0.831 0.669-1.5 1.5-1.5h33c0.831 0 1.5 0.669 1.5 1.5v-1c0-0.831-0.669-1.5-1.5-1.5z" style="fill:#ffffff;opacity:.1"/>
</svg>
