<svg width="48" height="48" version="1" xmlns="http://www.w3.org/2000/svg">
 <rect transform="matrix(0,-1,-1,0,0,0)" x="-45" y="-44" width="40" height="40" rx="20" ry="20" opacity=".2"/>
 <rect transform="matrix(0,-1,-1,0,0,0)" x="-44" y="-44" width="40" height="40" rx="20" ry="20" fill="#5d5d5d"/>
 <circle cx="24" cy="24" r="12" fill="#3f3f3f"/>
 <circle transform="scale(1,-1)" cx="24" cy="-25" r="9" opacity=".2"/>
 <circle transform="scale(1,-1)" cx="24" cy="-24" r="9" fill="#ba174e"/>
 <path d="m24 4c-11.08 0-20 8.92-20 20 0 0.168 0.0076 0.333 0.0117 0.5 0.2647-10.846 9.0763-19.5 19.988-19.5s19.724 8.654 19.988 19.5c4e-3 -0.167 0.012-0.332 0.012-0.5 0-11.08-8.92-20-20-20z" fill="#fff" opacity=".1"/>
 <circle cx="24" cy="25" r="6" opacity=".2"/>
 <circle cx="24" cy="24" r="6" fill="#d67495"/>
</svg>
