<svg width="48" height="48" version="1.1" viewBox="0 0 48 48" xmlns="http://www.w3.org/2000/svg">
 <circle cx="24" cy="25" r="20" style="opacity:.2"/>
 <circle cx="24" cy="24" r="20" style="fill:#4f4f4f"/>
 <path d="M 24,4 A 20,20 0 0 0 4,24 20,20 0 0 0 4.0215,24.582 20,20 0 0 1 24,5 20,20 0 0 1 43.979,24.418 20,20 0 0 0 44,24 20,20 0 0 0 24,4 Z" style="fill:#ffffff;opacity:.1"/>
 <path d="m20.31968 11.001571a1.6092458 1.6095913 0 0 1 1.68032 1.607335v8.781664a1.6092458 1.6095913 0 0 1-1.609085 1.60943h-8.781874a1.6092458 1.6095913 0 0 1-1.592324-1.840996c0.763569-5.246425 4.897132-9.380762 10.142682-10.142763a1.6092458 1.6095913 0 0 1 0.160281-0.01467z" style="block-progression:tb;color-rendering:auto;color:#000000;fill:#000000;image-rendering:auto;isolation:auto;mix-blend-mode:normal;opacity:.2;shape-rendering:auto;solid-color:#000000;text-decoration-color:#000000;text-decoration-line:none;text-decoration-style:solid;text-indent:0;text-transform:none;white-space:normal"/>
 <path d="m20.31968 10.001571a1.6092458 1.6095913 0 0 1 1.68032 1.607335v8.781664a1.6092458 1.6095913 0 0 1-1.609085 1.60943h-8.781874a1.6092458 1.6095913 0 0 1-1.592324-1.840996c0.763569-5.246425 4.897132-9.380762 10.142682-10.142763a1.6092458 1.6095913 0 0 1 0.160281-0.01467z" style="block-progression:tb;color-rendering:auto;color:#000000;fill:#ffffff;image-rendering:auto;isolation:auto;mix-blend-mode:normal;shape-rendering:auto;solid-color:#000000;text-decoration-color:#000000;text-decoration-line:none;text-decoration-style:solid;text-indent:0;text-transform:none;white-space:normal"/>
 <path d="m27.68032 11.001571a1.6092458 1.6095913 0 0 0-1.68032 1.607335v8.781664a1.6092458 1.6095913 0 0 0 1.609085 1.60943h8.781874a1.6092458 1.6095913 0 0 0 1.592324-1.840996c-0.763569-5.246425-4.897132-9.380762-10.142682-10.142763a1.6092458 1.6095913 0 0 0-0.160281-0.01467z" style="block-progression:tb;color-rendering:auto;color:#000000;fill:#000000;image-rendering:auto;isolation:auto;mix-blend-mode:normal;opacity:.2;shape-rendering:auto;solid-color:#000000;text-decoration-color:#000000;text-decoration-line:none;text-decoration-style:solid;text-indent:0;text-transform:none;white-space:normal"/>
 <path d="m27.68032 10.001571a1.6092458 1.6095913 0 0 0-1.68032 1.607335v8.781664a1.6092458 1.6095913 0 0 0 1.609085 1.60943h8.781874a1.6092458 1.6095913 0 0 0 1.592324-1.840996c-0.763569-5.246425-4.897132-9.380762-10.142682-10.142763a1.6092458 1.6095913 0 0 0-0.160281-0.01467z" style="block-progression:tb;color-rendering:auto;color:#000000;fill:#ffffff;image-rendering:auto;isolation:auto;mix-blend-mode:normal;shape-rendering:auto;solid-color:#000000;text-decoration-color:#000000;text-decoration-line:none;text-decoration-style:solid;text-indent:0;text-transform:none;white-space:normal"/>
 <g transform="matrix(1,0,0,-1,0,49)" style="fill:#000000;opacity:.2">
  <path d="m20.31968 10.001571a1.6092458 1.6095913 0 0 1 1.68032 1.607335v8.781664a1.6092458 1.6095913 0 0 1-1.609085 1.60943h-8.781874a1.6092458 1.6095913 0 0 1-1.592324-1.840996c0.763569-5.246425 4.897132-9.380762 10.142682-10.142763a1.6092458 1.6095913 0 0 1 0.160281-0.01467z" style="block-progression:tb;color-rendering:auto;color:#000000;fill:#000000;image-rendering:auto;isolation:auto;mix-blend-mode:normal;opacity:1;shape-rendering:auto;solid-color:#000000;text-decoration-color:#000000;text-decoration-line:none;text-decoration-style:solid;text-indent:0;text-transform:none;white-space:normal"/>
  <path d="m27.68032 10.001571a1.6092458 1.6095913 0 0 0-1.68032 1.607335v8.781664a1.6092458 1.6095913 0 0 0 1.609085 1.60943h8.781874a1.6092458 1.6095913 0 0 0 1.592324-1.840996c-0.763569-5.246425-4.897132-9.380762-10.142682-10.142763a1.6092458 1.6095913 0 0 0-0.160281-0.01467z" style="block-progression:tb;color-rendering:auto;color:#000000;fill:#000000;image-rendering:auto;isolation:auto;mix-blend-mode:normal;opacity:1;shape-rendering:auto;solid-color:#000000;text-decoration-color:#000000;text-decoration-line:none;text-decoration-style:solid;text-indent:0;text-transform:none;white-space:normal"/>
 </g>
 <g transform="matrix(1,0,0,-1,0,48)" style="fill:#ffffff">
  <path d="m20.31968 10.001571a1.6092458 1.6095913 0 0 1 1.68032 1.607335v8.781664a1.6092458 1.6095913 0 0 1-1.609085 1.60943h-8.781874a1.6092458 1.6095913 0 0 1-1.592324-1.840996c0.763569-5.246425 4.897132-9.380762 10.142682-10.142763a1.6092458 1.6095913 0 0 1 0.160281-0.01467z" style="block-progression:tb;color-rendering:auto;color:#000000;fill:#ffffff;image-rendering:auto;isolation:auto;mix-blend-mode:normal;shape-rendering:auto;solid-color:#000000;text-decoration-color:#000000;text-decoration-line:none;text-decoration-style:solid;text-indent:0;text-transform:none;white-space:normal"/>
  <path d="m27.68032 10.001571a1.6092458 1.6095913 0 0 0-1.68032 1.607335v8.781664a1.6092458 1.6095913 0 0 0 1.609085 1.60943h8.781874a1.6092458 1.6095913 0 0 0 1.592324-1.840996c-0.763569-5.246425-4.897132-9.380762-10.142682-10.142763a1.6092458 1.6095913 0 0 0-0.160281-0.01467z" style="block-progression:tb;color-rendering:auto;color:#000000;fill:#ffffff;image-rendering:auto;isolation:auto;mix-blend-mode:normal;shape-rendering:auto;solid-color:#000000;text-decoration-color:#000000;text-decoration-line:none;text-decoration-style:solid;text-indent:0;text-transform:none;white-space:normal"/>
 </g>
</svg>
