<svg width="48" height="48" version="1" xmlns="http://www.w3.org/2000/svg">
 <path d="m6.2222 6c-1.2311 0-2.2222 1.2689-2.2222 2.5v26c0 1.231 0.9911 2.5 2.2222 2.5h18.778l5 5 5-5h6.7778c1.231 0 2.222-1.269 2.222-2.5v-26c0-1.2311-0.991-2.5-2.222-2.5z" style="fill:#ff8e34"/>
 <path d="m4 34.5v1c0 1.231 0.9915 2.5 2.2227 2.5h18.777l5 5 5-5h6.777c1.231 0 2.223-1.269 2.223-2.5v-1c0 1.231-0.992 2.5-2.223 2.5h-6.777l-5 5-5-5h-18.777c-1.2315 0-2.223-1.269-2.223-2.5z" style="opacity:.2"/>
 <path d="m6.2227 6c-1.2312 0-2.2227 1.2689-2.2227 2.5v1c0-1.2311 0.9915-2.5 2.2227-2.5h35.554c1.231 0 2.223 1.2689 2.223 2.5v-1c0-1.2311-0.992-2.5-2.223-2.5h-35.554z" style="fill:#ffffff;opacity:.2"/>
 <path d="m18 17a2 2 0 0 0-2 2 2 2 0 0 0 2 2 2 2 0 0 0 2-2 2 2 0 0 0-2-2zm12 0a2 2 0 0 0-2 2 2 2 0 0 0 2 2 2 2 0 0 0 2-2 2 2 0 0 0-2-2zm4.990234 5.986328a1.0001 1.0001 0 0 0-0.697265 0.306641s-3.673921 3.707031-10.292969 3.707031-10.292969-3.707031-10.292969-3.707031a1.0001 1.0001 0 0 0-0.716797-0.302735 1.0001 1.0001 0 0 0-0.697265 1.716797s4.326079 4.292969 11.707031 4.292969 11.707031-4.292969 11.707031-4.292969a1.0001 1.0001 0 0 0-0.716797-1.720703z" style="fill-rule:evenodd;fill:#000000;opacity:.2"/>
 <circle cx="18" cy="18" r="2" style="fill-rule:evenodd;fill:#3f3f3f"/>
 <circle cx="30" cy="18" r="2" style="fill-rule:evenodd;fill:#3f3f3f"/>
 <path d="m13 23s4 4 11 4 11-4 11-4" style="fill:none;stroke-linecap:round;stroke-linejoin:round;stroke-width:2;stroke:#3f3f3f"/>
</svg>
