<?xml version="1.0" encoding="UTF-8" standalone="no"?>
<svg
   xmlns:dc="http://purl.org/dc/elements/1.1/"
   xmlns:cc="http://creativecommons.org/ns#"
   xmlns:rdf="http://www.w3.org/1999/02/22-rdf-syntax-ns#"
   xmlns:svg="http://www.w3.org/2000/svg"
   xmlns="http://www.w3.org/2000/svg"
   xmlns:sodipodi="http://sodipodi.sourceforge.net/DTD/sodipodi-0.dtd"
   xmlns:inkscape="http://www.inkscape.org/namespaces/inkscape"
   height="48"
   width="48"
   version="1"
   id="svg12"
   sodipodi:docname="tangram-browser.svg"
   inkscape:version="0.92.1 r15371">
  <metadata
     id="metadata18">
    <rdf:RDF>
      <cc:Work
         rdf:about="">
        <dc:format>image/svg+xml</dc:format>
        <dc:type
           rdf:resource="http://purl.org/dc/dcmitype/StillImage" />
        <dc:title></dc:title>
      </cc:Work>
    </rdf:RDF>
  </metadata>
  <defs
     id="defs16" />
  <sodipodi:namedview
     pagecolor="#ffffff"
     bordercolor="#666666"
     borderopacity="1"
     objecttolerance="10"
     gridtolerance="10"
     guidetolerance="10"
     inkscape:pageopacity="0"
     inkscape:pageshadow="2"
     inkscape:window-width="1600"
     inkscape:window-height="822"
     id="namedview14"
     showgrid="false"
     inkscape:zoom="9.95"
     inkscape:cx="25.28147"
     inkscape:cy="29.113673"
     inkscape:window-x="0"
     inkscape:window-y="0"
     inkscape:window-maximized="1"
     inkscape:current-layer="svg12">
    <inkscape:grid
       type="xygrid"
       id="grid4500" />
  </sodipodi:namedview>
  <path
     style="opacity:0.2;vector-effect:none;fill:#000000;fill-opacity:1;stroke:none;stroke-width:0.43934309;stroke-linecap:round;stroke-linejoin:round;stroke-miterlimit:4;stroke-dasharray:none;stroke-dashoffset:0;stroke-opacity:1"
     d="m 34.02071,22.000235 a 0.883704,0.87387165 0 0 0 -0.462518,0.116904 l -7.116384,4.062585 A 0.883704,0.87387165 0 0 0 26,26.936606 v 8.126023 a 0.883704,0.87387165 0 0 0 0.441808,0.756881 l 7.116384,4.063439 a 0.883704,0.87387165 0 0 0 0.883616,0 l 7.116385,-4.063438 A 0.883704,0.87387165 0 0 0 42,35.062629 V 26.936606 A 0.883704,0.87387165 0 0 0 41.558193,26.179724 L 34.441808,22.117139 A 0.883704,0.87387165 0 0 0 34.02071,22.000235 Z"
     id="path4718"
     inkscape:connector-curvature="0" />
  <path
     inkscape:connector-curvature="0"
     id="path4720"
     d="m 14.02071,22.000235 a 0.883704,0.87387165 0 0 0 -0.462518,0.116904 L 6.441808,26.179724 A 0.883704,0.87387165 0 0 0 6,26.936606 v 8.126023 a 0.883704,0.87387165 0 0 0 0.441808,0.756881 l 7.116384,4.063439 a 0.883704,0.87387165 0 0 0 0.883616,0 l 7.116385,-4.063438 A 0.883704,0.87387165 0 0 0 22,35.062629 V 26.936606 A 0.883704,0.87387165 0 0 0 21.558193,26.179724 L 14.441808,22.117139 A 0.883704,0.87387165 0 0 0 14.02071,22.000235 Z"
     style="opacity:0.2;vector-effect:none;fill:#000000;fill-opacity:1;stroke:none;stroke-width:0.43934309;stroke-linecap:round;stroke-linejoin:round;stroke-miterlimit:4;stroke-dasharray:none;stroke-dashoffset:0;stroke-opacity:1" />
  <path
     style="opacity:0.2;vector-effect:none;fill:#000000;fill-opacity:1;stroke:none;stroke-width:0.43934309;stroke-linecap:round;stroke-linejoin:round;stroke-miterlimit:4;stroke-dasharray:none;stroke-dashoffset:0;stroke-opacity:1"
     d="m 24.02071,27.000236 a 0.883704,0.87387165 0 0 0 -0.462518,0.116904 l -7.116384,4.062584 A 0.883704,0.87387165 0 0 0 16,31.936607 v 8.126022 a 0.883704,0.87387165 0 0 0 0.441808,0.756882 l 7.116384,4.063438 a 0.883704,0.87387165 0 0 0 0.883616,0 l 7.116385,-4.063438 A 0.883704,0.87387165 0 0 0 32,40.062629 V 31.936607 A 0.883704,0.87387165 0 0 0 31.558193,31.179724 L 24.441808,27.11714 A 0.883704,0.87387165 0 0 0 24.02071,27.000236 Z"
     id="path4722"
     inkscape:connector-curvature="0" />
  <path
     inkscape:connector-curvature="0"
     id="path4545"
     d="m 34.02071,21.000235 a 0.883704,0.87387165 0 0 0 -0.462518,0.116904 l -7.116384,4.062585 A 0.883704,0.87387165 0 0 0 26,25.936606 v 8.126023 a 0.883704,0.87387165 0 0 0 0.441808,0.756881 l 7.116384,4.063439 a 0.883704,0.87387165 0 0 0 0.883616,0 l 7.116385,-4.063438 A 0.883704,0.87387165 0 0 0 42,34.062629 V 25.936606 A 0.883704,0.87387165 0 0 0 41.558193,25.179724 L 34.441808,21.117139 A 0.883704,0.87387165 0 0 0 34.02071,21.000235 Z"
     style="opacity:1;vector-effect:none;fill:#eb5f2e;fill-opacity:1;stroke:none;stroke-width:0.43934309;stroke-linecap:round;stroke-linejoin:round;stroke-miterlimit:4;stroke-dasharray:none;stroke-dashoffset:0;stroke-opacity:1" />
  <path
     sodipodi:nodetypes="ccccccccc"
     style="opacity:1;vector-effect:none;fill:#f36f37;fill-opacity:1;stroke:none;stroke-width:0.43934309;stroke-linecap:round;stroke-linejoin:round;stroke-miterlimit:4;stroke-dasharray:none;stroke-dashoffset:0;stroke-opacity:1"
     d="m 34,21.000235 v 17.999554 c 0.146052,-0.0032 0.310912,-0.04212 0.441808,-0.116841 L 41.558193,34.81951 C 41.831622,34.663381 42.000041,34.374854 42,34.062629 v -8.126022 c 4.1e-5,-0.312227 -0.168378,-0.600754 -0.441807,-0.756883 L 34.441808,21.117139 C 34.313565,21.043894 34.148054,21.003695 34,21.000235 Z"
     id="path4547"
     inkscape:connector-curvature="0" />
  <path
     sodipodi:nodetypes="cccccccccccccc"
     style="opacity:1;vector-effect:none;fill:#e15126;fill-opacity:1;stroke:none;stroke-width:0.43934309;stroke-linecap:round;stroke-linejoin:round;stroke-miterlimit:4;stroke-dasharray:none;stroke-dashoffset:0;stroke-opacity:1"
     d="m 34.02071,21.000235 c -0.162099,-0.0037 -0.32211,0.03671 -0.462518,0.116904 l -7.116384,4.062585 C 26.168378,25.335853 25.999959,25.624379 26,25.936606 v 0.126233 c -4e-5,0.312226 0.168379,0.600753 0.441808,0.756882 l 7.116384,4.063438 c 0.273397,0.156069 0.610219,0.156069 0.883616,0 l 7.116385,-4.063438 C 41.831622,26.663592 42.000041,26.375066 42,26.06284 v -0.126233 c 4.1e-5,-0.312227 -0.168378,-0.600754 -0.441807,-0.756883 l -7.116385,-4.062585 c -0.128243,-0.07325 -0.273044,-0.113444 -0.421098,-0.116904 z"
     id="path4549"
     inkscape:connector-curvature="0" />
  <path
     style="opacity:1;vector-effect:none;fill:#f3cd0e;fill-opacity:1;stroke:none;stroke-width:0.43934309;stroke-linecap:round;stroke-linejoin:round;stroke-miterlimit:4;stroke-dasharray:none;stroke-dashoffset:0;stroke-opacity:1"
     d="m 14.02071,21.000235 a 0.883704,0.87387165 0 0 0 -0.462518,0.116904 L 6.441808,25.179724 A 0.883704,0.87387165 0 0 0 6,25.936606 v 8.126023 a 0.883704,0.87387165 0 0 0 0.441808,0.756881 l 7.116384,4.063439 a 0.883704,0.87387165 0 0 0 0.883616,0 l 7.116385,-4.063438 A 0.883704,0.87387165 0 0 0 22,34.062629 V 25.936606 A 0.883704,0.87387165 0 0 0 21.558193,25.179724 L 14.441808,21.117139 A 0.883704,0.87387165 0 0 0 14.02071,21.000235 Z"
     id="path4537"
     inkscape:connector-curvature="0" />
  <path
     inkscape:connector-curvature="0"
     id="path4539"
     d="m 14,21.000235 v 17.999554 c 0.146052,-0.0032 0.310912,-0.04212 0.441808,-0.116841 L 21.558193,34.81951 C 21.831622,34.663381 22.000041,34.374854 22,34.062629 v -8.126022 c 4.1e-5,-0.312227 -0.168378,-0.600754 -0.441807,-0.756883 L 14.441808,21.117139 C 14.313565,21.043894 14.148054,21.003695 14,21.000235 Z"
     style="opacity:1;vector-effect:none;fill:#ecbf1a;fill-opacity:1;stroke:none;stroke-width:0.43934309;stroke-linecap:round;stroke-linejoin:round;stroke-miterlimit:4;stroke-dasharray:none;stroke-dashoffset:0;stroke-opacity:1"
     sodipodi:nodetypes="ccccccccc" />
  <path
     inkscape:connector-curvature="0"
     id="path4541"
     d="m 14.02071,21.000235 c -0.162099,-0.0037 -0.32211,0.03671 -0.462518,0.116904 L 6.441808,25.179724 C 6.168378,25.335853 5.999959,25.624379 6,25.936606 v 0.126233 c -4e-5,0.312226 0.168379,0.600753 0.441808,0.756882 l 7.116384,4.063438 c 0.273397,0.156069 0.610219,0.156069 0.883616,0 l 7.116385,-4.063438 C 21.831622,26.663592 22.000041,26.375066 22,26.06284 v -0.126233 c 4.1e-5,-0.312227 -0.168378,-0.600754 -0.441807,-0.756883 l -7.116385,-4.062585 c -0.128243,-0.07325 -0.273044,-0.113444 -0.421098,-0.116904 z"
     style="opacity:1;vector-effect:none;fill:#e1b123;fill-opacity:1;stroke:none;stroke-width:0.43934309;stroke-linecap:round;stroke-linejoin:round;stroke-miterlimit:4;stroke-dasharray:none;stroke-dashoffset:0;stroke-opacity:1"
     sodipodi:nodetypes="cccccccccccccc" />
  <path
     style="opacity:1;vector-effect:none;fill:#3caaba;fill-opacity:1;stroke:none;stroke-width:0.43934309;stroke-linecap:round;stroke-linejoin:round;stroke-miterlimit:4;stroke-dasharray:none;stroke-dashoffset:0;stroke-opacity:1"
     d="m 24.02071,5.0002355 a 0.883704,0.87387165 0 0 0 -0.462518,0.116904 l -7.116384,4.062584 A 0.883704,0.87387165 0 0 0 16,9.9366065 v 8.1260225 a 0.883704,0.87387165 0 0 0 0.441808,0.756882 l 7.116384,4.063438 a 0.883704,0.87387165 0 0 0 0.883616,0 l 7.116385,-4.063438 A 0.883704,0.87387165 0 0 0 32,18.062629 V 9.9366065 A 0.883704,0.87387165 0 0 0 31.558193,9.1797235 L 24.441808,5.1171395 A 0.883704,0.87387165 0 0 0 24.02071,5.0002355 Z"
     id="path4561"
     inkscape:connector-curvature="0" />
  <path
     inkscape:connector-curvature="0"
     id="path4563"
     d="M 24,5.0002355 V 22.99979 c 0.146052,-0.0032 0.310912,-0.04212 0.441808,-0.116841 l 7.116385,-4.063438 C 31.831622,18.663382 32.000041,18.374855 32,18.062629 V 9.9366065 c 4.1e-5,-0.312227 -0.168378,-0.600754 -0.441807,-0.756883 L 24.441808,5.1171395 C 24.313565,5.0438945 24.148054,5.0036955 24,5.0002355 Z"
     style="opacity:1;vector-effect:none;fill:#47b3ca;fill-opacity:1;stroke:none;stroke-width:0.43934309;stroke-linecap:round;stroke-linejoin:round;stroke-miterlimit:4;stroke-dasharray:none;stroke-dashoffset:0;stroke-opacity:1"
     sodipodi:nodetypes="ccccccccc" />
  <path
     inkscape:connector-curvature="0"
     id="path4565"
     d="m 24.02071,5.0002355 c -0.162099,-0.0037 -0.32211,0.03671 -0.462518,0.116904 l -7.116384,4.062584 C 16.168378,9.3358525 15.999959,9.6243795 16,9.9366065 V 10.06284 c -4e-5,0.312226 0.168379,0.600753 0.441808,0.756882 l 7.116384,4.063438 c 0.273397,0.156069 0.610219,0.156069 0.883616,0 l 7.116385,-4.063438 C 31.831622,10.663593 32.000041,10.375066 32,10.06284 V 9.9366065 c 4.1e-5,-0.312227 -0.168378,-0.600754 -0.441807,-0.756883 l -7.116385,-4.062584 c -0.128243,-0.07325 -0.273044,-0.113444 -0.421098,-0.116904 z"
     style="opacity:1;vector-effect:none;fill:#60c1e2;fill-opacity:1;stroke:none;stroke-width:0.43934309;stroke-linecap:round;stroke-linejoin:round;stroke-miterlimit:4;stroke-dasharray:none;stroke-dashoffset:0;stroke-opacity:1"
     sodipodi:nodetypes="cccccccccccccc" />
  <g
     style="opacity:0.1;fill:#ffffff;fill-opacity:1"
     transform="matrix(0.5,0,0,0.5,12,15)"
     id="g4499" />
  <path
     inkscape:connector-curvature="0"
     id="path4521"
     d="M 14.02071,11.000235 A 0.883704,0.87387165 0 0 0 13.558192,11.11714 L 6.441808,15.179724 A 0.883704,0.87387165 0 0 0 6,15.936607 v 8.126022 a 0.883704,0.87387165 0 0 0 0.441808,0.756882 l 7.116384,4.063438 a 0.883704,0.87387165 0 0 0 0.883616,0 l 7.116385,-4.063438 A 0.883704,0.87387165 0 0 0 22,24.062629 V 15.936607 A 0.883704,0.87387165 0 0 0 21.558193,15.179724 L 14.441808,11.11714 A 0.883704,0.87387165 0 0 0 14.02071,11.000235 Z"
     style="opacity:1;vector-effect:none;fill:#58c1bb;fill-opacity:1;stroke:none;stroke-width:0.43934309;stroke-linecap:round;stroke-linejoin:round;stroke-miterlimit:4;stroke-dasharray:none;stroke-dashoffset:0;stroke-opacity:1" />
  <path
     sodipodi:nodetypes="ccccccccc"
     style="opacity:1;vector-effect:none;fill:#6cc5c6;fill-opacity:1;stroke:none;stroke-width:0.43934309;stroke-linecap:round;stroke-linejoin:round;stroke-miterlimit:4;stroke-dasharray:none;stroke-dashoffset:0;stroke-opacity:1"
     d="m 14,11.000235 v 17.999554 c 0.146052,-0.0032 0.310912,-0.04212 0.441808,-0.116841 L 21.558193,24.81951 C 21.831622,24.663381 22.000041,24.374855 22,24.062629 v -8.126022 c 4.1e-5,-0.312227 -0.168378,-0.600754 -0.441807,-0.756883 L 14.441808,11.11714 C 14.313565,11.043895 14.148054,11.003695 14,11.000235 Z"
     id="path4523"
     inkscape:connector-curvature="0" />
  <path
     sodipodi:nodetypes="cccccccccccccc"
     style="opacity:1;vector-effect:none;fill:#9cd8d9;fill-opacity:1;stroke:none;stroke-width:0.43934309;stroke-linecap:round;stroke-linejoin:round;stroke-miterlimit:4;stroke-dasharray:none;stroke-dashoffset:0;stroke-opacity:1"
     d="m 14.02071,11.000235 c -0.162099,-0.0037 -0.32211,0.03671 -0.462518,0.116905 L 6.441808,15.179724 C 6.168378,15.335853 5.999959,15.62438 6,15.936607 v 0.126232 c -4e-5,0.312226 0.168379,0.600754 0.441808,0.756883 l 7.116384,4.063437 c 0.273397,0.156069 0.610219,0.156069 0.883616,0 l 7.116385,-4.063437 C 21.831622,16.663593 22.000041,16.375066 22,16.06284 v -0.126233 c 4.1e-5,-0.312227 -0.168378,-0.600754 -0.441807,-0.756883 L 14.441808,11.11714 C 14.313565,11.04389 14.168764,11.003695 14.02071,11.000235 Z"
     id="path4525"
     inkscape:connector-curvature="0" />
  <path
     style="opacity:1;vector-effect:none;fill:#9c213a;fill-opacity:1;stroke:none;stroke-width:0.43934309;stroke-linecap:round;stroke-linejoin:round;stroke-miterlimit:4;stroke-dasharray:none;stroke-dashoffset:0;stroke-opacity:1"
     d="m 34.02071,11.000235 a 0.883704,0.87387165 0 0 0 -0.462518,0.116905 l -7.116384,4.062584 A 0.883704,0.87387165 0 0 0 26,15.936607 v 8.126022 a 0.883704,0.87387165 0 0 0 0.441808,0.756882 l 7.116384,4.063438 a 0.883704,0.87387165 0 0 0 0.883616,0 l 7.116385,-4.063438 A 0.883704,0.87387165 0 0 0 42,24.062629 V 15.936607 A 0.883704,0.87387165 0 0 0 41.558193,15.179724 L 34.441808,11.11714 A 0.883704,0.87387165 0 0 0 34.02071,11.000235 Z"
     id="path4529"
     inkscape:connector-curvature="0" />
  <path
     inkscape:connector-curvature="0"
     id="path4531"
     d="m 34,11.000235 v 17.999554 c 0.146052,-0.0032 0.310912,-0.04212 0.441808,-0.116841 L 41.558193,24.81951 C 41.831622,24.663381 42.000041,24.374855 42,24.062629 v -8.126022 c 4.1e-5,-0.312227 -0.168378,-0.600754 -0.441807,-0.756883 L 34.441808,11.11714 C 34.313565,11.043895 34.148054,11.003695 34,11.000235 Z"
     style="opacity:1;vector-effect:none;fill:#bd2846;fill-opacity:1;stroke:none;stroke-width:0.43934309;stroke-linecap:round;stroke-linejoin:round;stroke-miterlimit:4;stroke-dasharray:none;stroke-dashoffset:0;stroke-opacity:1"
     sodipodi:nodetypes="ccccccccc" />
  <path
     inkscape:connector-curvature="0"
     id="path4533"
     d="m 34.02071,11.000235 c -0.162099,-0.0037 -0.32211,0.03671 -0.462518,0.116905 l -7.116384,4.062584 C 26.168378,15.335853 25.999959,15.62438 26,15.936607 v 0.126232 c -4e-5,0.312226 0.168379,0.600754 0.441808,0.756883 l 7.116384,4.063437 c 0.273397,0.156069 0.610219,0.156069 0.883616,0 l 7.116385,-4.063437 C 41.831622,16.663593 42.000041,16.375066 42,16.06284 v -0.126233 c 4.1e-5,-0.312227 -0.168378,-0.600754 -0.441807,-0.756883 L 34.441808,11.11714 C 34.313565,11.04389 34.168764,11.003695 34.02071,11.000235 Z"
     style="opacity:1;vector-effect:none;fill:#aa243f;fill-opacity:1;stroke:none;stroke-width:0.43934309;stroke-linecap:round;stroke-linejoin:round;stroke-miterlimit:4;stroke-dasharray:none;stroke-dashoffset:0;stroke-opacity:1"
     sodipodi:nodetypes="cccccccccccccc" />
  <path
     inkscape:connector-curvature="0"
     id="path4553"
     d="m 24.02071,26.000236 a 0.883704,0.87387165 0 0 0 -0.462518,0.116904 l -7.116384,4.062584 A 0.883704,0.87387165 0 0 0 16,30.936607 v 8.126022 a 0.883704,0.87387165 0 0 0 0.441808,0.756882 l 7.116384,4.063438 a 0.883704,0.87387165 0 0 0 0.883616,0 l 7.116385,-4.063438 A 0.883704,0.87387165 0 0 0 32,39.062629 V 30.936607 A 0.883704,0.87387165 0 0 0 31.558193,30.179724 L 24.441808,26.11714 A 0.883704,0.87387165 0 0 0 24.02071,26.000236 Z"
     style="opacity:1;vector-effect:none;fill:#d37f46;fill-opacity:1;stroke:none;stroke-width:0.43934309;stroke-linecap:round;stroke-linejoin:round;stroke-miterlimit:4;stroke-dasharray:none;stroke-dashoffset:0;stroke-opacity:1" />
  <path
     sodipodi:nodetypes="ccccccccc"
     style="opacity:1;vector-effect:none;fill:#de9661;fill-opacity:1;stroke:none;stroke-width:0.43934309;stroke-linecap:round;stroke-linejoin:round;stroke-miterlimit:4;stroke-dasharray:none;stroke-dashoffset:0;stroke-opacity:1"
     d="M 24,26.000236 V 43.99979 c 0.146052,-0.0032 0.310912,-0.04212 0.441808,-0.116841 l 7.116385,-4.063438 C 31.831622,39.663382 32.000041,39.374855 32,39.062629 v -8.126022 c 4.1e-5,-0.312227 -0.168378,-0.600754 -0.441807,-0.756883 L 24.441808,26.11714 C 24.313565,26.043895 24.148054,26.003696 24,26.000236 Z"
     id="path4555"
     inkscape:connector-curvature="0" />
  <path
     sodipodi:nodetypes="cccccccccccccc"
     style="opacity:1;vector-effect:none;fill:#db8c52;fill-opacity:1;stroke:none;stroke-width:0.43934309;stroke-linecap:round;stroke-linejoin:round;stroke-miterlimit:4;stroke-dasharray:none;stroke-dashoffset:0;stroke-opacity:1"
     d="m 24.02071,26.000236 c -0.162099,-0.0037 -0.32211,0.03671 -0.462518,0.116904 l -7.116384,4.062584 C 16.168378,30.335853 15.999959,30.62438 16,30.936607 v 0.126233 c -4e-5,0.312226 0.168379,0.600753 0.441808,0.756882 l 7.116384,4.063438 c 0.273397,0.156069 0.610219,0.156069 0.883616,0 l 7.116385,-4.063438 C 31.831622,31.663593 32.000041,31.375066 32,31.06284 v -0.126233 c 4.1e-5,-0.312227 -0.168378,-0.600754 -0.441807,-0.756883 L 24.441808,26.11714 C 24.313565,26.04389 24.168764,26.003696 24.02071,26.000236 Z"
     id="path4557"
     inkscape:connector-curvature="0" />
  <path
     style="opacity:1;vector-effect:none;fill:#d73c44;fill-opacity:1;stroke:none;stroke-width:0.43934309;stroke-linecap:round;stroke-linejoin:round;stroke-miterlimit:4;stroke-dasharray:none;stroke-dashoffset:0;stroke-opacity:1"
     d="m 24.02071,16.000236 a 0.883704,0.87387165 0 0 0 -0.462518,0.116904 l -7.116384,4.062584 A 0.883704,0.87387165 0 0 0 16,20.936607 v 8.126022 a 0.883704,0.87387165 0 0 0 0.441808,0.756882 l 7.116384,4.063438 a 0.883704,0.87387165 0 0 0 0.883616,0 l 7.116385,-4.063438 A 0.883704,0.87387165 0 0 0 32,29.062629 V 20.936607 A 0.883704,0.87387165 0 0 0 31.558193,20.179724 L 24.441808,16.11714 A 0.883704,0.87387165 0 0 0 24.02071,16.000236 Z"
     id="path4505"
     inkscape:connector-curvature="0" />
  <path
     inkscape:connector-curvature="0"
     id="path4512"
     d="M 24,16.000236 V 33.99979 c 0.146052,-0.0032 0.310912,-0.04212 0.441808,-0.116841 l 7.116385,-4.063438 C 31.831622,29.663382 32.000041,29.374855 32,29.062629 v -8.126022 c 4.1e-5,-0.312227 -0.168378,-0.600754 -0.441807,-0.756883 L 24.441808,16.11714 C 24.313565,16.043895 24.148054,16.003696 24,16.000236 Z"
     style="opacity:1;vector-effect:none;fill:#e64545;fill-opacity:1;stroke:none;stroke-width:0.43934309;stroke-linecap:round;stroke-linejoin:round;stroke-miterlimit:4;stroke-dasharray:none;stroke-dashoffset:0;stroke-opacity:1"
     sodipodi:nodetypes="ccccccccc" />
  <path
     inkscape:connector-curvature="0"
     id="path4514"
     d="m 24.02071,16.000236 c -0.162099,-0.0037 -0.32211,0.03671 -0.462518,0.116904 l -7.116384,4.062584 C 16.168378,20.335853 15.999959,20.62438 16,20.936607 v 0.126233 c -4e-5,0.312226 0.168379,0.600753 0.441808,0.756882 l 7.116384,4.063438 c 0.273397,0.156069 0.610219,0.156069 0.883616,0 l 7.116385,-4.063438 C 31.831622,21.663593 32.000041,21.375066 32,21.06284 v -0.126233 c 4.1e-5,-0.312227 -0.168378,-0.600754 -0.441807,-0.756883 L 24.441808,16.11714 C 24.313565,16.04389 24.168764,16.003696 24.02071,16.000236 Z"
     style="opacity:1;vector-effect:none;fill:#ef5654;fill-opacity:1;stroke:none;stroke-width:0.43934309;stroke-linecap:round;stroke-linejoin:round;stroke-miterlimit:4;stroke-dasharray:none;stroke-dashoffset:0;stroke-opacity:1"
     sodipodi:nodetypes="cccccccccccccc" />
  <path
     style="opacity:0.1;vector-effect:none;fill:#ffffff;fill-opacity:1;stroke:none;stroke-width:0.43934309;stroke-linecap:round;stroke-linejoin:round;stroke-miterlimit:4;stroke-dasharray:none;stroke-dashoffset:0;stroke-opacity:1"
     d="M 24.021484 5 C 23.859385 4.9963 23.699002 5.036994 23.558594 5.1171875 L 16.441406 9.1796875 C 16.167976 9.3358165 15.999959 9.625273 16 9.9375 L 16 10.0625 C 15.99998 10.218613 16.04101 10.369091 16.117188 10.5 C 16.193365 10.369091 16.304691 10.257752 16.441406 10.179688 L 23.558594 6.1171875 C 23.699002 6.036994 23.859385 5.9963 24.021484 6 C 24.169538 6.00346 24.313163 6.0439375 24.441406 6.1171875 L 31.558594 10.179688 C 31.695308 10.257752 31.806635 10.369091 31.882812 10.5 C 31.95899 10.369091 32.00002 10.218613 32 10.0625 L 32 9.9375 C 32.000041 9.625273 31.832023 9.3358165 31.558594 9.1796875 L 24.441406 5.1171875 C 24.313163 5.0439375 24.169538 5.00346 24.021484 5 z "
     id="path4704" />
  <path
     style="opacity:0.1;vector-effect:none;fill:#ffffff;fill-opacity:1;stroke:none;stroke-width:0.43934309;stroke-linecap:round;stroke-linejoin:round;stroke-miterlimit:4;stroke-dasharray:none;stroke-dashoffset:0;stroke-opacity:1"
     d="M 14.021484 11 C 13.859385 10.9963 13.699002 11.036989 13.558594 11.117188 L 6.4414062 15.179688 C 6.1679763 15.335815 5.999959 15.625273 6 15.9375 L 6 16.0625 C 5.99998 16.218613 6.0410096 16.369091 6.1171875 16.5 C 6.1933654 16.369091 6.3046913 16.257751 6.4414062 16.179688 L 13.558594 12.117188 C 13.699002 12.03699 13.859385 11.9963 14.021484 12 C 14.169538 12.00346 14.313163 12.043938 14.441406 12.117188 L 21.558594 16.179688 C 21.695308 16.257752 21.806635 16.369091 21.882812 16.5 C 21.95899 16.369091 22.000021 16.218613 22 16.0625 L 22 15.9375 C 22.000041 15.625273 21.832023 15.335816 21.558594 15.179688 L 14.441406 11.117188 C 14.313163 11.043938 14.169538 11.00346 14.021484 11 z "
     id="path4702" />
  <path
     style="opacity:0.1;vector-effect:none;fill:#ffffff;fill-opacity:1;stroke:none;stroke-width:0.43934309;stroke-linecap:round;stroke-linejoin:round;stroke-miterlimit:4;stroke-dasharray:none;stroke-dashoffset:0;stroke-opacity:1"
     d="M 34.021484 11 C 33.859385 10.9963 33.699002 11.036989 33.558594 11.117188 L 26.441406 15.179688 C 26.167976 15.335815 25.999959 15.625273 26 15.9375 L 26 16.0625 C 25.99998 16.218613 26.04101 16.369091 26.117188 16.5 C 26.193365 16.369091 26.304691 16.257751 26.441406 16.179688 L 33.558594 12.117188 C 33.699002 12.03699 33.859385 11.9963 34.021484 12 C 34.169538 12.00346 34.313163 12.043938 34.441406 12.117188 L 41.558594 16.179688 C 41.695308 16.257752 41.806635 16.369091 41.882812 16.5 C 41.95899 16.369091 42.00002 16.218613 42 16.0625 L 42 15.9375 C 42.000041 15.625273 41.832023 15.335816 41.558594 15.179688 L 34.441406 11.117188 C 34.313163 11.043938 34.169538 11.00346 34.021484 11 z "
     id="path4700" />
  <path
     style="opacity:0.1;vector-effect:none;fill:#ffffff;fill-opacity:1;stroke:none;stroke-width:0.43934309;stroke-linecap:round;stroke-linejoin:round;stroke-miterlimit:4;stroke-dasharray:none;stroke-dashoffset:0;stroke-opacity:1"
     d="M 24.021484 16 C 23.859385 15.9963 23.699002 16.03699 23.558594 16.117188 L 16.441406 20.179688 C 16.167976 20.335816 15.999959 20.625273 16 20.9375 L 16 21.0625 C 15.99998 21.218613 16.04101 21.369091 16.117188 21.5 C 16.193365 21.369091 16.304691 21.257751 16.441406 21.179688 L 23.558594 17.117188 C 23.699002 17.03699 23.859385 16.9963 24.021484 17 C 24.169538 17.00346 24.313163 17.043937 24.441406 17.117188 L 31.558594 21.179688 C 31.695308 21.257752 31.806635 21.369091 31.882812 21.5 C 31.95899 21.369091 32.00002 21.218613 32 21.0625 L 32 20.9375 C 32.000041 20.625273 31.832023 20.335816 31.558594 20.179688 L 24.441406 16.117188 C 24.313163 16.043938 24.169538 16.00346 24.021484 16 z "
     id="path4686" />
</svg>
