<?xml version="1.0" encoding="UTF-8" standalone="no"?>
<svg
   xmlns:dc="http://purl.org/dc/elements/1.1/"
   xmlns:cc="http://creativecommons.org/ns#"
   xmlns:rdf="http://www.w3.org/1999/02/22-rdf-syntax-ns#"
   xmlns:svg="http://www.w3.org/2000/svg"
   xmlns="http://www.w3.org/2000/svg"
   xmlns:sodipodi="http://sodipodi.sourceforge.net/DTD/sodipodi-0.dtd"
   xmlns:inkscape="http://www.inkscape.org/namespaces/inkscape"
   height="48"
   width="48"
   version="1"
   id="svg12"
   sodipodi:docname="usb-audio-player.svg"
   inkscape:version="0.92.1 r15371">
  <metadata
     id="metadata18">
    <rdf:RDF>
      <cc:Work
         rdf:about="">
        <dc:format>image/svg+xml</dc:format>
        <dc:type
           rdf:resource="http://purl.org/dc/dcmitype/StillImage" />
        <dc:title></dc:title>
      </cc:Work>
    </rdf:RDF>
  </metadata>
  <defs
     id="defs16" />
  <sodipodi:namedview
     pagecolor="#ffffff"
     bordercolor="#666666"
     borderopacity="1"
     objecttolerance="10"
     gridtolerance="10"
     guidetolerance="10"
     inkscape:pageopacity="0"
     inkscape:pageshadow="2"
     inkscape:window-width="1600"
     inkscape:window-height="822"
     id="namedview14"
     showgrid="false"
     inkscape:zoom="1"
     inkscape:cx="7.2231043"
     inkscape:cy="24"
     inkscape:window-x="0"
     inkscape:window-y="0"
     inkscape:window-maximized="1"
     inkscape:current-layer="svg12" />
  <path
     fill="#5d5d5d"
     d="m8.4393 4.0008a3.3613 3.1388 0 0 0 -3.4393 3.1376v33.726a3.3613 3.1388 0 0 0 5.0419 2.716l15.639-8.43 15.638-8.431a3.3613 3.1388 0 0 0 0 -5.4364l-15.638-8.432-15.639-8.4308a3.3613 3.1388 0 0 0 -1.6027 -0.4194z"
     id="path2"
     style="fill:#ff7347;fill-opacity:1" />
  <path
     opacity=".1"
     fill="#fff"
     d="m8.4395 4.0016a3.3613 3.1388 0 0 0 -3.4395 3.1368v1a3.3613 3.1388 0 0 1 3.4395 -3.1387 3.3613 3.1388 0 0 1 1.6015 0.4199l15.639 8.4316 15.641 8.4316a3.3613 3.1388 0 0 1 1.6348 2.2148 3.3613 3.1388 0 0 0 -1.6348 -3.2148l-15.641-8.432-15.639-8.4314a3.3613 3.1388 0 0 0 -1.6015 -0.418z"
     id="path8"
     style="opacity:0.2" />
  <path
     opacity=".2"
     d="m42.955 24.498a3.3613 3.1388 0 0 1 -1.6348 2.2207l-15.64 8.431-15.639 8.43a3.3613 3.1388 0 0 1 -5.041 -2.717v1a3.3613 3.1388 0 0 0 5.041 2.7168l15.639-8.4297 15.641-8.4316a3.3613 3.1388 0 0 0 1.6348 -3.2207z"
     id="path10" />
  <path
     inkscape:connector-curvature="0"
     d="m 13.678252,34.31841 c 0,-1.2774 0.42456,-1.6088 0.94461,-2.0548 0.4175,-0.20154 0.48421,-0.33913 0.47872,-0.9873 -0.006,-0.71628 -0.07462,-0.63446 -1.4022,-1.7869 -2.027,-1.7595 -2.2996,-2.1838 -2.5376,-3.9494 -0.17556,-1.3022 -0.05242,-1.0157 -0.55638,-1.5166 -0.92759,-0.92193 -0.76867,-2.274 0.33557,-2.8551 0.99478,-0.52348 2.1732,0.03328 2.5366,1.1985 0.17911,0.57427 -0.25029,1.566 -0.82688,1.9097 -0.52764,0.31455 -0.74654,-0.20987 -0.62588,0.94961 0.06678,0.64174 0.22952,1.3798 0.36164,1.6401 0.22691,0.44704 2.4489,2.5515 2.6906,2.5515 v -12.432 h -1.2317 c 0.57,-0.988 1.125,-1.9924 1.677,-2.987 l 1.7577,2.9874 h -1.1972 v 8.42 c 0.16651,0 1.799,-1.6568 2.3483,-2.4027 0.23734,-0.32228 0.38137,-0.77989 0.38137,-1.2117 0,-0.65124 0.21476,-0.78818 -0.28196,-0.78818 h -0.5292 v -3.0516 h 2.9988 v 3.0516 h -0.4851 c -0.43284,0.05068 -0.74221,0.2713 -0.82392,0.99341 -0.12186,1.0769 -0.58309,1.7837 -2.2805,3.4947 l -1.3278,1.4319 v 5.1064 l 0.39238,0.23418 c 0.26681,0.1288 0.63426,0.54499 0.81656,0.92487 0.649,1.355 -0.254,2.811 -1.743,2.811 -1.079,-0.04 -1.871,-0.594 -1.871,-1.68 z"
     style="opacity:0.2;fill:#000000;fill-opacity:1"
     id="path4527" />
  <path
     id="path8591"
     style="opacity:1;fill:#ffffff;fill-opacity:1"
     d="m 13.678252,33.31841 c 0,-1.2774 0.42456,-1.6088 0.94461,-2.0548 0.4175,-0.20154 0.48421,-0.33913 0.47872,-0.9873 -0.006,-0.71628 -0.07462,-0.63446 -1.4022,-1.7869 -2.027,-1.7595 -2.2996,-2.1838 -2.5376,-3.9494 -0.17556,-1.3022 -0.05242,-1.0157 -0.55638,-1.5166 -0.92759,-0.92193 -0.76867,-2.274 0.33557,-2.8551 0.99478,-0.52348 2.1732,0.03328 2.5366,1.1985 0.17911,0.57427 -0.25029,1.566 -0.82688,1.9097 -0.52764,0.31455 -0.74654,-0.20987 -0.62588,0.94961 0.06678,0.64174 0.22952,1.3798 0.36164,1.6401 0.22691,0.44704 2.4489,2.5515 2.6906,2.5515 v -12.432 h -1.2317 c 0.57,-0.988 1.125,-1.9924 1.677,-2.987 l 1.7577,2.9874 h -1.1972 v 8.42 c 0.16651,0 1.799,-1.6568 2.3483,-2.4027 0.23734,-0.32228 0.38137,-0.77989 0.38137,-1.2117 0,-0.65124 0.21476,-0.78818 -0.28196,-0.78818 h -0.5292 v -3.0516 h 2.9988 v 3.0516 h -0.4851 c -0.43284,0.05068 -0.74221,0.2713 -0.82392,0.99341 -0.12186,1.0769 -0.58309,1.7837 -2.2805,3.4947 l -1.3278,1.4319 v 5.1064 l 0.39238,0.23418 c 0.26681,0.1288 0.63426,0.54499 0.81656,0.92487 0.649,1.355 -0.254,2.811 -1.743,2.811 -1.079,-0.04 -1.871,-0.594 -1.871,-1.68 z"
     inkscape:connector-curvature="0" />
</svg>
