<?xml version="1.0" encoding="UTF-8" standalone="no"?>
<svg
   xmlns:dc="http://purl.org/dc/elements/1.1/"
   xmlns:cc="http://creativecommons.org/ns#"
   xmlns:rdf="http://www.w3.org/1999/02/22-rdf-syntax-ns#"
   xmlns:svg="http://www.w3.org/2000/svg"
   xmlns="http://www.w3.org/2000/svg"
   xmlns:sodipodi="http://sodipodi.sourceforge.net/DTD/sodipodi-0.dtd"
   xmlns:inkscape="http://www.inkscape.org/namespaces/inkscape"
   height="48"
   width="48"
   version="1"
   id="svg20"
   sodipodi:docname="via-browser.svg"
   inkscape:version="0.92.1 r15371">
  <metadata
     id="metadata26">
    <rdf:RDF>
      <cc:Work
         rdf:about="">
        <dc:format>image/svg+xml</dc:format>
        <dc:type
           rdf:resource="http://purl.org/dc/dcmitype/StillImage" />
        <dc:title />
      </cc:Work>
    </rdf:RDF>
  </metadata>
  <defs
     id="defs24" />
  <sodipodi:namedview
     pagecolor="#ffffff"
     bordercolor="#666666"
     borderopacity="1"
     objecttolerance="10"
     gridtolerance="10"
     guidetolerance="10"
     inkscape:pageopacity="0"
     inkscape:pageshadow="2"
     inkscape:window-width="1600"
     inkscape:window-height="822"
     id="namedview22"
     showgrid="true"
     inkscape:zoom="7.04"
     inkscape:cx="22.423099"
     inkscape:cy="31.038571"
     inkscape:window-x="0"
     inkscape:window-y="0"
     inkscape:window-maximized="1"
     inkscape:current-layer="svg20">
    <inkscape:grid
       type="xygrid"
       id="grid4518" />
  </sodipodi:namedview>
  <path
     sodipodi:nodetypes="ccccccsccccccsscccscccccc"
     inkscape:connector-curvature="0"
     id="path4520"
     d="m 25.519109,8.0000275 c -1.445998,0.00585 -2.818997,0.6354874 -3.766284,1.7271529 L 18.53269,13.437722 c -0.483216,-1.326269 -2.225133,-1.403636 -3.541168,-1.248807 -1.401293,0.194465 -3.105927,0.349883 -4.290943,0.543764 -0.569661,0.129525 -1.6912834,0.481773 -2.6563665,1.429839 -0.9650829,0.948068 -1.348398,2.082516 -1.4896791,2.683641 -0.1081584,0.460192 -0.1354141,0.718293 -0.1546447,0.936926 L 4.0783011,31.174782 c -0.4126549,2.311629 0.8374918,4.599342 3.0067635,5.502243 3.1644544,1.346093 6.8113384,3.126801 9.1201244,2.611268 3.333408,-1.180537 5.269048,-4.518189 7.512994,-7.106169 l 0.904378,5.322292 c 0.06791,0.399857 0.09887,0.766875 0.33278,1.51786 0.23391,0.750985 0.991415,2.454841 2.77186,3.358462 1.780445,0.90362 3.082216,0.585443 3.697771,0.469441 0.540677,-0.101892 0.811882,-0.188004 1.115791,-0.271885 l 6.236686,-1.333996 c 0.521236,-0.111362 1.007194,-0.165746 1.957528,-0.604405 0.950334,-0.43866 2.804231,-2.128591 3.14379,-3.978516 0.339561,-1.849924 -0.12587,-2.617354 -0.279926,-3.07484 C 41.270793,26.574276 39.067999,19.171762 36.847326,12.039178 36.236974,10.081891 34.494355,8.6939944 32.44876,8.535973 L 26.249267,8.0567517 C 26.008832,8.022274 25.765473,7.9990983 25.519109,8.0000275 Z"
     style="color:#000000;font-style:normal;font-variant:normal;font-weight:normal;font-stretch:normal;font-size:medium;line-height:normal;font-family:sans-serif;font-variant-ligatures:normal;font-variant-position:normal;font-variant-caps:normal;font-variant-numeric:normal;font-variant-alternates:normal;font-feature-settings:normal;text-indent:0;text-align:start;text-decoration:none;text-decoration-line:none;text-decoration-style:solid;text-decoration-color:#000000;letter-spacing:normal;word-spacing:normal;text-transform:none;writing-mode:lr-tb;direction:ltr;text-orientation:mixed;dominant-baseline:auto;baseline-shift:baseline;text-anchor:start;white-space:normal;shape-padding:0;clip-rule:nonzero;display:inline;overflow:visible;visibility:visible;opacity:0.2;isolation:auto;mix-blend-mode:normal;color-interpolation:sRGB;color-interpolation-filters:linearRGB;solid-color:#000000;solid-opacity:1;vector-effect:none;fill:#000000;fill-opacity:1;fill-rule:nonzero;stroke:none;stroke-width:10.01864624;stroke-linecap:round;stroke-linejoin:round;stroke-miterlimit:4;stroke-dasharray:none;stroke-dashoffset:0;stroke-opacity:1;color-rendering:auto;image-rendering:auto;shape-rendering:auto;text-rendering:auto;enable-background:accumulate" />
  <path
     style="color:#000000;font-style:normal;font-variant:normal;font-weight:normal;font-stretch:normal;font-size:medium;line-height:normal;font-family:sans-serif;font-variant-ligatures:normal;font-variant-position:normal;font-variant-caps:normal;font-variant-numeric:normal;font-variant-alternates:normal;font-feature-settings:normal;text-indent:0;text-align:start;text-decoration:none;text-decoration-line:none;text-decoration-style:solid;text-decoration-color:#000000;letter-spacing:normal;word-spacing:normal;text-transform:none;writing-mode:lr-tb;direction:ltr;text-orientation:mixed;dominant-baseline:auto;baseline-shift:baseline;text-anchor:start;white-space:normal;shape-padding:0;clip-rule:nonzero;display:inline;overflow:visible;visibility:visible;opacity:1;isolation:auto;mix-blend-mode:normal;color-interpolation:sRGB;color-interpolation-filters:linearRGB;solid-color:#000000;solid-opacity:1;vector-effect:none;fill:#5d5d5d;fill-opacity:1;fill-rule:nonzero;stroke:none;stroke-width:10.01864624;stroke-linecap:round;stroke-linejoin:round;stroke-miterlimit:4;stroke-dasharray:none;stroke-dashoffset:0;stroke-opacity:1;color-rendering:auto;image-rendering:auto;shape-rendering:auto;text-rendering:auto;enable-background:accumulate"
     d="m 25.519109,7.000027 c -1.445998,0.00585 -2.818997,0.6354874 -3.766284,1.7271529 L 18.53269,12.437722 c -0.483216,-1.326269 -2.225133,-1.403636 -3.541168,-1.248807 -1.401293,0.194465 -3.105927,0.349883 -4.290943,0.543764 -0.569661,0.129525 -1.6912834,0.481773 -2.6563665,1.429839 -0.9650829,0.948068 -1.348398,2.082516 -1.4896791,2.683641 -0.1081584,0.460192 -0.1354141,0.718293 -0.1546447,0.936926 L 4.0783011,30.174782 c -0.4126549,2.311629 0.8374918,4.599342 3.0067635,5.502243 3.1644544,1.346093 6.8113384,3.126801 9.1201244,2.611268 3.333408,-1.180537 5.269048,-4.518189 7.512994,-7.106169 l 0.904378,5.322292 c 0.06791,0.399857 0.09887,0.766875 0.33278,1.51786 0.23391,0.750985 0.991415,2.454841 2.77186,3.358462 1.780445,0.90362 3.082216,0.585443 3.697771,0.469441 0.540677,-0.101892 0.811882,-0.188004 1.115791,-0.271885 l 6.236686,-1.333996 c 0.521236,-0.111362 1.007194,-0.165746 1.957528,-0.604405 0.950334,-0.43866 2.804231,-2.128591 3.14379,-3.978516 0.339561,-1.849924 -0.12587,-2.617354 -0.279926,-3.07484 C 41.270793,25.574276 39.067999,18.171762 36.847326,11.039178 36.236974,9.0818908 34.494355,7.6939939 32.44876,7.5359725 L 26.249267,7.0567512 C 26.008832,7.0222735 25.765473,6.9990978 25.519109,7.000027 Z"
     id="path4508"
     inkscape:connector-curvature="0"
     sodipodi:nodetypes="ccccccsccccccsscccscccccc" />
  <path
     sodipodi:nodetypes="ccccccc"
     inkscape:connector-curvature="0"
     id="path4546"
     d="m 12.248621,17.417083 2.646324,-0.294036 c 1.055106,-0.14987 1.114256,-0.278409 1.052522,0.765709 L 15.091192,32.371101 9,31.500263 11.35104,18.334438 c 0.0788,-0.821033 0.128846,-0.83194 0.897581,-0.917355 z"
     style="opacity:0.2;vector-effect:none;fill:#000000;fill-opacity:1;stroke:none;stroke-width:7.3496747;stroke-linecap:round;stroke-linejoin:round;stroke-miterlimit:4;stroke-dasharray:none;stroke-dashoffset:0;stroke-opacity:1" />
  <path
     style="opacity:1;vector-effect:none;fill:#5ecaff;fill-opacity:1;stroke:none;stroke-width:7.3496747;stroke-linecap:round;stroke-linejoin:round;stroke-miterlimit:4;stroke-dasharray:none;stroke-dashoffset:0;stroke-opacity:1"
     d="m 12.248621,16.41682 2.646324,-0.294036 c 1.055106,-0.14987 1.114256,-0.278409 1.052522,0.765709 L 15.091192,31.370838 9,30.5 11.35104,17.334175 c 0.0788,-0.821033 0.128846,-0.83194 0.897581,-0.917355 z"
     id="path4506"
     inkscape:connector-curvature="0"
     sodipodi:nodetypes="ccccccc" />
  <path
     style="opacity:0.2;vector-effect:none;fill:#000000;fill-opacity:1;stroke:none;stroke-width:7.3496747;stroke-linecap:round;stroke-linejoin:round;stroke-miterlimit:4;stroke-dasharray:none;stroke-dashoffset:0;stroke-opacity:1"
     d="m 25.490919,12.480327 3.813222,5.009678 -13.570832,15.663851 c -0.64323,0.884919 -0.723555,0.850471 -1.669112,0.456489 L 9,31.500263 Z"
     id="path4548"
     inkscape:connector-curvature="0"
     sodipodi:nodetypes="cccccc" />
  <path
     sodipodi:nodetypes="cccccc"
     inkscape:connector-curvature="0"
     id="path4504"
     d="m 25.490919,11.480064 3.813222,5.009678 -13.570832,15.663851 c -0.64323,0.884919 -0.723555,0.850471 -1.669112,0.456489 L 9,30.5 Z"
     style="opacity:1;vector-effect:none;fill:#ff6a3a;fill-opacity:1;stroke:none;stroke-width:7.3496747;stroke-linecap:round;stroke-linejoin:round;stroke-miterlimit:4;stroke-dasharray:none;stroke-dashoffset:0;stroke-opacity:1" />
  <path
     sodipodi:nodetypes="ccccccc"
     inkscape:connector-curvature="0"
     id="path4550"
     d="m 25.5,12.500263 6.5,0.5 6.425165,20.652315 c 0.545238,1.63353 0.90032,1.778091 -0.769916,2.135214 l -6.305544,1.348227 c -1.567767,0.415651 -1.58342,0.502695 -1.843707,-1.031006 z"
     style="opacity:0.2;vector-effect:none;fill:#000000;fill-opacity:1;stroke:none;stroke-width:7.3496747;stroke-linecap:round;stroke-linejoin:round;stroke-miterlimit:4;stroke-dasharray:none;stroke-dashoffset:0;stroke-opacity:1" />
  <path
     style="opacity:1;vector-effect:none;fill:#ffca42;fill-opacity:1;stroke:none;stroke-width:7.3496747;stroke-linecap:round;stroke-linejoin:round;stroke-miterlimit:4;stroke-dasharray:none;stroke-dashoffset:0;stroke-opacity:1"
     d="M 25.5,11.5 32,12 38.425165,32.652315 c 0.545238,1.63353 0.90032,1.778091 -0.769916,2.135214 l -6.305544,1.348227 c -1.567767,0.415651 -1.58342,0.502695 -1.843707,-1.031006 z"
     id="rect4501"
     inkscape:connector-curvature="0"
     sodipodi:nodetypes="ccccccc" />
  <path
     style="color:#000000;font-style:normal;font-variant:normal;font-weight:normal;font-stretch:normal;font-size:medium;line-height:normal;font-family:sans-serif;font-variant-ligatures:normal;font-variant-position:normal;font-variant-caps:normal;font-variant-numeric:normal;font-variant-alternates:normal;font-feature-settings:normal;text-indent:0;text-align:start;text-decoration:none;text-decoration-line:none;text-decoration-style:solid;text-decoration-color:#000000;letter-spacing:normal;word-spacing:normal;text-transform:none;writing-mode:lr-tb;direction:ltr;text-orientation:mixed;dominant-baseline:auto;baseline-shift:baseline;text-anchor:start;white-space:normal;shape-padding:0;clip-rule:nonzero;display:inline;overflow:visible;visibility:visible;opacity:0.1;isolation:auto;mix-blend-mode:normal;color-interpolation:sRGB;color-interpolation-filters:linearRGB;solid-color:#000000;solid-opacity:1;vector-effect:none;fill:#ffffff;fill-opacity:1;fill-rule:nonzero;stroke:none;stroke-width:10.01864624;stroke-linecap:round;stroke-linejoin:round;stroke-miterlimit:4;stroke-dasharray:none;stroke-dashoffset:0;stroke-opacity:1;color-rendering:auto;image-rendering:auto;shape-rendering:auto;text-rendering:auto;enable-background:accumulate"
     d="M 25.519531 7 C 24.073533 7.00585 22.69924 7.634897 21.751953 8.7265625 L 18.533203 12.4375 C 18.049987 11.111231 16.308222 11.034624 14.992188 11.189453 C 13.590895 11.383918 11.886188 11.538541 10.701172 11.732422 C 10.131511 11.861947 9.010005 12.214043 8.0449219 13.162109 C 7.079839 14.110177 6.6959686 15.244578 6.5546875 15.845703 C 6.4465291 16.305895 6.4196212 16.56457 6.4003906 16.783203 L 4.078125 30.173828 C 3.9943772 30.64297 3.9959575 31.108657 4.0429688 31.564453 C 4.0558043 31.43411 4.0547858 31.304571 4.078125 31.173828 L 6.4003906 17.783203 C 6.4196212 17.56457 6.4465291 17.305895 6.5546875 16.845703 C 6.6959686 16.244578 7.079839 15.110177 8.0449219 14.162109 C 9.010005 13.214043 10.131511 12.861947 10.701172 12.732422 C 11.886188 12.538541 13.590895 12.383918 14.992188 12.189453 C 16.308222 12.034624 18.049987 12.111231 18.533203 13.4375 L 21.751953 9.7265625 C 22.69924 8.634897 24.073533 8.00585 25.519531 8 C 25.765895 7.9990708 26.009565 8.0221629 26.25 8.0566406 L 32.449219 8.5351562 C 34.494814 8.6931776 36.237304 10.081776 36.847656 12.039062 C 39.068329 19.171647 41.271561 26.573676 43.599609 33.585938 C 43.697203 33.875752 43.901146 34.327512 43.964844 35.0625 C 44.112789 33.641002 43.735748 32.990217 43.599609 32.585938 C 41.271561 25.573676 39.068329 18.171647 36.847656 11.039062 C 36.237304 9.0817753 34.494814 7.6931776 32.449219 7.5351562 L 26.25 7.0566406 C 26.009565 7.0221629 25.765895 6.9990708 25.519531 7 z "
     id="path4522" />
</svg>
