<?xml version="1.0" encoding="UTF-8" standalone="no"?>
<svg
   xmlns:dc="http://purl.org/dc/elements/1.1/"
   xmlns:cc="http://creativecommons.org/ns#"
   xmlns:rdf="http://www.w3.org/1999/02/22-rdf-syntax-ns#"
   xmlns:svg="http://www.w3.org/2000/svg"
   xmlns="http://www.w3.org/2000/svg"
   xmlns:sodipodi="http://sodipodi.sourceforge.net/DTD/sodipodi-0.dtd"
   xmlns:inkscape="http://www.inkscape.org/namespaces/inkscape"
   height="48"
   width="48"
   version="1"
   id="svg12"
   sodipodi:docname="video-player-hd-player.svg"
   inkscape:version="0.92.1 r15371">
  <metadata
     id="metadata18">
    <rdf:RDF>
      <cc:Work
         rdf:about="">
        <dc:format>image/svg+xml</dc:format>
        <dc:type
           rdf:resource="http://purl.org/dc/dcmitype/StillImage" />
        <dc:title></dc:title>
      </cc:Work>
    </rdf:RDF>
  </metadata>
  <defs
     id="defs16" />
  <sodipodi:namedview
     pagecolor="#ffffff"
     bordercolor="#666666"
     borderopacity="1"
     objecttolerance="10"
     gridtolerance="10"
     guidetolerance="10"
     inkscape:pageopacity="0"
     inkscape:pageshadow="2"
     inkscape:window-width="1600"
     inkscape:window-height="822"
     id="namedview14"
     showgrid="false"
     inkscape:zoom="1"
     inkscape:cx="24"
     inkscape:cy="24"
     inkscape:window-x="0"
     inkscape:window-y="0"
     inkscape:window-maximized="1"
     inkscape:current-layer="svg12" />
  <rect
     transform="matrix(0,-1,-1,0,0,0)"
     rx="20"
     ry="20"
     height="40"
     width="40"
     y="-44"
     x="-44"
     id="rect2"
     style="fill:#305b9c;fill-opacity:1;stroke-width:1.00005007" />
  <path
     opacity=".2"
     d="m24 4c-11.079 0-19.998 8.92-19.998 20 0 0.16772-0.004 0.33329 0 0.5 0.2642-10.846 9.087-19.5 19.998-19.5s19.734 8.6536 19.998 19.5c0.004-0.16671 0-0.33228 0-0.5 0-11.08-8.919-20-19.998-20z"
     fill="#fff"
     id="path8"
     style="opacity:0.1" />
  <path
     opacity=".2"
     d="m4.0117 24.5c-0.0041 0.167-0.0117 0.332-0.0117 0.5 0 11.08 8.92 20 20 20s20-8.92 20-20c0-0.168-0.008-0.333-0.012-0.5-0.264 10.846-9.076 19.5-19.988 19.5s-19.724-8.654-19.988-19.5z"
     id="path10" />
  <path
     transform="matrix(1.0285801,0,0,1.0392393,-0.17894438,-0.35547027)"
     inkscape:transform-center-x="-1.9999989"
     d="m 31.284821,24.398106 -5.833285,3.367848 -5.833283,3.367848 0,-6.735697 0,-6.735695 5.833284,3.367848 z"
     inkscape:randomized="0"
     inkscape:rounded="0"
     inkscape:flatsided="false"
     sodipodi:arg2="1.0471976"
     sodipodi:arg1="0"
     sodipodi:r2="3.8888559"
     sodipodi:r1="7.7777119"
     sodipodi:cy="24.398106"
     sodipodi:cx="23.507109"
     sodipodi:sides="3"
     id="path4489"
     style="opacity:0.2;fill:#000000;fill-opacity:1;stroke:none;stroke-width:4;stroke-linecap:round;stroke-linejoin:round;stroke-miterlimit:4;stroke-dasharray:none;stroke-dashoffset:0;stroke-opacity:1"
     sodipodi:type="star" />
  <path
     style="opacity:0.3;fill:#000000;fill-opacity:1;stroke:none;stroke-width:4.20952654;stroke-linecap:round;stroke-linejoin:round;stroke-miterlimit:4;stroke-dasharray:none;stroke-dashoffset:0;stroke-opacity:1"
     d="M 24 10 A 14 14 0 0 0 10.162109 22 L 37.841797 22 A 14 14 0 0 0 24 10 z M 10.158203 26 A 14 14 0 0 0 24 38 A 14 14 0 0 0 37.837891 26 L 10.158203 26 z "
     id="path4488" />
  <circle
     r="9"
     cy="25"
     cx="24"
     id="circle4495"
     style="opacity:0.2;fill:#000000;fill-opacity:1;stroke:none;stroke-width:3.69417977;stroke-linecap:round;stroke-linejoin:round;stroke-miterlimit:4;stroke-dasharray:none;stroke-dashoffset:0;stroke-opacity:1" />
  <circle
     style="opacity:1;fill:#5e92d9;fill-opacity:1;stroke:none;stroke-width:3.69417977;stroke-linecap:round;stroke-linejoin:round;stroke-miterlimit:4;stroke-dasharray:none;stroke-dashoffset:0;stroke-opacity:1"
     id="path4493"
     cx="24"
     cy="24"
     r="9" />
  <path
     transform="matrix(0.6857201,0,0,0.74231378,7.5473698,6.88895)"
     inkscape:transform-center-x="-1.3333327"
     d="m 31.284821,24.398106 -5.833285,3.367848 -5.833283,3.367848 0,-6.735697 0,-6.735695 5.833284,3.367848 z"
     inkscape:randomized="0"
     inkscape:rounded="0"
     inkscape:flatsided="false"
     sodipodi:arg2="1.0471976"
     sodipodi:arg1="0"
     sodipodi:r2="3.8888559"
     sodipodi:r1="7.7777119"
     sodipodi:cy="24.398106"
     sodipodi:cx="23.507109"
     sodipodi:sides="3"
     id="path4497"
     style="opacity:0.2;fill:#000000;fill-opacity:1;stroke:none;stroke-width:4;stroke-linecap:round;stroke-linejoin:round;stroke-miterlimit:4;stroke-dasharray:none;stroke-dashoffset:0;stroke-opacity:1"
     sodipodi:type="star" />
  <path
     sodipodi:type="star"
     style="opacity:1;fill:#ffffff;fill-opacity:1;stroke:none;stroke-width:4;stroke-linecap:round;stroke-linejoin:round;stroke-miterlimit:4;stroke-dasharray:none;stroke-dashoffset:0;stroke-opacity:1"
     id="path4487"
     sodipodi:sides="3"
     sodipodi:cx="23.507109"
     sodipodi:cy="24.398106"
     sodipodi:r1="7.7777119"
     sodipodi:r2="3.8888559"
     sodipodi:arg1="0"
     sodipodi:arg2="1.0471976"
     inkscape:flatsided="false"
     inkscape:rounded="0"
     inkscape:randomized="0"
     d="m 31.284821,24.398106 -5.833285,3.367848 -5.833283,3.367848 0,-6.735697 0,-6.735695 5.833284,3.367848 z"
     inkscape:transform-center-x="-1.3333327"
     transform="matrix(0.6857201,0,0,0.74231378,7.5473698,5.88895)" />
  <path
     style="opacity:0.1;fill:#ffffff;fill-opacity:1;stroke:none;stroke-width:3.69417977;stroke-linecap:round;stroke-linejoin:round;stroke-miterlimit:4;stroke-dasharray:none;stroke-dashoffset:0;stroke-opacity:1"
     d="M 24 15 A 9 9 0 0 0 15 24 A 9 9 0 0 0 15.021484 24.576172 A 9 9 0 0 1 24 16 A 9 9 0 0 1 32.978516 24.423828 A 9 9 0 0 0 33 24 A 9 9 0 0 0 24 15 z "
     id="circle4499" />
</svg>
