<?xml version="1.0" encoding="UTF-8" standalone="no"?>
<svg
   xmlns:dc="http://purl.org/dc/elements/1.1/"
   xmlns:cc="http://creativecommons.org/ns#"
   xmlns:rdf="http://www.w3.org/1999/02/22-rdf-syntax-ns#"
   xmlns:svg="http://www.w3.org/2000/svg"
   xmlns="http://www.w3.org/2000/svg"
   xmlns:sodipodi="http://sodipodi.sourceforge.net/DTD/sodipodi-0.dtd"
   xmlns:inkscape="http://www.inkscape.org/namespaces/inkscape"
   height="48"
   width="48"
   version="1"
   id="svg12"
   sodipodi:docname="wondershare-player.svg"
   inkscape:version="0.92.1 r15371">
  <metadata
     id="metadata18">
    <rdf:RDF>
      <cc:Work
         rdf:about="">
        <dc:format>image/svg+xml</dc:format>
        <dc:type
           rdf:resource="http://purl.org/dc/dcmitype/StillImage" />
        <dc:title></dc:title>
      </cc:Work>
    </rdf:RDF>
  </metadata>
  <defs
     id="defs16" />
  <sodipodi:namedview
     pagecolor="#ffffff"
     bordercolor="#666666"
     borderopacity="1"
     objecttolerance="10"
     gridtolerance="10"
     guidetolerance="10"
     inkscape:pageopacity="0"
     inkscape:pageshadow="2"
     inkscape:window-width="1600"
     inkscape:window-height="822"
     id="namedview14"
     showgrid="false"
     inkscape:zoom="6.56"
     inkscape:cx="28.508867"
     inkscape:cy="24"
     inkscape:window-x="0"
     inkscape:window-y="0"
     inkscape:window-maximized="1"
     inkscape:current-layer="svg12" />
  <path
     style="opacity:0.2;fill:#000000;fill-opacity:1;stroke-width:0.96427703"
     id="path4536"
     d="m 5.2490349,13.978376 a 3.0231017,3.2450523 53.63087 0 0 -0.556313,4.431803 L 25.943175,42.994738 a 3.0231017,3.2450523 53.63087 0 0 5.42504,-1.164161 L 37.575772,25.933485 43.78196,10.03629 A 3.0231017,3.2450523 53.63087 0 0 40.356532,6.0734264 L 23.525118,9.678342 6.6937259,13.284761 a 3.0231017,3.2450523 53.63087 0 0 -1.444763,0.693676 z"
     inkscape:connector-curvature="0" />
  <path
     inkscape:connector-curvature="0"
     d="m 5.2490349,12.978376 a 3.0231017,3.2450523 53.63087 0 0 -0.556313,4.431803 L 25.943175,41.994738 a 3.0231017,3.2450523 53.63087 0 0 5.42504,-1.164161 L 37.575772,24.933485 43.78196,9.0362895 A 3.0231017,3.2450523 53.63087 0 0 40.356532,5.0734261 L 23.525118,8.6783417 6.6937259,12.284761 a 3.0231017,3.2450523 53.63087 0 0 -1.444763,0.693676 z"
     id="path2"
     style="opacity:1;fill:#45b7de;fill-opacity:1;stroke-width:0.96427703" />
  <path
     id="path4541"
     d="M 32.828125,7.6857189 23.525391,9.6779064 18.242188,10.810719 35.628906,30.924 l 1.947266,-4.990234 3.429687,-8.78711 z"
     style="opacity:0.2;fill:#000000;fill-opacity:1;stroke-width:0.96427703"
     inkscape:connector-curvature="0" />
  <path
     style="opacity:1;fill:#acef57;fill-opacity:1;stroke-width:0.96427703"
     d="M 32.828125 6.6855469 L 23.525391 8.6777344 L 18.242188 9.8105469 L 35.628906 29.923828 L 37.576172 24.933594 L 41.005859 16.146484 L 32.828125 6.6855469 z "
     id="path4519" />
  <path
     id="path4543"
     d="m 40.970703,6.000172 a 3.0231017,3.2450523 53.63087 0 0 -0.613281,0.074219 l -7.529297,1.6113281 8.177734,9.4609371 2.775391,-7.109375 A 3.0231017,3.2450523 53.63087 0 0 40.970703,6.000172 Z"
     style="opacity:0.2;fill:#000000;fill-opacity:1;stroke-width:0.96427703"
     inkscape:connector-curvature="0" />
  <path
     style="opacity:1;fill:#fffc5a;fill-opacity:1;stroke-width:0.96427703"
     d="M 40.970703 5 A 3.0231017 3.2450523 53.63087 0 0 40.357422 5.0742188 L 32.828125 6.6855469 L 41.005859 16.146484 L 43.78125 9.0371094 A 3.0231017 3.2450523 53.63087 0 0 40.970703 5 z "
     id="path4521" />
  <path
     style="opacity:0.2;fill:#ffffff;fill-opacity:1;stroke-width:0.96427703"
     d="M 40.970703 5 A 3.0231017 3.2450523 53.63087 0 0 40.357422 5.0742188 L 23.525391 8.6777344 L 6.6933594 12.285156 A 3.0231017 3.2450523 53.63087 0 0 5.25 12.978516 L 5.2480469 12.978516 A 3.0231017 3.2450523 53.63087 0 0 4.0449219 16.029297 A 3.0231017 3.2450523 53.63087 0 1 5.2480469 13.978516 L 5.25 13.978516 A 3.0231017 3.2450523 53.63087 0 1 6.6933594 13.285156 L 23.525391 9.6777344 L 40.357422 6.0742188 A 3.0231017 3.2450523 53.63087 0 1 43.957031 8.40625 A 3.0231017 3.2450523 53.63087 0 0 40.970703 5 z "
     id="path4531" />
</svg>
