<?xml version="1.0" encoding="UTF-8" standalone="no"?>
<svg
   xmlns:dc="http://purl.org/dc/elements/1.1/"
   xmlns:cc="http://creativecommons.org/ns#"
   xmlns:rdf="http://www.w3.org/1999/02/22-rdf-syntax-ns#"
   xmlns:svg="http://www.w3.org/2000/svg"
   xmlns="http://www.w3.org/2000/svg"
   xmlns:sodipodi="http://sodipodi.sourceforge.net/DTD/sodipodi-0.dtd"
   xmlns:inkscape="http://www.inkscape.org/namespaces/inkscape"
   height="48"
   width="48"
   version="1"
   id="svg12"
   sodipodi:docname="yolo-browser.svg"
   inkscape:version="0.92.1 r15371">
  <metadata
     id="metadata18">
    <rdf:RDF>
      <cc:Work
         rdf:about="">
        <dc:format>image/svg+xml</dc:format>
        <dc:type
           rdf:resource="http://purl.org/dc/dcmitype/StillImage" />
        <dc:title></dc:title>
      </cc:Work>
    </rdf:RDF>
  </metadata>
  <defs
     id="defs16" />
  <sodipodi:namedview
     pagecolor="#ffffff"
     bordercolor="#666666"
     borderopacity="1"
     objecttolerance="10"
     gridtolerance="10"
     guidetolerance="10"
     inkscape:pageopacity="0"
     inkscape:pageshadow="2"
     inkscape:window-width="1600"
     inkscape:window-height="822"
     id="namedview14"
     showgrid="false"
     inkscape:zoom="7.04"
     inkscape:cx="13.72931"
     inkscape:cy="37.978568"
     inkscape:window-x="0"
     inkscape:window-y="0"
     inkscape:window-maximized="1"
     inkscape:current-layer="svg12">
    <inkscape:grid
       type="xygrid"
       id="grid4500" />
  </sodipodi:namedview>
  <path
     transform="matrix(0,-1,-1,0,0,0)"
     style="fill:#f26522;fill-opacity:1"
     d="m -41.245473,-42.541247 34.8430585,-0.301811 c 1.1079584,-0.0096 0.6196537,-0.06351 0.6418511,1.044265 l 0.7042254,35.1448695 c 0.0087,0.4341321 0.9193434,1.4891885 0.686041,1.8163737 C -4.7323137,-4.3298545 -5.3262193,-4 -6,-4 h -36 c -1.108,0 -2,-0.892 -2,-2 v -36 c 0,-0.74656 0.404963,-1.395058 1.008102,-1.738706 0.292004,-0.166374 1.384999,1.200589 1.746425,1.197459 z"
     id="rect2"
     inkscape:connector-curvature="0"
     sodipodi:nodetypes="sssssssssss" />
  <path
     transform="matrix(0,-1,-1,0,0,0)"
     style="fill:#f7941e;fill-opacity:1;opacity:1"
     d="m -42,-44 h 36 c 1.108,0 2,0.892 2,2 v 36 c 0,0.5751509 -0.2403527,1.0920999 -0.6265056,1.4562944 L -43.456294,-43.373494 C -43.0921,-43.759647 -42.575151,-44 -42,-44 Z"
     id="rect4525"
     inkscape:connector-curvature="0"
     sodipodi:nodetypes="ssssccs" />
  <path
     opacity=".2"
     d="m6 4c-1.108 0-2 0.892-2 2v1c0-1.108 0.892-2 2-2h36c1.108 0 2 0.892 2 2v-1c0-1.108-0.892-2-2-2h-36z"
     fill="#fff"
     id="path4"
     style="opacity:0.2" />
  <path
     d="M 6,45 C 4.892,45 4,44.108 4,43 v -1 c 0,1.108 0.892,2 2,2 h 36 c 0.772796,0 1.440516,-0.433925 1.773797,-1.072413 C 43.91836,42.650639 44,42.335204 44,42 v 1 c 0,1.108 -0.892,2 -2,2 z"
     id="path6"
     inkscape:connector-curvature="0"
     style="opacity:0.2"
     sodipodi:nodetypes="sscssscsss" />
  <path
     sodipodi:nodetypes="csccccscccc"
     id="path4528"
     d="m 7.0328125,8.0000045 c -0.2289958,-0.00231 0.5384654,0.7965672 8.9002815,9.2652885 8.824487,8.937307 24.948468,24.848874 25.064279,24.734089 0.03669,-0.03637 -0.315328,-0.588324 -0.78237,-1.226683 C 36.72339,36.000304 34.921277,32.195988 34.126081,28.392511 33.678676,25.174379 34.260668,21.953636 33.487919,18.793444 33.151931,17.484676 32.293733,15.77253 31.516115,14.567686 30.922745,13.648315 29.529356,12 29.273214,12 28.931964,13.215551 28.942116,14.762875 28.437526,15.780404 27.428644,17.628625 25.844119,18.940521 24.019513,20 17.749118,16.097554 14.016597,12.706426 7.0328125,8.0000045 Z"
     style="opacity:0.2;fill:#000000;fill-opacity:1;stroke-width:0.14081743"
     inkscape:connector-curvature="0" />
  <path
     inkscape:connector-curvature="0"
     style="fill:#ffffff;fill-opacity:1;stroke-width:0.14081743"
     d="m 7.0328125,7.0000042 c -0.2289958,-0.00231 0.5384654,0.7965672 8.9002815,9.2652888 8.824487,8.937307 24.948468,24.848874 25.064279,24.734089 0.03669,-0.03637 -0.315328,-0.588324 -0.78237,-1.226683 C 36.72339,35.000304 34.921277,31.195988 34.126081,27.392511 33.678676,24.174379 34.260668,20.953636 33.487919,17.793444 33.151931,16.484676 32.293733,14.77253 31.516115,13.567686 30.922745,12.648315 29.529356,11 29.273214,11 28.931964,12.215551 28.942116,13.762875 28.437526,14.780404 27.428644,16.628625 25.844119,17.940521 24.019513,19 17.749118,15.097554 14.016597,11.706426 7.0328125,7.0000042 Z"
     id="path4513"
     sodipodi:nodetypes="csccccscccc" />
  <path
     id="path4530"
     d="m 17.328822,24.000018 c -0.611667,-0.0021 -1.224244,0.187825 -1.81669,0.565815 -0.385215,0.245773 -1.341865,0.777639 -2.125947,1.182096 -1.237494,0.638342 -1.419807,0.779089 -1.381678,1.065876 0.105986,0.797152 3.469619,1.80478 9.43939,2.827919 C 23.816589,30.04837 24,30.067183 24,29.904156 c 0,-0.06554 -1.16579,-1.349996 -2.590645,-2.854451 -2.282068,-2.409556 -2.668964,-2.758446 -3.248829,-2.9277 -0.275804,-0.08051 -0.553675,-0.121047 -0.831704,-0.121987 z"
     style="opacity:0.2;fill:#000000;fill-opacity:1;stroke-width:0.14283206"
     inkscape:connector-curvature="0" />
  <path
     inkscape:connector-curvature="0"
     style="fill:#f9b291;fill-opacity:1;stroke-width:0.14283206;opacity:1"
     d="m 17.328822,23.000018 c -0.611667,-0.0021 -1.224244,0.187825 -1.81669,0.565815 -0.385215,0.245773 -1.341865,0.777639 -2.125947,1.182096 -1.237494,0.638342 -1.419807,0.779089 -1.381678,1.065876 0.105986,0.797152 3.469619,1.80478 9.43939,2.827919 C 23.816589,29.04837 24,29.067183 24,28.904156 c 0,-0.06554 -1.16579,-1.349996 -2.590645,-2.854451 -2.282068,-2.409556 -2.668964,-2.758446 -3.248829,-2.9277 -0.275804,-0.08051 -0.553675,-0.121047 -0.831704,-0.121987 z"
     id="path4504" />
  <path
     style="fill:#ffffff;fill-opacity:1;stroke-width:0.14283206;opacity:0.1"
     d="M 17.328125 23 C 16.716458 22.9979 16.104165 23.188416 15.511719 23.566406 C 15.126504 23.812179 14.170801 24.34359 13.386719 24.748047 C 12.149225 25.386389 11.965777 25.527666 12.003906 25.814453 C 12.02348 25.961669 12.192008 26.116998 12.429688 26.277344 C 12.640998 26.143972 12.922659 25.987425 13.386719 25.748047 C 14.170801 25.34359 15.126504 24.812179 15.511719 24.566406 C 16.104165 24.188416 16.716458 23.9979 17.328125 24 C 17.606154 24.00094 17.884352 24.040584 18.160156 24.121094 C 18.740021 24.290348 19.128088 24.639272 21.410156 27.048828 C 22.08518 27.761563 22.680252 28.40434 23.142578 28.912109 C 23.729288 28.993779 24 29.003434 24 28.904297 C 24 28.838757 22.835011 27.553283 21.410156 26.048828 C 19.128088 23.639272 18.740021 23.290348 18.160156 23.121094 C 17.884352 23.040584 17.606154 23.00094 17.328125 23 z "
     id="path4532" />
</svg>
