<svg width="48" height="48" version="1" xmlns="http://www.w3.org/2000/svg">
 <path d="m7 6c-1.662 0-3 1.338-3 3v25h40v-25c0-1.662-1.338-3-3-3z" fill="#c2352a" style="enable-background:new;fill:#289cc1"/>
 <path d="m7 6c-1.662 0-3 1.338-3 3v1c0-1.662 1.338-3 3-3h34c1.662 0 3 1.338 3 3v-1c0-1.662-1.338-3-3-3h-34z" fill="#fff" opacity=".2" style="enable-background:new"/>
 <path d="m4 34v5c0 1.662 1.338 3 3 3h34c1.662 0 3-1.338 3-3v-5z" fill="#f2f2f2" style="enable-background:new;fill:#cccccc"/>
 <rect x="28" y="37" width="13" height="2" rx="1" ry=".928" fill="#999" style="enable-background:new"/>
 <rect x="7" y="37" width="21" height="2" rx="1" ry="1" fill="#c2352a" style="enable-background:new;fill:#289cc1"/>
 <circle cx="28" cy="39" r="2" opacity=".2" style="enable-background:new"/>
 <circle cx="28" cy="38" r="2" fill="#fff" style="enable-background:new;fill:#ffffff"/>
 <rect x="4" y="34" width="40" height="1" fill="#fff" style="enable-background:new;opacity:.2"/>
 <path d="m4 39v1c0 1.662 1.338 3 3 3h34c1.662 0 3-1.338 3-3v-1c0 1.662-1.338 3-3 3h-34c-1.662 0-3-1.338-3-3z" opacity=".2" style="enable-background:new"/>
 <path d="m24 12a9 9 0 0 0-9 9 9 9 0 0 0 9 9 9 9 0 0 0 9-9 9 9 0 0 0-9-9zm-1.990234 4a0.98641049 1.1041478 0 0 1 0.46875 0.150391l3.015625 1.947265 3.015625 1.949219a0.98641049 1.1041478 0 0 1 0 1.908203l-3.015625 1.951172-3.015625 1.947266a0.98641049 1.1041478 0 0 1-1.478516-0.957032v-7.792968a0.98641049 1.1041478 0 0 1 1.009766-1.103516z" style="fill:#000000;opacity:.2"/>
 <path d="m24 11a9 9 0 0 0-9 9 9 9 0 0 0 9 9 9 9 0 0 0 9-9 9 9 0 0 0-9-9zm-1.990234 4a0.98641049 1.1041478 0 0 1 0.46875 0.150391l3.015625 1.947265 3.015625 1.949219a0.98641049 1.1041478 0 0 1 0 1.908203l-3.015625 1.951172-3.015625 1.947266a0.98641049 1.1041478 0 0 1-1.478516-0.957032v-7.792968a0.98641049 1.1041478 0 0 1 1.009766-1.103516z" style="fill:#ffffff"/>
</svg>
