<?xml version="1.0" encoding="UTF-8" standalone="no"?>
<!-- Created with Inkscape (http://www.inkscape.org/) -->

<svg
   xmlns:osb="http://www.openswatchbook.org/uri/2009/osb"
   xmlns:dc="http://purl.org/dc/elements/1.1/"
   xmlns:cc="http://creativecommons.org/ns#"
   xmlns:rdf="http://www.w3.org/1999/02/22-rdf-syntax-ns#"
   xmlns:svg="http://www.w3.org/2000/svg"
   xmlns="http://www.w3.org/2000/svg"
   xmlns:sodipodi="http://sodipodi.sourceforge.net/DTD/sodipodi-0.dtd"
   xmlns:inkscape="http://www.inkscape.org/namespaces/inkscape"
   width="80"
   height="16"
   id="svg4428"
   version="1.1"
   inkscape:version="0.91 r13725"
   sodipodi:docname="alldesktops.svg">
  <defs
     id="defs4430">
    <linearGradient
       osb:paint="solid"
       id="linearGradient5606">
      <stop
         style="stop-color:#000000;stop-opacity:1;"
         offset="0"
         id="stop5608" />
    </linearGradient>
  </defs>
  <sodipodi:namedview
     id="base"
     pagecolor="#bdc3c7"
     bordercolor="#666666"
     borderopacity="1.0"
     inkscape:pageopacity="1"
     inkscape:pageshadow="2"
     inkscape:zoom="3.58"
     inkscape:cx="42.832284"
     inkscape:cy="14.381718"
     inkscape:document-units="px"
     inkscape:current-layer="layer1"
     showgrid="false"
     inkscape:snap-bbox="true"
     inkscape:window-width="1600"
     inkscape:window-height="847"
     inkscape:window-x="0"
     inkscape:window-y="0"
     inkscape:window-maximized="1"
     showborder="true"
     inkscape:showpageshadow="false">
    <inkscape:grid
       type="xygrid"
       id="grid4436"
       empspacing="5"
       visible="true"
       enabled="true"
       snapvisiblegridlinesonly="true" />
  </sodipodi:namedview>
  <metadata
     id="metadata4433">
    <rdf:RDF>
      <cc:Work
         rdf:about="">
        <dc:format>image/svg+xml</dc:format>
        <dc:type
           rdf:resource="http://purl.org/dc/dcmitype/StillImage" />
        <dc:title></dc:title>
      </cc:Work>
    </rdf:RDF>
  </metadata>
  <g
     inkscape:label="Layer 1"
     inkscape:groupmode="layer"
     id="layer1"
     transform="translate(0,-1036.3622)">
    <g
       id="4"
       inkscape:label="#g3842"
       transform="translate(81,-3)" />
    <g
       transform="matrix(0.70710678,-0.70710678,0.70710678,0.70710678,-189.54444,1239.1835)"
       style="display:inline"
       inkscape:label="actions"
       id="g4334" />
    <g
       transform="matrix(0.70710678,-0.70710678,0.70710678,0.70710678,-147.54444,1239.1835)"
       style="display:inline"
       inkscape:label="actions"
       id="g4346" />
    <g
       id="g4358"
       inkscape:label="actions"
       style="display:inline"
       transform="matrix(0.70710678,-0.70710678,0.70710678,0.70710678,-103.54444,1239.1835)" />
    <g
       transform="matrix(0.70710678,-0.70710678,0.70710678,0.70710678,-53.54444,1239.1835)"
       style="display:inline"
       inkscape:label="actions"
       id="g4370" />
    <g
       style="enable-background:new"
       id="g4242"
       transform="matrix(0.70710678,-0.70710678,0.70710678,0.70710678,-26.313708,1038.3622)">
      <g
         transform="translate(-285.00081,-0.99666)"
         style="display:inline"
         inkscape:label="actions"
         id="layer12" />
    </g>
    <g
       id="active-center"
       transform="translate(25,6.0000174)"
       inkscape:label="#g4170">
      <rect
         transform="matrix(0,-1,1,0,0,0)"
         y="-25"
         x="-1046.3622"
         height="16"
         width="16"
         id="rect4246"
         style="opacity:0.00100002;fill:#000000;fill-opacity:1;stroke:none;stroke-width:0.5;stroke-linecap:round;stroke-linejoin:round;stroke-miterlimit:4;stroke-dasharray:none;stroke-opacity:1" />
      <path
         inkscape:connector-curvature="0"
         id="path4204"
         d="m -17.000001,1033.3622 c -2.209142,0 -4,1.5983 -4,3.5703 0,0.1232 0.01179,0.2374 0.02539,0.3575 0.01096,0.1194 0.02747,0.2404 0.04883,0.3574 0.457988,2.5097 2.325765,4.2866 3.925781,5.7148 1.600016,-1.4282 3.467777,-3.205 3.925781,-5.7148 0.02136,-0.117 0.03787,-0.238 0.04883,-0.3574 0.01368,-0.1201 0.02539,-0.2343 0.02539,-0.3575 0,-1.972 -1.790858,-3.5703 -4,-3.5703 z m 0,2 c 1.1046,0 2,0.8954 2,2 0,1.1046 -0.89543,2 -2,2 -1.10457,0 -2,-0.8954 -2,-2 0,-1.1046 0.89543,-2 2,-2 z"
         style="color:#000000;opacity:0.5;enable-background:new" />
    </g>
    <g
       transform="translate(41,6.0000174)"
       id="hover-center"
       inkscape:label="#g4174">
      <rect
         style="opacity:0.00100002;fill:#000000;fill-opacity:1;stroke:none;stroke-width:0.5;stroke-linecap:round;stroke-linejoin:round;stroke-miterlimit:4;stroke-dasharray:none;stroke-opacity:1"
         id="rect4176"
         width="16"
         height="16"
         x="-1046.3622"
         y="-25"
         transform="matrix(0,-1,1,0,0,0)" />
      <path
         style="color:#000000;opacity:0.7;enable-background:new"
         d="m -17.000001,1033.3622 c -2.209142,0 -4,1.5983 -4,3.5703 0,0.1232 0.01179,0.2374 0.02539,0.3575 0.01096,0.1194 0.02747,0.2404 0.04883,0.3574 0.457988,2.5097 2.325765,4.2866 3.925781,5.7148 1.600016,-1.4282 3.467777,-3.205 3.925781,-5.7148 0.02136,-0.117 0.03787,-0.238 0.04883,-0.3574 0.01368,-0.1201 0.02539,-0.2343 0.02539,-0.3575 0,-1.972 -1.790858,-3.5703 -4,-3.5703 z m 0,2 c 1.1046,0 2,0.8954 2,2 0,1.1046 -0.89543,2 -2,2 -1.10457,0 -2,-0.8954 -2,-2 0,-1.1046 0.89543,-2 2,-2 z"
         id="path4178"
         inkscape:connector-curvature="0" />
    </g>
    <g
       id="pressed-center"
       transform="translate(57,6.0000174)"
       inkscape:label="#g4180">
      <rect
         transform="matrix(0,-1,1,0,0,0)"
         y="-25"
         x="-1046.3622"
         height="16"
         width="16"
         id="rect4182"
         style="opacity:0.00100002;fill:#000000;fill-opacity:1;stroke:none;stroke-width:0.5;stroke-linecap:round;stroke-linejoin:round;stroke-miterlimit:4;stroke-dasharray:none;stroke-opacity:1" />
      <path
         style="color:#000000;opacity:0.5;enable-background:new"
         d="m -17.000001,1033.3622 c -2.209142,0 -4,1.5983 -4,3.5703 0,0.1232 0.01179,0.2374 0.02539,0.3575 0.01096,0.1194 0.02747,0.2404 0.04883,0.3574 0.457988,2.5097 2.325765,4.2866 3.925781,5.7148 1.600016,-1.4282 3.467777,-3.205 3.925781,-5.7148 0.02136,-0.117 0.03787,-0.238 0.04883,-0.3574 0.01368,-0.1201 0.02539,-0.2343 0.02539,-0.3575 0,-1.972 -1.790858,-3.5703 -4,-3.5703 z"
         id="path4200" />
    </g>
    <g
       transform="translate(73,6.0000174)"
       id="inactive-center"
       inkscape:label="#g4186">
      <rect
         style="opacity:0.00100002;fill:#000000;fill-opacity:1;stroke:none;stroke-width:0.5;stroke-linecap:round;stroke-linejoin:round;stroke-miterlimit:4;stroke-dasharray:none;stroke-opacity:1"
         id="rect4188"
         width="16"
         height="16"
         x="-1046.3622"
         y="-25"
         transform="matrix(0,-1,1,0,0,0)" />
      <path
         style="color:#000000;opacity:0.3;enable-background:new"
         d="m -17.000001,1033.3622 c -2.209142,0 -4,1.5983 -4,3.5703 0,0.1232 0.01179,0.2374 0.02539,0.3575 0.01096,0.1194 0.02747,0.2404 0.04883,0.3574 0.457988,2.5097 2.325765,4.2866 3.925781,5.7148 1.600016,-1.4282 3.467777,-3.205 3.925781,-5.7148 0.02136,-0.117 0.03787,-0.238 0.04883,-0.3574 0.01368,-0.1201 0.02539,-0.2343 0.02539,-0.3575 0,-1.972 -1.790858,-3.5703 -4,-3.5703 z m 0,2 c 1.1046,0 2,0.8954 2,2 0,1.1046 -0.89543,2 -2,2 -1.10457,0 -2,-0.8954 -2,-2 0,-1.1046 0.89543,-2 2,-2 z"
         id="path4190"
         inkscape:connector-curvature="0" />
    </g>
    <g
       id="deactivated-center"
       transform="translate(89,6.0000174)"
       inkscape:label="#g4192">
      <rect
         transform="matrix(0,-1,1,0,0,0)"
         y="-25"
         x="-1046.3622"
         height="16"
         width="16"
         id="rect4194"
         style="opacity:0.00100002;fill:#000000;fill-opacity:1;stroke:none;stroke-width:0.5;stroke-linecap:round;stroke-linejoin:round;stroke-miterlimit:4;stroke-dasharray:none;stroke-opacity:1" />
      <path
         inkscape:connector-curvature="0"
         id="path4196"
         d="m -17.000001,1033.3622 c -2.209142,0 -4,1.5983 -4,3.5703 0,0.1232 0.01179,0.2374 0.02539,0.3575 0.01096,0.1194 0.02747,0.2404 0.04883,0.3574 0.457988,2.5097 2.325765,4.2866 3.925781,5.7148 1.600016,-1.4282 3.467777,-3.205 3.925781,-5.7148 0.02136,-0.117 0.03787,-0.238 0.04883,-0.3574 0.01368,-0.1201 0.02539,-0.2343 0.02539,-0.3575 0,-1.972 -1.790858,-3.5703 -4,-3.5703 z m 0,2 c 1.1046,0 2,0.8954 2,2 0,1.1046 -0.89543,2 -2,2 -1.10457,0 -2,-0.8954 -2,-2 0,-1.1046 0.89543,-2 2,-2 z"
         style="color:#000000;opacity:0.1;enable-background:new" />
    </g>
  </g>
</svg>
