<?xml version="1.0" encoding="UTF-8" standalone="no"?>
<svg
   xmlns:dc="http://purl.org/dc/elements/1.1/"
   xmlns:cc="http://creativecommons.org/ns#"
   xmlns:rdf="http://www.w3.org/1999/02/22-rdf-syntax-ns#"
   xmlns:svg="http://www.w3.org/2000/svg"
   xmlns="http://www.w3.org/2000/svg"
   xmlns:sodipodi="http://sodipodi.sourceforge.net/DTD/sodipodi-0.dtd"
   xmlns:inkscape="http://www.inkscape.org/namespaces/inkscape"
   height="48"
   width="48"
   version="1"
   id="svg32"
   sodipodi:docname="321-mediaplayer.svg"
   inkscape:version="0.92.1 r15371">
  <metadata
     id="metadata38">
    <rdf:RDF>
      <cc:Work
         rdf:about="">
        <dc:format>image/svg+xml</dc:format>
        <dc:type
           rdf:resource="http://purl.org/dc/dcmitype/StillImage" />
        <dc:title></dc:title>
      </cc:Work>
    </rdf:RDF>
  </metadata>
  <defs
     id="defs36" />
  <sodipodi:namedview
     pagecolor="#ffffff"
     bordercolor="#666666"
     borderopacity="1"
     objecttolerance="10"
     gridtolerance="10"
     guidetolerance="10"
     inkscape:pageopacity="0"
     inkscape:pageshadow="2"
     inkscape:window-width="1600"
     inkscape:window-height="831"
     id="namedview34"
     showgrid="false"
     inkscape:measure-start="0,0"
     inkscape:measure-end="0,0"
     inkscape:zoom="12.239653"
     inkscape:cx="24"
     inkscape:cy="26.187062"
     inkscape:window-x="0"
     inkscape:window-y="0"
     inkscape:window-maximized="1"
     inkscape:current-layer="svg32" />
  <path
     style="fill:#cccccc;fill-opacity:1"
     inkscape:connector-curvature="0"
     d="M 44,40 V 8 C 44,6.892 43.108,6 42,6 H 6 C 4.892,6 4,6.892 4,8 v 32 c 0,1.108 0.892,2 2,2 h 36 c 1.108,0 2,-0.892 2,-2 z"
     id="path2" />
  <g
     transform="translate(-144,-236)"
     id="g24">
    <path
       style="opacity:1;fill:#4f4f4f;fill-opacity:1"
       inkscape:connector-curvature="0"
       d="m 150,242 c -1.108,0 -2,0.892 -2,2 v 6 h 40 v -6 c 0,-1.108 -0.892,-2 -2,-2 z"
       id="path4" />
    <path
       style="opacity:0.2"
       inkscape:connector-curvature="0"
       d="m 150,242 c -1.108,0 -2,0.892 -2,2 v 2 h 40 v -2 c 0,-1.108 -0.892,-2 -2,-2 z"
       id="path6" />
    <path
       style="opacity:1;fill:#cccccc;fill-opacity:1"
       inkscape:connector-curvature="0"
       d="m 150,242 c -1.108,0 -2,0.892 -2,2 v 6 h 9 v -4 l -4,-4 z"
       id="path8" />
    <path
       style="opacity:1;fill:#cccccc;fill-opacity:1;fill-rule:evenodd"
       inkscape:connector-curvature="0"
       d="m 163,246 -4,-4 h 5 l 4,4 z"
       id="path10" />
    <path
       style="opacity:1;fill:#cccccc;fill-opacity:1;fill-rule:evenodd"
       inkscape:connector-curvature="0"
       d="m 163,246 -4,4 h 5 l 4,-4 z"
       id="path12" />
    <path
       style="opacity:1;fill:#cccccc;fill-opacity:1;fill-rule:evenodd"
       inkscape:connector-curvature="0"
       d="m 173,246 -4,-4 h 5 l 4,4 z"
       id="path14" />
    <path
       style="opacity:1;fill:#cccccc;fill-opacity:1;fill-rule:evenodd"
       inkscape:connector-curvature="0"
       d="m 173,246 -4,4 h 5 l 4,-4 z"
       id="path16" />
    <path
       style="opacity:1;fill:#cccccc;fill-opacity:1;fill-rule:evenodd"
       inkscape:connector-curvature="0"
       d="m 183,246 -4,-4 h 5 l 4,4 z"
       id="path18" />
    <path
       style="opacity:1;fill:#cccccc;fill-opacity:1;fill-rule:evenodd"
       inkscape:connector-curvature="0"
       d="m 183,246 -4,4 h 5 l 4,-4 z"
       id="path20" />
    <path
       style="opacity:0.2;fill:#ffffff"
       inkscape:connector-curvature="0"
       d="m 150,242 c -1.108,0 -2,0.892 -2,2 v 1 c 0,-1.108 0.892,-2 2,-2 h 36 c 1.108,0 2,0.892 2,2 v -1 c 0,-1.108 -0.892,-2 -2,-2 z"
       id="path22" />
  </g>
  <path
     style="opacity:0.2"
     inkscape:connector-curvature="0"
     d="m 4,40 v 1 c 0,1.108 0.892,2 2,2 h 36 c 1.108,0 2,-0.892 2,-2 v -1 c 0,1.108 -0.892,2 -2,2 H 6 C 4.892,42 4,41.108 4,40 Z"
     id="path26" />
  <path
     style="display:inline;opacity:1;fill:#e14f4f;fill-opacity:1;stroke:none;stroke-width:2;stroke-linecap:butt;stroke-linejoin:miter;stroke-miterlimit:4;stroke-dasharray:none;stroke-opacity:1;enable-background:new"
     d="m 10,22 v 2 h 3 c 0.554,0 1,0.446 1,1 0,0.554 -0.446,1 -1,1 h -3 v 2 h 3 c 0.554,0 1,0.446 1,1 0,0.554 -0.446,1 -1,1 h -3 v 2 h 3 c 1.662,0 3,-1.338 3,-3 0,-0.7733 -0.29821,-1.4691 -0.77539,-2 C 15.70179,26.4691 16,25.7733 16,25 16,23.338 14.662,22 13,22 Z"
     id="rect4392-9"
     inkscape:connector-curvature="0" />
  <path
     style="color:#000000;font-style:normal;font-variant:normal;font-weight:normal;font-stretch:normal;font-size:medium;line-height:normal;font-family:sans-serif;text-indent:0;text-align:start;text-decoration:none;text-decoration-line:none;text-decoration-style:solid;text-decoration-color:#000000;letter-spacing:normal;word-spacing:normal;text-transform:none;writing-mode:lr-tb;direction:ltr;baseline-shift:baseline;text-anchor:start;white-space:normal;clip-rule:nonzero;display:inline;overflow:visible;visibility:visible;opacity:1;isolation:auto;mix-blend-mode:normal;color-interpolation:sRGB;color-interpolation-filters:linearRGB;solid-color:#000000;solid-opacity:1;fill:#2e94df;fill-opacity:1;fill-rule:evenodd;stroke:none;stroke-width:1.99999666;stroke-linecap:butt;stroke-linejoin:miter;stroke-miterlimit:4;stroke-dasharray:none;stroke-dashoffset:0;stroke-opacity:1;color-rendering:auto;image-rendering:auto;shape-rendering:auto;text-rendering:auto;enable-background:accumulate"
     d="m 24.999995,22.000017 c 0,0 -0.708749,-0.014 -1.447268,0.3555 C 22.814219,22.724716 22,23.666715 22,25.000012 h 1.999997 c 0,-0.999998 0.999998,-0.999998 0.999998,-0.999998 0,0 0.999999,0 0.999999,0.999998 0,0.5278 -0.139601,0.822899 -0.40625,1.156198 -0.26665,0.3334 -0.693359,0.668 -1.193358,1.042999 -0.499999,0.374999 -1.073288,0.790398 -1.556638,1.394597 C 22.360399,29.197906 22,30.027805 22,31.000002 V 32 h 5.99999 v -1.999995 h -3.648434 c 0.0313,-0.044 0.0187,-0.111201 0.0547,-0.1562 0.266649,-0.3334 0.693359,-0.667999 1.193358,-1.042999 0.499999,-0.374999 1.073288,-0.790399 1.556637,-1.394598 C 27.6396,26.802109 28,25.972211 28,25.000012 c 0,-1.333297 -0.814219,-2.275296 -1.552728,-2.644495 -0.738528,-0.369299 -1.447277,-0.3555 -1.447277,-0.3555 z"
     id="path6906"
     inkscape:connector-curvature="0"
     sodipodi:nodetypes="cccccscscscccccscscc" />
  <path
     sodipodi:nodetypes="ccccccc"
     inkscape:connector-curvature="0"
     id="path9916"
     d="m 35,22 -1,2 h 2 v 8 h 2 V 22 Z"
     style="color:#000000;font-style:normal;font-variant:normal;font-weight:normal;font-stretch:normal;font-size:medium;line-height:normal;font-family:sans-serif;text-indent:0;text-align:start;text-decoration:none;text-decoration-line:none;text-decoration-style:solid;text-decoration-color:#000000;letter-spacing:normal;word-spacing:normal;text-transform:none;writing-mode:lr-tb;direction:ltr;baseline-shift:baseline;text-anchor:start;white-space:normal;clip-rule:nonzero;display:inline;overflow:visible;visibility:visible;opacity:1;isolation:auto;mix-blend-mode:normal;color-interpolation:sRGB;color-interpolation-filters:linearRGB;solid-color:#000000;solid-opacity:1;fill:#5aab16;fill-opacity:1;fill-rule:evenodd;stroke:none;stroke-width:2;stroke-linecap:butt;stroke-linejoin:miter;stroke-miterlimit:4;stroke-dasharray:none;stroke-dashoffset:0;stroke-opacity:1;color-rendering:auto;image-rendering:auto;shape-rendering:auto;text-rendering:auto;enable-background:accumulate" />
</svg>
