<?xml version="1.0" encoding="UTF-8" standalone="no"?>
<svg
   xmlns:dc="http://purl.org/dc/elements/1.1/"
   xmlns:cc="http://creativecommons.org/ns#"
   xmlns:rdf="http://www.w3.org/1999/02/22-rdf-syntax-ns#"
   xmlns:svg="http://www.w3.org/2000/svg"
   xmlns="http://www.w3.org/2000/svg"
   xmlns:sodipodi="http://sodipodi.sourceforge.net/DTD/sodipodi-0.dtd"
   xmlns:inkscape="http://www.inkscape.org/namespaces/inkscape"
   height="48"
   width="48"
   version="1"
   id="svg12"
   sodipodi:docname="accountstudio-mp3-player.svg"
   inkscape:version="0.92.1 r15371">
  <metadata
     id="metadata18">
    <rdf:RDF>
      <cc:Work
         rdf:about="">
        <dc:format>image/svg+xml</dc:format>
        <dc:type
           rdf:resource="http://purl.org/dc/dcmitype/StillImage" />
        <dc:title></dc:title>
      </cc:Work>
    </rdf:RDF>
  </metadata>
  <defs
     id="defs16" />
  <sodipodi:namedview
     pagecolor="#ffffff"
     bordercolor="#666666"
     borderopacity="1"
     objecttolerance="10"
     gridtolerance="10"
     guidetolerance="10"
     inkscape:pageopacity="0"
     inkscape:pageshadow="2"
     inkscape:window-width="1600"
     inkscape:window-height="822"
     id="namedview14"
     showgrid="false"
     inkscape:zoom="8.08"
     inkscape:cx="-9.3217822"
     inkscape:cy="24"
     inkscape:window-x="0"
     inkscape:window-y="0"
     inkscape:window-maximized="1"
     inkscape:current-layer="svg12" />
  <rect
     transform="matrix(0,-1,-1,0,0,0)"
     rx="20"
     ry="20"
     height="40"
     width="40"
     y="-44"
     x="-44"
     id="rect2"
     style="fill:#3f3f3f;fill-opacity:1;stroke-width:1.00005007" />
  <rect
     transform="matrix(0,-1,-1,0,0,0)"
     rx="18"
     ry="18"
     height="36"
     width="36"
     y="-44"
     x="-45"
     id="rect4499"
     style="opacity:0.2;fill:#000000;fill-opacity:1;stroke-width:0.90004504" />
  <rect
     style="fill:#ea3e82;fill-opacity:1;stroke-width:0.90004504"
     id="rect4489"
     x="-44"
     y="-44"
     width="36"
     height="36"
     ry="18"
     rx="18"
     transform="matrix(0,-1,-1,0,0,0)" />
  <path
     opacity=".2"
     d="m24 4c-11.079 0-19.998 8.92-19.998 20 0 0.16772-0.004 0.33329 0 0.5 0.2642-10.846 9.087-19.5 19.998-19.5s19.734 8.6536 19.998 19.5c0.004-0.16671 0-0.33228 0-0.5 0-11.08-8.919-20-19.998-20z"
     fill="#fff"
     id="path8"
     style="opacity:0.1" />
  <path
     opacity=".2"
     d="m4.0117 24.5c-0.0041 0.167-0.0117 0.332-0.0117 0.5 0 11.08 8.92 20 20 20s20-8.92 20-20c0-0.168-0.008-0.333-0.012-0.5-0.264 10.846-9.076 19.5-19.988 19.5s-19.724-8.654-19.988-19.5z"
     id="path10" />
  <rect
     style="opacity:0.2;fill:#040404;fill-opacity:1;stroke-width:0.80004001"
     id="rect4503"
     x="-45"
     y="-44"
     width="32"
     height="32"
     ry="16"
     rx="16"
     transform="matrix(0,-1,-1,0,0,0)" />
  <rect
     transform="matrix(0,-1,-1,0,0,0)"
     rx="16"
     ry="16"
     height="32"
     width="32"
     y="-44"
     x="-44"
     id="rect4491"
     style="fill:#3f3f3f;fill-opacity:1;stroke-width:0.80004001" />
  <path
     inkscape:connector-curvature="0"
     id="path4501"
     d="M 25.515062,22.000444 A 1.4796156,1.5458069 0 0 0 24,23.545425 v 5.455282 5.455282 a 1.4796156,1.5458069 0 0 0 2.218255,1.337616 l 4.52388,-2.725364 4.521745,-2.729918 a 1.4796156,1.5458069 0 0 0 0,-2.672953 l -4.521745,-2.72992 -4.52388,-2.725362 a 1.4796156,1.5458069 0 0 0 -0.703193,-0.209644 z"
     style="opacity:0.2;fill:#000000;fill-opacity:1;stroke:none;stroke-width:3.6039865;stroke-linecap:round;stroke-linejoin:round;stroke-miterlimit:4;stroke-dasharray:none;stroke-dashoffset:0;stroke-opacity:1" />
  <path
     style="opacity:1;fill:#ea3e82;fill-opacity:1;stroke:none;stroke-width:3.6039865;stroke-linecap:round;stroke-linejoin:round;stroke-miterlimit:4;stroke-dasharray:none;stroke-dashoffset:0;stroke-opacity:1"
     d="M 25.515062,21.000444 A 1.4796156,1.5458069 0 0 0 24,22.545425 v 5.455282 5.455282 a 1.4796156,1.5458069 0 0 0 2.218255,1.337616 l 4.52388,-2.725364 4.521745,-2.729918 a 1.4796156,1.5458069 0 0 0 0,-2.672953 l -4.521745,-2.72992 -4.52388,-2.725362 a 1.4796156,1.5458069 0 0 0 -0.703193,-0.209644 z"
     id="path4514"
     inkscape:connector-curvature="0" />
  <path
     style="fill:#ffffff;fill-opacity:1;stroke-width:0.90004504;opacity:0.1"
     d="M 26 8 C 16.028 8 8 16.028 8 26 C 8 26.168847 8.020817 26.332297 8.0253906 26.5 C 8.2909344 16.763279 16.196847 9 26 9 C 35.803153 9 43.709066 16.763279 43.974609 26.5 C 43.979183 26.332297 44 26.168847 44 26 C 44 16.028 35.972 8 26 8 z "
     id="rect4505" />
  <path
     style="opacity:0.1;fill:#ffffff;fill-opacity:1;stroke:none;stroke-width:3.6039865;stroke-linecap:round;stroke-linejoin:round;stroke-miterlimit:4;stroke-dasharray:none;stroke-dashoffset:0;stroke-opacity:1"
     d="M 25.515625 21 A 1.4796156 1.5458069 0 0 0 24 22.544922 L 24 23.544922 A 1.4796156 1.5458069 0 0 1 25.515625 22 A 1.4796156 1.5458069 0 0 1 26.21875 22.210938 L 30.742188 24.935547 L 35.263672 27.666016 A 1.4796156 1.5458069 0 0 1 35.919922 28.503906 A 1.4796156 1.5458069 0 0 0 35.263672 26.666016 L 30.742188 23.935547 L 26.21875 21.210938 A 1.4796156 1.5458069 0 0 0 25.515625 21 z "
     id="path4510" />
</svg>
