<?xml version="1.0" encoding="UTF-8" standalone="no"?>
<svg
   xmlns:dc="http://purl.org/dc/elements/1.1/"
   xmlns:cc="http://creativecommons.org/ns#"
   xmlns:rdf="http://www.w3.org/1999/02/22-rdf-syntax-ns#"
   xmlns:svg="http://www.w3.org/2000/svg"
   xmlns="http://www.w3.org/2000/svg"
   xmlns:sodipodi="http://sodipodi.sourceforge.net/DTD/sodipodi-0.dtd"
   xmlns:inkscape="http://www.inkscape.org/namespaces/inkscape"
   height="48"
   width="48"
   version="1"
   id="svg18"
   sodipodi:docname="adblock-browser.svg"
   inkscape:version="0.91 r13725">
  <metadata
     id="metadata24">
    <rdf:RDF>
      <cc:Work
         rdf:about="">
        <dc:format>image/svg+xml</dc:format>
        <dc:type
           rdf:resource="http://purl.org/dc/dcmitype/StillImage" />
        <dc:title />
      </cc:Work>
    </rdf:RDF>
  </metadata>
  <defs
     id="defs22" />
  <sodipodi:namedview
     pagecolor="#ffffff"
     bordercolor="#666666"
     borderopacity="1"
     objecttolerance="10"
     gridtolerance="10"
     guidetolerance="10"
     inkscape:pageopacity="0"
     inkscape:pageshadow="2"
     inkscape:window-width="1920"
     inkscape:window-height="1018"
     id="namedview20"
     showgrid="true"
     inkscape:zoom="11.42"
     inkscape:cx="-10.787244"
     inkscape:cy="21.822419"
     inkscape:window-x="0"
     inkscape:window-y="32"
     inkscape:window-maximized="1"
     inkscape:current-layer="svg18">
    <inkscape:grid
       type="xygrid"
       id="grid4522" />
  </sodipodi:namedview>
  <path
     id="path4546"
     d="M 17.042969,4.9999793 A 3.0003,3.0003 0 0 0 14.919922,5.8710731 L 4.9394531,15.77537 A 3.0003,3.0003 0 0 0 4.0527344,17.89451 L 4,31.95701 a 3.0003,3.0003 0 0 0 0.8710938,2.123047 l 9.9062502,9.982422 a 3.0003,3.0003 0 0 0 2.117187,0.886719 l 14.0625,0.05078 a 3.0003,3.0003 0 0 0 2.125,-0.871094 l 9.978516,-9.90625 a 3.0003,3.0003 0 0 0 0.886719,-2.117187 L 44,18.042948 a 3.0003,3.0003 0 0 0 -0.871094,-2.125 l -9.90625,-9.9785156 a 3.0003,3.0003 0 0 0 -0.992187,-0.6621093 3.0003,3.0003 0 0 0 -1.125,-0.2246094 z"
     style="opacity:0.2;vector-effect:none;fill:#000000;fill-opacity:1;stroke:none;stroke-width:1.29067385;stroke-linecap:round;stroke-linejoin:round;stroke-miterlimit:4;stroke-dasharray:none;stroke-dashoffset:0;stroke-opacity:1"
     inkscape:connector-curvature="0" />
  <path
     style="opacity:1;vector-effect:none;fill:#008fc5;fill-opacity:1;stroke:none;stroke-width:1.29067385;stroke-linecap:round;stroke-linejoin:round;stroke-miterlimit:4;stroke-dasharray:none;stroke-dashoffset:0;stroke-opacity:1"
     d="M 17.042969 4 A 3.0003 3.0003 0 0 0 14.919922 4.8710938 L 4.9394531 14.775391 A 3.0003 3.0003 0 0 0 4.0527344 16.894531 L 4 30.957031 A 3.0003 3.0003 0 0 0 4.8710938 33.080078 L 14.777344 43.0625 A 3.0003 3.0003 0 0 0 16.894531 43.949219 L 30.957031 44 A 3.0003 3.0003 0 0 0 33.082031 43.128906 L 43.060547 33.222656 A 3.0003 3.0003 0 0 0 43.947266 31.105469 L 44 17.042969 A 3.0003 3.0003 0 0 0 43.128906 14.917969 L 33.222656 4.9394531 A 3.0003 3.0003 0 0 0 32.230469 4.2773438 A 3.0003 3.0003 0 0 0 31.105469 4.0527344 L 17.042969 4 z "
     id="path4487" />
  <path
     style="opacity:0.2;fill:#000000;fill-opacity:1;stroke-width:1.05704117"
     d="M 17.042969 5.0429688 A 3.0003 3.0003 0 0 0 14.919922 5.9140625 L 13.941406 6.8847656 C 14.045026 7.0969288 14.098487 7.2703893 14.021484 7.3378906 C 13.75983 7.5673513 13.544922 7.9261457 13.544922 8.1347656 C 13.544922 8.7724279 14.115308 9.7503083 14.570312 9.8925781 C 15.174532 10.081846 14.970964 10.735244 14.193359 11.095703 C 13.83398 11.262642 13.391678 11.742105 13.210938 12.162109 C 13.029146 12.583177 12.762201 12.997856 12.617188 13.083984 C 12.473225 13.171164 12.353516 13.500605 12.353516 13.816406 C 12.353516 14.257677 12.554325 14.471567 13.208984 14.736328 C 13.677649 14.92666 14.237559 15.064235 14.455078 15.042969 C 15.7066 14.923879 15.795072 15.661678 14.701172 17.103516 C 14.12007 17.869093 13.839518 18.061604 13.443359 17.964844 C 13.074522 17.875524 12.873209 17.981533 12.705078 18.351562 C 12.528541 18.74392 12.239592 18.877413 11.460938 18.931641 C 10.694892 18.985871 10.351327 19.142149 10.064453 19.566406 C 9.8542898 19.875828 9.5514 20.126953 9.390625 20.126953 C 9.22943 20.126953 8.8506228 20.334825 8.5488281 20.587891 C 7.9347306 21.103592 7.6957811 21.155427 7.4804688 20.818359 C 7.1959073 20.371772 6.5816543 20.598644 5.6679688 21.484375 C 4.8598903 22.266966 4.7628707 22.476801 4.8847656 23.15625 C 5.1016542 24.365226 5.7482958 25.438217 6.4882812 25.8125 C 7.1340084 26.138933 7.1473939 26.172856 6.7558594 26.591797 C 6.5306694 26.833167 6.144749 27.092475 5.8984375 27.167969 C 5.1870342 27.387008 5.5860816 27.660471 6.8554688 27.824219 C 8.154699 27.991158 8.5600771 28.46751 7.953125 29.117188 C 7.6146568 29.479774 7.6326139 29.548067 8.1757812 29.892578 C 9.2371066 30.566711 10.082113 30.153298 9.0859375 29.447266 C 8.4456743 28.993236 8.8923905 28.809049 9.8320312 29.138672 C 10.581265 29.401308 10.729481 29.387216 11.171875 28.998047 C 12.080831 28.201634 13.069478 29.378659 12.238281 30.267578 C 11.709721 30.834319 11.869553 31.516693 12.554688 31.611328 C 12.857323 31.652798 13.48461 31.938801 13.951172 32.246094 C 14.417735 32.552325 14.926658 32.804688 15.080078 32.804688 C 15.233498 32.804688 15.666776 33.115433 16.042969 33.496094 C 16.805862 34.266989 17.229896 34.365612 17.445312 33.822266 C 17.703813 33.169398 17.599035 32.831267 16.902344 32.0625 C 16.348563 31.450037 15.447266 29.823826 15.447266 29.433594 C 15.447266 29.193288 16.362201 29.397874 16.875 29.751953 C 17.195499 29.974184 17.715103 30.258949 18.029297 30.388672 C 18.363458 30.526902 18.710467 30.957754 18.869141 31.427734 C 19.116083 32.165666 19.213612 32.228516 20.087891 32.228516 L 21.039062 32.228516 L 21.181641 33.957031 C 21.353975 36.035789 21.519511 36.455761 22.224609 36.626953 C 22.743714 36.753486 23.296875 37.567271 23.296875 38.203125 C 23.296875 38.37219 22.924804 38.787933 22.46875 39.125 C 21.90341 39.542878 21.659436 39.896442 21.697266 40.244141 C 21.744546 40.679031 21.647486 40.746893 21.039062 40.701172 C 20.647109 40.671402 19.964483 40.811818 19.527344 41.011719 C 19.009291 41.247772 18.448334 41.32226 17.921875 41.226562 C 17.316604 41.117042 17.113281 41.161143 17.113281 41.400391 C 17.113281 41.576898 16.90108 41.905267 16.642578 42.132812 C 16.003681 42.693173 16.266584 42.991135 17.248047 42.8125 C 17.857521 42.701917 18.094137 42.7498 18.199219 43.015625 C 18.320182 43.320766 18.207682 43.692608 17.998047 43.953125 L 20.210938 43.960938 C 20.835572 43.755234 20.695658 43.309083 19.916016 43.21875 C 19.192003 43.13581 18.422376 42.393272 18.664062 42.013672 C 18.82694 41.759544 19.519183 41.79681 20.919922 42.132812 C 21.552513 42.2838 21.983328 41.980022 23.449219 40.357422 C 24.297227 39.417464 24.95041 39.025391 25.666016 39.025391 C 25.939228 39.025391 26.913617 38.771422 27.832031 38.460938 C 29.565879 37.872931 30.243787 37.893993 30.179688 38.535156 C 30.047283 39.868535 30.895519 39.824913 32.277344 38.427734 C 32.853191 37.846108 33.378963 37.424307 33.447266 37.490234 C 33.711021 37.746488 33.236473 38.994931 32.681641 39.5 C 31.978645 40.140107 31.943569 40.543228 32.5625 40.863281 C 32.900863 41.039791 33.044064 41.3966 33.097656 42.197266 L 33.154297 43.056641 L 43.060547 33.222656 A 3.0003 3.0003 0 0 0 43.947266 31.105469 L 43.976562 23.052734 C 43.06453 23.008527 42.328125 22.637818 42.328125 22.15625 C 42.328125 22.042477 41.951396 21.573516 41.492188 21.115234 C 40.970982 20.596342 40.703489 20.138571 40.78125 19.900391 C 40.8527 19.683478 40.7008 19.332819 40.429688 19.095703 C 40.165931 18.863903 39.949219 18.490872 39.949219 18.267578 C 39.949219 17.911373 39.724778 17.866907 38.105469 17.90625 L 36.261719 17.953125 L 36.294922 19.791016 C 36.349562 23.010696 36.82347 23.845735 38.285156 23.306641 C 38.954527 23.058891 40.598792 23.247701 41.066406 23.623047 C 41.235588 23.75915 41.480124 24.250897 41.609375 24.71875 C 41.739675 25.18554 42.221383 25.995671 42.681641 26.515625 C 43.612665 27.57042 43.684207 27.981067 43.150391 29.21875 C 42.68488 30.299065 42.183375 30.175664 42.283203 29.003906 L 42.355469 28.130859 L 41.568359 28.28125 C 41.13227 28.36525 40.584684 28.689538 40.339844 29.011719 C 39.990972 29.470003 39.828059 29.537597 39.566406 29.328125 C 39.383564 29.181389 39.236328 28.872251 39.236328 28.642578 C 39.236328 28.412905 39.011493 28.156268 38.738281 28.072266 C 38.464018 27.988266 38.08819 27.571089 37.904297 27.142578 C 37.609017 26.457812 37.617324 26.249473 37.960938 25.417969 C 38.308759 24.574771 38.310733 24.434595 37.990234 24.123047 C 37.696005 23.838082 37.544903 23.827509 37.158203 24.0625 C 36.7694 24.29749 36.585407 24.28047 36.123047 23.966797 C 35.815158 23.757326 35.276605 23.585938 34.927734 23.585938 C 34.218432 23.585938 34.003906 23.236777 34.003906 22.082031 C 34.003906 21.015538 33.375269 20.628285 31.878906 20.767578 C 30.840698 20.864338 30.610938 20.795448 29.773438 20.142578 C 29.255385 19.739587 28.438454 18.769092 27.955078 17.984375 C 27.471702 17.199657 26.951196 16.380976 26.798828 16.164062 C 26.580258 15.850388 26.632865 15.549144 27.060547 14.695312 L 27.601562 13.621094 L 26.460938 13.777344 C 24.430757 14.054866 24.019348 14.320689 24.892578 14.794922 C 25.233043 14.978873 25.247078 15.073565 24.984375 15.380859 C 24.812042 15.580759 24.732033 15.897734 24.806641 16.085938 C 24.881251 16.273079 24.786811 16.716406 24.597656 17.068359 C 24.407458 17.421376 24.248491 17.915793 24.242188 18.169922 C 24.222217 18.962083 22.880981 19.591814 21.386719 19.507812 C 19.123259 19.38128 18.940594 19.416933 18.136719 20.171875 C 17.132138 21.116088 17.001137 21.55548 17.46875 22.431641 C 17.921653 23.282283 18.72771 23.622911 20.121094 23.552734 C 21.367362 23.489994 21.507427 23.599965 21.222656 24.433594 C 20.979917 25.141754 20.166913 25.414991 19.615234 24.972656 C 19.190704 24.631336 17.727996 24.894767 17.279297 25.394531 C 17.0912 25.602939 16.810571 26.151982 16.658203 26.611328 C 16.395498 27.404551 16.319492 27.453521 15.142578 27.568359 C 13.967764 27.684258 13.854624 27.64534 13.009766 26.857422 C 12.067183 25.979133 11.907375 25.307263 12.361328 24.150391 C 12.563086 23.637879 12.711981 23.554346 13.25 23.654297 C 14.315529 23.851008 14.736328 23.475774 14.736328 22.324219 C 14.736328 21.765985 14.627445 21.244699 14.496094 21.166016 C 14.365793 21.087326 14.259766 20.791715 14.259766 20.507812 C 14.259766 20.223911 14.125768 19.857825 13.962891 19.697266 C 13.724355 19.46334 13.758276 19.338611 14.138672 19.066406 C 14.399275 18.880328 14.827139 18.75521 15.089844 18.787109 C 15.351496 18.819009 16.076085 18.70244 16.699219 18.53125 C 17.59977 18.285626 17.864434 18.100644 17.986328 17.621094 C 18.217508 16.710908 18.782992 15.980469 19.255859 15.980469 C 20.002991 15.980469 20.017127 14.203139 19.291016 11.617188 C 19.183839 11.235465 18.888391 10.992114 18.367188 10.861328 C 17.944758 10.754998 17.486364 10.463617 17.347656 10.212891 C 17.209999 9.9621634 16.956439 9.7578124 16.785156 9.7578125 C 16.613872 9.7578125 16.279403 9.5503662 16.042969 9.296875 C 15.804433 9.0416826 15.310689 8.8359375 14.935547 8.8359375 C 14.047607 8.8359375 14.033487 8.2168462 14.914062 7.890625 C 15.844036 7.5456897 17.292656 7.9979823 17.642578 8.7421875 C 18.116497 9.7513675 18.643319 9.3313094 18.8125 7.8066406 C 19.021613 5.9208744 19.66438 5.3789062 21.691406 5.3789062 L 23.148438 5.3789062 L 22.837891 5.0644531 L 17.042969 5.0429688 z M 28.951172 5.0878906 C 28.507611 5.2163316 28.141261 5.3036628 27.996094 5.28125 C 26.68047 5.0782656 26.850209 5.6144868 28.306641 6.2617188 C 29.093704 6.6116516 29.59915 7.0104329 29.771484 7.4140625 C 30.601629 9.3616066 31.174064 10.409295 31.460938 10.515625 C 32.040987 10.731475 32.386374 10.298729 32.515625 9.1914062 C 32.66379 7.9209729 33.08867 7.6511542 33.851562 8.3457031 C 34.147894 8.6152501 34.560418 8.8359375 34.769531 8.8359375 C 35.422088 8.8359375 35.904297 9.1009707 35.904297 9.4589844 C 35.904297 9.6476143 36.126424 10.102907 36.396484 10.470703 C 36.794744 11.011924 37.064616 11.140625 37.808594 11.140625 C 38.01363 11.140625 38.19692 11.153048 38.376953 11.173828 L 33.222656 5.9824219 A 3.0003 3.0003 0 0 0 32.230469 5.3203125 A 3.0003 3.0003 0 0 0 31.105469 5.0957031 L 28.951172 5.0878906 z M 4.0195312 26.591797 L 4.0097656 29.4375 C 4.2961243 29.4356 4.4088557 29.226249 4.4609375 28.753906 C 4.5018135 28.382813 4.6940606 27.962077 4.8886719 27.816406 C 5.1893125 27.592051 5.1354151 27.476102 4.5195312 27.050781 C 4.3416264 26.927891 4.1679072 26.763159 4.0195312 26.591797 z M 9.6191406 32.132812 C 9.4226386 32.112603 9.1865324 32.219412 8.9238281 32.474609 C 8.3680509 33.012641 8.4521711 34.094036 9.0820312 34.521484 C 9.8038372 35.011666 10.082408 34.868651 10.173828 33.964844 C 10.286267 32.850503 10.049976 32.178534 9.6191406 32.132812 z M 13.185547 35.347656 C 12.97118 35.355156 12.734481 35.510393 12.498047 35.837891 C 12.246902 36.184526 12.179766 36.63305 12.275391 37.3125 C 12.394132 38.148255 12.342041 38.326424 11.910156 38.550781 C 11.503419 38.760844 11.332729 39.27391 11.447266 39.707031 L 12.101562 40.365234 C 12.383916 40.430064 12.622283 40.267062 12.728516 39.857422 C 12.949188 39.002528 14.186394 38.902218 15.03125 39.669922 C 15.39168 39.997419 15.685547 40.162577 15.685547 40.037109 C 15.685547 39.911639 15.30972 39.456918 14.851562 39.027344 C 14.150667 38.368096 14.021484 38.086796 14.021484 37.238281 C 14.021484 36.041004 13.658415 35.33277 13.185547 35.347656 z M 14.410156 41.357422 C 14.304024 41.394642 14.259766 41.530462 14.259766 41.767578 C 14.259766 41.972692 14.147229 42.178765 14 42.279297 L 14.777344 43.0625 A 3.0003 3.0003 0 0 0 14.796875 43.080078 C 14.820012 43.00049 14.831284 42.931364 14.861328 42.845703 C 15.183929 41.924884 15.194354 41.694824 14.931641 41.533203 C 14.68575 41.382213 14.51734 41.320205 14.410156 41.357422 z "
     id="path4498" />
  <path
     style="opacity:1;fill:#89cee8;fill-opacity:1;stroke-width:1.05704117"
     d="M 17.042969 4 A 3.0003 3.0003 0 0 0 14.919922 4.8710938 L 13.941406 5.8417969 C 14.045026 6.0539601 14.098489 6.2274206 14.021484 6.2949219 C 13.75983 6.5243826 13.544922 6.883177 13.544922 7.0917969 C 13.544922 7.7294592 14.115308 8.7073396 14.570312 8.8496094 C 15.174532 9.0388771 14.970964 9.6922748 14.193359 10.052734 C 13.83398 10.219673 13.391678 10.699137 13.210938 11.119141 C 13.029146 11.540209 12.762201 11.954888 12.617188 12.041016 C 12.473225 12.128196 12.353516 12.457637 12.353516 12.773438 C 12.353516 13.214709 12.554325 13.428598 13.208984 13.693359 C 13.677649 13.883691 14.237559 14.021266 14.455078 14 C 15.7066 13.88091 15.795072 14.618709 14.701172 16.060547 C 14.12007 16.826124 13.839518 17.018635 13.443359 16.921875 C 13.074522 16.832555 12.873209 16.938565 12.705078 17.308594 C 12.528541 17.700951 12.239593 17.834444 11.460938 17.888672 C 10.694892 17.942902 10.351327 18.099181 10.064453 18.523438 C 9.8542897 18.83286 9.5514 19.083984 9.390625 19.083984 C 9.22943 19.083984 8.8506228 19.291856 8.5488281 19.544922 C 7.9347306 20.060623 7.6957811 20.112459 7.4804688 19.775391 C 7.1959074 19.328804 6.5816544 19.555675 5.6679688 20.441406 C 4.8598903 21.223997 4.7628707 21.433832 4.8847656 22.113281 C 5.1016542 23.322257 5.7482958 24.395248 6.4882812 24.769531 C 7.1340084 25.095964 7.1473939 25.129887 6.7558594 25.548828 C 6.5306694 25.790198 6.144749 26.049506 5.8984375 26.125 C 5.1870342 26.344039 5.5860816 26.617502 6.8554688 26.78125 C 8.154699 26.948189 8.5600771 27.424542 7.953125 28.074219 C 7.6146568 28.436805 7.6326138 28.505098 8.1757812 28.849609 C 9.2371066 29.523742 10.082113 29.110329 9.0859375 28.404297 C 8.4456743 27.950267 8.8923904 27.76608 9.8320312 28.095703 C 10.581265 28.358339 10.729481 28.344247 11.171875 27.955078 C 12.080831 27.158665 13.069478 28.33569 12.238281 29.224609 C 11.709721 29.79135 11.869554 30.473724 12.554688 30.568359 C 12.857323 30.609829 13.48461 30.895832 13.951172 31.203125 C 14.417735 31.509356 14.926658 31.761719 15.080078 31.761719 C 15.233498 31.761719 15.666776 32.072464 16.042969 32.453125 C 16.805862 33.22402 17.229895 33.322643 17.445312 32.779297 C 17.703813 32.126429 17.599035 31.788298 16.902344 31.019531 C 16.348563 30.407068 15.447266 28.780857 15.447266 28.390625 C 15.447266 28.150319 16.362201 28.354906 16.875 28.708984 C 17.195499 28.931215 17.715103 29.21598 18.029297 29.345703 C 18.363458 29.483933 18.710467 29.914786 18.869141 30.384766 C 19.116083 31.122698 19.213612 31.185547 20.087891 31.185547 L 21.039062 31.185547 L 21.181641 32.914062 C 21.353975 34.99282 21.519511 35.412792 22.224609 35.583984 C 22.743714 35.710517 23.296875 36.524302 23.296875 37.160156 C 23.296875 37.329221 22.924804 37.744964 22.46875 38.082031 C 21.90341 38.499909 21.659436 38.853473 21.697266 39.201172 C 21.744546 39.636062 21.647486 39.703924 21.039062 39.658203 C 20.647109 39.628433 19.964483 39.768849 19.527344 39.96875 C 19.009291 40.204803 18.448334 40.279292 17.921875 40.183594 C 17.316604 40.074074 17.113281 40.118177 17.113281 40.357422 C 17.113281 40.533929 16.90108 40.862298 16.642578 41.089844 C 16.003681 41.650204 16.266584 41.948166 17.248047 41.769531 C 17.857521 41.658948 18.094137 41.706832 18.199219 41.972656 C 18.423043 42.53727 17.856538 43.345804 17.330078 43.212891 C 16.995918 43.127831 16.836453 43.243834 16.732422 43.642578 C 16.704145 43.754497 16.645481 43.842826 16.587891 43.929688 A 3.0003 3.0003 0 0 0 16.894531 43.949219 L 19.283203 43.957031 C 19.300374 43.538448 19.61668 43.072721 20.101562 42.955078 C 20.861304 42.770062 20.741957 42.271478 19.916016 42.175781 C 19.192003 42.092841 18.422375 41.350303 18.664062 40.970703 C 18.82694 40.716575 19.519183 40.753841 20.919922 41.089844 C 21.552513 41.240832 21.983328 40.937053 23.449219 39.314453 C 24.297227 38.374495 24.95041 37.982422 25.666016 37.982422 C 25.939228 37.982422 26.913617 37.728453 27.832031 37.417969 C 29.565879 36.829962 30.243787 36.851026 30.179688 37.492188 C 30.047284 38.825567 30.895519 38.781945 32.277344 37.384766 C 32.853191 36.80314 33.378963 36.381339 33.447266 36.447266 C 33.711021 36.70352 33.236473 37.951962 32.681641 38.457031 C 31.978645 39.097138 31.943569 39.500259 32.5625 39.820312 C 32.900863 39.996822 33.044064 40.353631 33.097656 41.154297 L 33.169922 42.248047 L 33.96875 42.248047 L 43.060547 33.222656 A 3.0003 3.0003 0 0 0 43.947266 31.105469 L 43.980469 22.009766 C 43.066556 21.966467 42.328125 21.595566 42.328125 21.113281 C 42.328125 20.999508 41.951396 20.530548 41.492188 20.072266 C 40.970982 19.553374 40.703489 19.095602 40.78125 18.857422 C 40.8527 18.640509 40.700803 18.28985 40.429688 18.052734 C 40.165932 17.820934 39.949219 17.447903 39.949219 17.224609 C 39.949219 16.868404 39.724778 16.823938 38.105469 16.863281 L 36.261719 16.910156 L 36.294922 18.748047 C 36.349562 21.967727 36.82347 22.802766 38.285156 22.263672 C 38.954527 22.015922 40.598792 22.204731 41.066406 22.580078 C 41.235588 22.716181 41.480124 23.207928 41.609375 23.675781 C 41.739675 24.142571 42.221383 24.952702 42.681641 25.472656 C 43.612665 26.527451 43.684207 26.938098 43.150391 28.175781 C 42.68488 29.256096 42.183375 29.132696 42.283203 27.960938 L 42.355469 27.087891 L 41.568359 27.238281 C 41.13227 27.322281 40.584684 27.646569 40.339844 27.96875 C 39.990972 28.427034 39.828059 28.494628 39.566406 28.285156 C 39.383564 28.13842 39.236328 27.829282 39.236328 27.599609 C 39.236328 27.369936 39.011493 27.113299 38.738281 27.029297 C 38.464018 26.945297 38.08819 26.52812 37.904297 26.099609 C 37.609017 25.414843 37.617324 25.206504 37.960938 24.375 C 38.308759 23.531802 38.310737 23.391626 37.990234 23.080078 C 37.696005 22.795113 37.544903 22.784537 37.158203 23.019531 C 36.7694 23.254521 36.585407 23.237504 36.123047 22.923828 C 35.815158 22.714357 35.276605 22.542969 34.927734 22.542969 C 34.218432 22.542969 34.003906 22.193808 34.003906 21.039062 C 34.003906 19.972569 33.375269 19.585316 31.878906 19.724609 C 30.840698 19.821369 30.610939 19.752482 29.773438 19.099609 C 29.255385 18.696618 28.438454 17.726123 27.955078 16.941406 C 27.471702 16.156688 26.951196 15.338007 26.798828 15.121094 C 26.580258 14.80742 26.632865 14.506176 27.060547 13.652344 L 27.601562 12.578125 L 26.460938 12.734375 C 24.430758 13.011897 24.019348 13.27772 24.892578 13.751953 C 25.233043 13.935904 25.247081 14.030597 24.984375 14.337891 C 24.812042 14.537791 24.732033 14.854765 24.806641 15.042969 C 24.881251 15.23011 24.786809 15.673438 24.597656 16.025391 C 24.407458 16.378408 24.248492 16.872824 24.242188 17.126953 C 24.222217 17.919114 22.880981 18.548845 21.386719 18.464844 C 19.123259 18.338311 18.940594 18.373963 18.136719 19.128906 C 17.132138 20.073119 17.001137 20.512511 17.46875 21.388672 C 17.921653 22.239314 18.72771 22.579943 20.121094 22.509766 C 21.367362 22.447026 21.507427 22.556995 21.222656 23.390625 C 20.979917 24.098785 20.166913 24.372023 19.615234 23.929688 C 19.190704 23.588368 17.727996 23.851801 17.279297 24.351562 C 17.0912 24.55997 16.810571 25.109013 16.658203 25.568359 C 16.395498 26.361582 16.319492 26.410553 15.142578 26.525391 C 13.967764 26.64129 13.854624 26.602369 13.009766 25.814453 C 12.067183 24.936164 11.907375 24.264294 12.361328 23.107422 C 12.563086 22.59491 12.711981 22.511377 13.25 22.611328 C 14.315529 22.808039 14.736328 22.432805 14.736328 21.28125 C 14.736328 20.723016 14.627445 20.20173 14.496094 20.123047 C 14.365793 20.044357 14.259766 19.748746 14.259766 19.464844 C 14.259766 19.180943 14.125768 18.814856 13.962891 18.654297 C 13.724355 18.420371 13.758276 18.295643 14.138672 18.023438 C 14.399275 17.83736 14.827139 17.712242 15.089844 17.744141 C 15.351496 17.776041 16.076085 17.65947 16.699219 17.488281 C 17.59977 17.242657 17.864434 17.057675 17.986328 16.578125 C 18.217508 15.667939 18.782992 14.9375 19.255859 14.9375 C 20.002991 14.9375 20.01713 13.16017 19.291016 10.574219 C 19.183839 10.192496 18.888392 9.9491454 18.367188 9.8183594 C 17.944758 9.7120291 17.486364 9.4206481 17.347656 9.1699219 C 17.209999 8.9191948 16.956439 8.7148437 16.785156 8.7148438 C 16.613872 8.7148438 16.279403 8.5073974 16.042969 8.2539062 C 15.804433 7.9987138 15.310689 7.7929688 14.935547 7.7929688 C 14.047607 7.7929688 14.033481 7.1738774 14.914062 6.8476562 C 15.844036 6.5027209 17.292656 6.9550136 17.642578 7.6992188 C 18.116497 8.7083988 18.643319 8.2883407 18.8125 6.7636719 C 19.021613 4.8779057 19.66438 4.3359375 21.691406 4.3359375 L 23.148438 4.3359375 L 22.837891 4.0214844 L 17.042969 4 z M 28.951172 4.0449219 C 28.507611 4.173363 28.141261 4.260694 27.996094 4.2382812 C 26.68047 4.0352968 26.850209 4.571518 28.306641 5.21875 C 29.093704 5.5686828 29.59915 5.9674642 29.771484 6.3710938 C 30.601629 8.3186379 31.174065 9.3663258 31.460938 9.4726562 C 32.040987 9.6885064 32.386374 9.2557601 32.515625 8.1484375 C 32.66379 6.8780041 33.088669 6.6081855 33.851562 7.3027344 C 34.147894 7.5722814 34.560418 7.7929688 34.769531 7.7929688 C 35.422088 7.7929688 35.904297 8.0580019 35.904297 8.4160156 C 35.904297 8.6046455 36.126424 9.0599378 36.396484 9.4277344 C 36.794744 9.9689546 37.064616 10.097656 37.808594 10.097656 C 38.01363 10.097656 38.19692 10.110073 38.376953 10.130859 L 33.222656 4.9394531 A 3.0003 3.0003 0 0 0 32.230469 4.2773438 A 3.0003 3.0003 0 0 0 31.105469 4.0527344 L 28.951172 4.0449219 z M 4.0195312 25.548828 L 4.0097656 28.394531 C 4.2961243 28.392594 4.4088557 28.183281 4.4609375 27.710938 C 4.5018135 27.339845 4.6940606 26.919109 4.8886719 26.773438 C 5.1893125 26.549083 5.1354151 26.433133 4.5195312 26.007812 C 4.3416264 25.884922 4.1679071 25.72019 4.0195312 25.548828 z M 9.6191406 31.089844 C 9.4226386 31.069634 9.1865324 31.176442 8.9238281 31.431641 C 8.3680509 31.969673 8.452171 33.051068 9.0820312 33.478516 C 9.8038372 33.968698 10.082408 33.825682 10.173828 32.921875 C 10.286267 31.807534 10.049976 31.135566 9.6191406 31.089844 z M 13.185547 34.304688 C 12.97118 34.312188 12.734481 34.467424 12.498047 34.794922 C 12.246902 35.141557 12.179766 35.590081 12.275391 36.269531 C 12.394132 37.105286 12.34204 37.283455 11.910156 37.507812 C 11.354273 37.794903 11.234449 38.649635 11.689453 39.089844 C 12.141304 39.527924 12.572995 39.414155 12.728516 38.814453 C 12.949188 37.959559 14.186394 37.859249 15.03125 38.626953 C 15.39168 38.95445 15.685547 39.119609 15.685547 38.994141 C 15.685547 38.868671 15.309719 38.413949 14.851562 37.984375 C 14.150667 37.325127 14.021484 37.043827 14.021484 36.195312 C 14.021484 34.998035 13.658415 34.289802 13.185547 34.304688 z M 14.410156 40.314453 C 14.304024 40.351673 14.259766 40.487493 14.259766 40.724609 C 14.259766 40.964916 14.108772 41.217104 13.923828 41.285156 C 13.732944 41.356141 13.658343 41.55199 13.677734 41.955078 L 14.634766 42.919922 C 14.648566 42.599681 14.706597 42.243898 14.861328 41.802734 C 15.183929 40.881915 15.194351 40.651855 14.931641 40.490234 C 14.68575 40.339244 14.51734 40.277236 14.410156 40.314453 z "
     id="path9" />
  <path
     style="opacity:0.2;vector-effect:none;fill:#ffffff;fill-opacity:1;stroke:none;stroke-width:1.29067385;stroke-linecap:round;stroke-linejoin:round;stroke-miterlimit:4;stroke-dasharray:none;stroke-dashoffset:0;stroke-opacity:1"
     d="M 17.042969 4 A 3.0003 3.0003 0 0 0 14.919922 4.8710938 L 4.9394531 14.775391 A 3.0003 3.0003 0 0 0 4.0527344 16.894531 L 4 30.957031 A 3.0003 3.0003 0 0 0 4.0039062 31.033203 L 4.0527344 17.894531 A 3.0003 3.0003 0 0 1 4.9394531 15.775391 L 14.919922 5.8710938 A 3.0003 3.0003 0 0 1 17.042969 5 L 31.105469 5.0527344 A 3.0003 3.0003 0 0 1 32.230469 5.2773438 A 3.0003 3.0003 0 0 1 33.222656 5.9394531 L 43.128906 15.917969 A 3.0003 3.0003 0 0 1 43.996094 17.966797 L 44 17.042969 A 3.0003 3.0003 0 0 0 43.128906 14.917969 L 33.222656 4.9394531 A 3.0003 3.0003 0 0 0 32.230469 4.2773438 A 3.0003 3.0003 0 0 0 31.105469 4.0527344 L 17.042969 4 z "
     id="path4541" />
</svg>
