<?xml version="1.0" encoding="UTF-8" standalone="no"?>
<svg
   xmlns:dc="http://purl.org/dc/elements/1.1/"
   xmlns:cc="http://creativecommons.org/ns#"
   xmlns:rdf="http://www.w3.org/1999/02/22-rdf-syntax-ns#"
   xmlns:svg="http://www.w3.org/2000/svg"
   xmlns="http://www.w3.org/2000/svg"
   xmlns:sodipodi="http://sodipodi.sourceforge.net/DTD/sodipodi-0.dtd"
   xmlns:inkscape="http://www.inkscape.org/namespaces/inkscape"
   height="48"
   width="48"
   version="1"
   id="svg12"
   sodipodi:docname="allcast.svg"
   inkscape:version="0.92.1 r15371">
  <metadata
     id="metadata18">
    <rdf:RDF>
      <cc:Work
         rdf:about="">
        <dc:format>image/svg+xml</dc:format>
        <dc:type
           rdf:resource="http://purl.org/dc/dcmitype/StillImage" />
        <dc:title></dc:title>
      </cc:Work>
    </rdf:RDF>
  </metadata>
  <defs
     id="defs16" />
  <sodipodi:namedview
     pagecolor="#ffffff"
     bordercolor="#666666"
     borderopacity="1"
     objecttolerance="10"
     gridtolerance="10"
     guidetolerance="10"
     inkscape:pageopacity="0"
     inkscape:pageshadow="2"
     inkscape:window-width="1600"
     inkscape:window-height="822"
     id="namedview14"
     showgrid="false"
     inkscape:zoom="6.1198265"
     inkscape:cx="16.336284"
     inkscape:cy="17.463867"
     inkscape:window-x="0"
     inkscape:window-y="0"
     inkscape:window-maximized="1"
     inkscape:current-layer="svg12"
     showguides="false">
    <inkscape:grid
       type="xygrid"
       id="grid4500" />
  </sodipodi:namedview>
  <rect
     transform="matrix(0,-1,-1,0,0,0)"
     rx="2"
     ry="2"
     height="40"
     width="40"
     y="-44"
     x="-44"
     fill="#f59335"
     id="rect2"
     style="fill:#3f3f3f;fill-opacity:1" />
  <path
     id="path4548"
     d="M 7,8 C 6.446,8 6,8.446 6,9 v 28 c 0,0.554 0.446,1 1,1 h 8 9 9 8 c 0.554,0 1,-0.446 1,-1 V 9 C 42,8.446 41.554,8 41,8 h -8 -9 -9 z"
     style="opacity:0.2;fill:#000000;fill-opacity:1;stroke:none;stroke-width:3.56731606;stroke-linecap:round;stroke-linejoin:round;stroke-miterlimit:4;stroke-dasharray:none;stroke-dashoffset:0;stroke-opacity:1"
     inkscape:connector-curvature="0" />
  <path
     style="opacity:1;fill:#d45736;fill-opacity:1;stroke:none;stroke-width:3.56731606;stroke-linecap:round;stroke-linejoin:round;stroke-miterlimit:4;stroke-dasharray:none;stroke-dashoffset:0;stroke-opacity:1"
     d="M 7 7 C 6.446 7 6 7.446 6 8 L 6 36 C 6 36.554 6.446 37 7 37 L 15 37 L 15 7 L 7 7 z "
     id="rect4502" />
  <path
     d="m6 4c-1.108 0-2 0.892-2 2v1c0-1.108 0.892-2 2-2h36c1.108 0 2 0.892 2 2v-1c0-1.108-0.892-2-2-2h-36z"
     id="path4"
     style="opacity:0.1"
     fill="#fff"
     opacity=".2" />
  <path
     opacity=".2"
     d="m6 45c-1.108 0-2-0.892-2-2v-1c0 1.108 0.892 2 2 2h36c1.108 0 2-0.892 2-2v1c0 1.108-0.892 2-2 2h-36z"
     id="path6" />
  <path
     style="opacity:1;fill:#e46b31;fill-opacity:1;stroke:none;stroke-width:3.56731606;stroke-linecap:round;stroke-linejoin:round;stroke-miterlimit:4;stroke-dasharray:none;stroke-dashoffset:0;stroke-opacity:1"
     d="M 15 7 L 15 37 L 24 37 L 24 7 L 15 7 z "
     id="rect4504" />
  <path
     style="opacity:1;fill:#ea812a;fill-opacity:1;stroke:none;stroke-width:3.56731606;stroke-linecap:round;stroke-linejoin:round;stroke-miterlimit:4;stroke-dasharray:none;stroke-dashoffset:0;stroke-opacity:1"
     d="M 24 7 L 24 37 L 33 37 L 33 7 L 24 7 z "
     id="rect4506" />
  <path
     style="opacity:1;fill:#eb9027;fill-opacity:1;stroke:none;stroke-width:3.56731606;stroke-linecap:round;stroke-linejoin:round;stroke-miterlimit:4;stroke-dasharray:none;stroke-dashoffset:0;stroke-opacity:1"
     d="M 33 7 L 33 37 L 41 37 C 41.554 37 42 36.554 42 36 L 42 8 C 42 7.446 41.554 7 41 7 L 33 7 z "
     id="rect4508" />
  <path
     style="opacity:1;fill:#f3c4c4;fill-opacity:1;stroke:none;stroke-width:4.48635387;stroke-linecap:round;stroke-linejoin:round;stroke-miterlimit:4;stroke-dasharray:none;stroke-dashoffset:0;stroke-opacity:1"
     d="M 7 22 A 14 14 0 0 0 6 22.037109 L 6 36 C 6 36.554 6.446 37 7 37 L 15 37 L 20.949219 37 A 14 14 0 0 0 21 36 A 14 14 0 0 0 7 22 z "
     id="path4510" />
  <path
     style="opacity:1;fill:#ffffff;fill-opacity:1;stroke:none;stroke-width:3.20453858;stroke-linecap:round;stroke-linejoin:round;stroke-miterlimit:4;stroke-dasharray:none;stroke-dashoffset:0;stroke-opacity:1"
     d="M 7 26 A 10 10 0 0 0 6 26.060547 L 6 36 C 6 36.554 6.446 37 7 37 L 15 37 L 16.949219 37 A 10 10 0 0 0 17 36 A 10 10 0 0 0 7 26 z "
     id="circle4512" />
  <circle
     r="2"
     cy="42"
     cx="24"
     id="circle4553"
     style="opacity:0.2;fill:#000000;fill-opacity:1;stroke:none;stroke-width:0.6409077;stroke-linecap:round;stroke-linejoin:round;stroke-miterlimit:4;stroke-dasharray:none;stroke-dashoffset:0;stroke-opacity:1" />
  <circle
     style="opacity:1;fill:#ffffff;fill-opacity:1;stroke:none;stroke-width:0.6409077;stroke-linecap:round;stroke-linejoin:round;stroke-miterlimit:4;stroke-dasharray:none;stroke-dashoffset:0;stroke-opacity:1"
     id="circle4514"
     cx="24"
     cy="41"
     r="2" />
  <path
     style="opacity:0.1;fill:#ffffff;fill-opacity:1;stroke:none;stroke-width:3.56731606;stroke-linecap:round;stroke-linejoin:round;stroke-miterlimit:4;stroke-dasharray:none;stroke-dashoffset:0;stroke-opacity:1"
     d="M 7 7 C 6.446 7 6 7.446 6 8 L 6 9 C 6 8.446 6.446 8 7 8 L 15 8 L 24 8 L 33 8 L 41 8 C 41.554 8 42 8.446 42 9 L 42 8 C 42 7.446 41.554 7 41 7 L 33 7 L 24 7 L 15 7 L 7 7 z "
     id="path4539" />
</svg>
