<?xml version="1.0" encoding="UTF-8" standalone="no"?>
<svg
   xmlns:dc="http://purl.org/dc/elements/1.1/"
   xmlns:cc="http://creativecommons.org/ns#"
   xmlns:rdf="http://www.w3.org/1999/02/22-rdf-syntax-ns#"
   xmlns:svg="http://www.w3.org/2000/svg"
   xmlns="http://www.w3.org/2000/svg"
   xmlns:sodipodi="http://sodipodi.sourceforge.net/DTD/sodipodi-0.dtd"
   xmlns:inkscape="http://www.inkscape.org/namespaces/inkscape"
   height="48"
   width="48"
   version="1"
   id="svg12"
   sodipodi:docname="ankit-musicplayer.svg"
   inkscape:version="0.91 r13725">
  <metadata
     id="metadata18">
    <rdf:RDF>
      <cc:Work
         rdf:about="">
        <dc:format>image/svg+xml</dc:format>
        <dc:type
           rdf:resource="http://purl.org/dc/dcmitype/StillImage" />
        <dc:title />
      </cc:Work>
    </rdf:RDF>
  </metadata>
  <defs
     id="defs16" />
  <sodipodi:namedview
     pagecolor="#ffffff"
     bordercolor="#666666"
     borderopacity="1"
     objecttolerance="10"
     gridtolerance="10"
     guidetolerance="10"
     inkscape:pageopacity="0"
     inkscape:pageshadow="2"
     inkscape:window-width="1920"
     inkscape:window-height="1018"
     id="namedview14"
     showgrid="false"
     inkscape:zoom="14.06"
     inkscape:cx="8.3828003"
     inkscape:cy="24"
     inkscape:window-x="0"
     inkscape:window-y="32"
     inkscape:window-maximized="1"
     inkscape:current-layer="svg12">
    <inkscape:grid
       type="xygrid"
       id="grid4500" />
  </sodipodi:namedview>
  <path
     sodipodi:nodetypes="cccccccccssccccccccccccccccccccsssccccccccccc"
     inkscape:connector-curvature="0"
     id="path4574"
     d="M 36.277033,7.0019528 C 35.181957,7.0347534 34.107075,7.3080961 33.128595,7.8007809 31.353209,8.6928657 29.861697,9.8105425 28.499689,11.005859 27.136696,9.8096419 25.643932,8.691317 23.866877,7.7988278 l -0.0039,-0.00195 C 22.73907,7.2332443 21.490541,6.9611918 20.234064,7.0058591 16.263794,7.14698 13.002789,10.523121 12.999689,14.496094 v 0.0039 6.115234 C 7.8992362,21.995521 3.9996891,26.503198 3.9996891,32 c 0,6.556349 5.443651,12 11.9999999,12 h 0.0039 c 4.780962,-0.0037 8.903487,-2.965094 10.802735,-7.185547 0.09202,0.02129 0.182609,0.0486 0.27539,0.06641 0.222433,0.04326 0.446426,0.0786 0.671875,0.101563 0.167511,0.01618 0.335628,0.0253 0.503906,0.02734 0.01106,3.22e-4 0.02214,-2.74e-4 0.0332,0 0.02932,7.25e-4 0.05856,0.0035 0.08789,0.0039 h -0.01172 l -0.07617,-0.0039 c 0.01367,0.0013 0.02734,0.0026 0.04102,0.0039 l -0.191406,-0.0059 c 0.07806,0.0045 0.15621,0.0077 0.234375,0.0098 0.04818,5.8e-4 0.09636,5.8e-4 0.144531,0 0.05859,8.58e-4 0.11719,8.58e-4 0.175781,0 0.225212,-0.0061 0.450084,-0.02244 0.673829,-0.04883 0.0098,-0.0013 0.01954,-0.0026 0.0293,-0.0039 0.163639,-0.02013 0.326334,-0.04725 0.488281,-0.07813 l 0.01172,-0.002 c 0.101431,-0.01823 0.202376,-0.03907 0.302734,-0.0625 0.101536,-0.02364 0.200336,-0.05419 0.300781,-0.08203 0.313693,0.465174 0.54723,1.003776 0.947266,1.363282 1.527274,1.372536 3.332682,1.917968 5.050781,1.917968 1.718099,0 3.523507,-0.545432 5.050781,-1.917968 1.527274,-1.372537 2.4777,-3.673609 2.449219,-5.6875 V 14.501953 14.5 C 43.99983,10.351588 40.431783,6.8835377 36.284845,7.0019528 h -0.0078 z M 29.886408,36.886719 29.58758,36.9375 c 0.06522,-0.0089 0.130345,-0.01867 0.195312,-0.0293 0.03457,-0.0069 0.06907,-0.01402 0.103516,-0.02148 z"
     style="color:#000000;font-style:normal;font-variant:normal;font-weight:normal;font-stretch:normal;font-size:medium;line-height:normal;font-family:sans-serif;font-variant-ligatures:normal;font-variant-position:normal;font-variant-caps:normal;font-variant-numeric:normal;font-variant-alternates:normal;font-feature-settings:normal;text-indent:0;text-align:start;text-decoration:none;text-decoration-line:none;text-decoration-style:solid;text-decoration-color:#000000;letter-spacing:normal;word-spacing:normal;text-transform:none;writing-mode:lr-tb;direction:ltr;text-orientation:mixed;dominant-baseline:auto;baseline-shift:baseline;text-anchor:start;white-space:normal;shape-padding:0;clip-rule:nonzero;display:inline;overflow:visible;visibility:visible;opacity:0.2;isolation:auto;mix-blend-mode:normal;color-interpolation:sRGB;color-interpolation-filters:linearRGB;solid-color:#000000;solid-opacity:1;vector-effect:none;fill:#000000;fill-opacity:1;fill-rule:nonzero;stroke:none;stroke-width:12;stroke-linecap:round;stroke-linejoin:round;stroke-miterlimit:4;stroke-dasharray:none;stroke-dashoffset:0;stroke-opacity:1;color-rendering:auto;image-rendering:auto;shape-rendering:auto;text-rendering:auto;enable-background:accumulate" />
  <path
     style="color:#000000;font-style:normal;font-variant:normal;font-weight:normal;font-stretch:normal;font-size:medium;line-height:normal;font-family:sans-serif;font-variant-ligatures:normal;font-variant-position:normal;font-variant-caps:normal;font-variant-numeric:normal;font-variant-alternates:normal;font-feature-settings:normal;text-indent:0;text-align:start;text-decoration:none;text-decoration-line:none;text-decoration-style:solid;text-decoration-color:#000000;letter-spacing:normal;word-spacing:normal;text-transform:none;writing-mode:lr-tb;direction:ltr;text-orientation:mixed;dominant-baseline:auto;baseline-shift:baseline;text-anchor:start;white-space:normal;shape-padding:0;clip-rule:nonzero;display:inline;overflow:visible;visibility:visible;opacity:1;isolation:auto;mix-blend-mode:normal;color-interpolation:sRGB;color-interpolation-filters:linearRGB;solid-color:#000000;solid-opacity:1;vector-effect:none;fill:#4f4f4f;fill-opacity:1;fill-rule:nonzero;stroke:none;stroke-width:12;stroke-linecap:round;stroke-linejoin:round;stroke-miterlimit:4;stroke-dasharray:none;stroke-dashoffset:0;stroke-opacity:1;color-rendering:auto;image-rendering:auto;shape-rendering:auto;text-rendering:auto;enable-background:accumulate"
     d="M 36.277033,6.0019528 C 35.181957,6.0347534 34.107075,6.3080961 33.128595,6.8007809 31.353209,7.6928657 29.861697,8.8105425 28.499689,10.005859 27.136696,8.8096419 25.643932,7.691317 23.866877,6.7988278 l -0.0039,-0.00195 C 22.73907,6.2332443 21.490541,5.9611918 20.234064,6.0058591 16.263794,6.14698 13.002789,9.5231213 12.999689,13.496094 v 0.0039 6.115234 C 7.8992362,20.995521 3.9996891,25.503198 3.9996891,31 c 0,6.556349 5.443651,12 11.9999999,12 h 0.0039 c 4.780962,-0.0037 8.903487,-2.965094 10.802735,-7.185547 0.09202,0.02129 0.182609,0.0486 0.27539,0.06641 0.222433,0.04326 0.446426,0.0786 0.671875,0.101563 0.167511,0.01618 0.335628,0.0253 0.503906,0.02734 0.01106,3.22e-4 0.02214,-2.74e-4 0.0332,0 0.02932,7.25e-4 0.05856,0.0035 0.08789,0.0039 h -0.01172 l -0.07617,-0.0039 c 0.01367,0.0013 0.02734,0.0026 0.04102,0.0039 l -0.191406,-0.0059 c 0.07806,0.0045 0.15621,0.0077 0.234375,0.0098 0.04818,5.8e-4 0.09636,5.8e-4 0.144531,0 0.05859,8.58e-4 0.11719,8.58e-4 0.175781,0 0.225212,-0.0061 0.450084,-0.02244 0.673829,-0.04883 0.0098,-0.0013 0.01954,-0.0026 0.0293,-0.0039 0.163639,-0.02013 0.326334,-0.04725 0.488281,-0.07813 l 0.01172,-0.002 c 0.101431,-0.01823 0.202376,-0.03907 0.302734,-0.0625 0.101536,-0.02364 0.200336,-0.05419 0.300781,-0.08203 0.313693,0.465174 0.54723,1.003776 0.947266,1.363282 1.527274,1.372536 3.332682,1.917968 5.050781,1.917968 1.718099,0 3.523507,-0.545432 5.050781,-1.917968 1.527274,-1.372537 2.4777,-3.673609 2.449219,-5.6875 V 13.501953 13.5 C 43.99983,9.351588 40.431783,5.8835377 36.284845,6.0019528 h -0.0078 z M 29.886408,35.886719 29.58758,35.9375 c 0.06522,-0.0089 0.130345,-0.01867 0.195312,-0.0293 0.03457,-0.0069 0.06907,-0.01402 0.103516,-0.02148 z"
     id="circle4535"
     inkscape:connector-curvature="0"
     sodipodi:nodetypes="cccccccccssccccccccccccccccccccsssccccccccccc" />
  <path
     style="opacity:0.2;fill:#000000;fill-opacity:1;stroke:none;stroke-width:3.49729156;stroke-linecap:round;stroke-linejoin:round;stroke-miterlimit:4;stroke-dasharray:none;stroke-dashoffset:0;stroke-opacity:1"
     d="m 36.455078,13 a 1.50015,1.50015 0 0 0 -0.628906,0.160156 C 31.996941,15.083308 29.729356,17.870999 28.5,20.773438 27.270798,17.870732 25.003385,15.083472 21.173828,13.160156 A 1.50015,1.50015 0 0 0 20.447266,13.001953 1.50015,1.50015 0 0 0 19,14.5 V 26.810547 A 6,6 0 0 0 16,26 6,6 0 0 0 10,32 6,6 0 0 0 16,38 6,6 0 0 0 21.900391,33.054688 1.50015,1.50015 0 0 0 22,32.5 V 17.443359 c 1.776803,1.390161 3.105922,2.924658 3.808594,4.650391 0.975544,2.395895 1.176871,5.032668 1.191406,7.398438 3.1e-5,0.0051 -3e-5,0.01054 0,0.01562 a 1.50015,1.50015 0 0 0 0.002,0.03125 1.50015,1.50015 0 0 0 0.0039,0.117188 1.50015,1.50015 0 0 0 0,0.002 1.50015,1.50015 0 0 0 0.01953,0.132813 1.50015,1.50015 0 0 0 0.01563,0.06836 1.50015,1.50015 0 0 0 0.02344,0.0918 1.50015,1.50015 0 0 0 0.04492,0.130859 1.50015,1.50015 0 0 0 0.0332,0.07227 1.50015,1.50015 0 0 0 0.0332,0.07227 1.50015,1.50015 0 0 0 0.01172,0.01953 1.50015,1.50015 0 0 0 0.06641,0.109375 1.50015,1.50015 0 0 0 0.02539,0.0332 1.50015,1.50015 0 0 0 0.0625,0.08203 1.50015,1.50015 0 0 0 0.04102,0.04687 1.50015,1.50015 0 0 0 0.05859,0.06445 1.50015,1.50015 0 0 0 0.06445,0.05859 1.50015,1.50015 0 0 0 0.04687,0.04102 1.50015,1.50015 0 0 0 0.03906,0.0293 1.50015,1.50015 0 0 0 0.08789,0.06445 1.50015,1.50015 0 0 0 0.117187,0.07031 1.50015,1.50015 0 0 0 0.107422,0.04883 1.50015,1.50015 0 0 0 0.03125,0.01563 1.50015,1.50015 0 0 0 0.0098,0.0039 1.50015,1.50015 0 0 0 0.126954,0.04297 1.50015,1.50015 0 0 0 0.146484,0.03516 1.50015,1.50015 0 0 0 0.142578,0.02148 1.50015,1.50015 0 0 0 0.0059,0 1.50015,1.50015 0 0 0 0.117187,0.0039 1.50015,1.50015 0 0 0 0.04687,0.002 1.50015,1.50015 0 0 0 0.134766,-0.0098 1.50015,1.50015 0 0 0 0.109375,-0.01758 1.50015,1.50015 0 0 0 0.03906,-0.0059 1.50015,1.50015 0 0 0 0.01563,-0.0039 1.50015,1.50015 0 0 0 0.128906,-0.03516 1.50015,1.50015 0 0 0 0.117188,-0.04297 1.50015,1.50015 0 0 0 0.02344,-0.0098 1.50015,1.50015 0 0 0 0.01367,-0.0059 1.50015,1.50015 0 0 0 0.119141,-0.06055 1.50015,1.50015 0 0 0 0.126953,-0.08008 1.50015,1.50015 0 0 0 0.105469,-0.08203 1.50015,1.50015 0 0 0 0.01367,-0.0098 1.50015,1.50015 0 0 0 0.01172,-0.0098 1.50015,1.50015 0 0 0 0.03711,-0.03711 1.50015,1.50015 0 0 0 0.07031,-0.06836 1.50015,1.50015 0 0 0 0.08789,-0.101563 1.50015,1.50015 0 0 0 0.0098,-0.01172 1.50015,1.50015 0 0 0 0.07617,-0.111328 1.50015,1.50015 0 0 0 0.0078,-0.01367 1.50015,1.50015 0 0 0 0.06445,-0.117187 1.50015,1.50015 0 0 0 0.04492,-0.09961 1.50015,1.50015 0 0 0 0.01563,-0.03711 1.50015,1.50015 0 0 0 0.0059,-0.01563 1.50015,1.50015 0 0 0 0.03906,-0.126953 1.50015,1.50015 0 0 0 0.0039,-0.01563 1.50015,1.50015 0 0 0 0.02734,-0.132813 1.50015,1.50015 0 0 0 0.01172,-0.09766 1.50015,1.50015 0 0 0 0.0059,-0.06641 A 1.50015,1.50015 0 0 0 30,29.492188 c 0.01453,-2.365767 0.215862,-5.002543 1.191406,-7.398438 C 31.894078,20.368017 33.223197,18.83352 35,17.443359 V 32.5 a 1.50015,1.50015 0 1 0 3,0 v -18 A 1.50015,1.50015 0 0 0 36.455078,13 Z"
     id="circle4558"
     inkscape:connector-curvature="0" />
  <circle
     style="opacity:1;fill:#ff639a;fill-opacity:1;stroke:none;stroke-width:3.49729156;stroke-linecap:round;stroke-linejoin:round;stroke-miterlimit:4;stroke-dasharray:none;stroke-dashoffset:0;stroke-opacity:1"
     id="path4500"
     cx="15.999695"
     cy="31.000027"
     r="6" />
  <path
     style="color:#000000;font-style:normal;font-variant:normal;font-weight:normal;font-stretch:normal;font-size:medium;line-height:normal;font-family:sans-serif;font-variant-ligatures:normal;font-variant-position:normal;font-variant-caps:normal;font-variant-numeric:normal;font-variant-alternates:normal;font-feature-settings:normal;text-indent:0;text-align:start;text-decoration:none;text-decoration-line:none;text-decoration-style:solid;text-decoration-color:#000000;letter-spacing:normal;word-spacing:normal;text-transform:none;writing-mode:lr-tb;direction:ltr;text-orientation:mixed;dominant-baseline:auto;baseline-shift:baseline;text-anchor:start;white-space:normal;shape-padding:0;clip-rule:nonzero;display:inline;overflow:visible;visibility:visible;opacity:1;isolation:auto;mix-blend-mode:normal;color-interpolation:sRGB;color-interpolation-filters:linearRGB;solid-color:#000000;solid-opacity:1;vector-effect:none;fill:#ffffff;fill-opacity:1;fill-rule:nonzero;stroke:none;stroke-width:3;stroke-linecap:round;stroke-linejoin:round;stroke-miterlimit:4;stroke-dasharray:none;stroke-dashoffset:0;stroke-opacity:1;color-rendering:auto;image-rendering:auto;shape-rendering:auto;text-rendering:auto;enable-background:accumulate"
     d="m 36.455078,12 c -0.21881,0.0069 -0.433468,0.06152 -0.628906,0.160156 -3.913137,1.965292 -6.204402,4.831859 -7.414063,7.802735 C 27.202449,22.933767 27.01461,25.87686 27,28.39219 c -0.0372,2.026331 3.016095,2.042229 3,0.01562 0.01376,-2.369678 0.213766,-4.913017 1.191406,-7.31406 C 31.894078,19.368017 33.223197,17.83352 35,16.443359 V 31.5 c -0.02869,2.028484 3.028688,2.028484 3,0 v -18 c 2.92e-4,-0.846255 -0.699044,-1.525257 -1.544922,-1.5 z"
     id="path4533"
     inkscape:connector-curvature="0"
     sodipodi:nodetypes="ccsccsccccc" />
  <path
     style="color:#000000;font-style:normal;font-variant:normal;font-weight:normal;font-stretch:normal;font-size:medium;line-height:normal;font-family:sans-serif;font-variant-ligatures:normal;font-variant-position:normal;font-variant-caps:normal;font-variant-numeric:normal;font-variant-alternates:normal;font-feature-settings:normal;text-indent:0;text-align:start;text-decoration:none;text-decoration-line:none;text-decoration-style:solid;text-decoration-color:#000000;letter-spacing:normal;word-spacing:normal;text-transform:none;writing-mode:lr-tb;direction:ltr;text-orientation:mixed;dominant-baseline:auto;baseline-shift:baseline;text-anchor:start;white-space:normal;shape-padding:0;clip-rule:nonzero;display:inline;overflow:visible;visibility:visible;opacity:1;isolation:auto;mix-blend-mode:normal;color-interpolation:sRGB;color-interpolation-filters:linearRGB;solid-color:#000000;solid-opacity:1;vector-effect:none;fill:#ff639a;fill-opacity:1;fill-rule:nonzero;stroke:none;stroke-width:3;stroke-linecap:round;stroke-linejoin:round;stroke-miterlimit:4;stroke-dasharray:none;stroke-dashoffset:0;stroke-opacity:1;color-rendering:auto;image-rendering:auto;shape-rendering:auto;text-rendering:auto;enable-background:accumulate"
     d="M 20.447266,12.001953 A 1.50015,1.50015 0 0 0 19,13.5 v 18 a 1.50015,1.50015 0 1 0 3,0 V 16.443359 c 1.776803,1.390161 3.105922,2.924658 3.808594,4.650391 0.97764,2.401043 1.177641,5.04438 1.191406,7.414062 a 1.50015,1.50015 0 1 0 3,-0.01562 c -0.01461,-2.51533 -0.204402,-5.558421 -1.414062,-8.529297 -1.209661,-2.970876 -3.498973,-5.837443 -7.41211,-7.802735 a 1.50015,1.50015 0 0 0 -0.726562,-0.158203 z"
     id="path4502"
     inkscape:connector-curvature="0" />
  <g
     id="g4528"
     transform="translate(-38,-1)">
    <circle
       style="opacity:1;fill:#ff0159;fill-opacity:1;stroke:none;stroke-width:2.33152771;stroke-linecap:round;stroke-linejoin:round;stroke-miterlimit:4;stroke-dasharray:none;stroke-dashoffset:0;stroke-opacity:1"
       id="circle4522"
       cx="15"
       cy="29"
       r="4" />
    <path
       style="opacity:1;fill:none;stroke:#ff0159;stroke-width:2;stroke-linecap:round;stroke-linejoin:round;stroke-miterlimit:4;stroke-dasharray:none;stroke-opacity:1"
       d="M 18,29 V 16 c 5.164179,2.593601 6,7.507117 6.020289,11"
       id="path4524"
       inkscape:connector-curvature="0"
       sodipodi:nodetypes="ccc" />
    <path
       sodipodi:nodetypes="ccc"
       inkscape:connector-curvature="0"
       id="path4526"
       d="M 30.020471,29 V 16 c -5.164179,2.593601 -6,7.507117 -6.020289,11"
       style="opacity:0.71399997;fill:none;stroke:#2e2e2e;stroke-width:2;stroke-linecap:round;stroke-linejoin:round;stroke-miterlimit:4;stroke-dasharray:none;stroke-opacity:1" />
  </g>
  <path
     style="color:#000000;font-style:normal;font-variant:normal;font-weight:normal;font-stretch:normal;font-size:medium;line-height:normal;font-family:sans-serif;font-variant-ligatures:normal;font-variant-position:normal;font-variant-caps:normal;font-variant-numeric:normal;font-variant-alternates:normal;font-feature-settings:normal;text-indent:0;text-align:start;text-decoration:none;text-decoration-line:none;text-decoration-style:solid;text-decoration-color:#000000;letter-spacing:normal;word-spacing:normal;text-transform:none;writing-mode:lr-tb;direction:ltr;text-orientation:mixed;dominant-baseline:auto;baseline-shift:baseline;text-anchor:start;white-space:normal;shape-padding:0;clip-rule:nonzero;display:inline;overflow:visible;visibility:visible;opacity:0.1;isolation:auto;mix-blend-mode:normal;color-interpolation:sRGB;color-interpolation-filters:linearRGB;solid-color:#000000;solid-opacity:1;vector-effect:none;fill:#ffffff;fill-opacity:1;fill-rule:nonzero;stroke:none;stroke-width:12;stroke-linecap:round;stroke-linejoin:round;stroke-miterlimit:4;stroke-dasharray:none;stroke-dashoffset:0;stroke-opacity:1;color-rendering:auto;image-rendering:auto;shape-rendering:auto;text-rendering:auto;enable-background:accumulate"
     d="M 36.277344 6.0019531 C 35.182268 6.0347537 34.107386 6.3080965 33.128906 6.8007812 C 31.35352 7.692866 29.862008 8.8105429 28.5 10.005859 C 27.137007 8.8096423 25.644243 7.6913173 23.867188 6.7988281 L 23.863281 6.796875 C 22.739374 6.2332415 21.490852 5.9611921 20.234375 6.0058594 C 16.264105 6.1469803 13.0031 9.523121 13 13.496094 L 13 13.5 L 13 14.496094 C 13.0031 10.523121 16.264105 7.1469803 20.234375 7.0058594 C 21.490852 6.9611921 22.739374 7.2332415 23.863281 7.796875 L 23.867188 7.7988281 C 25.644243 8.6913173 27.137007 9.8096423 28.5 11.005859 C 29.862008 9.8105429 31.35352 8.692866 33.128906 7.8007812 C 34.107386 7.3080965 35.182268 7.0347537 36.277344 7.0019531 L 36.285156 7.0019531 C 40.432094 6.883538 44.000142 10.351588 44 14.5 L 44 13.501953 L 44 13.5 C 44.000142 9.351588 40.432094 5.883538 36.285156 6.0019531 L 36.277344 6.0019531 z M 13 19.615234 C 7.8995472 20.995527 4 25.503198 4 31 C 4 31.155471 4.0173732 31.306775 4.0234375 31.460938 C 4.2702439 26.211721 8.0684152 21.949828 13 20.615234 L 13 19.615234 z "
     id="path4569" />
</svg>
