<?xml version="1.0" encoding="UTF-8" standalone="no"?>
<svg
   xmlns:dc="http://purl.org/dc/elements/1.1/"
   xmlns:cc="http://creativecommons.org/ns#"
   xmlns:rdf="http://www.w3.org/1999/02/22-rdf-syntax-ns#"
   xmlns:svg="http://www.w3.org/2000/svg"
   xmlns="http://www.w3.org/2000/svg"
   xmlns:sodipodi="http://sodipodi.sourceforge.net/DTD/sodipodi-0.dtd"
   xmlns:inkscape="http://www.inkscape.org/namespaces/inkscape"
   height="48"
   width="48"
   version="1"
   id="svg10"
   sodipodi:docname="apus-browser-pro-video-booster.svg"
   inkscape:version="0.92.1 r15371">
  <metadata
     id="metadata16">
    <rdf:RDF>
      <cc:Work
         rdf:about="">
        <dc:format>image/svg+xml</dc:format>
        <dc:type
           rdf:resource="http://purl.org/dc/dcmitype/StillImage" />
        <dc:title />
      </cc:Work>
    </rdf:RDF>
  </metadata>
  <defs
     id="defs14" />
  <sodipodi:namedview
     pagecolor="#ffffff"
     bordercolor="#666666"
     borderopacity="1"
     objecttolerance="10"
     gridtolerance="10"
     guidetolerance="10"
     inkscape:pageopacity="0"
     inkscape:pageshadow="2"
     inkscape:window-width="1600"
     inkscape:window-height="822"
     id="namedview12"
     showgrid="false"
     inkscape:zoom="8.0800657"
     inkscape:cx="33.874856"
     inkscape:cy="24.004697"
     inkscape:window-x="0"
     inkscape:window-y="0"
     inkscape:window-maximized="1"
     inkscape:current-layer="svg10">
    <inkscape:grid
       type="xygrid"
       id="grid4516" />
  </sodipodi:namedview>
  <path
     sodipodi:nodetypes="cccscaasaacccscsaacc"
     inkscape:connector-curvature="0"
     id="path4588"
     d="m 28,11.000188 5.448023,-1 7.471977,4.52539 c 0,0 0.336651,1.055347 0.08,1.47461 -0.333363,0.54458 -3,1.458334 -3,1.458334 0,0 -3.044305,1.174701 -4.453065,1.984935 C 32.283533,20.17009 31.085736,21.027893 30,22.000188 c -2.882284,2.581135 -4.416326,4.509155 -7.781085,8.61296 -1.083804,1.321851 -2.374664,2.715127 -2.623304,4.40631 -0.05465,0.371735 0.06902,0.778275 0.273457,1.093522 C 20.129765,36.514986 21,37.000188 21,37.000188 L 13,39.511 6.9617137,35.476712 c 0,0 6.4477283,-1.820845 9.0169213,-3.838283 3.920231,-3.078327 7.502977,-6.550675 7.502977,-6.550675 0,0 3.41949,-3.508501 5.195706,-6.385487 0.659036,-1.067457 0.526428,-2.179809 0.08039,-3.119502 -0.333386,-0.702363 -1.119539,-1.14665 -1.844466,-1.427614 C 26.316649,13.923925 25,14.000188 25,14.000188 Z"
     style="opacity:0.2;vector-effect:none;fill:#000000;fill-opacity:1;stroke:none;stroke-width:10.86042023;stroke-linecap:round;stroke-linejoin:round;stroke-miterlimit:4;stroke-dasharray:none;stroke-dashoffset:0;stroke-opacity:1" />
  <path
     style="opacity:0.2;fill:#000000;fill-opacity:1;stroke-width:0.1518821"
     d="m 23.961714,44.999962 c 0.03978,5.7e-5 0.07937,-0.0018 0.11914,-0.002 3.797196,-0.01751 7.510942,-1.115648 10.707032,-3.166016 0.551651,-0.355045 1.0855,-0.737017 1.599609,-1.144531 0.03681,-0.0292 0.07079,-0.06232 0.107422,-0.0918 0.462455,-0.370589 0.908208,-0.761599 1.335937,-1.171825 0.111656,-0.107672 0.21673,-0.223385 0.326172,-0.333985 0.387921,-0.383708 0.759977,-0.783131 1.115235,-1.197265 l 0.0059,-0.0059 c 0.0018,-0.0021 0.0041,-0.0038 0.0059,-0.0059 0.408774,-0.488491 0.793978,-0.996231 1.154296,-1.521484 0.03182,-0.04628 0.06422,-0.09205 0.0957,-0.138672 0.336029,-0.497362 0.649498,-1.009599 0.939453,-1.535156 0.03846,-0.06947 0.07576,-0.139252 0.113282,-0.208985 0.278267,-0.51587 0.533722,-1.043723 0.765625,-1.582031 0.03473,-0.08071 0.06797,-0.161234 0.101562,-0.242187 0.207687,-0.503868 0.394692,-1.016014 0.560547,-1.535157 0.02022,-0.215579 0.09944,-0.469825 0.212891,-0.75 0.493497,-1.745855 0.747125,-3.550824 0.753905,-5.365153 -0.0106,-2.352924 -0.705565,-4.325459 -4.886,-4.899915 -4.180435,-0.574456 -6.521065,1.222004 -8.965562,4.319837 -2.030085,2.910595 -3.165546,9.050858 -6.697343,11.144531 -2.044565,1.212032 -3.129941,1.648016 -4.84375,1.953125 -2.526874,0.449859 -5.111984,0.594145 -7.695313,-0.236328 -1.3979823,-0.449415 -2.7264763,-1.195014 -3.9316403,-1.806641 0.37425,0.611256 0.781087,1.201952 1.21875,1.769532 l 0.408203,0.416015 -0.03711,0.04102 c 0.107827,0.125699 0.21721,0.250057 0.328126,0.373043 0.619772,0.715401 1.2845643,1.398227 2.0117183,2.03125 0.0415,0.03924 0.08317,0.0783 0.125,0.117187 6.89e-4,5.9e-4 0.0013,0.0014 0.002,0.002 0.208479,0.178341 0.436972,0.339051 0.65425,0.509769 0.291754,0.234894 0.590049,0.461546 0.894532,0.679687 0.202412,0.141148 0.419608,0.267841 0.628906,0.402344 0.362937,0.23923 0.733576,0.466565 1.111328,0.681641 0.05976,0.03308 0.119735,0.06525 0.179687,0.09766 0.531422,0.287521 1.0756,0.550811 1.63086,0.789062 0.05286,0.02275 0.105232,0.0461 0.158203,0.06836 0.55614,0.231841 1.122473,0.438432 1.697266,0.61914 0.139209,0.04421 0.280226,0.07617 0.419921,0.117188 0.520361,0.155486 1.046839,0.289712 1.578125,0.402344 0.05261,0.01087 0.105553,0.01691 0.158204,0.02734 0.606064,0.120702 1.217397,0.213249 1.832031,0.277344 0.03061,0.0031 0.06118,0.0048 0.0918,0.0078 0.634211,0.06163 1.271005,0.09292 1.908203,0.09375 z"
     id="path4586"
     inkscape:connector-curvature="0"
     sodipodi:nodetypes="ccccccccccccccccccczcsssccccccccccccccccccccccc" />
  <path
     transform="rotate(45)"
     style="opacity:1;vector-effect:none;fill:#4d447b;fill-opacity:1;stroke:none;stroke-width:10.86042023;stroke-linecap:round;stroke-linejoin:round;stroke-miterlimit:4;stroke-dasharray:none;stroke-dashoffset:0;stroke-opacity:1"
     d="m 26.870058,-12.727922 3.145227,-4.559441 8.48342,-2.083551 c 0,0 0.984291,0.508195 1.099275,0.986138 0.149353,0.620799 -1.090123,3.152518 -1.090123,3.152518 0,0 -1.322009,2.983288 -1.745231,4.552354 -0.379553,1.407167 -0.619965,2.8606956 -0.70018,4.315943 -0.212945,3.8632206 0.06564,6.31126828 0.588224,11.5923407 0.168325,1.701055 0.240744,3.5990259 1.260776,4.9706873 0.224211,0.301502 0.59913,0.501518 0.9666,0.579874 0.468602,0.09992 1.427041,-0.172339 1.427041,-0.172339 l -3.881442,7.432266 -7.122386,1.417041 c 0,0 3.271701,-5.846764 3.661851,-9.090002 0.595315,-4.9487276 0.673378,-9.93743249 0.673378,-9.93743249 0,0 -0.06294,-4.89882971 -0.841302,-8.18914001 -0.288797,-1.2208155 -1.169117,-1.9135988 -2.148977,-2.2626655 -0.732385,-0.260906 -1.602437,-0.01917 -2.313709,0.2947587 -0.585357,0.258354 -1.462442,1.2432909 -1.462442,1.2432909 z"
     id="rect4553"
     inkscape:connector-curvature="0"
     sodipodi:nodetypes="cccscaasaacccscsaacc" />
  <path
     sodipodi:nodetypes="ccccccccccccccccccczcsssccccccccccccccccccccccc"
     inkscape:connector-curvature="0"
     id="path4558"
     d="m 24.019531,5.0019531 c -0.03978,-5.69e-5 -0.07937,0.00177 -0.11914,0.00195 -3.797196,0.017512 -7.510942,1.1156478 -10.707032,3.1660157 -0.551651,0.3550447 -1.0855,0.7370169 -1.599609,1.1445312 -0.03681,0.029199 -0.07079,0.062316 -0.107422,0.091797 -0.462455,0.3706414 -0.908208,0.761652 -1.335937,1.171878 -0.111656,0.107672 -0.21673,0.223385 -0.3261722,0.333984 -0.3879208,0.383709 -0.7599769,0.783132 -1.1152344,1.197266 l -0.00586,0.0059 c -0.00177,0.0021 -0.00409,0.0038 -0.00586,0.0059 -0.4087742,0.488491 -0.7939789,0.996231 -1.1542968,1.521484 -0.031819,0.04628 -0.064215,0.09205 -0.095703,0.138672 -0.3360288,0.497362 -0.6494972,1.009599 -0.9394531,1.535156 -0.038456,0.06947 -0.075755,0.139252 -0.1132813,0.208985 -0.2782671,0.51587 -0.5337221,1.043723 -0.765625,1.582031 -0.034729,0.08071 -0.067967,0.161234 -0.1015624,0.242187 -0.2076872,0.503868 -0.3946922,1.016014 -0.5605469,1.535157 -0.020222,0.215579 -0.099437,0.469825 -0.2128907,0.75 C 4.2604083,21.380702 4.0067796,23.185671 4,25 c 0.010603,2.352924 0.7055653,4.425544 4.886,5 4.180435,0.574456 6.521065,-1.322089 8.965562,-4.419922 2.030008,-2.910595 3.165469,-9.050858 6.697266,-11.144531 2.044565,-1.212032 3.129941,-1.648016 4.84375,-1.953125 2.526874,-0.449859 5.111984,-0.594145 7.695313,0.236328 1.397982,0.449415 2.726476,1.195014 3.93164,1.806641 -0.37425,-0.611256 -0.781087,-1.201952 -1.21875,-1.769532 l -0.408203,-0.416015 0.03711,-0.04102 c -0.107827,-0.125699 -0.21721,-0.250057 -0.328126,-0.373043 -0.619772,-0.715401 -1.284564,-1.398227 -2.011718,-2.0312498 -0.0415,-0.039241 -0.08317,-0.078304 -0.125,-0.1171874 -6.89e-4,-5.895e-4 -0.0013,-0.00136 -0.002,-0.00195 C 36.754365,9.5970524 36.525872,9.4363433 36.308594,9.265625 36.01684,9.0307308 35.718545,8.8040789 35.414062,8.5859375 35.21165,8.4447902 34.994454,8.3180971 34.785156,8.1835938 34.422219,7.9443636 34.05158,7.7170293 33.673828,7.5019531 33.614064,7.4688765 33.554093,7.4367012 33.494141,7.4042969 32.962719,7.1167763 32.418541,6.8534854 31.863281,6.6152344 31.810418,6.5924858 31.758049,6.5691345 31.705078,6.546875 31.148938,6.3150338 30.582605,6.1084429 30.007812,5.9277344 29.868603,5.883523 29.727586,5.8515617 29.587891,5.8105469 29.06753,5.6550612 28.541052,5.5208353 28.009766,5.4082031 27.957153,5.3973361 27.904213,5.3912899 27.851562,5.3808594 27.245498,5.2601578 26.634165,5.1676105 26.019531,5.1035156 c -0.03061,-0.00314 -0.06118,-0.00482 -0.0918,-0.00781 -0.634211,-0.06163 -1.271005,-0.092915 -1.908203,-0.09375 z"
     style="opacity:0.2;fill:#000000;fill-opacity:1;stroke-width:0.1518821" />
  <path
     style="opacity:1;fill:#60acff;fill-opacity:1;stroke-width:0.1518821"
     d="m 24.019531,4.0019531 c -0.03978,-5.69e-5 -0.07937,0.00177 -0.11914,0.00195 C 20.103195,4.0214151 16.389449,5.1195509 13.193359,7.1699188 12.641708,7.5249635 12.107859,7.9069357 11.59375,8.31445 11.55694,8.343649 11.52296,8.376766 11.486328,8.406247 11.023873,8.7768884 10.57812,9.1678993 10.150391,9.578125 10.038735,9.6857971 9.933661,9.8015099 9.8242188,9.9121094 9.436298,10.295818 9.0642419,10.695241 8.7089844,11.109375 l -0.00586,0.0059 c -0.00177,0.0021 -0.00409,0.0038 -0.00586,0.0059 -0.4087742,0.488491 -0.7939789,0.996231 -1.1542968,1.521484 -0.031819,0.04628 -0.064215,0.09205 -0.095703,0.138672 -0.3360288,0.497362 -0.6494972,1.009599 -0.9394531,1.535156 -0.038456,0.06947 -0.075755,0.139252 -0.1132813,0.208985 -0.2782671,0.51587 -0.5337221,1.043723 -0.765625,1.582031 -0.034729,0.08071 -0.067967,0.161234 -0.1015624,0.242187 -0.2076872,0.503868 -0.3946922,1.016014 -0.5605469,1.535157 -0.020222,0.215579 -0.099437,0.469825 -0.2128907,0.75 C 4.2604083,20.380702 4.0067796,22.185671 4,24 c 0.010603,2.352924 0.7055653,4.425544 4.886,5 4.180435,0.574456 6.521065,-1.322089 8.965562,-4.419922 2.030008,-2.910595 3.165469,-9.050858 6.697266,-11.144531 2.044565,-1.212032 3.129941,-1.648016 4.84375,-1.953125 2.526874,-0.449859 5.111984,-0.594145 7.695313,0.236328 1.397982,0.449415 2.726476,1.195014 3.93164,1.806641 -0.37425,-0.611256 -0.781087,-1.201952 -1.21875,-1.769532 l -0.408203,-0.416015 0.03711,-0.04102 C 39.321861,11.173125 39.212478,11.048767 39.101562,10.925781 38.48179,10.21038 37.816998,9.5275543 37.089844,8.8945312 c -0.0415,-0.039241 -0.08317,-0.078304 -0.125,-0.1171874 -6.89e-4,-5.895e-4 -0.0013,-0.00136 -0.002,-0.00195 C 36.754365,8.5970524 36.525872,8.4363433 36.308594,8.265625 36.01684,8.0307308 35.718545,7.8040789 35.414062,7.5859375 35.21165,7.4447902 34.994454,7.3180971 34.785156,7.1835938 34.422219,6.9443636 34.05158,6.7170293 33.673828,6.5019531 33.614064,6.4688765 33.554093,6.4367012 33.494141,6.4042969 32.962719,6.1167763 32.418541,5.8534854 31.863281,5.6152344 31.810418,5.5924858 31.758049,5.5691345 31.705078,5.546875 31.148938,5.3150338 30.582605,5.1084429 30.007812,4.9277344 29.868603,4.883523 29.727586,4.8515617 29.587891,4.8105469 29.06753,4.6550612 28.541052,4.5208353 28.009766,4.4082031 27.957153,4.3973361 27.904213,4.3912899 27.851562,4.3808594 27.245498,4.2601578 26.634165,4.1676105 26.019531,4.1035156 c -0.03061,-0.00314 -0.06118,-0.00482 -0.0918,-0.00781 -0.634211,-0.06163 -1.271005,-0.092915 -1.908203,-0.09375 z"
     id="path4508"
     inkscape:connector-curvature="0"
     sodipodi:nodetypes="ccccccccccccccccccczcsssccccccccccccccccccccccc" />
  <path
     style="opacity:0.2;fill:#ffffff;fill-opacity:1;stroke-width:0.1518821"
     d="M 24.019531 4.0019531 C 23.979751 4.0018962 23.940161 4.0037262 23.900391 4.0039062 C 20.103195 4.0214182 16.389449 5.119554 13.193359 7.1699219 C 12.641708 7.5249666 12.107859 7.9069388 11.59375 8.3144531 C 11.55694 8.3436521 11.52296 8.376769 11.486328 8.40625 C 11.023873 8.7768914 10.57812 9.1678993 10.150391 9.578125 C 10.038735 9.6857971 9.933661 9.8015099 9.8242188 9.9121094 C 9.436298 10.295818 9.0642419 10.695241 8.7089844 11.109375 L 8.703125 11.115234 C 8.701355 11.117334 8.6990356 11.118994 8.6972656 11.121094 C 8.2884914 11.609585 7.9032866 12.117325 7.5429688 12.642578 C 7.5111498 12.688858 7.4787536 12.734628 7.4472656 12.78125 C 7.1112368 13.278612 6.7977684 13.790849 6.5078125 14.316406 C 6.4693565 14.385876 6.4320575 14.455658 6.3945312 14.525391 C 6.1162642 15.041261 5.8608092 15.569114 5.6289062 16.107422 C 5.5941773 16.188132 5.5609391 16.268656 5.5273438 16.349609 C 5.3196566 16.853477 5.1326516 17.365623 4.9667969 17.884766 C 4.9465749 18.100345 4.8673599 18.354591 4.7539062 18.634766 C 4.2604093 20.380621 4.0067796 22.185671 4 24 C 4.0006747 24.149717 4.0145464 24.294273 4.0214844 24.441406 C 4.0730104 22.815668 4.3111083 21.201262 4.7539062 19.634766 C 4.8673599 19.354591 4.9465749 19.100345 4.9667969 18.884766 C 5.1326516 18.365623 5.3196566 17.853477 5.5273438 17.349609 C 5.5609391 17.268656 5.5941773 17.188132 5.6289062 17.107422 C 5.8608092 16.569114 6.1162642 16.041261 6.3945312 15.525391 C 6.4320575 15.455658 6.4693565 15.385876 6.5078125 15.316406 C 6.7977684 14.790849 7.1112368 14.278612 7.4472656 13.78125 C 7.4787536 13.734628 7.5111498 13.688858 7.5429688 13.642578 C 7.9032866 13.117325 8.2884914 12.609585 8.6972656 12.121094 C 8.6990356 12.118994 8.701355 12.117334 8.703125 12.115234 L 8.7089844 12.109375 C 9.0642419 11.695241 9.436298 11.295818 9.8242188 10.912109 C 9.933661 10.80151 10.038735 10.685797 10.150391 10.578125 C 10.57812 10.167899 11.023873 9.7768914 11.486328 9.40625 C 11.52296 9.376769 11.55694 9.3436521 11.59375 9.3144531 C 12.107859 8.9069388 12.641708 8.5249666 13.193359 8.1699219 C 16.389449 6.119554 20.103195 5.0214182 23.900391 5.0039062 C 23.940161 5.0037263 23.979751 5.0018962 24.019531 5.0019531 C 24.656729 5.0027881 25.293523 5.0340731 25.927734 5.0957031 C 25.958354 5.0986931 25.988921 5.1003756 26.019531 5.1035156 C 26.634165 5.1676105 27.245499 5.2601578 27.851562 5.3808594 C 27.904213 5.3912899 27.957153 5.3973361 28.009766 5.4082031 C 28.541052 5.5208353 29.06753 5.6550612 29.587891 5.8105469 C 29.727586 5.8515617 29.868603 5.883523 30.007812 5.9277344 C 30.582605 6.1084429 31.148938 6.3150338 31.705078 6.546875 C 31.758049 6.5691345 31.810418 6.5924858 31.863281 6.6152344 C 32.418541 6.8534854 32.962719 7.1167763 33.494141 7.4042969 C 33.554093 7.4367012 33.614064 7.4688765 33.673828 7.5019531 C 34.05158 7.7170293 34.422219 7.9443636 34.785156 8.1835938 C 34.994454 8.318097 35.21165 8.4447902 35.414062 8.5859375 C 35.718545 8.8040789 36.01684 9.0307308 36.308594 9.265625 C 36.525872 9.4363433 36.754412 9.5970492 36.962891 9.7753906 C 36.962891 9.7753906 36.964844 9.7773438 36.964844 9.7773438 C 37.006674 9.8162271 37.048344 9.8552902 37.089844 9.8945312 C 37.816998 10.527554 38.481791 11.21038 39.101562 11.925781 C 39.212478 12.048767 39.32186 12.173129 39.429688 12.298828 L 39.392578 12.339844 L 39.800781 12.755859 C 39.860348 12.833108 39.914236 12.914089 39.972656 12.992188 C 40.323631 13.172708 40.686279 13.356263 41.019531 13.525391 C 40.645281 12.914135 40.238444 12.323439 39.800781 11.755859 L 39.392578 11.339844 L 39.429688 11.298828 C 39.32186 11.173129 39.212478 11.048767 39.101562 10.925781 C 38.48179 10.21038 37.816998 9.5275543 37.089844 8.8945312 C 37.048344 8.8552902 37.006674 8.8162272 36.964844 8.7773438 C 36.964844 8.7773438 36.962891 8.7753906 36.962891 8.7753906 C 36.754412 8.5970492 36.525872 8.4363433 36.308594 8.265625 C 36.01684 8.0307308 35.718545 7.8040789 35.414062 7.5859375 C 35.21165 7.4447902 34.994454 7.318097 34.785156 7.1835938 C 34.422219 6.9443636 34.05158 6.7170293 33.673828 6.5019531 C 33.614064 6.4688765 33.554093 6.4367012 33.494141 6.4042969 C 32.962719 6.1167763 32.418541 5.8534854 31.863281 5.6152344 C 31.810418 5.5924858 31.758049 5.5691345 31.705078 5.546875 C 31.148938 5.3150338 30.582605 5.1084429 30.007812 4.9277344 C 29.868603 4.883523 29.727586 4.8515617 29.587891 4.8105469 C 29.06753 4.6550612 28.541052 4.5208353 28.009766 4.4082031 C 27.957153 4.3973361 27.904213 4.3912899 27.851562 4.3808594 C 27.245499 4.2601578 26.634165 4.1676105 26.019531 4.1035156 C 25.988921 4.1003756 25.958354 4.0986931 25.927734 4.0957031 C 25.293523 4.0340731 24.656729 4.0027881 24.019531 4.0019531 z "
     id="path4562" />
  <path
     sodipodi:nodetypes="ccccccccccccccccccczcsssccccccccccccccccccccccc"
     inkscape:connector-curvature="0"
     id="path4551"
     d="m 23.961714,43.999962 c 0.03978,5.7e-5 0.07937,-0.0018 0.11914,-0.002 3.797196,-0.01751 7.510942,-1.115648 10.707032,-3.166016 0.551651,-0.355045 1.0855,-0.737017 1.599609,-1.144531 0.03681,-0.0292 0.07079,-0.06232 0.107422,-0.0918 0.462455,-0.370589 0.908208,-0.761599 1.335937,-1.171825 0.111656,-0.107672 0.21673,-0.223385 0.326172,-0.333985 0.387921,-0.383708 0.759977,-0.783131 1.115235,-1.197265 l 0.0059,-0.0059 c 0.0018,-0.0021 0.0041,-0.0038 0.0059,-0.0059 0.408774,-0.488491 0.793978,-0.996231 1.154296,-1.521484 0.03182,-0.04628 0.06422,-0.09205 0.0957,-0.138672 0.336029,-0.497362 0.649498,-1.009599 0.939453,-1.535156 0.03846,-0.06947 0.07576,-0.139252 0.113282,-0.208985 0.278267,-0.51587 0.533722,-1.043723 0.765625,-1.582031 0.03473,-0.08071 0.06797,-0.161234 0.101562,-0.242187 0.207687,-0.503868 0.394692,-1.016014 0.560547,-1.535157 0.02022,-0.215579 0.09944,-0.469825 0.212891,-0.75 0.493497,-1.745855 0.747125,-3.550824 0.753905,-5.365153 -0.0106,-2.352924 -0.705565,-4.325459 -4.886,-4.899915 -4.180435,-0.574456 -6.521065,1.222004 -8.965562,4.319837 -2.030085,2.910595 -3.165546,9.050858 -6.697343,11.144531 -2.044565,1.212032 -3.129941,1.648016 -4.84375,1.953125 -2.526874,0.449859 -5.111984,0.594145 -7.695313,-0.236328 -1.3979823,-0.449415 -2.7264763,-1.195014 -3.9316403,-1.806641 0.37425,0.611256 0.781087,1.201952 1.21875,1.769532 l 0.408203,0.416015 -0.03711,0.04102 c 0.107827,0.125699 0.21721,0.250057 0.328126,0.373043 0.619772,0.715401 1.2845643,1.398227 2.0117183,2.03125 0.0415,0.03924 0.08317,0.0783 0.125,0.117187 6.89e-4,5.9e-4 0.0013,0.0014 0.002,0.002 0.208479,0.178341 0.436972,0.339051 0.65425,0.509769 0.291754,0.234894 0.590049,0.461546 0.894532,0.679687 0.202412,0.141148 0.419608,0.267841 0.628906,0.402344 0.362937,0.23923 0.733576,0.466565 1.111328,0.681641 0.05976,0.03308 0.119735,0.06525 0.179687,0.09766 0.531422,0.287521 1.0756,0.550811 1.63086,0.789062 0.05286,0.02275 0.105232,0.0461 0.158203,0.06836 0.55614,0.231841 1.122473,0.438432 1.697266,0.61914 0.139209,0.04421 0.280226,0.07617 0.419921,0.117188 0.520361,0.155486 1.046839,0.289712 1.578125,0.402344 0.05261,0.01087 0.105553,0.01691 0.158204,0.02734 0.606064,0.120702 1.217397,0.213249 1.832031,0.277344 0.03061,0.0031 0.06118,0.0048 0.0918,0.0078 0.634211,0.06163 1.271005,0.09292 1.908203,0.09375 z"
     style="opacity:1;fill:#248dff;fill-opacity:1;stroke-width:0.1518821" />
</svg>
