<?xml version="1.0" encoding="UTF-8" standalone="no"?>
<svg
   xmlns:dc="http://purl.org/dc/elements/1.1/"
   xmlns:cc="http://creativecommons.org/ns#"
   xmlns:rdf="http://www.w3.org/1999/02/22-rdf-syntax-ns#"
   xmlns:svg="http://www.w3.org/2000/svg"
   xmlns="http://www.w3.org/2000/svg"
   xmlns:sodipodi="http://sodipodi.sourceforge.net/DTD/sodipodi-0.dtd"
   xmlns:inkscape="http://www.inkscape.org/namespaces/inkscape"
   height="48"
   width="48"
   version="1"
   id="svg22"
   sodipodi:docname="audio-bassbooster.svg"
   inkscape:version="0.92.1 r15371">
  <metadata
     id="metadata28">
    <rdf:RDF>
      <cc:Work
         rdf:about="">
        <dc:format>image/svg+xml</dc:format>
        <dc:type
           rdf:resource="http://purl.org/dc/dcmitype/StillImage" />
        <dc:title></dc:title>
      </cc:Work>
    </rdf:RDF>
  </metadata>
  <defs
     id="defs26" />
  <sodipodi:namedview
     pagecolor="#ffffff"
     bordercolor="#666666"
     borderopacity="1"
     objecttolerance="10"
     gridtolerance="10"
     guidetolerance="10"
     inkscape:pageopacity="0"
     inkscape:pageshadow="2"
     inkscape:window-width="1600"
     inkscape:window-height="822"
     id="namedview24"
     showgrid="false"
     inkscape:zoom="1"
     inkscape:cx="22.833905"
     inkscape:cy="23.688739"
     inkscape:window-x="0"
     inkscape:window-y="0"
     inkscape:window-maximized="1"
     inkscape:current-layer="svg22">
    <inkscape:grid
       type="xygrid"
       id="grid4636" />
  </sodipodi:namedview>
  <rect
     transform="matrix(0,-1,-1,0,0,0)"
     rx="2"
     ry="2"
     height="40"
     width="40"
     y="-44"
     x="-44"
     fill="#e94a63"
     id="rect2"
     style="fill:#4f4f4f;fill-opacity:1" />
  <path
     opacity=".2"
     fill="#fff"
     d="m6 4c-1.108 0-2 0.892-2 2v1c0-1.108 0.892-2 2-2h36c1.108 0 2 0.892 2 2v-1c0-1.108-0.892-2-2-2h-36z"
     id="path4"
     style="opacity:0.1" />
  <path
     opacity=".2"
     d="m6 45c-1.108 0-2-0.892-2-2v-1c0 1.108 0.892 2 2 2h36c1.108 0 2-0.892 2-2v1c0 1.108-0.892 2-2 2h-36z"
     id="path6" />
  <path
     id="path4511"
     d="m 41,33 a 9.0000001,8.9999999 0 0 1 -9,9 9.0000001,8.9999999 0 0 1 -9,-9 9.0000001,8.9999999 0 0 1 9,-9 9.0000001,8.9999999 0 0 1 9,9 z"
     inkscape:connector-curvature="0"
     style="opacity:0.3;fill:#000000;fill-opacity:1;stroke-width:2.25" />
  <path
     id="path4515"
     d="m 39.000001,34 a 7.0000001,6.9999999 0 0 1 -7,7 7.0000001,6.9999999 0 0 1 -7,-7 7.0000001,6.9999999 0 0 1 7,-7 7.0000001,6.9999999 0 0 1 7,7 z"
     inkscape:connector-curvature="0"
     style="opacity:0.2;fill:#000000;fill-opacity:1;stroke-width:1.75" />
  <path
     style="opacity:1;fill:#b8b8b8;fill-opacity:1;stroke-width:1.75"
     inkscape:connector-curvature="0"
     d="M 38.062179,36.5 A 7.0000001,6.9999999 30 0 1 28.500001,39.062178 7.0000001,6.9999999 30 0 1 25.937823,29.5 7.0000001,6.9999999 30 0 1 35.500001,26.937822 7.0000001,6.9999999 30 0 1 38.062179,36.5 Z"
     id="path4513" />
  <path
     style="opacity:0.1;fill:#ffffff;fill-opacity:1;stroke-width:1.75"
     d="M 31.669922,26.007812 A 7.0000001,6.9999999 30 0 0 25.9375,29.5 7.0000001,6.9999999 30 0 0 25.023438,33.494141 7.0000001,6.9999999 30 0 1 25.9375,30.5 7.0000001,6.9999999 30 0 1 35.5,27.9375 7.0000001,6.9999999 30 0 1 38.976562,33.505859 7.0000001,6.9999999 30 0 0 35.5,26.9375 7.0000001,6.9999999 30 0 0 31.669922,26.007812 Z"
     id="path4565"
     inkscape:connector-curvature="0" />
  <rect
     style="opacity:1;fill:#d54a4a;fill-opacity:1;stroke:none;stroke-width:3.46299195;stroke-linecap:round;stroke-linejoin:round;stroke-miterlimit:4;stroke-dasharray:none;stroke-dashoffset:0;stroke-opacity:1"
     id="rect4523"
     width="2"
     height="6"
     x="43.212814"
     y="4.5788379"
     rx="1"
     ry="1"
     transform="rotate(30)" />
  <rect
     y="40"
     x="-12"
     height="2"
     width="6"
     id="rect4535"
     style="opacity:1;fill:#ffe172;fill-opacity:1;stroke:none;stroke-width:2.84279656;stroke-linecap:round;stroke-linejoin:round;stroke-miterlimit:4;stroke-dasharray:none;stroke-dashoffset:0;stroke-opacity:1"
     transform="scale(-1,1)" />
  <path
     inkscape:connector-curvature="0"
     style="opacity:0.3;fill:#000000;fill-opacity:1;stroke:none;stroke-width:1.54872417;stroke-linecap:round;stroke-linejoin:round;stroke-miterlimit:4;stroke-dasharray:none;stroke-dashoffset:0;stroke-opacity:1"
     d="M 38.398437,7 C 38.177945,7 38,7.1682855 38,7.376953 V 12 h 1 V 7.376953 C 39,7.1682855 38.822054,7 38.601562,7 Z"
     id="rect4531" />
  <path
     style="opacity:1;fill:#ffe172;fill-opacity:1;stroke:none;stroke-width:1.54872417;stroke-linecap:round;stroke-linejoin:round;stroke-miterlimit:4;stroke-dasharray:none;stroke-dashoffset:0;stroke-opacity:1"
     d="m 39,9 v 9.623344 C 39,18.832011 38.822492,19 38.602,19 H 38.398 C 38.177508,19 38,18.832011 38,18.623344 V 9 Z"
     id="rect4547"
     inkscape:connector-curvature="0"
     sodipodi:nodetypes="csssscc" />
  <rect
     ry="0.66666669"
     rx="0.75"
     y="9"
     x="37"
     height="2"
     width="3"
     id="rect4581"
     style="opacity:0.2;fill:#000000;fill-opacity:1;stroke:none;stroke-width:1.14884162;stroke-linecap:round;stroke-linejoin:round;stroke-miterlimit:4;stroke-dasharray:none;stroke-dashoffset:0;stroke-opacity:1" />
  <rect
     style="opacity:1;fill:#b8b8b8;fill-opacity:1;stroke:none;stroke-width:1.14884162;stroke-linecap:round;stroke-linejoin:round;stroke-miterlimit:4;stroke-dasharray:none;stroke-dashoffset:0;stroke-opacity:1"
     id="rect4519"
     width="3"
     height="2"
     x="37"
     y="8"
     rx="0.75"
     ry="0.66666669" />
  <path
     sodipodi:nodetypes="csssscc"
     inkscape:connector-curvature="0"
     id="path4527"
     d="m 32,14 v 4.623344 C 32,18.832011 31.822492,19 31.602,19 H 31.398 C 31.177508,19 31,18.832011 31,18.623344 V 14 Z"
     style="opacity:1;fill:#ffe172;fill-opacity:1;stroke:none;stroke-width:1.54872417;stroke-linecap:round;stroke-linejoin:round;stroke-miterlimit:4;stroke-dasharray:none;stroke-dashoffset:0;stroke-opacity:1" />
  <path
     id="path4529"
     d="M 31.398437,7 C 31.177945,7 31,7.1682855 31,7.376953 V 14 h 1 V 7.376953 C 32,7.1682855 31.822054,7 31.601562,7 Z"
     style="opacity:0.3;fill:#000000;fill-opacity:1;stroke:none;stroke-width:1.54872417;stroke-linecap:round;stroke-linejoin:round;stroke-miterlimit:4;stroke-dasharray:none;stroke-dashoffset:0;stroke-opacity:1"
     inkscape:connector-curvature="0"
     sodipodi:nodetypes="ssccsss" />
  <rect
     style="opacity:0.2;fill:#000000;fill-opacity:1;stroke:none;stroke-width:1.14884162;stroke-linecap:round;stroke-linejoin:round;stroke-miterlimit:4;stroke-dasharray:none;stroke-dashoffset:0;stroke-opacity:1"
     id="rect4583"
     width="3"
     height="2"
     x="30"
     y="14"
     rx="0.75"
     ry="0.66666669" />
  <rect
     ry="0.66666669"
     rx="0.75"
     y="13"
     x="30"
     height="2"
     width="3"
     id="rect4534"
     style="opacity:1;fill:#b8b8b8;fill-opacity:1;stroke:none;stroke-width:1.14884162;stroke-linecap:round;stroke-linejoin:round;stroke-miterlimit:4;stroke-dasharray:none;stroke-dashoffset:0;stroke-opacity:1" />
  <path
     style="opacity:1;fill:#ffe172;fill-opacity:1;stroke:none;stroke-width:1.54872417;stroke-linecap:round;stroke-linejoin:round;stroke-miterlimit:4;stroke-dasharray:none;stroke-dashoffset:0;stroke-opacity:1"
     d="m 25,12 v 6.623344 C 25,18.832011 24.822492,19 24.602,19 H 24.398 C 24.177508,19 24,18.832011 24,18.623344 V 12 Z"
     id="path4538"
     inkscape:connector-curvature="0"
     sodipodi:nodetypes="csssscc" />
  <path
     inkscape:connector-curvature="0"
     style="opacity:0.3;fill:#000000;fill-opacity:1;stroke:none;stroke-width:1.54872417;stroke-linecap:round;stroke-linejoin:round;stroke-miterlimit:4;stroke-dasharray:none;stroke-dashoffset:0;stroke-opacity:1"
     d="M 24.398437,7 C 24.177945,7 24,7.1682855 24,7.376953 V 12 h 1 V 7.376953 C 25,7.1682855 24.822054,7 24.601562,7 Z"
     id="path4540" />
  <rect
     ry="0.66666669"
     rx="0.75"
     y="11"
     x="23"
     height="2"
     width="3"
     id="rect4585"
     style="opacity:0.2;fill:#000000;fill-opacity:1;stroke:none;stroke-width:1.14884162;stroke-linecap:round;stroke-linejoin:round;stroke-miterlimit:4;stroke-dasharray:none;stroke-dashoffset:0;stroke-opacity:1" />
  <rect
     style="opacity:1;fill:#b8b8b8;fill-opacity:1;stroke:none;stroke-width:1.14884162;stroke-linecap:round;stroke-linejoin:round;stroke-miterlimit:4;stroke-dasharray:none;stroke-dashoffset:0;stroke-opacity:1"
     id="rect4544"
     width="3"
     height="2"
     x="23"
     y="10"
     rx="0.75"
     ry="0.66666669" />
  <path
     style="opacity:0.1;fill:#ffffff;fill-opacity:1;stroke:none;stroke-width:1.14884162;stroke-linecap:round;stroke-linejoin:round;stroke-miterlimit:4;stroke-dasharray:none;stroke-dashoffset:0;stroke-opacity:1"
     d="M 37.75,8 C 37.3345,8 37,8.2966823 37,8.6660156 V 9.3339844 C 37,9.3929686 37.021079,9.4456064 37.037109,9.5 37.121455,9.213805 37.400857,9 37.75,9 h 1.5 c 0.349143,0 0.628545,0.213805 0.712891,0.5 C 39.978921,9.4456064 40,9.3929686 40,9.3339844 V 8.6660156 C 40,8.2966823 39.6655,8 39.25,8 Z"
     id="rect4566"
     inkscape:connector-curvature="0" />
  <path
     style="opacity:0.1;fill:#ffffff;fill-opacity:1;stroke:none;stroke-width:1.14884162;stroke-linecap:round;stroke-linejoin:round;stroke-miterlimit:4;stroke-dasharray:none;stroke-dashoffset:0;stroke-opacity:1"
     d="M 30.75,13 C 30.3345,13 30,13.296682 30,13.666016 v 0.667968 c 0,0.05899 0.02108,0.111622 0.03711,0.166016 C 30.121455,14.213805 30.400857,14 30.75,14 h 1.5 c 0.349143,0 0.628545,0.213805 0.712891,0.5 C 32.978921,14.445606 33,14.392969 33,14.333984 V 13.666016 C 33,13.296682 32.6655,13 32.25,13 Z"
     id="rect4568"
     inkscape:connector-curvature="0" />
  <path
     style="opacity:0.1;fill:#ffffff;fill-opacity:1;stroke:none;stroke-width:1.14884162;stroke-linecap:round;stroke-linejoin:round;stroke-miterlimit:4;stroke-dasharray:none;stroke-dashoffset:0;stroke-opacity:1"
     d="M 23.75,10 C 23.3345,10 23,10.296682 23,10.666016 v 0.667968 c 0,0.05899 0.02108,0.111622 0.03711,0.166016 C 23.121455,11.213805 23.400857,11 23.75,11 h 1.5 c 0.349143,0 0.628545,0.213805 0.712891,0.5 C 25.978921,11.445606 26,11.392969 26,11.333984 V 10.666016 C 26,10.296682 25.6655,10 25.25,10 Z"
     id="rect4570"
     inkscape:connector-curvature="0" />
  <rect
     transform="scale(-1,1)"
     style="opacity:1;fill:#ffe172;fill-opacity:1;stroke:none;stroke-width:2.84279656;stroke-linecap:round;stroke-linejoin:round;stroke-miterlimit:4;stroke-dasharray:none;stroke-dashoffset:0;stroke-opacity:1"
     id="rect4590"
     width="6"
     height="2"
     x="-19"
     y="40" />
  <rect
     transform="scale(-1,1)"
     style="opacity:1;fill:#ffe172;fill-opacity:1;stroke:none;stroke-width:2.84279656;stroke-linecap:round;stroke-linejoin:round;stroke-miterlimit:4;stroke-dasharray:none;stroke-dashoffset:0;stroke-opacity:1"
     id="rect4592"
     width="6"
     height="2"
     x="-12"
     y="37" />
  <rect
     y="37"
     x="-19"
     height="2"
     width="6"
     id="rect4594"
     style="opacity:1;fill:#ffe172;fill-opacity:1;stroke:none;stroke-width:2.84279656;stroke-linecap:round;stroke-linejoin:round;stroke-miterlimit:4;stroke-dasharray:none;stroke-dashoffset:0;stroke-opacity:1"
     transform="scale(-1,1)" />
  <rect
     transform="scale(-1,1)"
     style="opacity:1;fill:#ffe172;fill-opacity:1;stroke:none;stroke-width:2.84279656;stroke-linecap:round;stroke-linejoin:round;stroke-miterlimit:4;stroke-dasharray:none;stroke-dashoffset:0;stroke-opacity:1"
     id="rect4596"
     width="6"
     height="2"
     x="-12"
     y="34" />
  <rect
     y="34"
     x="-19"
     height="2"
     width="6"
     id="rect4598"
     style="opacity:1;fill:#ffe172;fill-opacity:1;stroke:none;stroke-width:2.84279656;stroke-linecap:round;stroke-linejoin:round;stroke-miterlimit:4;stroke-dasharray:none;stroke-dashoffset:0;stroke-opacity:1"
     transform="scale(-1,1)" />
  <rect
     y="30.999998"
     x="-12"
     height="2"
     width="6"
     id="rect4600"
     style="opacity:1;fill:#ffe172;fill-opacity:1;stroke:none;stroke-width:2.84279656;stroke-linecap:round;stroke-linejoin:round;stroke-miterlimit:4;stroke-dasharray:none;stroke-dashoffset:0;stroke-opacity:1"
     transform="scale(-1,1)" />
  <rect
     transform="scale(-1,1)"
     style="opacity:1;fill:#ffe172;fill-opacity:1;stroke:none;stroke-width:2.84279656;stroke-linecap:round;stroke-linejoin:round;stroke-miterlimit:4;stroke-dasharray:none;stroke-dashoffset:0;stroke-opacity:1"
     id="rect4602"
     width="6"
     height="2"
     x="-19"
     y="30.999998" />
  <rect
     transform="scale(-1,1)"
     style="opacity:1;fill:#ffe172;fill-opacity:1;stroke:none;stroke-width:2.84279656;stroke-linecap:round;stroke-linejoin:round;stroke-miterlimit:4;stroke-dasharray:none;stroke-dashoffset:0;stroke-opacity:1"
     id="rect4604"
     width="6"
     height="2"
     x="-12"
     y="28" />
  <rect
     y="28"
     x="-19"
     height="2"
     width="6"
     id="rect4606"
     style="opacity:1;fill:#ffe172;fill-opacity:1;stroke:none;stroke-width:2.84279656;stroke-linecap:round;stroke-linejoin:round;stroke-miterlimit:4;stroke-dasharray:none;stroke-dashoffset:0;stroke-opacity:1"
     transform="scale(-1,1)" />
  <rect
     y="25.000011"
     x="-12"
     height="2"
     width="6"
     id="rect4608"
     style="opacity:1;fill:#ffe172;fill-opacity:1;stroke:none;stroke-width:2.84279656;stroke-linecap:round;stroke-linejoin:round;stroke-miterlimit:4;stroke-dasharray:none;stroke-dashoffset:0;stroke-opacity:1"
     transform="scale(-1,1)" />
  <rect
     transform="scale(-1,1)"
     style="opacity:0.3;fill:#000000;fill-opacity:1;stroke:none;stroke-width:2.84279656;stroke-linecap:round;stroke-linejoin:round;stroke-miterlimit:4;stroke-dasharray:none;stroke-dashoffset:0;stroke-opacity:1"
     id="rect4610"
     width="6"
     height="2"
     x="-19"
     y="25.000011" />
  <rect
     y="22.000011"
     x="-12"
     height="2"
     width="6"
     id="rect4612"
     style="opacity:1;fill:#ffe172;fill-opacity:1;stroke:none;stroke-width:2.84279656;stroke-linecap:round;stroke-linejoin:round;stroke-miterlimit:4;stroke-dasharray:none;stroke-dashoffset:0;stroke-opacity:1"
     transform="scale(-1,1)" />
  <rect
     transform="scale(-1,1)"
     style="opacity:0.3;fill:#000000;fill-opacity:1;stroke:none;stroke-width:2.84279656;stroke-linecap:round;stroke-linejoin:round;stroke-miterlimit:4;stroke-dasharray:none;stroke-dashoffset:0;stroke-opacity:1"
     id="rect4614"
     width="6"
     height="2"
     x="-19"
     y="22.000011" />
  <rect
     transform="scale(-1,1)"
     style="opacity:1;fill:#ffe172;fill-opacity:1;stroke:none;stroke-width:2.84279656;stroke-linecap:round;stroke-linejoin:round;stroke-miterlimit:4;stroke-dasharray:none;stroke-dashoffset:0;stroke-opacity:1"
     id="rect4616"
     width="6"
     height="2"
     x="-12"
     y="18.999994" />
  <rect
     y="18.999994"
     x="-19"
     height="2"
     width="6"
     id="rect4618"
     style="opacity:0.3;fill:#000000;fill-opacity:1;stroke:none;stroke-width:2.84279656;stroke-linecap:round;stroke-linejoin:round;stroke-miterlimit:4;stroke-dasharray:none;stroke-dashoffset:0;stroke-opacity:1"
     transform="scale(-1,1)" />
  <rect
     transform="scale(-1,1)"
     style="opacity:0.3;fill:#000000;fill-opacity:1;stroke:none;stroke-width:2.84279656;stroke-linecap:round;stroke-linejoin:round;stroke-miterlimit:4;stroke-dasharray:none;stroke-dashoffset:0;stroke-opacity:1"
     id="rect4620"
     width="6"
     height="2"
     x="-12"
     y="16" />
  <rect
     y="16"
     x="-19"
     height="2"
     width="6"
     id="rect4622"
     style="opacity:0.3;fill:#000000;fill-opacity:1;stroke:none;stroke-width:2.84279656;stroke-linecap:round;stroke-linejoin:round;stroke-miterlimit:4;stroke-dasharray:none;stroke-dashoffset:0;stroke-opacity:1"
     transform="scale(-1,1)" />
  <rect
     transform="scale(-1,1)"
     style="opacity:0.3;fill:#000000;fill-opacity:1;stroke:none;stroke-width:2.84279656;stroke-linecap:round;stroke-linejoin:round;stroke-miterlimit:4;stroke-dasharray:none;stroke-dashoffset:0;stroke-opacity:1"
     id="rect4624"
     width="6"
     height="2"
     x="-12"
     y="13.000003" />
  <rect
     y="13.000003"
     x="-19"
     height="2"
     width="6"
     id="rect4626"
     style="opacity:0.3;fill:#000000;fill-opacity:1;stroke:none;stroke-width:2.84279656;stroke-linecap:round;stroke-linejoin:round;stroke-miterlimit:4;stroke-dasharray:none;stroke-dashoffset:0;stroke-opacity:1"
     transform="scale(-1,1)" />
  <rect
     y="9.9999771"
     x="-12"
     height="2"
     width="6"
     id="rect4628"
     style="opacity:0.3;fill:#000000;fill-opacity:1;stroke:none;stroke-width:2.84279656;stroke-linecap:round;stroke-linejoin:round;stroke-miterlimit:4;stroke-dasharray:none;stroke-dashoffset:0;stroke-opacity:1"
     transform="scale(-1,1)" />
  <rect
     transform="scale(-1,1)"
     style="opacity:0.3;fill:#000000;fill-opacity:1;stroke:none;stroke-width:2.84279656;stroke-linecap:round;stroke-linejoin:round;stroke-miterlimit:4;stroke-dasharray:none;stroke-dashoffset:0;stroke-opacity:1"
     id="rect4630"
     width="6"
     height="2"
     x="-19"
     y="9.9999771" />
  <rect
     transform="scale(-1,1)"
     style="opacity:0.3;fill:#000000;fill-opacity:1;stroke:none;stroke-width:2.84279656;stroke-linecap:round;stroke-linejoin:round;stroke-miterlimit:4;stroke-dasharray:none;stroke-dashoffset:0;stroke-opacity:1"
     id="rect4632"
     width="6"
     height="2"
     x="-12"
     y="7" />
  <rect
     y="7"
     x="-19"
     height="2"
     width="6"
     id="rect4634"
     style="opacity:0.3;fill:#000000;fill-opacity:1;stroke:none;stroke-width:2.84279656;stroke-linecap:round;stroke-linejoin:round;stroke-miterlimit:4;stroke-dasharray:none;stroke-dashoffset:0;stroke-opacity:1"
     transform="scale(-1,1)" />
</svg>
