<?xml version="1.0" encoding="UTF-8" standalone="no"?>
<svg
   xmlns:dc="http://purl.org/dc/elements/1.1/"
   xmlns:cc="http://creativecommons.org/ns#"
   xmlns:rdf="http://www.w3.org/1999/02/22-rdf-syntax-ns#"
   xmlns:svg="http://www.w3.org/2000/svg"
   xmlns="http://www.w3.org/2000/svg"
   xmlns:sodipodi="http://sodipodi.sourceforge.net/DTD/sodipodi-0.dtd"
   xmlns:inkscape="http://www.inkscape.org/namespaces/inkscape"
   height="48"
   width="48"
   version="1"
   id="svg10"
   sodipodi:docname="boat-browser-mini.svg"
   inkscape:version="0.92.1 r15371">
  <metadata
     id="metadata16">
    <rdf:RDF>
      <cc:Work
         rdf:about="">
        <dc:format>image/svg+xml</dc:format>
        <dc:type
           rdf:resource="http://purl.org/dc/dcmitype/StillImage" />
        <dc:title></dc:title>
      </cc:Work>
    </rdf:RDF>
  </metadata>
  <defs
     id="defs14" />
  <sodipodi:namedview
     pagecolor="#ffffff"
     bordercolor="#666666"
     borderopacity="1"
     objecttolerance="10"
     gridtolerance="10"
     guidetolerance="10"
     inkscape:pageopacity="0"
     inkscape:pageshadow="2"
     inkscape:window-width="1600"
     inkscape:window-height="822"
     id="namedview12"
     showgrid="false"
     inkscape:zoom="4.64"
     inkscape:cx="-18.241379"
     inkscape:cy="24"
     inkscape:window-x="0"
     inkscape:window-y="0"
     inkscape:window-maximized="1"
     inkscape:current-layer="svg10">
    <inkscape:grid
       type="xygrid"
       id="grid4512" />
  </sodipodi:namedview>
  <rect
     x="-45"
     y="-44"
     width="40"
     height="40"
     ry="20"
     rx="20"
     transform="matrix(0,-1,-1,0,0,0)"
     style="opacity:0.2;fill:#000000;fill-opacity:1"
     id="rect2" />
  <rect
     transform="matrix(0,-1,-1,0,0,0)"
     rx="20"
     ry="20"
     height="40"
     width="40"
     y="-44"
     x="-44"
     fill="#4882e3"
     id="rect4"
     style="fill:#56a927;fill-opacity:1" />
  <path
     opacity=".2"
     d="m24 4c-11.08 0-20 8.92-20 20 0 0.168-0.004 0.333 0 0.5 0.2644-10.846 9.088-19.5 20-19.5s19.736 8.654 20 19.5c0.004-0.167 0-0.332 0-0.5 0-11.08-8.92-20-20-20z"
     fill="#fff"
     id="path8"
     style="opacity:0.1" />
  <path
     id="path4520"
     d="m 23.892578,10.010292 c -0.806531,0.0358 -1.944716,0.1816 -2.93164,0.400391 -6.052284,1.341732 -10.60197,5.682234 -11.7597661,11.21875 -0.571432,2.959164 -0.2959567,6.509023 1.7285161,8.615235 1.885692,1.758446 5.101233,2.904708 7.996093,2.802734 1.029956,-0.01643 1.580403,-0.04458 1.837891,-0.208984 -0.01707,-0.02533 -0.03566,-0.04221 -0.05273,-0.06836 -0.468919,-0.718486 -0.527417,-1.060528 -0.72461,-1.646484 -1.57398,-4.677036 -1.37048,-10.539326 0.69336,-14.679688 1.258144,-2.245892 2.923488,-4.165908 4.267578,-6.298828 0,-0.07114 -0.140371,-0.114106 -0.376954,-0.132813 -0.177437,-0.01403 -0.40889,-0.013885 -0.677734,-0.002 z m -0.417969,5.990235 c -0.203223,0.02296 -0.623839,0.57347 -1.003906,1.335938 -1.707397,3.425286 -1.960225,9.072538 -0.587891,13.15039 0.160139,0.475852 0.385492,1.011007 0.501954,1.189453 0.119595,0.183237 0.361135,0.324219 0.552734,0.324219 0.486594,0 1.855374,-0.487327 2.878906,-1.025391 C 26.722457,30.498837 28,29.486563 28,29.244668 c 0,-0.07512 -0.35428,-0.637906 -0.787109,-1.25 -1.007879,-1.425303 -1.706394,-2.80726 -2.431641,-4.8125 -0.725636,-2.006319 -1.025239,-3.507692 -1.099609,-5.511719 -0.03204,-0.863036 -0.09228,-1.604584 -0.134766,-1.646484 -0.01941,-0.01914 -0.04323,-0.02672 -0.07227,-0.02344 z M 36.246094,29.00248 c -1.683606,0 -3.607857,0.983276 -7.056641,3.070313 -4.668089,2.824905 -6.286203,3.927734 -9.6875,3.927734 -1.75132,0 -4.657062,-1.211278 -5.691406,-1.740234 -0.910421,-0.465584 -0.84908,0.304831 0.216797,1.443359 1.83273,1.957643 4.894683,3.510654 8.02539,4.072266 3.822695,0.68574 7.976557,-0.219177 11.392578,-2.484375 1.226512,-0.813319 3.139618,-2.754441 4.058594,-4.117188 0.855219,-1.268203 1.675541,-3.165094 1.460938,-3.376953 -0.2374,-0.234375 -1.884327,-0.794922 -2.71875,-0.794922 z"
     style="opacity:0.2;fill:#000000;fill-opacity:1;stroke-width:0.14868352"
     inkscape:connector-curvature="0" />
  <path
     style="fill:#b5db66;fill-opacity:1;stroke-width:0.14868352"
     d="M 23.892578 9.0097656 C 23.086047 9.045562 21.947862 9.191365 20.960938 9.4101562 C 14.908654 10.751888 10.358968 15.09239 9.2011719 20.628906 C 8.6297399 23.58807 8.9052152 27.137929 10.929688 29.244141 C 12.81538 31.002587 16.030921 32.148849 18.925781 32.046875 C 19.955737 32.030445 20.506184 32.002295 20.763672 31.837891 C 20.746602 31.812561 20.728008 31.795681 20.710938 31.769531 C 20.242019 31.051045 20.183521 30.709003 19.986328 30.123047 C 18.412348 25.446011 18.615848 19.583721 20.679688 15.443359 C 21.937832 13.197467 23.603176 11.277451 24.947266 9.1445312 C 24.947266 9.0733892 24.806895 9.0304254 24.570312 9.0117188 C 24.392875 8.9976888 24.161422 8.9978335 23.892578 9.0097656 z M 23.474609 15 C 23.271386 15.022959 22.85077 15.57347 22.470703 16.335938 C 20.763306 19.761224 20.510478 25.408476 21.882812 29.486328 C 22.042951 29.96218 22.268304 30.497335 22.384766 30.675781 C 22.504361 30.859018 22.745901 31 22.9375 31 C 23.424094 31 24.792874 30.512673 25.816406 29.974609 C 26.722457 29.49831 28 28.486036 28 28.244141 C 28 28.169025 27.64572 27.606235 27.212891 26.994141 C 26.205012 25.568838 25.506497 24.186881 24.78125 22.181641 C 24.055614 20.175322 23.756011 18.673949 23.681641 16.669922 C 23.649606 15.806886 23.589365 15.065338 23.546875 15.023438 C 23.527468 15.004297 23.503641 14.99672 23.474609 15 z M 36.246094 28.001953 C 34.562488 28.001953 32.638237 28.985229 29.189453 31.072266 C 24.521364 33.897171 22.90325 35 19.501953 35 C 17.750633 35 14.844891 33.788722 13.810547 33.259766 C 12.900126 32.794182 12.961467 33.564597 14.027344 34.703125 C 15.860074 36.660768 18.922027 38.213779 22.052734 38.775391 C 25.875429 39.461131 30.029291 38.556214 33.445312 36.291016 C 34.671824 35.477697 36.58493 33.536575 37.503906 32.173828 C 38.359125 30.905625 39.179447 29.008734 38.964844 28.796875 C 38.727444 28.5625 37.080517 28.001953 36.246094 28.001953 z "
     id="path4510" />
</svg>
