<?xml version="1.0" encoding="UTF-8" standalone="no"?>
<svg
   xmlns:dc="http://purl.org/dc/elements/1.1/"
   xmlns:cc="http://creativecommons.org/ns#"
   xmlns:rdf="http://www.w3.org/1999/02/22-rdf-syntax-ns#"
   xmlns:svg="http://www.w3.org/2000/svg"
   xmlns="http://www.w3.org/2000/svg"
   xmlns:sodipodi="http://sodipodi.sourceforge.net/DTD/sodipodi-0.dtd"
   xmlns:inkscape="http://www.inkscape.org/namespaces/inkscape"
   height="48"
   width="48"
   version="1"
   id="svg19"
   sodipodi:docname="browser-vega.svg"
   inkscape:version="0.92.1 r15371">
  <metadata
     id="metadata23">
    <rdf:RDF>
      <cc:Work
         rdf:about="">
        <dc:format>image/svg+xml</dc:format>
        <dc:type
           rdf:resource="http://purl.org/dc/dcmitype/StillImage" />
        <dc:title></dc:title>
      </cc:Work>
    </rdf:RDF>
  </metadata>
  <sodipodi:namedview
     pagecolor="#ffffff"
     bordercolor="#666666"
     borderopacity="1"
     objecttolerance="10"
     gridtolerance="10"
     guidetolerance="10"
     inkscape:pageopacity="0"
     inkscape:pageshadow="2"
     inkscape:window-width="1600"
     inkscape:window-height="822"
     id="namedview21"
     showgrid="false"
     inkscape:zoom="9.2"
     inkscape:cx="24"
     inkscape:cy="28.347826"
     inkscape:window-x="0"
     inkscape:window-y="0"
     inkscape:window-maximized="1"
     inkscape:current-layer="svg19" />
  <defs
     id="defs5">
    <clipPath
       id="clipPath4186"
       clipPathUnits="userSpaceOnUse">
      <circle
         cx="286"
         cy="26"
         r="10"
         fill="url(#linearGradient4190)"
         id="circle2" />
    </clipPath>
  </defs>
  <path
     opacity=".2"
     style="color:#000000"
     d="m43.979 24.418a20 20 0 0 1 -19.979 19.582 20 20 0 0 1 -19.978 -19.418 20 20 0 0 0 -0.022 0.418 20 20 0 0 0 20 20 20 20 0 0 0 20 -20 20 20 0 0 0 -0.021 -0.582z"
     id="path17" />
  <circle
     cx="24"
     cy="24"
     r="20"
     fill="#37a0f2"
     id="circle7"
     style="fill:#f23737;fill-opacity:1" />
  <path
     style="opacity:0.2;fill:#000000;fill-opacity:1"
     d="M 22.111328 5.1074219 A 20 20 0 0 0 14.873047 7.2070312 C 14.974047 7.5271313 14.856281 7.8882312 14.488281 8.2070312 C 14.239281 8.4228312 14.035156 8.7588781 14.035156 8.9550781 C 14.035156 9.5547781 14.576766 10.475575 15.009766 10.609375 C 15.584766 10.787375 15.392344 11.401234 14.652344 11.740234 C 14.310344 11.897234 13.888797 12.349141 13.716797 12.744141 C 13.543797 13.140141 13.290344 13.530328 13.152344 13.611328 C 13.015344 13.693328 12.902344 14.001828 12.902344 14.298828 C 12.902344 14.713828 13.091844 14.915063 13.714844 15.164062 C 14.160844 15.343063 14.695344 15.473125 14.902344 15.453125 C 16.093344 15.341125 16.175766 16.034625 15.134766 17.390625 C 14.581766 18.110625 14.316453 18.292172 13.939453 18.201172 C 13.588453 18.117172 13.396328 18.216453 13.236328 18.564453 C 13.068328 18.933453 12.791781 19.058375 12.050781 19.109375 C 11.321781 19.160375 10.995656 19.308031 10.722656 19.707031 C 10.522656 19.998031 10.235031 20.234375 10.082031 20.234375 C 9.9286313 20.234375 9.56845 20.429969 9.28125 20.667969 C 8.69685 21.152969 8.4685719 21.201766 8.2636719 20.884766 C 7.9928719 20.464766 7.4085625 20.676766 6.5390625 21.509766 C 5.7700625 22.245766 5.6769687 22.443031 5.7929688 23.082031 C 5.9993688 24.219031 6.6161125 25.228078 7.3203125 25.580078 C 7.9348125 25.887078 7.9468188 25.920453 7.5742188 26.314453 C 7.3599188 26.541453 6.9922125 26.784469 6.7578125 26.855469 C 6.0808125 27.061469 6.4619219 27.318656 7.6699219 27.472656 C 8.9063219 27.629656 9.2904906 28.078453 8.7128906 28.689453 C 8.3907906 29.030453 8.4088813 29.093969 8.9257812 29.417969 C 9.9357812 30.051969 10.739016 29.664 9.7910156 29 C 9.1817156 28.573 9.6077531 28.398984 10.501953 28.708984 C 11.214953 28.955984 11.356344 28.942172 11.777344 28.576172 C 12.642344 27.827172 13.582016 28.935484 12.791016 29.771484 C 12.288016 30.304484 12.439797 30.946156 13.091797 31.035156 C 13.379797 31.074156 13.977875 31.341859 14.421875 31.630859 C 14.865875 31.918859 15.350094 32.15625 15.496094 32.15625 C 15.642094 32.15625 16.054109 32.448641 16.412109 32.806641 C 17.138109 33.531641 17.541094 33.624281 17.746094 33.113281 C 17.992094 32.499281 17.893469 32.181984 17.230469 31.458984 C 16.703469 30.882984 15.845703 29.353328 15.845703 28.986328 C 15.845703 28.760328 16.717078 28.952156 17.205078 29.285156 C 17.510078 29.494156 18.003734 29.762766 18.302734 29.884766 C 18.620734 30.014766 18.950562 30.419328 19.101562 30.861328 C 19.336562 31.555328 19.429719 31.615234 20.261719 31.615234 L 21.166016 31.615234 L 21.302734 33.240234 C 21.466734 35.195234 21.623922 35.590953 22.294922 35.751953 C 22.788922 35.870953 23.316406 36.636375 23.316406 37.234375 C 23.316406 37.393375 22.961344 37.782609 22.527344 38.099609 C 21.989344 38.492609 21.756969 38.827297 21.792969 39.154297 C 21.837969 39.563297 21.745016 39.626984 21.166016 39.583984 C 20.793016 39.555984 20.144516 39.687 19.728516 39.875 C 19.235516 40.097 18.702172 40.168125 18.201172 40.078125 C 17.625172 39.975125 17.429688 40.015234 17.429688 40.240234 C 17.429688 40.406234 17.228422 40.715688 16.982422 40.929688 C 16.374422 41.456688 16.624594 41.736359 17.558594 41.568359 C 18.138594 41.464359 18.364844 41.509766 18.464844 41.759766 C 18.677844 42.290766 18.137719 43.050781 17.636719 42.925781 C 17.612175 42.919607 17.594883 42.921856 17.572266 42.917969 A 20 20 0 0 0 19.519531 43.472656 C 19.597572 43.125374 19.873978 42.779842 20.275391 42.683594 C 20.998391 42.509594 20.883656 42.041172 20.097656 41.951172 C 19.408656 41.873172 18.67625 41.175359 18.90625 40.818359 C 19.06125 40.579359 19.719734 40.613687 21.052734 40.929688 C 21.654734 41.071688 22.065938 40.785766 23.460938 39.259766 C 24.267937 38.375766 24.889312 38.007813 25.570312 38.007812 C 25.830313 38.007812 26.756859 37.768562 27.630859 37.476562 C 29.280859 36.923563 29.926234 36.943875 29.865234 37.546875 C 29.739234 38.800875 30.546328 38.759313 31.861328 37.445312 C 32.409328 36.898313 32.909609 36.502453 32.974609 36.564453 C 33.225609 36.805453 32.774094 37.978125 32.246094 38.453125 C 31.577094 39.055125 31.543812 39.435328 32.132812 39.736328 C 32.454813 39.902328 32.591578 40.237234 32.642578 40.990234 L 32.708984 41.986328 A 20 20 0 0 0 43.923828 25.509766 C 43.677908 24.929252 43.7034 24.548589 43.96875 24.132812 A 20 20 0 0 0 43.878906 23.011719 C 43.696906 23.002719 43.510875 22.994906 43.296875 23.003906 C 42.288875 23.045906 41.425781 22.648578 41.425781 22.142578 C 41.425781 22.035578 41.067859 21.595062 40.630859 21.164062 C 40.134859 20.676063 39.881078 20.243531 39.955078 20.019531 C 40.023078 19.815531 39.877141 19.486672 39.619141 19.263672 C 39.368141 19.045672 39.162109 18.696328 39.162109 18.486328 C 39.162109 18.151328 38.949203 18.109484 37.408203 18.146484 L 35.654297 18.189453 L 35.683594 19.917969 C 35.735594 22.945969 36.187125 23.731609 37.578125 23.224609 C 38.215125 22.991609 39.779609 23.168484 40.224609 23.521484 C 40.385609 23.649484 40.619187 24.112734 40.742188 24.552734 C 40.866188 24.991734 41.323719 25.753188 41.761719 26.242188 C 42.647719 27.234188 42.716984 27.621156 42.208984 28.785156 C 41.765984 29.801156 41.287812 29.684031 41.382812 28.582031 L 41.453125 27.761719 L 40.703125 27.902344 C 40.288125 27.981344 39.768156 28.286844 39.535156 28.589844 C 39.203156 29.020844 39.047828 29.083719 38.798828 28.886719 C 38.624828 28.748719 38.484375 28.458188 38.484375 28.242188 C 38.484375 28.026187 38.269766 27.786031 38.009766 27.707031 C 37.748766 27.628031 37.391797 27.235031 37.216797 26.832031 C 36.935797 26.188031 36.942531 25.990984 37.269531 25.208984 C 37.600531 24.415984 37.603828 24.285188 37.298828 23.992188 C 37.018828 23.724187 36.873859 23.714547 36.505859 23.935547 C 36.135859 24.156547 35.961484 24.140703 35.521484 23.845703 C 35.228484 23.648703 34.714813 23.486328 34.382812 23.486328 C 33.707813 23.486328 33.503906 23.158266 33.503906 22.072266 C 33.503906 21.069266 32.906422 20.704938 31.482422 20.835938 C 30.494422 20.926938 30.275516 20.862047 29.478516 20.248047 C 28.985516 19.869047 28.208047 18.95675 27.748047 18.21875 C 27.288047 17.48075 26.793437 16.709859 26.648438 16.505859 C 26.440438 16.210859 26.491437 15.928 26.898438 15.125 L 27.412109 14.115234 L 26.326172 14.261719 C 24.394172 14.522719 24.002984 14.77275 24.833984 15.21875 C 25.157984 15.39175 25.171875 15.480531 24.921875 15.769531 C 24.757875 15.957531 24.680953 16.256594 24.751953 16.433594 C 24.822953 16.609594 24.732734 17.026422 24.552734 17.357422 C 24.371734 17.689422 24.220844 18.153578 24.214844 18.392578 C 24.195844 19.137578 22.920047 19.731344 21.498047 19.652344 C 19.344047 19.533344 19.169297 19.567344 18.404297 20.277344 C 17.448297 21.165344 17.324531 21.578344 17.769531 22.402344 C 18.200531 23.202344 18.966969 23.521078 20.292969 23.455078 C 21.478969 23.396078 21.612797 23.501156 21.341797 24.285156 C 21.110797 24.951156 20.3375 25.207016 19.8125 24.791016 C 19.4085 24.470016 18.014891 24.7175 17.587891 25.1875 C 17.408891 25.3835 17.143047 25.900031 16.998047 26.332031 C 16.748047 27.078031 16.674687 27.124422 15.554688 27.232422 C 14.436687 27.341422 14.329391 27.305453 13.525391 26.564453 C 12.628391 25.738453 12.476203 25.105578 12.908203 24.017578 C 13.100203 23.535578 13.241906 23.456781 13.753906 23.550781 C 14.767906 23.735781 15.167969 23.383781 15.167969 22.300781 C 15.167969 21.775781 15.066406 21.284938 14.941406 21.210938 C 14.817406 21.136937 14.714844 20.858797 14.714844 20.591797 C 14.714844 20.324797 14.586641 19.981078 14.431641 19.830078 C 14.204641 19.610078 14.237609 19.492328 14.599609 19.236328 C 14.847609 19.061328 15.255859 18.942656 15.505859 18.972656 C 15.754859 19.002656 16.444109 18.895375 17.037109 18.734375 C 17.894109 18.503375 18.145719 18.327953 18.261719 17.876953 C 18.481719 17.020953 19.01875 16.333984 19.46875 16.333984 C 20.17975 16.333984 20.194906 14.662469 19.503906 12.230469 C 19.401906 11.871469 19.121 11.642531 18.625 11.519531 C 18.223 11.419531 17.786297 11.145956 17.654297 10.910156 C 17.523297 10.674356 17.282141 10.482422 17.119141 10.482422 C 16.956141 10.482422 16.637109 10.287228 16.412109 10.048828 C 16.185109 9.8088281 15.716375 9.6152344 15.359375 9.6152344 C 14.514375 9.6152344 14.499891 9.0333625 15.337891 8.7265625 C 16.222891 8.4021625 17.600594 8.8274437 17.933594 9.5273438 C 18.384594 10.476444 18.885875 10.080384 19.046875 8.6464844 C 19.245875 6.8729844 19.858109 6.3632812 21.787109 6.3632812 L 23.173828 6.3632812 L 22.566406 5.7558594 C 22.377406 5.5662594 22.220328 5.3346219 22.111328 5.1074219 z M 29.300781 5.7363281 C 29.261781 5.7715281 29.223547 5.8003437 29.185547 5.8398438 C 28.721547 6.3134438 28.504109 6.3808844 27.787109 6.2714844 C 26.535109 6.0805844 26.696031 6.5846594 28.082031 7.1933594 C 28.831031 7.5224594 29.312563 7.8977438 29.476562 8.2773438 C 30.266562 10.108944 30.810984 11.095313 31.083984 11.195312 C 31.635984 11.398312 31.964891 10.990619 32.087891 9.9492188 C 32.228891 8.7544187 32.633375 8.5010969 33.359375 9.1542969 C 33.641375 9.4077969 34.035375 9.6152344 34.234375 9.6152344 C 34.855375 9.6152344 35.314453 9.8644719 35.314453 10.201172 C 35.314453 10.378572 35.52425 10.806444 35.78125 11.152344 C 36.16025 11.661344 36.417 11.783203 37.125 11.783203 C 37.994 11.783203 38.527234 11.945875 39.615234 12.546875 C 39.632234 12.555875 39.649016 12.559359 39.666016 12.568359 A 20 20 0 0 0 29.300781 5.7363281 z M 4.0332031 24.945312 A 20 20 0 0 0 4.6308594 28.917969 C 5.1440531 29.076347 5.3254384 28.929955 5.390625 28.345703 C 5.429525 27.996703 5.611675 27.601844 5.796875 27.464844 C 6.082975 27.253844 6.0314125 27.146094 5.4453125 26.746094 C 5.0659125 26.487094 4.6920344 26.035188 4.6152344 25.742188 C 4.5437253 25.469223 4.3046919 25.175749 4.0332031 24.945312 z M 10.298828 31.525391 C 10.111828 31.506391 9.8867188 31.605703 9.6367188 31.845703 C 9.1078187 32.351703 9.1877094 33.369484 9.7871094 33.771484 C 10.474009 34.232484 10.739172 34.098047 10.826172 33.248047 C 10.933172 32.200047 10.708828 31.568391 10.298828 31.525391 z M 13.693359 34.548828 C 13.489359 34.555828 13.264062 34.701766 13.039062 35.009766 C 12.800062 35.335766 12.735172 35.757484 12.826172 36.396484 C 12.939172 37.182484 12.889516 37.349547 12.478516 37.560547 C 11.949516 37.830547 11.836531 38.634828 12.269531 39.048828 C 12.699531 39.460828 13.109812 39.353062 13.257812 38.789062 C 13.467813 37.985062 14.645219 37.891281 15.449219 38.613281 C 15.792219 38.921281 16.072266 39.076984 16.072266 38.958984 C 16.072266 38.840984 15.715297 38.411812 15.279297 38.007812 C 14.612297 37.387813 14.488281 37.124172 14.488281 36.326172 C 14.488281 35.200172 14.143359 34.534828 13.693359 34.548828 z M 14.859375 40.201172 C 14.758375 40.236172 14.714844 40.362937 14.714844 40.585938 C 14.714844 40.811937 14.570531 41.049281 14.394531 41.113281 C 14.277531 41.156281 14.205328 41.244922 14.173828 41.404297 A 20 20 0 0 0 15.197266 41.931641 C 15.227637 41.820757 15.24377 41.721727 15.287109 41.599609 C 15.594109 40.733609 15.605469 40.517234 15.355469 40.365234 C 15.121469 40.223234 14.961375 40.166172 14.859375 40.201172 z "
     id="path4500" />
  <path
     opacity=".2"
     d="m22.111 4.1074a20 20 0 0 0 -7.238 2.0996c0.101 0.3201-0.017 0.6812-0.385 1-0.249 0.2158-0.453 0.5519-0.453 0.7481 0 0.5997 0.542 1.5205 0.975 1.6543 0.575 0.178 0.382 0.7916-0.358 1.1306-0.342 0.157-0.763 0.609-0.935 1.004-0.173 0.396-0.427 0.786-0.565 0.867-0.137 0.082-0.25 0.391-0.25 0.688 0 0.415 0.19 0.616 0.813 0.865 0.446 0.179 0.98 0.309 1.187 0.289 1.191-0.112 1.274 0.582 0.233 1.938-0.553 0.72-0.819 0.901-1.196 0.81-0.351-0.084-0.543 0.015-0.703 0.363-0.168 0.369-0.444 0.494-1.185 0.545-0.729 0.051-1.055 0.199-1.328 0.598-0.2 0.291-0.488 0.527-0.641 0.527-0.1534 0-0.5136 0.196-0.8008 0.434-0.5844 0.485-0.8126 0.534-1.0175 0.217-0.2708-0.42-0.8551-0.208-1.7246 0.625-0.769 0.736-0.8621 0.933-0.7461 1.572 0.2064 1.137 0.8231 2.146 1.5273 2.498 0.6145 0.307 0.6265 0.34 0.2539 0.734-0.2143 0.227-0.582 0.47-0.8164 0.541-0.677 0.206-0.2959 0.464 0.9121 0.618 1.2364 0.157 1.6206 0.605 1.043 1.216-0.3221 0.341-0.304 0.405 0.2129 0.729 1.01 0.634 1.8132 0.246 0.8652-0.418-0.6093-0.427-0.1832-0.601 0.711-0.291 0.713 0.247 0.854 0.233 1.275-0.133 0.865-0.749 1.805 0.359 1.014 1.195-0.503 0.533-0.351 1.175 0.301 1.264 0.288 0.039 0.886 0.307 1.33 0.596 0.444 0.288 0.928 0.525 1.074 0.525s0.558 0.293 0.916 0.651c0.726 0.725 1.129 0.817 1.334 0.306 0.246-0.614 0.147-0.931-0.516-1.654-0.527-0.576-1.384-2.106-1.384-2.473 0-0.226 0.871-0.034 1.359 0.299 0.305 0.209 0.799 0.478 1.098 0.6 0.318 0.13 0.648 0.534 0.799 0.976 0.235 0.694 0.328 0.754 1.16 0.754h0.904l0.137 1.625c0.164 1.955 0.321 2.351 0.992 2.512 0.494 0.119 1.021 0.884 1.021 1.482 0 0.159-0.355 0.549-0.789 0.866-0.538 0.393-0.77 0.727-0.734 1.054 0.045 0.409-0.048 0.473-0.627 0.43-0.373-0.028-1.021 0.103-1.437 0.291-0.493 0.222-1.027 0.293-1.528 0.203-0.576-0.103-0.771-0.063-0.771 0.162 0 0.166-0.202 0.476-0.448 0.69-0.608 0.527-0.357 0.806 0.577 0.638 0.58-0.104 0.806-0.058 0.906 0.192 0.213 0.531-0.327 1.291-0.828 1.166-0.318-0.08-0.47 0.029-0.569 0.404-0.034 0.133-0.097 0.246-0.172 0.342a20 20 0 0 0 3.165 0.935c-0.1-0.191-0.214-0.365-0.325-0.443-0.515-0.364-0.17-1.31 0.539-1.48 0.723-0.174 0.609-0.643-0.177-0.733-0.689-0.078-1.422-0.776-1.192-1.133 0.155-0.239 0.814-0.204 2.147 0.112 0.602 0.142 1.013-0.144 2.408-1.67 0.807-0.884 1.428-1.252 2.109-1.252 0.26 0 1.187-0.239 2.061-0.531 1.65-0.553 2.295-0.533 2.234 0.07-0.126 1.254 0.681 1.212 1.996-0.102 0.548-0.547 1.049-0.943 1.114-0.881 0.251 0.241-0.201 1.414-0.729 1.889-0.669 0.602-0.702 0.982-0.113 1.283 0.322 0.166 0.459 0.501 0.51 1.254l0.068 1.028h0.836c0.293 0 0.536 0.04 0.732 0.115a20 20 0 0 0 9.69 -16.506c-0.306-0.654-0.284-1.049 0-1.494a20 20 0 0 0 -0.09 -1.121c-0.182-0.009-0.368-0.017-0.582-0.008-1.008 0.042-1.871-0.355-1.871-0.861 0-0.107-0.358-0.548-0.795-0.979-0.496-0.488-0.75-0.92-0.676-1.144 0.068-0.204-0.078-0.533-0.336-0.756-0.251-0.218-0.457-0.568-0.457-0.778 0-0.335-0.213-0.377-1.754-0.34l-1.754 0.043 0.03 1.729c0.052 3.028 0.503 3.814 1.894 3.307 0.637-0.233 2.202-0.057 2.647 0.296 0.161 0.128 0.394 0.592 0.517 1.032 0.124 0.439 0.582 1.2 1.02 1.689 0.886 0.992 0.955 1.379 0.447 2.543-0.443 1.016-0.921 0.899-0.826-0.203l0.07-0.82-0.75 0.14c-0.415 0.079-0.935 0.385-1.168 0.688-0.332 0.431-0.487 0.494-0.736 0.297-0.174-0.138-0.315-0.429-0.315-0.645s-0.214-0.456-0.474-0.535c-0.261-0.079-0.618-0.472-0.793-0.875-0.281-0.644-0.274-0.841 0.053-1.623 0.331-0.793 0.334-0.924 0.029-1.217-0.28-0.268-0.425-0.277-0.793-0.056-0.37 0.221-0.545 0.205-0.985-0.09-0.293-0.197-0.806-0.36-1.138-0.36-0.675 0-0.879-0.328-0.879-1.414 0-1.003-0.598-1.367-2.022-1.236-0.988 0.091-1.206 0.026-2.003-0.588-0.493-0.379-1.271-1.291-1.731-2.029s-0.955-1.509-1.1-1.713c-0.208-0.295-0.157-0.578 0.25-1.381l0.514-1.01-1.086 0.147c-1.932 0.261-2.323 0.511-1.492 0.957 0.324 0.173 0.338 0.262 0.088 0.551-0.164 0.188-0.241 0.487-0.17 0.664 0.071 0.176-0.019 0.592-0.199 0.923-0.181 0.332-0.332 0.797-0.338 1.036-0.019 0.745-1.295 1.338-2.717 1.259-2.154-0.119-2.329-0.085-3.094 0.625-0.956 0.888-1.079 1.301-0.634 2.125 0.431 0.8 1.197 1.119 2.523 1.053 1.186-0.059 1.32 0.046 1.049 0.83-0.231 0.666-1.005 0.922-1.53 0.506-0.404-0.321-1.797-0.073-2.224 0.397-0.179 0.196-0.445 0.712-0.59 1.144-0.25 0.746-0.323 0.792-1.443 0.9-1.118 0.109-1.226 0.073-2.03-0.668-0.897-0.826-1.049-1.458-0.617-2.546 0.192-0.482 0.334-0.561 0.846-0.467 1.014 0.185 1.414-0.167 1.414-1.25 0-0.525-0.102-1.016-0.227-1.09-0.124-0.074-0.226-0.352-0.226-0.619s-0.128-0.611-0.283-0.762c-0.227-0.22-0.194-0.338 0.168-0.594 0.248-0.175 0.656-0.293 0.906-0.263 0.249 0.03 0.938-0.078 1.531-0.239 0.857-0.231 1.109-0.406 1.225-0.857 0.22-0.856 0.757-1.543 1.207-1.543 0.711 0 0.726-1.672 0.035-4.104-0.102-0.359-0.383-0.587-0.879-0.71-0.402-0.1-0.839-0.374-0.971-0.6098-0.131-0.2358-0.372-0.4278-0.535-0.4278s-0.482-0.1952-0.707-0.4336c-0.227-0.24-0.696-0.4336-1.053-0.4336-0.845 0-0.859-0.5818-0.021-0.8886 0.885-0.3244 2.263 0.1008 2.596 0.8007 0.451 0.9491 0.952 0.5531 1.113-0.8808 0.199-1.7735 0.811-2.2832 2.74-2.2832h1.387l-0.608-0.6074c-0.189-0.1896-0.346-0.4213-0.455-0.6485zm7.19 0.6289c-0.039 0.0352-0.077 0.064-0.115 0.1035-0.464 0.4736-0.682 0.5411-1.399 0.4317-1.252-0.1909-1.091 0.3132 0.295 0.9219 0.749 0.3291 1.231 0.7043 1.395 1.0839 0.79 1.8316 1.334 2.8177 1.607 2.9177 0.552 0.203 0.881-0.2044 1.004-1.2458 0.141-1.1948 0.545-1.4481 1.271-0.7949 0.282 0.2535 0.676 0.4609 0.875 0.4609 0.621 0 1.08 0.2493 1.08 0.586 0 0.1774 0.21 0.6049 0.467 0.9508 0.379 0.509 0.636 0.631 1.344 0.631 0.869 0 1.402 0.163 2.49 0.764 0.017 0.009 0.034 0.012 0.051 0.021a20 20 0 0 0 -10.365 -6.8317zm-25.297 19.178a20 20 0 0 0 -0.0039 0.086 20 20 0 0 0 0.3906 3.842c0.7246 0.295 0.9248 0.178 1-0.496 0.0389-0.349 0.2211-0.744 0.4063-0.881 0.2861-0.211 0.2345-0.319-0.3516-0.719-0.3794-0.259-0.7533-0.711-0.8301-1.004-0.0744-0.284-0.326-0.594-0.6113-0.828zm6.2951 6.611c-0.187-0.019-0.4123 0.081-0.6623 0.321-0.5289 0.506-0.449 1.523 0.1504 1.925 0.6869 0.461 0.9519 0.327 1.0389-0.523 0.107-1.048-0.117-1.68-0.527-1.723zm3.394 3.024c-0.204 0.007-0.429 0.153-0.654 0.461-0.239 0.326-0.304 0.747-0.213 1.386 0.113 0.786 0.064 0.954-0.347 1.165-0.529 0.27-0.642 1.074-0.209 1.488 0.43 0.412 0.84 0.304 0.988-0.26 0.21-0.804 1.387-0.898 2.191-0.176 0.343 0.308 0.623 0.464 0.623 0.346s-0.357-0.547-0.793-0.951c-0.667-0.62-0.791-0.884-0.791-1.682 0-1.126-0.345-1.791-0.795-1.777zm-5.5739 2.582a20 20 0 0 0 0.4629 0.584c-0.1363-0.211-0.2919-0.413-0.4629-0.584zm6.7399 3.07c-0.101 0.035-0.144 0.162-0.144 0.385 0 0.226-0.144 0.463-0.32 0.527-0.234 0.086-0.288 0.357-0.198 1.004 0.017 0.121 0.022 0.218 0.028 0.319a20 20 0 0 0 0.832 0.427c-0.014-0.346 0.049-0.753 0.23-1.263 0.307-0.866 0.318-1.083 0.068-1.235-0.234-0.142-0.394-0.199-0.496-0.164z"
     id="path9"
     style="fill:#f78787;fill-opacity:1;opacity:1" />
  <circle
     opacity="0"
     style="color:#000000"
     stroke-width=".455"
     clip-path="url(#clipPath4186)"
     transform="matrix(2,0,0,2,-548,-28)"
     cy="26"
     cx="286"
     r="10"
     id="circle11" />
  <circle
     opacity="0"
     style="color:#000000"
     stroke-width=".909"
     clip-path="url(#clipPath4186)"
     transform="matrix(2,0,0,2,-548,-28)"
     cy="26"
     cx="286"
     r="10"
     id="circle13" />
  <path
     opacity=".2"
     d="m24 4c-11.079 0-19.998 8.92-19.998 20 0 0.16772-0.004 0.33329 0 0.5 0.2642-10.846 9.087-19.5 19.998-19.5s19.734 8.6536 19.998 19.5c0.004-0.16671 0-0.33228 0-0.5 0-11.08-8.919-20-19.998-20z"
     fill="#fff"
     id="path15" />
  <path
     style="fill:#ffffff;fill-opacity:1;opacity:0.1"
     d="M 22.111328 4.1074219 A 20 20 0 0 0 14.873047 6.2070312 C 14.974047 6.5271313 14.856281 6.8882313 14.488281 7.2070312 C 14.239281 7.4228312 14.035156 7.7588781 14.035156 7.9550781 C 14.035156 8.1412517 14.0986 8.3554 14.183594 8.5703125 C 14.264599 8.4410386 14.369663 8.3098338 14.488281 8.2070312 C 14.856281 7.8882312 14.974047 7.5271313 14.873047 7.2070312 A 20 20 0 0 1 22.111328 5.1074219 C 22.152531 5.1933055 22.205709 5.2786286 22.259766 5.3632812 L 23.173828 5.3632812 L 22.566406 4.7558594 C 22.377406 4.5662594 22.220328 4.3346219 22.111328 4.1074219 z M 29.300781 4.7363281 C 29.261781 4.7715281 29.223547 4.8003437 29.185547 4.8398438 C 28.721547 5.3134438 28.504109 5.3808844 27.787109 5.2714844 C 26.535109 5.0805844 26.696031 5.5846594 28.082031 6.1933594 C 28.166209 6.2303458 28.23514 6.2685488 28.3125 6.3066406 C 28.650188 6.2938949 28.861584 6.1705092 29.185547 5.8398438 C 29.223547 5.8003437 29.261781 5.7715281 29.300781 5.7363281 A 20 20 0 0 1 38.179688 10.916016 C 38.589264 11.027543 39.018912 11.217472 39.615234 11.546875 C 39.632234 11.555875 39.649016 11.559359 39.666016 11.568359 A 20 20 0 0 0 29.300781 4.7363281 z M 15.646484 8.6503906 C 15.539627 8.668562 15.434922 8.6909951 15.337891 8.7265625 C 14.499891 9.0333625 14.514375 9.6152344 15.359375 9.6152344 C 15.716375 9.6152344 16.185109 9.8088281 16.412109 10.048828 C 16.637109 10.287228 16.956141 10.482422 17.119141 10.482422 C 17.282141 10.482422 17.523297 10.674356 17.654297 10.910156 C 17.786297 11.145956 18.223 11.419531 18.625 11.519531 C 19.121 11.642531 19.401906 11.871469 19.503906 12.230469 C 19.760872 13.13487 19.920209 13.932781 19.982422 14.580078 C 20.074174 13.865143 19.91864 12.690139 19.503906 11.230469 C 19.401906 10.871469 19.121 10.642531 18.625 10.519531 C 18.223 10.419531 17.786297 10.145956 17.654297 9.9101562 C 17.523297 9.6743563 17.282141 9.4824219 17.119141 9.4824219 C 16.956141 9.4824219 16.637109 9.2872281 16.412109 9.0488281 C 16.242661 8.8696753 15.938381 8.7166064 15.646484 8.6503906 z M 14.919922 10.564453 C 14.834704 10.624781 14.76256 10.689743 14.652344 10.740234 C 14.310344 10.897234 13.888797 11.349141 13.716797 11.744141 C 13.543797 12.140141 13.290344 12.530328 13.152344 12.611328 C 13.015344 12.693328 12.902344 13.001828 12.902344 13.298828 C 12.902344 13.480391 12.947932 13.616701 13.041016 13.738281 C 13.074716 13.681563 13.112333 13.635276 13.152344 13.611328 C 13.290344 13.530328 13.543797 13.140141 13.716797 12.744141 C 13.888797 12.349141 14.310344 11.897234 14.652344 11.740234 C 15.392344 11.401234 15.584766 10.787375 15.009766 10.609375 C 14.980544 10.600345 14.949936 10.580311 14.919922 10.564453 z M 27.412109 13.115234 L 26.326172 13.261719 C 24.394172 13.522719 24.002984 13.77275 24.833984 14.21875 C 25.016103 14.315992 25.089586 14.389776 25.083984 14.484375 C 25.390526 14.408254 25.783774 14.334993 26.326172 14.261719 L 26.869141 14.189453 C 26.881153 14.165388 26.885735 14.150062 26.898438 14.125 L 27.412109 13.115234 z M 24.740234 15.160156 C 24.722049 15.260825 24.721982 15.358878 24.751953 15.433594 C 24.822953 15.609594 24.732734 16.026422 24.552734 16.357422 C 24.371734 16.689422 24.220844 17.153578 24.214844 17.392578 C 24.195844 18.137578 22.920047 18.731344 21.498047 18.652344 C 19.344047 18.533344 19.169297 18.567344 18.404297 19.277344 C 17.564316 20.057577 17.395676 20.484997 17.662109 21.132812 C 17.799355 20.883923 18.040994 20.614805 18.404297 20.277344 C 19.169297 19.567344 19.344047 19.533344 21.498047 19.652344 C 22.920047 19.731344 24.195844 19.137578 24.214844 18.392578 C 24.220844 18.153578 24.371734 17.689422 24.552734 17.357422 C 24.732734 17.026422 24.822953 16.609594 24.751953 16.433594 C 24.680953 16.256594 24.757875 15.957531 24.921875 15.769531 C 25.171875 15.480531 25.157984 15.39175 24.833984 15.21875 C 24.795597 15.198148 24.773375 15.179943 24.740234 15.160156 z M 26.689453 15.570312 C 26.488066 16.042137 26.485545 16.274834 26.648438 16.505859 C 26.793437 16.709859 27.288047 17.48075 27.748047 18.21875 C 28.208047 18.95675 28.985516 19.869047 29.478516 20.248047 C 30.275516 20.862047 30.494422 20.926938 31.482422 20.835938 C 32.906422 20.704938 33.503906 21.069266 33.503906 22.072266 C 33.503906 23.158266 33.707813 23.486328 34.382812 23.486328 C 34.714813 23.486328 35.228484 23.648703 35.521484 23.845703 C 35.961484 24.140703 36.135859 24.156547 36.505859 23.935547 C 36.873859 23.714547 37.018828 23.724187 37.298828 23.992188 C 37.315699 24.008395 37.320955 24.021754 37.335938 24.037109 C 37.498827 23.630117 37.547599 23.412678 37.482422 23.25 C 36.931936 23.430914 36.538665 23.380458 36.261719 23.054688 C 36.034107 23.131464 35.853225 23.06812 35.521484 22.845703 C 35.228484 22.648703 34.714813 22.486328 34.382812 22.486328 C 33.707813 22.486328 33.503906 22.158266 33.503906 21.072266 C 33.503906 20.069266 32.906422 19.704938 31.482422 19.835938 C 30.494422 19.926938 30.275516 19.862047 29.478516 19.248047 C 28.985516 18.869047 28.208047 17.95675 27.748047 17.21875 C 27.305312 16.508449 26.853776 15.806807 26.689453 15.570312 z M 15.662109 15.574219 C 15.541443 15.812434 15.371516 16.082236 15.134766 16.390625 C 14.581766 17.110625 14.316453 17.292172 13.939453 17.201172 C 13.588453 17.117172 13.396328 17.216453 13.236328 17.564453 C 13.068328 17.933453 12.791781 18.058375 12.050781 18.109375 C 11.321781 18.160375 10.995656 18.308031 10.722656 18.707031 C 10.522656 18.998031 10.235031 19.234375 10.082031 19.234375 C 9.9286313 19.234375 9.56845 19.429969 9.28125 19.667969 C 8.69685 20.152969 8.4685719 20.201766 8.2636719 19.884766 C 7.9928719 19.464766 7.4085625 19.676766 6.5390625 20.509766 C 5.7700625 21.245766 5.6769688 21.443031 5.7929688 22.082031 C 5.806845 22.158472 5.8360285 22.227612 5.8535156 22.302734 C 5.9628677 22.08945 6.1701758 21.862822 6.5390625 21.509766 C 7.4085625 20.676766 7.9928719 20.464766 8.2636719 20.884766 C 8.4685719 21.201766 8.69685 21.152969 9.28125 20.667969 C 9.56845 20.429969 9.9286313 20.234375 10.082031 20.234375 C 10.235031 20.234375 10.522656 19.998031 10.722656 19.707031 C 10.995656 19.308031 11.321781 19.160375 12.050781 19.109375 C 12.791781 19.058375 13.068328 18.933453 13.236328 18.564453 C 13.396328 18.216453 13.588453 18.117172 13.939453 18.201172 C 14.316453 18.292172 14.581766 18.110625 15.134766 17.390625 C 15.863598 16.441253 16.029706 15.825177 15.662109 15.574219 z M 38.332031 17.136719 C 38.095359 17.13275 37.793453 17.137234 37.408203 17.146484 L 35.654297 17.189453 L 35.671875 18.189453 L 37.408203 18.146484 C 38.949203 18.109484 39.162109 18.151328 39.162109 18.486328 C 39.162109 18.696328 39.368141 19.045672 39.619141 19.263672 C 39.877141 19.486672 40.023078 19.815531 39.955078 20.019531 C 39.881078 20.243531 40.134859 20.676063 40.630859 21.164062 C 41.067859 21.595062 41.425781 22.035578 41.425781 22.142578 C 41.425781 22.648578 42.288875 23.045906 43.296875 23.003906 C 43.510875 22.994906 43.696906 23.002719 43.878906 23.011719 A 20 20 0 0 1 43.900391 23.273438 C 43.924579 23.226894 43.938561 23.180115 43.96875 23.132812 A 20 20 0 0 0 43.878906 22.011719 C 43.696906 22.002719 43.510875 21.994906 43.296875 22.003906 C 42.288875 22.045906 41.425781 21.648578 41.425781 21.142578 C 41.425781 21.035578 41.067859 20.595062 40.630859 20.164062 C 40.134859 19.676063 39.881078 19.243531 39.955078 19.019531 C 40.023078 18.815531 39.877141 18.486672 39.619141 18.263672 C 39.368141 18.045672 39.162109 17.696328 39.162109 17.486328 C 39.162109 17.235078 39.042047 17.148625 38.332031 17.136719 z M 14.640625 19.216797 C 14.628704 19.224518 14.610897 19.228363 14.599609 19.236328 C 14.237609 19.492328 14.204641 19.610078 14.431641 19.830078 C 14.586641 19.981078 14.714844 20.324797 14.714844 20.591797 C 14.714844 20.858797 14.817406 21.136937 14.941406 21.210938 C 15.017915 21.256231 15.076026 21.476181 15.117188 21.746094 C 15.139716 21.606798 15.167969 21.478655 15.167969 21.300781 C 15.167969 20.775781 15.066406 20.284938 14.941406 20.210938 C 14.817406 20.136937 14.714844 19.858797 14.714844 19.591797 C 14.714844 19.473682 14.68198 19.341674 14.640625 19.216797 z M 21.242188 23.496094 C 20.936812 23.999922 20.277491 24.159466 19.8125 23.791016 C 19.4085 23.470016 18.014891 23.7175 17.587891 24.1875 C 17.408891 24.3835 17.143047 24.900031 16.998047 25.332031 C 16.748047 26.078031 16.674687 26.124422 15.554688 26.232422 C 14.436687 26.341422 14.329391 26.305453 13.525391 25.564453 C 13.12615 25.196814 12.881939 24.865666 12.763672 24.517578 C 12.572448 25.309158 12.779922 25.87799 13.525391 26.564453 C 14.329391 27.305453 14.436687 27.341422 15.554688 27.232422 C 16.674687 27.124422 16.748047 27.078031 16.998047 26.332031 C 17.143047 25.900031 17.408891 25.3835 17.587891 25.1875 C 18.014891 24.7175 19.4085 24.470016 19.8125 24.791016 C 20.3375 25.207016 21.110797 24.951156 21.341797 24.285156 C 21.505342 23.812021 21.515848 23.587839 21.242188 23.496094 z M 4.0039062 23.914062 A 20 20 0 0 0 4 24 A 20 20 0 0 0 4.0527344 24.964844 C 4.315218 25.192592 4.5455897 25.476339 4.6152344 25.742188 C 4.6920344 26.035188 5.0659125 26.487094 5.4453125 26.746094 C 5.4872339 26.774704 5.5064443 26.792592 5.5429688 26.818359 C 5.6158602 26.662613 5.7059128 26.532132 5.796875 26.464844 C 6.082975 26.253844 6.0314125 26.146094 5.4453125 25.746094 C 5.0659125 25.487094 4.6920344 25.035188 4.6152344 24.742188 C 4.5408344 24.458188 4.2892063 24.148062 4.0039062 23.914062 z M 43.863281 24.347656 C 43.717898 24.6701 43.724099 25.002267 43.902344 25.449219 A 20 20 0 0 0 43.96875 24.626953 C 43.920947 24.524785 43.895327 24.438361 43.863281 24.347656 z M 7.28125 25.554688 C 7.0985282 25.690081 6.9064359 25.810451 6.7578125 25.855469 C 6.1347508 26.045056 6.4425005 26.273617 7.4316406 26.429688 C 7.4776123 26.389535 7.5362741 26.354646 7.5742188 26.314453 C 7.9468188 25.920453 7.9348125 25.887078 7.3203125 25.580078 C 7.3069214 25.573384 7.2945756 25.561853 7.28125 25.554688 z M 37.125 25.589844 C 36.960265 26.068966 36.990202 26.312718 37.216797 26.832031 C 37.391797 27.235031 37.748766 27.628031 38.009766 27.707031 C 38.269766 27.786031 38.484375 28.026187 38.484375 28.242188 C 38.484375 28.458188 38.624828 28.748719 38.798828 28.886719 C 39.047828 29.083719 39.203156 29.020844 39.535156 28.589844 C 39.768156 28.286844 40.288125 27.981344 40.703125 27.902344 L 41.376953 27.775391 C 41.378414 27.711425 41.376559 27.654577 41.382812 27.582031 L 41.453125 26.761719 L 40.703125 26.902344 C 40.288125 26.981344 39.768156 27.286844 39.535156 27.589844 C 39.203156 28.020844 39.047828 28.083719 38.798828 27.886719 C 38.624828 27.748719 38.484375 27.458188 38.484375 27.242188 C 38.484375 27.026187 38.269766 26.786031 38.009766 26.707031 C 37.748766 26.628031 37.391797 26.235031 37.216797 25.832031 C 37.175854 25.738197 37.153616 25.66789 37.125 25.589844 z M 42.427734 27.179688 C 42.374185 27.362759 42.311573 27.550091 42.208984 27.785156 C 41.879231 28.541429 41.531841 28.66674 41.414062 28.228516 L 41.382812 28.582031 C 41.287812 29.684031 41.765984 29.801156 42.208984 28.785156 C 42.525527 28.059849 42.617325 27.635978 42.427734 27.179688 z M 8.6621094 27.75 C 8.4133762 28.027591 8.4494288 28.117186 8.9082031 28.40625 C 9.0369222 28.140542 8.9544013 27.917363 8.6621094 27.75 z M 9.9277344 28.564453 C 9.6585545 28.528931 9.5129228 28.575404 9.515625 28.679688 C 9.8367722 28.768926 10.076603 28.740395 10.166016 28.625 C 10.088663 28.606999 9.9925778 28.57301 9.9277344 28.564453 z M 12.912109 28.59375 C 12.873413 28.653343 12.845611 28.713783 12.791016 28.771484 C 12.411021 29.174142 12.406219 29.637253 12.707031 29.878906 C 12.734634 29.842858 12.757717 29.80677 12.791016 29.771484 C 13.181055 29.359255 13.147308 28.882996 12.912109 28.59375 z M 15.990234 28.890625 C 15.900953 28.899203 15.845703 28.929828 15.845703 28.986328 C 15.845703 29.353328 16.703469 30.882984 17.230469 31.458984 C 17.48139 31.732613 17.627291 31.941287 17.728516 32.136719 C 17.733235 32.126026 17.741568 32.124562 17.746094 32.113281 C 17.992094 31.499281 17.893469 31.181984 17.230469 30.458984 C 16.923591 30.123574 16.520907 29.47844 16.224609 28.914062 C 16.139922 28.901689 16.049755 28.884906 15.990234 28.890625 z M 10.298828 30.525391 C 10.111828 30.506391 9.8867187 30.605703 9.6367188 30.845703 C 9.2746815 31.192065 9.20298 31.776152 9.3828125 32.240234 C 9.441165 32.093549 9.521771 31.955674 9.6367188 31.845703 C 9.8867188 31.605703 10.111828 31.506391 10.298828 31.525391 C 10.565426 31.553351 10.741099 31.851611 10.810547 32.330078 C 10.814666 32.298023 10.822652 32.282438 10.826172 32.248047 C 10.933172 31.200047 10.708828 30.568391 10.298828 30.525391 z M 13.693359 33.548828 C 13.489359 33.555828 13.264063 33.701766 13.039062 34.009766 C 12.800062 34.335766 12.735172 34.757484 12.826172 35.396484 C 12.831414 35.432947 12.831413 35.45246 12.835938 35.486328 C 12.876276 35.306928 12.938747 35.146597 13.039062 35.009766 C 13.264062 34.701766 13.489359 34.555828 13.693359 34.548828 C 14.143359 34.534828 14.488281 35.200172 14.488281 36.326172 C 14.488281 36.697691 14.521152 36.949846 14.617188 37.179688 C 14.903512 37.248203 15.195108 37.385087 15.449219 37.613281 C 15.792219 37.921281 16.072266 38.076984 16.072266 37.958984 C 16.072266 37.840984 15.715297 37.411812 15.279297 37.007812 C 14.612297 36.387813 14.488281 36.124172 14.488281 35.326172 C 14.488281 34.200172 14.143359 33.534828 13.693359 33.548828 z M 8.1191406 36.130859 A 20 20 0 0 0 8.5820312 36.714844 C 8.4457312 36.503844 8.2901406 36.301859 8.1191406 36.130859 z M 12.814453 36.253906 C 12.755607 36.380877 12.654909 36.46999 12.478516 36.560547 C 12.009396 36.799984 11.870639 37.457642 12.146484 37.892578 C 12.226402 37.755705 12.332166 37.635243 12.478516 37.560547 C 12.889516 37.349547 12.939172 37.182484 12.826172 36.396484 C 12.818827 36.344912 12.819756 36.302703 12.814453 36.253906 z M 23.119141 36.5625 C 22.974138 36.730851 22.766938 36.924606 22.527344 37.099609 C 21.989344 37.492609 21.756969 37.827297 21.792969 38.154297 C 21.837969 38.563297 21.745016 38.626984 21.166016 38.583984 C 20.793016 38.555984 20.144516 38.687 19.728516 38.875 C 19.235516 39.097 18.702172 39.168125 18.201172 39.078125 C 17.625172 38.975125 17.429688 39.015234 17.429688 39.240234 C 17.429688 39.406234 17.228422 39.715688 16.982422 39.929688 C 16.449623 40.391505 16.609283 40.642834 17.277344 40.589844 C 17.368188 40.455892 17.429688 40.32871 17.429688 40.240234 C 17.429688 40.015234 17.625172 39.975125 18.201172 40.078125 C 18.426377 40.118581 18.658806 40.121355 18.890625 40.097656 C 18.857602 39.99511 18.855103 39.897748 18.90625 39.818359 C 19.021206 39.641105 19.417497 39.617114 20.15625 39.744141 C 20.516482 39.640496 20.901563 39.564133 21.166016 39.583984 C 21.745016 39.626984 21.837969 39.563297 21.792969 39.154297 C 21.756969 38.827297 21.989344 38.492609 22.527344 38.099609 C 22.961344 37.782609 23.316406 37.393375 23.316406 37.234375 C 23.316406 37.01738 23.231167 36.784629 23.119141 36.5625 z M 32.974609 36.564453 C 32.954799 36.545557 32.884717 36.579221 32.794922 36.636719 C 32.647627 36.95011 32.460143 37.260562 32.246094 37.453125 C 31.622619 38.014159 31.574956 38.378767 32.044922 38.669922 C 32.110915 38.598135 32.158152 38.532259 32.246094 38.453125 C 32.774094 37.978125 33.225609 36.805453 32.974609 36.564453 z M 8.1191406 37.130859 C 8.2901406 37.301859 8.4457312 37.503844 8.5820312 37.714844 A 20 20 0 0 1 8.1191406 37.130859 z M 14.859375 39.201172 C 14.758375 39.236172 14.714844 39.362937 14.714844 39.585938 C 14.714844 39.811937 14.570531 40.049281 14.394531 40.113281 C 14.160531 40.199281 14.107266 40.470187 14.197266 41.117188 C 14.207483 41.18991 14.20852 41.247131 14.212891 41.308594 C 14.251937 41.214729 14.307039 41.145437 14.394531 41.113281 C 14.570531 41.049281 14.714844 40.811937 14.714844 40.585938 C 14.714844 40.362937 14.758375 40.236172 14.859375 40.201172 C 14.961375 40.166172 15.121469 40.223234 15.355469 40.365234 C 15.358166 40.366875 15.358691 40.369438 15.361328 40.371094 C 15.579818 39.714536 15.578897 39.501079 15.355469 39.365234 C 15.121469 39.223234 14.961375 39.166172 14.859375 39.201172 z M 19.419922 40.671875 C 19.153454 40.67278 18.972889 40.715606 18.90625 40.818359 C 18.700047 41.138422 19.27051 41.709035 19.886719 41.884766 C 19.99858 41.793825 20.127193 41.719128 20.275391 41.683594 C 20.998391 41.509594 20.883656 41.041172 20.097656 40.951172 C 19.857921 40.924032 19.627891 40.808656 19.419922 40.671875 z M 18.318359 41.589844 C 18.147359 41.830594 17.887219 41.988281 17.636719 41.925781 C 17.318719 41.845781 17.167359 41.955078 17.068359 42.330078 C 17.034359 42.463078 16.971484 42.575875 16.896484 42.671875 A 20 20 0 0 0 17.666016 42.927734 C 18.158419 43.016778 18.673679 42.280384 18.464844 41.759766 C 18.433358 41.681052 18.381943 41.629796 18.318359 41.589844 z M 19.679688 43.103516 C 19.598263 43.219897 19.546068 43.347031 19.517578 43.476562 A 20 20 0 0 0 20.060547 43.607422 C 19.960547 43.416422 19.847328 43.242062 19.736328 43.164062 C 19.71248 43.147207 19.699896 43.122732 19.679688 43.103516 z "
     id="path4505" />
</svg>
