<?xml version="1.0" encoding="UTF-8" standalone="no"?>
<svg
   xmlns:dc="http://purl.org/dc/elements/1.1/"
   xmlns:cc="http://creativecommons.org/ns#"
   xmlns:rdf="http://www.w3.org/1999/02/22-rdf-syntax-ns#"
   xmlns:svg="http://www.w3.org/2000/svg"
   xmlns="http://www.w3.org/2000/svg"
   xmlns:sodipodi="http://sodipodi.sourceforge.net/DTD/sodipodi-0.dtd"
   xmlns:inkscape="http://www.inkscape.org/namespaces/inkscape"
   height="48"
   width="48"
   version="1"
   id="svg12"
   sodipodi:docname="browser-orbitum.svg"
   inkscape:version="0.92.1 r15371">
  <metadata
     id="metadata18">
    <rdf:RDF>
      <cc:Work
         rdf:about="">
        <dc:format>image/svg+xml</dc:format>
        <dc:type
           rdf:resource="http://purl.org/dc/dcmitype/StillImage" />
        <dc:title></dc:title>
      </cc:Work>
    </rdf:RDF>
  </metadata>
  <defs
     id="defs16">
    <style
       id="current-color-scheme"
       type="text/css">
   .ColorScheme-Text { color:#5c616c; } .ColorScheme-Highlight { color:#5294e2; } .ColorScheme-ButtonBackground { color:#d3dae3; }
  </style>
    <style
       id="current-color-scheme-3"
       type="text/css">
   .ColorScheme-Text { color:#5c616c; } .ColorScheme-Highlight { color:#5294e2; } .ColorScheme-ButtonBackground { color:#d3dae3; }
  </style>
    <style
       id="current-color-scheme-6"
       type="text/css">
   .ColorScheme-Text { color:#5c616c; } .ColorScheme-Highlight { color:#5294e2; } .ColorScheme-ButtonBackground { color:#d3dae3; }
  </style>
    <style
       id="current-color-scheme-7"
       type="text/css">
   .ColorScheme-Text { color:#5c616c; } .ColorScheme-Highlight { color:#5294e2; } .ColorScheme-ButtonBackground { color:#d3dae3; }
  </style>
  </defs>
  <sodipodi:namedview
     pagecolor="#ffffff"
     bordercolor="#666666"
     borderopacity="1"
     objecttolerance="10"
     gridtolerance="10"
     guidetolerance="10"
     inkscape:pageopacity="0"
     inkscape:pageshadow="2"
     inkscape:window-width="1600"
     inkscape:window-height="822"
     id="namedview14"
     showgrid="false"
     inkscape:zoom="9.95"
     inkscape:cx="0.6543757"
     inkscape:cy="29.094228"
     inkscape:window-x="0"
     inkscape:window-y="0"
     inkscape:window-maximized="1"
     inkscape:current-layer="svg12">
    <inkscape:grid
       type="xygrid"
       id="grid4526" />
  </sodipodi:namedview>
  <path
     style="fill:#297886;fill-opacity:1;stroke-width:1.00005007"
     d="M 24 4 C 24.422256 4 24.84104 4.0154025 25.255859 4.0429688 C 24.839976 4.0173987 24.422541 4 24 4 z M 24 4 C 23.365885 4 22.739792 4.0326788 22.121094 4.0898438 C 22.739997 4.032617 23.365618 4 24 4 z M 25.291016 4.0449219 C 26.530951 4.1296055 27.736975 4.3315083 28.90625 4.625 C 27.737184 4.3317292 26.533055 4.1234464 25.291016 4.0449219 z M 22.021484 4.0976562 C 21.418379 4.1563691 20.824179 4.2447942 20.238281 4.3554688 C 20.82392 4.2447859 21.418607 4.1563957 22.021484 4.0976562 z M 20.113281 4.3769531 C 19.796717 4.4388297 19.490624 4.5269837 19.179688 4.6035156 C 19.490685 4.5269221 19.796641 4.4388766 20.113281 4.3769531 z M 28.927734 4.6308594 C 28.102087 14.941358 19.530089 23 9 23 C 7.2952334 23 5.6501437 22.766842 4.0722656 22.369141 C 4.0291479 22.907584 4 23.450089 4 24 C 4 35.08 12.92 44 24 44 C 35.08 44 44 35.08 44 24 C 44 14.624767 37.605154 6.8179884 28.927734 4.6308594 z M 4.0722656 22.369141 C 4.1238686 21.724734 4.205698 21.088287 4.3164062 20.462891 C 4.2056155 21.088379 4.1238778 21.72462 4.0722656 22.369141 z M 4.3164062 20.462891 C 4.400033 19.990479 4.5168757 19.530457 4.6328125 19.070312 C 4.5167131 19.530704 4.4001309 19.990209 4.3164062 20.462891 z M 18.193359 4.8574219 C 17.905565 4.9440572 17.627793 5.0493954 17.345703 5.1484375 C 17.627487 5.0494338 17.905871 4.9440366 18.193359 4.8574219 z M 16.388672 5.4980469 C 16.104447 5.614527 15.830148 5.7479659 15.552734 5.8769531 C 15.829967 5.7479644 16.104625 5.6145346 16.388672 5.4980469 z M 14.6875 6.2929688 C 14.39973 6.4440546 14.122955 6.6109106 13.84375 6.7753906 C 14.122619 6.6109903 14.400073 6.4439948 14.6875 6.2929688 z M 13.072266 7.2421875 C 12.800687 7.4191867 12.539494 7.609183 12.277344 7.7988281 C 12.539408 7.6090879 12.800766 7.419277 13.072266 7.2421875 z M 11.552734 8.3417969 C 11.300891 8.5419648 11.058091 8.7510026 10.816406 8.9628906 C 11.057578 8.7512753 11.301434 8.5417293 11.552734 8.3417969 z M 10.146484 9.5722656 C 9.9140025 9.7954873 9.6901902 10.025569 9.46875 10.259766 C 9.6899251 10.025654 9.9142805 9.7954165 10.146484 9.5722656 z M 8.875 10.914062 C 8.6505893 11.173451 8.433642 11.438111 8.2226562 11.708984 C 8.4334313 11.438131 8.6508099 11.17344 8.875 10.914062 z M 7.7480469 12.345703 C 7.5346579 12.64334 7.329921 12.94623 7.1328125 13.255859 C 7.3296122 12.946408 7.5349966 12.643184 7.7480469 12.345703 z M 6.7402344 13.900391 C 6.5516417 14.222993 6.3699252 14.548905 6.1992188 14.882812 C 6.3696035 14.549224 6.5520106 14.222703 6.7402344 13.900391 z M 5.875 15.558594 C 5.7112745 15.911004 5.5536255 16.265587 5.4101562 16.628906 C 5.5533676 16.265918 5.7115851 15.9107 5.875 15.558594 z M 5.1796875 17.259766 C 5.0418957 17.646503 4.9092438 18.034184 4.7949219 18.431641 C 4.9090872 18.034436 5.0421013 17.646272 5.1796875 17.259766 z "
     id="rect2" />
  <path
     opacity=".2"
     d="m24 4c-11.079 0-19.998 8.92-19.998 20 0 0.16772-0.004 0.33329 0 0.5 0.2642-10.846 9.087-19.5 19.998-19.5s19.734 8.6536 19.998 19.5c0.004-0.16671 0-0.33228 0-0.5 0-11.08-8.919-20-19.998-20z"
     fill="#fff"
     id="path8"
     style="opacity:0.2" />
  <path
     opacity=".2"
     d="m4.0117 24.5c-0.0041 0.167-0.0117 0.332-0.0117 0.5 0 11.08 8.92 20 20 20s20-8.92 20-20c0-0.168-0.008-0.333-0.012-0.5-0.264 10.846-9.076 19.5-19.988 19.5s-19.724-8.654-19.988-19.5z"
     id="path10" />
  <path
     id="path4506"
     d="M 24,5 C 12.92,5 4,13.92 4,25 4,27.810203 4.5779249,30.478373 5.6152344,32.900391 9.2473167,36.65916 14.336085,39 20,39 31.08,39 40,30.08 40,19 40,16.189797 39.422075,13.521627 38.384766,11.099609 34.752683,7.3408403 29.663915,5 24,5 Z"
     style="opacity:0.2;fill:#000000;fill-opacity:1;stroke-width:1.00005007"
     inkscape:connector-curvature="0" />
  <path
     style="opacity:1;fill:#ce484d;fill-opacity:1;stroke-width:1.00005007"
     d="M 24 4 C 24.420288 4 24.837079 4.015654 25.25 4.0429688 C 24.836273 4.0175505 24.420426 4 24 4 z M 24 4 C 23.365885 4 22.739792 4.0326788 22.121094 4.0898438 C 22.739997 4.032617 23.365618 4 24 4 z M 25.300781 4.046875 C 26.54482 4.1324865 27.754873 4.3352415 28.927734 4.6308594 C 28.102087 14.941358 19.530089 23 9 23 C 7.2952334 23 5.6501437 22.766842 4.0722656 22.369141 C 4.0291479 22.907584 4 23.450089 4 24 C 4 26.810203 4.5779249 29.478373 5.6152344 31.900391 C 9.2473167 35.65916 14.336085 38 20 38 C 31.08 38 40 29.08 40 18 C 40 15.189797 39.422075 12.521627 38.384766 10.099609 C 35.033361 6.6313094 30.440122 4.3756204 25.300781 4.046875 z M 4.0722656 22.369141 C 4.1238686 21.724734 4.205698 21.088287 4.3164062 20.462891 C 4.2056155 21.088379 4.1238778 21.72462 4.0722656 22.369141 z M 4.3164062 20.462891 C 4.400033 19.990479 4.5168757 19.530457 4.6328125 19.070312 C 4.5167131 19.530704 4.4001309 19.990209 4.3164062 20.462891 z M 22.021484 4.0976562 C 21.418379 4.1563691 20.824179 4.2447942 20.238281 4.3554688 C 20.82392 4.2447859 21.418607 4.1563957 22.021484 4.0976562 z M 20.113281 4.3769531 C 19.796717 4.4388297 19.490624 4.5269837 19.179688 4.6035156 C 19.490685 4.5269221 19.796641 4.4388766 20.113281 4.3769531 z M 18.193359 4.8574219 C 17.905565 4.9440572 17.627793 5.0493954 17.345703 5.1484375 C 17.627487 5.0494338 17.905871 4.9440366 18.193359 4.8574219 z M 16.388672 5.4980469 C 16.104447 5.614527 15.830148 5.7479659 15.552734 5.8769531 C 15.829967 5.7479644 16.104625 5.6145346 16.388672 5.4980469 z M 14.6875 6.2929688 C 14.39973 6.4440546 14.122955 6.6109106 13.84375 6.7753906 C 14.122619 6.6109903 14.400073 6.4439948 14.6875 6.2929688 z M 13.072266 7.2421875 C 12.800687 7.4191867 12.539494 7.609183 12.277344 7.7988281 C 12.539408 7.6090879 12.800766 7.419277 13.072266 7.2421875 z M 11.552734 8.3417969 C 11.300891 8.5419648 11.058091 8.7510026 10.816406 8.9628906 C 11.057578 8.7512753 11.301434 8.5417293 11.552734 8.3417969 z M 10.146484 9.5722656 C 9.9140025 9.7954873 9.6901902 10.025569 9.46875 10.259766 C 9.6899251 10.025654 9.9142805 9.7954165 10.146484 9.5722656 z M 8.875 10.914062 C 8.6505893 11.173451 8.433642 11.438111 8.2226562 11.708984 C 8.4334313 11.438131 8.6508099 11.17344 8.875 10.914062 z M 7.7480469 12.345703 C 7.5346579 12.64334 7.329921 12.94623 7.1328125 13.255859 C 7.3296122 12.946408 7.5349966 12.643184 7.7480469 12.345703 z M 6.7402344 13.900391 C 6.5516417 14.222993 6.3699252 14.548905 6.1992188 14.882812 C 6.3696035 14.549224 6.5520106 14.222703 6.7402344 13.900391 z M 5.875 15.558594 C 5.7112745 15.911004 5.5536255 16.265587 5.4101562 16.628906 C 5.5533676 16.265918 5.7115851 15.9107 5.875 15.558594 z M 5.1796875 17.259766 C 5.0418957 17.646503 4.9092438 18.034184 4.7949219 18.431641 C 4.9090872 18.034436 5.0421013 17.646272 5.1796875 17.259766 z "
     id="rect4491" />
  <path
     id="path4508"
     d="M 24,5 C 12.92,5 4,13.92 4,25 4,26.352808 4.1350332,27.673113 4.3886719,28.949219 7.4630601,30.872718 11.091153,32 15,32 26.08,32 35,23.08 35,12 35,10.647192 34.864967,9.3268869 34.611328,8.0507812 31.53694,6.1272823 27.908847,5 24,5 Z"
     style="opacity:0.2;fill:#000000;fill-opacity:1;stroke-width:1.00005007"
     inkscape:connector-curvature="0" />
  <path
     style="opacity:1;fill:#eeb42a;fill-opacity:1;stroke-width:1.00005007"
     d="M 24 4 C 23.365885 4 22.739792 4.0326788 22.121094 4.0898438 C 22.739997 4.032617 23.365618 4 24 4 z M 25.316406 4.0488281 C 25.659808 4.072744 25.999746 4.1069755 26.337891 4.1484375 C 25.999445 4.1087494 25.660035 4.0713152 25.316406 4.0488281 z M 22.021484 4.0976562 C 21.418379 4.1563691 20.824179 4.2447942 20.238281 4.3554688 C 20.82392 4.2447859 21.418607 4.1563957 22.021484 4.0976562 z M 26.541016 4.171875 C 27.352323 4.2797579 28.148318 4.4344088 28.927734 4.6308594 C 28.102087 14.941358 19.530089 23 9 23 C 7.2952334 23 5.6501437 22.766842 4.0722656 22.369141 C 4.0291479 22.907584 4 23.450089 4 24 C 4 25.352808 4.1350332 26.673113 4.3886719 27.949219 C 7.4630601 29.872718 11.091153 31 15 31 C 26.08 31 35 22.08 35 11 C 35 9.6471921 34.864967 8.326887 34.611328 7.0507812 C 32.215423 5.5517769 29.480293 4.5470611 26.541016 4.171875 z M 4.0722656 22.369141 C 4.1238686 21.724734 4.205698 21.088287 4.3164062 20.462891 C 4.2056155 21.088379 4.1238778 21.72462 4.0722656 22.369141 z M 4.3164062 20.462891 C 4.400033 19.990479 4.5168757 19.530457 4.6328125 19.070312 C 4.5167131 19.530704 4.4001309 19.990209 4.3164062 20.462891 z M 20.113281 4.3769531 C 19.796717 4.4388297 19.490624 4.5269837 19.179688 4.6035156 C 19.490685 4.5269221 19.796641 4.4388766 20.113281 4.3769531 z M 18.193359 4.8574219 C 17.905565 4.9440572 17.627793 5.0493954 17.345703 5.1484375 C 17.627487 5.0494338 17.905871 4.9440366 18.193359 4.8574219 z M 16.388672 5.4980469 C 16.104447 5.614527 15.830148 5.7479659 15.552734 5.8769531 C 15.829967 5.7479644 16.104625 5.6145346 16.388672 5.4980469 z M 14.6875 6.2929688 C 14.39973 6.4440546 14.122955 6.6109106 13.84375 6.7753906 C 14.122619 6.6109903 14.400073 6.4439948 14.6875 6.2929688 z M 13.072266 7.2421875 C 12.800687 7.4191867 12.539494 7.609183 12.277344 7.7988281 C 12.539408 7.6090879 12.800766 7.419277 13.072266 7.2421875 z M 11.552734 8.3417969 C 11.300891 8.5419648 11.058091 8.7510026 10.816406 8.9628906 C 11.057578 8.7512753 11.301434 8.5417293 11.552734 8.3417969 z M 10.146484 9.5722656 C 9.9140025 9.7954873 9.6901902 10.025569 9.46875 10.259766 C 9.6899251 10.025654 9.9142805 9.7954165 10.146484 9.5722656 z M 8.875 10.914062 C 8.6505893 11.173451 8.433642 11.438111 8.2226562 11.708984 C 8.4334313 11.438131 8.6508099 11.17344 8.875 10.914062 z M 7.7480469 12.345703 C 7.5346579 12.64334 7.329921 12.94623 7.1328125 13.255859 C 7.3296122 12.946408 7.5349966 12.643184 7.7480469 12.345703 z M 6.7402344 13.900391 C 6.5516417 14.222993 6.3699252 14.548905 6.1992188 14.882812 C 6.3696035 14.549224 6.5520106 14.222703 6.7402344 13.900391 z M 5.875 15.558594 C 5.7112745 15.911004 5.5536255 16.265587 5.4101562 16.628906 C 5.5533676 16.265918 5.7115851 15.9107 5.875 15.558594 z M 5.1796875 17.259766 C 5.0418957 17.646503 4.9092438 18.034184 4.7949219 18.431641 C 4.9090872 18.034436 5.0421013 17.646272 5.1796875 17.259766 z "
     id="rect4493" />
  <path
     id="path4510"
     d="M 24,5 C 13.469911,5 4.8979135,13.058642 4.0722656,23.369141 5.6501437,23.766842 7.2952334,24 9,24 19.530089,24 28.102087,15.941358 28.927734,5.6308594 27.349856,5.2331579 25.704767,5 24,5 Z"
     style="opacity:0.2;fill:#000000;fill-opacity:1;stroke-width:1.00005007"
     inkscape:connector-curvature="0" />
  <path
     style="opacity:1;fill:#93bd42;fill-opacity:1;stroke-width:1.00005007"
     d="M 24 4 C 13.469911 4 4.8979135 12.058642 4.0722656 22.369141 C 5.6501437 22.766842 7.2952334 23 9 23 C 19.530089 23 28.102087 14.941358 28.927734 4.6308594 C 27.349856 4.2331579 25.704767 4 24 4 z "
     id="rect4495" />
  <path
     style="fill:#ffffff;fill-opacity:1;stroke-width:1.00005007;opacity:0.2"
     d="M 24 4 C 12.92 4 4 12.92 4 24 C 4 24.167874 4.007647 24.333141 4.0117188 24.5 C 4.2763904 13.653863 13.087874 5 24 5 C 34.912126 5 43.72361 13.653863 43.988281 24.5 C 43.992353 24.333141 44 24.167874 44 24 C 44 12.92 35.08 4 24 4 z "
     id="rect4512" />
</svg>
