<?xml version="1.0" encoding="UTF-8" standalone="no"?>
<svg
   xmlns:dc="http://purl.org/dc/elements/1.1/"
   xmlns:cc="http://creativecommons.org/ns#"
   xmlns:rdf="http://www.w3.org/1999/02/22-rdf-syntax-ns#"
   xmlns:svg="http://www.w3.org/2000/svg"
   xmlns="http://www.w3.org/2000/svg"
   xmlns:sodipodi="http://sodipodi.sourceforge.net/DTD/sodipodi-0.dtd"
   xmlns:inkscape="http://www.inkscape.org/namespaces/inkscape"
   version="1"
   width="48"
   height="48"
   id="svg18"
   sodipodi:docname="browser-du.svg"
   inkscape:version="0.92.1 r15371">
  <metadata
     id="metadata24">
    <rdf:RDF>
      <cc:Work
         rdf:about="">
        <dc:format>image/svg+xml</dc:format>
        <dc:type
           rdf:resource="http://purl.org/dc/dcmitype/StillImage" />
        <dc:title />
      </cc:Work>
    </rdf:RDF>
  </metadata>
  <defs
     id="defs22" />
  <sodipodi:namedview
     pagecolor="#898989"
     bordercolor="#666666"
     borderopacity="1"
     objecttolerance="10"
     gridtolerance="10"
     guidetolerance="10"
     inkscape:pageopacity="0"
     inkscape:pageshadow="2"
     inkscape:window-width="1600"
     inkscape:window-height="822"
     id="namedview20"
     showgrid="false"
     inkscape:zoom="13.12"
     inkscape:cx="21.481611"
     inkscape:cy="21.467178"
     inkscape:window-x="0"
     inkscape:window-y="0"
     inkscape:window-maximized="1"
     inkscape:current-layer="svg18">
    <inkscape:grid
       type="xygrid"
       id="grid4584" />
  </sodipodi:namedview>
  <ellipse
     ry="8"
     rx="15"
     cy="37"
     cx="24"
     id="ellipse4522"
     style="opacity:0.2;vector-effect:none;fill:#000000;fill-opacity:1;stroke:none;stroke-width:1.95761967;stroke-linecap:round;stroke-linejoin:round;stroke-miterlimit:4;stroke-dasharray:none;stroke-dashoffset:0;stroke-opacity:1" />
  <path
     style="opacity:1;vector-effect:none;fill:#e4e4e4;fill-opacity:1;stroke:none;stroke-width:1.95761967;stroke-linecap:round;stroke-linejoin:round;stroke-miterlimit:4;stroke-dasharray:none;stroke-dashoffset:0;stroke-opacity:1"
     d="m 39,36 c 0,2.476343 -2.109642,4.689895 -5.422686,6.157328 C 30.979243,43.308081 27.641128,42.3 24,42.3 20.490709,42.3 17.262885,43.35728 14.707786,42.28051 11.231145,40.815386 9,38.546656 9,36 c 0,-4.418278 6.715729,-8 15,-8 8.284271,0 15,3.581722 15,8 z"
     id="path4520"
     inkscape:connector-curvature="0"
     sodipodi:nodetypes="sssssss" />
  <path
     inkscape:connector-curvature="0"
     style="opacity:1;vector-effect:none;fill:#3b8bff;fill-opacity:1;stroke:none;stroke-width:2.16243196;stroke-linecap:round;stroke-linejoin:round;stroke-miterlimit:4;stroke-dasharray:none;stroke-dashoffset:0;stroke-opacity:1"
     d="m 24,39 v 5 a 15,8 0 0 0 8,-1.236328 V 39 Z"
     id="rect4562" />
  <circle
     r="6"
     cy="12"
     cx="12"
     id="circle4524"
     style="opacity:0.2;vector-effect:none;fill:#000000;fill-opacity:1;stroke:none;stroke-width:2.11111379;stroke-linecap:round;stroke-linejoin:round;stroke-miterlimit:4;stroke-dasharray:none;stroke-dashoffset:0;stroke-opacity:1" />
  <circle
     style="opacity:1;vector-effect:none;fill:#e4e4e4;fill-opacity:1;stroke:none;stroke-width:2.11111379;stroke-linecap:round;stroke-linejoin:round;stroke-miterlimit:4;stroke-dasharray:none;stroke-dashoffset:0;stroke-opacity:1"
     id="path4512"
     cx="12"
     cy="11"
     r="6" />
  <path
     inkscape:connector-curvature="0"
     style="opacity:0.2;vector-effect:none;fill:#ffffff;fill-opacity:1;stroke:none;stroke-width:2.11111379;stroke-linecap:round;stroke-linejoin:round;stroke-miterlimit:4;stroke-dasharray:none;stroke-dashoffset:0;stroke-opacity:1"
     d="M 12,5 A 6,6 0 0 0 6,11 6,6 0 0 0 6.0253906,11.498047 6,6 0 0 1 12,6 6,6 0 0 1 17.974609,11.501953 6,6 0 0 0 18,11 6,6 0 0 0 12,5 Z"
     id="circle4534" />
  <circle
     style="opacity:0.2;vector-effect:none;fill:#000000;fill-opacity:1;stroke:none;stroke-width:2.11111379;stroke-linecap:round;stroke-linejoin:round;stroke-miterlimit:4;stroke-dasharray:none;stroke-dashoffset:0;stroke-opacity:1"
     id="circle4526"
     cx="36"
     cy="12"
     r="6" />
  <circle
     r="6"
     cy="11"
     cx="36"
     id="circle4514"
     style="opacity:1;vector-effect:none;fill:#e4e4e4;fill-opacity:1;stroke:none;stroke-width:2.11111379;stroke-linecap:round;stroke-linejoin:round;stroke-miterlimit:4;stroke-dasharray:none;stroke-dashoffset:0;stroke-opacity:1" />
  <path
     inkscape:connector-curvature="0"
     style="opacity:0.2;vector-effect:none;fill:#ffffff;fill-opacity:1;stroke:none;stroke-width:2.11111379;stroke-linecap:round;stroke-linejoin:round;stroke-miterlimit:4;stroke-dasharray:none;stroke-dashoffset:0;stroke-opacity:1"
     d="m 36,5 a 6,6 0 0 0 -6,6 6,6 0 0 0 0.02539,0.498047 A 6,6 0 0 1 36,6 6,6 0 0 1 41.974609,11.501953 6,6 0 0 0 42,11 6,6 0 0 0 36,5 Z"
     id="circle4536" />
  <path
     inkscape:connector-curvature="0"
     style="opacity:1;vector-effect:none;fill:#ff5b56;fill-opacity:1;stroke:none;stroke-width:2.16243196;stroke-linecap:round;stroke-linejoin:round;stroke-miterlimit:4;stroke-dasharray:none;stroke-dashoffset:0;stroke-opacity:1"
     d="m 16,39 v 3.757812 A 15,8 0 0 0 24,44 v -5 z"
     id="rect4560" />
  <rect
     id="rect4528"
     transform="matrix(0,-1,-1,0,0,0)"
     rx="18"
     ry="18"
     height="36"
     width="36"
     y="-42"
     x="-42"
     style="opacity:0.2;fill:#000000;fill-opacity:1;stroke-width:0.89999998" />
  <rect
     style="fill:#e8e8e8;fill-opacity:1;stroke-width:0.89999998"
     x="-41"
     y="-42"
     width="36"
     height="36"
     ry="18"
     rx="18"
     transform="matrix(0,-1,-1,0,0,0)"
     id="rect4" />
  <circle
     style="opacity:0.2;vector-effect:none;fill:#000000;fill-opacity:1;stroke:none;stroke-width:1.05555689;stroke-linecap:round;stroke-linejoin:round;stroke-miterlimit:4;stroke-dasharray:none;stroke-dashoffset:0;stroke-opacity:1"
     id="circle4530"
     cx="15"
     cy="41"
     r="3" />
  <circle
     r="3"
     cy="40"
     cx="15"
     id="circle4516"
     style="opacity:1;vector-effect:none;fill:#e8e8e8;fill-opacity:1;stroke:none;stroke-width:1.05555689;stroke-linecap:round;stroke-linejoin:round;stroke-miterlimit:4;stroke-dasharray:none;stroke-dashoffset:0;stroke-opacity:1" />
  <circle
     r="3"
     cy="41"
     cx="33"
     id="circle4532"
     style="opacity:0.2;vector-effect:none;fill:#000000;fill-opacity:1;stroke:none;stroke-width:1.05555689;stroke-linecap:round;stroke-linejoin:round;stroke-miterlimit:4;stroke-dasharray:none;stroke-dashoffset:0;stroke-opacity:1" />
  <circle
     style="opacity:1;vector-effect:none;fill:#e8e8e8;fill-opacity:1;stroke:none;stroke-width:1.05555689;stroke-linecap:round;stroke-linejoin:round;stroke-miterlimit:4;stroke-dasharray:none;stroke-dashoffset:0;stroke-opacity:1"
     id="circle4518"
     cx="33"
     cy="40"
     r="3" />
  <path
     inkscape:connector-curvature="0"
     style="opacity:0.2;fill:#ffffff;fill-opacity:1;stroke-width:0.89999998"
     d="M 24,5 C 14.028,5 6,13.028 6,23 6,23.168847 6.020817,23.332297 6.0253906,23.5 6.2909344,13.763279 14.196847,6 24,6 33.803153,6 41.709066,13.763279 41.974609,23.5 41.979183,23.332297 42,23.168847 42,23 42,13.028 33.972,5 24,5 Z"
     id="rect4538" />
  <rect
     id="rect4558"
     transform="matrix(0,-1,-1,0,0,0)"
     rx="13.999999"
     ry="13.999999"
     height="28"
     width="28"
     y="-38"
     x="-37"
     style="fill:#3b8bff;fill-opacity:1;stroke-width:0.69999999" />
  <path
     style="opacity:0.3;vector-effect:none;fill:#080808;fill-opacity:1;stroke:none;stroke-width:2.07143998;stroke-linecap:round;stroke-linejoin:round;stroke-miterlimit:4;stroke-dasharray:none;stroke-dashoffset:0;stroke-opacity:1"
     d="M 24.400391 24 A 16 10.5 0 0 0 11.166016 28.601562 C 13.319648 33.551667 18.239425 37 24 37 C 29.961899 37 35.017109 33.303791 37.042969 28.074219 A 16 10.5 0 0 0 24.400391 24 z "
     id="path4502" />
  <path
     inkscape:connector-curvature="0"
     style="opacity:0.2;fill:#000000;fill-opacity:1;stroke-width:0.15564381"
     d="m 24.535156,24.966797 c -2.759285,1.44e-4 -5.923093,0.435799 -8.08789,1.623047 0.04115,0.204227 0.216804,0.259553 0.787109,0.251953 0.65408,-0.0087 0.734375,0.02834 0.734375,0.330078 0,0.186444 0.136833,0.511747 0.302734,0.722656 0.165902,0.21091 0.347787,0.567826 0.404297,0.792969 0.115332,0.459518 0.229379,0.763957 1.00586,1.113281 0.461977,0.207837 0.65794,0.215214 1.296875,0.05273 0.41438,-0.105372 0.903466,-0.340965 1.085937,-0.523438 l 0.332031,-0.332031 H 21.90625 c -0.892728,0 -1.309848,-0.990304 -0.589844,-1.318359 0.336609,-0.15337 0.446428,-0.126694 0.78711,0.193359 0.242968,0.228258 0.943969,0.523773 1.818359,0.765625 l 1.421875,0.392578 0.361328,0.933594 c 0.3241,0.840791 0.687073,1.324218 0.996094,1.324218 0.06121,0 0.157927,-0.351276 0.216797,-0.779296 l 0.107422,-0.578125 h 1.201171 c 1.167111,0 1.213043,-0.184109 1.726563,0.345703 0.436348,0.450203 0.640171,0.542968 1.173828,0.542968 0.451807,0 0.73301,0.09672 0.933594,0.31836 0.284878,0.314785 0.288211,0.313316 0.591797,0.0098 0.303587,-0.303588 0.302406,-0.307871 -0.107422,-0.794922 -0.226835,-0.269578 -0.41211,-0.553773 -0.41211,-0.632813 10e-7,-0.07903 0.359511,-0.144531 0.798829,-0.144531 0.537536,0 0.969486,-0.10619 1.322265,-0.324219 0.288316,-0.17819 0.525391,-0.360577 0.525391,-0.404297 0,-0.04372 -0.141291,-0.256953 -0.3125,-0.474609 C 34.29559,28.155392 34.15625,27.91781 34.15625,27.84375 c 0,-0.259522 0.732781,-0.132442 1.011719,0.175781 0.328428,0.362906 0.544922,0.400802 0.544922,0.0957 -3.359412,-2.110799 -7.567429,-3.136127 -11.177735,-3.148437 z m -10.058594,2.369141 c -0.240693,0.0508 -0.594104,0.26425 -1.386718,0.74414 -0.635701,0.384886 -1.257616,0.799865 -1.652344,1.087891 1.240947,2.532783 3.215295,4.629995 5.660156,6.013672 0.05806,-0.387855 0.09346,-0.867668 0.09375,-1.386719 7.22e-4,-1.297505 0.01736,-1.356003 0.515625,-1.898438 0.418284,-0.455366 0.664683,-0.580738 1.322266,-0.667968 1.076702,-0.142831 1.044734,-0.419637 -0.121094,-1.041016 -0.548425,-0.292309 -0.971307,-0.630983 -1.029297,-0.826172 -0.05406,-0.181956 -0.242411,-0.628369 -0.419922,-0.992187 -0.320112,-0.656085 -0.330803,-0.660157 -1.160156,-0.660157 -0.459901,0 -1.049509,-0.111103 -1.310547,-0.246093 -0.117387,-0.0607 -0.206927,-0.106755 -0.296875,-0.126953 -0.06746,-0.01515 -0.134612,-0.01694 -0.214844,0 z m 22.117188,1.234374 c -0.06955,-0.01305 -0.126569,-0.0082 -0.158203,0.02344 -0.05332,0.05332 -0.01917,0.19176 0.07617,0.306641 0.03667,0.04419 0.0888,0.06005 0.134765,0.08984 0.05166,-0.109323 0.109309,-0.2153 0.158204,-0.326172 -0.07102,-0.03844 -0.144437,-0.08128 -0.210938,-0.09375 z m -1.474609,1.730469 c -0.153339,0.0401 -0.357608,0.201351 -0.455079,0.357422 -0.154142,0.24682 -0.115287,0.294913 0.294922,0.376953 0.154265,0.03085 0.284698,0.09282 0.382813,0.169922 0.132961,-0.183833 0.264594,-0.368139 0.388672,-0.558594 -0.208785,-0.227644 -0.444373,-0.389362 -0.611328,-0.345703 z m -4.945313,1.308594 c -0.124961,0.0039 -0.204387,0.06376 -0.320312,0.179687 -0.238477,0.238476 -0.210464,0.308251 0.398437,1 0.36046,0.409503 0.913085,0.898395 1.228516,1.085938 0.275562,0.16384 0.597038,0.245881 0.953125,0.294922 0.157367,-0.118794 0.322556,-0.228311 0.474609,-0.353516 -0.04012,-0.01069 -0.09341,-0.0325 -0.119141,-0.0332 -0.264178,-0.0073 -1.178844,-1.051162 -1.285156,-1.466797 -0.05424,-0.212042 -0.315012,-0.40896 -0.738281,-0.55664 -0.295745,-0.103185 -0.466836,-0.154259 -0.591797,-0.150391 z m 4.242188,0.511719 c -0.127816,0.01416 -0.305257,0.09005 -0.607422,0.236328 -0.37666,0.182338 -0.780183,0.332031 -0.896485,0.332031 -0.137087,0 -0.08269,0.136412 0.154297,0.388672 0.11767,0.125254 0.235006,0.213581 0.351563,0.275391 0.41494,-0.377428 0.808938,-0.77466 1.175781,-1.199219 -0.05236,-0.02776 -0.107945,-0.04094 -0.177734,-0.0332 z"
     id="path4591" />
  <path
     style="opacity:1;fill:#7db3fe;fill-opacity:1;stroke-width:0.15564381"
     d="M 24.535156 24.011719 C 24.008516 24.011746 23.438962 24.030518 22.871094 24.050781 A 16 10.5 0 0 0 22.802734 24.052734 A 16 10.5 0 0 0 16.164062 25.515625 C 16.330267 25.698654 16.763761 25.89299 17.234375 25.886719 C 17.888455 25.878019 17.96875 25.915059 17.96875 26.216797 C 17.96875 26.403241 18.105583 26.728544 18.271484 26.939453 C 18.437386 27.150363 18.619271 27.507279 18.675781 27.732422 C 18.791113 28.19194 18.90516 28.496379 19.681641 28.845703 C 20.143618 29.05354 20.339581 29.060917 20.978516 28.898438 C 21.392896 28.793066 21.881982 28.557473 22.064453 28.375 L 22.396484 28.042969 L 21.90625 28.042969 C 21.013522 28.042969 20.596402 27.052664 21.316406 26.724609 C 21.653015 26.571239 21.762834 26.597916 22.103516 26.917969 C 22.346484 27.146227 23.047485 27.441742 23.921875 27.683594 L 25.34375 28.076172 L 25.705078 29.009766 C 26.029178 29.850557 26.392151 30.333984 26.701172 30.333984 C 26.762382 30.333984 26.859099 29.982708 26.917969 29.554688 L 27.025391 28.976562 L 28.226562 28.976562 C 29.393673 28.976562 29.439605 28.792454 29.953125 29.322266 C 30.389473 29.772469 30.593296 29.865234 31.126953 29.865234 C 31.57876 29.865234 31.859963 29.961954 32.060547 30.183594 C 32.345425 30.498379 32.348758 30.49691 32.652344 30.193359 C 32.955931 29.889772 32.95475 29.885488 32.544922 29.398438 C 32.318087 29.12886 32.132812 28.844665 32.132812 28.765625 C 32.132813 28.686595 32.492323 28.621094 32.931641 28.621094 C 33.469177 28.621094 33.901127 28.514904 34.253906 28.296875 C 34.542222 28.118685 34.779297 27.936298 34.779297 27.892578 C 34.779297 27.848858 34.638006 27.635625 34.466797 27.417969 C 34.29559 27.200314 34.15625 26.962732 34.15625 26.888672 C 34.15625 26.62915 34.889031 26.75623 35.167969 27.064453 C 35.366033 27.28331 35.644665 27.275864 35.84375 27.177734 A 16 10.5 0 0 0 26.421875 24.091797 C 26.285827 24.081988 26.146193 24.066333 26.011719 24.058594 A 16 10.5 0 0 0 25.666016 24.044922 C 25.282539 24.027683 24.901116 24.012967 24.535156 24.011719 z M 14.617188 26.208984 A 16 10.5 0 0 0 11.166016 28.601562 C 11.52459 29.425743 11.965699 30.203614 12.46875 30.935547 C 12.545224 31.046181 12.617692 31.159321 12.697266 31.267578 C 12.786878 31.390246 12.883099 31.507378 12.976562 31.626953 C 13.112011 31.799115 13.247348 31.971262 13.390625 32.136719 C 13.460056 32.217444 13.534239 32.293949 13.605469 32.373047 C 13.790073 32.576641 13.977601 32.778322 14.173828 32.970703 C 14.212201 33.008574 14.252208 33.044605 14.291016 33.082031 C 14.537276 33.317971 14.789718 33.547956 15.052734 33.765625 C 15.622865 34.237459 16.230258 34.665978 16.871094 35.044922 C 17.054618 34.75023 17.190835 33.867987 17.191406 32.839844 C 17.192128 31.542339 17.208766 31.483841 17.707031 30.941406 C 18.125315 30.48604 18.371714 30.360668 19.029297 30.273438 C 20.105999 30.130606 20.074031 29.853801 18.908203 29.232422 C 18.359778 28.940113 17.936896 28.601439 17.878906 28.40625 C 17.824846 28.224294 17.636495 27.77788 17.458984 27.414062 C 17.138872 26.757977 17.128181 26.753906 16.298828 26.753906 C 15.838927 26.753906 15.249319 26.642803 14.988281 26.507812 C 14.951403 26.488743 14.766227 26.332614 14.617188 26.208984 z M 36.466797 27.634766 C 36.4587 27.638986 36.441775 27.632443 36.435547 27.638672 C 36.382227 27.691992 36.416379 27.830431 36.511719 27.945312 C 36.653362 28.115983 36.889814 28.179561 37.019531 28.126953 C 37.025822 28.110911 37.034782 28.09615 37.041016 28.080078 C 37.041718 28.078144 37.04227 28.076155 37.042969 28.074219 A 16 10.5 0 0 0 36.466797 27.634766 z M 35.119141 29.345703 C 34.965802 29.385803 34.761533 29.547054 34.664062 29.703125 C 34.50992 29.949945 34.548775 29.998038 34.958984 30.080078 C 35.245832 30.137448 35.461416 30.293623 35.509766 30.478516 C 35.534206 30.571972 35.596745 30.656372 35.667969 30.726562 C 35.798382 30.529129 35.922439 30.327361 36.042969 30.123047 C 35.822455 29.694343 35.381489 29.277098 35.119141 29.345703 z M 30.173828 30.654297 C 30.048867 30.658197 29.969441 30.718057 29.853516 30.833984 C 29.615039 31.07246 29.643052 31.142234 30.251953 31.833984 C 30.612413 32.243486 31.165038 32.732379 31.480469 32.919922 C 31.875682 33.154903 32.320248 33.263231 32.910156 33.269531 C 33.286261 33.273531 33.456793 33.26969 33.535156 33.248047 C 33.550686 33.233597 33.566571 33.219598 33.582031 33.205078 C 33.562771 33.172498 33.503971 33.129248 33.376953 33.056641 C 33.162943 32.934302 32.898682 32.831125 32.789062 32.828125 C 32.524884 32.820825 31.610218 31.776963 31.503906 31.361328 C 31.449666 31.149286 31.188894 30.952367 30.765625 30.804688 C 30.46988 30.701503 30.298789 30.650429 30.173828 30.654297 z M 34.416016 31.166016 C 34.2882 31.180176 34.110759 31.256066 33.808594 31.402344 C 33.431934 31.584682 33.028411 31.734375 32.912109 31.734375 C 32.775022 31.734375 32.829419 31.870787 33.066406 32.123047 C 33.560555 32.649045 34.040892 32.615849 34.541016 32.021484 C 34.905229 31.588644 34.927688 31.50386 34.724609 31.300781 C 34.62307 31.199241 34.543831 31.151852 34.416016 31.166016 z "
     id="path4582" />
</svg>
