<?xml version="1.0" encoding="UTF-8" standalone="no"?>
<svg
   xmlns:dc="http://purl.org/dc/elements/1.1/"
   xmlns:cc="http://creativecommons.org/ns#"
   xmlns:rdf="http://www.w3.org/1999/02/22-rdf-syntax-ns#"
   xmlns:svg="http://www.w3.org/2000/svg"
   xmlns="http://www.w3.org/2000/svg"
   xmlns:sodipodi="http://sodipodi.sourceforge.net/DTD/sodipodi-0.dtd"
   xmlns:inkscape="http://www.inkscape.org/namespaces/inkscape"
   height="48"
   width="48"
   version="1"
   id="svg24"
   sodipodi:docname="bsplayer.svg"
   inkscape:version="0.92.1 r15371">
  <metadata
     id="metadata30">
    <rdf:RDF>
      <cc:Work
         rdf:about="">
        <dc:format>image/svg+xml</dc:format>
        <dc:type
           rdf:resource="http://purl.org/dc/dcmitype/StillImage" />
        <dc:title />
      </cc:Work>
    </rdf:RDF>
  </metadata>
  <defs
     id="defs28" />
  <sodipodi:namedview
     pagecolor="#ffffff"
     bordercolor="#666666"
     borderopacity="1"
     objecttolerance="10"
     gridtolerance="10"
     guidetolerance="10"
     inkscape:pageopacity="0"
     inkscape:pageshadow="2"
     inkscape:window-width="1600"
     inkscape:window-height="822"
     id="namedview26"
     showgrid="false"
     inkscape:zoom="9.95"
     inkscape:cx="10.472362"
     inkscape:cy="26.168148"
     inkscape:window-x="0"
     inkscape:window-y="0"
     inkscape:window-maximized="1"
     inkscape:current-layer="svg24">
    <inkscape:grid
       type="xygrid"
       id="grid4531" />
  </sodipodi:namedview>
  <path
     style="enable-background:new;fill:#289cc1;fill-opacity:1"
     fill="#c2352a"
     d="m7 6c-1.662 0-3 1.338-3 3v25h40v-25c0-1.662-1.338-3-3-3z"
     id="path2" />
  <path
     opacity=".2"
     style="enable-background:new"
     fill="#fff"
     d="m7 6c-1.662 0-3 1.338-3 3v1c0-1.662 1.338-3 3-3h34c1.662 0 3 1.338 3 3v-1c0-1.662-1.338-3-3-3h-34z"
     id="path4" />
  <path
     style="enable-background:new;fill:#e4e4e4;fill-opacity:1"
     fill="#f2f2f2"
     d="m4 34v5c0 1.662 1.338 3 3 3h34c1.662 0 3-1.338 3-3v-5z"
     id="path6" />
  <rect
     style="enable-background:new"
     rx="1"
     ry=".928"
     height="2"
     width="13"
     y="37"
     x="28"
     fill="#999"
     id="rect8" />
  <rect
     style="enable-background:new;fill:#289cc1;fill-opacity:1"
     rx="1"
     ry="1"
     height="2"
     width="21"
     y="37"
     x="7"
     fill="#c2352a"
     id="rect10" />
  <circle
     opacity=".2"
     style="enable-background:new"
     cx="28"
     cy="39"
     r="2"
     id="circle12" />
  <circle
     style="enable-background:new;fill:#58595b;fill-opacity:1"
     cx="28"
     cy="38"
     r="2"
     fill="#fff"
     id="circle14" />
  <rect
     style="enable-background:new;opacity:0.2"
     height="1"
     width="40"
     y="34"
     x="4"
     fill="#fff"
     id="rect16" />
  <path
     opacity=".2"
     style="enable-background:new"
     d="m4 39v1c0 1.662 1.338 3 3 3h34c1.662 0 3-1.338 3-3v-1c0 1.662-1.338 3-3 3h-34c-1.662 0-3-1.338-3-3z"
     id="path22" />
  <path
     id="path4571"
     d="m 12.761719,12.995519 5.28125,5.839844 -0.08594,-0.08984 c 0.427678,0.416986 1.031238,1.157144 1.023438,2.25 0.0078,1.09286 -0.595764,1.833016 -1.023438,2.25 l 0.08594,-0.08984 -5.283203,5.839844 c 0.903031,9.88e-4 8.350229,0.0096 12.705078,0 1.670091,-0.0097 2.235331,-1.365181 2.472656,-2.353516 0.06067,-0.279354 0.06927,-0.637757 0.05664,-2.283203 -0.01464,-1.908441 -0.0154,-1.957105 -0.119141,-2.232422 -0.297885,-0.790494 -0.967953,-1.274143 -2.033203,-1.46875 -0.09439,-0.01725 -0.171875,-0.05126 -0.171875,-0.07422 0,-0.02295 0.450316,-0.08807 0.632812,-0.146485 0.726449,-0.232505 1.16388,-0.560225 1.421875,-1.064453 0.224908,-0.439605 0.258666,-0.755983 0.259766,-2.447265 7.1e-4,-1.362271 -0.0096,-1.578565 -0.08789,-1.904297 -0.194137,-0.807454 -0.852972,-1.979511 -2.195312,-2.025391 h -6.34375 v 0.0039 c 0,2.8e-5 -5.371382,-0.0033 -6.595703,-0.0039 z m -2.69336,0.0039 C 8.8800074,12.914383 8.4043055,14.065069 8.0546875,14.850988 8.0184425,15.034313 7.999879,18.018284 8,20.995519 c -1.21e-4,2.977235 0.018443,5.961206 0.054687,6.144531 0.349618,0.785919 0.8253195,1.936605 2.0136715,1.851563 l 6.492188,-7.177735 C 16.836466,21.544856 17.011058,21.282493 17,20.995519 17.011058,20.708545 16.836467,20.446182 16.560547,20.17716 Z m 25.783203,0 c -3.251821,0.01655 -3.327708,0.01774 -3.697265,0.123047 -1.120697,0.319363 -1.819494,1.002916 -2.072266,2.025391 -0.109469,0.442814 -0.109408,4.419369 0,4.857422 0.173902,0.696275 0.657941,1.3234 1.277344,1.65625 0.180141,0.0968 0.879935,0.35136 1.574219,0.572265 2.627415,0.835984 2.843734,0.919876 3.035156,1.185547 0.09108,0.126404 0.09961,0.201134 0.09961,0.933594 0,0.920563 -0.02276,1.282886 -0.427734,1.49414 l -0.232422,0.121094 -5.402344,0.04883 -0.01172,1.28125 c -0.0069,0.869854 -0.0032,1.609702 0.0098,1.644532 0.0191,0.05147 1.0292,0.0595 3.8125,0.04687 3.374297,-0.0153 3.435661,-0.01688 3.806641,-0.123047 0.62614,-0.179184 1.121157,-0.458906 1.507812,-0.855469 0.373839,-0.383412 0.53609,-0.652272 0.72461,-1.199219 l 0.125,-0.365234 0.01563,-2.210938 c 0.01227,-1.876987 0.0016,-2.268941 -0.0625,-2.595703 -0.169095,-0.861605 -0.496076,-1.296159 -1.267578,-1.6875 C 38.134203,19.682814 37.70304,19.531097 36.421875,19.169347 33.944871,18.469936 33.98137,18.40069 34,17.397863 c 0.01191,-0.64121 -0.06471,-1.225172 0.277344,-1.402344 H 39 c 0.01826,-1.001289 0.03097,-2.93678 0,-2.96875 -0.0245,-0.0253 -1.226655,-0.03714 -3.148438,-0.02734 z m -12.357421,3.00586 c 0.794228,0.03189 1.118193,0.111567 1.33789,0.328125 0.139412,0.137419 0.145093,0.174773 0.164063,0.986328 0.01361,0.582571 -0.0049,0.899391 -0.05664,1.029297 -0.106288,0.266879 -0.429498,0.490408 -0.832031,0.574218 -0.33254,0.06925 -1.979426,0.100229 -2.066406,0.03906 C 22.018974,18.946825 22,18.283951 22,17.487707 v -1.449219 l 0.404297,-0.0293 c 0.222151,-0.01677 0.712438,-0.01908 1.089844,-0.0039 z m 0,7 c 0.794228,0.03189 1.118193,0.111567 1.33789,0.328125 0.139412,0.137419 0.145093,0.174773 0.164063,0.986328 0.01361,0.582571 -0.0049,0.899391 -0.05664,1.029297 -0.106288,0.266879 -0.429498,0.490408 -0.832031,0.574218 -0.33254,0.06925 -1.979426,0.100229 -2.066406,0.03906 C 22.018974,25.946825 22,25.28395 22,24.487707 v -1.449219 l 0.404297,-0.0293 c 0.222151,-0.01677 0.712438,-0.01908 1.089844,-0.0039 z"
     style="opacity:0.2;fill:#000000;fill-opacity:1;stroke-width:0.04720335"
     inkscape:connector-curvature="0" />
  <path
     style="fill:#ffffff;fill-opacity:1;stroke-width:0.04720335"
     d="M 12.761719 12 L 18.042969 17.839844 L 17.957031 17.75 C 18.384709 18.166986 18.988269 18.907144 18.980469 20 C 18.988269 21.09286 18.384705 21.833016 17.957031 22.25 L 18.042969 22.160156 L 12.759766 28 C 13.662797 28.000988 21.109995 28.0096 25.464844 28 C 27.134935 27.9903 27.700175 26.634819 27.9375 25.646484 C 27.99817 25.36713 28.006771 25.008727 27.994141 23.363281 C 27.979501 21.45484 27.978741 21.406176 27.875 21.130859 C 27.577115 20.340365 26.907047 19.856716 25.841797 19.662109 C 25.747407 19.644859 25.669922 19.610851 25.669922 19.587891 C 25.669922 19.564941 26.120238 19.499821 26.302734 19.441406 C 27.029183 19.208901 27.466614 18.881181 27.724609 18.376953 C 27.949517 17.937348 27.983275 17.62097 27.984375 15.929688 C 27.985085 14.567417 27.974774 14.351123 27.896484 14.025391 C 27.702347 13.217939 27.043512 12.04588 25.701172 12 L 19.357422 12 L 19.357422 12.003906 C 19.357422 12.003934 13.98604 12.0006 12.761719 12 z M 23.494141 15.009766 C 24.288369 15.041656 24.612334 15.121333 24.832031 15.337891 C 24.971443 15.47531 24.977124 15.512664 24.996094 16.324219 C 25.009704 16.90679 24.991193 17.22361 24.939453 17.353516 C 24.833165 17.620395 24.509955 17.843924 24.107422 17.927734 C 23.774882 17.996984 22.127996 18.027966 22.041016 17.966797 C 22.018973 17.951309 22 17.288432 22 16.492188 L 22 15.042969 L 22.404297 15.013672 C 22.626448 14.996902 23.116735 14.994586 23.494141 15.009766 z M 23.494141 22.009766 C 24.288369 22.041656 24.612334 22.121333 24.832031 22.337891 C 24.971443 22.47531 24.977124 22.512664 24.996094 23.324219 C 25.009704 23.90679 24.991193 24.22361 24.939453 24.353516 C 24.833165 24.620395 24.509955 24.843924 24.107422 24.927734 C 23.774882 24.996984 22.127996 25.027966 22.041016 24.966797 C 22.018973 24.951309 22 24.288431 22 23.492188 L 22 22.042969 L 22.404297 22.013672 C 22.626448 21.996902 23.116735 21.994586 23.494141 22.009766 z "
     id="path4501" />
  <path
     style="fill:#58595b;fill-opacity:1;stroke-width:0.04720335"
     d="M 10.068359,12.003906 C 8.8800074,11.918864 8.4043055,13.06955 8.0546875,13.855469 8.0184425,14.038794 7.999879,17.022765 8,20 c -1.21e-4,2.977235 0.018443,5.961206 0.054687,6.144531 0.349618,0.785919 0.8253195,1.936605 2.0136715,1.851563 l 6.492188,-7.177735 C 16.836466,20.549337 17.011058,20.286974 17,20 c 0.01106,-0.286974 -0.163533,-0.549337 -0.439453,-0.818359 z"
     id="path4499" />
  <path
     style="fill:#ffffff;fill-opacity:1;stroke-width:0.04720335"
     d="m 35.851562,12.003906 c -3.251821,0.01655 -3.327708,0.01774 -3.697265,0.123047 -1.120697,0.319363 -1.819494,1.002916 -2.072266,2.025391 -0.109469,0.442814 -0.109408,4.419369 0,4.857422 0.173902,0.696275 0.657941,1.3234 1.277344,1.65625 0.180141,0.0968 0.879935,0.35136 1.574219,0.572265 2.627415,0.835984 2.843734,0.919876 3.035156,1.185547 0.09108,0.126404 0.09961,0.201134 0.09961,0.933594 0,0.920563 -0.02276,1.282886 -0.427734,1.49414 l -0.232422,0.121094 -5.402344,0.04883 -0.01172,1.28125 c -0.0069,0.869854 -0.0032,1.609702 0.0098,1.644532 0.0191,0.05147 1.0292,0.05951 3.8125,0.04687 3.374297,-0.0153 3.435661,-0.01688 3.806641,-0.123047 0.62614,-0.179184 1.121157,-0.458906 1.507812,-0.855469 0.373839,-0.383412 0.53609,-0.652272 0.72461,-1.199219 l 0.125,-0.365234 0.01563,-2.210938 c 0.01227,-1.876987 0.0016,-2.268941 -0.0625,-2.595703 -0.169095,-0.861605 -0.496076,-1.296159 -1.267578,-1.6875 C 38.134203,18.687295 37.70304,18.535578 36.421875,18.173828 33.944871,17.474417 33.98137,17.405171 34,16.402344 34.011906,15.761134 33.935288,15.177172 34.277344,15 H 39 c 0.01826,-1.001289 0.03097,-2.93678 0,-2.96875 -0.0245,-0.0253 -1.226655,-0.03714 -3.148438,-0.02734 z"
     id="path4497" />
</svg>
