<?xml version="1.0" encoding="UTF-8" standalone="no"?>
<svg
   xmlns:dc="http://purl.org/dc/elements/1.1/"
   xmlns:cc="http://creativecommons.org/ns#"
   xmlns:rdf="http://www.w3.org/1999/02/22-rdf-syntax-ns#"
   xmlns:svg="http://www.w3.org/2000/svg"
   xmlns="http://www.w3.org/2000/svg"
   xmlns:sodipodi="http://sodipodi.sourceforge.net/DTD/sodipodi-0.dtd"
   xmlns:inkscape="http://www.inkscape.org/namespaces/inkscape"
   height="48"
   width="48"
   version="1"
   id="svg12"
   sodipodi:docname="butterfly-browser.svg"
   inkscape:version="0.92.1 r15371">
  <metadata
     id="metadata18">
    <rdf:RDF>
      <cc:Work
         rdf:about="">
        <dc:format>image/svg+xml</dc:format>
        <dc:type
           rdf:resource="http://purl.org/dc/dcmitype/StillImage" />
        <dc:title></dc:title>
      </cc:Work>
    </rdf:RDF>
  </metadata>
  <defs
     id="defs16" />
  <sodipodi:namedview
     pagecolor="#ffffff"
     bordercolor="#666666"
     borderopacity="1"
     objecttolerance="10"
     gridtolerance="10"
     guidetolerance="10"
     inkscape:pageopacity="0"
     inkscape:pageshadow="2"
     inkscape:window-width="1600"
     inkscape:window-height="822"
     id="namedview14"
     showgrid="true"
     inkscape:zoom="8.0753884"
     inkscape:cx="20.637552"
     inkscape:cy="18.011709"
     inkscape:window-x="0"
     inkscape:window-y="0"
     inkscape:window-maximized="1"
     inkscape:current-layer="svg12">
    <inkscape:grid
       type="xygrid"
       id="grid4517" />
  </sodipodi:namedview>
  <path
     sodipodi:nodetypes="ccccccccccsccccsscssccccccccc"
     inkscape:connector-curvature="0"
     id="path4562"
     d="m 38.923828,8 c -0.06843,0.0015 -0.136814,0.00476 -0.205078,0.00977 l -1.414062,0.099609 h -0.0039 C 31.702112,8.508826 26.663138,11.726949 23.5,16.369141 20.336862,11.726948 15.297887,8.508826 9.6992188,8.109375 h -0.00391 L 8.28125,8.0097656 C 5.7878252,7.8344968 3.7461239,9.9633383 4.0253906,12.447266 l 0.1035156,0.917968 c 0.1860112,1.66114 0.3807901,2.68665 0.7441407,3.863282 1.4162684,4.586291 4.5370419,8.192825 8.4550781,10.621093 -2.777694,2.489362 -4.6498228,5.916012 -5.1757812,9.765625 l -0.1152344,0.84375 C 7.7095418,40.860652 9.5760964,42.999508 12,43 h 0.759766 c 1.199161,0 1.859041,-0.155805 2.792968,-0.396484 3.18977,-0.822027 5.91496,-2.722478 7.947266,-5.236328 2.032306,2.51385 4.757497,4.414301 7.947266,5.236328 C 32.381193,42.844195 33.041073,43 34.240234,43 H 35 c 2.423904,-4.91e-4 4.290459,-2.139348 3.962891,-4.541016 l -0.115235,-0.84375 c -0.525958,-3.849613 -2.398087,-7.276263 -5.175781,-9.765625 3.918036,-2.428268 7.03881,-6.034802 8.455078,-10.621093 0.362188,-1.172866 0.559644,-2.199484 0.746094,-3.865235 l 0.002,-0.0059 0.101562,-0.917969 C 43.241989,10.039864 41.337563,7.9537586 38.923828,8 Z"
     style="color:#000000;font-style:normal;font-variant:normal;font-weight:normal;font-stretch:normal;font-size:medium;line-height:normal;font-family:sans-serif;font-variant-ligatures:normal;font-variant-position:normal;font-variant-caps:normal;font-variant-numeric:normal;font-variant-alternates:normal;font-feature-settings:normal;text-indent:0;text-align:start;text-decoration:none;text-decoration-line:none;text-decoration-style:solid;text-decoration-color:#000000;letter-spacing:normal;word-spacing:normal;text-transform:none;writing-mode:lr-tb;direction:ltr;text-orientation:mixed;dominant-baseline:auto;baseline-shift:baseline;text-anchor:start;white-space:normal;shape-padding:0;clip-rule:nonzero;display:inline;overflow:visible;visibility:visible;opacity:0.2;isolation:auto;mix-blend-mode:normal;color-interpolation:sRGB;color-interpolation-filters:linearRGB;solid-color:#000000;solid-opacity:1;vector-effect:none;fill:#000000;fill-opacity:1;fill-rule:nonzero;stroke:none;stroke-width:8;stroke-linecap:round;stroke-linejoin:round;stroke-miterlimit:4;stroke-dasharray:none;stroke-dashoffset:0;stroke-opacity:1;color-rendering:auto;image-rendering:auto;shape-rendering:auto;text-rendering:auto;enable-background:accumulate" />
  <path
     style="color:#000000;font-style:normal;font-variant:normal;font-weight:normal;font-stretch:normal;font-size:medium;line-height:normal;font-family:sans-serif;font-variant-ligatures:normal;font-variant-position:normal;font-variant-caps:normal;font-variant-numeric:normal;font-variant-alternates:normal;font-feature-settings:normal;text-indent:0;text-align:start;text-decoration:none;text-decoration-line:none;text-decoration-style:solid;text-decoration-color:#000000;letter-spacing:normal;word-spacing:normal;text-transform:none;writing-mode:lr-tb;direction:ltr;text-orientation:mixed;dominant-baseline:auto;baseline-shift:baseline;text-anchor:start;white-space:normal;shape-padding:0;clip-rule:nonzero;display:inline;overflow:visible;visibility:visible;opacity:1;isolation:auto;mix-blend-mode:normal;color-interpolation:sRGB;color-interpolation-filters:linearRGB;solid-color:#000000;solid-opacity:1;vector-effect:none;fill:#ff703a;fill-opacity:1;fill-rule:nonzero;stroke:none;stroke-width:8;stroke-linecap:round;stroke-linejoin:round;stroke-miterlimit:4;stroke-dasharray:none;stroke-dashoffset:0;stroke-opacity:1;color-rendering:auto;image-rendering:auto;shape-rendering:auto;text-rendering:auto;enable-background:accumulate"
     d="m 38.923828,7 c -0.06843,0.0015 -0.136814,0.00476 -0.205078,0.00977 l -1.414062,0.099609 h -0.0039 C 31.702112,7.508826 26.663138,10.726949 23.5,15.369141 20.336862,10.726948 15.297887,7.508826 9.6992188,7.109375 h -0.00391 L 8.28125,7.0097656 C 5.7878252,6.8344968 3.7461239,8.9633383 4.0253906,11.447266 l 0.1035156,0.917968 c 0.1860112,1.66114 0.3807901,2.68665 0.7441407,3.863282 1.4162684,4.586291 4.5370419,8.192825 8.4550781,10.621093 -2.777694,2.489362 -4.6498228,5.916012 -5.1757812,9.765625 l -0.1152344,0.84375 C 7.7095418,39.860652 9.5760964,41.999508 12,42 h 0.759766 c 1.199161,0 1.859041,-0.155805 2.792968,-0.396484 3.18977,-0.822027 5.91496,-2.722478 7.947266,-5.236328 2.032306,2.51385 4.757497,4.414301 7.947266,5.236328 C 32.381193,41.844195 33.041073,42 34.240234,42 H 35 c 2.423904,-4.91e-4 4.290459,-2.139348 3.962891,-4.541016 l -0.115235,-0.84375 c -0.525958,-3.849613 -2.398087,-7.276263 -5.175781,-9.765625 3.918036,-2.428268 7.03881,-6.034802 8.455078,-10.621093 0.362188,-1.172866 0.559644,-2.199484 0.746094,-3.865235 l 0.002,-0.0059 0.101562,-0.917969 C 43.241989,9.039864 41.337563,6.9537586 38.923828,7 Z"
     id="path4553"
     inkscape:connector-curvature="0"
     sodipodi:nodetypes="ccccccccccsccccsscssccccccccc" />
  <path
     inkscape:connector-curvature="0"
     id="path4564"
     d="m 8,12 0.1035156,0.917969 c 0.1796156,1.604702 0.2688684,2.085125 0.5917969,3.130859 1.8688015,6.051725 7.0544895,10.240587 13.4531255,10.865234 0.327715,0.032 0.65243,0.07096 0.722656,0.08594 C 22.941321,27.014976 23,26.686534 23,26.271484 23,24.669325 22.296343,22.162822 21.283203,20.164062 19.070499,15.798755 14.119581,12.435336 9.4140625,12.099609 Z m 31,0 -1.414062,0.09961 c -4.70552,0.335727 -9.656437,3.699147 -11.869141,8.064453 C 24.703657,22.162822 24,24.669325 24,26.271484 c 0,0.41505 0.05868,0.743492 0.128906,0.728516 0.07023,-0.01498 0.394941,-0.05394 0.722656,-0.08594 6.398636,-0.624647 11.584325,-4.813509 13.453126,-10.865234 0.322929,-1.045734 0.414133,-1.526157 0.59375,-3.130859 z M 22.509766,28 c -1.013343,0 -2.600046,0.406511 -3.81836,0.978516 -3.673148,1.724564 -6.001736,4.973302 -6.576172,9.177734 L 12,39 h 0.759766 c 0.41704,0 1.223673,-0.122316 1.794922,-0.269531 3.236809,-0.834149 6.303749,-3.545227 7.61914,-6.738281 C 22.565291,31.041927 23,29.231748 23,28.550781 23,28.064819 22.94262,28 22.509766,28 Z m 1.980468,0 C 24.05738,28 24,28.064819 24,28.550781 c 0,0.680967 0.434709,2.491146 0.826172,3.441407 1.315391,3.193054 4.382332,5.904132 7.61914,6.738281 C 33.016561,38.877684 33.823194,39 34.240234,39 H 35 L 34.884766,38.15625 C 34.31033,33.951818 31.981742,30.70308 28.308594,28.978516 27.09028,28.406511 25.503577,28 24.490234,28 Z"
     style="opacity:0.2;fill:#000000;fill-opacity:1;stroke-width:0.17983094" />
  <path
     style="fill:#ffffff;stroke-width:0.17983094;fill-opacity:1"
     d="m 8,11 0.1035156,0.917969 c 0.1796156,1.604702 0.2688684,2.085125 0.5917969,3.130859 1.8688015,6.051725 7.0544895,10.240587 13.4531255,10.865234 0.327715,0.032 0.65243,0.07096 0.722656,0.08594 C 22.941321,26.014976 23,25.686534 23,25.271484 23,23.669325 22.296343,21.162822 21.283203,19.164062 19.070499,14.798755 14.119581,11.435336 9.4140625,11.099609 Z m 31,0 -1.414062,0.09961 c -4.70552,0.335727 -9.656437,3.699147 -11.869141,8.064453 C 24.703657,21.162822 24,23.669325 24,25.271484 c 0,0.41505 0.05868,0.743492 0.128906,0.728516 0.07023,-0.01498 0.394941,-0.05394 0.722656,-0.08594 6.398636,-0.624647 11.584325,-4.813509 13.453126,-10.865234 0.322929,-1.045734 0.414133,-1.526157 0.59375,-3.130859 z M 22.509766,27 c -1.013343,0 -2.600046,0.406511 -3.81836,0.978516 -3.673148,1.724564 -6.001736,4.973302 -6.576172,9.177734 L 12,38 h 0.759766 c 0.41704,0 1.223673,-0.122316 1.794922,-0.269531 3.236809,-0.834149 6.303749,-3.545227 7.61914,-6.738281 C 22.565291,30.041927 23,28.231748 23,27.550781 23,27.064819 22.94262,27 22.509766,27 Z m 1.980468,0 C 24.05738,27 24,27.064819 24,27.550781 c 0,0.680967 0.434709,2.491146 0.826172,3.441407 1.315391,3.193054 4.382332,5.904132 7.61914,6.738281 C 33.016561,37.877684 33.823194,38 34.240234,38 H 35 L 34.884766,37.15625 C 34.31033,32.951818 31.981742,29.70308 28.308594,27.978516 27.09028,27.406511 25.503577,27 24.490234,27 Z"
     id="path4536"
     inkscape:connector-curvature="0" />
  <path
     style="color:#000000;font-style:normal;font-variant:normal;font-weight:normal;font-stretch:normal;font-size:medium;line-height:normal;font-family:sans-serif;font-variant-ligatures:normal;font-variant-position:normal;font-variant-caps:normal;font-variant-numeric:normal;font-variant-alternates:normal;font-feature-settings:normal;text-indent:0;text-align:start;text-decoration:none;text-decoration-line:none;text-decoration-style:solid;text-decoration-color:#000000;letter-spacing:normal;word-spacing:normal;text-transform:none;writing-mode:lr-tb;direction:ltr;text-orientation:mixed;dominant-baseline:auto;baseline-shift:baseline;text-anchor:start;white-space:normal;shape-padding:0;clip-rule:nonzero;display:inline;overflow:visible;visibility:visible;opacity:0.2;isolation:auto;mix-blend-mode:normal;color-interpolation:sRGB;color-interpolation-filters:linearRGB;solid-color:#000000;solid-opacity:1;vector-effect:none;fill:#ffffff;fill-opacity:1;fill-rule:nonzero;stroke:none;stroke-width:8;stroke-linecap:round;stroke-linejoin:round;stroke-miterlimit:4;stroke-dasharray:none;stroke-dashoffset:0;stroke-opacity:1;color-rendering:auto;image-rendering:auto;shape-rendering:auto;text-rendering:auto;enable-background:accumulate"
     d="M 38.923828 7 C 38.855398 7.0015 38.787014 7.0047556 38.71875 7.0097656 L 37.304688 7.109375 L 37.300781 7.109375 C 31.702105 7.508822 26.663138 10.726949 23.5 15.369141 C 20.336862 10.726948 15.297887 7.508826 9.6992188 7.109375 L 9.6953125 7.109375 L 8.28125 7.0097656 C 5.7878252 6.8344968 3.7461239 8.9633379 4.0253906 11.447266 L 4.03125 11.507812 C 4.283319 9.453217 6.1101057 7.8571507 8.28125 8.0097656 L 9.6953125 8.109375 L 9.6992188 8.109375 C 15.297887 8.508826 20.336862 11.726948 23.5 16.369141 C 26.663138 11.726949 31.702105 8.508822 37.300781 8.109375 L 37.304688 8.109375 L 38.71875 8.0097656 C 38.787014 8.0047556 38.855398 8.0015 38.923828 8 C 41.019568 7.9598506 42.727793 9.529369 42.96875 11.513672 L 42.976562 11.439453 C 43.241942 9.0399051 41.337563 6.9537586 38.923828 7 z M 12.722656 27.441406 C 10.284693 29.870674 8.6384388 33.05739 8.1523438 36.615234 L 8.0371094 37.458984 C 7.9905241 37.800539 7.999649 38.133455 8.0371094 38.458984 L 8.1523438 37.615234 C 8.6783021 33.765621 10.550431 30.338971 13.328125 27.849609 C 13.12078 27.721104 12.925401 27.576482 12.722656 27.441406 z M 34.277344 27.441406 C 34.074599 27.576482 33.87922 27.721104 33.671875 27.849609 C 36.449569 30.338971 38.321698 33.765621 38.847656 37.615234 L 38.962891 38.458984 C 39.000351 38.133455 39.009476 37.800539 38.962891 37.458984 L 38.847656 36.615234 C 38.361562 33.05739 36.715307 29.870674 34.277344 27.441406 z "
     id="path4557" />
</svg>
