<?xml version="1.0" encoding="UTF-8" standalone="no"?>
<svg
   xmlns:dc="http://purl.org/dc/elements/1.1/"
   xmlns:cc="http://creativecommons.org/ns#"
   xmlns:rdf="http://www.w3.org/1999/02/22-rdf-syntax-ns#"
   xmlns:svg="http://www.w3.org/2000/svg"
   xmlns="http://www.w3.org/2000/svg"
   xmlns:sodipodi="http://sodipodi.sourceforge.net/DTD/sodipodi-0.dtd"
   xmlns:inkscape="http://www.inkscape.org/namespaces/inkscape"
   height="48"
   width="48"
   version="1"
   id="svg18"
   sodipodi:docname="casse-o-player.svg"
   inkscape:version="0.92.1 r15371">
  <metadata
     id="metadata24">
    <rdf:RDF>
      <cc:Work
         rdf:about="">
        <dc:format>image/svg+xml</dc:format>
        <dc:type
           rdf:resource="http://purl.org/dc/dcmitype/StillImage" />
        <dc:title />
      </cc:Work>
    </rdf:RDF>
  </metadata>
  <defs
     id="defs22" />
  <sodipodi:namedview
     pagecolor="#ffffff"
     bordercolor="#666666"
     borderopacity="1"
     objecttolerance="10"
     gridtolerance="10"
     guidetolerance="10"
     inkscape:pageopacity="0"
     inkscape:pageshadow="2"
     inkscape:window-width="1600"
     inkscape:window-height="822"
     id="namedview20"
     showgrid="false"
     showguides="false"
     inkscape:zoom="18.55"
     inkscape:cx="16.402207"
     inkscape:cy="21.87556"
     inkscape:window-x="0"
     inkscape:window-y="0"
     inkscape:window-maximized="1"
     inkscape:current-layer="svg18">
    <inkscape:grid
       type="xygrid"
       id="grid4552" />
  </sodipodi:namedview>
  <rect
     style="opacity:0.2;fill:#040404;fill-opacity:1;stroke-width:0.83666003"
     id="rect4578"
     x="-39"
     y="-44"
     width="28"
     height="40"
     transform="matrix(0,-1,-1,0,0,0)"
     rx="2"
     ry="2" />
  <rect
     ry="2"
     rx="2"
     transform="matrix(0,-1,-1,0,0,0)"
     height="40"
     width="28"
     y="-44"
     x="-38"
     id="rect2"
     style="fill:#4f4f4f;stroke-width:0.83666003" />
  <path
     style="opacity:0.3;fill:#000000;fill-opacity:1;stroke:none;stroke-width:5.97585392;stroke-linecap:round;stroke-linejoin:round;stroke-miterlimit:4;stroke-dasharray:none;stroke-dashoffset:0;stroke-opacity:1"
     d="m 38.765499,23.730458 c 0,2.823585 1.934227,5.613016 -0.100203,7.263092 C 37.118369,32.248224 35.146978,33 33,33 c -4.970563,0 -9,-4.029437 -9,-9 0,-4.970563 4.029437,-9 9,-9 1.43763,0 2.796531,0.337076 4.001983,0.936505 2.962362,1.473082 1.763516,4.26102 1.763516,7.793953 z"
     id="circle4551"
     inkscape:connector-curvature="0"
     sodipodi:nodetypes="sssssss" />
  <circle
     style="opacity:0.3;fill:#000000;fill-opacity:1;stroke:none;stroke-width:4.64788628;stroke-linecap:round;stroke-linejoin:round;stroke-miterlimit:4;stroke-dasharray:none;stroke-dashoffset:0;stroke-opacity:1"
     id="path4549"
     cx="15"
     cy="24"
     r="7" />
  <path
     sodipodi:nodetypes="csssscc"
     style="opacity:0.2;fill:#040404;fill-opacity:1"
     inkscape:connector-curvature="0"
     id="path4580"
     d="m 14,35 -2,3 c -0.614608,0.921912 0.892,2 2,2 h 20 c 1.108,0 2,-0.892 2,-2 l -2,-3 z" />
  <path
     d="m 14,34 -2,3 c -0.614608,0.921912 0.892,2 2,2 h 20 c 1.108,0 2,-0.892 2,-2 l -2,-3 z"
     id="path6"
     inkscape:connector-curvature="0"
     style="fill:#848484"
     sodipodi:nodetypes="csssscc" />
  <path
     id="path4560"
     d="m 33.000777,19.00021 a 5,5 0 0 0 -5,5 5,5 0 0 0 5,5 5,5 0 0 0 5,-5 5,5 0 0 0 -5,-5 z m 0.01758,2.003906 a 3,3 0 0 1 1.029297,0.183594 l -0.511719,0.886719 a 2,2 0 0 1 0.464844,0.193359 2,2 0 0 1 0.400391,0.308594 l 0.509765,-0.882813 a 3,3 0 0 1 0.814453,1.058594 l -0.986328,0.265625 a 2,2 0 0 1 0.257813,0.964844 l 0.986328,-0.263672 a 3,3 0 0 1 -0.169922,1.328125 l -0.886719,-0.511719 a 2,2 0 0 1 -0.193359,0.464844 2,2 0 0 1 -0.308594,0.400391 l 0.882813,0.509765 a 3,3 0 0 1 -1.058594,0.814453 l -0.265625,-0.986328 a 2,2 0 0 1 -0.964844,0.257813 l 0.263672,0.986328 A 3,3 0 0 1 31.953902,26.81271 l 0.511719,-0.886719 a 2,2 0 0 1 -0.464844,-0.193359 2,2 0 0 1 -0.400391,-0.308594 l -0.509765,0.882813 a 3,3 0 0 1 -0.814453,-1.058594 l 0.986328,-0.265625 a 2,2 0 0 1 -0.257813,-0.964844 l -0.986328,0.263672 a 3,3 0 0 1 0.169922,-1.328125 l 0.886719,0.511719 a 2,2 0 0 1 0.193359,-0.464844 2,2 0 0 1 0.308594,-0.400391 l -0.882813,-0.509765 a 3,3 0 0 1 1.058594,-0.814453 l 0.265625,0.986328 a 2,2 0 0 1 0.964844,-0.257813 l -0.263672,-0.986328 a 3,3 0 0 1 0.298828,-0.01367 z"
     style="opacity:1;fill:#ffffff;fill-opacity:1;stroke:none;stroke-width:2.92348742;stroke-linecap:round;stroke-linejoin:round;stroke-miterlimit:4;stroke-dasharray:none;stroke-dashoffset:0;stroke-opacity:1"
     inkscape:connector-curvature="0" />
  <path
     style="opacity:1;fill:#ffffff;fill-opacity:1;stroke:none;stroke-width:2.92348742;stroke-linecap:round;stroke-linejoin:round;stroke-miterlimit:4;stroke-dasharray:none;stroke-dashoffset:0;stroke-opacity:1"
     d="M 15 19 A 5 5 0 0 0 10 24 A 5 5 0 0 0 15 29 A 5 5 0 0 0 20 24 A 5 5 0 0 0 15 19 z M 15.017578 21.003906 A 3 3 0 0 1 16.046875 21.1875 L 15.535156 22.074219 A 2 2 0 0 1 16 22.267578 A 2 2 0 0 1 16.400391 22.576172 L 16.910156 21.693359 A 3 3 0 0 1 17.724609 22.751953 L 16.738281 23.017578 A 2 2 0 0 1 16.996094 23.982422 L 17.982422 23.71875 A 3 3 0 0 1 17.8125 25.046875 L 16.925781 24.535156 A 2 2 0 0 1 16.732422 25 A 2 2 0 0 1 16.423828 25.400391 L 17.306641 25.910156 A 3 3 0 0 1 16.248047 26.724609 L 15.982422 25.738281 A 2 2 0 0 1 15.017578 25.996094 L 15.28125 26.982422 A 3 3 0 0 1 13.953125 26.8125 L 14.464844 25.925781 A 2 2 0 0 1 14 25.732422 A 2 2 0 0 1 13.599609 25.423828 L 13.089844 26.306641 A 3 3 0 0 1 12.275391 25.248047 L 13.261719 24.982422 A 2 2 0 0 1 13.003906 24.017578 L 12.017578 24.28125 A 3 3 0 0 1 12.1875 22.953125 L 13.074219 23.464844 A 2 2 0 0 1 13.267578 23 A 2 2 0 0 1 13.576172 22.599609 L 12.693359 22.089844 A 3 3 0 0 1 13.751953 21.275391 L 14.017578 22.261719 A 2 2 0 0 1 14.982422 22.003906 L 14.71875 21.017578 A 3 3 0 0 1 15.017578 21.003906 z "
     id="path4523" />
  <path
     id="path4550"
     d="m 10,16 c -1.108,0 -2,0.892 -2,2 v 8 5 1 c 0,1.108 0.892,2 2,2 h 28 c 1.108,0 2,-0.892 2,-2 v -1 -5 -8 c 0,-1.108 -0.892,-2 -2,-2 z m 4,5 h 20 c 1.108,0 2,0.792455 2,1.777344 v 1.777344 2.667968 C 36,28.207545 35.108,29 34,29 H 14 c -1.108,0 -2,-0.792455 -2,-1.777344 V 24.554688 22.777344 C 12,21.792455 12.892,21 14,21 Z"
     style="opacity:0.2;fill:#000000;fill-opacity:1"
     inkscape:connector-curvature="0" />
  <path
     style="fill:#ff493f;fill-opacity:1"
     d="M 10 15 C 8.892 15 8 15.892 8 17 L 8 25 L 8 30 L 8 31 C 8 32.108 8.892 33 10 33 L 38 33 C 39.108 33 40 32.108 40 31 L 40 30 L 40 25 L 40 17 C 40 15.892 39.108 15 38 15 L 10 15 z M 14 20 L 34 20 C 35.108 20 36 20.792455 36 21.777344 L 36 23.554688 L 36 26.222656 C 36 27.207545 35.108 28 34 28 L 14 28 C 12.892 28 12 27.207545 12 26.222656 L 12 23.554688 L 12 21.777344 C 12 20.792455 12.892 20 14 20 z "
     id="path4536" />
  <circle
     style="opacity:0.3;fill:#000000;fill-opacity:1;stroke:none;stroke-width:3.28666663;stroke-linecap:round;stroke-linejoin:round;stroke-miterlimit:4;stroke-dasharray:none;stroke-dashoffset:0;stroke-opacity:1"
     id="path4506"
     cx="7"
     cy="13"
     r="1" />
  <circle
     r="1"
     cy="35"
     cx="7"
     id="circle4508"
     style="opacity:0.3;fill:#000000;fill-opacity:1;stroke:none;stroke-width:3.28666663;stroke-linecap:round;stroke-linejoin:round;stroke-miterlimit:4;stroke-dasharray:none;stroke-dashoffset:0;stroke-opacity:1" />
  <circle
     r="1"
     cy="13"
     cx="41"
     id="circle4510"
     style="opacity:0.3;fill:#000000;fill-opacity:1;stroke:none;stroke-width:3.28666663;stroke-linecap:round;stroke-linejoin:round;stroke-miterlimit:4;stroke-dasharray:none;stroke-dashoffset:0;stroke-opacity:1" />
  <circle
     style="opacity:0.3;fill:#000000;fill-opacity:1;stroke:none;stroke-width:3.28666663;stroke-linecap:round;stroke-linejoin:round;stroke-miterlimit:4;stroke-dasharray:none;stroke-dashoffset:0;stroke-opacity:1"
     id="circle4512"
     cx="41"
     cy="35"
     r="1" />
  <circle
     style="opacity:0.3;fill:#000000;fill-opacity:1;stroke:none;stroke-width:2.75666499;stroke-linecap:round;stroke-linejoin:round;stroke-miterlimit:4;stroke-dasharray:none;stroke-dashoffset:0;stroke-opacity:1"
     id="path4562"
     cx="15"
     cy="24"
     r="1" />
  <circle
     r="1"
     cy="24"
     cx="33"
     id="circle4564"
     style="opacity:0.3;fill:#000000;fill-opacity:1;stroke:none;stroke-width:2.75666499;stroke-linecap:round;stroke-linejoin:round;stroke-miterlimit:4;stroke-dasharray:none;stroke-dashoffset:0;stroke-opacity:1" />
  <circle
     style="opacity:0.3;fill:#000000;fill-opacity:1;stroke:none;stroke-width:1.64333332;stroke-linecap:round;stroke-linejoin:round;stroke-miterlimit:4;stroke-dasharray:none;stroke-dashoffset:0;stroke-opacity:1"
     id="circle4566"
     cx="14.5"
     cy="35.5"
     r="0.5" />
  <circle
     r="0.5"
     cy="35.5"
     cx="33.5"
     id="circle4568"
     style="opacity:0.3;fill:#000000;fill-opacity:1;stroke:none;stroke-width:1.64333332;stroke-linecap:round;stroke-linejoin:round;stroke-miterlimit:4;stroke-dasharray:none;stroke-dashoffset:0;stroke-opacity:1" />
  <rect
     style="opacity:0.2;fill:#000000;fill-opacity:1;stroke:none;stroke-width:2.90949535;stroke-linecap:round;stroke-linejoin:round;stroke-miterlimit:4;stroke-dasharray:none;stroke-dashoffset:0;stroke-opacity:1"
     id="rect4572"
     width="2"
     height="1"
     x="18"
     y="37" />
  <rect
     y="37"
     x="28"
     height="1"
     width="2"
     id="rect4574"
     style="opacity:0.2;fill:#000000;fill-opacity:1;stroke:none;stroke-width:2.90949535;stroke-linecap:round;stroke-linejoin:round;stroke-miterlimit:4;stroke-dasharray:none;stroke-dashoffset:0;stroke-opacity:1" />
  <path
     style="fill:#ffffff;stroke-width:0.83666003;fill-opacity:1;opacity:0.1"
     d="M 6 10 C 4.892 10 4 10.892 4 12 L 4 13 C 4 11.892 4.892 11 6 11 L 42 11 C 43.108 11 44 11.892 44 13 L 44 12 C 44 10.892 43.108 10 42 10 L 6 10 z "
     id="rect4582" />
  <path
     style="color:#000000;font-style:normal;font-variant:normal;font-weight:normal;font-stretch:normal;font-size:medium;line-height:normal;font-family:sans-serif;font-variant-ligatures:normal;font-variant-position:normal;font-variant-caps:normal;font-variant-numeric:normal;font-variant-alternates:normal;font-feature-settings:normal;text-indent:0;text-align:start;text-decoration:none;text-decoration-line:none;text-decoration-style:solid;text-decoration-color:#000000;letter-spacing:normal;word-spacing:normal;text-transform:none;writing-mode:lr-tb;direction:ltr;text-orientation:mixed;dominant-baseline:auto;baseline-shift:baseline;text-anchor:start;white-space:normal;shape-padding:0;clip-rule:nonzero;display:inline;overflow:visible;visibility:visible;opacity:1;isolation:auto;mix-blend-mode:normal;color-interpolation:sRGB;color-interpolation-filters:linearRGB;solid-color:#000000;solid-opacity:1;vector-effect:none;fill:#ffae3f;fill-opacity:1;fill-rule:nonzero;stroke:none;stroke-width:4;stroke-linecap:round;stroke-linejoin:round;stroke-miterlimit:4;stroke-dasharray:none;stroke-dashoffset:0;stroke-opacity:1;color-rendering:auto;image-rendering:auto;shape-rendering:auto;text-rendering:auto;enable-background:accumulate"
     d="M 10 15 C 8.892 15 8 15.892 8 17 L 8 25 L 8 30 L 8 31 C 8 32.108 8.892 33 10 33 L 38 33 C 39.108 33 40 32.108 40 31 L 40 30 L 40 25 L 40 17 C 40 15.892 39.108 15 38 15 L 10 15 z M 10 17 L 38 17 L 38 25 L 38 30 L 38 31 L 10 31 L 10 30 L 10 25 L 10 17 z "
     id="path4527" />
</svg>
