<?xml version="1.0" encoding="UTF-8" standalone="no"?>
<svg
   xmlns:dc="http://purl.org/dc/elements/1.1/"
   xmlns:cc="http://creativecommons.org/ns#"
   xmlns:rdf="http://www.w3.org/1999/02/22-rdf-syntax-ns#"
   xmlns:svg="http://www.w3.org/2000/svg"
   xmlns="http://www.w3.org/2000/svg"
   xmlns:sodipodi="http://sodipodi.sourceforge.net/DTD/sodipodi-0.dtd"
   xmlns:inkscape="http://www.inkscape.org/namespaces/inkscape"
   height="48"
   width="48"
   version="1"
   id="svg24"
   sodipodi:docname="cloud-player-doubletwist.svg"
   inkscape:version="0.92.1 r15371">
  <metadata
     id="metadata30">
    <rdf:RDF>
      <cc:Work
         rdf:about="">
        <dc:format>image/svg+xml</dc:format>
        <dc:type
           rdf:resource="http://purl.org/dc/dcmitype/StillImage" />
        <dc:title />
      </cc:Work>
    </rdf:RDF>
  </metadata>
  <defs
     id="defs28" />
  <sodipodi:namedview
     pagecolor="#ffffff"
     bordercolor="#666666"
     borderopacity="1"
     objecttolerance="10"
     gridtolerance="10"
     guidetolerance="10"
     inkscape:pageopacity="0"
     inkscape:pageshadow="2"
     inkscape:window-width="1600"
     inkscape:window-height="822"
     id="namedview26"
     showgrid="false"
     inkscape:zoom="18.55"
     inkscape:cx="29.175492"
     inkscape:cy="13.759238"
     inkscape:window-x="0"
     inkscape:window-y="0"
     inkscape:window-maximized="1"
     inkscape:current-layer="svg24">
    <inkscape:grid
       type="xygrid"
       id="grid4520" />
  </sodipodi:namedview>
  <path
     id="path4537"
     d="m 8.9847219,44.958889 c -0.2297037,-0.0409 -0.2740908,-0.095 -0.6148723,-0.74974 -1.9103056,-3.6702 -3.4484339,-8.57566 -4.0491521,-12.91374 -0.2898288,-2.09304 -0.3229887,-2.64414 -0.3205829,-5.3278 0.002,-2.48268 0.014535,-2.73786 0.1988293,-4.12816 0.287443,-2.16832 0.7170889,-4.22552 1.3593673,-6.50885 0.7603532,-2.70312 3.074783,-8.2513501 4.1087358,-9.8496401 l 0.3111301,-0.48094 0.7588689,0.045 c 3.703369,0.2197 7.235304,0.90606 10.874307,2.1132 5.525111,1.83281 9.921279,4.4412501 14.04875,8.3357301 2.151287,2.02987 3.740719,3.85738 5.948431,6.83945 1.199432,1.62013 1.590725,2.20416 2.073199,3.09433 L 44,26.014949 l -0.624676,0.94661 c -1.245513,1.88742 -2.603557,3.58296 -4.375539,5.4629 -1.098639,1.16558 -1.245403,1.30861 -2.499526,2.43605 -1.054122,0.94763 -1.575739,1.37456 -3.103803,2.54038 -0.692821,0.52858 -2.04501,1.42261 -2.836819,1.87562 -0.25289,0.14468 -0.475707,0.28372 -0.495164,0.30898 -0.20708,0.26889 -4.324556,2.24473 -5.304058,2.54524 -0.09794,0.0301 -0.448661,0.15591 -0.779359,0.27969 -0.330697,0.12377 -0.855923,0.3046 -1.167164,0.40185 -0.31125,0.0973 -0.931967,0.29766 -1.379385,0.44537 -0.838612,0.27685 -1.391375,0.40249 -3.395396,0.77173 -3.562108,0.65633 -8.018873,1.11385 -9.0543891,0.9295 z"
     style="opacity:0.2;fill:#000000;fill-opacity:1;stroke-width:0.0706521"
     inkscape:connector-curvature="0" />
  <path
     style="fill:#4fa6e7;fill-opacity:1;stroke-width:0.0706521"
     d="M 8.9847219,43.95888 C 8.7550182,43.91798 8.7106311,43.86388 8.3698496,43.20914 6.459544,39.53894 4.9214157,34.63348 4.3206975,30.2954 4.0308687,28.20236 3.9977088,27.65126 4.0001146,24.9676 c 0.002,-2.48268 0.014535,-2.73786 0.1988293,-4.12816 0.287443,-2.16832 0.7170889,-4.22552 1.3593673,-6.50885 0.7603532,-2.70312 3.074783,-8.2513505 4.1087358,-9.8496405 l 0.2173215,0.4571463 0.7588685,0.045 c 3.703369,0.2197 7.235304,0.90606 10.874307,2.1132 5.525111,1.83281 9.921279,4.4412502 14.04875,8.3357302 2.151287,2.02987 3.740719,3.85738 5.948431,6.83945 1.199432,1.62013 0.371213,1.266074 0.853687,2.156244 l 0.318267,0.58722 -0.624676,0.94661 c -1.245513,1.88742 -2.603557,3.58296 -4.375539,5.4629 -1.098639,1.16558 -1.245403,1.30861 -2.499526,2.43605 -1.054122,0.94763 -1.575739,1.37456 -3.103803,2.54038 -0.692821,0.52858 -2.04501,1.42261 -2.836819,1.87562 -0.25289,0.14468 -0.475707,0.28372 -0.495164,0.30898 -0.20708,0.26889 -4.324556,2.14469 -5.304058,2.4452 -0.09794,0.0301 -0.448661,0.15591 -0.779359,0.27969 -0.330697,0.12377 -0.855923,0.3046 -1.167164,0.40185 -0.31125,0.0973 -0.931967,0.29766 -1.379385,0.44537 -0.838612,0.27685 -1.391375,0.40249 -3.395396,0.77173 -3.562108,0.65633 -6.705552,1.21389 -7.7410681,1.02954 z"
     id="path4500"
     inkscape:connector-curvature="0"
     sodipodi:nodetypes="cccccccccscccccccsccccccccc" />
  <path
     style="opacity:1;fill:#26d5ea;fill-opacity:1;stroke:none;stroke-width:8;stroke-linecap:square;stroke-linejoin:miter;stroke-miterlimit:4;stroke-dasharray:none;stroke-dashoffset:0;stroke-opacity:1"
     d="M 9.9785156 4 C 7.2807819 8.3814914 6.6854064 13.029365 7.0292969 17.816406 C 7.7959102 24.3725 11.306912 29.021849 14 35 L 14 13 C 14.341484 13.020127 14.700644 13.037666 15.046875 13.056641 L 14.947266 13 C 15.653225 13.071074 16.34723 13.121132 17.037109 13.166016 C 17.360428 13.183553 17.679948 13.204003 18.005859 13.222656 C 23.314198 13.507605 28.218333 13.356723 33.314453 15.554688 C 35.195101 16.467518 36.953182 17.535531 38.552734 18.808594 C 39.775777 19.721383 40.937597 20.771697 42 22.027344 L 41.998047 21.876953 C 41.852179 21.677034 41.788183 21.575509 41.609375 21.333984 C 39.401663 18.351914 37.811443 16.524011 35.660156 14.494141 C 31.532685 10.599661 27.136439 7.9910131 21.611328 6.1582031 C 17.972325 4.9510631 14.439697 4.2646219 10.736328 4.0449219 L 9.9785156 4 z "
     id="rect4515" />
  <path
     transform="matrix(1,0,0,0.95262797,40.446479,9.2093857)"
     inkscape:transform-center-y="1.0147584e-06"
     inkscape:transform-center-x="-3.3333331"
     d="m -6.4464788,16.575846 -10.0000002,5.773502 -9.999999,5.773503 0,-11.547006 0,-11.5470044 10,5.7735024 z"
     inkscape:randomized="0"
     inkscape:rounded="0"
     inkscape:flatsided="false"
     sodipodi:arg2="1.0471976"
     sodipodi:arg1="0"
     sodipodi:r2="6.6666665"
     sodipodi:r1="13.333333"
     sodipodi:cy="16.575846"
     sodipodi:cx="-19.779812"
     sodipodi:sides="3"
     id="path4530"
     style="opacity:0.2;fill:#000000;fill-opacity:1;stroke:none;stroke-width:7.45921135;stroke-linecap:square;stroke-linejoin:miter;stroke-miterlimit:4;stroke-dasharray:none;stroke-dashoffset:0;stroke-opacity:1"
     sodipodi:type="star" />
  <path
     sodipodi:type="star"
     style="opacity:1;fill:#ffffff;fill-opacity:1;stroke:none;stroke-width:7.45921135;stroke-linecap:square;stroke-linejoin:miter;stroke-miterlimit:4;stroke-dasharray:none;stroke-dashoffset:0;stroke-opacity:1"
     id="path4518"
     sodipodi:sides="3"
     sodipodi:cx="-19.779812"
     sodipodi:cy="16.575846"
     sodipodi:r1="13.333333"
     sodipodi:r2="6.6666665"
     sodipodi:arg1="0"
     sodipodi:arg2="1.0471976"
     inkscape:flatsided="false"
     inkscape:rounded="0"
     inkscape:randomized="0"
     d="m -6.4464788,16.575846 -10.0000002,5.773502 -9.999999,5.773503 0,-11.547006 0,-11.5470044 10,5.7735024 z"
     inkscape:transform-center-x="-3.3333331"
     inkscape:transform-center-y="1.0147584e-06"
     transform="matrix(1,0,0,0.95262797,40.446479,8.2093857)" />
  <path
     id="path4525"
     d="M 43.80497,25.017293 C 41.359354,20.490241 37.631866,17.650694 33.314221,15.554992 27.253171,12.940851 20.523775,13.656793 14,13 L 34,24 C 28.801256,31.892377 23.166542,41.751787 12.182091,43.73504 l 0.131242,0.07346 c 0.246069,-0.02637 0.36599,-0.03102 0.664561,-0.06512 3.686404,-0.4209 6.064525,-0.884119 8.898087,-1.732253 5.436454,-1.627255 9.893731,-4.130191 14.243548,-7.998674 2.864915,-2.547899 5.225705,-5.264023 7.267655,-8.361384 z"
     style="opacity:1;fill:#2479e2;fill-opacity:1;stroke:none;stroke-width:8;stroke-linecap:square;stroke-linejoin:miter;stroke-miterlimit:4;stroke-dasharray:none;stroke-dashoffset:0;stroke-opacity:1"
     inkscape:connector-curvature="0"
     sodipodi:nodetypes="ccccccccscc" />
  <path
     style="fill:#ffffff;stroke-width:0.0706521;fill-opacity:1;opacity:0.2"
     d="M 9.9785156 4 L 9.6679688 4.4804688 C 8.634016 6.0787588 6.3189469 11.626958 5.5585938 14.330078 C 4.9163154 16.613408 4.4866617 18.671524 4.1992188 20.839844 C 4.0149245 22.230144 4.002 22.484117 4 24.966797 C 3.9998258 25.161085 4.00753 25.211438 4.0078125 25.384766 C 4.0137355 23.615806 4.0366149 23.066513 4.1992188 21.839844 C 4.4866617 19.671524 4.9163153 17.613408 5.5585938 15.330078 C 6.3189469 12.626958 8.634016 7.0787588 9.6679688 5.4804688 L 9.9785156 5 L 10.736328 5.0449219 C 14.439697 5.2646219 17.972325 5.9510631 21.611328 7.1582031 C 27.136439 8.9910131 31.532685 11.599661 35.660156 15.494141 C 37.811443 17.524011 39.401663 19.351914 41.609375 22.333984 C 42.808807 23.954114 43.199167 24.537564 43.681641 25.427734 L 43.703125 25.466797 L 44 25.015625 L 43.681641 24.427734 C 43.199167 23.537564 42.808807 22.954114 41.609375 21.333984 C 39.401663 18.351914 37.811443 16.524011 35.660156 14.494141 C 31.532685 10.599661 27.136439 7.9910131 21.611328 6.1582031 C 17.972325 4.9510631 14.439697 4.2646219 10.736328 4.0449219 L 9.9785156 4 z "
     id="path4532" />
  <path
     id="path4489"
     d="m -64.748862,42.270325 c -0.229703,-0.0409 -0.27409,-0.095 -0.614872,-0.74974 -1.910305,-3.6702 -3.448434,-8.57566 -4.049152,-12.91374 -0.289829,-2.09304 -0.322989,-2.64414 -0.320583,-5.3278 0.002,-2.48268 0.01453,-2.73786 0.198829,-4.12816 0.287443,-2.16832 0.717089,-4.22552 1.359368,-6.50885 0.760353,-2.7031203 3.074783,-8.2513508 4.108736,-9.8496408 l 0.31113,-0.48094 0.758869,0.045 c 3.703369,0.2197 7.235304,0.90606 10.874307,2.1132 5.525111,1.83281 9.921279,4.4412505 14.04875,8.3357308 2.151287,2.02987 3.740719,3.85738 5.948431,6.83945 1.199432,1.62013 1.590725,2.20416 2.073199,3.09433 l 0.318267,0.58722 -0.624676,0.94661 c -1.245513,1.88742 -2.603557,3.58296 -4.375539,5.4629 -1.098639,1.16558 -1.245403,1.30861 -2.499526,2.43605 -1.054122,0.94763 -1.575739,1.37456 -3.103803,2.54038 -0.692821,0.52858 -2.04501,1.42261 -2.836819,1.87562 -0.25289,0.14468 -0.475707,0.28372 -0.495164,0.30898 -0.20708,0.26889 -4.324556,2.24473 -5.304058,2.54524 -0.09794,0.0301 -0.448661,0.15591 -0.779359,0.27969 -0.330697,0.12377 -0.855923,0.3046 -1.167164,0.40185 -0.31125,0.0973 -0.931967,0.29766 -1.379385,0.44537 -0.838612,0.27685 -1.391375,0.40249 -3.395396,0.77173 -3.562108,0.65633 -8.018873,1.11385 -9.05439,0.9295 z"
     style="fill:#4fa6e7;fill-opacity:1;stroke-width:0.0706521"
     inkscape:connector-curvature="0" />
</svg>
