<?xml version="1.0" encoding="UTF-8" standalone="no"?>
<svg
   xmlns:dc="http://purl.org/dc/elements/1.1/"
   xmlns:cc="http://creativecommons.org/ns#"
   xmlns:rdf="http://www.w3.org/1999/02/22-rdf-syntax-ns#"
   xmlns:svg="http://www.w3.org/2000/svg"
   xmlns="http://www.w3.org/2000/svg"
   xmlns:sodipodi="http://sodipodi.sourceforge.net/DTD/sodipodi-0.dtd"
   xmlns:inkscape="http://www.inkscape.org/namespaces/inkscape"
   height="48"
   width="48"
   version="1"
   id="svg12"
   sodipodi:docname="cm-browser.svg"
   inkscape:version="0.91 r13725">
  <metadata
     id="metadata18">
    <rdf:RDF>
      <cc:Work
         rdf:about="">
        <dc:format>image/svg+xml</dc:format>
        <dc:type
           rdf:resource="http://purl.org/dc/dcmitype/StillImage" />
        <dc:title />
      </cc:Work>
    </rdf:RDF>
  </metadata>
  <defs
     id="defs16" />
  <sodipodi:namedview
     pagecolor="#ffffff"
     bordercolor="#666666"
     borderopacity="1"
     objecttolerance="10"
     gridtolerance="10"
     guidetolerance="10"
     inkscape:pageopacity="0"
     inkscape:pageshadow="2"
     inkscape:window-width="1920"
     inkscape:window-height="1018"
     id="namedview14"
     showgrid="true"
     inkscape:zoom="8.0800657"
     inkscape:cx="-2.635876"
     inkscape:cy="25.906133"
     inkscape:window-x="0"
     inkscape:window-y="32"
     inkscape:window-maximized="1"
     inkscape:current-layer="svg12">
    <inkscape:grid
       type="xygrid"
       id="grid4500" />
  </sodipodi:namedview>
  <rect
     transform="matrix(0,-1,-1,0,0,0)"
     rx="2"
     ry="2"
     height="40"
     width="40"
     y="-44"
     x="-44"
     id="rect2"
     style="fill:#fd8320;fill-opacity:1"
     fill="#f59335" />
  <path
     opacity=".2"
     d="m6 4c-1.108 0-2 0.892-2 2v1c0-1.108 0.892-2 2-2h36c1.108 0 2 0.892 2 2v-1c0-1.108-0.892-2-2-2h-36z"
     fill="#fff"
     id="path4"
     style="opacity:0.1" />
  <path
     opacity=".2"
     d="m6 45c-1.108 0-2-0.892-2-2v-1c0 1.108 0.892 2 2 2h36c1.108 0 2-0.892 2-2v1c0 1.108-0.892 2-2 2h-36z"
     id="path6" />
  <path
     id="path4515"
     d="m 42.160156,5.015625 c -0.977971,0.013823 -1.928727,0.046486 -2.625,0.1230469 C 36.732666,5.4468299 33.844152,6.053224 31.5625,6.8125 l -1.068359,0.3554688 -0.875,-0.265625 C 28.346917,6.5155997 28.036358,6.032495 26.773438,6.078125 25.500387,6.124122 25.03125,6.2604814 25.03125,6.5839844 c 0,0.304106 0.827409,1.9277342 0.982422,1.9277344 0.11075,0 0.123205,-0.072722 0.07617,-0.4433594 -0.03097,-0.244043 -0.07463,-0.811228 -0.09766,-0.8925782 -0.0652,-0.230487 0.210343,-0.1860258 0.867187,0.1425782 1.007114,0.503838 1.41698,2.1005567 1.714844,3.2441406 0.14527,0.557719 0.174224,1.134065 0.05078,1.007812 -0.04317,-0.04416 -0.291579,-0.605989 -0.550781,-1.124999 C 27.22085,8.7365796 26.975683,8.689919 24.789062,9.8105469 18.915806,12.820553 14.875032,16.290674 13.84375,19.039062 c -0.356756,0.950774 -0.267995,2.017294 0.214844,2.56836 0.179103,0.204413 0.08609,0.367766 -0.330078,0.580078 -1.759853,0.897811 -5.3451922,3.470816 -5.6074222,4.023438 -0.2794199,0.588833 -0.1632153,0.801395 1.2890624,2.396484 0.3160475,0.347126 0.5903688,0.635139 0.8261718,0.875 C 10.896965,27.408485 12.823385,26.0002 15,26 c 2.761424,0 5,2.238576 5,5 2.17e-4,2.433779 -1.752005,4.514182 -4.150391,4.927734 0.370469,0.393484 0.866073,0.925497 1.22461,1.31836 0.413619,0.453216 0.783685,0.824218 0.822265,0.824218 0.03858,0 0.20035,-0.256544 0.359375,-0.570312 1.401281,-2.764789 4.209549,-4.786337 7.667969,-5.519531 3.09984,-0.694875 5.048216,-2.490407 5.859375,-5.283203 0.258052,-0.897984 0.277698,-2.727785 0.03906,-3.628907 -0.320439,-1.004552 -0.788681,-2.144037 -1.13086,-3.070312 0.107085,-0.08263 0.580992,0.268757 1.011719,0.873047 1.075702,1.50922 1.416016,3.768185 1.416016,5.535156 v 0.654297 l 1.183593,0.05859 c 4.154212,0.314268 7.048058,2.550486 7.605469,6.005859 0.122125,0.757037 0.0648,2.303422 -0.121094,3.253906 -0.554289,2.834056 -2.350912,5.550932 -4.996093,7.839844 L 35.886719,45 l 4.796875,-0.0059 c 0.568757,-7.12e-4 0.96861,-0.0083 1.482422,-0.01172 C 43.194383,44.897248 44,44.051103 44,43 V 7 C 44,5.9468433 43.191414,5.0979836 42.160156,5.015625 Z M 21.992188,17.001953 c 0.07116,0.0655 -0.394047,0.779417 -1.574219,2.40625 -0.626645,0.863814 -1.201298,1.578812 -1.275391,1.589844 -0.07409,0.01102 -0.233941,-0.05435 -0.357422,-0.146485 -0.123481,-0.09213 -0.373433,-0.239689 -0.554687,-0.328124 -0.327834,-0.160005 -0.333371,-0.15995 -0.75,0.0098 -0.230339,0.0938 -0.443623,0.142527 -0.476563,0.111328 -0.07892,-0.07474 1.059811,-1.055791 2.185547,-1.884765 0.960934,-0.707617 2.734347,-1.820761 2.802735,-1.757813 z"
     style="opacity:0.2;fill:#010101;fill-opacity:1;stroke-width:0.08451624"
     inkscape:connector-curvature="0" />
  <path
     style="opacity:1;fill:#fedfc1;stroke-width:0.08451624;fill-opacity:1"
     d="M 42.160156 4.015625 C 41.182185 4.029448 40.231429 4.062111 39.535156 4.1386719 C 36.732666 4.4468299 33.844152 5.053224 31.5625 5.8125 L 30.494141 6.1679688 L 29.619141 5.9023438 C 28.346917 5.5155997 28.036358 5.032495 26.773438 5.078125 C 25.500387 5.124122 25.03125 5.2604814 25.03125 5.5839844 C 25.03125 5.8880904 25.858659 7.5117186 26.013672 7.5117188 C 26.124422 7.5117188 26.136877 7.4389968 26.089844 7.0683594 C 26.058874 6.8243164 26.015217 6.2571314 25.992188 6.1757812 C 25.926987 5.9452942 26.202531 5.9897554 26.859375 6.3183594 C 27.866489 6.8221974 28.276355 8.4189161 28.574219 9.5625 C 28.719489 10.120219 28.748443 10.696565 28.625 10.570312 C 28.581827 10.526154 28.333421 9.9643226 28.074219 9.4453125 C 27.22085 7.7365796 26.975683 7.689919 24.789062 8.8105469 C 18.915806 11.820553 14.875032 15.290674 13.84375 18.039062 C 13.486994 18.989836 13.575755 20.056356 14.058594 20.607422 C 14.237697 20.811835 14.144684 20.975188 13.728516 21.1875 C 11.968663 22.085311 8.3833238 24.658316 8.1210938 25.210938 C 7.8416739 25.799771 7.9578785 26.012333 9.4101562 27.607422 C 9.7262037 27.954548 10.000525 28.242561 10.236328 28.482422 C 10.896965 26.408485 12.823385 25.0002 15 25 C 17.761424 25 20 27.238576 20 30 C 20.000217 32.433779 18.247995 34.514182 15.849609 34.927734 C 16.220078 35.321218 16.715682 35.853231 17.074219 36.246094 C 17.487838 36.69931 17.857904 37.070312 17.896484 37.070312 C 17.935064 37.070312 18.096834 36.813768 18.255859 36.5 C 19.65714 33.735211 22.465408 31.713663 25.923828 30.980469 C 29.023668 30.285594 30.972044 28.490062 31.783203 25.697266 C 32.041255 24.799282 32.060901 22.969481 31.822266 22.068359 C 31.501827 21.063807 31.033585 19.924322 30.691406 18.998047 C 30.798491 18.915417 31.272398 19.266804 31.703125 19.871094 C 32.778827 21.380314 33.119141 23.639279 33.119141 25.40625 L 33.119141 26.060547 L 34.302734 26.119141 C 38.456946 26.433409 41.350792 28.669627 41.908203 32.125 C 42.030328 32.882037 41.973003 34.428422 41.787109 35.378906 C 41.23282 38.212962 39.436197 40.929838 36.791016 43.21875 L 35.886719 44 L 40.683594 43.994141 C 41.252351 43.993429 41.652204 43.985842 42.166016 43.982422 C 43.194383 43.897248 44 43.051103 44 42 L 44 6 C 44 4.9468433 43.191414 4.0979836 42.160156 4.015625 z M 21.992188 16.001953 C 22.063347 16.067453 21.598141 16.78137 20.417969 18.408203 C 19.791324 19.272017 19.216671 19.987015 19.142578 19.998047 C 19.068488 20.009067 18.908637 19.943693 18.785156 19.851562 C 18.661675 19.759432 18.411723 19.611873 18.230469 19.523438 C 17.902635 19.363433 17.897098 19.363488 17.480469 19.533203 C 17.25013 19.627003 17.036846 19.67573 17.003906 19.644531 C 16.924986 19.569791 18.063717 18.58874 19.189453 17.759766 C 20.150387 17.052149 21.9238 15.939005 21.992188 16.001953 z "
     id="path4512" />
</svg>
