<?xml version="1.0" encoding="UTF-8" standalone="no"?>
<svg
   xmlns:dc="http://purl.org/dc/elements/1.1/"
   xmlns:cc="http://creativecommons.org/ns#"
   xmlns:rdf="http://www.w3.org/1999/02/22-rdf-syntax-ns#"
   xmlns:svg="http://www.w3.org/2000/svg"
   xmlns="http://www.w3.org/2000/svg"
   xmlns:sodipodi="http://sodipodi.sourceforge.net/DTD/sodipodi-0.dtd"
   xmlns:inkscape="http://www.inkscape.org/namespaces/inkscape"
   height="48"
   width="48"
   version="1"
   id="svg28"
   sodipodi:docname="dreams-player.svg"
   inkscape:version="0.92.1 r15371">
  <metadata
     id="metadata34">
    <rdf:RDF>
      <cc:Work
         rdf:about="">
        <dc:format>image/svg+xml</dc:format>
        <dc:type
           rdf:resource="http://purl.org/dc/dcmitype/StillImage" />
        <dc:title></dc:title>
      </cc:Work>
    </rdf:RDF>
  </metadata>
  <defs
     id="defs32" />
  <sodipodi:namedview
     pagecolor="#ffffff"
     bordercolor="#666666"
     borderopacity="1"
     objecttolerance="10"
     gridtolerance="10"
     guidetolerance="10"
     inkscape:pageopacity="0"
     inkscape:pageshadow="2"
     inkscape:window-width="1600"
     inkscape:window-height="822"
     id="namedview30"
     showgrid="false"
     inkscape:zoom="7.54"
     inkscape:cx="26.09226"
     inkscape:cy="24"
     inkscape:window-x="0"
     inkscape:window-y="0"
     inkscape:window-maximized="1"
     inkscape:current-layer="svg28" />
  <polygon
     points="502 812.5 551.5 721.5 612.5 637 628.5 616 668 619.5 707 615 713 603 688.5 578 676.5 569.5 693.5 560.5 693.5 540 732.5 497.5 664 430.5 588 333 517.5 214 500 192 386 355 328 328 304 332.5 299.5 366 318.5 403.5 338 431 309.5 462 275.5 507 300 533 304 551 318.5 569.5 340.5 583 351.5 604.5 373.5 617 395 637.5 452.5 723 488.5 788.5"
     display="none"
     transform="matrix(.063142 0 0 .063142 -131 -8.0295)"
     fill="#5a0e00"
     id="polygon2" />
  <rect
     transform="matrix(0,-1,-1,0,0,0)"
     rx="2"
     ry="2"
     height="40"
     width="40"
     y="-44"
     x="-44"
     fill="#4f4f4f"
     id="rect4" />
  <path
     opacity=".1"
     d="m6 4c-1.108 0-2 0.892-2 2v1c0-1.108 0.892-2 2-2h36c1.108 0 2 0.892 2 2v-1c0-1.108-0.892-2-2-2h-36z"
     fill="#fff"
     id="path6" />
  <path
     opacity=".2"
     d="m6 45c-1.108 0-2-0.892-2-2v-1c0 1.108 0.892 2 2 2h36c1.108 0 2-0.892 2-2v1c0 1.108-0.892 2-2 2h-36z"
     id="path8" />
  <rect
     id="rect4495"
     x="-41"
     y="-41"
     width="34"
     height="34"
     ry="1.6999999"
     rx="1.6999999"
     transform="matrix(0,-1,-1,0,0,0)"
     style="fill:#3f3f3f;fill-opacity:1;stroke-width:0.84999996" />
  <path
     transform="matrix(1.5428702,0,0,1.6330903,-14.268418,-14.84431)"
     inkscape:transform-center-x="-2.999999"
     d="m 31.284821,24.398106 -5.833285,3.367848 -5.833283,3.367848 0,-6.735697 0,-6.735695 5.833284,3.367848 z"
     inkscape:randomized="0"
     inkscape:rounded="0"
     inkscape:flatsided="false"
     sodipodi:arg2="1.0471976"
     sodipodi:arg1="0"
     sodipodi:r2="3.8888559"
     sodipodi:r1="7.7777119"
     sodipodi:cy="24.398106"
     sodipodi:cx="23.507109"
     sodipodi:sides="3"
     id="path4497"
     style="opacity:0.2;fill:#000000;fill-opacity:1;stroke:none;stroke-width:4;stroke-linecap:round;stroke-linejoin:round;stroke-miterlimit:4;stroke-dasharray:none;stroke-dashoffset:0;stroke-opacity:1"
     sodipodi:type="star" />
  <path
     sodipodi:type="star"
     style="opacity:1;fill:#f7fbf0;fill-opacity:1;stroke:none;stroke-width:4;stroke-linecap:round;stroke-linejoin:round;stroke-miterlimit:4;stroke-dasharray:none;stroke-dashoffset:0;stroke-opacity:1"
     id="path4487"
     sodipodi:sides="3"
     sodipodi:cx="23.507109"
     sodipodi:cy="24.398106"
     sodipodi:r1="7.7777119"
     sodipodi:r2="3.8888559"
     sodipodi:arg1="0"
     sodipodi:arg2="1.0471976"
     inkscape:flatsided="false"
     inkscape:rounded="0"
     inkscape:randomized="0"
     d="m 31.284821,24.398106 -5.833285,3.367848 -5.833283,3.367848 0,-6.735697 0,-6.735695 5.833284,3.367848 z"
     inkscape:transform-center-x="-2.999999"
     transform="matrix(1.5428702,0,0,1.6330903,-14.268418,-15.84431)" />
</svg>
