<?xml version="1.0" encoding="UTF-8" standalone="no"?>
<!-- Generator: Adobe Illustrator 16.0.0, SVG Export Plug-In . SVG Version: 6.00 Build 0)  -->

<svg
   xmlns:dc="http://purl.org/dc/elements/1.1/"
   xmlns:cc="http://creativecommons.org/ns#"
   xmlns:rdf="http://www.w3.org/1999/02/22-rdf-syntax-ns#"
   xmlns:svg="http://www.w3.org/2000/svg"
   xmlns="http://www.w3.org/2000/svg"
   xmlns:sodipodi="http://sodipodi.sourceforge.net/DTD/sodipodi-0.dtd"
   xmlns:inkscape="http://www.inkscape.org/namespaces/inkscape"
   version="1.1"
   id="Layer_1"
   x="0px"
   y="0px"
   width="48"
   height="48"
   viewBox="0 0 48 48"
   enable-background="new 0 0 250 200"
   xml:space="preserve"
   inkscape:version="0.92.1 r15371"
   sodipodi:docname="duck-duck-go.svg"><metadata
     id="metadata3619"><rdf:RDF><cc:Work
         rdf:about=""><dc:format>image/svg+xml</dc:format><dc:type
           rdf:resource="http://purl.org/dc/dcmitype/StillImage" /><dc:title></dc:title></cc:Work></rdf:RDF></metadata><defs
     id="defs3617" /><sodipodi:namedview
     pagecolor="#7a7a7a"
     bordercolor="#666666"
     borderopacity="1"
     objecttolerance="10"
     gridtolerance="10"
     guidetolerance="10"
     inkscape:pageopacity="0"
     inkscape:pageshadow="2"
     inkscape:window-width="1600"
     inkscape:window-height="822"
     id="namedview3615"
     showgrid="false"
     inkscape:zoom="1"
     inkscape:cx="32.15675"
     inkscape:cy="18.773234"
     inkscape:window-x="0"
     inkscape:window-y="0"
     inkscape:window-maximized="1"
     inkscape:current-layer="Layer_1"><inkscape:grid
       type="xygrid"
       id="grid1184" /></sodipodi:namedview><circle
     cx="24"
     cy="25"
     r="20"
     id="circle1437"
     style="opacity:0.2;fill:#000000;fill-opacity:1;stroke-width:0.3910068" /><circle
     style="fill:#d45e3d;stroke-width:0.3910068;fill-opacity:1"
     id="circle3499"
     r="20"
     cy="24"
     cx="24" /><path
     style="opacity:0.2;fill:#000000;fill-opacity:1;stroke-width:0.3910068"
     d="m 16.433594,8.9850077 c -0.618384,0.00233 -0.934315,0.056241 -1.539594,0.1660157 0.387097,0.035191 0.972058,0.8358859 1.328656,0.8886716 C 15.682676,10.405678 13.990616,10.259316 14,11.073 c 1.92219,-0.192374 4.284989,0.209286 6.056641,0.995992 -1.408407,0.160312 -2.719413,0.810221 -3.640625,1.296242 -2.679961,1.408798 -3.88461,4.225831 -3.180016,8.175782 0.692722,3.870731 3.7526,17.596604 4.796,22.654296 C 19.840931,44.724578 22.115236,44.995487 24,45 c 1.602048,-0.0069 3.497513,-0.206225 5.052,-0.59375 -0.806515,-1.554766 -1.860179,-2.996249 -2.348875,-3.972656 -1.552297,-3.10303 -3.20419,-7.474201 -2.498422,-10.292969 0.130987,-0.511828 0.133178,-2.60676 0.558593,-2.884766 C 28.052054,25.107668 27.680352,25.962263 29,25 c 0.680352,-0.496969 1.56291,0.124242 1.799469,-0.699219 0.846138,-2.960703 -1.275002,-8.617359 -3.529938,-10.873078 -0.734702,-0.734701 -1.863991,-1.197418 -3.136719,-1.441406 -0.48954,-0.67175 -1.278595,-1.1136 -2.396484,-1.708321 C 20.15539,9.4386804 18.288744,8.9780246 16.433594,8.9850077 Z"
     id="path1439"
     inkscape:connector-curvature="0"
     sodipodi:nodetypes="scccccccccccccccccs" /><path
     sodipodi:nodetypes="scccccccccccccccccs"
     inkscape:connector-curvature="0"
     id="path3577"
     d="m 16.433594,7.9850077 c -0.618384,0.00233 -0.934315,0.056241 -1.539594,0.1660157 0.387097,0.035191 0.972058,0.8358859 1.328656,0.8886719 C 15.682676,9.4056776 13.990616,9.2593157 14,10.073 c 1.92219,-0.1923744 4.284989,0.209286 6.056641,0.995992 -1.408407,0.160312 -2.719413,0.810221 -3.640625,1.296242 -2.679961,1.408798 -3.88461,4.225831 -3.180016,8.175782 0.692722,3.870731 3.7526,17.596604 4.796,22.654296 C 19.840931,43.724578 22.115236,43.995487 24,44 c 1.602048,-0.0069 3.497513,-0.206225 5.052,-0.59375 -0.806515,-1.554766 -1.860179,-2.996249 -2.348875,-3.972656 -1.552297,-3.10303 -3.20419,-7.474201 -2.498422,-10.292969 0.130987,-0.511828 0.133178,-2.60676 0.558593,-2.884766 3.288758,-2.148191 3.255587,-0.07094 4.575235,-1.033203 0.680352,-0.496969 1.224379,-1.098414 1.460938,-1.921875 C 31.645607,20.340078 29.524467,14.683422 27.269531,12.427703 26.534829,11.693002 25.40554,11.230285 24.132812,10.986297 23.643272,10.314547 22.854217,9.8726975 21.736328,9.2779765 20.15539,8.4386804 18.288744,7.9780246 16.433594,7.9850077 Z"
     style="fill:#ffffff;stroke-width:0.3910068" /><path
     d="m 17,20.500396 c 0,-0.82902 0.670584,-1.5 1.500792,-1.5 0.827832,0 1.499208,0.67098 1.499208,1.5 C 20,21.329812 19.328624,22 18.500792,22 17.670584,22.000396 17,21.329812 17,20.500396 Z"
     id="path3579"
     inkscape:connector-curvature="0"
     style="fill:#2d4f8e;stroke-width:0.39609182" /><path
     d="M 18,20.499744 C 18,20.222674 18.224542,20 18.498982,20 18.775458,20 19,20.222674 19,20.499744 19,20.7758 18.775458,20.999999 18.498982,20.999999 18.225051,21.000507 18,20.7758 18,20.499744 Z"
     id="path3581"
     inkscape:connector-curvature="0"
     style="fill:#ffffff;stroke-width:0.50877655" /><path
     d="M 27,19.498156 C 27,18.671635 27.673479,18 28.499078,18 29.329287,18 30,18.671635 30,19.498156 30,20.328365 29.329287,21 28.499078,21 27.673479,21 27,20.328365 27,19.498156 Z"
     id="path3583"
     inkscape:connector-curvature="0"
     style="fill:#2d4f8e;stroke-width:0.46097115" /><path
     d="M 28,19.500296 C 28,19.225519 28.22506,19 28.497625,19 28.782066,19 29,19.225519 29,19.500296 29,19.778636 28.782066,20 28.497625,20 28.22506,20 28,19.778636 28,19.500296 Z"
     id="path3585"
     inkscape:connector-curvature="0"
     style="fill:#ffffff;stroke-width:0.59364796" /><path
     d="m 18.350032,16.545357 c 0,0 -1.115933,-0.504789 -2.200977,0.177126 C 15.065966,17.403617 15.105849,18.1 15.105849,18.1 c 0,0 -0.575953,-1.283675 0.95914,-1.912805 1.536656,-0.62913 2.285043,0.358162 2.285043,0.358162 z"
     id="path3592"
     inkscape:connector-curvature="0"
     style="fill:#2d4f8e;fill-opacity:1;stroke-width:0.3910068" /><path
     d="m 29.051809,15.968622 c 0,0 -0.801955,-0.45826 -1.424438,-0.45044 C 26.348388,15.534992 26,16.1 26,16.1 c 0,0 0.214663,-1.347019 1.850245,-1.076833 0.886803,0.14741 1.201564,0.945455 1.201564,0.945455 z"
     id="path3599"
     inkscape:connector-curvature="0"
     style="fill:#2d4f8e;fill-opacity:1;stroke-width:0.3910068" /><path
     sodipodi:nodetypes="cccccccccccc"
     d="m 23.02622,27.047548 c 0.150338,-0.923401 2.498647,-2.670245 4.161502,-2.775846 1.666426,-0.106805 2.185673,-0.08262 3.57403,-0.420387 1.392324,-0.337761 4.972304,-1.244636 5.963194,-1.709763 0.993272,-0.465932 5.198011,0.230548 2.233669,1.90968 -1.282048,0.729127 -4.737473,2.068078 -7.208353,2.81615 -2.466913,0.750087 -3.563147,-0.715827 -4.384262,0.516315 -0.652924,0.980231 -0.53211,2.322406 2.416364,2.600919 3.981414,0.374841 7.798605,-1.721866 8.218682,-0.554616 0.42206,1.166846 -3.42131,2.522736 -5.761684,2.569089 -2.337598,0.04474 -7.049289,-1.570306 -7.756953,-2.070499 -0.70846,-0.498982 -1.652147,-1.664619 -1.456189,-2.881042 z"
     id="path1441"
     inkscape:connector-curvature="0"
     style="opacity:0.2;fill:#000000;fill-opacity:1;stroke-width:0.39985198" /><path
     style="fill:#fdd20a;stroke-width:0.39985198"
     inkscape:connector-curvature="0"
     id="path3601"
     d="m 23.02622,26.047548 c 0.150338,-0.923401 2.498647,-2.670245 4.161502,-2.775846 1.666426,-0.106805 2.185673,-0.08262 3.57403,-0.420387 1.392324,-0.337761 4.972304,-1.244636 5.963194,-1.709763 0.993272,-0.465932 5.198011,0.230548 2.233669,1.90968 -1.282048,0.729127 -4.737473,2.068078 -7.208353,2.81615 -2.466913,0.750087 -3.563147,-0.715827 -4.384262,0.516315 -0.652924,0.980231 -0.53211,2.322406 2.416364,2.600919 3.981414,0.374841 7.798605,-1.721866 8.218682,-0.554616 0.42206,1.166846 -3.42131,2.522736 -5.761684,2.569089 -2.337598,0.04474 -7.049289,-1.570306 -7.756953,-2.070499 -0.70846,-0.498982 -1.652147,-1.664619 -1.456189,-2.881042 z"
     sodipodi:nodetypes="cccccccccccc" /><path
     style="opacity:0.2;fill:#000000;fill-opacity:1;stroke-width:0.38983983"
     d="m 19.294922,36.976725 c -0.15843,0.02556 -0.252498,0.106739 -0.263672,0.255859 -0.0925,1.194917 7.6e-5,6.364094 0.638672,6.732422 0.538143,0.30851 3.706001,-1.507673 4.746094,-2.119141 0.06342,0.03017 0.127453,0.06033 0.210937,0.07813 0.756195,0.165359 2.065705,0.03231 2.785156,-0.248047 1.289357,0.5617 3.604882,1.515645 4.128907,1.322266 0.7311,-0.281134 0.549011,-5.812708 -0.271485,-6 -0.556082,-0.12408 -2.390871,0.851492 -3.558593,1.513672 -0.02828,-0.103791 -0.06153,-0.25764 -0.08398,-0.3125 -0.194811,-0.464477 -3.580078,-0.09021 -3.580078,0.746094 0,0.0075 9e-6,0.01202 0,0.01953 -1.060581,-0.603898 -3.847551,-2.134178 -4.751953,-1.988281 z"
     id="path1454"
     inkscape:connector-curvature="0" /><path
     style="fill:#8bee59;fill-opacity:1;stroke-width:0.38983983"
     inkscape:connector-curvature="0"
     id="path3605"
     d="m 24.60097,38.281728 c 0,0 -5.481113,-3.24069 -5.570509,-2.047728 -0.0925,1.194917 0,6.364052 0.638596,6.73238 0.63976,0.366765 5.206707,-2.38827 5.206707,-2.38827 z"
     sodipodi:nodetypes="ccccc" /><path
     style="fill:#8bee59;fill-opacity:1;stroke-width:0.38983983"
     inkscape:connector-curvature="0"
     id="path3607"
     d="m 26.700988,38.096391 c 0,0 3.744897,-2.280164 4.568502,-2.096391 0.820496,0.187292 1.003562,5.718866 0.272462,6 -0.7311,0.269795 -5.017034,-1.71358 -5.017034,-1.71358 z"
     sodipodi:nodetypes="ccccc" /><path
     style="fill:#5ec625;stroke-width:0.40383956;fill-opacity:1"
     inkscape:connector-curvature="0"
     id="path3611"
     d="m 24.046721,37.948107 c 0,1.953341 -0.291184,2.791619 0.580313,2.977331 0.867379,0.189672 2.514001,0 3.096783,-0.371425 0.580724,-0.37261 0.09514,-2.882295 -0.0972,-3.352317 -0.194811,-0.464477 -3.579898,-0.08989 -3.579898,0.746411 z" /><path
     style="fill:#ffffff;stroke-width:0.3910068;fill-opacity:1;opacity:0.2"
     d="M 24 4 A 20 20 0 0 0 4 24 A 20 20 0 0 0 4.0214844 24.582031 A 20 20 0 0 1 24 5 A 20 20 0 0 1 43.978516 24.417969 A 20 20 0 0 0 44 24 A 20 20 0 0 0 24 4 z "
     id="circle1432" /></svg>