<?xml version="1.0" encoding="UTF-8" standalone="no"?>
<svg
   xmlns:dc="http://purl.org/dc/elements/1.1/"
   xmlns:cc="http://creativecommons.org/ns#"
   xmlns:rdf="http://www.w3.org/1999/02/22-rdf-syntax-ns#"
   xmlns:svg="http://www.w3.org/2000/svg"
   xmlns="http://www.w3.org/2000/svg"
   xmlns:sodipodi="http://sodipodi.sourceforge.net/DTD/sodipodi-0.dtd"
   xmlns:inkscape="http://www.inkscape.org/namespaces/inkscape"
   height="48"
   width="48"
   version="1"
   id="svg14"
   sodipodi:docname="ellen-mp3-player.svg"
   inkscape:version="0.92.1 r15371">
  <metadata
     id="metadata20">
    <rdf:RDF>
      <cc:Work
         rdf:about="">
        <dc:format>image/svg+xml</dc:format>
        <dc:type
           rdf:resource="http://purl.org/dc/dcmitype/StillImage" />
        <dc:title></dc:title>
      </cc:Work>
    </rdf:RDF>
  </metadata>
  <defs
     id="defs18" />
  <sodipodi:namedview
     pagecolor="#ffffff"
     bordercolor="#666666"
     borderopacity="1"
     objecttolerance="10"
     gridtolerance="10"
     guidetolerance="10"
     inkscape:pageopacity="0"
     inkscape:pageshadow="2"
     inkscape:window-width="1600"
     inkscape:window-height="822"
     id="namedview16"
     showgrid="false"
     inkscape:zoom="6.97"
     inkscape:cx="-4.1205165"
     inkscape:cy="24"
     inkscape:window-x="0"
     inkscape:window-y="0"
     inkscape:window-maximized="1"
     inkscape:current-layer="svg14" />
  <path
     opacity=".2"
     stroke-linejoin="round"
     d="m12 33.001 3-14 2 23 2-21 0.844 18.469 2.156-15.469 1 11 2-14 1 18 3-20 3 22 1-16 3 8"
     stroke="#000"
     stroke-linecap="round"
     stroke-width="2"
     fill="none"
     id="path2" />
  <path
     stroke-linejoin="round"
     d="m12 32 3-14 2 23 2-21 0.844 18.469 2.156-15.469l1 11 2-14 1 18 3-20 3 22 1-16 3 8"
     stroke="#fbc34f"
     stroke-linecap="round"
     stroke-width="2"
     fill="none"
     id="path4"
     style="stroke:#ce4ffb;stroke-opacity:1" />
  <path
     opacity=".2"
     d="m14.982 17a1.0001 1.0001 0 0 0 -0.96094 0.79102l-3 14a1.0006 1.0006 0 0 0 0.07617 0.64062l2.9238-13.643a1.0001 1.0001 0 0 1 0.96094 -0.79102 1.0001 1.0001 0 0 1 1.0137 0.91406l1.0488 12.061 0.95898-10.07a1.0001 1.0001 0 0 1 1.9941 0.05078l0.34961 7.6562 0.66211-4.75a1.0001 1.0001 0 0 1 1.9863 0.04883l0.22461 2.4727 0.78906-5.5234a1.0001 1.0001 0 0 1 1.9883 0.08594l0.45898 8.2676 1.5547-10.361a1.0001 1.0001 0 0 1 1.9785 0.01367l1.6406 12.025 0.37109-5.9531a1.0001 1.0001 0 0 1 1.9336 -0.28906l2.9512 7.8711a1.0001 1.0001 0 0 0 0.04883 -0.86914l-3-8a1.0001 1.0001 0 0 0 -1.9336 0.28906l-0.37109 5.9531-1.6406-12.025a1.0001 1.0001 0 0 0 -1.9785 -0.01367l-1.5547 10.361-0.45898-8.2676a1.0001 1.0001 0 0 0 -1.9883 -0.08594l-0.78906 5.5234-0.22461-2.4727a1.0001 1.0001 0 0 0 -1.9863 -0.04883l-0.66211 4.75-0.34961-7.6562a1.0001 1.0001 0 0 0 -1.9941 -0.05078l-0.959 10.07-1.049-12.061a1.0001 1.0001 0 0 0 -1.014 -0.914z"
     fill-rule="evenodd"
     fill="#fff"
     id="path6" />
  <path
     d="m 24,5.8633 c -4.5592,0 -8.717,1.4234 -11.784,3.8135 C 9.1487,12.067 7.1562,15.487 7.1562,19.291 v 1.375 C 4.111,22.209 2,26.256 2,31 2,37.072 5.4545,42 9.9062,42 V 19.291 c 0,-2.849 1.4746,-5.4711 4.0068,-7.4443 C 16.445,9.8731 20.021,8.613 24,8.613 c 3.979,0 7.5547,1.2602 10.087,3.2334 2.5322,1.9732 4.0068,4.5953 4.0068,7.4443 v 22.709 c 4.452,0 7.906,-4.928 7.906,-11 0,-4.744 -2.111,-8.791 -5.156,-10.334 v -1.375 c 0,-3.8044 -1.9924,-7.2242 -5.0596,-9.6143 -3.067,-2.39 -7.225,-3.8134 -11.784,-3.8134 z"
     id="path4501"
     style="fill:#4fa4fb;fill-opacity:1" />
  <path
     d="m 10.938,20.3443 v 21.656 c 0.6875,0 1.375,-0.34375 1.7188,-1.0312 v -19.938 c -0.345,-0.343 -1.032,-0.687 -1.719,-0.687 z"
     id="path4499"
     style="fill:#2c6aaa;fill-opacity:1" />
  <path
     d="m 37.063,20.3443 c -0.6875,0 -1.375,0.34375 -1.7188,0.6875 v 19.938 c 0.344,0.686 1.031,1.03 1.718,1.03 v -21.656 z"
     id="path8"
     style="fill:#2c6aaa;fill-opacity:1" />
  <path
     opacity=".2"
     fill="#fff"
     d="m24 5.8633c-4.5592 0-8.718 1.4224-11.785 3.8125-3.0673 2.3902-5.0588 5.8112-5.0588 9.6152v1c0-3.8044 1.9915-7.2252 5.0586-9.6152 3.067-2.3903 7.226-3.8127 11.785-3.8127 4.5592 0 8.718 1.4224 11.785 3.8125 3.0671 2.3901 5.0586 5.8108 5.0586 9.6152v-1c0-3.8044-1.9915-7.2252-5.0586-9.6152-3.067-2.3901-7.226-3.8125-11.785-3.8125zm-13.062 14.481v1c0.6875 0 1.375 0.34375 1.7188 0.6875v-1c-0.345-0.344-1.032-0.688-1.719-0.688zm26.125 0c-0.6875 0-1.375 0.34375-1.7188 0.6875v1c0.34375-0.34375 1.0312-0.6875 1.7188-0.6875v-1zm-29.907 0.322c-3.0452 1.543-5.1562 5.59-5.1562 10.334 0 0.20688 0.013561 0.4092 0.021484 0.61328 0.11302-4.5732 2.1741-8.4472 5.1348-9.9473v-1zm33.688 0v1c2.9607 1.5001 5.0217 5.3741 5.1348 9.9473 0.007-0.204 0.021-0.406 0.021-0.613 0-4.744-2.111-8.791-5.156-10.334z"
     id="path10" />
  <path
     opacity=".2"
     d="m24 8.613c-3.979 1e-7 -7.5537 1.2611-10.086 3.2344-2.5322 1.9732-4.0078 4.5943-4.0078 7.4434v1c0-2.849 1.4756-5.4701 4.0078-7.4434 2.532-1.9736 6.107-3.2347 10.086-3.2347s7.5537 1.2611 10.086 3.2344c2.5322 1.9732 4.0078 4.5943 4.0078 7.4434v-1c0-2.849-1.4756-5.4701-4.0078-7.4434-2.532-1.9745-6.107-3.2356-10.086-3.2356zm-21.978 23c-0.0032 0.131-0.0215 0.255-0.0215 0.387 0 6.072 3.4545 11 7.9062 11v-1c-4.3 0-7.6601-4.601-7.8847-10.387zm43.957 0c-0.224 5.786-3.584 10.387-7.884 10.387v1c4.452 0 7.906-4.928 7.906-11 0-0.132-0.018-0.256-0.021-0.387zm-33.322 9.356c-0.344 0.687-1.031 1.031-1.718 1.031v1c0.6875 0 1.375-0.34375 1.7188-1.0312v-1zm22.688 0v1c0.344 0.687 1.031 1.031 1.718 1.031v-1c-0.6875 0-1.375-0.34375-1.7188-1.0312z"
     id="path12" />
</svg>
