<?xml version="1.0" encoding="UTF-8" standalone="no"?>
<svg
   xmlns:dc="http://purl.org/dc/elements/1.1/"
   xmlns:cc="http://creativecommons.org/ns#"
   xmlns:rdf="http://www.w3.org/1999/02/22-rdf-syntax-ns#"
   xmlns:svg="http://www.w3.org/2000/svg"
   xmlns="http://www.w3.org/2000/svg"
   xmlns:sodipodi="http://sodipodi.sourceforge.net/DTD/sodipodi-0.dtd"
   xmlns:inkscape="http://www.inkscape.org/namespaces/inkscape"
   height="48"
   width="48"
   version="1"
   id="svg12"
   sodipodi:docname="exsoul-web-browser.svg"
   inkscape:version="0.92.1 r15371">
  <metadata
     id="metadata18">
    <rdf:RDF>
      <cc:Work
         rdf:about="">
        <dc:format>image/svg+xml</dc:format>
        <dc:type
           rdf:resource="http://purl.org/dc/dcmitype/StillImage" />
        <dc:title></dc:title>
      </cc:Work>
    </rdf:RDF>
  </metadata>
  <defs
     id="defs16">
    <style
       id="current-color-scheme"
       type="text/css">
   .ColorScheme-Text { color:#5c616c; } .ColorScheme-Highlight { color:#5294e2; } .ColorScheme-ButtonBackground { color:#d3dae3; }
  </style>
    <style
       id="current-color-scheme-3"
       type="text/css">
   .ColorScheme-Text { color:#5c616c; } .ColorScheme-Highlight { color:#5294e2; } .ColorScheme-ButtonBackground { color:#d3dae3; }
  </style>
    <style
       id="current-color-scheme-6"
       type="text/css">
   .ColorScheme-Text { color:#5c616c; } .ColorScheme-Highlight { color:#5294e2; } .ColorScheme-ButtonBackground { color:#d3dae3; }
  </style>
    <style
       id="current-color-scheme-7"
       type="text/css">
   .ColorScheme-Text { color:#5c616c; } .ColorScheme-Highlight { color:#5294e2; } .ColorScheme-ButtonBackground { color:#d3dae3; }
  </style>
  </defs>
  <sodipodi:namedview
     pagecolor="#ffffff"
     bordercolor="#666666"
     borderopacity="1"
     objecttolerance="10"
     gridtolerance="10"
     guidetolerance="10"
     inkscape:pageopacity="0"
     inkscape:pageshadow="2"
     inkscape:window-width="1600"
     inkscape:window-height="822"
     id="namedview14"
     showgrid="false"
     inkscape:zoom="1"
     inkscape:cx="15.614711"
     inkscape:cy="25.262946"
     inkscape:window-x="0"
     inkscape:window-y="0"
     inkscape:window-maximized="1"
     inkscape:current-layer="svg12"
     inkscape:object-nodes="false"
     inkscape:snap-nodes="false"
     inkscape:snap-global="false">
    <inkscape:grid
       type="xygrid"
       id="grid4526" />
  </sodipodi:namedview>
  <rect
     transform="matrix(0,-1,-1,0,0,0)"
     rx="20"
     ry="20"
     height="40"
     width="40"
     y="-44"
     x="-44"
     id="rect2"
     style="fill:#3f3f3f;fill-opacity:1;stroke-width:1.00005007" />
  <path
     id="path4541"
     d="M 33.945312,7.6460384 33.535156,8.0815852 C 31.991541,9.7249851 30.655273,10.323272 22.056641,13.22221 11.643159,16.733003 7.9034697,18.5262 4.5917969,21.595257 c -0.1545923,0.143266 -0.2635005,0.247457 -0.3613281,0.349609 -9.66e-5,6.36e-4 9.64e-5,0.0013 0,0.002 -0.1445486,0.951877 -0.2201337,1.928002 -0.2265626,2.919922 0.00578,0.0025 0.0077,0.0053 0.013672,0.0078 0.6038388,0.257001 8.3986299,0.08661 10.3632809,-0.226562 3.617824,-0.57669 7.792801,-1.925563 10.382813,-3.353516 3.267897,-1.801689 6.115912,-4.282836 7.832031,-6.826172 0.8435,-1.250087 2.744336,-5.1903444 2.847656,-5.8789062 C 34.959846,8.2523297 34.458991,7.9401092 33.945312,7.6460384 Z m 5.66211,4.8749996 c -0.350607,-0.116871 -3.161198,2.384056 -6.81836,6.066407 -7.405267,7.45627 -9.666921,9.190585 -14.679687,11.265625 -2.063208,0.854069 -4.019478,1.300533 -6.246094,1.421875 -1.8865677,0.102816 -2.4158079,0.06077 -6.3339841,-0.486329 -0.3733669,-0.05213 -0.5859379,-0.07156 -0.6679688,0.03125 0.2848696,0.94388 0.6499802,1.84802 1.0644531,2.726563 0.155767,0.182741 0.331741,0.302769 0.6191407,0.449219 1.3510766,0.68847 5.5354351,1.662589 8.2285161,1.914062 2.007036,0.187406 5.38498,0.07168 7.029296,-0.240234 0.701937,-0.133159 2.008566,-0.481968 2.904297,-0.775391 4.611702,-1.51068 8.826309,-4.715845 11.572266,-8.802734 2.065414,-3.074015 4.075333,-7.75836 4.572265,-10.65625 l 0.160157,-0.943359 c -0.396579,-0.642498 -0.824406,-1.262416 -1.289063,-1.853516 -0.0352,-0.03315 -0.09822,-0.111515 -0.115234,-0.117188 z m 4.197266,11.212891 c -0.08567,0 -0.473226,0.631536 -0.861329,1.404297 -2.690551,5.35721 -7.184011,10.009282 -12.001953,12.423828 -3.822325,1.872517 -7.855267,2.757227 -11.919922,2.642578 -2.96371,-0.0855 -4.944551,-0.36474 -7.894531,-1.115234 -1.1437806,-0.290989 -1.5231637,-0.385155 -1.6699218,-0.363282 0.5583098,0.591536 1.1389968,1.160051 1.7656248,1.679688 3.82202,1.517786 8.806347,2.653502 13.105469,2.591797 5.499733,-0.154992 9.309684,-1.842028 13.193359,-5.837891 2.232232,-2.303482 4.332525,-5.660418 5.806641,-9.328125 0.370851,-0.935732 0.943808,-2.70374 0.476563,-4.097656 z"
     style="opacity:0.2;fill:#000000;fill-opacity:1;stroke-width:0.15733792"
     inkscape:connector-curvature="0" />
  <path
     style="fill:#0cc1c1;stroke-width:0.15733792;fill-opacity:1"
     d="M 33.945312 6.6464844 L 33.535156 7.0820312 C 31.991541 8.7254311 30.655273 9.3237178 22.056641 12.222656 C 11.643159 15.733449 7.9034697 17.526646 4.5917969 20.595703 C 4.4372046 20.738969 4.3282964 20.84316 4.2304688 20.945312 C 4.2303722 20.945948 4.2305652 20.94663 4.2304688 20.947266 C 4.0859202 21.899143 4.0103351 22.875268 4.0039062 23.867188 C 4.0096905 23.869678 4.0116019 23.872457 4.0175781 23.875 C 4.6214169 24.132001 12.416208 23.96161 14.380859 23.648438 C 17.998683 23.071748 22.17366 21.722875 24.763672 20.294922 C 28.031569 18.493233 30.879584 16.012086 32.595703 13.46875 C 33.439203 12.218663 35.340039 8.2784056 35.443359 7.5898438 C 34.959846 7.2527757 34.458991 6.9405552 33.945312 6.6464844 z M 39.607422 11.521484 C 39.256815 11.404613 36.446224 13.90554 32.789062 17.587891 C 25.383795 25.044161 23.122141 26.778476 18.109375 28.853516 C 16.046167 29.707585 14.089897 30.154049 11.863281 30.275391 C 9.9767133 30.378207 9.4474731 30.336158 5.5292969 29.789062 C 5.15593 29.736929 4.943359 29.717498 4.8613281 29.820312 C 5.1461977 30.764192 5.5113083 31.668332 5.9257812 32.546875 C 6.0815482 32.729616 6.2575222 32.849644 6.5449219 32.996094 C 7.8959985 33.684564 12.080357 34.658683 14.773438 34.910156 C 16.780474 35.097562 20.158418 34.981838 21.802734 34.669922 C 22.504671 34.536763 23.8113 34.187954 24.707031 33.894531 C 29.318733 32.383851 33.53334 29.178686 36.279297 25.091797 C 38.344711 22.017782 40.35463 17.333437 40.851562 14.435547 L 41.011719 13.492188 C 40.61514 12.84969 40.187313 12.229772 39.722656 11.638672 C 39.687455 11.605525 39.624435 11.527157 39.607422 11.521484 z M 43.804688 22.734375 C 43.71902 22.734375 43.331462 23.365911 42.943359 24.138672 C 40.252808 29.495882 35.759348 34.147954 30.941406 36.5625 C 27.119081 38.435017 23.086139 39.319727 19.021484 39.205078 C 16.057774 39.119576 14.076933 38.840338 11.126953 38.089844 C 9.9831724 37.798855 9.6037893 37.704689 9.4570312 37.726562 C 10.015341 38.318098 10.596028 38.886613 11.222656 39.40625 C 15.044676 40.924036 20.029003 42.059752 24.328125 41.998047 C 29.827858 41.843055 33.637809 40.156019 37.521484 36.160156 C 39.753716 33.856674 41.854009 30.499738 43.328125 26.832031 C 43.698976 25.896299 44.271933 24.128291 43.804688 22.734375 z "
     id="path4530" />
  <path
     opacity=".2"
     d="m24 4c-11.079 0-19.998 8.92-19.998 20 0 0.16772-0.004 0.33329 0 0.5 0.2642-10.846 9.087-19.5 19.998-19.5s19.734 8.6536 19.998 19.5c0.004-0.16671 0-0.33228 0-0.5 0-11.08-8.919-20-19.998-20z"
     fill="#fff"
     id="path8"
     style="opacity:0.1" />
  <path
     opacity=".2"
     d="m4.0117 24.5c-0.0041 0.167-0.0117 0.332-0.0117 0.5 0 11.08 8.92 20 20 20s20-8.92 20-20c0-0.168-0.008-0.333-0.012-0.5-0.264 10.846-9.076 19.5-19.988 19.5s-19.724-8.654-19.988-19.5z"
     id="path10" />
  <path
     style="fill:#f4fefe;stroke-width:0.15733792;fill-opacity:1;opacity:0.2"
     d="M 33.945312 6.6464844 L 33.535156 7.0820312 C 31.991541 8.7254311 30.655273 9.323718 22.056641 12.222656 C 11.643159 15.733449 7.9034697 17.526646 4.5917969 20.595703 C 4.4372046 20.738969 4.3282964 20.84316 4.2304688 20.945312 C 4.2304688 20.945312 4.2304688 20.947266 4.2304688 20.947266 C 4.0859202 21.899143 4.0103351 22.875268 4.0039062 23.867188 C 4.0096905 23.869678 4.0116019 23.872457 4.0175781 23.875 C 4.0214213 23.876636 4.0404995 23.877305 4.0449219 23.878906 C 4.0799994 23.227054 4.1343592 22.580163 4.2304688 21.947266 C 4.2304688 21.947266 4.2304688 21.945312 4.2304688 21.945312 C 4.3282963 21.84316 4.4372046 21.738969 4.5917969 21.595703 C 7.9034697 18.526646 11.643159 16.733449 22.056641 13.222656 C 30.655273 10.323718 31.991541 9.7254312 33.535156 8.0820312 L 33.945312 7.6464844 C 34.361194 7.8845678 34.761531 8.144707 35.158203 8.4101562 C 35.309676 8.0387497 35.421857 7.7331416 35.443359 7.5898438 C 34.959846 7.2527757 34.458991 6.9405552 33.945312 6.6464844 z M 39.607422 11.521484 C 39.256815 11.404613 36.446224 13.90554 32.789062 17.587891 C 25.383795 25.044161 23.122141 26.778476 18.109375 28.853516 C 16.046167 29.707585 14.089897 30.154049 11.863281 30.275391 C 9.9767135 30.378207 9.4474731 30.336158 5.5292969 29.789062 C 5.15593 29.736929 4.943359 29.717498 4.8613281 29.820312 C 4.9572815 30.138242 5.074519 30.446407 5.1875 30.755859 C 5.2853704 30.761108 5.3853748 30.768968 5.5292969 30.789062 C 9.4474731 31.336161 9.9767135 31.378207 11.863281 31.275391 C 14.089897 31.154049 16.046167 30.707585 18.109375 29.853516 C 23.122141 27.778476 25.383795 26.044161 32.789062 18.587891 C 36.446224 14.90554 39.256815 12.404613 39.607422 12.521484 C 39.624436 12.527157 39.687456 12.605522 39.722656 12.638672 C 40.136598 13.165256 40.517523 13.717241 40.876953 14.285156 L 41.011719 13.492188 C 40.61514 12.84969 40.187313 12.229772 39.722656 11.638672 C 39.687455 11.605525 39.624435 11.527157 39.607422 11.521484 z M 43.804688 22.734375 C 43.71902 22.734375 43.331462 23.365911 42.943359 24.138672 C 40.252808 29.495882 35.759348 34.147954 30.941406 36.5625 C 27.119081 38.435017 23.086139 39.319727 19.021484 39.205078 C 16.057774 39.119576 14.076933 38.840338 11.126953 38.089844 C 9.9831725 37.798855 9.6037894 37.70469 9.4570312 37.726562 C 9.8762286 38.170707 10.315129 38.594709 10.769531 39.001953 C 10.906885 39.036619 10.957931 39.046843 11.126953 39.089844 C 14.076933 39.840338 16.057774 40.119578 19.021484 40.205078 C 23.086139 40.319727 27.119081 39.435017 30.941406 37.5625 C 35.759348 35.147954 40.252808 30.495882 42.943359 25.138672 C 43.331462 24.365911 43.719017 23.734375 43.804688 23.734375 C 43.882291 23.965888 43.923312 24.208454 43.949219 24.455078 C 44.008618 23.871917 43.986028 23.275363 43.804688 22.734375 z "
     id="path4536" />
</svg>
