<?xml version="1.0" encoding="UTF-8" standalone="no"?>
<svg
   xmlns:dc="http://purl.org/dc/elements/1.1/"
   xmlns:cc="http://creativecommons.org/ns#"
   xmlns:rdf="http://www.w3.org/1999/02/22-rdf-syntax-ns#"
   xmlns:svg="http://www.w3.org/2000/svg"
   xmlns="http://www.w3.org/2000/svg"
   xmlns:sodipodi="http://sodipodi.sourceforge.net/DTD/sodipodi-0.dtd"
   xmlns:inkscape="http://www.inkscape.org/namespaces/inkscape"
   height="48"
   width="48"
   version="1"
   id="svg18"
   sodipodi:docname="fastest-mini-browser.svg"
   inkscape:version="0.91 r13725">
  <metadata
     id="metadata24">
    <rdf:RDF>
      <cc:Work
         rdf:about="">
        <dc:format>image/svg+xml</dc:format>
        <dc:type
           rdf:resource="http://purl.org/dc/dcmitype/StillImage" />
        <dc:title />
      </cc:Work>
    </rdf:RDF>
  </metadata>
  <defs
     id="defs22" />
  <sodipodi:namedview
     pagecolor="#ffffff"
     bordercolor="#666666"
     borderopacity="1"
     objecttolerance="10"
     gridtolerance="10"
     guidetolerance="10"
     inkscape:pageopacity="0"
     inkscape:pageshadow="2"
     inkscape:window-width="1920"
     inkscape:window-height="1018"
     id="namedview20"
     showgrid="false"
     inkscape:zoom="7.54"
     inkscape:cx="16.159151"
     inkscape:cy="24"
     inkscape:window-x="0"
     inkscape:window-y="32"
     inkscape:window-maximized="1"
     inkscape:current-layer="svg18">
    <inkscape:grid
       type="xygrid"
       id="grid4522" />
  </sodipodi:namedview>
  <rect
     transform="matrix(0,-1,-1,0,0,0)"
     rx="20"
     ry="20"
     height="40"
     width="40"
     y="-44"
     x="-45"
     id="rect4518"
     style="opacity:0.2;fill:#000000;fill-opacity:1;stroke-width:1.00090075" />
  <rect
     style="fill:#006da1;fill-opacity:1;stroke-width:1.00090075"
     id="rect2"
     x="-44"
     y="-44"
     width="40"
     height="40"
     ry="20"
     rx="20"
     transform="matrix(0,-1,-1,0,0,0)" />
  <rect
     style="opacity:0.2;fill:#000000;fill-opacity:1;stroke-width:0.75067556"
     id="rect4520"
     x="-40"
     y="-39"
     width="30"
     height="30"
     ry="15"
     rx="15"
     transform="matrix(0,-1,-1,0,0,0)" />
  <rect
     transform="matrix(0,-1,-1,0,0,0)"
     rx="15"
     ry="15"
     height="30"
     width="30"
     y="-39"
     x="-39"
     id="rect4511"
     style="opacity:1;fill:#cccccc;fill-opacity:1;stroke-width:0.75067556" />
  <path
     style="fill:#f34235;fill-opacity:1"
     inkscape:connector-curvature="0"
     id="path8"
     d="m 14,34 8.2337,-11.766 1.673,1.673 1.8593,1.8593 z"
     sodipodi:nodetypes="ccccc" />
  <path
     style="fill:#00a170;fill-opacity:1"
     inkscape:connector-curvature="0"
     id="path10"
     d="m 34,14 -11.766,8.2337 3.532,3.532 z"
     sodipodi:nodetypes="cccc" />
  <circle
     r="4"
     cy="25"
     cx="24"
     id="circle4509"
     style="opacity:0.2;vector-effect:none;fill:#151515;fill-opacity:1;stroke:none;stroke-width:1.1079812;stroke-linecap:round;stroke-linejoin:round;stroke-miterlimit:4;stroke-dasharray:none;stroke-dashoffset:0;stroke-opacity:1" />
  <circle
     style="opacity:1;vector-effect:none;fill:#ffffff;fill-opacity:1;stroke:none;stroke-width:1.1079812;stroke-linecap:round;stroke-linejoin:round;stroke-miterlimit:4;stroke-dasharray:none;stroke-dashoffset:0;stroke-opacity:1"
     id="path4507"
     cx="24"
     cy="24"
     r="4" />
  <path
     style="fill:#ffffff;fill-opacity:1;stroke-width:1.00090075;opacity:0.1"
     d="M 24 4 C 12.92 4 4 12.92 4 24 C 4 24.167874 4.007647 24.333141 4.0117188 24.5 C 4.2763904 13.653863 13.087874 5 24 5 C 34.912126 5 43.72361 13.653863 43.988281 24.5 C 43.992353 24.333141 44 24.167874 44 24 C 44 12.92 35.08 4 24 4 z "
     id="rect4513" />
  <path
     style="opacity:0.1;fill:#ffffff;fill-opacity:1;stroke-width:0.75067556"
     d="M 24 9 C 15.69 9 9 15.69 9 24 C 9 24.168945 9.019903 24.332437 9.0253906 24.5 C 9.2898272 16.425529 15.858945 10 24 10 C 32.141055 10 38.710173 16.425529 38.974609 24.5 C 38.980097 24.332437 39 24.168945 39 24 C 39 15.69 32.31 9 24 9 z "
     id="rect4524" />
</svg>
