<?xml version="1.0" encoding="UTF-8" standalone="no"?>
<svg
   xmlns:dc="http://purl.org/dc/elements/1.1/"
   xmlns:cc="http://creativecommons.org/ns#"
   xmlns:rdf="http://www.w3.org/1999/02/22-rdf-syntax-ns#"
   xmlns:svg="http://www.w3.org/2000/svg"
   xmlns="http://www.w3.org/2000/svg"
   xmlns:sodipodi="http://sodipodi.sourceforge.net/DTD/sodipodi-0.dtd"
   xmlns:inkscape="http://www.inkscape.org/namespaces/inkscape"
   height="48"
   width="48"
   version="1"
   id="svg24"
   sodipodi:docname="flash-video-player.svg"
   inkscape:version="0.92.1 r15371">
  <metadata
     id="metadata30">
    <rdf:RDF>
      <cc:Work
         rdf:about="">
        <dc:format>image/svg+xml</dc:format>
        <dc:type
           rdf:resource="http://purl.org/dc/dcmitype/StillImage" />
        <dc:title></dc:title>
      </cc:Work>
    </rdf:RDF>
  </metadata>
  <defs
     id="defs28" />
  <sodipodi:namedview
     pagecolor="#ffffff"
     bordercolor="#666666"
     borderopacity="1"
     objecttolerance="10"
     gridtolerance="10"
     guidetolerance="10"
     inkscape:pageopacity="0"
     inkscape:pageshadow="2"
     inkscape:window-width="1600"
     inkscape:window-height="822"
     id="namedview26"
     showgrid="false"
     inkscape:zoom="9.2"
     inkscape:cx="2.6956522"
     inkscape:cy="24"
     inkscape:window-x="0"
     inkscape:window-y="0"
     inkscape:window-maximized="1"
     inkscape:current-layer="svg24" />
  <path
     style="enable-background:new"
     fill="#c2352a"
     d="m7 6c-1.662 0-3 1.338-3 3v25h40v-25c0-1.662-1.338-3-3-3z"
     id="path2" />
  <path
     opacity=".2"
     style="enable-background:new"
     fill="#fff"
     d="m7 6c-1.662 0-3 1.338-3 3v1c0-1.662 1.338-3 3-3h34c1.662 0 3 1.338 3 3v-1c0-1.662-1.338-3-3-3h-34z"
     id="path4" />
  <path
     style="enable-background:new;fill:#e4e4e4;fill-opacity:1"
     fill="#f2f2f2"
     d="m4 34v5c0 1.662 1.338 3 3 3h34c1.662 0 3-1.338 3-3v-5z"
     id="path6" />
  <rect
     style="enable-background:new"
     rx="1"
     ry=".928"
     height="2"
     width="13"
     y="37"
     x="28"
     fill="#999"
     id="rect8" />
  <rect
     style="enable-background:new"
     rx="1"
     ry="1"
     height="2"
     width="21"
     y="37"
     x="7"
     fill="#c2352a"
     id="rect10" />
  <circle
     opacity=".2"
     style="enable-background:new"
     cx="28"
     cy="39"
     r="2"
     id="circle12" />
  <circle
     style="enable-background:new"
     cx="28"
     cy="38"
     r="2"
     fill="#fff"
     id="circle14" />
  <rect
     style="enable-background:new;opacity:0.2"
     height="1"
     width="40"
     y="34"
     x="4"
     fill="#fff"
     id="rect16" />
  <path
     opacity=".2"
     style="enable-background:new"
     d="m4 39v1c0 1.662 1.338 3 3 3h34c1.662 0 3-1.338 3-3v-1c0 1.662-1.338 3-3 3h-34c-1.662 0-3-1.338-3-3z"
     id="path22" />
  <path
     id="path4504"
     d="m 32.00015,11.006317 v 4.0234 c -4.017,0.07064 -5.0042,3.9881 -5.0042,3.9881 h 3.0298 v 4.0234 h -4.6979 c -2.826,8.718 -9.328,7.941 -9.328,7.941 v -4.0234 c 0,0 4.126,0.7654 6.2298,-6.9174 2.631,-9.610901 9.77,-9.0354 9.77,-9.0354 z"
     style="opacity:0.2;fill:#000000;fill-opacity:1;enable-background:new"
     inkscape:connector-curvature="0" />
  <path
     inkscape:connector-curvature="0"
     style="fill:#ffffff;enable-background:new"
     d="m 32.00015,10.006317 v 4.0234 c -4.017,0.07064 -5.0042,3.9881 -5.0042,3.9881 h 3.0298 v 4.0234 h -4.6979 c -2.826,8.718 -9.328,7.941 -9.328,7.941 v -4.0234 c 0,0 4.126,0.7654 6.2298,-6.9174 2.631,-9.6109003 9.77,-9.0354 9.77,-9.0354 z"
     id="path10" />
</svg>
