<?xml version="1.0" encoding="UTF-8" standalone="no"?>
<svg
   xmlns:dc="http://purl.org/dc/elements/1.1/"
   xmlns:cc="http://creativecommons.org/ns#"
   xmlns:rdf="http://www.w3.org/1999/02/22-rdf-syntax-ns#"
   xmlns:svg="http://www.w3.org/2000/svg"
   xmlns="http://www.w3.org/2000/svg"
   xmlns:sodipodi="http://sodipodi.sourceforge.net/DTD/sodipodi-0.dtd"
   xmlns:inkscape="http://www.inkscape.org/namespaces/inkscape"
   height="48"
   width="48"
   version="1"
   id="svg24"
   sodipodi:docname="flv-video-player.svg"
   inkscape:version="0.92.1 r15371">
  <metadata
     id="metadata30">
    <rdf:RDF>
      <cc:Work
         rdf:about="">
        <dc:format>image/svg+xml</dc:format>
        <dc:type
           rdf:resource="http://purl.org/dc/dcmitype/StillImage" />
        <dc:title></dc:title>
      </cc:Work>
    </rdf:RDF>
  </metadata>
  <defs
     id="defs28" />
  <sodipodi:namedview
     pagecolor="#ffffff"
     bordercolor="#666666"
     borderopacity="1"
     objecttolerance="10"
     gridtolerance="10"
     guidetolerance="10"
     inkscape:pageopacity="0"
     inkscape:pageshadow="2"
     inkscape:window-width="1600"
     inkscape:window-height="822"
     id="namedview26"
     showgrid="false"
     inkscape:zoom="9.2"
     inkscape:cx="24"
     inkscape:cy="19.652174"
     inkscape:window-x="0"
     inkscape:window-y="0"
     inkscape:window-maximized="1"
     inkscape:current-layer="svg24" />
  <path
     style="enable-background:new"
     fill="#c2352a"
     d="m7 6c-1.662 0-3 1.338-3 3v25h40v-25c0-1.662-1.338-3-3-3z"
     id="path2" />
  <path
     opacity=".2"
     style="enable-background:new"
     fill="#fff"
     d="m7 6c-1.662 0-3 1.338-3 3v1c0-1.662 1.338-3 3-3h34c1.662 0 3 1.338 3 3v-1c0-1.662-1.338-3-3-3h-34z"
     id="path4" />
  <path
     style="enable-background:new;fill:#e4e4e4;fill-opacity:1"
     fill="#f2f2f2"
     d="m4 34v5c0 1.662 1.338 3 3 3h34c1.662 0 3-1.338 3-3v-5z"
     id="path6" />
  <rect
     style="enable-background:new"
     rx="1"
     ry=".928"
     height="2"
     width="13"
     y="37"
     x="28"
     fill="#999"
     id="rect8" />
  <rect
     style="enable-background:new"
     rx="1"
     ry="1"
     height="2"
     width="21"
     y="37"
     x="7"
     fill="#c2352a"
     id="rect10" />
  <circle
     opacity=".2"
     style="enable-background:new"
     cx="28"
     cy="39"
     r="2"
     id="circle12" />
  <circle
     style="enable-background:new"
     cx="28"
     cy="38"
     r="2"
     fill="#fff"
     id="circle14" />
  <rect
     style="enable-background:new;opacity:0.2"
     height="1"
     width="40"
     y="34"
     x="4"
     fill="#fff"
     id="rect16" />
  <path
     opacity=".2"
     style="enable-background:new"
     d="m4 39v1c0 1.662 1.338 3 3 3h34c1.662 0 3-1.338 3-3v-1c0 1.662-1.338 3-3 3h-34c-1.662 0-3-1.338-3-3z"
     id="path22" />
  <path
     id="path4526"
     style="opacity:0.2;fill:none;stroke:#000000;stroke-width:2.99981093;stroke-linecap:round;stroke-linejoin:bevel;stroke-opacity:1"
     d="M 8.5212679,20.47911 H 14.520961 M 8.5212679,14.479413 H 14.520961 M 8.5214153,26.478732 V 14.479564"
     inkscape:connector-curvature="0" />
  <path
     inkscape:connector-curvature="0"
     d="M 8.5212679,19.47911 H 14.520961 M 8.5212679,13.479413 H 14.520961 M 8.5214153,25.478732 V 13.479564"
     style="fill:none;stroke:#ffffff;stroke-width:2.99981093;stroke-linecap:round;stroke-linejoin:bevel"
     id="path168" />
  <path
     id="path4528"
     style="opacity:0.2;fill:none;stroke:#000000;stroke-width:2.99981093;stroke-linecap:round;stroke-linejoin:round;stroke-opacity:1"
     d="m 20.500055,14.500455 v 11.99949 h 5.999622 v 0"
     inkscape:connector-curvature="0" />
  <path
     inkscape:connector-curvature="0"
     d="m 20.500055,13.500455 v 11.99949 h 5.999622 v 0"
     style="fill:none;stroke:#ffffff;stroke-width:2.99981093;stroke-linecap:round;stroke-linejoin:round"
     id="path178" />
  <path
     id="path4530"
     style="opacity:0.2;fill:none;stroke:#000000;stroke-width:2.99981093;stroke-linecap:round;stroke-linejoin:round;stroke-opacity:1"
     d="M 39.506936,14.500882 35.00722,26.500372 30.507503,14.500882"
     inkscape:connector-curvature="0" />
  <path
     inkscape:connector-curvature="0"
     d="M 39.506936,13.500882 35.00722,25.500372 30.507503,13.500882"
     style="fill:none;stroke:#ffffff;stroke-width:2.99981093;stroke-linecap:round;stroke-linejoin:round"
     id="path198" />
</svg>
