<?xml version="1.0" encoding="UTF-8" standalone="no"?>
<svg
   xmlns:dc="http://purl.org/dc/elements/1.1/"
   xmlns:cc="http://creativecommons.org/ns#"
   xmlns:rdf="http://www.w3.org/1999/02/22-rdf-syntax-ns#"
   xmlns:svg="http://www.w3.org/2000/svg"
   xmlns="http://www.w3.org/2000/svg"
   xmlns:sodipodi="http://sodipodi.sourceforge.net/DTD/sodipodi-0.dtd"
   xmlns:inkscape="http://www.inkscape.org/namespaces/inkscape"
   height="48"
   width="48"
   version="1"
   id="svg16"
   sodipodi:docname="folder-player.svg"
   inkscape:version="0.92.1 r15371">
  <metadata
     id="metadata22">
    <rdf:RDF>
      <cc:Work
         rdf:about="">
        <dc:format>image/svg+xml</dc:format>
        <dc:type
           rdf:resource="http://purl.org/dc/dcmitype/StillImage" />
        <dc:title></dc:title>
      </cc:Work>
    </rdf:RDF>
  </metadata>
  <defs
     id="defs20" />
  <sodipodi:namedview
     pagecolor="#ffffff"
     bordercolor="#666666"
     borderopacity="1"
     objecttolerance="10"
     gridtolerance="10"
     guidetolerance="10"
     inkscape:pageopacity="0"
     inkscape:pageshadow="2"
     inkscape:window-width="1600"
     inkscape:window-height="822"
     id="namedview18"
     showgrid="false"
     inkscape:zoom="4.9166667"
     inkscape:cx="24"
     inkscape:cy="24"
     inkscape:window-x="0"
     inkscape:window-y="0"
     inkscape:window-maximized="1"
     inkscape:current-layer="svg16" />
  <path
     d="m 3.99975,36 0,-28 c 0,-1.108 0.8988,-2.1224 2,-2 l 13,0 c 2,0 2,1.601856 2,4 l 21.103,0 c 0,0 1.8975,0 1.8975,2 l 0,24 c 0,1.108 -0.892,2 -2,2 l -36,0 c -1.108,0 -2,-0.892 -2,-2 z"
     style="fill:#505050;fill-opacity:1"
     id="path2" />
  <path
     style="opacity:0.2;fill:#000000;fill-opacity:1"
     d="m 43.99975,39.0003 0,-22 c 0,-1.108 -0.89878,-2.1224 -2,-2 l -16,0 -4,0 -16,0 c -2,0 -2,1.9167 -2,1.9167 l 0,22.083 c 0,1.108 0.892,2 2,2 l 36,0 c 1.108,0 2,-0.892 2,-2 z"
     id="path4" />
  <rect
     style="opacity:1;fill:#dcdcdc;fill-opacity:1;"
     width="36"
     height="16"
     x="6"
     y="13"
     ry="2"
     rx="2"
     id="rect6" />
  <path
     d="m 43.99975,40 0,-22 c 0,-1.108 -0.89878,-2.1224 -2,-2 l -16,0 -4,0 -16,0 c -2,0 -2,1.9167 -2,1.9167 l 0,22.083 c 0,1.108 0.892,2 2,2 l 36,0 c 1.108,0 2,-0.892 2,-2 z"
     style="fill:#4f4f4f;fill-opacity:1"
     id="path8" />
  <path
     d="m 3.99975,39.994 0,1.006 c 0,1.108 0.892,2 2,2 l 36,0 c 1.108,0 2,-0.892 2,-2 l 0,-1.0059 c 0,1.108 -0.892,2 -2,2 l -36,0 c -1.108,0 -2,-0.892 -2,-2 z"
     style="opacity:0.2"
     id="path10" />
  <path
     style="opacity:0.1;fill:#ffffff;fill-opacity:1"
     d="m 5.99975,6 c -1.1012,-0.1224 -2,0.892 -2,2 l 0,1 c 0,-1.108 0.8988,-2.1224 2,-2 l 13,0 c 2,0 2,1.601856 2,4 l 21.10352,0 c 0,0 1.89648,0 1.89648,2 l 0,-1 c 0,-2 -1.89648,-2 -1.89648,-2 l -21.10352,0 c 0,-2.398144 0,-4 -2,-4 l -13,0 z"
     id="path12" />
  <path
     transform="matrix(1,0,0,0.98974335,-0.70868778,2.2781097)"
     inkscape:transform-center-x="-2.3333329"
     d="m 32.708688,28.009171 -7,4.041452 -7,4.041451 0,-8.082904 0,-8.082903 7,4.041451 z"
     inkscape:randomized="0"
     inkscape:rounded="0"
     inkscape:flatsided="false"
     sodipodi:arg2="1.0471976"
     sodipodi:arg1="0"
     sodipodi:r2="4.666667"
     sodipodi:r1="9.333333"
     sodipodi:cy="28.009171"
     sodipodi:cx="23.375355"
     sodipodi:sides="3"
     id="path4501"
     style="opacity:0.2;fill:#000000;fill-opacity:1;stroke:none;stroke-width:5.73331261;stroke-linecap:square;stroke-linejoin:miter;stroke-miterlimit:4;stroke-dasharray:none;stroke-dashoffset:0;stroke-opacity:1"
     sodipodi:type="star" />
  <path
     sodipodi:type="star"
     style="opacity:1;fill:#f9d357;fill-opacity:1;stroke:none;stroke-width:5.73331261;stroke-linecap:square;stroke-linejoin:miter;stroke-miterlimit:4;stroke-dasharray:none;stroke-dashoffset:0;stroke-opacity:1"
     id="path4499"
     sodipodi:sides="3"
     sodipodi:cx="23.375355"
     sodipodi:cy="28.009171"
     sodipodi:r1="9.333333"
     sodipodi:r2="4.666667"
     sodipodi:arg1="0"
     sodipodi:arg2="1.0471976"
     inkscape:flatsided="false"
     inkscape:rounded="0"
     inkscape:randomized="0"
     d="m 32.708688,28.009171 -7,4.041452 -7,4.041451 0,-8.082904 0,-8.082903 7,4.041451 z"
     inkscape:transform-center-x="-2.3333329"
     transform="matrix(1,0,0,0.98974335,-0.70868778,1.2781097)" />
  <path
     style="opacity:0.1;fill:#ffffff;fill-opacity:1;stroke:none;stroke-width:5.70383453;stroke-linecap:square;stroke-linejoin:miter;stroke-miterlimit:4;stroke-dasharray:none;stroke-dashoffset:0;stroke-opacity:1"
     d="M 18 21 L 18 22 L 25 26 L 31.125 29.5 L 32 29 L 25 25 L 18 21 z "
     id="path4503" />
</svg>
