<?xml version="1.0" encoding="UTF-8" standalone="no"?>
<svg
   xmlns:dc="http://purl.org/dc/elements/1.1/"
   xmlns:cc="http://creativecommons.org/ns#"
   xmlns:rdf="http://www.w3.org/1999/02/22-rdf-syntax-ns#"
   xmlns:svg="http://www.w3.org/2000/svg"
   xmlns="http://www.w3.org/2000/svg"
   xmlns:sodipodi="http://sodipodi.sourceforge.net/DTD/sodipodi-0.dtd"
   xmlns:inkscape="http://www.inkscape.org/namespaces/inkscape"
   height="48"
   width="48"
   version="1"
   id="svg2"
   inkscape:version="0.91 r13725"
   sodipodi:docname="gnome-commander.svg">
  <metadata
     id="metadata34">
    <rdf:RDF>
      <cc:Work
         rdf:about="">
        <dc:format>image/svg+xml</dc:format>
        <dc:type
           rdf:resource="http://purl.org/dc/dcmitype/StillImage" />
      </cc:Work>
    </rdf:RDF>
  </metadata>
  <defs
     id="defs32" />
  <sodipodi:namedview
     pagecolor="#ffffff"
     bordercolor="#666666"
     borderopacity="1"
     objecttolerance="10"
     gridtolerance="10"
     guidetolerance="10"
     inkscape:pageopacity="0"
     inkscape:pageshadow="2"
     inkscape:window-width="1920"
     inkscape:window-height="1018"
     id="namedview30"
     showgrid="false"
     inkscape:zoom="4.9166667"
     inkscape:cx="24"
     inkscape:cy="24"
     inkscape:window-x="0"
     inkscape:window-y="32"
     inkscape:window-maximized="1"
     inkscape:current-layer="svg2" />
  <path
     d="m44 40v-31c0-1.108-0.892-2-2-2h-36c-1.108 0-2 0.892-2 2v31c0 1.108 0.892 2 2 2h36c1.108 0 2-0.892 2-2z"
     fill="#d8d8d8"
     id="path4"
     style="fill:#e4e4e4;fill-opacity:1" />
  <path
     d="m44 12v-4c0-1.108-0.892-2-2-2h-36c-1.108 0-2 0.892-2 2v4z"
     fill="#636e73"
     id="path6" />
  <path
     opacity=".15"
     d="m44 40v-28h-20v30h18c1.108 0 2-0.892 2-2z"
     id="path8" />
  <path
     opacity=".1"
     d="m6 6c-1.108 0-2 0.892-2 2v1c0-1.108 0.892-2 2-2h36c1.108 0 2 0.892 2 2v-1c0-1.108-0.892-2-2-2h-36z"
     fill="#fff"
     id="path10" />
  <path
     opacity=".2"
     d="m4 40v1c0 1.108 0.892 2 2 2h36c1.108 0 2-0.892 2-2v-1c0 1.108-0.892 2-2 2h-36c-1.108 0-2-0.892-2-2z"
     id="path12" />
  <g
     fill="#636e73"
     id="g14">
    <path
       d="m9 17v1h1v2h-4v-3h3z"
       id="path16" />
    <path
       d="m9 23v1h1v2h-4v-3h3z"
       id="path18" />
    <path
       d="m9 29v1h1v2h-4v-3h3z"
       id="path20" />
  </g>
  <g
     opacity=".8"
     fill="#636e73"
     id="g22">
    <path
       opacity="1"
       d="m29 17v1h1v2h-4v-3h3z"
       id="path24" />
    <path
       opacity="1"
       d="m29 23v1h1v2h-4v-3h3z"
       id="path26" />
    <path
       opacity="1"
       d="m29 29v1h1v2h-4v-3h3z"
       id="path28" />
  </g>
</svg>
