<?xml version="1.0" encoding="UTF-8" standalone="no"?>
<svg
   xmlns:dc="http://purl.org/dc/elements/1.1/"
   xmlns:cc="http://creativecommons.org/ns#"
   xmlns:rdf="http://www.w3.org/1999/02/22-rdf-syntax-ns#"
   xmlns:svg="http://www.w3.org/2000/svg"
   xmlns="http://www.w3.org/2000/svg"
   xmlns:sodipodi="http://sodipodi.sourceforge.net/DTD/sodipodi-0.dtd"
   xmlns:inkscape="http://www.inkscape.org/namespaces/inkscape"
   height="48"
   width="48"
   version="1"
   id="svg12"
   sodipodi:docname="gplayer.svg"
   inkscape:version="0.92.1 r15371">
  <metadata
     id="metadata18">
    <rdf:RDF>
      <cc:Work
         rdf:about="">
        <dc:format>image/svg+xml</dc:format>
        <dc:type
           rdf:resource="http://purl.org/dc/dcmitype/StillImage" />
        <dc:title />
      </cc:Work>
    </rdf:RDF>
  </metadata>
  <defs
     id="defs16" />
  <sodipodi:namedview
     pagecolor="#ffffff"
     bordercolor="#666666"
     borderopacity="1"
     objecttolerance="10"
     gridtolerance="10"
     guidetolerance="10"
     inkscape:pageopacity="0"
     inkscape:pageshadow="2"
     inkscape:window-width="1600"
     inkscape:window-height="822"
     id="namedview14"
     showgrid="false"
     inkscape:zoom="4.97"
     inkscape:cx="3.6458753"
     inkscape:cy="24"
     inkscape:window-x="0"
     inkscape:window-y="0"
     inkscape:window-maximized="1"
     inkscape:current-layer="svg12">
    <inkscape:grid
       type="xygrid"
       id="grid4500" />
  </sodipodi:namedview>
  <path
     id="path4512"
     d="M 24,5 C 12.954305,5 4,13.954305 4,25 v 18 c 0,1.108 0.892,2 2,2 H 24 C 35.045695,45 44,36.045695 44,25 V 7 C 44,5.892 43.108,5 42,5 Z"
     style="opacity:0.2;fill:#000000;fill-opacity:1"
     inkscape:connector-curvature="0" />
  <path
     style="fill:#69b0ff;fill-opacity:1"
     d="M 24 4 C 12.954305 4 4 12.954305 4 24 L 4 42 C 4 43.108 4.892 44 6 44 L 24 44 C 35.045695 44 44 35.045695 44 24 L 44 6 C 44 4.892 43.108 4 42 4 L 24 4 z "
     id="rect2" />
  <path
     style="opacity:0.2;fill:#000000;fill-opacity:1;stroke-width:1.03378677"
     id="path4508"
     d="m 18.603175,17.00012 c -0.544617,-0.01067 -0.638296,0.689704 -0.59328,1.195302 0.004,4.731926 -0.007,9.464493 0.005,14.196207 0.04789,0.565758 0.655619,0.791805 1.001143,0.440948 3.692794,-2.422603 9.064213,-4.828566 12.751497,-7.261624 0.402343,-0.334889 0.248247,-1.114768 -0.200836,-1.276901 -3.692895,-2.413003 -9.050587,-4.839233 -12.746487,-7.244023 -0.06903,-0.03285 -0.143225,-0.04981 -0.217458,-0.04992 z"
     inkscape:connector-curvature="0" />
  <path
     inkscape:connector-curvature="0"
     d="m 18.603175,16.00012 c -0.544617,-0.01067 -0.638296,0.689704 -0.59328,1.195302 0.004,4.731926 -0.007,9.464493 0.005,14.196207 0.04789,0.565758 0.655619,0.791805 1.001143,0.440948 3.692794,-2.422603 9.064213,-4.828566 12.751497,-7.261624 0.402343,-0.334889 0.248247,-1.114768 -0.200836,-1.276901 -3.692895,-2.413003 -9.050587,-4.839233 -12.746487,-7.244023 -0.06903,-0.03285 -0.143225,-0.04981 -0.217458,-0.04992 z"
     id="path20"
     style="fill:#ffffff;fill-opacity:1;stroke-width:1.03378677" />
  <path
     style="fill:#ffffff;fill-opacity:1;opacity:0.2"
     d="M 24 4 C 12.954305 4 4 12.954305 4 24 L 4 25 C 4 13.954305 12.954305 5 24 5 L 42 5 C 43.108 5 44 5.892 44 7 L 44 6 C 44 4.892 43.108 4 42 4 L 24 4 z "
     id="path4506" />
</svg>
