<?xml version="1.0" encoding="UTF-8" standalone="no"?>
<svg
   xmlns:dc="http://purl.org/dc/elements/1.1/"
   xmlns:cc="http://creativecommons.org/ns#"
   xmlns:rdf="http://www.w3.org/1999/02/22-rdf-syntax-ns#"
   xmlns:svg="http://www.w3.org/2000/svg"
   xmlns="http://www.w3.org/2000/svg"
   xmlns:sodipodi="http://sodipodi.sourceforge.net/DTD/sodipodi-0.dtd"
   xmlns:inkscape="http://www.inkscape.org/namespaces/inkscape"
   height="48"
   width="48"
   version="1"
   id="svg2"
   inkscape:version="0.91 r13725"
   sodipodi:docname="gtkpod.svg">
  <metadata
     id="metadata22">
    <rdf:RDF>
      <cc:Work
         rdf:about="">
        <dc:format>image/svg+xml</dc:format>
        <dc:type
           rdf:resource="http://purl.org/dc/dcmitype/StillImage" />
      </cc:Work>
    </rdf:RDF>
  </metadata>
  <defs
     id="defs20" />
  <sodipodi:namedview
     pagecolor="#ffffff"
     bordercolor="#666666"
     borderopacity="1"
     objecttolerance="10"
     gridtolerance="10"
     guidetolerance="10"
     inkscape:pageopacity="0"
     inkscape:pageshadow="2"
     inkscape:window-width="844"
     inkscape:window-height="480"
     id="namedview18"
     showgrid="false"
     inkscape:zoom="4.9166667"
     inkscape:cx="24"
     inkscape:cy="24"
     inkscape:window-x="0"
     inkscape:window-y="32"
     inkscape:window-maximized="0"
     inkscape:current-layer="svg2" />
  <rect
     ry="2"
     rx="2"
     transform="scale(-1,1)"
     height="40"
     width="32"
     y="3"
     x="-40"
     style="fill:#8e8e8e;fill-opacity:1"
     id="rect4" />
  <rect
     rx="0"
     ry="0"
     height="17"
     width="30"
     stroke-miterlimit="3.429"
     y="4"
     x="9"
     style="opacity:1;fill:#3f3f3f;fill-opacity:1;fill-rule:evenodd;stroke-miterlimit:3.4289999"
     id="rect6" />
  <path
     opacity=".1"
     d="m10 3c-1.108 0-2 0.892-2 2v1c0-1.108 0.892-2 2-2h28c1.108 0 2 0.892 2 2v-1c0-1.108-0.892-2-2-2h-28z"
     fill="#fff"
     id="path8" />
  <path
     opacity=".2"
     d="m8 41v1c0 1.108 0.892 2 2 2h28c1.108 0 2-0.892 2-2v-1c0 1.108-0.892 2-2 2h-28c-1.108 0-2-0.892-2-2z"
     id="path10" />
  <circle
     r="8"
     cy="33"
     cx="24"
     style="opacity:0.2;fill:#000000;fill-opacity:1"
     id="circle12" />
  <circle
     style="opacity:1;fill:#ffffff;fill-opacity:1"
     cx="24"
     cy="32"
     r="8"
     id="circle14" />
  <circle
     cy="32"
     cx="24"
     style="opacity:1;fill:#8e8e8e;fill-opacity:1"
     r="4"
     id="circle16" />
</svg>
