<?xml version="1.0" encoding="UTF-8" standalone="no"?>
<svg
   xmlns:dc="http://purl.org/dc/elements/1.1/"
   xmlns:cc="http://creativecommons.org/ns#"
   xmlns:rdf="http://www.w3.org/1999/02/22-rdf-syntax-ns#"
   xmlns:svg="http://www.w3.org/2000/svg"
   xmlns="http://www.w3.org/2000/svg"
   xmlns:sodipodi="http://sodipodi.sourceforge.net/DTD/sodipodi-0.dtd"
   xmlns:inkscape="http://www.inkscape.org/namespaces/inkscape"
   height="48"
   width="48"
   version="1"
   id="svg18"
   sodipodi:docname="halo-browser.svg"
   inkscape:version="0.92.1 r15371">
  <metadata
     id="metadata24">
    <rdf:RDF>
      <cc:Work
         rdf:about="">
        <dc:format>image/svg+xml</dc:format>
        <dc:type
           rdf:resource="http://purl.org/dc/dcmitype/StillImage" />
        <dc:title></dc:title>
      </cc:Work>
    </rdf:RDF>
  </metadata>
  <defs
     id="defs22" />
  <sodipodi:namedview
     pagecolor="#ffffff"
     bordercolor="#666666"
     borderopacity="1"
     objecttolerance="10"
     gridtolerance="10"
     guidetolerance="10"
     inkscape:pageopacity="0"
     inkscape:pageshadow="2"
     inkscape:window-width="1600"
     inkscape:window-height="822"
     id="namedview20"
     showgrid="false"
     inkscape:zoom="7.54"
     inkscape:cx="17.549557"
     inkscape:cy="28.991905"
     inkscape:window-x="0"
     inkscape:window-y="0"
     inkscape:window-maximized="1"
     inkscape:current-layer="svg18">
    <inkscape:grid
       type="xygrid"
       id="grid4522" />
  </sodipodi:namedview>
  <path
     inkscape:connector-curvature="0"
     id="path4565"
     d="m 6.6794919,35.004045 c 2.038459,3.530715 4.9799111,6.196688 8.3576541,7.889944 3.684525,-1.87691 6.916748,-4.185566 9.060461,-7.720883 C 18.43816,29.370655 14.247406,20.578936 13.06501,12.064086 L 10.086005,10.658205 C 3.6335461,16.888552 1.9827734,26.86909 6.6794919,35.004045 Z"
     style="opacity:0.2;vector-effect:none;fill:#000000;fill-opacity:1;stroke:none;stroke-width:3.97935748;stroke-linecap:square;stroke-linejoin:bevel;stroke-miterlimit:4;stroke-dasharray:none;stroke-dashoffset:0;stroke-opacity:1" />
  <path
     id="path4561"
     d="m 24,5.0040448 c -4.076918,0 -7.856445,1.2143851 -11.011719,3.2929688 -0.216811,4.1293474 0.166433,8.0828624 2.15625,11.7070314 7.854794,-2 17.564023,-1.233439 25.529297,2 l 2.707031,-1.876953 C 41.21145,11.423925 33.393437,5.0040448 24,5.0040448 Z"
     style="opacity:0.2;vector-effect:none;fill:#000000;fill-opacity:1;stroke:none;stroke-width:3.97935748;stroke-linecap:square;stroke-linejoin:bevel;stroke-miterlimit:4;stroke-dasharray:none;stroke-dashoffset:0;stroke-opacity:1"
     inkscape:connector-curvature="0" />
  <path
     style="opacity:0.2;vector-effect:none;fill:#000000;fill-opacity:1;stroke:none;stroke-width:3.97935748;stroke-linecap:square;stroke-linejoin:bevel;stroke-miterlimit:4;stroke-dasharray:none;stroke-dashoffset:0;stroke-opacity:1"
     d="m 41.320508,35.004045 c 2.038459,-3.530715 2.876534,-7.411074 2.654065,-11.182913 -3.467714,-2.252437 -7.083181,-3.897296 -11.216711,-3.986148 -2.195347,7.802451 -7.713822,15.827609 -14.4967,21.10902 l 0.271974,3.282834 C 27.155004,46.699658 36.62379,43.139 41.320508,35.004045 Z"
     id="path4563"
     inkscape:connector-curvature="0" />
  <path
     inkscape:connector-curvature="0"
     style="opacity:1;vector-effect:none;fill:#ff6262;fill-opacity:1;stroke:none;stroke-width:3.97935748;stroke-linecap:square;stroke-linejoin:bevel;stroke-miterlimit:4;stroke-dasharray:none;stroke-dashoffset:0;stroke-opacity:1"
     d="M 24,4 C 19.923082,4 16.143555,5.2143851 12.988281,7.2929688 12.77147,11.422316 13.154714,15.375831 15.144531,19 c 7.854794,-2 17.564023,-1.233439 25.529297,2 l 2.707031,-1.876953 C 41.21145,10.41988 33.393437,4 24,4 Z"
     id="rect4500" />
  <path
     id="path4509"
     d="m 15.144531,19 c 7.854794,-2 17.564023,-1.233439 25.529297,2 l 2.707031,-1.876953 C 39.044709,15.229305 34.801798,13.037597 29.400839,13 23.99988,12.962403 17.52295,15.472576 15.144531,19 Z"
     style="opacity:1;vector-effect:none;fill:#e34343;fill-opacity:1;stroke:none;stroke-width:3.97935748;stroke-linecap:square;stroke-linejoin:bevel;stroke-miterlimit:4;stroke-dasharray:none;stroke-dashoffset:0;stroke-opacity:1"
     inkscape:connector-curvature="0"
     sodipodi:nodetypes="ccczc" />
  <path
     inkscape:connector-curvature="0"
     id="path4518"
     d="m 41.320508,34 c 2.038459,-3.530715 2.876534,-7.411074 2.654065,-11.182913 -3.467714,-2.252437 -7.083181,-3.897296 -11.216711,-3.986148 -2.195347,7.802451 -7.713822,15.827609 -14.4967,21.10902 l 0.271974,3.282834 C 27.155004,45.695613 36.62379,42.134955 41.320508,34 Z"
     style="opacity:1;vector-effect:none;fill:#9c94fc;fill-opacity:1;stroke:none;stroke-width:3.97935748;stroke-linecap:square;stroke-linejoin:bevel;stroke-miterlimit:4;stroke-dasharray:none;stroke-dashoffset:0;stroke-opacity:1" />
  <path
     sodipodi:nodetypes="ccczc"
     inkscape:connector-curvature="0"
     style="opacity:1;vector-effect:none;fill:#857ee0;fill-opacity:1;stroke:none;stroke-width:3.97935748;stroke-linecap:square;stroke-linejoin:bevel;stroke-miterlimit:4;stroke-dasharray:none;stroke-dashoffset:0;stroke-opacity:1"
     d="m 32.757862,18.830939 c -2.195347,7.802451 -7.713822,15.827609 -14.4967,21.10902 l 0.271974,3.282834 c 5.540154,-1.808345 9.559684,-4.38696 12.292724,-9.045529 2.733039,-4.658569 3.797631,-11.522842 1.932002,-15.346325 z"
     id="path4520" />
  <path
     style="opacity:1;vector-effect:none;fill:#4dc5fc;fill-opacity:1;stroke:none;stroke-width:3.97935748;stroke-linecap:square;stroke-linejoin:bevel;stroke-miterlimit:4;stroke-dasharray:none;stroke-dashoffset:0;stroke-opacity:1"
     d="m 6.6794919,34 c 2.038459,3.530715 4.9799111,6.196688 8.3576541,7.889944 3.684525,-1.87691 6.916748,-4.185566 9.060461,-7.720883 C 18.43816,28.36661 14.247406,19.574891 13.06501,11.060041 L 10.086005,9.6541603 C 3.6335461,15.884507 1.9827734,25.865045 6.6794919,34 Z"
     id="path4526"
     inkscape:connector-curvature="0" />
  <path
     id="path4528"
     d="M 24.097607,34.169061 C 18.43816,28.36661 14.247406,19.574891 13.06501,11.060041 L 10.086005,9.6541603 C 8.8820008,15.356247 9.1053815,20.12657 11.773301,24.822736 c 2.66792,4.696166 8.080258,9.050266 12.324306,9.346325 z"
     style="opacity:1;vector-effect:none;fill:#2ba2d9;fill-opacity:1;stroke:none;stroke-width:3.97935748;stroke-linecap:square;stroke-linejoin:bevel;stroke-miterlimit:4;stroke-dasharray:none;stroke-dashoffset:0;stroke-opacity:1"
     inkscape:connector-curvature="0"
     sodipodi:nodetypes="ccczc" />
  <path
     sodipodi:nodetypes="cccc"
     inkscape:connector-curvature="0"
     inkscape:transform-center-x="1.0594256e-06"
     id="path4544"
     d="M 15,19.375762 C 21.946636,15.51662 27.458081,17.09489 33,18.962339 32.651892,24.799631 32.109251,30.600877 24,35 20.197919,32.456827 16.343704,30.509247 15,19.375762 Z"
     inkscape:transform-center-y="2.6729445"
     style="opacity:0.2;vector-effect:none;fill:#000000;fill-opacity:1;stroke:none;stroke-width:5.7889061;stroke-linecap:square;stroke-linejoin:bevel;stroke-miterlimit:4;stroke-dasharray:none;stroke-dashoffset:0;stroke-opacity:1" />
  <path
     style="opacity:1;vector-effect:none;fill:#ffffff;fill-opacity:1;stroke:none;stroke-width:5.7889061;stroke-linecap:square;stroke-linejoin:bevel;stroke-miterlimit:4;stroke-dasharray:none;stroke-dashoffset:0;stroke-opacity:1"
     inkscape:transform-center-y="2.6729445"
     d="M 15,18.375762 C 21.946636,14.51662 27.458081,16.09489 33,17.962339 32.651892,23.799631 32.109251,29.600877 24,34 20.197919,31.456827 16.343704,29.509247 15,18.375762 Z"
     id="path4541"
     inkscape:transform-center-x="1.0594256e-06"
     inkscape:connector-curvature="0"
     sodipodi:nodetypes="cccc" />
  <path
     style="opacity:0.1;vector-effect:none;fill:#fffff2;fill-opacity:1;stroke:none;stroke-width:3.97935748;stroke-linecap:square;stroke-linejoin:bevel;stroke-miterlimit:4;stroke-dasharray:none;stroke-dashoffset:0;stroke-opacity:1"
     d="M 24 4 C 19.923082 4 16.143555 5.2143851 12.988281 7.2929688 C 12.947525 8.0692064 12.936975 8.8368181 12.945312 9.5996094 C 12.953635 9.1673617 12.96537 8.7332307 12.988281 8.296875 C 16.143555 6.2182913 19.923082 5.0039062 24 5.0039062 C 33.088067 5.0039062 40.684726 11.02059 43.134766 19.292969 L 43.380859 19.123047 C 41.21145 10.41988 33.393437 4 24 4 z "
     id="path4546" />
  <path
     style="opacity:0.1;vector-effect:none;fill:#fffff2;fill-opacity:1;stroke:none;stroke-width:3.97935748;stroke-linecap:square;stroke-linejoin:bevel;stroke-miterlimit:4;stroke-dasharray:none;stroke-dashoffset:0;stroke-opacity:1"
     d="M 32.757812 18.830078 C 30.562466 26.632529 25.044597 34.658042 18.261719 39.939453 L 18.339844 40.880859 C 25.086762 35.598778 30.570945 27.608251 32.757812 19.835938 C 36.891343 19.924789 40.506895 21.567875 43.974609 23.820312 C 43.989183 24.067403 43.986756 24.31656 43.992188 24.564453 C 44.008674 23.980704 44.008835 23.396687 43.974609 22.816406 C 40.506895 20.563969 36.891343 18.91893 32.757812 18.830078 z "
     id="path4548" />
  <path
     style="opacity:0.1;vector-effect:none;fill:#fffff2;fill-opacity:1;stroke:none;stroke-width:3.97935748;stroke-linecap:square;stroke-linejoin:bevel;stroke-miterlimit:4;stroke-dasharray:none;stroke-dashoffset:0;stroke-opacity:1"
     d="M 10.085938 9.6542969 C 5.9815231 13.617425 3.8305606 19.098535 4.0097656 24.65625 C 4.1054928 19.447627 6.2292264 14.382155 10.085938 10.658203 L 13.064453 12.064453 C 14.219127 20.379665 18.248356 28.950413 23.707031 34.751953 C 23.836839 34.557361 23.974871 34.372413 24.097656 34.169922 C 18.438209 28.367471 14.246849 19.575397 13.064453 11.060547 L 10.085938 9.6542969 z "
     id="path4550" />
</svg>
