<?xml version="1.0" encoding="UTF-8" standalone="no"?>
<svg
   xmlns:dc="http://purl.org/dc/elements/1.1/"
   xmlns:cc="http://creativecommons.org/ns#"
   xmlns:rdf="http://www.w3.org/1999/02/22-rdf-syntax-ns#"
   xmlns:svg="http://www.w3.org/2000/svg"
   xmlns="http://www.w3.org/2000/svg"
   xmlns:sodipodi="http://sodipodi.sourceforge.net/DTD/sodipodi-0.dtd"
   xmlns:inkscape="http://www.inkscape.org/namespaces/inkscape"
   height="48"
   width="48"
   version="1"
   id="svg24"
   sodipodi:docname="htc-videoplayer.svg"
   inkscape:version="0.91 r13725">
  <metadata
     id="metadata30">
    <rdf:RDF>
      <cc:Work
         rdf:about="">
        <dc:format>image/svg+xml</dc:format>
        <dc:type
           rdf:resource="http://purl.org/dc/dcmitype/StillImage" />
        <dc:title />
      </cc:Work>
    </rdf:RDF>
  </metadata>
  <defs
     id="defs28" />
  <sodipodi:namedview
     pagecolor="#ffffff"
     bordercolor="#666666"
     borderopacity="1"
     objecttolerance="10"
     gridtolerance="10"
     guidetolerance="10"
     inkscape:pageopacity="0"
     inkscape:pageshadow="2"
     inkscape:window-width="1920"
     inkscape:window-height="1018"
     id="namedview26"
     showgrid="false"
     inkscape:zoom="7.54"
     inkscape:cx="-24.139271"
     inkscape:cy="24"
     inkscape:window-x="0"
     inkscape:window-y="32"
     inkscape:window-maximized="1"
     inkscape:current-layer="svg24" />
  <rect
     transform="matrix(0,-1,-1,0,0,0)"
     rx="2"
     ry="2"
     height="40"
     width="32"
     y="-44"
     x="-40"
     fill="#dd4545"
     id="rect2"
     style="fill:#f78c35;fill-opacity:1" />
  <path
     opacity=".2"
     fill="#fff"
     d="m6 8c-1.108 0-2 0.892-2 2v1c0-1.108 0.892-2 2-2h36c1.108 0 2 0.892 2 2v-1c0-1.108-0.892-2-2-2h-36z"
     id="path6"
     style="opacity:0.1" />
  <path
     opacity=".2"
     d="m4 38v1c0 1.108 0.892 2 2 2h36c1.108 0 2-0.892 2-2v-1c0 1.108-0.892 2-2 2h-36c-1.108 0-2-0.892-2-2z"
     id="path8" />
  <rect
     style="opacity:0.4;fill:#000000;fill-opacity:1;stroke:none;stroke-width:8.85190868;stroke-linecap:round;stroke-linejoin:round;stroke-miterlimit:4;stroke-dasharray:none;stroke-dashoffset:0;stroke-opacity:1"
     id="rect4486"
     width="4"
     height="4"
     x="6"
     y="13"
     rx="0.89935482"
     ry="0.87125003" />
  <rect
     ry="0.87125003"
     rx="0.89935482"
     y="31"
     x="6"
     height="4"
     width="4"
     id="rect4488"
     style="opacity:0.4;fill:#000000;fill-opacity:1;stroke:none;stroke-width:8.85190868;stroke-linecap:round;stroke-linejoin:round;stroke-miterlimit:4;stroke-dasharray:none;stroke-dashoffset:0;stroke-opacity:1" />
  <rect
     style="opacity:0.4;fill:#000000;fill-opacity:1;stroke:none;stroke-width:8.85190868;stroke-linecap:round;stroke-linejoin:round;stroke-miterlimit:4;stroke-dasharray:none;stroke-dashoffset:0;stroke-opacity:1"
     id="rect4490"
     width="4"
     height="4"
     x="6"
     y="25"
     rx="0.89935482"
     ry="0.87125003" />
  <rect
     ry="0.87125003"
     rx="0.89935482"
     y="19"
     x="6"
     height="4"
     width="4"
     id="rect4492"
     style="opacity:0.4;fill:#000000;fill-opacity:1;stroke:none;stroke-width:8.85190868;stroke-linecap:round;stroke-linejoin:round;stroke-miterlimit:4;stroke-dasharray:none;stroke-dashoffset:0;stroke-opacity:1" />
  <rect
     ry="0.87125003"
     rx="0.89935482"
     y="13"
     x="38"
     height="4"
     width="4"
     id="rect4494"
     style="opacity:0.4;fill:#000000;fill-opacity:1;stroke:none;stroke-width:8.85190868;stroke-linecap:round;stroke-linejoin:round;stroke-miterlimit:4;stroke-dasharray:none;stroke-dashoffset:0;stroke-opacity:1" />
  <rect
     style="opacity:0.4;fill:#000000;fill-opacity:1;stroke:none;stroke-width:8.85190868;stroke-linecap:round;stroke-linejoin:round;stroke-miterlimit:4;stroke-dasharray:none;stroke-dashoffset:0;stroke-opacity:1"
     id="rect4496"
     width="4"
     height="4"
     x="38"
     y="31"
     rx="0.89935482"
     ry="0.87125003" />
  <rect
     ry="0.87125003"
     rx="0.89935482"
     y="25"
     x="38"
     height="4"
     width="4"
     id="rect4498"
     style="opacity:0.4;fill:#000000;fill-opacity:1;stroke:none;stroke-width:8.85190868;stroke-linecap:round;stroke-linejoin:round;stroke-miterlimit:4;stroke-dasharray:none;stroke-dashoffset:0;stroke-opacity:1" />
  <rect
     style="opacity:0.4;fill:#000000;fill-opacity:1;stroke:none;stroke-width:8.85190868;stroke-linecap:round;stroke-linejoin:round;stroke-miterlimit:4;stroke-dasharray:none;stroke-dashoffset:0;stroke-opacity:1"
     id="rect4500"
     width="4"
     height="4"
     x="38"
     y="19"
     rx="0.89935482"
     ry="0.87125003" />
  <path
     id="path4501"
     d="m 24,16 a 9,9 0 0 0 -9,9 9,9 0 0 0 9,9 9,9 0 0 0 9,-9 9,9 0 0 0 -9,-9 z m 0,2 a 7,7 0 0 1 7,7 7,7 0 0 1 -7,7 7,7 0 0 1 -7,-7 7,7 0 0 1 7,-7 z m -2.65625,2 c -0.311212,-0.0068 -0.363616,0.432047 -0.337891,0.748047 0.0022,2.957452 -0.0048,5.913772 0.002,8.871094 0.02737,0.353597 0.374822,0.494675 0.572266,0.27539 2.110186,-1.514127 5.180072,-3.016448 7.28711,-4.537109 0.229911,-0.209305 0.141386,-0.697494 -0.115235,-0.798828 C 26.64171,23.050469 23.58071,21.534244 21.46875,20.03125 21.4293,20.01072 21.386173,20.00007 21.34375,20 Z"
     style="opacity:0.2;fill:#020202;fill-opacity:1;stroke-width:0.61780828"
     inkscape:connector-curvature="0" />
  <path
     style="fill:#ffffff;fill-opacity:1;stroke-width:0.61780828"
     d="M 24 15 A 9 9 0 0 0 15 24 A 9 9 0 0 0 24 33 A 9 9 0 0 0 33 24 A 9 9 0 0 0 24 15 z M 24 17 A 7 7 0 0 1 31 24 A 7 7 0 0 1 24 31 A 7 7 0 0 1 17 24 A 7 7 0 0 1 24 17 z M 21.34375 19 C 21.032538 18.9932 20.980134 19.432047 21.005859 19.748047 C 21.008059 22.705499 21.001012 25.661819 21.007812 28.619141 C 21.035183 28.972738 21.382634 29.113816 21.580078 28.894531 C 23.690264 27.380404 26.76015 25.878083 28.867188 24.357422 C 29.097099 24.148117 29.008574 23.659928 28.751953 23.558594 C 26.64171 22.050469 23.58071 20.534244 21.46875 19.03125 C 21.4293 19.01072 21.386173 19.00007 21.34375 19 z "
     id="path20" />
</svg>
