<?xml version="1.0" encoding="UTF-8" standalone="no"?>
<svg
   xmlns:dc="http://purl.org/dc/elements/1.1/"
   xmlns:cc="http://creativecommons.org/ns#"
   xmlns:rdf="http://www.w3.org/1999/02/22-rdf-syntax-ns#"
   xmlns:svg="http://www.w3.org/2000/svg"
   xmlns="http://www.w3.org/2000/svg"
   xmlns:sodipodi="http://sodipodi.sourceforge.net/DTD/sodipodi-0.dtd"
   xmlns:inkscape="http://www.inkscape.org/namespaces/inkscape"
   height="48"
   width="48"
   version="1"
   id="svg12"
   sodipodi:docname="inbrowser.svg"
   inkscape:version="0.91 r13725">
  <metadata
     id="metadata18">
    <rdf:RDF>
      <cc:Work
         rdf:about="">
        <dc:format>image/svg+xml</dc:format>
        <dc:type
           rdf:resource="http://purl.org/dc/dcmitype/StillImage" />
        <dc:title />
      </cc:Work>
    </rdf:RDF>
  </metadata>
  <defs
     id="defs16" />
  <sodipodi:namedview
     pagecolor="#ffffff"
     bordercolor="#666666"
     borderopacity="1"
     objecttolerance="10"
     gridtolerance="10"
     guidetolerance="10"
     inkscape:pageopacity="0"
     inkscape:pageshadow="2"
     inkscape:window-width="1920"
     inkscape:window-height="1018"
     id="namedview14"
     showgrid="false"
     inkscape:zoom="8.6599296"
     inkscape:cx="2.6678244"
     inkscape:cy="16.464801"
     inkscape:window-x="0"
     inkscape:window-y="32"
     inkscape:window-maximized="1"
     inkscape:current-layer="svg12">
    <inkscape:grid
       type="xygrid"
       id="grid4500" />
  </sodipodi:namedview>
  <rect
     transform="matrix(0,-1,-1,0,0,0)"
     rx="2"
     ry="2"
     height="40"
     width="40"
     y="-44"
     x="-44"
     fill="#f59335"
     id="rect2"
     style="fill:#3d5074;fill-opacity:1" />
  <path
     opacity=".2"
     d="m6 4c-1.108 0-2 0.892-2 2v1c0-1.108 0.892-2 2-2h36c1.108 0 2 0.892 2 2v-1c0-1.108-0.892-2-2-2h-36z"
     fill="#fff"
     id="path4"
     style="opacity:0.1" />
  <path
     opacity=".2"
     d="m6 45c-1.108 0-2-0.892-2-2v-1c0 1.108 0.892 2 2 2h36c1.108 0 2-0.892 2-2v1c0 1.108-0.892 2-2 2h-36z"
     id="path6" />
  <g
     style="opacity:0.1;fill:#ffffff;fill-opacity:1"
     transform="matrix(0.5,0,0,0.5,12,15)"
     id="g4499" />
  <path
     style="opacity:0.2;fill:#000000;fill-opacity:1;stroke-width:0.12280902"
     d="M 27.160156 11.001953 C 26.159995 11.022543 26.170483 10.913872 26.017578 11.755859 C 25.871117 12.562358 25.624187 13.03125 25.345703 13.03125 C 25.24386 13.03125 24.816804 12.738758 24.396484 12.382812 C 22.998819 11.19921 21.432225 10.87659 19.400391 11.132812 C 18.798039 11.208773 18.196119 11.328949 18.0625 11.400391 C 17.018211 14.148347 16.550819 16.230445 16 19 C 14.154349 19.666341 12.142944 20.346542 10.568359 21.396484 C 10.186698 21.736366 9.9726562 22.10119 9.9726562 22.449219 C 9.9726562 23.038407 10.407118 24.076068 11.632812 24.875 C 12.915982 25.711395 13.149043 25.97849 13.103516 26.023438 C 13.081996 26.044677 12.511706 26.154971 11.835938 26.269531 C 9.5107217 26.663716 7.2019489 26.749617 7 27.275391 C 6.945332 27.417721 8.1380794 28.534258 9.9824219 30.992188 C 11.035525 32.516374 13.185525 34.690313 14 36 C 13.037445 35.325195 12.03875 34.64491 11 34 C 10.725784 34 8.4086147 35.485954 7.5507812 36.332031 C 6.3747746 37.450701 6.1720164 38.741165 6 40.339844 C 6.0000033 41.534908 6.000001 42.766793 6 44 L 41.728516 44 C 41.144507 40.926538 39.338351 38.046627 37.673828 35.960938 L 37 35 L 39.433594 31.183594 C 40.844973 29.105392 42 27.311293 42 27.195312 C 42 26.953194 41.162318 26.581616 39.912109 26.269531 C 39.47286 26.159882 39.09272 26.051937 39.068359 26.029297 C 39.043999 26.006657 39.723104 25.667385 40.027344 25.275391 C 40.784383 24.299993 40.975809 23.876267 40.972656 23.1875 C 40.964956 21.510638 38.850896 19.825109 35.669922 18.654297 C 34.927791 18.381143 34.238084 18.110689 34.136719 18.054688 C 34.004712 17.981758 33.927016 17.626761 33.861328 16.800781 C 33.67337 14.437322 33.184359 13.146174 32.273438 12.154297 C 31.397112 11.200091 30.982787 11.072829 28.541016 11.019531 C 27.93967 11.006401 27.493543 10.995093 27.160156 11.001953 z "
     id="path4536" />
  <path
     style="fill:#ffffff;fill-opacity:1;stroke-width:0.12280902"
     d="m 27.159983,10.002002 c -1.000161,0.02059 -0.990092,-0.08848 -1.142997,0.753507 -0.146461,0.806499 -0.393445,1.274982 -0.671929,1.274982 -0.101843,0 -0.529018,-0.291135 -0.949338,-0.647081 -1.397665,-1.183602 -2.963234,-1.5075325 -4.995068,-1.251309 -0.602352,0.07596 -1.204718,0.196356 -1.338337,0.267798 C 17.018025,13.147855 16.550819,15.230445 16,18 c -1.845651,0.666341 -3.857285,1.345681 -5.43187,2.395623 -0.381661,0.339882 -0.5962601,0.704657 -0.5962601,1.052686 0,0.589188 0.4355941,1.627558 1.6612891,2.42649 1.283169,0.836395 1.516571,1.102782 1.471044,1.14773 -0.02152,0.02124 -0.592258,0.132381 -1.268026,0.246941 C 9.5109612,25.663655 7.2019489,25.749389 7,26.275163 6.945332,26.417493 8.1387527,27.533812 9.9830952,29.991742 11.036198,31.515928 13.185525,33.690313 14,35 13.037445,34.325195 12.03875,33.64491 11,33 10.725784,33 8.4095079,34.4863 7.5516745,35.332377 6.3756679,36.451047 6.1720164,37.740852 6,39.339531 6.0000042,40.861102 6,42.42022 6,44 h 18.430034 17.45526 C 41.551197,40.555893 39.518855,37.272255 37.674703,34.961486 L 37,34 39.433955,30.1845 c 1.411379,-2.078202 2.566046,-3.873433 2.566046,-3.989413 0,-0.242119 -0.838528,-0.613823 -2.088737,-0.925908 -0.439249,-0.109649 -0.818429,-0.218068 -0.84279,-0.240708 -0.02436,-0.02264 0.654416,-0.361775 0.958656,-0.753769 0.757039,-0.975398 0.948893,-1.398722 0.94574,-2.087489 -0.0077,-1.676862 -2.121699,-3.362654 -5.302673,-4.533466 -0.742131,-0.273154 -1.432312,-0.542411 -1.533677,-0.598412 -0.132007,-0.07293 -0.210283,-0.429103 -0.275971,-1.255083 -0.187958,-2.363459 -0.676029,-3.654382 -1.586951,-4.646259 -0.876326,-0.954206 -1.29151,-1.080472 -3.733281,-1.13377 -0.601346,-0.01313 -1.046947,-0.025084 -1.380334,-0.01822 z"
     id="path4519"
     inkscape:connector-curvature="0"
     sodipodi:nodetypes="csssscccsscsccccccccccccsccssssssssc" />
  <path
     id="path4546"
     d="M 16.158203,18.24039 C 16.106015,18.496061 16.053151,18.732907 16,19.000156 c 0.429556,2.701221 4.503899,4.397367 9.335938,4.90625 1.627576,0.171406 3.606998,0.146868 4.46289,-0.05469 1.940525,-0.456979 3.244426,-1.856139 3.867188,-3.953124 C 33.774918,19.531895 34,19.065206 34,19.000156 c -2.439347,1.958 -5.056482,2.312473 -8.429688,1.949219 -3.421503,-0.364143 -6.897405,-0.722964 -9.240234,-2.591797 -0.06267,-0.04999 -0.116097,-0.08245 -0.171875,-0.117188 z m 5.027344,9.660157 -0.119141,0.341797 c -0.0663,0.18811 -0.08567,0.796565 -0.04297,1.230468 0.212614,2.16056 1.016751,3.256281 2.552734,3.47461 2.043802,0.290513 3.348994,-0.03648 3.589844,-1.951172 0.05197,-0.41314 0.171515,-0.802908 0.265625,-0.867188 0.194107,-0.13257 1.451589,-0.162123 1.74414,-0.04102 0.136888,0.05667 0.19336,-0.146099 0.19336,0.28125 0,0.897955 0.391172,1.063403 1.011718,1.378906 1.515567,0.77056 2.9771,0.291337 3.423829,-1.123047 0.20353,-0.644397 0.269406,-2.502674 0.0918,-2.621094 -0.05565,-0.0371 -0.398557,-0.0802 -0.761718,0.02539 -3.105333,0.902895 -6.661768,1.08419 -10.447266,0.144531 z m -1.412109,7.152343 c -0.718753,0 -1.031981,0.0581 -1.363282,0.251954 -0.383257,0.224254 -0.43516,0.314464 -0.46875,0.833984 -0.06283,0.971578 0.51401,3.026325 1.148438,3.660156 0.204174,0.203984 0.432088,0.291016 0.761718,0.291016 0.738648,0 7.051508,-2.146991 7.148438,-2.4375 0.07159,-0.214569 -0.580672,-0.373199 -2.9375,0.02734 -2.483175,0.422012 -2.872656,0.439265 -2.974609,0.173828 -0.04102,-0.106791 -0.07422,-0.88524 -0.07422,-1.445313 0,-1.282494 0.0279,-1.355469 -1.240234,-1.355469 z"
     style="opacity:0.2;fill:#000000;fill-opacity:1;stroke-width:0.12280902"
     inkscape:connector-curvature="0" />
  <path
     style="fill:#505050;stroke-width:0.12280902;fill-opacity:1"
     d="M 16.158203 17.240234 C 16.106015 17.495905 16.053151 17.732751 16 18 C 16.429556 20.701221 20.503899 22.397367 25.335938 22.90625 C 26.963514 23.077656 28.942936 23.053118 29.798828 22.851562 C 31.739353 22.394583 33.043254 20.995423 33.666016 18.898438 C 33.774918 18.531739 34 18.06505 34 18 C 31.560653 19.958 28.943518 20.312473 25.570312 19.949219 C 22.148809 19.585076 18.672907 19.226255 16.330078 17.357422 C 16.267412 17.307436 16.213981 17.274969 16.158203 17.240234 z M 21.185547 26.900391 L 21.066406 27.242188 C 21.000106 27.430298 20.980738 28.038753 21.023438 28.472656 C 21.236052 30.633216 22.040189 31.728937 23.576172 31.947266 C 25.619974 32.237779 26.925166 31.91079 27.166016 29.996094 C 27.217985 29.582954 27.337531 29.193186 27.431641 29.128906 C 27.625748 28.996336 28.88323 28.966783 29.175781 29.087891 C 29.312669 29.144562 29.369141 28.941792 29.369141 29.369141 C 29.369141 30.267096 29.760313 30.432544 30.380859 30.748047 C 31.896426 31.518607 33.357959 31.039384 33.804688 29.625 C 34.008218 28.980603 34.074094 27.122326 33.896484 27.003906 C 33.840836 26.966806 33.497927 26.92371 33.134766 27.029297 C 30.029433 27.932192 26.472998 28.113487 22.6875 27.173828 L 21.185547 26.900391 z M 19.773438 34.052734 C 19.054685 34.052734 18.741457 34.110833 18.410156 34.304688 C 18.026899 34.528942 17.974996 34.619152 17.941406 35.138672 C 17.878581 36.11025 18.455416 38.164997 19.089844 38.798828 C 19.294018 39.002812 19.521932 39.089844 19.851562 39.089844 C 20.59021 39.089844 26.90307 36.942853 27 36.652344 C 27.071591 36.437775 26.419328 36.279145 24.0625 36.679688 C 21.579325 37.1017 21.189844 37.118953 21.087891 36.853516 C 21.046871 36.746725 21.013672 35.968276 21.013672 35.408203 C 21.013672 34.125709 21.041576 34.052734 19.773438 34.052734 z "
     id="path4534" />
</svg>
