<?xml version="1.0" encoding="UTF-8" standalone="no"?>
<svg
   xmlns:dc="http://purl.org/dc/elements/1.1/"
   xmlns:cc="http://creativecommons.org/ns#"
   xmlns:rdf="http://www.w3.org/1999/02/22-rdf-syntax-ns#"
   xmlns:svg="http://www.w3.org/2000/svg"
   xmlns="http://www.w3.org/2000/svg"
   xmlns:sodipodi="http://sodipodi.sourceforge.net/DTD/sodipodi-0.dtd"
   xmlns:inkscape="http://www.inkscape.org/namespaces/inkscape"
   height="48"
   width="48"
   version="1"
   id="svg22"
   sodipodi:docname="ingenuity-eq-player.svg"
   inkscape:version="0.92.1 r15371">
  <metadata
     id="metadata28">
    <rdf:RDF>
      <cc:Work
         rdf:about="">
        <dc:format>image/svg+xml</dc:format>
        <dc:type
           rdf:resource="http://purl.org/dc/dcmitype/StillImage" />
        <dc:title></dc:title>
      </cc:Work>
    </rdf:RDF>
  </metadata>
  <defs
     id="defs26" />
  <sodipodi:namedview
     pagecolor="#ffffff"
     bordercolor="#666666"
     borderopacity="1"
     objecttolerance="10"
     gridtolerance="10"
     guidetolerance="10"
     inkscape:pageopacity="0"
     inkscape:pageshadow="2"
     inkscape:window-width="1600"
     inkscape:window-height="822"
     id="namedview24"
     showgrid="false"
     inkscape:zoom="8.6599296"
     inkscape:cx="6.1550424"
     inkscape:cy="23.688739"
     inkscape:window-x="0"
     inkscape:window-y="0"
     inkscape:window-maximized="1"
     inkscape:current-layer="svg22" />
  <rect
     transform="matrix(0,-1,-1,0,0,0)"
     rx="2"
     ry="2"
     height="40"
     width="40"
     y="-44"
     x="-44"
     fill="#e94a63"
     id="rect2"
     style="fill:#3f3f3f;fill-opacity:1" />
  <path
     opacity=".2"
     fill="#fff"
     d="m6 4c-1.108 0-2 0.892-2 2v1c0-1.108 0.892-2 2-2h36c1.108 0 2 0.892 2 2v-1c0-1.108-0.892-2-2-2h-36z"
     id="path4"
     style="opacity:0.1" />
  <path
     opacity=".2"
     d="m6 45c-1.108 0-2-0.892-2-2v-1c0 1.108 0.892 2 2 2h36c1.108 0 2-0.892 2-2v1c0 1.108-0.892 2-2 2h-36z"
     id="path6" />
  <path
     id="path4511"
     d="m 42,33 a 9.0000001,8.9999999 0 0 1 -9,9 9.0000001,8.9999999 0 0 1 -9,-9 9.0000001,8.9999999 0 0 1 9,-9 9.0000001,8.9999999 0 0 1 9,9 z"
     inkscape:connector-curvature="0"
     style="opacity:0.3;fill:#000000;fill-opacity:1;stroke-width:2.25" />
  <path
     id="path4515"
     d="m 40.000001,34 a 7.0000001,6.9999999 0 0 1 -7,7 7.0000001,6.9999999 0 0 1 -7,-7 7.0000001,6.9999999 0 0 1 7,-7 7.0000001,6.9999999 0 0 1 7,7 z"
     inkscape:connector-curvature="0"
     style="opacity:0.2;fill:#000000;fill-opacity:1;stroke-width:1.75" />
  <path
     style="opacity:1;fill:#4f4f4f;fill-opacity:1;stroke-width:1.75"
     inkscape:connector-curvature="0"
     d="M 39.062179,36.5 A 7.0000001,6.9999999 30 0 1 29.500001,39.062178 7.0000001,6.9999999 30 0 1 26.937823,29.5 7.0000001,6.9999999 30 0 1 36.500001,26.937822 7.0000001,6.9999999 30 0 1 39.062179,36.5 Z"
     id="path4513" />
  <path
     inkscape:connector-curvature="0"
     style="opacity:0.1;fill:#ffffff;fill-opacity:1;stroke-width:1.75"
     d="M 32.669922,26.007812 A 7.0000001,6.9999999 30 0 0 26.9375,29.5 7.0000001,6.9999999 30 0 0 26.023438,33.494141 7.0000001,6.9999999 30 0 1 26.9375,30.5 7.0000001,6.9999999 30 0 1 36.5,27.9375 7.0000001,6.9999999 30 0 1 39.976562,33.505859 7.0000001,6.9999999 30 0 0 36.5,26.9375 7.0000001,6.9999999 30 0 0 32.669922,26.007812 Z"
     id="path4565" />
  <rect
     style="opacity:1;fill:#ffe172;fill-opacity:1;stroke:none;stroke-width:3.46299195;stroke-linecap:round;stroke-linejoin:round;stroke-miterlimit:4;stroke-dasharray:none;stroke-dashoffset:0;stroke-opacity:1"
     id="rect4523"
     width="2"
     height="6"
     x="44.078838"
     y="4.0788379"
     rx="1"
     ry="1"
     transform="rotate(30)" />
  <path
     style="opacity:1;fill:#ffe172;fill-opacity:1;stroke:none;stroke-width:3.09744835;stroke-linecap:round;stroke-linejoin:round;stroke-miterlimit:4;stroke-dasharray:none;stroke-dashoffset:0;stroke-opacity:1"
     d="M 19.000001,25.000001 H 5.753313 c -0.417335,0 -0.753312,-0.355016 -0.753312,-0.796 v -0.408 c 0,-0.440984 0.335977,-0.796 0.753312,-0.796 h 13.246688 z"
     id="rect4547"
     inkscape:connector-curvature="0"
     sodipodi:nodetypes="csssscc" />
  <circle
     r="3"
     cy="25"
     cx="19"
     id="circle4533"
     style="opacity:0.2;fill:#000000;fill-opacity:1;stroke:none;stroke-width:5.91784811;stroke-linecap:square;stroke-linejoin:miter;stroke-miterlimit:4;stroke-dasharray:none;stroke-dashoffset:0;stroke-opacity:1" />
  <circle
     style="opacity:1;fill:#4f4f4f;fill-opacity:1;stroke:none;stroke-width:5.91784811;stroke-linecap:square;stroke-linejoin:miter;stroke-miterlimit:4;stroke-dasharray:none;stroke-dashoffset:0;stroke-opacity:1"
     id="path4519"
     cx="19"
     cy="24"
     r="3" />
  <path
     sodipodi:nodetypes="csssscc"
     inkscape:connector-curvature="0"
     id="path4540"
     d="M 19.000001,37.000001 H 5.753313 c -0.417335,0 -0.753312,-0.355016 -0.753312,-0.796 v -0.408 c 0,-0.440984 0.335977,-0.796 0.753312,-0.796 h 13.246688 z"
     style="opacity:1;fill:#ffe172;fill-opacity:1;stroke:none;stroke-width:3.09744835;stroke-linecap:round;stroke-linejoin:round;stroke-miterlimit:4;stroke-dasharray:none;stroke-dashoffset:0;stroke-opacity:1" />
  <circle
     style="opacity:0.2;fill:#000000;fill-opacity:1;stroke:none;stroke-width:5.91784811;stroke-linecap:square;stroke-linejoin:miter;stroke-miterlimit:4;stroke-dasharray:none;stroke-dashoffset:0;stroke-opacity:1"
     id="circle4542"
     cx="19"
     cy="37"
     r="3" />
  <circle
     r="3"
     cy="36"
     cx="19"
     id="circle4544"
     style="opacity:1;fill:#4f4f4f;fill-opacity:1;stroke:none;stroke-width:5.91784811;stroke-linecap:square;stroke-linejoin:miter;stroke-miterlimit:4;stroke-dasharray:none;stroke-dashoffset:0;stroke-opacity:1" />
  <path
     sodipodi:nodetypes="csssscc"
     inkscape:connector-curvature="0"
     id="path4548"
     d="M 19.000001,13.000001 H 5.753313 c -0.417335,0 -0.753312,-0.355016 -0.753312,-0.796 v -0.408 c 0,-0.440984 0.335977,-0.796 0.753312,-0.796 h 13.246688 z"
     style="opacity:1;fill:#ffe172;fill-opacity:1;stroke:none;stroke-width:3.09744835;stroke-linecap:round;stroke-linejoin:round;stroke-miterlimit:4;stroke-dasharray:none;stroke-dashoffset:0;stroke-opacity:1" />
  <circle
     style="opacity:0.2;fill:#000000;fill-opacity:1;stroke:none;stroke-width:5.91784811;stroke-linecap:square;stroke-linejoin:miter;stroke-miterlimit:4;stroke-dasharray:none;stroke-dashoffset:0;stroke-opacity:1"
     id="circle4550"
     cx="19"
     cy="13"
     r="3" />
  <circle
     r="3"
     cy="12"
     cx="19"
     id="circle4552"
     style="opacity:1;fill:#4f4f4f;fill-opacity:1;stroke:none;stroke-width:5.91784811;stroke-linecap:square;stroke-linejoin:miter;stroke-miterlimit:4;stroke-dasharray:none;stroke-dashoffset:0;stroke-opacity:1" />
  <path
     style="opacity:0.1;fill:#ffffff;fill-opacity:1;stroke:none;stroke-width:5.91784811;stroke-linecap:square;stroke-linejoin:miter;stroke-miterlimit:4;stroke-dasharray:none;stroke-dashoffset:0;stroke-opacity:1"
     d="M 19 21 A 3 3 0 0 0 16 24 A 3 3 0 0 0 16.042969 24.513672 A 3 3 0 0 1 19 22 A 3 3 0 0 1 21.957031 24.486328 A 3 3 0 0 0 22 24 A 3 3 0 0 0 19 21 z "
     id="circle4570" />
  <path
     style="opacity:0.1;fill:#ffffff;fill-opacity:1;stroke:none;stroke-width:5.91784811;stroke-linecap:square;stroke-linejoin:miter;stroke-miterlimit:4;stroke-dasharray:none;stroke-dashoffset:0;stroke-opacity:1"
     d="M 19 33 A 3 3 0 0 0 16 36 A 3 3 0 0 0 16.042969 36.513672 A 3 3 0 0 1 19 34 A 3 3 0 0 1 21.957031 36.486328 A 3 3 0 0 0 22 36 A 3 3 0 0 0 19 33 z "
     id="circle4572" />
  <path
     style="opacity:0.1;fill:#ffffff;fill-opacity:1;stroke:none;stroke-width:5.91784811;stroke-linecap:square;stroke-linejoin:miter;stroke-miterlimit:4;stroke-dasharray:none;stroke-dashoffset:0;stroke-opacity:1"
     d="M 19 9 A 3 3 0 0 0 16 12 A 3 3 0 0 0 16.042969 12.513672 A 3 3 0 0 1 19 10 A 3 3 0 0 1 21.957031 12.486328 A 3 3 0 0 0 22 12 A 3 3 0 0 0 19 9 z "
     id="circle4574" />
  <rect
     style="opacity:0.3;fill:#000000;fill-opacity:1;stroke:none;stroke-width:8.33737659;stroke-linecap:square;stroke-linejoin:miter;stroke-miterlimit:4;stroke-dasharray:none;stroke-dashoffset:0;stroke-opacity:1"
     id="rect4585"
     width="18"
     height="8"
     x="24"
     y="8"
     rx="4"
     ry="3.5555556" />
  <circle
     r="4"
     cy="13"
     cx="38"
     id="circle4589"
     style="opacity:0.2;fill:#000000;fill-opacity:1;stroke:none;stroke-width:6.8159709;stroke-linecap:square;stroke-linejoin:miter;stroke-miterlimit:4;stroke-dasharray:none;stroke-dashoffset:0;stroke-opacity:1" />
  <circle
     style="opacity:1;fill:#4f4f4f;fill-opacity:1;stroke:none;stroke-width:6.8159709;stroke-linecap:square;stroke-linejoin:miter;stroke-miterlimit:4;stroke-dasharray:none;stroke-dashoffset:0;stroke-opacity:1"
     id="path4587"
     cx="38"
     cy="12"
     r="4" />
  <path
     style="opacity:0.1;fill:#ffffff;fill-opacity:1;stroke:none;stroke-width:6.8159709;stroke-linecap:square;stroke-linejoin:miter;stroke-miterlimit:4;stroke-dasharray:none;stroke-dashoffset:0;stroke-opacity:1"
     d="M 38 8 A 4 4 0 0 0 34 12 A 4 4 0 0 0 34.035156 12.494141 A 4 4 0 0 1 38 9 A 4 4 0 0 1 41.964844 12.505859 A 4 4 0 0 0 42 12 A 4 4 0 0 0 38 8 z "
     id="circle4591" />
</svg>
