<?xml version="1.0" encoding="UTF-8" standalone="no"?>
<svg
   xmlns:dc="http://purl.org/dc/elements/1.1/"
   xmlns:cc="http://creativecommons.org/ns#"
   xmlns:rdf="http://www.w3.org/1999/02/22-rdf-syntax-ns#"
   xmlns:svg="http://www.w3.org/2000/svg"
   xmlns="http://www.w3.org/2000/svg"
   xmlns:sodipodi="http://sodipodi.sourceforge.net/DTD/sodipodi-0.dtd"
   xmlns:inkscape="http://www.inkscape.org/namespaces/inkscape"
   height="48"
   width="48"
   version="1"
   id="svg18"
   sodipodi:docname="iron-browser.svg"
   inkscape:version="0.91 r13725">
  <metadata
     id="metadata24">
    <rdf:RDF>
      <cc:Work
         rdf:about="">
        <dc:format>image/svg+xml</dc:format>
        <dc:type
           rdf:resource="http://purl.org/dc/dcmitype/StillImage" />
        <dc:title />
      </cc:Work>
    </rdf:RDF>
  </metadata>
  <defs
     id="defs22" />
  <sodipodi:namedview
     pagecolor="#ffffff"
     bordercolor="#666666"
     borderopacity="1"
     objecttolerance="10"
     gridtolerance="10"
     guidetolerance="10"
     inkscape:pageopacity="0"
     inkscape:pageshadow="2"
     inkscape:window-width="1920"
     inkscape:window-height="1018"
     id="namedview20"
     showgrid="true"
     inkscape:zoom="4.05"
     inkscape:cx="-48.93257"
     inkscape:cy="23.167562"
     inkscape:window-x="0"
     inkscape:window-y="32"
     inkscape:window-maximized="1"
     inkscape:current-layer="svg18">
    <inkscape:grid
       type="xygrid"
       id="grid4522" />
  </sodipodi:namedview>
  <rect
     transform="matrix(0,-1,-1,0,0,0)"
     rx="20"
     ry="20"
     height="40"
     width="40"
     y="-44"
     x="-45"
     id="rect4518"
     style="opacity:0.2;fill:#000000;fill-opacity:1;stroke-width:1.00090075" />
  <rect
     style="fill:#e4e4e4;fill-opacity:1;stroke-width:1.00090075"
     id="rect2"
     x="-44"
     y="-44"
     width="40"
     height="40"
     ry="20"
     rx="20"
     transform="matrix(0,-1,-1,0,0,0)" />
  <path
     style="fill:#ffffff;fill-opacity:1;stroke-width:1.00090075;opacity:0.2"
     d="M 24 4 C 12.92 4 4 12.92 4 24 C 4 24.167874 4.007647 24.333141 4.0117188 24.5 C 4.2763904 13.653863 13.087874 5 24 5 C 34.912126 5 43.72361 13.653863 43.988281 24.5 C 43.992353 24.333141 44 24.167874 44 24 C 44 12.92 35.08 4 24 4 z "
     id="rect4513" />
  <path
     id="path4508"
     d="m 22.521484,10.14399 c -3.059558,-0.08979 -6.002766,0.537298 -8.720703,1.173827 -4.004215,0.937773 -10.5937498,3.84375 -10.5937498,3.84375 a 2.0002,2.0002 0 0 0 -0.041016,3.654297 c 0,0 1.5022169,0.692673 3.0429688,1.677735 0.7703759,0.492531 1.53911,1.057113 2.0742187,1.570312 0.5351087,0.513199 0.7599702,0.987298 0.7597657,0.986328 0.023114,0.109556 -0.040205,1.117376 -0.4277344,2.285157 -0.3875294,1.16778 -1.0001301,2.54431 -1.6425782,3.830078 -1.2848961,2.571534 -2.6660156,4.765625 -2.6660156,4.765625 a 2.0002,2.0002 0 0 0 3.125,2.46289 c 0,0 9.9284004,-10.033743 23.4785154,-10.396484 2.523411,-0.06755 5.884053,1.046087 8.507813,2.253906 2.62376,1.207819 4.492187,2.421875 4.492187,2.421875 a 2.0002,2.0002 0 0 0 2.927735,-2.466797 C 42.952225,19.173221 34.9091,11.441459 23.857422,10.229927 a 2.0002,2.0002 0 0 0 -0.01758,-0.002 c -0.441496,-0.04417 -0.88128,-0.07116 -1.31836,-0.08398 z"
     style="opacity:0.2;vector-effect:none;fill:#000000;fill-opacity:1;stroke:none;stroke-width:10;stroke-linecap:round;stroke-linejoin:round;stroke-miterlimit:4;stroke-dasharray:none;stroke-dashoffset:0;stroke-opacity:1"
     inkscape:connector-curvature="0" />
  <path
     style="opacity:1;vector-effect:none;fill:#3886dc;fill-opacity:1;stroke:none;stroke-width:10;stroke-linecap:round;stroke-linejoin:round;stroke-miterlimit:4;stroke-dasharray:none;stroke-dashoffset:0;stroke-opacity:1"
     d="M 22.521484 9.1464844 C 19.461926 9.0566907 16.518718 9.6837826 13.800781 10.320312 C 9.796566 11.258085 3.2070312 14.164062 3.2070312 14.164062 A 2.0002 2.0002 0 0 0 3.1660156 17.818359 C 3.1660156 17.818359 4.6682325 18.511032 6.2089844 19.496094 C 6.9793603 19.988625 7.7480944 20.553207 8.2832031 21.066406 C 8.8183118 21.579605 9.0431733 22.053704 9.0429688 22.052734 C 9.0660827 22.16229 9.0027638 23.17011 8.6152344 24.337891 C 8.227705 25.505671 7.6151043 26.882201 6.9726562 28.167969 C 5.6877601 30.739503 4.3066406 32.933594 4.3066406 32.933594 A 2.0002 2.0002 0 0 0 7.4316406 35.396484 C 7.4316406 35.396484 17.360041 25.362741 30.910156 25 C 33.433567 24.93245 36.794209 26.046087 39.417969 27.253906 C 42.041729 28.461725 43.910156 29.675781 43.910156 29.675781 A 2.0002 2.0002 0 0 0 46.837891 27.208984 C 42.952225 18.175716 34.9091 10.443954 23.857422 9.2324219 A 2.0002 2.0002 0 0 0 23.839844 9.2304688 C 23.398348 9.1862953 22.958564 9.159312 22.521484 9.1464844 z "
     id="rect4500" />
</svg>
