<?xml version="1.0" encoding="UTF-8" standalone="no"?>
<svg
   xmlns:dc="http://purl.org/dc/elements/1.1/"
   xmlns:cc="http://creativecommons.org/ns#"
   xmlns:rdf="http://www.w3.org/1999/02/22-rdf-syntax-ns#"
   xmlns:svg="http://www.w3.org/2000/svg"
   xmlns="http://www.w3.org/2000/svg"
   xmlns:sodipodi="http://sodipodi.sourceforge.net/DTD/sodipodi-0.dtd"
   xmlns:inkscape="http://www.inkscape.org/namespaces/inkscape"
   height="48"
   width="48"
   version="1"
   id="svg12"
   sodipodi:docname="just-listenit.svg"
   inkscape:version="0.92.1 r15371">
  <metadata
     id="metadata18">
    <rdf:RDF>
      <cc:Work
         rdf:about="">
        <dc:format>image/svg+xml</dc:format>
        <dc:type
           rdf:resource="http://purl.org/dc/dcmitype/StillImage" />
        <dc:title />
      </cc:Work>
    </rdf:RDF>
  </metadata>
  <defs
     id="defs16" />
  <sodipodi:namedview
     pagecolor="#ffffff"
     bordercolor="#666666"
     borderopacity="1"
     objecttolerance="10"
     gridtolerance="10"
     guidetolerance="10"
     inkscape:pageopacity="0"
     inkscape:pageshadow="2"
     inkscape:window-width="1600"
     inkscape:window-height="822"
     id="namedview14"
     showgrid="false"
     inkscape:zoom="13.12"
     inkscape:cx="13.441592"
     inkscape:cy="23.364737"
     inkscape:window-x="0"
     inkscape:window-y="0"
     inkscape:window-maximized="1"
     inkscape:current-layer="svg12">
    <inkscape:grid
       type="xygrid"
       id="grid4524" />
  </sodipodi:namedview>
  <rect
     transform="matrix(0,-1,-1,0,0,0)"
     rx="20"
     ry="20"
     height="40"
     width="40"
     y="-44"
     x="-44"
     id="rect2"
     style="fill:#fc7e39;fill-opacity:1;stroke-width:1.00005007" />
  <path
     opacity=".2"
     d="m24 4c-11.079 0-19.998 8.92-19.998 20 0 0.16772-0.004 0.33329 0 0.5 0.2642-10.846 9.087-19.5 19.998-19.5s19.734 8.6536 19.998 19.5c0.004-0.16671 0-0.33228 0-0.5 0-11.08-8.919-20-19.998-20z"
     fill="#fff"
     id="path8"
     style="opacity:0.1" />
  <path
     opacity=".2"
     d="m4.0117 24.5c-0.0041 0.167-0.0117 0.332-0.0117 0.5 0 11.08 8.92 20 20 20s20-8.92 20-20c0-0.168-0.008-0.333-0.012-0.5-0.264 10.846-9.076 19.5-19.988 19.5s-19.724-8.654-19.988-19.5z"
     id="path10" />
  <path
     id="path4490"
     d="M 22.775391,10.000745 C 20.841419,9.9961045 19.963366,10.315675 18.78125,11.45387 18.193611,12.019672 17,13.568557 17,14.008557 c 0,0.116926 2.221654,3.038549 4.582031,6.494141 2.360378,3.455592 4.313607,6.396105 4.341797,6.533203 0.03987,0.193748 -0.233342,0.009 -1.228516,-0.03516 -1.722139,-0.07646 -3.029557,0.432065 -4.607421,1.21875 -3.229772,1.610282 -4.78536,4.791142 -3.791016,7.757812 0.570506,1.702132 2.304464,3.149622 4.486328,3.746094 C 25.597497,41.039525 31.016936,37.47121 31,32.994886 c -0.0023,-0.626948 -0.142025,-1.367638 -0.339844,-1.806641 -0.184279,-0.408962 -2.143815,-3.712259 -4.355468,-7.341797 -2.211654,-3.629538 -4.119526,-6.78949 -4.240235,-7.021484 -0.318179,-0.61153 0.08439,-2.003576 0.974609,-2.445313 0.656445,-0.325731 0.851379,-0.436968 2.203126,-0.238281 2.028438,0.298149 2.46523,1.224622 3.167968,0.789063 0.661321,-0.409884 1.299777,-1.662279 1.480469,-2.902344 L 30,10.992932 l -1.330078,0.01563 c -1.022199,0.01175 -1.47899,0.179219 -2.69336,-0.357422 -1.327177,-0.586488 -1.625155,-0.646605 -3.201171,-0.65039 z m -0.957032,21 c 0.398723,0.0015 3.919147,2.302207 4.115235,2.689453 0.247997,0.489756 -0.161714,0.939139 -1.886719,2.072266 -2.076119,1.363759 -2.286152,1.441034 -2.708984,0.99414 C 21.036561,36.438131 21,36.153421 21,34.100354 c 0,-2.419412 0.179855,-3.101823 0.818359,-3.099609 z"
     style="opacity:0.2;fill:#000000;fill-opacity:1;stroke-width:0.18436819"
     inkscape:connector-curvature="0" />
  <path
     style="fill:#ffffff;stroke-width:0.18436819;fill-opacity:1"
     d="M 22.775391 9 C 20.841419 8.99536 19.963366 9.3149301 18.78125 10.453125 C 18.193611 11.018927 17 12.567812 17 13.007812 C 17 13.124738 19.221654 16.046361 21.582031 19.501953 C 23.942409 22.957545 25.895638 25.898058 25.923828 26.035156 C 25.963698 26.228904 25.690486 26.04417 24.695312 26 C 22.973173 25.92354 21.665755 26.432065 20.087891 27.21875 C 16.858119 28.829032 15.302531 32.009892 16.296875 34.976562 C 16.867381 36.678694 18.601339 38.126184 20.783203 38.722656 C 25.597497 40.03878 31.016936 36.470465 31 31.994141 C 30.9977 31.367193 30.857975 30.626503 30.660156 30.1875 C 30.475877 29.778538 28.516341 26.475241 26.304688 22.845703 C 24.093034 19.216165 22.185162 16.056213 22.064453 15.824219 C 21.746274 15.212689 22.148838 13.820643 23.039062 13.378906 C 23.695507 13.053175 23.890441 12.941938 25.242188 13.140625 C 27.270626 13.438774 27.707418 14.365247 28.410156 13.929688 C 29.071477 13.519804 29.709933 12.267409 29.890625 11.027344 L 30 9.9921875 L 28.669922 10.007812 C 27.647723 10.01956 27.190932 10.187031 25.976562 9.6503906 C 24.649385 9.063902 24.351407 9.0037857 22.775391 9 z M 21.818359 30 C 22.217082 30.0015 25.737506 32.302207 25.933594 32.689453 C 26.181591 33.179209 25.77188 33.628592 24.046875 34.761719 C 21.970756 36.125478 21.760723 36.202753 21.337891 35.755859 C 21.036561 35.437386 21 35.152676 21 33.099609 C 21 30.680197 21.179855 29.997786 21.818359 30 z "
     id="path4528" />
</svg>
