<?xml version="1.0" encoding="UTF-8" standalone="no"?>
<svg
   xmlns:dc="http://purl.org/dc/elements/1.1/"
   xmlns:cc="http://creativecommons.org/ns#"
   xmlns:rdf="http://www.w3.org/1999/02/22-rdf-syntax-ns#"
   xmlns:svg="http://www.w3.org/2000/svg"
   xmlns="http://www.w3.org/2000/svg"
   xmlns:sodipodi="http://sodipodi.sourceforge.net/DTD/sodipodi-0.dtd"
   xmlns:inkscape="http://www.inkscape.org/namespaces/inkscape"
   height="48"
   width="48"
   version="1"
   id="svg12"
   sodipodi:docname="laya-music-player.svg"
   inkscape:version="0.91 r13725">
  <metadata
     id="metadata18">
    <rdf:RDF>
      <cc:Work
         rdf:about="">
        <dc:format>image/svg+xml</dc:format>
        <dc:type
           rdf:resource="http://purl.org/dc/dcmitype/StillImage" />
        <dc:title />
      </cc:Work>
    </rdf:RDF>
  </metadata>
  <defs
     id="defs16">
    <style
       id="current-color-scheme"
       type="text/css">
   .ColorScheme-Text { color:#5c616c; } .ColorScheme-Highlight { color:#5294e2; } .ColorScheme-ButtonBackground { color:#d3dae3; }
  </style>
    <style
       id="current-color-scheme-3"
       type="text/css">
   .ColorScheme-Text { color:#5c616c; } .ColorScheme-Highlight { color:#5294e2; } .ColorScheme-ButtonBackground { color:#d3dae3; }
  </style>
    <style
       id="current-color-scheme-6"
       type="text/css">
   .ColorScheme-Text { color:#5c616c; } .ColorScheme-Highlight { color:#5294e2; } .ColorScheme-ButtonBackground { color:#d3dae3; }
  </style>
    <style
       id="current-color-scheme-7"
       type="text/css">
   .ColorScheme-Text { color:#5c616c; } .ColorScheme-Highlight { color:#5294e2; } .ColorScheme-ButtonBackground { color:#d3dae3; }
  </style>
  </defs>
  <sodipodi:namedview
     pagecolor="#ffffff"
     bordercolor="#666666"
     borderopacity="1"
     objecttolerance="10"
     gridtolerance="10"
     guidetolerance="10"
     inkscape:pageopacity="0"
     inkscape:pageshadow="2"
     inkscape:window-width="1920"
     inkscape:window-height="1018"
     id="namedview14"
     showgrid="false"
     inkscape:zoom="11.42"
     inkscape:cx="6.5954466"
     inkscape:cy="25.326523"
     inkscape:window-x="0"
     inkscape:window-y="32"
     inkscape:window-maximized="1"
     inkscape:current-layer="svg12">
    <inkscape:grid
       type="xygrid"
       id="grid4526" />
  </sodipodi:namedview>
  <rect
     transform="matrix(0,-1,-1,0,0,0)"
     rx="20"
     ry="20"
     height="40"
     width="40"
     y="-44"
     x="-44"
     id="rect2"
     style="fill:#087abf;fill-opacity:1;stroke-width:1.00005007" />
  <path
     opacity=".2"
     d="m24 4c-11.079 0-19.998 8.92-19.998 20 0 0.16772-0.004 0.33329 0 0.5 0.2642-10.846 9.087-19.5 19.998-19.5s19.734 8.6536 19.998 19.5c0.004-0.16671 0-0.33228 0-0.5 0-11.08-8.919-20-19.998-20z"
     fill="#fff"
     id="path8"
     style="opacity:0.2" />
  <path
     opacity=".2"
     d="m4.0117 24.5c-0.0041 0.167-0.0117 0.332-0.0117 0.5 0 11.08 8.92 20 20 20s20-8.92 20-20c0-0.168-0.008-0.333-0.012-0.5-0.264 10.846-9.076 19.5-19.988 19.5s-19.724-8.654-19.988-19.5z"
     id="path10" />
  <path
     inkscape:connector-curvature="0"
     id="path4614"
     d="M 21.262552,19.000508 A 1.2330132,1.3249634 0 0 0 20,20.324763 v 4.675907 4.675906 a 1.2330132,1.3249634 0 0 0 1.848546,1.146516 l 3.7699,-2.336001 3.768121,-2.339907 a 1.2330132,1.3249634 0 0 0 0,-2.291077 l -3.768121,-2.339907 -3.7699,-2.335999 a 1.2330132,1.3249634 0 0 0 -0.585994,-0.179693 z"
     style="opacity:0.2;fill:#030303;fill-opacity:1;stroke:none;stroke-width:3.04590845;stroke-linecap:round;stroke-linejoin:round;stroke-miterlimit:4;stroke-dasharray:none;stroke-dashoffset:0;stroke-opacity:1" />
  <path
     style="opacity:1;fill:#ffffff;fill-opacity:1;stroke:none;stroke-width:3.04590845;stroke-linecap:round;stroke-linejoin:round;stroke-miterlimit:4;stroke-dasharray:none;stroke-dashoffset:0;stroke-opacity:1"
     d="M 21.262552,18.000444 A 1.2330132,1.3249634 0 0 0 20,19.324699 v 4.675907 4.675906 a 1.2330132,1.3249634 0 0 0 1.848546,1.146516 l 3.7699,-2.336001 3.768121,-2.339907 a 1.2330132,1.3249634 0 0 0 0,-2.291077 l -3.768121,-2.339907 -3.7699,-2.335999 a 1.2330132,1.3249634 0 0 0 -0.585994,-0.179693 z"
     id="path4514"
     inkscape:connector-curvature="0" />
  <path
     style="opacity:0.4;fill:#000000;fill-opacity:1;stroke:none;stroke-width:5.33333349;stroke-linecap:round;stroke-linejoin:round;stroke-miterlimit:4;stroke-dasharray:none;stroke-dashoffset:0;stroke-opacity:1"
     d="M 22 7 C 21.446 7 21 7.3825647 21 7.8574219 L 21 12.142578 C 21 12.617435 21.446 13 22 13 C 22.554 13 23 12.617435 23 12.142578 L 23 7.8574219 C 23 7.3825647 22.554 7 22 7 z M 26 7 C 25.446 7 25 7.3825647 25 7.8574219 L 25 12.142578 C 25 12.617435 25.446 13 26 13 C 26.554 13 27 12.617435 27 12.142578 L 27 7.8574219 C 27 7.3825647 26.554 7 26 7 z M 9.4941406 21 C 9.4116506 21.0031 9.3310645 21.034034 9.2597656 21.089844 L 7.7519531 22.257812 L 6.2460938 23.427734 C 5.9181305 23.682942 5.9181306 24.319011 6.2460938 24.574219 L 7.7519531 25.744141 L 9.2597656 26.912109 C 9.588803 27.167876 10.000469 26.848533 10 26.337891 L 10 24.029297 C 10.0073 24.255489 10.100131 24.460996 10.246094 24.574219 L 11.751953 25.744141 L 13.259766 26.912109 C 13.588803 27.167871 14.000469 26.848532 14 26.337891 L 14 24 L 14 21.662109 C 13.999932 21.289634 13.771348 20.990444 13.494141 21 C 13.411651 21.0031 13.331065 21.034034 13.259766 21.089844 L 11.751953 22.257812 L 10.246094 23.427734 C 10.101811 23.539479 10.009256 23.741479 10 23.964844 L 10 21.662109 C 9.9999323 21.289634 9.7713473 20.990443 9.4941406 21 z M 34.505859 21 C 34.228652 20.990444 34.000068 21.289634 34 21.662109 L 34 24 L 34 26.337891 C 33.999531 26.848532 34.411197 27.167871 34.740234 26.912109 L 36.248047 25.744141 L 37.753906 24.574219 C 37.899869 24.460996 37.992679 24.255489 38 24.029297 L 38 26.337891 C 37.999531 26.848532 38.411197 27.167871 38.740234 26.912109 L 40.248047 25.744141 L 41.753906 24.574219 C 42.081869 24.319011 42.081869 23.682942 41.753906 23.427734 L 40.248047 22.257812 L 38.740234 21.089844 C 38.668935 21.03403 38.588349 21.003138 38.505859 21 C 38.228652 20.990444 38.000068 21.289634 38 21.662109 L 38 23.964844 C 37.9907 23.741479 37.898189 23.539475 37.753906 23.427734 L 36.248047 22.257812 L 34.740234 21.089844 C 34.668935 21.03403 34.588349 21.003138 34.505859 21 z M 25.505859 31.992188 C 25.228994 31.984234 25.000557 32.232957 25 32.542969 L 25 34.068359 C 24.264986 33.992729 23.296346 33.924162 22.230469 33.966797 C 21.259715 34.005627 20.276075 34.133917 19.470703 34.488281 C 18.665331 34.842644 18 35.533855 18 36.492188 C 17.9904 37.168349 19.009563 37.168349 19 36.492188 C 19 35.950521 19.272169 35.666731 19.873047 35.402344 C 20.473925 35.137958 21.365285 35.002967 22.269531 34.966797 C 23.352201 34.923487 24.295179 34.999407 25 35.076172 L 25 36.441406 C 25.000873 36.866073 25.411867 37.130671 25.740234 36.917969 L 27.248047 35.945312 L 28.753906 34.970703 C 29.081534 34.757958 29.081534 34.22837 28.753906 34.015625 L 27.248047 33.041016 L 25.740234 32.066406 C 25.668884 32.020126 25.588299 31.994608 25.505859 31.992188 z M 28.492188 36.992188 C 28.216043 36.996496 27.995679 37.223855 28 37.5 C 28 38.041667 27.727831 38.325457 27.126953 38.589844 C 26.526075 38.85423 25.634715 38.989221 24.730469 39.025391 C 23.647799 39.068701 22.704821 38.992781 22 38.916016 L 22 37.550781 C 21.999126 37.126115 21.588132 36.861517 21.259766 37.074219 L 19.751953 38.046875 L 18.246094 39.021484 C 17.918466 39.234229 17.918466 39.763818 18.246094 39.976562 L 19.751953 40.951172 L 21.259766 41.925781 C 21.331116 41.972061 21.411701 41.99758 21.494141 42 C 21.771006 42.008 21.999443 41.759231 22 41.449219 L 22 39.923828 C 22.735014 39.999458 23.703654 40.068026 24.769531 40.025391 C 25.740285 39.986561 26.723925 39.85827 27.529297 39.503906 C 28.334669 39.149542 29 38.458333 29 37.5 C 29.0044 37.217734 28.774453 36.987771 28.492188 36.992188 z "
     id="path4153" />
</svg>
