<?xml version="1.0" encoding="UTF-8" standalone="no"?>
<svg
   xmlns:dc="http://purl.org/dc/elements/1.1/"
   xmlns:cc="http://creativecommons.org/ns#"
   xmlns:rdf="http://www.w3.org/1999/02/22-rdf-syntax-ns#"
   xmlns:svg="http://www.w3.org/2000/svg"
   xmlns="http://www.w3.org/2000/svg"
   xmlns:sodipodi="http://sodipodi.sourceforge.net/DTD/sodipodi-0.dtd"
   xmlns:inkscape="http://www.inkscape.org/namespaces/inkscape"
   height="48"
   width="48"
   version="1"
   id="svg18"
   sodipodi:docname="lightning-web-browser.svg"
   inkscape:version="0.92.1 r15371">
  <metadata
     id="metadata24">
    <rdf:RDF>
      <cc:Work
         rdf:about="">
        <dc:format>image/svg+xml</dc:format>
        <dc:type
           rdf:resource="http://purl.org/dc/dcmitype/StillImage" />
        <dc:title></dc:title>
      </cc:Work>
    </rdf:RDF>
  </metadata>
  <defs
     id="defs22" />
  <sodipodi:namedview
     pagecolor="#ffffff"
     bordercolor="#666666"
     borderopacity="1"
     objecttolerance="10"
     gridtolerance="10"
     guidetolerance="10"
     inkscape:pageopacity="0"
     inkscape:pageshadow="2"
     inkscape:window-width="1600"
     inkscape:window-height="822"
     id="namedview20"
     showgrid="false"
     inkscape:zoom="7.03"
     inkscape:cx="21.080369"
     inkscape:cy="13.602551"
     inkscape:window-x="0"
     inkscape:window-y="0"
     inkscape:window-maximized="1"
     inkscape:current-layer="svg18">
    <inkscape:grid
       type="xygrid"
       id="grid4522" />
  </sodipodi:namedview>
  <rect
     transform="matrix(0,-1,-1,0,0,0)"
     rx="20"
     ry="20"
     height="40"
     width="40"
     y="-44"
     x="-45"
     id="rect4518"
     style="opacity:0.2;fill:#000000;fill-opacity:1;stroke-width:1.00090075" />
  <rect
     style="fill:#1f7ee5;fill-opacity:1;stroke-width:1.00090075"
     id="rect2"
     x="-44"
     y="-44"
     width="40"
     height="40"
     ry="20"
     rx="20"
     transform="matrix(0,-1,-1,0,0,0)" />
  <path
     sodipodi:nodetypes="cccccccc"
     inkscape:connector-curvature="0"
     id="path4519"
     d="m 22,28.000001 h 3.5 L 23.999999,30.5 l 3.999999,0.5 -7,8 2,-6 -3,-1 z"
     style="opacity:0.2;vector-effect:none;fill:#000000;fill-opacity:1;stroke:none;stroke-width:10;stroke-linecap:round;stroke-linejoin:round;stroke-miterlimit:4;stroke-dasharray:none;stroke-dashoffset:0;stroke-opacity:1" />
  <path
     style="opacity:1;vector-effect:none;fill:#ffe242;fill-opacity:1;stroke:none;stroke-width:10;stroke-linecap:round;stroke-linejoin:round;stroke-miterlimit:4;stroke-dasharray:none;stroke-dashoffset:0;stroke-opacity:1"
     d="m 22,27 3.5,0 -1.500001,2.499999 3.999999,0.5 -7,8 2,-6 -3,-1 z"
     id="rect4514"
     inkscape:connector-curvature="0"
     sodipodi:nodetypes="cccccccc" />
  <path
     style="fill:#ffffff;fill-opacity:1;stroke-width:1.00090075;opacity:0.2"
     d="M 24 4 C 12.92 4 4 12.92 4 24 C 4 24.167874 4.007647 24.333141 4.0117188 24.5 C 4.2763904 13.653863 13.087874 5 24 5 C 34.912126 5 43.72361 13.653863 43.988281 24.5 C 43.992353 24.333141 44 24.167874 44 24 C 44 12.92 35.08 4 24 4 z "
     id="rect4513" />
  <path
     sodipodi:nodetypes="ccccccsccscccccc"
     inkscape:connector-curvature="0"
     id="path4517"
     d="m 24,14.000001 c -2.343455,0.0028 -4.470827,1.369658 -5.447266,3.5 -0.634869,-0.327208 -1.338506,-0.498598 -2.052734,-0.5 -2.485281,0 -4.5,2.014719 -4.5,4.5 0.0017,0.167806 0.01278,0.335385 0.0332,0.501953 -0.01106,-7.12e-4 -0.02213,-0.0014 -0.0332,-0.002 -1.656854,0 -3,1.343146 -3,3 0,1.656854 1.343146,3 3,3 h 24 c 1.656854,0 3,-1.343146 3,-3 0,-1.656854 -1.343146,-3 -3,-3 -0.01042,5.97e-4 -0.02084,0.0012 -0.03125,0.002 0.01977,-0.166651 0.0302,-0.334231 0.03125,-0.502 0,-2.485281 -2.014719,-4.5 -4.5,-4.5 -0.714729,4.88e-4 -1.419063,0.171215 -2.054688,0.498047 C 28.468595,15.36911 26.342294,14.003183 24,14.000001 Z"
     style="opacity:0.2;vector-effect:none;fill:#000000;fill-opacity:1;stroke:none;stroke-width:10.64764977;stroke-linecap:round;stroke-linejoin:round;stroke-miterlimit:4;stroke-dasharray:none;stroke-dashoffset:0;stroke-opacity:1" />
  <path
     style="opacity:1;vector-effect:none;fill:#ffffff;fill-opacity:1;stroke:none;stroke-width:10.64764977;stroke-linecap:round;stroke-linejoin:round;stroke-miterlimit:4;stroke-dasharray:none;stroke-dashoffset:0;stroke-opacity:1"
     d="m 24,13 c -2.343455,0.0028 -4.470827,1.369658 -5.447266,3.5 C 17.917865,16.172792 17.214228,16.001402 16.5,16 14.014719,16 12,18.014719 12,20.5 c 0.0017,0.167806 0.01278,0.335385 0.0332,0.501953 C 12.022139,21.001241 12.011071,21.00059 12,21 c -1.656854,0 -3,1.343146 -3,3 0,1.656854 1.343146,3 3,3 h 24 c 1.656854,0 3,-1.343146 3,-3 0,-1.656854 -1.343146,-3 -3,-3 -0.01042,5.97e-4 -0.02084,0.0012 -0.03125,0.002 C 35.988516,20.835349 35.998949,20.667769 36,20.5 36,18.014719 33.985281,16 31.5,16 30.785271,16.000488 30.080937,16.171215 29.445312,16.498047 28.468595,14.369109 26.342294,13.003182 24,13 Z"
     id="path4503"
     inkscape:connector-curvature="0"
     sodipodi:nodetypes="ccccccsccscccccc" />
</svg>
