<?xml version="1.0" encoding="UTF-8" standalone="no"?>
<svg
   xmlns:dc="http://purl.org/dc/elements/1.1/"
   xmlns:cc="http://creativecommons.org/ns#"
   xmlns:rdf="http://www.w3.org/1999/02/22-rdf-syntax-ns#"
   xmlns:svg="http://www.w3.org/2000/svg"
   xmlns="http://www.w3.org/2000/svg"
   xmlns:sodipodi="http://sodipodi.sourceforge.net/DTD/sodipodi-0.dtd"
   xmlns:inkscape="http://www.inkscape.org/namespaces/inkscape"
   height="48"
   width="48"
   version="1"
   id="svg12"
   sodipodi:docname="maple-player.svg"
   inkscape:version="0.92.1 r15371">
  <metadata
     id="metadata18">
    <rdf:RDF>
      <cc:Work
         rdf:about="">
        <dc:format>image/svg+xml</dc:format>
        <dc:type
           rdf:resource="http://purl.org/dc/dcmitype/StillImage" />
        <dc:title></dc:title>
      </cc:Work>
    </rdf:RDF>
  </metadata>
  <defs
     id="defs16">
    <style
       id="current-color-scheme"
       type="text/css">
   .ColorScheme-Text { color:#5c616c; } .ColorScheme-Highlight { color:#5294e2; } .ColorScheme-ButtonBackground { color:#d3dae3; }
  </style>
    <style
       id="current-color-scheme-3"
       type="text/css">
   .ColorScheme-Text { color:#5c616c; } .ColorScheme-Highlight { color:#5294e2; } .ColorScheme-ButtonBackground { color:#d3dae3; }
  </style>
    <style
       id="current-color-scheme-6"
       type="text/css">
   .ColorScheme-Text { color:#5c616c; } .ColorScheme-Highlight { color:#5294e2; } .ColorScheme-ButtonBackground { color:#d3dae3; }
  </style>
    <style
       id="current-color-scheme-7"
       type="text/css">
   .ColorScheme-Text { color:#5c616c; } .ColorScheme-Highlight { color:#5294e2; } .ColorScheme-ButtonBackground { color:#d3dae3; }
  </style>
  </defs>
  <sodipodi:namedview
     pagecolor="#ffffff"
     bordercolor="#666666"
     borderopacity="1"
     objecttolerance="10"
     gridtolerance="10"
     guidetolerance="10"
     inkscape:pageopacity="0"
     inkscape:pageshadow="2"
     inkscape:window-width="1600"
     inkscape:window-height="822"
     id="namedview14"
     showgrid="true"
     inkscape:zoom="10.66"
     inkscape:cx="21.906692"
     inkscape:cy="21.080781"
     inkscape:window-x="0"
     inkscape:window-y="0"
     inkscape:window-maximized="1"
     inkscape:current-layer="svg12">
    <inkscape:grid
       type="xygrid"
       id="grid4526" />
  </sodipodi:namedview>
  <path
     sodipodi:nodetypes="cscccsccccccscccscccccccccccccccscccsccccccsccsscc"
     inkscape:connector-curvature="0"
     id="path4517"
     d="m 24,5 c 0,-6.89e-5 -0.868197,1.3629053 -1.734375,3.0039062 -1.034223,1.9593662 -1.713097,2.7746848 -1.976563,2.8964848 -0.329201,0.15219 -0.697433,0.235848 -1.802734,-0.326172 -0.740862,-0.37671 -1.403776,-0.628494 -1.472656,-0.558594 -0.06888,0.06989 0.318845,2.380589 0.794922,5.011719 0.906031,5.00735 0.914086,5.324359 0.130859,5.443359 -0.270405,0.04108 -0.88814,-0.539164 -2.447265,-2.302734 -1.146674,-1.29704 -2.164389,-2.232119 -2.261719,-2.199219 -0.09733,0.03291 -0.327987,0.562061 -0.513672,1.175781 -0.258802,0.85538 -0.431134,0.74066 -0.736328,0.81836 -0.218971,0.05576 -1.040906,-0.407337 -2.1933596,-0.660157 -2.4595867,-0.53955 -2.7773438,-0.259523 -2.7773438,0.128907 0,0.15896 0.322098,1.786517 0.7148438,3.248047 C 8.1173453,22.141228 8.054306,23.454116 8,23.597656 7.9457139,23.741206 7.504427,24.076217 6.9707031,24.341797 6.436989,24.607387 6,24.896475 6,24.984375 c 0,0.08793 1.4975485,1.398662 3.328125,2.914063 5.173458,4.282748 5.674175,4.633936 5.671875,5.185546 -0.0011,0.26403 -0.598752,0.877012 -0.744141,1.363282 -0.435466,1.45639 -0.393126,1.587484 0.488282,1.458984 3.512537,-0.51212 8.169459,-1.01427 8.394531,-0.84375 0.220212,0.16684 0.217935,0.948921 -0.0078,4.775391 C 23.055995,41.109558 23,43.00124 23,44.596 22.999057,45.000035 23.852779,45 24,45 c 0.187415,0 1,0 1,-0.404 0,-1.59476 -0.01109,-3.486442 -0.08594,-4.758109 -0.22576,-3.82647 -0.22603,-4.608551 -0.0059,-4.775391 0.225072,-0.17052 4.880041,0.33163 8.392578,0.84375 0.881408,0.1285 0.925701,-0.0026 0.490235,-1.458984 -0.145389,-0.48627 -0.743085,-1.099252 -0.744141,-1.363282 -0.0023,-0.55161 0.496464,-0.902798 5.669922,-5.185546 1.830577,-1.5154 3.330078,-2.826133 3.330078,-2.914063 0,-0.0879 -0.436989,-0.376988 -0.970703,-0.642578 -0.533724,-0.26558 -0.975011,-0.600591 -1.029297,-0.744141 -0.05431,-0.14354 -0.117345,-1.456428 0.275391,-2.917968 0.392746,-1.46153 0.71289,-3.089087 0.71289,-3.248047 0,-0.38843 -0.317757,-0.668457 -2.777344,-0.128907 -1.152453,0.25282 -1.972435,0.715917 -2.191406,0.660157 -0.305194,-0.0777 -0.477526,0.03702 -0.736328,-0.81836 -0.185685,-0.61372 -0.418294,-1.142871 -0.515625,-1.175781 -0.09733,-0.0329 -1.115046,0.902179 -2.261719,2.199219 -1.559125,1.76357 -2.174907,2.343814 -2.445312,2.302734 -0.783227,-0.119 -0.775172,-0.436009 0.130859,-5.443359 0.476077,-2.63113 0.861852,-4.941829 0.792969,-5.011719 -0.06888,-0.0699 -0.729841,0.181884 -1.470703,0.558594 -1.105212,0.56202 -1.47349,0.478362 -1.802692,0.326172 C 27.494347,10.778591 26.815473,9.9632723 25.78125,8.0039062 24.915072,6.3629052 24.046875,4.9999311 24.046875,5 Z"
     style="opacity:0.2;fill:#080808;fill-opacity:1;stroke-width:0.17880361" />
  <path
     style="fill:#ed6548;stroke-width:0.17880361;fill-opacity:1"
     d="m 24,4 c 0,-6.89e-5 -0.868197,1.3629053 -1.734375,3.0039062 -1.034223,1.9593662 -1.713097,2.7746844 -1.976563,2.8964844 -0.329201,0.1521904 -0.697433,0.2358484 -1.802734,-0.3261718 -0.740862,-0.37671 -1.403776,-0.6284938 -1.472656,-0.5585938 -0.06888,0.06989 0.318845,2.380589 0.794922,5.011719 0.906031,5.00735 0.914086,5.324359 0.130859,5.443359 -0.270405,0.04108 -0.88814,-0.539164 -2.447265,-2.302734 -1.146674,-1.29704 -2.164389,-2.232119 -2.261719,-2.199219 -0.09733,0.03291 -0.327987,0.562061 -0.513672,1.175781 -0.258802,0.85538 -0.431134,0.74066 -0.736328,0.81836 -0.218971,0.05576 -1.040906,-0.407337 -2.1933596,-0.660157 -2.4595867,-0.53955 -2.7773438,-0.259523 -2.7773438,0.128907 0,0.15896 0.322098,1.786517 0.7148438,3.248047 C 8.1173453,21.141228 8.054306,22.454116 8,22.597656 7.9457139,22.741206 7.504427,23.076217 6.9707031,23.341797 6.436989,23.607387 6,23.896475 6,23.984375 c 0,0.08793 1.4975485,1.398662 3.328125,2.914063 5.173458,4.282748 5.674175,4.633936 5.671875,5.185546 -0.0011,0.26403 -0.598752,0.877012 -0.744141,1.363282 -0.435466,1.45639 -0.393126,1.587484 0.488282,1.458984 3.512537,-0.51212 8.169459,-1.01427 8.394531,-0.84375 0.220212,0.16684 0.217935,0.948921 -0.0078,4.775391 C 23.055995,40.109558 23,42.00124 23,43.596 22.999057,44.000035 23.852779,44 24,44 c 0.187415,0 1,0 1,-0.404 0,-1.59476 -0.01109,-3.486442 -0.08594,-4.758109 -0.22576,-3.82647 -0.22603,-4.608551 -0.0059,-4.775391 0.225072,-0.17052 4.880041,0.33163 8.392578,0.84375 0.881408,0.1285 0.925701,-0.0026 0.490235,-1.458984 -0.145389,-0.48627 -0.743085,-1.099252 -0.744141,-1.363282 -0.0023,-0.55161 0.496464,-0.902798 5.669922,-5.185546 1.830577,-1.5154 3.330078,-2.826133 3.330078,-2.914063 0,-0.0879 -0.436989,-0.376988 -0.970703,-0.642578 -0.533724,-0.26558 -0.975011,-0.600591 -1.029297,-0.744141 -0.05431,-0.14354 -0.117345,-1.456428 0.275391,-2.917968 0.392746,-1.46153 0.71289,-3.089087 0.71289,-3.248047 0,-0.38843 -0.317757,-0.668457 -2.777344,-0.128907 -1.152453,0.25282 -1.972435,0.715917 -2.191406,0.660157 -0.305194,-0.0777 -0.477526,0.03702 -0.736328,-0.81836 -0.185685,-0.61372 -0.418294,-1.142871 -0.515625,-1.175781 -0.09733,-0.0329 -1.115046,0.902179 -2.261719,2.199219 -1.559125,1.76357 -2.174907,2.343814 -2.445312,2.302734 -0.783227,-0.119 -0.775172,-0.436009 0.130859,-5.443359 0.476077,-2.63113 0.861852,-4.941829 0.792969,-5.011719 -0.06888,-0.0699 -0.729841,0.1818836 -1.470703,0.5585938 -1.105212,0.5620202 -1.47349,0.4783622 -1.802692,0.3261718 C 27.494347,9.7785906 26.815473,8.9632723 25.78125,7.0039062 24.915072,5.3629052 24.046875,3.9999311 24.046875,4 Z"
     id="path4505"
     inkscape:connector-curvature="0"
     sodipodi:nodetypes="cscccsccccccscccscccccccccccccccscccsccccccsccsscc" />
  <path
     style="fill:#ffffff;stroke-width:0.17880361;fill-opacity:1;opacity:0.2"
     d="M 24 4 C 24 3.9999311 23.131803 5.3629054 22.265625 7.0039062 C 21.231402 8.9632724 20.552529 9.7785906 20.289062 9.9003906 C 19.959861 10.052581 19.591629 10.136239 18.486328 9.5742188 C 17.745466 9.1975088 17.082552 8.945725 17.013672 9.015625 C 16.98772 9.0419572 17.041014 9.4577751 17.125 10.017578 C 17.34332 10.050142 17.879076 10.265446 18.486328 10.574219 C 19.591629 11.136239 19.959861 11.052581 20.289062 10.900391 C 20.552529 10.778591 21.231402 9.9632724 22.265625 8.0039062 C 23.131803 6.3629054 24 4.9999311 24 5 L 24.046875 5 C 24.046875 4.9999311 24.915072 6.3629053 25.78125 8.0039062 C 26.815473 9.9632724 27.494348 10.778591 27.757812 10.900391 C 28.087015 11.052581 28.455335 11.136239 29.560547 10.574219 C 30.167799 10.265446 30.702075 10.050142 30.919922 10.017578 C 31.003577 9.4576888 31.057205 9.0419595 31.03125 9.015625 C 30.96237 8.945725 30.301409 9.1975085 29.560547 9.5742188 C 28.455335 10.136239 28.087015 10.052581 27.757812 9.9003906 C 27.494348 9.7785906 26.815473 8.9632724 25.78125 7.0039062 C 24.915072 5.3629052 24.046875 3.9999311 24.046875 4 L 24 4 z M 13.230469 14.96875 C 13.133139 15.00166 12.902482 15.530811 12.716797 16.144531 C 12.457995 16.999911 12.285663 16.885191 11.980469 16.962891 C 11.761498 17.018651 10.939563 16.555554 9.7871094 16.302734 C 7.3275227 15.763184 7.0097656 16.043211 7.0097656 16.431641 C 7.0097656 16.481444 7.0870769 16.854731 7.1425781 17.142578 C 7.3817307 16.95339 8.0390483 16.919269 9.7871094 17.302734 C 10.939563 17.555554 11.761498 18.018651 11.980469 17.962891 C 12.285663 17.885191 12.457995 17.999911 12.716797 17.144531 C 12.902482 16.530811 13.133139 16.00166 13.230469 15.96875 C 13.327799 15.93585 14.345514 16.870929 15.492188 18.167969 C 17.051313 19.931539 17.669048 20.511783 17.939453 20.470703 C 18.390948 20.402105 18.546001 20.15057 18.451172 19.089844 C 18.371717 19.350901 18.205045 19.43035 17.939453 19.470703 C 17.669048 19.511783 17.051313 18.931539 15.492188 17.167969 C 14.345514 15.870929 13.327799 14.93585 13.230469 14.96875 z M 34.814453 14.96875 C 34.717123 14.93585 33.699407 15.870929 32.552734 17.167969 C 30.993609 18.931539 30.377827 19.511783 30.107422 19.470703 C 29.84183 19.43035 29.675158 19.350901 29.595703 19.089844 C 29.500874 20.15057 29.655927 20.402105 30.107422 20.470703 C 30.377827 20.511783 30.993609 19.931539 32.552734 18.167969 C 33.699407 16.870929 34.717123 15.93585 34.814453 15.96875 C 34.911784 16.00166 35.144393 16.530811 35.330078 17.144531 C 35.58888 17.999911 35.761212 17.885191 36.066406 17.962891 C 36.285377 18.018651 37.105359 17.555554 38.257812 17.302734 C 40.008814 16.918624 40.666179 16.952538 40.904297 17.142578 C 40.959516 16.854819 41.035156 16.481434 41.035156 16.431641 C 41.035156 16.043211 40.717399 15.763184 38.257812 16.302734 C 37.105359 16.555554 36.285377 17.018651 36.066406 16.962891 C 35.761212 16.885191 35.58888 16.999911 35.330078 16.144531 C 35.144393 15.530811 34.911784 15.00166 34.814453 14.96875 z M 8.0136719 22.474609 C 8.0085736 22.51077 8.0053781 22.583441 8 22.597656 C 7.9457139 22.741206 7.504427 23.076217 6.9707031 23.341797 C 6.436989 23.607387 6 23.896475 6 23.984375 C 6 24.011396 6.3525197 24.32236 6.6015625 24.550781 C 6.7245587 24.480277 6.8270611 24.413277 6.9707031 24.341797 C 7.504427 24.076217 7.9457139 23.741206 8 23.597656 C 8.0295387 23.51958 8.0537179 23.080356 8.0136719 22.474609 z M 40.033203 22.474609 C 39.993156 23.080356 40.017334 23.51958 40.046875 23.597656 C 40.101161 23.741206 40.542448 24.076217 41.076172 24.341797 C 41.219814 24.413277 41.322316 24.480277 41.445312 24.550781 C 41.694611 24.32236 42.046875 24.011396 42.046875 23.984375 C 42.046875 23.896475 41.609886 23.607387 41.076172 23.341797 C 40.542448 23.076217 40.101161 22.741206 40.046875 22.597656 C 40.041496 22.583441 40.038302 22.51077 40.033203 22.474609 z M 14.765625 32.554688 C 14.580009 32.833054 14.342117 33.158768 14.255859 33.447266 C 13.966191 34.416043 13.895264 34.792726 14.134766 34.902344 C 14.174772 34.753803 14.198362 34.639564 14.255859 34.447266 C 14.401248 33.960996 14.9989 33.348014 15 33.083984 C 15.000656 32.926709 14.943401 32.775149 14.765625 32.554688 z M 33.28125 32.554688 C 33.103701 32.775149 33.046219 32.926709 33.046875 33.083984 C 33.047931 33.348014 33.645627 33.960996 33.791016 34.447266 C 33.848283 34.638792 33.872249 34.75228 33.912109 34.900391 C 34.150888 34.790123 34.080252 34.414597 33.791016 33.447266 C 33.704758 33.158768 33.46687 32.833054 33.28125 32.554688 z M 23.277344 35.626953 C 23.262367 36.339815 23.227251 37.203945 23.130859 38.837891 C 23.055982 40.109558 23 42.000943 23 43.595703 C 22.999955 43.614963 23.010002 43.629017 23.013672 43.646484 C 23.029813 42.289916 23.070197 40.868141 23.130859 39.837891 C 23.278307 37.338487 23.320305 36.205521 23.277344 35.626953 z M 24.769531 35.630859 C 24.726472 36.210772 24.766897 37.343546 24.914062 39.837891 C 24.974293 40.861186 24.989038 42.270672 24.994141 43.619141 C 24.99491 43.610647 25 43.604582 25 43.595703 C 25 42.000943 24.988913 40.109558 24.914062 38.837891 C 24.817778 37.205935 24.78418 36.343743 24.769531 35.630859 z "
     id="path4512" />
  <path
     inkscape:connector-curvature="0"
     id="path4525"
     d="M 22.010041,20.000317 A 0.98641059,1.1041478 0 0 0 21,21.103874 v 3.89663 3.89663 a 0.98641059,1.1041478 0 0 0 1.478837,0.955441 l 3.01592,-1.946688 3.014497,-1.949944 a 0.98641059,1.1041478 0 0 0 0,-1.909251 l -3.014497,-1.949942 -3.01592,-1.946688 a 0.98641059,1.1041478 0 0 0 -0.468796,-0.149745 z"
     style="opacity:0.2;fill:#000000;fill-opacity:1;stroke:none;stroke-width:2.48698711;stroke-linecap:round;stroke-linejoin:round;stroke-miterlimit:4;stroke-dasharray:none;stroke-dashoffset:0;stroke-opacity:1" />
  <path
     style="opacity:1;fill:#ffffff;fill-opacity:1;stroke:none;stroke-width:2.48698711;stroke-linecap:round;stroke-linejoin:round;stroke-miterlimit:4;stroke-dasharray:none;stroke-dashoffset:0;stroke-opacity:1"
     d="M 22.010041,19.000317 A 0.98641059,1.1041478 0 0 0 21,20.103874 v 3.89663 3.89663 a 0.98641059,1.1041478 0 0 0 1.478837,0.955441 l 3.01592,-1.946688 3.014497,-1.949944 a 0.98641059,1.1041478 0 0 0 0,-1.909251 l -3.014497,-1.949942 -3.01592,-1.946688 a 0.98641059,1.1041478 0 0 0 -0.468796,-0.149745 z"
     id="path4514"
     inkscape:connector-curvature="0" />
</svg>
