<?xml version="1.0" encoding="UTF-8" standalone="no"?>
<svg
   xmlns:dc="http://purl.org/dc/elements/1.1/"
   xmlns:cc="http://creativecommons.org/ns#"
   xmlns:rdf="http://www.w3.org/1999/02/22-rdf-syntax-ns#"
   xmlns:svg="http://www.w3.org/2000/svg"
   xmlns="http://www.w3.org/2000/svg"
   xmlns:sodipodi="http://sodipodi.sourceforge.net/DTD/sodipodi-0.dtd"
   xmlns:inkscape="http://www.inkscape.org/namespaces/inkscape"
   height="48"
   width="48"
   version="1"
   id="svg12"
   sodipodi:docname="max-player.svg"
   inkscape:version="0.91 r13725">
  <metadata
     id="metadata18">
    <rdf:RDF>
      <cc:Work
         rdf:about="">
        <dc:format>image/svg+xml</dc:format>
        <dc:type
           rdf:resource="http://purl.org/dc/dcmitype/StillImage" />
        <dc:title />
      </cc:Work>
    </rdf:RDF>
  </metadata>
  <defs
     id="defs16">
    <style
       id="current-color-scheme"
       type="text/css">
   .ColorScheme-Text { color:#5c616c; } .ColorScheme-Highlight { color:#5294e2; } .ColorScheme-ButtonBackground { color:#d3dae3; }
  </style>
    <style
       id="current-color-scheme-3"
       type="text/css">
   .ColorScheme-Text { color:#5c616c; } .ColorScheme-Highlight { color:#5294e2; } .ColorScheme-ButtonBackground { color:#d3dae3; }
  </style>
    <style
       id="current-color-scheme-6"
       type="text/css">
   .ColorScheme-Text { color:#5c616c; } .ColorScheme-Highlight { color:#5294e2; } .ColorScheme-ButtonBackground { color:#d3dae3; }
  </style>
    <style
       id="current-color-scheme-7"
       type="text/css">
   .ColorScheme-Text { color:#5c616c; } .ColorScheme-Highlight { color:#5294e2; } .ColorScheme-ButtonBackground { color:#d3dae3; }
  </style>
  </defs>
  <sodipodi:namedview
     pagecolor="#ffffff"
     bordercolor="#666666"
     borderopacity="1"
     objecttolerance="10"
     gridtolerance="10"
     guidetolerance="10"
     inkscape:pageopacity="0"
     inkscape:pageshadow="2"
     inkscape:window-width="1920"
     inkscape:window-height="1018"
     id="namedview14"
     showgrid="false"
     inkscape:zoom="7.54"
     inkscape:cx="1.0763551"
     inkscape:cy="42.839658"
     inkscape:window-x="0"
     inkscape:window-y="32"
     inkscape:window-maximized="1"
     inkscape:current-layer="svg12">
    <inkscape:grid
       type="xygrid"
       id="grid4526" />
  </sodipodi:namedview>
  <rect
     transform="matrix(0,-1,-1,0,0,0)"
     rx="20"
     ry="20"
     height="40"
     width="40"
     y="-44"
     x="-44"
     id="rect2"
     style="fill:#b7793c;fill-opacity:1;stroke-width:1.00005007" />
  <path
     opacity=".2"
     d="m24 4c-11.079 0-19.998 8.92-19.998 20 0 0.16772-0.004 0.33329 0 0.5 0.2642-10.846 9.087-19.5 19.998-19.5s19.734 8.6536 19.998 19.5c0.004-0.16671 0-0.33228 0-0.5 0-11.08-8.919-20-19.998-20z"
     fill="#fff"
     id="path8"
     style="opacity:0.2" />
  <path
     opacity=".2"
     d="m4.0117 24.5c-0.0041 0.167-0.0117 0.332-0.0117 0.5 0 11.08 8.92 20 20 20s20-8.92 20-20c0-0.168-0.008-0.333-0.012-0.5-0.264 10.846-9.076 19.5-19.988 19.5s-19.724-8.654-19.988-19.5z"
     id="path10" />
  <path
     inkscape:connector-curvature="0"
     id="path4614"
     d="M 21.262552,19.000508 A 1.2330132,1.3249634 0 0 0 20,20.324763 v 4.675907 4.675906 a 1.2330132,1.3249634 0 0 0 1.848546,1.146516 l 3.7699,-2.336001 3.768121,-2.339907 a 1.2330132,1.3249634 0 0 0 0,-2.291077 l -3.768121,-2.339907 -3.7699,-2.335999 a 1.2330132,1.3249634 0 0 0 -0.585994,-0.179693 z"
     style="opacity:0.2;fill:#030303;fill-opacity:1;stroke:none;stroke-width:3.04590845;stroke-linecap:round;stroke-linejoin:round;stroke-miterlimit:4;stroke-dasharray:none;stroke-dashoffset:0;stroke-opacity:1" />
  <path
     style="opacity:1;fill:#ffffff;fill-opacity:1;stroke:none;stroke-width:3.04590845;stroke-linecap:round;stroke-linejoin:round;stroke-miterlimit:4;stroke-dasharray:none;stroke-dashoffset:0;stroke-opacity:1"
     d="M 21.262552,18.000444 A 1.2330132,1.3249634 0 0 0 20,19.324699 v 4.675907 4.675906 a 1.2330132,1.3249634 0 0 0 1.848546,1.146516 l 3.7699,-2.336001 3.768121,-2.339907 a 1.2330132,1.3249634 0 0 0 0,-2.291077 l -3.768121,-2.339907 -3.7699,-2.335999 a 1.2330132,1.3249634 0 0 0 -0.585994,-0.179693 z"
     id="path4514"
     inkscape:connector-curvature="0" />
  <path
     style="opacity:0.4;fill:#000000;fill-opacity:1;stroke:none;stroke-width:5.33333349;stroke-linecap:round;stroke-linejoin:round;stroke-miterlimit:4;stroke-dasharray:none;stroke-dashoffset:0;stroke-opacity:1"
     d="m 22,36 c -0.554,0 -1,0.382286 -1,0.857143 l 0,4.285714 C 21,41.617714 21.446,42 22,42 c 0.554,0 1,-0.382286 1,-0.857143 l 0,-4.285714 C 23,36.382286 22.554,36 22,36 Z m 4,0 c -0.554,0 -1,0.382286 -1,0.857143 l 0,4.285714 C 25,41.617714 25.446,42 26,42 c 0.554,0 1,-0.382286 1,-0.857143 l 0,-4.285714 C 27,36.382286 26.554,36 26,36 Z"
     id="path4502"
     inkscape:connector-curvature="0"
     sodipodi:nodetypes="ssssssssssssss" />
  <path
     style="opacity:0.4;fill:#000000;fill-opacity:1;stroke:none;stroke-width:5.33333349;stroke-linecap:round;stroke-linejoin:round;stroke-miterlimit:4;stroke-dasharray:none;stroke-dashoffset:0;stroke-opacity:1"
     d="m 9.4941406,21 a 0.49320524,0.66248874 0 0 0 -0.234375,0.08984 l -1.5078125,1.167968 -1.5058593,1.169922 a 0.49320524,0.66248874 0 0 0 0,1.146485 l 1.5058593,1.169922 1.5078125,1.167968 A 0.49320524,0.66248874 0 0 0 10,26.337891 v -2.308594 a 0.49320524,0.66248874 0 0 0 0.246094,0.544922 l 1.505859,1.169922 1.507813,1.167968 A 0.49320524,0.66248874 0 0 0 14,26.337891 V 24 21.662109 A 0.49320524,0.66248874 0 0 0 13.494141,21 a 0.49320524,0.66248874 0 0 0 -0.234375,0.08984 l -1.507813,1.167968 -1.505859,1.169922 A 0.49320524,0.66248874 0 0 0 10,23.964844 V 21.662109 A 0.49320524,0.66248874 0 0 0 9.4941406,21 Z"
     id="path4498" />
  <path
     style="opacity:0.4;fill:#000000;fill-opacity:1;stroke:none;stroke-width:5.33333349;stroke-linecap:round;stroke-linejoin:round;stroke-miterlimit:4;stroke-dasharray:none;stroke-dashoffset:0;stroke-opacity:1"
     d="M 34.505859,21 A 0.49320524,0.66248874 0 0 0 34,21.662109 V 24 26.337891 a 0.49320524,0.66248874 0 0 0 0.740234,0.574218 l 1.507813,-1.167968 1.505859,-1.169922 A 0.49320524,0.66248874 0 0 0 38,24.029297 v 2.308594 a 0.49320524,0.66248874 0 0 0 0.740234,0.574218 l 1.507813,-1.167968 1.505859,-1.169922 a 0.49320524,0.66248874 0 0 0 0,-1.146485 L 40.248047,22.257812 38.740234,21.089844 A 0.49320524,0.66248874 0 0 0 38.505859,21 0.49320524,0.66248874 0 0 0 38,21.662109 v 2.302735 a 0.49320524,0.66248874 0 0 0 -0.246094,-0.53711 L 36.248047,22.257812 34.740234,21.089844 A 0.49320524,0.66248874 0 0 0 34.505859,21 Z"
     id="path4496" />
  <path
     inkscape:connector-curvature="0"
     id="path4497"
     d="m 22,7 c -0.554,0 -1,0.3822857 -1,0.8571429 l 0,4.2857141 C 21,12.617714 21.446,13 22,13 c 0.554,0 1,-0.382286 1,-0.857143 L 23,7.8571429 C 23,7.3822857 22.554,7 22,7 Z m 4,0 -4,0 0,6 4,0 c 0.554,0 1,-0.382286 1,-0.857143 L 27,7.8571429 C 27,7.3822857 26.537459,7.1151697 26,7 Z"
     style="opacity:0.4;fill:#000000;fill-opacity:1;stroke:none;stroke-width:5.33333349;stroke-linecap:round;stroke-linejoin:round;stroke-miterlimit:4;stroke-dasharray:none;stroke-dashoffset:0;stroke-opacity:1"
     sodipodi:nodetypes="ssssssssccssss" />
</svg>
