<?xml version="1.0" encoding="UTF-8" standalone="no"?>
<svg
   xmlns:dc="http://purl.org/dc/elements/1.1/"
   xmlns:cc="http://creativecommons.org/ns#"
   xmlns:rdf="http://www.w3.org/1999/02/22-rdf-syntax-ns#"
   xmlns:svg="http://www.w3.org/2000/svg"
   xmlns="http://www.w3.org/2000/svg"
   xmlns:sodipodi="http://sodipodi.sourceforge.net/DTD/sodipodi-0.dtd"
   xmlns:inkscape="http://www.inkscape.org/namespaces/inkscape"
   height="48"
   width="48"
   version="1"
   id="svg12"
   sodipodi:docname="mezzo-player.svg"
   inkscape:version="0.92.1 r15371">
  <metadata
     id="metadata18">
    <rdf:RDF>
      <cc:Work
         rdf:about="">
        <dc:format>image/svg+xml</dc:format>
        <dc:type
           rdf:resource="http://purl.org/dc/dcmitype/StillImage" />
        <dc:title />
      </cc:Work>
    </rdf:RDF>
  </metadata>
  <defs
     id="defs16" />
  <sodipodi:namedview
     pagecolor="#ffffff"
     bordercolor="#666666"
     borderopacity="1"
     objecttolerance="10"
     gridtolerance="10"
     guidetolerance="10"
     inkscape:pageopacity="0"
     inkscape:pageshadow="2"
     inkscape:window-width="1600"
     inkscape:window-height="822"
     id="namedview14"
     showgrid="false"
     inkscape:zoom="8.08"
     inkscape:cx="-8.8609517"
     inkscape:cy="24"
     inkscape:window-x="0"
     inkscape:window-y="0"
     inkscape:window-maximized="1"
     inkscape:current-layer="svg12" />
  <rect
     transform="matrix(0,-1,-1,0,0,0)"
     rx="20"
     ry="20"
     height="40"
     width="40"
     y="-44"
     x="-44"
     id="rect2"
     style="fill:#3f3f3f;fill-opacity:1;stroke-width:1.00005007" />
  <path
     id="path4503"
     d="M 33,7.1425781 V 14.277344 A 14,14 0 0 0 24,11 14,14 0 0 0 10,25 14,14 0 0 0 24,39 14,14 0 0 0 38,25 V 10.705078 C 36.536811,9.2721099 34.849689,8.0730189 33,7.1425781 Z"
     style="opacity:0.2;fill:#000000;fill-opacity:1;stroke:none;stroke-width:17.01004601;stroke-linecap:round;stroke-linejoin:round;stroke-miterlimit:4;stroke-dasharray:none;stroke-dashoffset:0;stroke-opacity:1"
     inkscape:connector-curvature="0" />
  <path
     style="opacity:1;fill:#ffb600;fill-opacity:1;stroke:none;stroke-width:17.01004601;stroke-linecap:round;stroke-linejoin:round;stroke-miterlimit:4;stroke-dasharray:none;stroke-dashoffset:0;stroke-opacity:1"
     d="M 33 6.1425781 L 33 13.277344 A 14 14 0 0 0 24 10 A 14 14 0 0 0 10 24 A 14 14 0 0 0 24 38 A 14 14 0 0 0 38 24 L 38 9.7050781 C 36.536811 8.2721099 34.849689 7.0730189 33 6.1425781 z "
     id="path4489" />
  <path
     opacity=".2"
     d="m24 4c-11.079 0-19.998 8.92-19.998 20 0 0.16772-0.004 0.33329 0 0.5 0.2642-10.846 9.087-19.5 19.998-19.5s19.734 8.6536 19.998 19.5c0.004-0.16671 0-0.33228 0-0.5 0-11.08-8.919-20-19.998-20z"
     fill="#fff"
     id="path8"
     style="opacity:0.1" />
  <path
     opacity=".2"
     d="m4.0117 24.5c-0.0041 0.167-0.0117 0.332-0.0117 0.5 0 11.08 8.92 20 20 20s20-8.92 20-20c0-0.168-0.008-0.333-0.012-0.5-0.264 10.846-9.076 19.5-19.988 19.5s-19.724-8.654-19.988-19.5z"
     id="path10" />
  <path
     inkscape:connector-curvature="0"
     id="path4502"
     d="M 20.515062,18.000444 A 1.4796156,1.5458069 0 0 0 19,19.545425 v 5.455282 5.455282 a 1.4796156,1.5458069 0 0 0 2.218255,1.337616 l 4.52388,-2.725364 4.521745,-2.729918 a 1.4796156,1.5458069 0 0 0 0,-2.672953 l -4.521745,-2.72992 -4.52388,-2.725362 a 1.4796156,1.5458069 0 0 0 -0.703193,-0.209644 z"
     style="opacity:0.2;fill:#000000;fill-opacity:1;stroke:none;stroke-width:3.6039865;stroke-linecap:round;stroke-linejoin:round;stroke-miterlimit:4;stroke-dasharray:none;stroke-dashoffset:0;stroke-opacity:1" />
  <path
     style="opacity:1;fill:#3f3f3f;fill-opacity:1;stroke:none;stroke-width:3.6039865;stroke-linecap:round;stroke-linejoin:round;stroke-miterlimit:4;stroke-dasharray:none;stroke-dashoffset:0;stroke-opacity:1"
     d="M 20.515062,17.000444 A 1.4796156,1.5458069 0 0 0 19,18.545425 v 5.455282 5.455282 a 1.4796156,1.5458069 0 0 0 2.218255,1.337616 l 4.52388,-2.725364 4.521745,-2.729918 a 1.4796156,1.5458069 0 0 0 0,-2.672953 l -4.521745,-2.72992 -4.52388,-2.725362 a 1.4796156,1.5458069 0 0 0 -0.703193,-0.209644 z"
     id="path4514"
     inkscape:connector-curvature="0" />
  <path
     style="opacity:0.1;fill:#ffffff;fill-opacity:1;stroke:none;stroke-width:17.01004601;stroke-linecap:round;stroke-linejoin:round;stroke-miterlimit:4;stroke-dasharray:none;stroke-dashoffset:0;stroke-opacity:1"
     d="M 33 6.1425781 L 33 7.1425781 C 34.849689 8.0730189 36.536811 9.27211 38 10.705078 L 38 9.7050781 C 36.536811 8.2721099 34.849689 7.0730189 33 6.1425781 z M 24 10 A 14 14 0 0 0 10 24 A 14 14 0 0 0 10.021484 24.414062 A 14 14 0 0 1 24 11 A 14 14 0 0 1 33 14.277344 L 33 13.277344 A 14 14 0 0 0 24 10 z "
     id="path4497" />
</svg>
