<?xml version="1.0" encoding="UTF-8" standalone="no"?>
<svg
   xmlns:dc="http://purl.org/dc/elements/1.1/"
   xmlns:cc="http://creativecommons.org/ns#"
   xmlns:rdf="http://www.w3.org/1999/02/22-rdf-syntax-ns#"
   xmlns:svg="http://www.w3.org/2000/svg"
   xmlns="http://www.w3.org/2000/svg"
   xmlns:sodipodi="http://sodipodi.sourceforge.net/DTD/sodipodi-0.dtd"
   xmlns:inkscape="http://www.inkscape.org/namespaces/inkscape"
   height="48"
   width="48"
   version="1"
   id="svg24"
   sodipodi:docname="moboplayer.svg"
   inkscape:version="0.91 r13725">
  <metadata
     id="metadata30">
    <rdf:RDF>
      <cc:Work
         rdf:about="">
        <dc:format>image/svg+xml</dc:format>
        <dc:type
           rdf:resource="http://purl.org/dc/dcmitype/StillImage" />
        <dc:title />
      </cc:Work>
    </rdf:RDF>
  </metadata>
  <defs
     id="defs28" />
  <sodipodi:namedview
     pagecolor="#ffffff"
     bordercolor="#666666"
     borderopacity="1"
     objecttolerance="10"
     gridtolerance="10"
     guidetolerance="10"
     inkscape:pageopacity="0"
     inkscape:pageshadow="2"
     inkscape:window-width="1920"
     inkscape:window-height="1018"
     id="namedview26"
     showgrid="false"
     inkscape:zoom="9.8603159"
     inkscape:cx="-10.978102"
     inkscape:cy="24"
     inkscape:window-x="0"
     inkscape:window-y="32"
     inkscape:window-maximized="1"
     inkscape:current-layer="svg24" />
  <path
     sodipodi:nodetypes="ccsccccccc"
     inkscape:connector-curvature="0"
     id="path4495"
     d="M 12.167969,5.0023831 C 8.7897692,4.9081452 6.0001231,7.6202566 6,10.998921 v 27.992957 c 3e-7,4.629687 5.023095,7.514522 9.023438,5.18229 l 12,-6.998239 12,-6.998239 c 3.968117,-2.315163 3.968117,-8.047465 0,-10.362628 l -12,-7.000191 -12,-6.9982397 C 14.154877,5.3103415 13.172993,5.0303533 12.167969,5.0023831 Z"
     style="color:#000000;font-style:normal;font-variant:normal;font-weight:normal;font-stretch:normal;font-size:medium;line-height:normal;font-family:sans-serif;font-variant-ligatures:normal;font-variant-position:normal;font-variant-caps:normal;font-variant-numeric:normal;font-variant-alternates:normal;font-feature-settings:normal;text-indent:0;text-align:start;text-decoration:none;text-decoration-line:none;text-decoration-style:solid;text-decoration-color:#000000;letter-spacing:normal;word-spacing:normal;text-transform:none;writing-mode:lr-tb;direction:ltr;text-orientation:mixed;dominant-baseline:auto;baseline-shift:baseline;text-anchor:start;white-space:normal;shape-padding:0;clip-rule:nonzero;display:inline;overflow:visible;visibility:visible;opacity:0.2;isolation:auto;mix-blend-mode:normal;color-interpolation:sRGB;color-interpolation-filters:linearRGB;solid-color:#000000;solid-opacity:1;vector-effect:none;fill:#000000;fill-opacity:1;fill-rule:nonzero;stroke:none;stroke-width:11.99849033;stroke-linecap:butt;stroke-linejoin:round;stroke-miterlimit:4;stroke-dasharray:none;stroke-dashoffset:0;stroke-opacity:1;color-rendering:auto;image-rendering:auto;shape-rendering:auto;text-rendering:auto;enable-background:accumulate" />
  <path
     style="color:#000000;font-style:normal;font-variant:normal;font-weight:normal;font-stretch:normal;font-size:medium;line-height:normal;font-family:sans-serif;font-variant-ligatures:normal;font-variant-position:normal;font-variant-caps:normal;font-variant-numeric:normal;font-variant-alternates:normal;font-feature-settings:normal;text-indent:0;text-align:start;text-decoration:none;text-decoration-line:none;text-decoration-style:solid;text-decoration-color:#000000;letter-spacing:normal;word-spacing:normal;text-transform:none;writing-mode:lr-tb;direction:ltr;text-orientation:mixed;dominant-baseline:auto;baseline-shift:baseline;text-anchor:start;white-space:normal;shape-padding:0;clip-rule:nonzero;display:inline;overflow:visible;visibility:visible;opacity:1;isolation:auto;mix-blend-mode:normal;color-interpolation:sRGB;color-interpolation-filters:linearRGB;solid-color:#000000;solid-opacity:1;vector-effect:none;fill:#23ae88;fill-opacity:1;fill-rule:nonzero;stroke:none;stroke-width:11.99849033;stroke-linecap:butt;stroke-linejoin:round;stroke-miterlimit:4;stroke-dasharray:none;stroke-dashoffset:0;stroke-opacity:1;color-rendering:auto;image-rendering:auto;shape-rendering:auto;text-rendering:auto;enable-background:accumulate"
     d="M 12.167969,4.0023835 C 8.7897692,3.9081456 6.0001231,6.620257 6,9.9989216 V 37.991878 c 3e-7,4.629687 5.023095,7.514522 9.023438,5.18229 l 12,-6.998239 12,-6.998239 c 3.968117,-2.315163 3.968117,-8.047465 0,-10.362628 l -12,-7.000191 -12,-6.9982393 C 14.154877,4.3103419 13.172993,4.0303537 12.167969,4.0023835 Z"
     id="path4486"
     inkscape:connector-curvature="0"
     sodipodi:nodetypes="ccsccccccc" />
  <path
     style="color:#000000;font-style:normal;font-variant:normal;font-weight:normal;font-stretch:normal;font-size:medium;line-height:normal;font-family:sans-serif;font-variant-ligatures:normal;font-variant-position:normal;font-variant-caps:normal;font-variant-numeric:normal;font-variant-alternates:normal;font-feature-settings:normal;text-indent:0;text-align:start;text-decoration:none;text-decoration-line:none;text-decoration-style:solid;text-decoration-color:#000000;letter-spacing:normal;word-spacing:normal;text-transform:none;writing-mode:lr-tb;direction:ltr;text-orientation:mixed;dominant-baseline:auto;baseline-shift:baseline;text-anchor:start;white-space:normal;shape-padding:0;clip-rule:nonzero;display:inline;overflow:visible;visibility:visible;opacity:0.2;isolation:auto;mix-blend-mode:normal;color-interpolation:sRGB;color-interpolation-filters:linearRGB;solid-color:#000000;solid-opacity:1;vector-effect:none;fill:#ffffff;fill-opacity:1;fill-rule:nonzero;stroke:none;stroke-width:11.99849033;stroke-linecap:butt;stroke-linejoin:round;stroke-miterlimit:4;stroke-dasharray:none;stroke-dashoffset:0;stroke-opacity:1;color-rendering:auto;image-rendering:auto;shape-rendering:auto;text-rendering:auto;enable-background:accumulate"
     d="M 12.167969 4.0019531 C 8.789769 3.9077152 6.0001231 6.6193823 6 9.9980469 L 6 10.998047 C 6.0001231 7.6193825 8.789769 4.9077152 12.167969 5.0019531 C 13.172993 5.0299233 14.154877 5.3101164 15.023438 5.8164062 L 27.023438 12.814453 L 39.023438 19.814453 C 40.842586 20.875819 41.817547 22.656861 41.96875 24.496094 C 42.146871 22.323796 41.171981 20.068002 39.023438 18.814453 L 27.023438 11.814453 L 15.023438 4.8164062 C 14.154877 4.3101164 13.172993 4.0299233 12.167969 4.0019531 z "
     id="path4490" />
  <path
     id="path4515"
     d="M 14.029297,12.000044 A 2.9592317,2.8707844 0 0 0 11,14.869185 v 10.132812 10.130859 a 2.9592317,2.8707844 0 0 0 4.435547,2.484376 L 17,36.742232 V 22.013716 c 0,-0.561869 0.440067,-1.013672 0.986328,-1.013672 h 0.02734 C 18.559933,21.000044 19,21.451847 19,22.013716 V 35.623091 L 24.484375,32.554732 26,31.705122 v -5.691406 c 0,-0.561869 0.440067,-1.013672 0.986328,-1.013672 h 0.02734 C 27.559933,25.000044 28,25.451847 28,26.013716 v 4.570312 l 5.527344,-3.097656 a 2.9592317,2.8707844 0 0 0 0,-4.964844 l -9.042969,-5.070312 -9.048828,-5.060547 a 2.9592317,2.8707844 0 0 0 -1.40625,-0.390625 z"
     style="opacity:0.2;fill:#000000;fill-opacity:1;stroke:none;stroke-width:6.94577742;stroke-linecap:round;stroke-linejoin:round;stroke-miterlimit:4;stroke-dasharray:none;stroke-dashoffset:0;stroke-opacity:1"
     inkscape:connector-curvature="0" />
  <path
     style="opacity:1;fill:#ffffff;fill-opacity:1;stroke:none;stroke-width:6.94577742;stroke-linecap:round;stroke-linejoin:round;stroke-miterlimit:4;stroke-dasharray:none;stroke-dashoffset:0;stroke-opacity:1"
     d="M 14.029297 11 A 2.9592317 2.8707844 0 0 0 11 13.869141 L 11 24.001953 L 11 34.132812 A 2.9592317 2.8707844 0 0 0 15.435547 36.617188 L 17 35.742188 L 17 21.013672 C 17 20.451803 17.440067 20 17.986328 20 L 18.013672 20 C 18.559933 20 19 20.451803 19 21.013672 L 19 34.623047 L 24.484375 31.554688 L 26 30.705078 L 26 25.013672 C 26 24.451803 26.440067 24 26.986328 24 L 27.013672 24 C 27.559933 24 28 24.451803 28 25.013672 L 28 29.583984 L 33.527344 26.486328 A 2.9592317 2.8707844 0 0 0 33.527344 21.521484 L 24.484375 16.451172 L 15.435547 11.390625 A 2.9592317 2.8707844 0 0 0 14.029297 11 z "
     id="path4514" />
</svg>
