<?xml version="1.0" encoding="UTF-8" standalone="no"?>
<svg
   xmlns:dc="http://purl.org/dc/elements/1.1/"
   xmlns:cc="http://creativecommons.org/ns#"
   xmlns:rdf="http://www.w3.org/1999/02/22-rdf-syntax-ns#"
   xmlns:svg="http://www.w3.org/2000/svg"
   xmlns="http://www.w3.org/2000/svg"
   xmlns:sodipodi="http://sodipodi.sourceforge.net/DTD/sodipodi-0.dtd"
   xmlns:inkscape="http://www.inkscape.org/namespaces/inkscape"
   height="48"
   width="48"
   version="1"
   id="svg12"
   sodipodi:docname="mp3-music-download-search.svg"
   inkscape:version="0.92.1 r15371">
  <metadata
     id="metadata18">
    <rdf:RDF>
      <cc:Work
         rdf:about="">
        <dc:format>image/svg+xml</dc:format>
        <dc:type
           rdf:resource="http://purl.org/dc/dcmitype/StillImage" />
        <dc:title></dc:title>
      </cc:Work>
    </rdf:RDF>
  </metadata>
  <defs
     id="defs16" />
  <sodipodi:namedview
     pagecolor="#ffffff"
     bordercolor="#666666"
     borderopacity="1"
     objecttolerance="10"
     gridtolerance="10"
     guidetolerance="10"
     inkscape:pageopacity="0"
     inkscape:pageshadow="2"
     inkscape:window-width="1600"
     inkscape:window-height="822"
     id="namedview14"
     showgrid="false"
     inkscape:zoom="8.6599296"
     inkscape:cx="4.0850486"
     inkscape:cy="24"
     inkscape:window-x="0"
     inkscape:window-y="0"
     inkscape:window-maximized="1"
     inkscape:current-layer="svg12" />
  <rect
     transform="matrix(0,-1,-1,0,0,0)"
     rx="20"
     ry="20"
     height="40"
     width="40"
     y="-44"
     x="-44"
     id="rect2"
     style="fill:#4f4f4f;fill-opacity:1;stroke-width:1.00005007" />
  <path
     id="path4515"
     d="M 5.4570312,12.999265 A 1.42233,1.5068687 0 0 0 4,14.505124 v 10.496094 10.492188 a 1.42233,1.5068687 0 0 0 2.1367188,1.302734 l 8.5761722,-5.246094 8.574218,-5.24414 a 1.42233,1.5068687 0 0 0 0,-2.611329 L 14.712891,18.448484 6.1367188,13.20239 A 1.42233,1.5068687 0 0 0 5.4570312,12.999265 Z m 37.0839848,0 a 1.42233,1.5068687 0 0 0 -0.677735,0.203125 l -8.576172,5.246094 -8.574218,5.246093 a 1.42233,1.5068687 0 0 0 0,2.611329 l 8.574218,5.24414 8.576172,5.246094 A 1.42233,1.5068687 0 0 0 44,35.493406 V 25.001218 14.505124 a 1.42233,1.5068687 0 0 0 -1.457031,-1.505859 1.42233,1.5068687 0 0 1 -0.002,0 z"
     style="opacity:0.2;fill:#000000;fill-opacity:1;stroke:none;stroke-width:6.05384493;stroke-linecap:round;stroke-linejoin:round;stroke-miterlimit:4;stroke-dasharray:none;stroke-dashoffset:0;stroke-opacity:1"
     inkscape:connector-curvature="0" />
  <path
     opacity=".2"
     d="m24 4c-11.079 0-19.998 8.92-19.998 20 0 0.16772-0.004 0.33329 0 0.5 0.2642-10.846 9.087-19.5 19.998-19.5s19.734 8.6536 19.998 19.5c0.004-0.16671 0-0.33228 0-0.5 0-11.08-8.919-20-19.998-20z"
     fill="#fff"
     id="path8"
     style="opacity:0.1" />
  <path
     opacity=".2"
     d="m4.0117 24.5c-0.0041 0.167-0.0117 0.332-0.0117 0.5 0 11.08 8.92 20 20 20s20-8.92 20-20c0-0.168-0.008-0.333-0.012-0.5-0.264 10.846-9.076 19.5-19.988 19.5s-19.724-8.654-19.988-19.5z"
     id="path10" />
  <path
     style="opacity:1;fill:#e4e4e4;fill-opacity:1;stroke:none;stroke-width:6.05384493;stroke-linecap:round;stroke-linejoin:round;stroke-miterlimit:4;stroke-dasharray:none;stroke-dashoffset:0;stroke-opacity:1"
     d="M 5.4570312 12 A 1.42233 1.5068687 0 0 0 4 13.505859 L 4 24.001953 L 4 34.494141 A 1.42233 1.5068687 0 0 0 6.1367188 35.796875 L 14.712891 30.550781 L 23.287109 25.306641 A 1.42233 1.5068687 0 0 0 23.287109 22.695312 L 14.712891 17.449219 L 6.1367188 12.203125 A 1.42233 1.5068687 0 0 0 5.4570312 12 z M 42.541016 12 A 1.42233 1.5068687 0 0 0 41.863281 12.203125 L 33.287109 17.449219 L 24.712891 22.695312 A 1.42233 1.5068687 0 0 0 24.712891 25.306641 L 33.287109 30.550781 L 41.863281 35.796875 A 1.42233 1.5068687 0 0 0 44 34.494141 L 44 24.001953 L 44 13.505859 A 1.42233 1.5068687 0 0 0 42.542969 12 A 1.42233 1.5068687 0 0 1 42.541016 12 z "
     id="path4494" />
  <path
     style="opacity:0.1;fill:#ffffff;fill-opacity:1;stroke:none;stroke-width:6.05384493;stroke-linecap:round;stroke-linejoin:round;stroke-miterlimit:4;stroke-dasharray:none;stroke-dashoffset:0;stroke-opacity:1"
     d="M 5.4570312 12 A 1.42233 1.5068687 0 0 0 4 13.505859 L 4 14.505859 A 1.42233 1.5068687 0 0 1 5.4570312 13 A 1.42233 1.5068687 0 0 1 6.1367188 13.203125 L 14.712891 18.449219 L 23.287109 23.695312 A 1.42233 1.5068687 0 0 1 23.917969 24.501953 A 1.42233 1.5068687 0 0 0 23.287109 22.695312 L 14.712891 17.449219 L 6.1367188 12.203125 A 1.42233 1.5068687 0 0 0 5.4570312 12 z M 42.541016 12 A 1.42233 1.5068687 0 0 0 41.863281 12.203125 L 33.287109 17.449219 L 24.712891 22.695312 A 1.42233 1.5068687 0 0 0 24.082031 24.5 A 1.42233 1.5068687 0 0 1 24.712891 23.695312 L 33.287109 18.449219 L 41.863281 13.203125 A 1.42233 1.5068687 0 0 1 42.541016 13 A 1.42233 1.5068687 0 0 1 42.542969 13 A 1.42233 1.5068687 0 0 1 44 14.505859 L 44 13.505859 A 1.42233 1.5068687 0 0 0 42.542969 12 A 1.42233 1.5068687 0 0 1 42.541016 12 z "
     id="path4510" />
  <rect
     transform="matrix(0,-1,-1,0,0,0)"
     rx="15"
     ry="15"
     height="30"
     width="30"
     y="-39"
     x="-40"
     id="rect4492"
     style="opacity:0.2;fill:#040404;fill-opacity:1;stroke-width:0.75003755" />
  <rect
     style="fill:#5789d5;fill-opacity:1;stroke-width:0.75003755"
     id="rect4506"
     x="-39"
     y="-39"
     width="30"
     height="30"
     ry="15"
     rx="15"
     transform="matrix(0,-1,-1,0,0,0)" />
  <path
     transform="matrix(1.0285801,0,0,1.0392393,-0.17894438,-0.35547027)"
     inkscape:transform-center-x="-1.9999989"
     d="m 31.284821,24.398106 -5.833285,3.367848 -5.833283,3.367848 0,-6.735697 0,-6.735695 5.833284,3.367848 z"
     inkscape:randomized="0"
     inkscape:rounded="0"
     inkscape:flatsided="false"
     sodipodi:arg2="1.0471976"
     sodipodi:arg1="0"
     sodipodi:r2="3.8888559"
     sodipodi:r1="7.7777119"
     sodipodi:cy="24.398106"
     sodipodi:cx="23.507109"
     sodipodi:sides="3"
     id="path4489"
     style="opacity:0.2;fill:#000000;fill-opacity:1;stroke:none;stroke-width:4;stroke-linecap:round;stroke-linejoin:round;stroke-miterlimit:4;stroke-dasharray:none;stroke-dashoffset:0;stroke-opacity:1"
     sodipodi:type="star" />
  <path
     sodipodi:type="star"
     style="opacity:1;fill:#ffffff;fill-opacity:1;stroke:none;stroke-width:4;stroke-linecap:round;stroke-linejoin:round;stroke-miterlimit:4;stroke-dasharray:none;stroke-dashoffset:0;stroke-opacity:1"
     id="path4487"
     sodipodi:sides="3"
     sodipodi:cx="23.507109"
     sodipodi:cy="24.398106"
     sodipodi:r1="7.7777119"
     sodipodi:r2="3.8888559"
     sodipodi:arg1="0"
     sodipodi:arg2="1.0471976"
     inkscape:flatsided="false"
     inkscape:rounded="0"
     inkscape:randomized="0"
     d="m 31.284821,24.398106 -5.833285,3.367848 -5.833283,3.367848 0,-6.735697 0,-6.735695 5.833284,3.367848 z"
     inkscape:transform-center-x="-1.9999989"
     transform="matrix(1.0285801,0,0,1.0392393,-0.17894438,-1.3554702)" />
  <path
     style="fill:#fbfbfb;fill-opacity:1;stroke-width:0.75003755;opacity:0.1"
     d="M 24 9 C 15.69 9 9 15.69 9 24 C 9 24.168945 9.019903 24.332437 9.0253906 24.5 C 9.2898272 16.425529 15.858945 10 24 10 C 32.141055 10 38.710173 16.425529 38.974609 24.5 C 38.980097 24.332437 39 24.168945 39 24 C 39 15.69 32.31 9 24 9 z "
     id="rect4487" />
</svg>
