<?xml version="1.0" encoding="UTF-8" standalone="no"?>
<svg
   xmlns:dc="http://purl.org/dc/elements/1.1/"
   xmlns:cc="http://creativecommons.org/ns#"
   xmlns:rdf="http://www.w3.org/1999/02/22-rdf-syntax-ns#"
   xmlns:svg="http://www.w3.org/2000/svg"
   xmlns="http://www.w3.org/2000/svg"
   xmlns:sodipodi="http://sodipodi.sourceforge.net/DTD/sodipodi-0.dtd"
   xmlns:inkscape="http://www.inkscape.org/namespaces/inkscape"
   height="48"
   width="48"
   version="1"
   id="svg12"
   sodipodi:docname="music-hero.svg"
   inkscape:version="0.91 r13725">
  <metadata
     id="metadata18">
    <rdf:RDF>
      <cc:Work
         rdf:about="">
        <dc:format>image/svg+xml</dc:format>
        <dc:type
           rdf:resource="http://purl.org/dc/dcmitype/StillImage" />
        <dc:title />
      </cc:Work>
    </rdf:RDF>
  </metadata>
  <defs
     id="defs16" />
  <sodipodi:namedview
     pagecolor="#ffffff"
     bordercolor="#666666"
     borderopacity="1"
     objecttolerance="10"
     gridtolerance="10"
     guidetolerance="10"
     inkscape:pageopacity="0"
     inkscape:pageshadow="2"
     inkscape:window-width="1920"
     inkscape:window-height="1018"
     id="namedview14"
     showgrid="false"
     inkscape:zoom="4.97"
     inkscape:cx="-38.507042"
     inkscape:cy="24"
     inkscape:window-x="0"
     inkscape:window-y="32"
     inkscape:window-maximized="1"
     inkscape:current-layer="svg12">
    <inkscape:grid
       type="xygrid"
       id="grid4500" />
  </sodipodi:namedview>
  <rect
     transform="matrix(0,-1,-1,0,0,0)"
     rx="2"
     ry="2"
     height="40"
     width="40"
     y="-44"
     x="-44"
     fill="#f59335"
     id="rect2"
     style="fill:#d22a58;fill-opacity:1" />
  <path
     opacity=".2"
     d="m6 4c-1.108 0-2 0.892-2 2v1c0-1.108 0.892-2 2-2h36c1.108 0 2 0.892 2 2v-1c0-1.108-0.892-2-2-2h-36z"
     fill="#fff"
     id="path4"
     style="opacity:0.1" />
  <path
     opacity=".2"
     d="m6 45c-1.108 0-2-0.892-2-2v-1c0 1.108 0.892 2 2 2h36c1.108 0 2-0.892 2-2v1c0 1.108-0.892 2-2 2h-36z"
     id="path6" />
  <g
     id="g4504"
     transform="matrix(0.5,0,0,0.5,12,15)"
     style="opacity:0.2;fill:#000000;fill-opacity:1">
    <path
       style="fill:#000000;fill-opacity:1"
       sodipodi:nodetypes="ccccsccsccccsccccc"
       id="path4502"
       d="m 42,-6.0008 -28,5 V 26.266 C 13.347,26.093 12.675,26.004 12,26 c -4.4183,0 -8,3.5817 -8,8 0,4.4183 3.5817,8 8,8 4.0287,-0.0038 7.4261,-3.0029 7.9297,-7 0,0 0.07031,-0.72732 0.07031,-1 V 3.9292 l 16,-2.8574 v 20.1938 c -0.653,-0.173 -1.325,-0.262 -2,-0.266 -4.4183,0 -8,3.5817 -8,8 0,4.4183 3.5817,8 8,8 4.0287,-0.0038 7.4261,-3.0029 7.9297,-7 l 0.07,-1 V -6.0012 Z"
       inkscape:connector-curvature="0" />
  </g>
  <g
     style="fill:#da8fff;fill-opacity:1"
     transform="matrix(0.5,0,0,0.5,12,14)"
     id="g4">
    <path
       inkscape:connector-curvature="0"
       d="m 42,-6.0008 -28,5 V 26.266 C 13.347,26.093 12.675,26.004 12,26 c -4.4183,0 -8,3.5817 -8,8 0,4.4183 3.5817,8 8,8 4.0287,-0.0038 7.4261,-3.0029 7.9297,-7 0,0 0.07031,-0.72732 0.07031,-1 V 3.9292 l 16,-2.8574 v 20.1938 c -0.653,-0.173 -1.325,-0.262 -2,-0.266 -4.4183,0 -8,3.5817 -8,8 0,4.4183 3.5817,8 8,8 4.0287,-0.0038 7.4261,-3.0029 7.9297,-7 l 0.07,-1 V -6.0012 Z"
       id="path2"
       sodipodi:nodetypes="ccccsccsccccsccccc"
       style="fill:#da8fff;fill-opacity:1" />
  </g>
</svg>
