<?xml version="1.0" encoding="UTF-8" standalone="no"?>
<svg
   xmlns:dc="http://purl.org/dc/elements/1.1/"
   xmlns:cc="http://creativecommons.org/ns#"
   xmlns:rdf="http://www.w3.org/1999/02/22-rdf-syntax-ns#"
   xmlns:svg="http://www.w3.org/2000/svg"
   xmlns="http://www.w3.org/2000/svg"
   xmlns:sodipodi="http://sodipodi.sourceforge.net/DTD/sodipodi-0.dtd"
   xmlns:inkscape="http://www.inkscape.org/namespaces/inkscape"
   height="48"
   width="48"
   version="1"
   id="svg12"
   sodipodi:docname="musix-player.svg"
   inkscape:version="0.92.1 r15371">
  <metadata
     id="metadata18">
    <rdf:RDF>
      <cc:Work
         rdf:about="">
        <dc:format>image/svg+xml</dc:format>
        <dc:type
           rdf:resource="http://purl.org/dc/dcmitype/StillImage" />
        <dc:title></dc:title>
      </cc:Work>
    </rdf:RDF>
  </metadata>
  <defs
     id="defs16" />
  <sodipodi:namedview
     pagecolor="#ffffff"
     bordercolor="#666666"
     borderopacity="1"
     objecttolerance="10"
     gridtolerance="10"
     guidetolerance="10"
     inkscape:pageopacity="0"
     inkscape:pageshadow="2"
     inkscape:window-width="1600"
     inkscape:window-height="822"
     id="namedview14"
     showgrid="false"
     inkscape:zoom="9.28"
     inkscape:cx="10.097787"
     inkscape:cy="24"
     inkscape:window-x="0"
     inkscape:window-y="0"
     inkscape:window-maximized="1"
     inkscape:current-layer="svg12">
    <inkscape:grid
       type="xygrid"
       id="grid4500" />
  </sodipodi:namedview>
  <path
     opacity=".2"
     d="m6 45c-1.108 0-2-0.892-2-2v-1c0 1.108 0.892 2 2 2h36c1.108 0 2-0.892 2-2v1c0 1.108-0.892 2-2 2h-36z"
     id="path6" />
  <rect
     transform="matrix(0,-1,-1,0,0,0)"
     rx="2"
     ry="2"
     height="40"
     width="40"
     y="-44"
     x="-44"
     fill="#f59335"
     id="rect2"
     style="fill:#f96413;fill-opacity:1" />
  <path
     style="opacity:0.2;fill:#000000;fill-opacity:1;stroke:none;stroke-width:6.59452152;stroke-linecap:square;stroke-linejoin:miter;stroke-miterlimit:4;stroke-dasharray:none;stroke-dashoffset:0;stroke-opacity:1"
     d="M 6 5 C 4.892 5 4 5.892 4 7 L 4 7.828125 L 21.171875 25 L 4.015625 42.15625 C 4.0961328 43.189372 4.9455188 44 6 44 L 7.828125 44 L 24 27.828125 L 40.171875 44 L 42 44 C 43.054481 44 43.903867 43.189372 43.984375 42.15625 L 26.828125 25 L 44 7.828125 L 44 7 C 44 5.892 43.108 5 42 5 L 41.171875 5 L 24 22.171875 L 6.828125 5 L 6 5 z M 13 5 L 13 11 L 17 11 L 17 5 L 13 5 z M 22 5 L 22 11 L 26 11 L 26 5 L 22 5 z M 31 5 L 31 11 L 35 11 L 35 5 L 31 5 z M 4 14 L 4 18 L 10 18 L 10 14 L 4 14 z M 38 14 L 38 18 L 44 18 L 44 14 L 38 14 z M 4 23 L 4 27 L 10 27 L 10 23 L 4 23 z M 38 23 L 38 27 L 44 27 L 44 23 L 38 23 z M 4 32 L 4 36 L 10 36 L 10 32 L 4 32 z M 38 32 L 38 36 L 44 36 L 44 32 L 38 32 z M 13 39 L 13 44 L 17 44 L 17 39 L 13 39 z M 22 39 L 22 44 L 26 44 L 26 39 L 22 39 z M 31 39 L 31 44 L 35 44 L 35 39 L 31 39 z "
     id="path4581" />
  <path
     style="opacity:1;fill:#ffd04f;fill-opacity:1;stroke:none;stroke-width:6.59452152;stroke-linecap:square;stroke-linejoin:miter;stroke-miterlimit:4;stroke-dasharray:none;stroke-dashoffset:0;stroke-opacity:1"
     d="M 6 4 C 4.892 4 4 4.892 4 6 L 4 6.828125 L 21.171875 24 L 4 41.171875 L 4 42 C 4 43.108 4.892 44 6 44 L 6.828125 44 L 24 26.828125 L 41.171875 44 L 42 44 C 43.108 44 44 43.108 44 42 L 44 41.171875 L 26.828125 24 L 44 6.828125 L 44 6 C 44 4.892 43.108 4 42 4 L 41.171875 4 L 24 21.171875 L 6.828125 4 L 6 4 z M 13 4 L 13 10 L 17 10 L 17 4 L 13 4 z M 22 4 L 22 10 L 26 10 L 26 4 L 22 4 z M 31 4 L 31 10 L 35 10 L 35 4 L 31 4 z M 4 13 L 4 17 L 10 17 L 10 13 L 4 13 z M 38 13 L 38 17 L 44 17 L 44 13 L 38 13 z M 4 22 L 4 26 L 10 26 L 10 22 L 4 22 z M 38 22 L 38 26 L 44 26 L 44 22 L 38 22 z M 4 31 L 4 35 L 10 35 L 10 31 L 4 31 z M 38 31 L 38 35 L 44 35 L 44 31 L 38 31 z M 13 38 L 13 44 L 17 44 L 17 38 L 13 38 z M 22 38 L 22 44 L 26 44 L 26 38 L 22 38 z M 31 38 L 31 44 L 35 44 L 35 38 L 31 38 z "
     id="rect4572" />
  <path
     opacity=".2"
     d="m6 4c-1.108 0-2 0.892-2 2v1c0-1.108 0.892-2 2-2h36c1.108 0 2 0.892 2 2v-1c0-1.108-0.892-2-2-2h-36z"
     fill="#fff"
     id="path4"
     style="opacity:0.1" />
  <rect
     rx="4"
     ry="4"
     y="11"
     x="10"
     height="28"
     width="28"
     id="rect4570"
     style="opacity:0.2;fill:#000000;fill-opacity:1;stroke:none;stroke-width:7.7087698;stroke-linecap:square;stroke-linejoin:miter;stroke-miterlimit:4;stroke-dasharray:none;stroke-dashoffset:0;stroke-opacity:1" />
  <rect
     style="opacity:1;fill:#ffffff;fill-opacity:1;stroke:none;stroke-width:7.7087698;stroke-linecap:square;stroke-linejoin:miter;stroke-miterlimit:4;stroke-dasharray:none;stroke-dashoffset:0;stroke-opacity:1"
     id="rect4568"
     width="28"
     height="28"
     x="10"
     y="10"
     ry="4"
     rx="4" />
  <path
     inkscape:connector-curvature="0"
     d="m 18.603175,16.000121 c -0.544617,-0.01067 -0.638296,0.689704 -0.59328,1.195302 0.004,4.731926 -0.007,9.464492 0.005,14.196206 0.04789,0.565758 0.655619,0.791805 1.001143,0.440948 3.692794,-2.422603 9.064213,-4.828566 12.751497,-7.261623 0.402343,-0.334889 0.248247,-1.114768 -0.200836,-1.276901 C 27.873804,20.88105 22.516112,18.45482 18.820212,16.05003 18.751182,16.01718 18.676987,16.00022 18.602754,16.00011 Z"
     id="path20"
     style="fill:#f96413;fill-opacity:1;stroke-width:1.03378677" />
</svg>
