<?xml version="1.0" encoding="UTF-8" standalone="no"?>
<svg
   xmlns:dc="http://purl.org/dc/elements/1.1/"
   xmlns:cc="http://creativecommons.org/ns#"
   xmlns:rdf="http://www.w3.org/1999/02/22-rdf-syntax-ns#"
   xmlns:svg="http://www.w3.org/2000/svg"
   xmlns="http://www.w3.org/2000/svg"
   xmlns:sodipodi="http://sodipodi.sourceforge.net/DTD/sodipodi-0.dtd"
   xmlns:inkscape="http://www.inkscape.org/namespaces/inkscape"
   height="48"
   width="48"
   version="1"
   id="svg16"
   sodipodi:docname="music-folder-player.svg"
   inkscape:version="0.91 r13725">
  <metadata
     id="metadata22">
    <rdf:RDF>
      <cc:Work
         rdf:about="">
        <dc:format>image/svg+xml</dc:format>
        <dc:type
           rdf:resource="http://purl.org/dc/dcmitype/StillImage" />
        <dc:title />
      </cc:Work>
    </rdf:RDF>
  </metadata>
  <defs
     id="defs20" />
  <sodipodi:namedview
     pagecolor="#ffffff"
     bordercolor="#666666"
     borderopacity="1"
     objecttolerance="10"
     gridtolerance="10"
     guidetolerance="10"
     inkscape:pageopacity="0"
     inkscape:pageshadow="2"
     inkscape:window-width="1920"
     inkscape:window-height="1018"
     id="namedview18"
     showgrid="false"
     inkscape:zoom="8.08"
     inkscape:cx="21.49505"
     inkscape:cy="24"
     inkscape:window-x="0"
     inkscape:window-y="32"
     inkscape:window-maximized="1"
     inkscape:current-layer="svg16" />
  <path
     d="m 3.99975,36 0,-28 c 0,-1.108 0.8988,-2.1224 2,-2 l 13,0 c 2,0 2,1.601856 2,4 l 21.103,0 c 0,0 1.8975,0 1.8975,2 l 0,24 c 0,1.108 -0.892,2 -2,2 l -36,0 c -1.108,0 -2,-0.892 -2,-2 z"
     style="fill:#a9a9a9;fill-opacity:1"
     id="path2" />
  <path
     style="opacity:0.2;fill:#000000;fill-opacity:1"
     d="m 43.99975,39.0003 0,-22 c 0,-1.108 -0.89878,-2.1224 -2,-2 l -16,0 -4,0 -16,0 c -2,0 -2,1.9167 -2,1.9167 l 0,22.083 c 0,1.108 0.892,2 2,2 l 36,0 c 1.108,0 2,-0.892 2,-2 z"
     id="path4" />
  <rect
     style="opacity:1;fill:#ffffff;fill-opacity:1"
     width="36"
     height="16"
     x="6"
     y="13"
     ry="2"
     rx="2"
     id="rect6" />
  <path
     d="m 43.99975,40 0,-22 c 0,-1.108 -0.89878,-2.1224 -2,-2 l -16,0 -4,0 -16,0 c -2,0 -2,1.9167 -2,1.9167 l 0,22.083 c 0,1.108 0.892,2 2,2 l 36,0 c 1.108,0 2,-0.892 2,-2 z"
     style="fill:#e4e4e4;fill-opacity:1"
     id="path8" />
  <path
     d="m 3.99975,39.994 0,1.006 c 0,1.108 0.892,2 2,2 l 36,0 c 1.108,0 2,-0.892 2,-2 l 0,-1.0059 c 0,1.108 -0.892,2 -2,2 l -36,0 c -1.108,0 -2,-0.892 -2,-2 z"
     style="opacity:0.2"
     id="path10" />
  <path
     style="opacity:0.1;fill:#ffffff;fill-opacity:1"
     d="m 5.99975,6 c -1.1012,-0.1224 -2,0.892 -2,2 l 0,1 c 0,-1.108 0.8988,-2.1224 2,-2 l 13,0 c 2,0 2,1.601856 2,4 l 21.10352,0 c 0,0 1.89648,0 1.89648,2 l 0,-1 c 0,-2 -1.89648,-2 -1.89648,-2 l -21.10352,0 c 0,-2.398144 0,-4 -2,-4 l -13,0 z"
     id="path12" />
  <path
     style="opacity:1;enable-background:new;fill:#007fb6;fill-opacity:1"
     d="m 22.344,21.9998 c -0.739,0 -1.344,0.605 -1.344,1.344 l 0,6.8437 C 20.68353,30.07398 20.35553,30 20,30 c -1.6568,0 -3,1.3432 -3,3 0,1.6568 1.3432,3 3,3 1.6568,0 3,-1.3432 3,-3 l 0,-7 6,0 0,4.1875 C 28.68353,30.07398 28.35553,30 28,30 c -1.6568,0 -3,1.3432 -3,3 0,1.6568 1.3432,3 3,3 1.6568,0 3,-1.3432 3,-3 l 0,-10 -0.0625,0 c -0.14881,-0.57408 -0.65936,-1 -1.2812,-1 l -7.3125,0 z"
     id="path14" />
</svg>
