<?xml version="1.0" encoding="UTF-8" standalone="no"?>
<svg
   xmlns:dc="http://purl.org/dc/elements/1.1/"
   xmlns:cc="http://creativecommons.org/ns#"
   xmlns:rdf="http://www.w3.org/1999/02/22-rdf-syntax-ns#"
   xmlns:svg="http://www.w3.org/2000/svg"
   xmlns="http://www.w3.org/2000/svg"
   xmlns:sodipodi="http://sodipodi.sourceforge.net/DTD/sodipodi-0.dtd"
   xmlns:inkscape="http://www.inkscape.org/namespaces/inkscape"
   height="48"
   width="48"
   version="1"
   id="svg12"
   sodipodi:docname="musicolet-music-player.svg"
   inkscape:version="0.91 r13725">
  <metadata
     id="metadata18">
    <rdf:RDF>
      <cc:Work
         rdf:about="">
        <dc:format>image/svg+xml</dc:format>
        <dc:type
           rdf:resource="http://purl.org/dc/dcmitype/StillImage" />
        <dc:title />
      </cc:Work>
    </rdf:RDF>
  </metadata>
  <defs
     id="defs16" />
  <sodipodi:namedview
     pagecolor="#ffffff"
     bordercolor="#666666"
     borderopacity="1"
     objecttolerance="10"
     gridtolerance="10"
     guidetolerance="10"
     inkscape:pageopacity="0"
     inkscape:pageshadow="2"
     inkscape:window-width="1920"
     inkscape:window-height="1018"
     id="namedview14"
     showgrid="false"
     inkscape:zoom="3.52"
     inkscape:cx="-37.470562"
     inkscape:cy="19.687332"
     inkscape:window-x="0"
     inkscape:window-y="32"
     inkscape:window-maximized="1"
     inkscape:current-layer="svg12" />
  <path
     fill="#4f4f4f"
     d="m8.4393 4.0008a3.3613 3.1388 0 0 0 -3.4393 3.1376v33.726a3.3613 3.1388 0 0 0 5.0419 2.716l15.639-8.43 15.638-8.431a3.3613 3.1388 0 0 0 0 -5.4364l-15.638-8.432-15.639-8.4308a3.3613 3.1388 0 0 0 -1.6027 -0.4194z"
     id="path2"
     style="fill:#21a758;fill-opacity:1" />
  <path
     opacity=".1"
     fill="#fff"
     d="m8.4395 4.0016a3.3613 3.1388 0 0 0 -3.4395 3.1368v1a3.3613 3.1388 0 0 1 3.4395 -3.1387 3.3613 3.1388 0 0 1 1.6015 0.4199l15.639 8.4316 15.641 8.4316a3.3613 3.1388 0 0 1 1.6348 2.2148 3.3613 3.1388 0 0 0 -1.6348 -3.2148l-15.641-8.432-15.639-8.4314a3.3613 3.1388 0 0 0 -1.6015 -0.418z"
     id="path8"
     style="opacity:0.2" />
  <path
     opacity=".2"
     d="m42.955 24.498a3.3613 3.1388 0 0 1 -1.6348 2.2207l-15.64 8.431-15.639 8.43a3.3613 3.1388 0 0 1 -5.041 -2.717v1a3.3613 3.1388 0 0 0 5.041 2.7168l15.639-8.4297 15.641-8.4316a3.3613 3.1388 0 0 0 1.6348 -3.2207z"
     id="path10" />
  <path
     id="path4504"
     d="m 19,15 v 2.498047 11.974609 A 4,3.5 0 0 0 17,29 a 4,3.5 0 0 0 -4,3.5 4,3.5 0 0 0 4,3.5 4,3.5 0 0 0 4,-3.5 4,3.5 0 0 0 -0.0039,-0.08203 H 21 V 19.164062 c 0.375166,0.320372 0.966084,0.725796 1.197266,1.021485 C 22.737985,20.877146 23,21.576306 23,23 h 2 C 25,21.284902 24.575714,19.979264 23.773438,18.953125 23.07148,18.055299 22.087616,17.363184 21,16.546875 V 15 Z"
     style="opacity:0.2;fill:#000000;fill-opacity:1;stroke:none;stroke-width:1.03575218;stroke-linecap:round;stroke-linejoin:round;stroke-miterlimit:4;stroke-dasharray:none;stroke-dashoffset:0;stroke-opacity:1"
     inkscape:connector-curvature="0" />
  <path
     style="opacity:1;fill:#ffffff;fill-opacity:1;stroke:none;stroke-width:1.03575218;stroke-linecap:round;stroke-linejoin:round;stroke-miterlimit:4;stroke-dasharray:none;stroke-dashoffset:0;stroke-opacity:1"
     d="M 19 14 L 19 16.498047 L 19 28.472656 A 4 3.5 0 0 0 17 28 A 4 3.5 0 0 0 13 31.5 A 4 3.5 0 0 0 17 35 A 4 3.5 0 0 0 21 31.5 A 4 3.5 0 0 0 20.996094 31.417969 L 21 31.417969 L 21 18.164062 C 21.375166 18.484434 21.966084 18.889858 22.197266 19.185547 C 22.737985 19.877146 23 20.576306 23 22 L 25 22 C 25 20.284902 24.575714 18.979264 23.773438 17.953125 C 23.07148 17.055299 22.087616 16.363184 21 15.546875 L 21 14 L 19 14 z "
     id="path4497" />
</svg>
