<?xml version="1.0" encoding="UTF-8" standalone="no"?>
<svg
   xmlns:dc="http://purl.org/dc/elements/1.1/"
   xmlns:cc="http://creativecommons.org/ns#"
   xmlns:rdf="http://www.w3.org/1999/02/22-rdf-syntax-ns#"
   xmlns:svg="http://www.w3.org/2000/svg"
   xmlns="http://www.w3.org/2000/svg"
   xmlns:sodipodi="http://sodipodi.sourceforge.net/DTD/sodipodi-0.dtd"
   xmlns:inkscape="http://www.inkscape.org/namespaces/inkscape"
   height="48"
   width="48"
   version="1"
   id="svg22"
   sodipodi:docname="music-and-video.svg"
   inkscape:version="0.92.1 r15371">
  <metadata
     id="metadata28">
    <rdf:RDF>
      <cc:Work
         rdf:about="">
        <dc:format>image/svg+xml</dc:format>
        <dc:type
           rdf:resource="http://purl.org/dc/dcmitype/StillImage" />
        <dc:title></dc:title>
      </cc:Work>
    </rdf:RDF>
  </metadata>
  <defs
     id="defs26" />
  <sodipodi:namedview
     pagecolor="#ffffff"
     bordercolor="#666666"
     borderopacity="1"
     objecttolerance="10"
     gridtolerance="10"
     guidetolerance="10"
     inkscape:pageopacity="0"
     inkscape:pageshadow="2"
     inkscape:window-width="1600"
     inkscape:window-height="822"
     id="namedview24"
     showgrid="false"
     inkscape:zoom="1"
     inkscape:cx="26.63755"
     inkscape:cy="24.968513"
     inkscape:window-x="0"
     inkscape:window-y="0"
     inkscape:window-maximized="1"
     inkscape:current-layer="svg22" />
  <circle
     cy="24"
     cx="24"
     r="20"
     fill="#ff5722"
     id="circle2"
     style="fill:#f58227;fill-opacity:1" />
  <path
     id="path4501"
     d="M 16.777344,11.999747 A 2.7126291,2.8707843 0 0 0 14,14.868888 V 25.0017 35.132559 a 2.7126291,2.8707843 0 0 0 4.066406,2.484376 l 8.294922,-5.0625 8.289063,-5.06836 a 2.7126291,2.8707843 0 0 0 0,-4.964844 L 30,19.677481 v -4.679687 l -5.765625,1.15625 -6.167969,-3.763672 a 2.7126291,2.8707843 0 0 0 -1.289062,-0.390625 z m 7.447265,4.15625 c 0,0 5.775391,3.521816 5.775391,3.535156 v 6.306641 c 0,1.6568 -1.3432,3 -3,3 -1.6568,0 -3,-1.3432 -3,-3 0,-1.6568 1.3432,-3 3,-3 0.36,0 0.68,0.06945 1,0.189453 v -4.1875 l -6,1.201172 v 7.798828 c 0,1.6568 -1.3432,3 -3,3 -1.6568,0 -3,-1.3432 -3,-3 0,-1.6568 1.3432,-3 3,-3 0.36,0 0.68,0.06945 1,0.189453 v -8.1875 z"
     style="opacity:0.2;fill:#000000;fill-opacity:1;stroke:none;stroke-width:6.65007496;stroke-linecap:round;stroke-linejoin:round;stroke-miterlimit:4;stroke-dasharray:none;stroke-dashoffset:0;stroke-opacity:1"
     inkscape:connector-curvature="0" />
  <path
     style="opacity:1;fill:#ffffff;fill-opacity:1;stroke:none;stroke-width:6.65007496;stroke-linecap:round;stroke-linejoin:round;stroke-miterlimit:4;stroke-dasharray:none;stroke-dashoffset:0;stroke-opacity:1"
     d="M 16.777344 11 A 2.7126291 2.8707843 0 0 0 14 13.869141 L 14 24.001953 L 14 34.132812 A 2.7126291 2.8707843 0 0 0 18.066406 36.617188 L 26.361328 31.554688 L 34.650391 26.486328 A 2.7126291 2.8707843 0 0 0 34.650391 21.521484 L 30 18.677734 L 30 13.998047 L 24.234375 15.154297 L 18.066406 11.390625 A 2.7126291 2.8707843 0 0 0 16.777344 11 z M 24.224609 15.15625 C 24.224609 15.15625 30 18.678066 30 18.691406 L 30 24.998047 C 30 26.654847 28.6568 27.998047 27 27.998047 C 25.3432 27.998047 24 26.654847 24 24.998047 C 24 23.341247 25.3432 21.998047 27 21.998047 C 27.36 21.998047 27.68 22.0675 28 22.1875 L 28 18 L 22 19.201172 L 22 27 C 22 28.6568 20.6568 30 19 30 C 17.3432 30 16 28.6568 16 27 C 16 25.3432 17.3432 24 19 24 C 19.36 24 19.68 24.069453 20 24.189453 L 20 16.001953 L 24.224609 15.15625 z "
     id="path4514" />
  <g
     style="opacity:0.697;fill:#ffffff;enable-background:new"
     transform="translate(-469,-166.9975)"
     id="g16" />
  <path
     opacity=".2"
     fill="#fff"
     d="m24 4a20 20 0 0 0 -20 20 20 20 0 0 0 0.0215 0.582 20 20 0 0 1 19.978 -19.582 20 20 0 0 1 19.979 19.418 20 20 0 0 0 0.021 -0.418 20 20 0 0 0 -20 -20z"
     id="path18"
     style="opacity:0.2" />
  <path
     opacity=".2"
     d="m43.979 24.418a20 20 0 0 1 -19.979 19.582 20 20 0 0 1 -19.978 -19.418 20 20 0 0 0 -0.022 0.418 20 20 0 0 0 20 20 20 20 0 0 0 20 -20 20 20 0 0 0 -0.021 -0.582z"
     id="path20" />
  <g
     id="g4497"
     transform="translate(-469,-166.9975)"
     style="opacity:0.697;fill:#ffffff;enable-background:new" />
</svg>
