<?xml version="1.0" encoding="UTF-8" standalone="no"?>
<svg
   xmlns:dc="http://purl.org/dc/elements/1.1/"
   xmlns:cc="http://creativecommons.org/ns#"
   xmlns:rdf="http://www.w3.org/1999/02/22-rdf-syntax-ns#"
   xmlns:svg="http://www.w3.org/2000/svg"
   xmlns="http://www.w3.org/2000/svg"
   xmlns:sodipodi="http://sodipodi.sourceforge.net/DTD/sodipodi-0.dtd"
   xmlns:inkscape="http://www.inkscape.org/namespaces/inkscape"
   height="48"
   width="48"
   version="1"
   id="svg12"
   sodipodi:docname="n7player.svg"
   inkscape:version="0.92.1 r15371">
  <metadata
     id="metadata18">
    <rdf:RDF>
      <cc:Work
         rdf:about="">
        <dc:format>image/svg+xml</dc:format>
        <dc:type
           rdf:resource="http://purl.org/dc/dcmitype/StillImage" />
        <dc:title></dc:title>
      </cc:Work>
    </rdf:RDF>
  </metadata>
  <defs
     id="defs16" />
  <sodipodi:namedview
     pagecolor="#ffffff"
     bordercolor="#666666"
     borderopacity="1"
     objecttolerance="10"
     gridtolerance="10"
     guidetolerance="10"
     inkscape:pageopacity="0"
     inkscape:pageshadow="2"
     inkscape:window-width="1600"
     inkscape:window-height="822"
     id="namedview14"
     showgrid="false"
     inkscape:zoom="7.54"
     inkscape:cx="5.0802439"
     inkscape:cy="24"
     inkscape:window-x="0"
     inkscape:window-y="0"
     inkscape:window-maximized="1"
     inkscape:current-layer="svg12">
    <inkscape:grid
       type="xygrid"
       id="grid4511" />
  </sodipodi:namedview>
  <rect
     transform="matrix(0,-1,-1,0,0,0)"
     rx="20"
     ry="20"
     height="40"
     width="40"
     y="-44"
     x="-44"
     id="rect2"
     style="fill:#489fe8;fill-opacity:1;stroke-width:1.00005007" />
  <path
     opacity=".2"
     d="m24 4c-11.079 0-19.998 8.92-19.998 20 0 0.16772-0.004 0.33329 0 0.5 0.2642-10.846 9.087-19.5 19.998-19.5s19.734 8.6536 19.998 19.5c0.004-0.16671 0-0.33228 0-0.5 0-11.08-8.919-20-19.998-20z"
     fill="#fff"
     id="path8"
     style="opacity:0.1" />
  <path
     opacity=".2"
     d="m4.0117 24.5c-0.0041 0.167-0.0117 0.332-0.0117 0.5 0 11.08 8.92 20 20 20s20-8.92 20-20c0-0.168-0.008-0.333-0.012-0.5-0.264 10.846-9.076 19.5-19.988 19.5s-19.724-8.654-19.988-19.5z"
     id="path10" />
  <rect
     style="fill:#393939;fill-opacity:1;stroke-width:0.85004258"
     id="rect4506"
     x="-41"
     y="-41"
     width="34"
     height="34"
     ry="17"
     rx="17"
     transform="matrix(0,-1,-1,0,0,0)" />
  <path
     inkscape:connector-curvature="0"
     id="path4507"
     d="M 19.006677,12.000306 A 0.98372146,1.1223485 0 0 0 18,13.122544 v 11.877 11.87992 a 0.98372146,1.1223485 0 0 0 1.475435,0.970266 l 9.016545,-5.9385 9.016545,-5.938497 a 0.98372146,1.1223485 0 0 0 0,-1.943457 L 28.49198,18.087855 19.475435,12.149354 a 0.98372146,1.1223485 0 0 0 -0.468758,-0.149048 z"
     style="opacity:0.2;fill:#000102;fill-opacity:1;stroke:none;stroke-width:5.60344696;stroke-linecap:round;stroke-linejoin:round;stroke-miterlimit:4;stroke-dasharray:none;stroke-dashoffset:0;stroke-opacity:1" />
  <path
     style="opacity:1;fill:#489fe8;fill-opacity:1;stroke:none;stroke-width:5.60344696;stroke-linecap:round;stroke-linejoin:round;stroke-miterlimit:4;stroke-dasharray:none;stroke-dashoffset:0;stroke-opacity:1"
     d="M 19.006677,11.000306 A 0.98372146,1.1223485 0 0 0 18,12.122544 v 11.877 11.87992 a 0.98372146,1.1223485 0 0 0 1.475435,0.970266 l 9.016545,-5.9385 9.016545,-5.938497 a 0.98372146,1.1223485 0 0 0 0,-1.943457 L 28.49198,17.087855 19.475435,11.149354 a 0.98372146,1.1223485 0 0 0 -0.468758,-0.149048 z"
     id="path4500"
     inkscape:connector-curvature="0" />
  <path
     id="path4532"
     d="m 16,20.000203 v 10 h 2 v -7.962891 c 0.673196,0.03377 1.244461,0.09055 1.59375,0.199219 0.513959,0.159899 0.68155,0.3006 0.886719,0.710938 C 20.890806,23.768144 21,26.000203 21,30.000203 h 2 c 0,-4 0.109194,-6.267941 -0.730469,-7.947266 C 21.8497,21.213275 21.079791,20.603976 20.1875,20.326375 19.551576,20.128532 18.81238,20.063914 18,20.033406 v -0.0332 h -1 z"
     style="opacity:0.2;fill:#000000;fill-opacity:1;stroke:none;stroke-width:1.54989684;stroke-linecap:round;stroke-linejoin:round;stroke-miterlimit:4;stroke-dasharray:none;stroke-dashoffset:0;stroke-opacity:1"
     inkscape:connector-curvature="0" />
  <path
     style="opacity:1;fill:#ffffff;fill-opacity:1;stroke:none;stroke-width:1.54989684;stroke-linecap:round;stroke-linejoin:round;stroke-miterlimit:4;stroke-dasharray:none;stroke-dashoffset:0;stroke-opacity:1"
     d="M 16 19 L 16 29 L 18 29 L 18 21.037109 C 18.673196 21.070884 19.244461 21.127661 19.59375 21.236328 C 20.107709 21.396227 20.2753 21.536928 20.480469 21.947266 C 20.890806 22.767941 21 25 21 29 L 23 29 C 23 25 23.109194 22.732059 22.269531 21.052734 C 21.8497 20.213072 21.079791 19.603773 20.1875 19.326172 C 19.551576 19.128329 18.81238 19.063711 18 19.033203 L 18 19 L 17 19 L 16 19 z "
     id="rect4509" />
  <path
     id="path4534"
     d="m 22,18.000203 v 2 h 7.728516 c -1.945404,2.058478 -3.334752,4.154644 -4.052735,6.308594 -0.923187,2.769561 -1.169514,5.571776 -1.662109,8.527344 l 0.03125,0.0059 2.21875,-1.462891 c 0.347458,-2.306564 0.654462,-4.469247 1.310547,-6.4375 0.756963,-2.270889 2.742714,-5.074757 5.14696,-7.254335 l -4.228991,-1.59918 -0.132813,-0.08789 z"
     style="color:#000000;font-style:normal;font-variant:normal;font-weight:normal;font-stretch:normal;font-size:medium;line-height:normal;font-family:sans-serif;font-variant-ligatures:normal;font-variant-position:normal;font-variant-caps:normal;font-variant-numeric:normal;font-variant-alternates:normal;font-feature-settings:normal;text-indent:0;text-align:start;text-decoration:none;text-decoration-line:none;text-decoration-style:solid;text-decoration-color:#000000;letter-spacing:normal;word-spacing:normal;text-transform:none;writing-mode:lr-tb;direction:ltr;text-orientation:mixed;dominant-baseline:auto;baseline-shift:baseline;text-anchor:start;white-space:normal;shape-padding:0;clip-rule:nonzero;display:inline;overflow:visible;visibility:visible;opacity:0.2;isolation:auto;mix-blend-mode:normal;color-interpolation:sRGB;color-interpolation-filters:linearRGB;solid-color:#000000;solid-opacity:1;vector-effect:none;fill:#000000;fill-opacity:1;fill-rule:nonzero;stroke:none;stroke-width:2;stroke-linecap:butt;stroke-linejoin:miter;stroke-miterlimit:4;stroke-dasharray:none;stroke-dashoffset:0;stroke-opacity:1;color-rendering:auto;image-rendering:auto;shape-rendering:auto;text-rendering:auto;enable-background:accumulate"
     inkscape:connector-curvature="0"
     sodipodi:nodetypes="cccscccscccc" />
  <path
     style="color:#000000;font-style:normal;font-variant:normal;font-weight:normal;font-stretch:normal;font-size:medium;line-height:normal;font-family:sans-serif;font-variant-ligatures:normal;font-variant-position:normal;font-variant-caps:normal;font-variant-numeric:normal;font-variant-alternates:normal;font-feature-settings:normal;text-indent:0;text-align:start;text-decoration:none;text-decoration-line:none;text-decoration-style:solid;text-decoration-color:#000000;letter-spacing:normal;word-spacing:normal;text-transform:none;writing-mode:lr-tb;direction:ltr;text-orientation:mixed;dominant-baseline:auto;baseline-shift:baseline;text-anchor:start;white-space:normal;shape-padding:0;clip-rule:nonzero;display:inline;overflow:visible;visibility:visible;opacity:1;isolation:auto;mix-blend-mode:normal;color-interpolation:sRGB;color-interpolation-filters:linearRGB;solid-color:#000000;solid-opacity:1;vector-effect:none;fill:#ffffff;fill-opacity:1;fill-rule:nonzero;stroke:none;stroke-width:2;stroke-linecap:butt;stroke-linejoin:miter;stroke-miterlimit:4;stroke-dasharray:none;stroke-dashoffset:0;stroke-opacity:1;color-rendering:auto;image-rendering:auto;shape-rendering:auto;text-rendering:auto;enable-background:accumulate"
     d="M 22 17 L 22 19 L 29.728516 19 C 27.783112 21.058478 26.393764 23.154644 25.675781 25.308594 C 24.752594 28.078155 24.506267 30.88037 24.013672 33.835938 L 24.044922 33.841797 L 26.263672 32.378906 C 26.61113 30.072342 26.918134 27.909659 27.574219 25.941406 C 28.331182 23.670517 29.554738 21.552625 31.958984 19.373047 L 28.492188 17.087891 L 28.359375 17 L 22 17 z "
     id="path4515" />
  <path
     style="opacity:0.1;fill:#ffffff;fill-opacity:1;stroke:none;stroke-width:5.60344696;stroke-linecap:round;stroke-linejoin:round;stroke-miterlimit:4;stroke-dasharray:none;stroke-dashoffset:0;stroke-opacity:1"
     d="M 19.005859 11 A 0.98372146 1.1223485 0 0 0 18 12.123047 L 18 13.123047 A 0.98372146 1.1223485 0 0 1 19.005859 12 A 0.98372146 1.1223485 0 0 1 19.474609 12.148438 L 28.492188 18.087891 L 37.507812 24.029297 A 0.98372146 1.1223485 0 0 1 37.896484 24.501953 A 0.98372146 1.1223485 0 0 0 37.507812 23.029297 L 28.492188 17.087891 L 19.474609 11.148438 A 0.98372146 1.1223485 0 0 0 19.005859 11 z "
     id="path4536" />
</svg>
