<?xml version="1.0" encoding="UTF-8" standalone="no"?>
<svg
   xmlns:dc="http://purl.org/dc/elements/1.1/"
   xmlns:cc="http://creativecommons.org/ns#"
   xmlns:rdf="http://www.w3.org/1999/02/22-rdf-syntax-ns#"
   xmlns:svg="http://www.w3.org/2000/svg"
   xmlns="http://www.w3.org/2000/svg"
   xmlns:sodipodi="http://sodipodi.sourceforge.net/DTD/sodipodi-0.dtd"
   xmlns:inkscape="http://www.inkscape.org/namespaces/inkscape"
   height="48"
   width="48"
   version="1"
   id="svg24"
   sodipodi:docname="neutron-music-player.svg"
   inkscape:version="0.91 r13725">
  <metadata
     id="metadata30">
    <rdf:RDF>
      <cc:Work
         rdf:about="">
        <dc:format>image/svg+xml</dc:format>
        <dc:type
           rdf:resource="http://purl.org/dc/dcmitype/StillImage" />
        <dc:title />
      </cc:Work>
    </rdf:RDF>
  </metadata>
  <defs
     id="defs28" />
  <sodipodi:namedview
     pagecolor="#ffffff"
     bordercolor="#666666"
     borderopacity="1"
     objecttolerance="10"
     gridtolerance="10"
     guidetolerance="10"
     inkscape:pageopacity="0"
     inkscape:pageshadow="2"
     inkscape:window-width="1920"
     inkscape:window-height="1018"
     id="namedview26"
     showgrid="false"
     inkscape:zoom="4.9166667"
     inkscape:cx="-58.474577"
     inkscape:cy="24"
     inkscape:window-x="0"
     inkscape:window-y="32"
     inkscape:window-maximized="1"
     inkscape:current-layer="svg24" />
  <rect
     transform="matrix(0,-1,-1,0,0,0)"
     rx="2"
     ry="2"
     height="40"
     width="32"
     y="-44"
     x="-40"
     fill="#dd4545"
     id="rect2"
     style="fill:#39597e;fill-opacity:1" />
  <path
     opacity=".2"
     fill="#fff"
     d="m6 8c-1.108 0-2 0.892-2 2v1c0-1.108 0.892-2 2-2h36c1.108 0 2 0.892 2 2v-1c0-1.108-0.892-2-2-2h-36z"
     id="path6"
     style="opacity:0.1" />
  <path
     opacity=".2"
     d="m4 38v1c0 1.108 0.892 2 2 2h36c1.108 0 2-0.892 2-2v-1c0 1.108-0.892 2-2 2h-36c-1.108 0-2-0.892-2-2z"
     id="path8" />
  <path
     style="opacity:0.2;fill:#000000;fill-opacity:1;stroke-width:0.64536387"
     inkscape:connector-curvature="0"
     id="path4508"
     d="M 34,25.000127 25,30.000064 16,35 V 15 l 9,4.999936 z" />
  <path
     d="M 34,24.000127 25,29.000064 16,34 V 14 l 9,4.999936 z"
     id="path22"
     inkscape:connector-curvature="0"
     style="fill:#c7c7c7;stroke-width:0.64536387" />
</svg>
