<?xml version="1.0" encoding="UTF-8" standalone="no"?>
<svg
   xmlns:dc="http://purl.org/dc/elements/1.1/"
   xmlns:cc="http://creativecommons.org/ns#"
   xmlns:rdf="http://www.w3.org/1999/02/22-rdf-syntax-ns#"
   xmlns:svg="http://www.w3.org/2000/svg"
   xmlns="http://www.w3.org/2000/svg"
   xmlns:sodipodi="http://sodipodi.sourceforge.net/DTD/sodipodi-0.dtd"
   xmlns:inkscape="http://www.inkscape.org/namespaces/inkscape"
   height="48"
   width="48"
   version="1"
   id="svg12"
   sodipodi:docname="omnich-player.svg"
   inkscape:version="0.92.1 r15371">
  <metadata
     id="metadata18">
    <rdf:RDF>
      <cc:Work
         rdf:about="">
        <dc:format>image/svg+xml</dc:format>
        <dc:type
           rdf:resource="http://purl.org/dc/dcmitype/StillImage" />
        <dc:title></dc:title>
      </cc:Work>
    </rdf:RDF>
  </metadata>
  <defs
     id="defs16" />
  <sodipodi:namedview
     pagecolor="#ffffff"
     bordercolor="#666666"
     borderopacity="1"
     objecttolerance="10"
     gridtolerance="10"
     guidetolerance="10"
     inkscape:pageopacity="0"
     inkscape:pageshadow="2"
     inkscape:window-width="1600"
     inkscape:window-height="822"
     id="namedview14"
     showgrid="false"
     inkscape:zoom="7.9"
     inkscape:cx="-21.757359"
     inkscape:cy="16"
     inkscape:window-x="0"
     inkscape:window-y="0"
     inkscape:window-maximized="1"
     inkscape:current-layer="svg12" />
  <path
     inkscape:connector-curvature="0"
     id="path4517"
     d="M 24,5 C 13.56581,5 5,13.56581 5,24 v 9 c 0,2.971628 1.3397179,5.798263 3.1425781,7.390625 0.3224461,0.284798 0.6337492,0.379452 0.9570313,0.599609 A 5.0005,5.0005 0 0 0 14,45 h 5 a 5.0005,5.0005 0 0 0 5,-5 5.0005,5.0005 0 0 0 5,5 h 5 a 5.0005,5.0005 0 0 0 4.894531,-4.005859 c 0.325845,-0.221808 0.639854,-0.317986 0.964844,-0.605469 C 41.66023,38.795651 43,35.971741 43,33 V 24 C 43,13.56581 34.43419,5 24,5 Z m 0,14 c 1.72944,0 3.124411,0.843681 4.013672,2.097656 A 5.0005,5.0005 0 0 0 24,26 5.0005,5.0005 0 0 0 19.984375,21.101562 C 20.873382,19.845524 22.268932,19 24,19 Z"
     style="color:#000000;font-style:normal;font-variant:normal;font-weight:normal;font-stretch:normal;font-size:medium;line-height:normal;font-family:sans-serif;font-variant-ligatures:normal;font-variant-position:normal;font-variant-caps:normal;font-variant-numeric:normal;font-variant-alternates:normal;font-feature-settings:normal;text-indent:0;text-align:start;text-decoration:none;text-decoration-line:none;text-decoration-style:solid;text-decoration-color:#000000;letter-spacing:normal;word-spacing:normal;text-transform:none;writing-mode:lr-tb;direction:ltr;text-orientation:mixed;dominant-baseline:auto;baseline-shift:baseline;text-anchor:start;white-space:normal;shape-padding:0;clip-rule:nonzero;display:inline;overflow:visible;visibility:visible;opacity:0.2;isolation:auto;mix-blend-mode:normal;color-interpolation:sRGB;color-interpolation-filters:linearRGB;solid-color:#000000;solid-opacity:1;vector-effect:none;fill:#000000;fill-opacity:1;fill-rule:nonzero;stroke:none;stroke-width:10;stroke-linecap:round;stroke-linejoin:round;stroke-miterlimit:4;stroke-dasharray:none;stroke-dashoffset:0;stroke-opacity:1;color-rendering:auto;image-rendering:auto;shape-rendering:auto;text-rendering:auto;enable-background:accumulate" />
  <path
     style="color:#000000;font-style:normal;font-variant:normal;font-weight:normal;font-stretch:normal;font-size:medium;line-height:normal;font-family:sans-serif;font-variant-ligatures:normal;font-variant-position:normal;font-variant-caps:normal;font-variant-numeric:normal;font-variant-alternates:normal;font-feature-settings:normal;text-indent:0;text-align:start;text-decoration:none;text-decoration-line:none;text-decoration-style:solid;text-decoration-color:#000000;letter-spacing:normal;word-spacing:normal;text-transform:none;writing-mode:lr-tb;direction:ltr;text-orientation:mixed;dominant-baseline:auto;baseline-shift:baseline;text-anchor:start;white-space:normal;shape-padding:0;clip-rule:nonzero;display:inline;overflow:visible;visibility:visible;opacity:1;isolation:auto;mix-blend-mode:normal;color-interpolation:sRGB;color-interpolation-filters:linearRGB;solid-color:#000000;solid-opacity:1;vector-effect:none;fill:#3f3f3f;fill-opacity:1;fill-rule:nonzero;stroke:none;stroke-width:10;stroke-linecap:round;stroke-linejoin:round;stroke-miterlimit:4;stroke-dasharray:none;stroke-dashoffset:0;stroke-opacity:1;color-rendering:auto;image-rendering:auto;shape-rendering:auto;text-rendering:auto;enable-background:accumulate"
     d="M 24,4 C 13.56581,4 5,12.56581 5,23 v 9 c 0,2.971628 1.3397179,5.798263 3.1425781,7.390625 0.3224461,0.284798 0.6337492,0.379452 0.9570313,0.599609 A 5.0005,5.0005 0 0 0 14,44 h 5 a 5.0005,5.0005 0 0 0 5,-5 5.0005,5.0005 0 0 0 5,5 h 5 a 5.0005,5.0005 0 0 0 4.894531,-4.005859 c 0.325845,-0.221808 0.639854,-0.317986 0.964844,-0.605469 C 41.66023,37.795651 43,34.971741 43,32 V 23 C 43,12.56581 34.43419,4 24,4 Z m 0,14 c 1.72944,0 3.124411,0.843681 4.013672,2.097656 A 5.0005,5.0005 0 0 0 24,25 5.0005,5.0005 0 0 0 19.984375,20.101562 C 20.873382,18.845524 22.268932,18 24,18 Z"
     id="path4501"
     inkscape:connector-curvature="0" />
  <path
     style="opacity:0.2;fill:#000000;fill-opacity:1"
     inkscape:connector-curvature="0"
     id="path4508"
     d="m 24,10.0002 c -7.732,0 -14,6.268 -14,14 v 9 c 0,3.5696 2.5419,4.541 4,4.8066 v -13.807 c 0,-5.54 4.46,-10 10,-10 5.54,0 10,4.46 10,10 v 13.812 c 1.458,-0.268 4,-1.242 4,-4.812 v -9 c 0,-7.732 -6.268,-14 -14,-14 z" />
  <path
     d="m 24,9.0003 c -7.732,0 -14,6.268 -14,14 v 9 c 0,3.5696 2.5419,4.541 4,4.8066 v -13.807 c 0,-5.54 4.46,-10 10,-10 5.54,0 10,4.46 10,10 v 13.812 c 1.458,-0.268 4,-1.242 4,-4.812 v -9 c 0,-7.732 -6.268,-14 -14,-14 z"
     id="path2"
     inkscape:connector-curvature="0"
     style="fill:#ffffff;fill-opacity:1;opacity:1" />
  <path
     style="opacity:0.2;fill:#000000;fill-opacity:1"
     inkscape:connector-curvature="0"
     id="path4510"
     d="m 14,26 v 14 h 5 V 26 Z m 15,0 v 14 h 5 V 26 Z" />
  <path
     d="m 14,25.0001 v 14 h 5 v -14 z m 15,0 v 14 h 5 v -14 z"
     id="path4"
     inkscape:connector-curvature="0"
     style="fill:#00aaff;fill-opacity:1" />
  <path
     style="color:#000000;font-style:normal;font-variant:normal;font-weight:normal;font-stretch:normal;font-size:medium;line-height:normal;font-family:sans-serif;font-variant-ligatures:normal;font-variant-position:normal;font-variant-caps:normal;font-variant-numeric:normal;font-variant-alternates:normal;font-feature-settings:normal;text-indent:0;text-align:start;text-decoration:none;text-decoration-line:none;text-decoration-style:solid;text-decoration-color:#000000;letter-spacing:normal;word-spacing:normal;text-transform:none;writing-mode:lr-tb;direction:ltr;text-orientation:mixed;dominant-baseline:auto;baseline-shift:baseline;text-anchor:start;white-space:normal;shape-padding:0;clip-rule:nonzero;display:inline;overflow:visible;visibility:visible;opacity:0.1;isolation:auto;mix-blend-mode:normal;color-interpolation:sRGB;color-interpolation-filters:linearRGB;solid-color:#000000;solid-opacity:1;vector-effect:none;fill:#ffffff;fill-opacity:1;fill-rule:nonzero;stroke:none;stroke-width:10;stroke-linecap:round;stroke-linejoin:round;stroke-miterlimit:4;stroke-dasharray:none;stroke-dashoffset:0;stroke-opacity:1;color-rendering:auto;image-rendering:auto;shape-rendering:auto;text-rendering:auto;enable-background:accumulate"
     d="M 24 4 C 13.56581 4 5 12.56581 5 23 L 5 24 C 5 13.56581 13.56581 5 24 5 C 34.43419 5 43 13.56581 43 24 L 43 23 C 43 12.56581 34.43419 4 24 4 z M 27.3125 20.298828 A 5.0005 5.0005 0 0 0 24 25 A 5.0005 5.0005 0 0 0 20.6875 20.302734 C 20.428611 20.544661 20.190789 20.809929 19.984375 21.101562 A 5.0005 5.0005 0 0 1 24 26 A 5.0005 5.0005 0 0 1 28.013672 21.097656 C 27.807427 20.806824 27.571014 20.540114 27.3125 20.298828 z "
     id="path4512" />
</svg>
