<?xml version="1.0" encoding="UTF-8" standalone="no"?>
<svg
   xmlns:dc="http://purl.org/dc/elements/1.1/"
   xmlns:cc="http://creativecommons.org/ns#"
   xmlns:rdf="http://www.w3.org/1999/02/22-rdf-syntax-ns#"
   xmlns:svg="http://www.w3.org/2000/svg"
   xmlns="http://www.w3.org/2000/svg"
   xmlns:sodipodi="http://sodipodi.sourceforge.net/DTD/sodipodi-0.dtd"
   xmlns:inkscape="http://www.inkscape.org/namespaces/inkscape"
   width="48"
   version="1.1"
   height="48"
   viewBox="0 0 48 48"
   id="svg24"
   sodipodi:docname="one-browser.svg"
   inkscape:version="0.92.1 r15371">
  <metadata
     id="metadata30">
    <rdf:RDF>
      <cc:Work
         rdf:about="">
        <dc:format>image/svg+xml</dc:format>
        <dc:type
           rdf:resource="http://purl.org/dc/dcmitype/StillImage" />
        <dc:title></dc:title>
      </cc:Work>
    </rdf:RDF>
  </metadata>
  <defs
     id="defs28" />
  <sodipodi:namedview
     pagecolor="#ffffff"
     bordercolor="#666666"
     borderopacity="1"
     objecttolerance="10"
     gridtolerance="10"
     guidetolerance="10"
     inkscape:pageopacity="0"
     inkscape:pageshadow="2"
     inkscape:window-width="1600"
     inkscape:window-height="822"
     id="namedview26"
     showgrid="false"
     inkscape:zoom="3.23"
     inkscape:cx="28.149719"
     inkscape:cy="18.974874"
     inkscape:window-x="0"
     inkscape:window-y="0"
     inkscape:window-maximized="1"
     inkscape:current-layer="svg24" />
  <path
     style="opacity:0.2;fill:#000000;fill-opacity:1;stroke-width:0.73952574"
     d="m 4,25 c -0.0013,0.5688 0.2164997,1.132515 0.6523438,1.568359 L 22.431641,44.347656 C 22.865081,44.781095 23.434339,44.9989 24,45 c 0.565661,-0.0011 1.134919,-0.218905 1.568359,-0.652344 L 43.347656,26.568359 C 43.7835,26.132514 44.0013,25.5688 44,25 H 24 Z"
     id="path4589"
     inkscape:connector-curvature="0" />
  <path
     style="opacity:1;fill:#3cccff;fill-opacity:1;stroke-width:0.73952574"
     d="M 24 24 L 24 44 L 31 24 L 24 24 z "
     id="path4545" />
  <path
     style="opacity:1;fill:#f06116;fill-opacity:1;stroke-width:0.73952574"
     d="M 24 4 L 17 24 L 24 24 L 24 4 z "
     id="path4520" />
  <path
     sodipodi:nodetypes="ccsscc"
     inkscape:connector-curvature="0"
     id="path4547"
     d="M 31,24.000004 24,44 c 0.565661,-0.0011 1.135332,-0.218381 1.568772,-0.65182 L 43.348177,25.568775 c 0.435844,-0.435845 0.653118,-0.999971 0.651818,-1.568771 z"
     style="opacity:1;fill:#1576b9;fill-opacity:1;stroke-width:0.73952574" />
  <path
     id="path4612"
     d="m 24,17 v 8 h 20 z"
     style="opacity:0.2;fill:#000000;fill-opacity:0.97058824;stroke-width:0.73952574"
     inkscape:connector-curvature="0" />
  <path
     style="opacity:1;fill:#62a605;fill-opacity:0.94117647;stroke-width:0.73952574"
     d="M 24 16 L 24 24 L 44 24 L 24 16 z "
     id="path4528" />
  <path
     style="opacity:0.2;fill:#000000;fill-opacity:1;stroke-width:0.73952574"
     d="M 24,17 V 5.0000041 c 0.565661,0.00111 1.135332,0.2183807 1.568772,0.6518202 L 43.348177,23.43123 C 43.784021,23.867074 44.001295,24.4312 43.999995,25 Z"
     id="path4608"
     inkscape:connector-curvature="0"
     sodipodi:nodetypes="ccsscc" />
  <path
     sodipodi:nodetypes="ccsscc"
     inkscape:connector-curvature="0"
     id="path4536"
     d="M 24,16 V 4.0000041 c 0.565661,0.00111 1.135332,0.2183807 1.568772,0.6518202 L 43.348177,22.43123 C 43.784021,22.867074 44.001295,23.4312 43.999995,24 Z"
     style="opacity:1;fill:#f4d13e;fill-opacity:1;stroke-width:0.73952574" />
  <path
     style="opacity:1;fill:#64347e;fill-opacity:1;stroke-width:0.73952574"
     d="M 24,32.000004 24,44 c -0.565661,-0.0011 -1.135332,-0.218381 -1.568772,-0.65182 L 4.651823,25.568774 C 4.215979,25.13293 3.998705,24.568804 4.000005,24.000004 Z"
     id="path4553"
     inkscape:connector-curvature="0"
     sodipodi:nodetypes="ccsscc" />
  <path
     id="path4614"
     d="m 4,25 20,8 v -8 z"
     style="opacity:0.2;fill:#000000;fill-opacity:0.97058824;stroke-width:0.73952574"
     inkscape:connector-curvature="0" />
  <path
     style="opacity:1;fill:#ff8cca;fill-opacity:1;stroke-width:0.73952574"
     d="M 4 24 L 24 32 L 24 24 L 4 24 z "
     id="path4551" />
  <path
     sodipodi:nodetypes="ccsscc"
     inkscape:connector-curvature="0"
     id="path4610"
     d="M 17,25 24,5.0000041 c -0.565661,0.00111 -1.135332,0.2183807 -1.568772,0.6518202 L 4.6518229,23.431229 C 4.2159785,23.867074 3.9987051,24.4312 4.0000048,25 Z"
     style="opacity:0.2;fill:#000000;fill-opacity:1;stroke-width:0.73952574" />
  <path
     style="opacity:1;fill:#ff7472;fill-opacity:1;stroke-width:0.73952574"
     d="M 17,24 24,4.0000041 c -0.565661,0.00111 -1.135332,0.2183807 -1.568772,0.6518202 L 4.6518229,22.431229 C 4.2159785,22.867074 3.9987051,23.4312 4.0000048,24 Z"
     id="path4522"
     inkscape:connector-curvature="0"
     sodipodi:nodetypes="ccsscc" />
  <rect
     transform="rotate(45)"
     rx="2.0891349"
     ry="2.0891349"
     y="-5.5602975"
     x="28.380829"
     height="12.534808"
     width="12.534808"
     id="rect4594"
     style="opacity:0.2;vector-effect:none;fill:#000000;fill-opacity:1;stroke:none;stroke-width:2.64402914;stroke-linecap:round;stroke-linejoin:round;stroke-miterlimit:4;stroke-dasharray:none;stroke-dashoffset:0;stroke-opacity:1" />
  <rect
     style="opacity:1;vector-effect:none;fill:#ffffff;fill-opacity:0.94117647;stroke:none;stroke-width:2.64402914;stroke-linecap:round;stroke-linejoin:round;stroke-miterlimit:4;stroke-dasharray:none;stroke-dashoffset:0;stroke-opacity:1"
     id="rect4575"
     width="12.534808"
     height="12.534808"
     x="27.673721"
     y="-6.2674041"
     ry="2.0891349"
     rx="2.0891349"
     transform="rotate(45)" />
  <path
     style="opacity:0.2;fill:#ffffff;fill-opacity:1;stroke-width:0.73952574"
     d="M 24 4 C 23.434339 4.00111 22.865081 4.2189042 22.431641 4.6523438 L 4.6523438 22.431641 C 4.2164994 22.867486 3.9987003 23.4312 4 24 L 4.25 24 C 4.3538034 23.797077 4.4813653 23.602619 4.6523438 23.431641 L 22.431641 5.6523438 C 22.865081 5.2189042 23.434339 5.00111 24 5 C 24.565661 5.00111 25.134919 5.2189042 25.568359 5.6523438 L 43.347656 23.431641 C 43.518635 23.602619 43.646196 23.797077 43.75 24 L 44 24 C 44.0013 23.4312 43.7835 22.867485 43.347656 22.431641 L 25.568359 4.6523438 C 25.134919 4.2189042 24.565661 4.00111 24 4 z "
     id="path4577" />
</svg>
