<?xml version="1.0" encoding="UTF-8" standalone="no"?>
<svg
   xmlns:dc="http://purl.org/dc/elements/1.1/"
   xmlns:cc="http://creativecommons.org/ns#"
   xmlns:rdf="http://www.w3.org/1999/02/22-rdf-syntax-ns#"
   xmlns:svg="http://www.w3.org/2000/svg"
   xmlns="http://www.w3.org/2000/svg"
   xmlns:sodipodi="http://sodipodi.sourceforge.net/DTD/sodipodi-0.dtd"
   xmlns:inkscape="http://www.inkscape.org/namespaces/inkscape"
   height="48"
   width="48"
   version="1"
   id="svg12"
   sodipodi:docname="phoenix-browser.svg"
   inkscape:version="0.92.1 r15371">
  <metadata
     id="metadata18">
    <rdf:RDF>
      <cc:Work
         rdf:about="">
        <dc:format>image/svg+xml</dc:format>
        <dc:type
           rdf:resource="http://purl.org/dc/dcmitype/StillImage" />
        <dc:title></dc:title>
      </cc:Work>
    </rdf:RDF>
  </metadata>
  <defs
     id="defs16" />
  <sodipodi:namedview
     pagecolor="#ffffff"
     bordercolor="#666666"
     borderopacity="1"
     objecttolerance="10"
     gridtolerance="10"
     guidetolerance="10"
     inkscape:pageopacity="0"
     inkscape:pageshadow="2"
     inkscape:window-width="1600"
     inkscape:window-height="822"
     id="namedview14"
     showgrid="false"
     inkscape:zoom="11.26"
     inkscape:cx="33.632454"
     inkscape:cy="13.97787"
     inkscape:window-x="0"
     inkscape:window-y="0"
     inkscape:window-maximized="1"
     inkscape:current-layer="svg12">
    <inkscape:grid
       type="xygrid"
       id="grid4554" />
  </sodipodi:namedview>
  <path
     transform="matrix(0,-1,-1,0,0,0)"
     style="fill:#403471;fill-opacity:1"
     d="m -24,-44 c 6.345398,0 11.982374,2.925227 15.6412196,7.5061 2.7300383,3.418007 3.3111614,8.329199 3.3111614,13.063328 0,11.078892 -7.681905,18.2837133 -18.761905,18.2837133 -8.11582,0 -14.310854,-4.2138443 -17.45232,-11.1280653 -0.261164,-0.57481 -1.448339,-0.592905 -1.655237,-1.195617 -0.562274,-1.637956 -0.918517,-3.373312 -1.038091,-5.175432 -0.02973,-0.448039 0.261138,-1.614127 0.261138,-2.069949 0,-2.566199 0.784545,-3.894645 1.657692,-6.145088 0.707331,-1.823072 1.061668,-3.922929 2.242212,-5.439002 C -36.140493,-40.99207 -30.434472,-44 -24,-44 Z"
     id="rect2"
     inkscape:connector-curvature="0"
     sodipodi:nodetypes="sssssssssss" />
  <path
     opacity=".2"
     d="m4.0117 24.5c-0.0041 0.167-0.0117 0.332-0.0117 0.5 0 11.08 8.92 20 20 20s20-8.92 20-20c0-0.168-0.008-0.333-0.012-0.5-0.264 10.846-9.076 19.5-19.988 19.5s-19.724-8.654-19.988-19.5z"
     id="path10" />
  <path
     style="opacity:0.2;fill:#000000;fill-opacity:1;stroke-width:0.13732687"
     d="M 24.001953 5 C 13.090919 5 4.2802716 13.653863 4.015625 24.5 C 4.2663553 34.775854 12.189061 43.078772 22.300781 43.923828 C 24.195072 43.423317 26.093158 42.262133 27.832031 40.509766 C 30.157162 38.166576 31.209047 34.788419 31 30.849609 C 30.850038 28.024159 30.072792 25.853093 28.451172 24.220703 C 27.254534 22.855311 25.691025 22.390259 24 22.154297 C 23.9377 22.192797 24.489935 22.767111 24.712891 23.431641 C 25.063191 24.475651 25.118448 24.836081 25.111328 26.082031 C 25.101028 27.885061 24.773911 29.199541 23.869141 31.082031 C 22.683671 33.548541 21.172367 35.344266 19.066406 36.353516 C 16.430633 37.616676 14.059298 37.031266 12.035156 35.009766 C 10.998407 33.974366 10.366313 32.86269 9.9550781 31.34375 C 9.5671291 29.91084 9.5406996 26.533683 9.9003906 24.501953 C 10.35487 21.934793 11.468587 19.084622 12.681641 17.382812 C 12.942644 17.016652 13.119497 16.680046 13.074219 16.634766 C 13.028939 16.589466 12.791976 16.665605 12.548828 16.804688 C 11.558568 17.370915 10.642098 18.191382 9.7675781 19.294922 C 9.2597011 19.935812 8.8129676 20.430148 8.7753906 20.392578 C 8.6615176 20.278698 9.6567815 18.297603 10.353516 17.251953 C 11.165895 16.032733 13.342897 13.808199 14.441406 13.074219 C 16.240623 11.872059 18.746599 11.362635 21.240234 10.833984 C 22.952617 10.470964 26.156381 10.504768 27.556641 10.900391 C 28.123121 11.060441 28.740865 11.233307 28.929688 11.285156 L 29.273438 11.378906 L 28.947266 11.023438 C 26.897418 9.4709115 24.264088 9.08375 22.40625 9.0859375 C 20.54027 9.0899375 19.547025 9.2047725 17.667969 9.6328125 L 17.326172 9.7109375 C 18.462894 8.8540912 19.994914 8.5754925 21.220703 8.3515625 C 25.867506 7.5345725 31.31889 7.7121321 36.65625 9.9511719 C 37.327176 10.232623 37.673364 10.430471 38.039062 10.740234 C 37.588366 10.296535 37.116097 9.8742167 36.625 9.4746094 C 36.133903 9.075002 35.624037 8.6979702 35.095703 8.3457031 C 34.567369 7.9934361 34.021391 7.6649591 33.458984 7.3632812 C 32.896577 7.0616034 32.317926 6.7869024 31.724609 6.5390625 C 31.133184 6.2920124 30.527202 6.0731443 29.908203 5.8828125 C 29.906203 5.8822134 29.904344 5.8814594 29.902344 5.8808594 C 29.832724 5.8594754 29.759404 5.8468149 29.689453 5.8261719 C 28.512664 5.4788713 27.293132 5.2278453 26.035156 5.1015625 C 26.033856 5.101434 26.03255 5.1016907 26.03125 5.1015625 C 25.364259 5.0347221 24.687268 5 24.001953 5 z M 23.402344 13 C 22.605921 13.005 20.86037 13.506991 19.654297 14.089844 C 18.7525 14.525651 18.239421 14.894953 17.433594 15.689453 C 15.784208 17.315659 15.103795 19.029053 15.023438 21.751953 C 14.999187 22.573644 15 23 15 23 C 15 23 13.901277 22.358859 13.521484 21.404297 C 13.288755 20.819368 13 20 13 20 C 13 20 12.776249 21.005818 12.695312 22.298828 C 12.325266 25.852752 14.242911 27.249397 15 30 C 15 30 14.143692 29.299053 13.376953 28.363281 C 12.942915 27.833552 12.5 27 12.5 27 C 12.5 27 12.186862 27.651947 12.054688 28.572266 C 11.672693 31.232098 13.302704 33.901211 15.833984 34.763672 C 16.728038 35.068293 17.197721 35.0769 18.140625 34.800781 C 20.58582 34.084741 23.517578 30.785189 23.517578 28.75 C 23.517578 28.422073 23.345909 28.187492 22.654297 27.564453 C 20.239674 25.389242 19.488204 24.439216 18.957031 22.894531 C 18.36864 21.183456 18.760561 18.79085 19.947266 16.84375 C 20.549599 15.85547 21.967506 14.42238 23.103516 13.654297 L 24 13.048828 L 23.548828 13.005859 C 23.504628 13.001859 23.455422 13 23.402344 13 z M 34 13 C 33.9631 13.0369 34.723886 13.999701 35.103516 14.550781 C 36.437156 16.486701 37.070546 18.67196 37.072266 21.34375 C 37.074266 24.60627 36.394006 26.460596 34.191406 29.197266 C 32.548816 31.238146 32.267392 31.793413 31.951172 33.617188 C 31.596182 35.664566 31.465203 36.188632 30.976562 37.539062 C 29.971338 40.317115 27.686391 42.694498 24.949219 43.976562 C 28.246331 43.824034 31.320177 42.866824 34.005859 41.316406 C 33.271707 41.51793 33.271043 41.369344 34.285156 40.855469 C 35.423926 40.278407 36.484262 39.58793 37.337891 38.898438 C 37.824928 38.462409 38.288467 38.003004 38.730469 37.521484 C 40.006285 36.001177 41.917174 33.114795 41.8125 32.800781 C 41.7849 32.717981 41.315148 33.025745 40.767578 33.484375 C 39.844368 34.257605 39.117318 34.732422 38.861328 34.732422 C 38.802828 34.732422 39.195645 34.285871 39.734375 33.738281 C 40.957915 32.494621 41.704709 31.42298 42.230469 30.15625 C 43.348519 27.46245 43.348969 24.28853 42.230469 21.59375 C 41.905536 20.810922 41.100311 19.968208 41 20 C 41 21 41.654834 22.521303 41.361328 23.738281 C 41.143991 24.639436 40.200948 25.798208 39.861328 26.080078 C 39.861328 26.080078 40.058235 23.554304 40.060547 23.021484 C 39.786563 18.418221 38.390736 14.672527 34 13 z "
     id="path4556" />
  <path
     style="fill:#fc6625;fill-opacity:1;stroke-width:0.13732687;opacity:1"
     d="M 24.001953,4 C 12.923062,4 4.0039062,12.92 4.0039062,24 c 0,0.49896 0.024946,0.990973 0.060547,1.480469 0.00718,0.0989 0.012883,0.19839 0.021484,0.296875 0.041406,0.473148 0.098311,0.94339 0.171875,1.40625 0.011332,0.07142 0.025029,0.141725 0.037109,0.21289 0.056024,0.329454 0.1273684,0.652938 0.1992187,0.976563 0.088393,0.398827 0.1910498,0.792307 0.3027344,1.181641 0.055218,0.192095 0.1052566,0.386539 0.1660156,0.576171 0.149368,0.467105 0.3180529,0.923736 0.5,1.375 0.090811,0.224777 0.1884544,0.445443 0.2871094,0.666016 0.1746087,0.391183 0.3562101,0.778979 0.5546875,1.15625 0.1311885,0.248823 0.2747651,0.490014 0.4160156,0.732422 0.1493836,0.256906 0.3005953,0.512311 0.4609375,0.761719 0.1614701,0.250618 0.3277692,0.497537 0.5,0.740234 0.154761,0.21854 0.3172574,0.430698 0.4804688,0.642578 0.197861,0.256301 0.3936522,0.513623 0.6035156,0.759766 0.1303345,0.153194 0.271411,0.296177 0.40625,0.445312 0.4705121,0.519291 0.9658457,1.015235 1.4882807,1.482422 0.123574,0.110724 0.242807,0.226333 0.369141,0.333984 0.284996,0.242373 0.582328,0.470963 0.880859,0.697266 0.146252,0.111069 0.292017,0.222995 0.441406,0.330078 0.31637,0.226366 0.638891,0.444342 0.96875,0.652344 0.124161,0.07842 0.25095,0.152778 0.376954,0.228516 1.248108,0.749021 2.5809,1.372073 3.988281,1.83789 0.580404,0.09423 2.138154,0.307275 2.558594,0.234375 2.549512,-0.008 5.21689,-1.307865 7.58789,-3.697265 C 30.15716,37.166576 31.209047,33.788419 31,29.849609 30.850038,27.024159 30.072791,24.853093 28.451171,23.220703 27.254533,21.855311 25.691025,21.390259 24,21.154297 c -0.0623,0.0385 0.489934,0.612814 0.71289,1.277344 0.3503,1.04401 0.405557,1.40444 0.398437,2.65039 -0.0103,1.80303 -0.337417,3.11751 -1.242187,5 -1.18547,2.46651 -2.696774,4.262719 -4.802735,5.271969 -2.635773,1.26316 -5.007108,0.677266 -7.03125,-1.344234 -1.036749,-1.0354 -1.668843,-2.147076 -2.0800776,-3.666016 -0.387949,-1.43291 -0.4143775,-4.810067 -0.054687,-6.841797 0.4544796,-2.56716 1.5681966,-5.417331 2.7812506,-7.119141 0.261003,-0.36616 0.437856,-0.702766 0.392578,-0.748046 -0.04528,-0.0453 -0.282243,0.03084 -0.525391,0.169922 -0.99026,0.566228 -1.90673,1.386694 -2.7812501,2.490234 -0.507877,0.64089 -0.9546105,1.135226 -0.9921875,1.097656 -0.113873,-0.11388 0.8813919,-2.094975 1.5781256,-3.140625 0.812379,-1.21922 2.989381,-3.443754 4.08789,-4.177734 1.799217,-1.20216 4.305193,-1.712006 6.798828,-2.2406562 1.712383,-0.36302 4.916147,-0.3292134 6.316407,0.066406 0.56648,0.1600502 1.184225,0.3329162 1.373047,0.3847652 l 0.34375,0.09375 -0.326172,-0.355468 C 26.897419,8.4704935 24.264088,8.0833282 22.40625,8.0855157 c -1.86598,0.004 -2.859225,0.118835 -4.738281,0.546875 l -0.341797,0.078125 C 18.462894,7.8536694 19.994914,7.57593 21.220703,7.352 25.867506,6.53501 31.31889,6.7121321 36.65625,8.9511719 37.327176,9.2326231 37.673364,9.4304715 38.039062,9.7402344 37.588366,9.2965355 37.116097,8.8742167 36.625,8.4746094 36.133903,8.075002 35.624037,7.6979702 35.095703,7.3457031 34.567369,6.9934361 34.021391,6.6649591 33.458984,6.3632812 32.896577,6.0616034 32.317926,5.7869024 31.724609,5.5390625 31.133184,5.2920124 30.527202,5.0731443 29.908203,4.8828125 c -0.002,-5.991e-4 -0.0039,-0.00135 -0.0059,-0.00195 -0.06962,-0.021384 -0.14294,-0.034043 -0.212891,-0.054687 -1.176789,-0.3473006 -2.396321,-0.5983266 -3.654297,-0.7246094 -0.0013,-1.285e-4 -0.0026,1.282e-4 -0.0039,0 C 25.364189,4.0347293 24.687268,4 24.001953,4 Z"
     id="path4552"
     inkscape:connector-curvature="0"
     sodipodi:nodetypes="ssccccccccccccccccccccccccccccccccccsccccccccccccccccccsssscccccs" />
  <path
     style="fill:#f69c36;fill-opacity:1;stroke-width:0.13732687"
     d="m 34,12 c -0.0369,0.0369 0.723886,0.999705 1.103516,1.550785 1.33364,1.93592 1.96703,4.121179 1.96875,6.792969 0.002,3.26252 -0.67826,5.116846 -2.88086,7.853516 -1.64259,2.04088 -1.924014,2.596149 -2.240234,4.419922 -0.35499,2.047378 -0.485969,2.571444 -0.97461,3.921874 -1.2285,3.3951 -4.356173,6.221642 -7.902343,7.138672 -0.53118,0.160103 -1.776256,0.120102 -1.892578,0.121094 0.374817,0.05251 0.753403,0.09364 1.134765,0.125 0.02278,0.0019 0.04556,0.0041 0.06836,0.0059 C 22.91869,43.972083 23.456763,44 24.001953,44 c 5.127602,0 9.778359,-1.926845 13.310547,-5.078125 4.15e-4,-3.7e-4 -4.16e-4,-0.0016 0,-0.002 0.07738,-0.06904 0.154162,-0.138781 0.230469,-0.208984 0.0051,-0.0047 0.01047,-0.009 0.01563,-0.01367 -0.601327,0.493001 -1.217704,0.789009 -2.363282,1.220703 -1.82911,0.68927 -2.326726,0.65531 -0.910156,-0.0625 1.67466,-0.84862 3.217355,-1.944479 4.109375,-2.917969 1.24102,-1.35435 3.531539,-4.796019 3.417969,-5.136719 -0.0276,-0.0828 -0.497352,0.224964 -1.044922,0.683594 -0.92321,0.77323 -1.65026,1.248047 -1.90625,1.248047 -0.0585,0 0.334317,-0.446551 0.873047,-0.994141 1.22354,-1.24366 1.970334,-2.315301 2.496094,-3.582031 1.11805,-2.6938 1.1185,-5.86772 0,-8.5625 C 41.905546,19.810832 41.100311,18.968208 41,19 c 0,1 0.654843,2.521211 0.361337,3.738189 -0.217337,0.901155 -1.160323,2.059927 -1.499943,2.341797 0,0 0.196907,-2.525774 0.199219,-3.058594 C 39.786629,17.418129 38.390736,13.672527 34,12 Z"
     id="path4532"
     inkscape:connector-curvature="0"
     sodipodi:nodetypes="ccccscccccscccccccccsscccaccc" />
  <path
     style="fill:#f69c36;fill-opacity:1;stroke-width:0.13698414"
     d="m 23.40214,12.000387 c -0.796423,0.005 -2.541415,0.505639 -3.747488,1.088492 -0.901797,0.435807 -1.414536,0.805149 -2.220363,1.599649 -1.649386,1.626206 -2.331299,3.340946 -2.411657,6.063846 C 14.998382,21.574065 15,22 15,22 15,22 13.901707,21.359693 13.521914,20.405131 13.289185,19.820202 13,19 13,19 13,19 12.775973,20.005606 12.695036,21.298616 12.32499,24.85254 14.242911,26.249397 15,29 15,29 14.144239,28.298768 13.3775,27.362996 12.943462,26.833267 12.5,26 12.5,26 c 0,0 -0.312413,0.652028 -0.444588,1.572347 -0.381994,2.659832 1.24692,5.329183 3.7782,6.191644 0.894054,0.304621 1.363677,0.31198 2.306581,0.03586 2.445195,-0.71604 5.376985,-4.014849 5.376985,-6.050038 0,-0.327927 -0.170558,-0.562417 -0.86217,-1.185456 -2.414623,-2.175211 -3.166195,-3.124354 -3.697368,-4.669039 -0.588391,-1.711075 -0.196824,-4.104532 0.989881,-6.051632 0.602333,-0.98828 2.019805,-2.420588 3.155815,-3.188671 L 24,12.048737 23.548438,12.005947 c -0.0442,-0.004 -0.09322,-0.0059 -0.146298,-0.0059 z"
     id="path4530"
     inkscape:connector-curvature="0"
     sodipodi:nodetypes="cscsccccccccccssscccccc" />
  <path
     style="fill:#d0531d;stroke-width:0.13732687"
     d="m 40.799603,13.117402 c 0.65168,1.01721 1.23123,2.09933 1.68761,3.16201 -0.4554,-1.08454 -1.01333,-2.12351 -1.68761,-3.16201 z"
     id="path4528" />
  <path
     style="fill:#d0531d;stroke-width:0.13732687"
     d="m 43.422753,19.106412 c 0.51094,2.10608 0.75314,4.48613 0.59223,6.15155 -0.47423,4.90803 -2.16161,8.80169 -5.35039,12.34627 -0.0944,0.1049 -0.17862,0.19399 -0.26526,0.28699 1.73065,-1.7836 3.13854,-3.89067 4.12088,-6.24166 1.16015,-2.77658 1.78789,-6.52883 1.5122,-9.0397 -0.13857,-1.26201 -0.33825,-2.41747 -0.60966,-3.50345 z"
     id="path4526" />
  <path
     style="fill:#fc7125;fill-opacity:1;stroke-width:0.14035589"
     d="m 26.632207,19.00067 c -0.7183,-0.01557 -1.354119,0.238393 -2.02432,0.777251 L 24,20.266405 l 1.223972,0.08586 c 0.773332,0.05423 1.463394,0.191003 1.874826,0.371478 0.823561,0.361258 1.765595,0.368594 2.531615,0.01973 0.597782,-0.272289 1.48806,-1.02868 1.356511,-1.152457 -0.03846,-0.03619 -0.31929,-9.91e-4 -0.624282,0.07822 -0.66293,0.172237 -1.165673,0.09597 -2.323317,-0.35286 -0.515512,-0.199867 -0.97613,-0.306304 -1.407118,-0.315633 z"
     id="path4519"
     inkscape:connector-curvature="0" />
  <path
     style="fill:#ffffff;fill-opacity:1;stroke-width:0.13732687;opacity:0.1"
     d="M 24.001953 4 C 12.923062 4 4.0039062 12.92 4.0039062 24 C 4.0039062 24.12639 4.0165623 24.24943 4.0195312 24.375 C 4.3486037 13.587499 13.132892 5 24.001953 5 C 24.687268 5 25.364259 5.0347221 26.03125 5.1015625 C 26.03255 5.1016907 26.033856 5.101434 26.035156 5.1015625 C 27.293132 5.2278453 28.512664 5.4788713 29.689453 5.8261719 C 29.759404 5.8468149 29.832724 5.8594754 29.902344 5.8808594 C 29.904344 5.8814594 29.906203 5.8822134 29.908203 5.8828125 C 30.527202 6.0731443 31.133184 6.2920124 31.724609 6.5390625 C 32.317926 6.7869024 32.896577 7.0616034 33.458984 7.3632812 C 34.021391 7.6649591 34.567369 7.9934361 35.095703 8.3457031 C 35.120568 8.3622819 35.143185 8.3817492 35.167969 8.3984375 C 35.664282 8.571504 36.161166 8.7434826 36.65625 8.9511719 C 37.327176 9.2326231 37.673364 9.4304715 38.039062 9.7402344 C 37.588366 9.2965355 37.116097 8.8742167 36.625 8.4746094 C 36.133903 8.075002 35.624037 7.6979702 35.095703 7.3457031 C 34.567369 6.9934361 34.021391 6.6649591 33.458984 6.3632812 C 32.896577 6.0616034 32.317926 5.7869024 31.724609 5.5390625 C 31.133184 5.2920124 30.527202 5.0731443 29.908203 4.8828125 C 29.906203 4.8822134 29.904344 4.8814594 29.902344 4.8808594 C 29.832724 4.8594754 29.759404 4.8468159 29.689453 4.8261719 C 28.512664 4.4788713 27.293132 4.2278453 26.035156 4.1015625 C 26.033856 4.101434 26.03255 4.1016907 26.03125 4.1015625 C 25.364224 4.0347257 24.687268 4 24.001953 4 z M 22.875 8.1113281 C 22.314637 8.1777381 21.760772 8.2566088 21.220703 8.3515625 C 19.994914 8.5754925 18.462894 8.8540912 17.326172 9.7109375 L 17.667969 9.6328125 C 19.547025 9.2047725 20.54027 9.0899375 22.40625 9.0859375 C 23.528935 9.0846156 24.935043 9.2312608 26.324219 9.6855469 C 26.802934 9.7379631 27.231309 9.8084739 27.556641 9.9003906 C 28.123121 10.060441 28.740864 10.233307 28.929688 10.285156 L 29.273438 10.378906 L 28.947266 10.023438 C 27.055698 8.5907927 24.69242 8.169064 22.875 8.1113281 z M 23.402344 12 C 22.605921 12.005 20.86037 12.506991 19.654297 13.089844 C 18.7525 13.525651 18.239421 13.894953 17.433594 14.689453 C 15.784208 16.315659 15.103794 18.029053 15.023438 20.751953 C 14.999186 21.573644 15 22 15 22 C 15 22 13.901277 21.358859 13.521484 20.404297 C 13.288755 19.819368 13 19 13 19 C 13 19 12.776249 20.005818 12.695312 21.298828 C 12.640509 21.825163 12.647291 22.293221 12.681641 22.736328 C 12.689356 22.587487 12.67897 22.455782 12.695312 22.298828 C 12.776249 21.005818 13 20 13 20 C 13 20 13.288755 20.819368 13.521484 21.404297 C 13.901277 22.358859 15 23 15 23 C 15 23 14.999187 22.573644 15.023438 21.751953 C 15.103795 19.029053 15.784208 17.315659 17.433594 15.689453 C 18.239421 14.894953 18.7525 14.525651 19.654297 14.089844 C 20.507167 13.677681 21.618357 13.315002 22.484375 13.130859 C 22.693596 12.962547 22.905604 12.78811 23.103516 12.654297 L 24 12.048828 L 23.548828 12.005859 C 23.504628 12.001859 23.455422 12 23.402344 12 z M 34 12 C 33.964518 12.035482 34.657291 12.918131 35.048828 13.476562 C 38.494008 15.260004 39.717162 18.586864 40.021484 22.611328 C 40.033598 22.392725 40.060101 22.124245 40.060547 22.021484 C 39.786563 17.418221 38.390736 13.672527 34 12 z M 13.074219 15.634766 C 13.028939 15.589466 12.791976 15.665605 12.548828 15.804688 C 11.558568 16.370916 10.642098 17.191382 9.7675781 18.294922 C 9.7272363 18.345829 9.6995521 18.37301 9.6601562 18.421875 C 9.1481573 19.353495 8.6971963 20.314379 8.7753906 20.392578 C 8.8129676 20.430148 9.2597011 19.935812 9.7675781 19.294922 C 10.568177 18.284661 11.40739 17.522746 12.302734 16.964844 C 12.42784 16.761426 12.553666 16.562349 12.681641 16.382812 C 12.942644 16.016652 13.119497 15.680046 13.074219 15.634766 z M 26.632812 19 C 25.914513 18.98443 25.277623 19.238486 24.607422 19.777344 L 24 20.265625 L 25.224609 20.351562 C 25.233794 20.352207 25.240839 20.354801 25.25 20.355469 C 25.697476 20.113905 26.146288 19.989454 26.632812 20 C 27.063802 20.009329 27.52355 20.116533 28.039062 20.316406 C 28.766001 20.598245 29.228075 20.719344 29.640625 20.738281 C 30.238281 20.462488 31.117204 19.714941 30.986328 19.591797 C 30.947868 19.555607 30.668273 19.590711 30.363281 19.669922 C 29.700351 19.842159 29.196707 19.765236 28.039062 19.316406 C 27.52355 19.116539 27.063802 19.009329 26.632812 19 z M 41 19 C 41 19.319713 41.070866 19.700306 41.152344 20.099609 C 41.420438 20.3245 41.970679 20.967864 42.230469 21.59375 C 42.72603 22.787696 42.988546 24.076372 43.044922 25.375 C 43.115771 23.742929 42.853294 22.094312 42.230469 20.59375 C 41.905541 19.810877 41.100311 18.968208 41 19 z M 18.712891 20.628906 C 18.652528 21.443591 18.725763 22.221989 18.957031 22.894531 C 19.488204 24.439216 20.239674 25.389242 22.654297 27.564453 C 23.099235 27.965276 23.316545 28.200644 23.423828 28.408203 C 23.480899 28.179072 23.517578 27.957017 23.517578 27.75 C 23.517578 27.422073 23.345909 27.187492 22.654297 26.564453 C 20.239674 24.389242 19.488204 23.439216 18.957031 21.894531 C 18.822899 21.504467 18.747331 21.076454 18.712891 20.628906 z M 37.056641 20.871094 C 36.982966 23.804806 36.269065 25.615832 34.191406 28.197266 C 32.548816 30.238146 32.267392 30.793413 31.951172 32.617188 C 31.596182 34.664566 31.465203 35.188632 30.976562 36.539062 C 29.765983 39.884638 26.708663 42.668686 23.226562 43.626953 C 22.91906 43.743281 22.610732 43.840407 22.302734 43.921875 C 22.307345 43.922257 22.311795 43.923449 22.316406 43.923828 C 22.339186 43.925728 22.361966 43.927888 22.384766 43.929688 C 22.91869 43.972037 23.456763 44 24.001953 44 C 24.338908 44 24.667346 43.969567 25 43.953125 C 27.714622 42.665325 29.977536 40.299986 30.976562 37.539062 C 31.465203 36.188632 31.596182 35.664566 31.951172 33.617188 C 32.267392 31.793413 32.548816 31.238146 34.191406 29.197266 C 36.394006 26.460596 37.074266 24.60627 37.072266 21.34375 C 37.072162 21.182745 37.061347 21.028617 37.056641 20.871094 z M 24 21.154297 C 23.989586 21.160732 24.017589 21.202031 24.037109 21.236328 L 24.113281 21.175781 C 24.074777 21.170142 24.038641 21.159689 24 21.154297 z M 24.050781 21.269531 C 24.169213 21.450244 24.455367 21.832138 24.640625 22.273438 C 26.081118 22.540204 27.409064 23.031634 28.451172 24.220703 C 30.072792 25.853093 30.850038 28.024159 31 30.849609 C 31.010952 31.055971 31.003784 31.253816 31.007812 31.457031 C 31.027613 30.931744 31.0291 30.397904 31 29.849609 C 30.850038 27.024159 30.072792 24.853093 28.451172 23.220703 C 27.486827 22.120364 26.278485 21.616203 24.962891 21.333984 L 24.050781 21.269531 z M 41.392578 22.525391 C 41.381734 22.5963 41.377993 22.669183 41.361328 22.738281 C 41.154978 23.593879 40.308793 24.658766 39.931641 25.007812 C 39.900107 25.433983 39.861328 26.080078 39.861328 26.080078 C 40.200948 25.798208 41.143991 24.639436 41.361328 23.738281 C 41.453589 23.355735 41.437934 22.942433 41.392578 22.525391 z M 25.099609 25.277344 C 25.066035 26.976985 24.739315 28.271521 23.869141 30.082031 C 22.683671 32.548541 21.172367 34.344266 19.066406 35.353516 C 16.430633 36.616676 14.059298 36.031266 12.035156 34.009766 C 10.998407 32.974366 10.366313 31.86269 9.9550781 30.34375 C 9.7816307 29.703113 9.6907846 28.653207 9.6640625 27.529297 C 9.6408694 29.027573 9.7299266 30.512141 9.9550781 31.34375 C 10.366313 32.86269 10.998407 33.974366 12.035156 35.009766 C 14.059298 37.031266 16.430633 37.616676 19.066406 36.353516 C 21.172367 35.344266 22.683671 33.548541 23.869141 31.082031 C 24.773911 29.199541 25.101028 27.885061 25.111328 26.082031 C 25.113143 25.764493 25.109749 25.505824 25.099609 25.277344 z M 12.5 26 C 12.5 26 12.186862 26.651947 12.054688 27.572266 C 11.992964 28.002046 12.002363 28.428958 12.041016 28.851562 C 12.049516 28.758221 12.041274 28.665663 12.054688 28.572266 C 12.186862 27.651947 12.5 27 12.5 27 C 12.5 27 12.942915 27.833552 13.376953 28.363281 C 14.143692 29.299053 15 30 15 30 C 14.847138 29.444633 14.640978 28.952391 14.421875 28.478516 C 14.11899 28.190157 13.740221 27.806634 13.376953 27.363281 C 12.942915 26.833552 12.5 26 12.5 26 z M 41.8125 31.800781 C 41.788061 31.727465 41.396479 31.986659 40.931641 32.359375 C 40.587475 32.807839 40.205116 33.259799 39.734375 33.738281 C 39.195645 34.285871 38.802828 34.732422 38.861328 34.732422 C 39.117318 34.732422 39.844368 34.257605 40.767578 33.484375 C 40.880773 33.389566 40.961128 33.339563 41.064453 33.259766 C 41.511239 32.539869 41.854829 31.927764 41.8125 31.800781 z M 37.333984 38.900391 C 36.480873 39.58901 35.422476 40.279141 34.285156 40.855469 C 33.301982 41.353666 33.290857 41.499973 33.957031 41.326172 C 35.156025 40.634661 36.286526 39.837209 37.3125 38.921875 L 37.3125 38.919922 C 37.319722 38.913479 37.326773 38.906846 37.333984 38.900391 z "
     id="path4566" />
</svg>
