<?xml version="1.0" encoding="UTF-8" standalone="no"?>
<svg
   xmlns:dc="http://purl.org/dc/elements/1.1/"
   xmlns:cc="http://creativecommons.org/ns#"
   xmlns:rdf="http://www.w3.org/1999/02/22-rdf-syntax-ns#"
   xmlns:svg="http://www.w3.org/2000/svg"
   xmlns="http://www.w3.org/2000/svg"
   xmlns:sodipodi="http://sodipodi.sourceforge.net/DTD/sodipodi-0.dtd"
   xmlns:inkscape="http://www.inkscape.org/namespaces/inkscape"
   height="48"
   width="48"
   version="1"
   id="svg22"
   sodipodi:docname="pi-musicplayer.svg"
   inkscape:version="0.92.1 r15371">
  <metadata
     id="metadata28">
    <rdf:RDF>
      <cc:Work
         rdf:about="">
        <dc:format>image/svg+xml</dc:format>
        <dc:type
           rdf:resource="http://purl.org/dc/dcmitype/StillImage" />
        <dc:title></dc:title>
      </cc:Work>
    </rdf:RDF>
  </metadata>
  <defs
     id="defs26" />
  <sodipodi:namedview
     pagecolor="#ffffff"
     bordercolor="#666666"
     borderopacity="1"
     objecttolerance="10"
     gridtolerance="10"
     guidetolerance="10"
     inkscape:pageopacity="0"
     inkscape:pageshadow="2"
     inkscape:window-width="1600"
     inkscape:window-height="831"
     id="namedview24"
     showgrid="false"
     inkscape:zoom="1"
     inkscape:cx="24"
     inkscape:cy="24"
     inkscape:window-x="0"
     inkscape:window-y="0"
     inkscape:window-maximized="1"
     inkscape:current-layer="svg22" />
  <circle
     cy="24"
     cx="24"
     r="20"
     fill="#ff5722"
     id="circle2"
     style="fill:#c2434e;fill-opacity:1" />
  <rect
     ry="15"
     style="enable-background:new;fill:#32424a;fill-opacity:1"
     rx="15"
     transform="matrix(0,-1,-1,0,0,0)"
     height="30"
     width="30"
     y="-39"
     x="-39"
     fill="#fe9700"
     id="rect6" />
  <g
     id="g4507"
     transform="translate(-469,-164.9975)"
     style="opacity:0.2;fill:#000000;fill-opacity:1;enable-background:new">
    <path
       sodipodi:nodetypes="ccsssscccsssscc"
       inkscape:connector-curvature="0"
       id="path4505"
       d="m 489,183 v 8.1875 c -0.32,-0.12 -0.64,-0.19 -1,-0.19 -1.6568,0 -3,1.3432 -3,3 0,1.6568 1.3432,3 3,3 1.6568,0 3,-1.3432 3,-3 v -7.7995 l 6,-1.2005 v 4.1875 c -0.32,-0.12 -0.64,-0.19 -1,-0.19 -1.6568,0 -3,1.3432 -3,3 0,1.6568 1.3432,3 3,3 1.6568,0 3,-1.3432 3,-3 v -11 z"
       style="fill:#000000;fill-opacity:1" />
  </g>
  <g
     style="enable-background:new"
     fill="#fff"
     transform="translate(-469 -166)"
     id="g16">
    <path
       d="m 489,183 v 8.1875 c -0.32,-0.12 -0.64,-0.19 -1,-0.19 -1.6568,0 -3,1.3432 -3,3 0,1.6568 1.3432,3 3,3 1.6568,0 3,-1.3432 3,-3 v -7.7995 l 6,-1.2005 v 4.1875 c -0.32,-0.12 -0.64,-0.19 -1,-0.19 -1.6568,0 -3,1.3432 -3,3 0,1.6568 1.3432,3 3,3 1.6568,0 3,-1.3432 3,-3 v -11 z"
       id="path14"
       inkscape:connector-curvature="0"
       sodipodi:nodetypes="ccsssscccsssscc" />
  </g>
  <path
     opacity=".2"
     fill="#fff"
     d="m24 4a20 20 0 0 0 -20 20 20 20 0 0 0 0.0215 0.582 20 20 0 0 1 19.978 -19.582 20 20 0 0 1 19.979 19.418 20 20 0 0 0 0.021 -0.418 20 20 0 0 0 -20 -20z"
     id="path18"
     style="opacity:0.1" />
  <path
     opacity=".2"
     d="m43.979 24.418a20 20 0 0 1 -19.979 19.582 20 20 0 0 1 -19.978 -19.418 20 20 0 0 0 -0.022 0.418 20 20 0 0 0 20 20 20 20 0 0 0 20 -20 20 20 0 0 0 -0.021 -0.582z"
     id="path20" />
</svg>
