<?xml version="1.0" encoding="UTF-8" standalone="no"?>
<svg
   xmlns:dc="http://purl.org/dc/elements/1.1/"
   xmlns:cc="http://creativecommons.org/ns#"
   xmlns:rdf="http://www.w3.org/1999/02/22-rdf-syntax-ns#"
   xmlns:svg="http://www.w3.org/2000/svg"
   xmlns="http://www.w3.org/2000/svg"
   xmlns:sodipodi="http://sodipodi.sourceforge.net/DTD/sodipodi-0.dtd"
   xmlns:inkscape="http://www.inkscape.org/namespaces/inkscape"
   height="48"
   width="48"
   version="1"
   id="svg12"
   sodipodi:docname="pocketcasts.svg"
   inkscape:version="0.92.1 r15371">
  <metadata
     id="metadata18">
    <rdf:RDF>
      <cc:Work
         rdf:about="">
        <dc:format>image/svg+xml</dc:format>
        <dc:type
           rdf:resource="http://purl.org/dc/dcmitype/StillImage" />
        <dc:title></dc:title>
      </cc:Work>
    </rdf:RDF>
  </metadata>
  <defs
     id="defs16" />
  <sodipodi:namedview
     pagecolor="#ffffff"
     bordercolor="#666666"
     borderopacity="1"
     objecttolerance="10"
     gridtolerance="10"
     guidetolerance="10"
     inkscape:pageopacity="0"
     inkscape:pageshadow="2"
     inkscape:window-width="1600"
     inkscape:window-height="831"
     id="namedview14"
     showgrid="false"
     inkscape:zoom="4.9166667"
     inkscape:cx="24"
     inkscape:cy="24"
     inkscape:window-x="0"
     inkscape:window-y="0"
     inkscape:window-maximized="1"
     inkscape:current-layer="svg12" />
  <rect
     transform="matrix(0,-1,-1,0,0,0)"
     rx="20"
     ry="19.998"
     height="39.996"
     width="40"
     y="-44"
     x="-44"
     fill="#eba229"
     id="rect2"
     style="fill:#f44f43;fill-opacity:1" />
  <path
     opacity=".2"
     d="m24 4c-11.079 0-19.998 8.92-19.998 20 0 0.16772-0.004 0.33329 0 0.5 0.2642-10.846 9.087-19.5 19.998-19.5s19.734 8.6536 19.998 19.5c0.004-0.16671 0-0.33228 0-0.5 0-11.08-8.919-20-19.998-20z"
     fill="#fff"
     id="path8" />
  <path
     opacity=".2"
     d="m4.0117 24.5c-0.0041 0.167-0.0117 0.332-0.0117 0.5 0 11.08 8.92 20 20 20s20-8.92 20-20c0-0.168-0.008-0.333-0.012-0.5-0.264 10.846-9.076 19.5-19.988 19.5s-19.724-8.654-19.988-19.5z"
     id="path10" />
  <path
     inkscape:connector-curvature="0"
     id="path4503"
     d="M 24,12 A 13,13 0 0 0 11,25 13,13 0 0 0 24,38 V 35 A 10,10 0 0 1 14,25 10,10 0 0 1 24,15 10,10 0 0 1 34,25 h 3 A 13,13 0 0 0 24,12 Z m 0,5 a 8,8 0 0 0 -8,8 8,8 0 0 0 8,8 v -2 a 6,6 0 0 1 -6,-6 6,6 0 0 1 6,-6 6,6 0 0 1 6,6 h 2 a 8,8 0 0 0 -8,-8 z"
     style="opacity:0.2;fill:#000000;fill-opacity:1;stroke:none;stroke-width:2;stroke-linecap:round;stroke-linejoin:round;stroke-miterlimit:4;stroke-dasharray:none;stroke-opacity:1" />
  <path
     style="opacity:1;fill:#ffffff;fill-opacity:1;stroke:none;stroke-width:2;stroke-linecap:round;stroke-linejoin:round;stroke-miterlimit:4;stroke-dasharray:none;stroke-opacity:1"
     d="M 24,11 A 13,13 0 0 0 11,24 13,13 0 0 0 24,37 V 34 A 10,10 0 0 1 14,24 10,10 0 0 1 24,14 10,10 0 0 1 34,24 h 3 A 13,13 0 0 0 24,11 Z m 0,5 a 8,8 0 0 0 -8,8 8,8 0 0 0 8,8 v -2 a 6,6 0 0 1 -6,-6 6,6 0 0 1 6,-6 6,6 0 0 1 6,6 h 2 a 8,8 0 0 0 -8,-8 z"
     id="path4658"
     inkscape:connector-curvature="0" />
</svg>
