<?xml version="1.0" encoding="UTF-8" standalone="no"?>
<svg
   xmlns:dc="http://purl.org/dc/elements/1.1/"
   xmlns:cc="http://creativecommons.org/ns#"
   xmlns:rdf="http://www.w3.org/1999/02/22-rdf-syntax-ns#"
   xmlns:svg="http://www.w3.org/2000/svg"
   xmlns="http://www.w3.org/2000/svg"
   xmlns:sodipodi="http://sodipodi.sourceforge.net/DTD/sodipodi-0.dtd"
   xmlns:inkscape="http://www.inkscape.org/namespaces/inkscape"
   height="48"
   width="48"
   version="1"
   id="svg20"
   sodipodi:docname="podcast-go.svg"
   inkscape:version="0.92.1 r15371">
  <metadata
     id="metadata26">
    <rdf:RDF>
      <cc:Work
         rdf:about="">
        <dc:format>image/svg+xml</dc:format>
        <dc:type
           rdf:resource="http://purl.org/dc/dcmitype/StillImage" />
        <dc:title></dc:title>
      </cc:Work>
    </rdf:RDF>
  </metadata>
  <defs
     id="defs24" />
  <sodipodi:namedview
     pagecolor="#ffffff"
     bordercolor="#666666"
     borderopacity="1"
     objecttolerance="10"
     gridtolerance="10"
     guidetolerance="10"
     inkscape:pageopacity="0"
     inkscape:pageshadow="2"
     inkscape:window-width="1600"
     inkscape:window-height="831"
     id="namedview22"
     showgrid="false"
     inkscape:zoom="1"
     inkscape:cx="24.072169"
     inkscape:cy="19.918367"
     inkscape:window-x="0"
     inkscape:window-y="0"
     inkscape:window-maximized="1"
     inkscape:current-layer="svg20"
     showguides="false" />
  <rect
     ry="20"
     rx="20"
     transform="matrix(0,-1,-1,0,0,0)"
     height="40"
     width="40"
     y="-44"
     x="-44"
     fill="#1da6e8"
     id="rect2"
     style="fill:#df423d;fill-opacity:1" />
  <path
     id="path4666"
     d="m 24,12 a 13,13 0 0 0 -11.15625,6.353516 l 2.570312,1.541015 A 10,10 0 0 1 24,15 10,10 0 0 1 34,25 10,10 0 0 1 24,35 10,10 0 0 1 15.416016,30.105469 l -2.570313,1.541015 A 13,13 0 0 0 24,38 13,13 0 0 0 37,25 13,13 0 0 0 24,12 Z m 0,6 a 7,7 0 0 0 -6.015625,3.4375 l 2.570313,1.541016 A 4,4 0 0 1 24,21 a 4,4 0 0 1 4,4 4,4 0 0 1 -4,4 4,4 0 0 1 -3.445312,-1.978516 L 17.984375,28.5625 A 7,7 0 0 0 24,32 7,7 0 0 0 31,25 7,7 0 0 0 24,18 Z"
     style="opacity:0.2;fill:#000000;fill-opacity:1;stroke:none;stroke-width:16.30178833;stroke-linecap:round;stroke-linejoin:round;stroke-miterlimit:4;stroke-dasharray:none;stroke-dashoffset:0;stroke-opacity:1"
     inkscape:connector-curvature="0" />
  <path
     style="opacity:1;fill:#ffffff;fill-opacity:1;stroke:none;stroke-width:16.30178833;stroke-linecap:round;stroke-linejoin:round;stroke-miterlimit:4;stroke-dasharray:none;stroke-dashoffset:0;stroke-opacity:1"
     d="M 24 11 A 13 13 0 0 0 12.84375 17.353516 L 15.414062 18.894531 A 10 10 0 0 1 24 14 A 10 10 0 0 1 34 24 A 10 10 0 0 1 24 34 A 10 10 0 0 1 15.416016 29.105469 L 12.845703 30.646484 A 13 13 0 0 0 24 37 A 13 13 0 0 0 37 24 A 13 13 0 0 0 24 11 z M 24 17 A 7 7 0 0 0 17.984375 20.4375 L 20.554688 21.978516 A 4 4 0 0 1 24 20 A 4 4 0 0 1 28 24 A 4 4 0 0 1 24 28 A 4 4 0 0 1 20.554688 26.021484 L 17.984375 27.5625 A 7 7 0 0 0 24 31 A 7 7 0 0 0 31 24 A 7 7 0 0 0 24 17 z "
     id="circle4630" />
  <path
     opacity=".2"
     fill="#fff"
     d="m24 4c-11.08 0-20 8.92-20 20 0 0.168 0.008 0.333 0.0117 0.5 0.2647-10.846 9.0763-19.5 19.988-19.5s19.724 8.6539 19.988 19.5c0.004-0.16686 0.0117-0.33213 0.0117-0.5 0-11.08-8.92-20-20-20z"
     id="path4"
     style="opacity:0.1" />
  <path
     opacity=".2"
     d="m4.0117 24.5c-0.0041 0.167-0.0117 0.332-0.0117 0.5 0 11.08 8.92 20 20 20s20-8.92 20-20c0-0.16787-0.0076-0.33314-0.01172-0.5-0.264 10.846-9.076 19.5-19.988 19.5s-19.724-8.654-19.988-19.5z"
     id="path18" />
  <circle
     r="2"
     cy="25"
     cx="24"
     id="circle4668"
     style="opacity:0.2;fill:#000000;fill-opacity:1;stroke:none;stroke-width:4.65765381;stroke-linecap:round;stroke-linejoin:round;stroke-miterlimit:4;stroke-dasharray:none;stroke-dashoffset:0;stroke-opacity:1" />
  <circle
     style="opacity:1;fill:#ffb0b0;fill-opacity:1;stroke:none;stroke-width:4.65765381;stroke-linecap:round;stroke-linejoin:round;stroke-miterlimit:4;stroke-dasharray:none;stroke-dashoffset:0;stroke-opacity:1"
     id="path4537"
     cx="24"
     cy="24"
     r="2" />
  <path
     id="path4670"
     d="m 20,25 -5,3 -5,3 v -6 -6 l 5,3.000001 z"
     inkscape:transform-center-x="-1.6666666"
     style="opacity:0.2;fill:#000000;fill-opacity:1;stroke:none;stroke-width:5.58254671;stroke-linecap:round;stroke-linejoin:round;stroke-miterlimit:4;stroke-dasharray:none;stroke-dashoffset:0;stroke-opacity:1"
     inkscape:connector-curvature="0" />
  <path
     transform="matrix(0.91269398,0,0,0.94849941,1.8300586,0.96546402)"
     style="opacity:1;fill:#ffb0b0;fill-opacity:1;stroke:none;stroke-width:6;stroke-linecap:round;stroke-linejoin:round;stroke-miterlimit:4;stroke-dasharray:none;stroke-dashoffset:0;stroke-opacity:1"
     inkscape:transform-center-x="-1.6666666"
     d="m 19.908032,24.28524 -5.478287,3.162891 -5.4782875,3.162891 0,-6.325782 0,-6.325781 5.4782875,3.162891 z"
     id="path4657" />
</svg>
