<?xml version="1.0" encoding="UTF-8" standalone="no"?>
<svg
   xmlns:dc="http://purl.org/dc/elements/1.1/"
   xmlns:cc="http://creativecommons.org/ns#"
   xmlns:rdf="http://www.w3.org/1999/02/22-rdf-syntax-ns#"
   xmlns:svg="http://www.w3.org/2000/svg"
   xmlns="http://www.w3.org/2000/svg"
   xmlns:sodipodi="http://sodipodi.sourceforge.net/DTD/sodipodi-0.dtd"
   xmlns:inkscape="http://www.inkscape.org/namespaces/inkscape"
   height="48"
   width="48"
   version="1"
   id="svg20"
   sodipodi:docname="podcast-republic.svg"
   inkscape:version="0.92.1 r15371">
  <metadata
     id="metadata26">
    <rdf:RDF>
      <cc:Work
         rdf:about="">
        <dc:format>image/svg+xml</dc:format>
        <dc:type
           rdf:resource="http://purl.org/dc/dcmitype/StillImage" />
        <dc:title></dc:title>
      </cc:Work>
    </rdf:RDF>
  </metadata>
  <defs
     id="defs24" />
  <sodipodi:namedview
     pagecolor="#ffffff"
     bordercolor="#666666"
     borderopacity="1"
     objecttolerance="10"
     gridtolerance="10"
     guidetolerance="10"
     inkscape:pageopacity="0"
     inkscape:pageshadow="2"
     inkscape:window-width="1600"
     inkscape:window-height="831"
     id="namedview22"
     showgrid="false"
     inkscape:zoom="8.58"
     inkscape:cx="37.411967"
     inkscape:cy="24"
     inkscape:window-x="0"
     inkscape:window-y="0"
     inkscape:window-maximized="1"
     inkscape:current-layer="svg20" />
  <rect
     ry="20"
     rx="20"
     transform="matrix(0,-1,-1,0,0,0)"
     height="40"
     width="40"
     y="-44"
     x="-44"
     fill="#1da6e8"
     id="rect2"
     style="fill:#5183de;fill-opacity:1" />
  <path
     opacity=".2"
     fill="#fff"
     d="m24 4c-11.08 0-20 8.92-20 20 0 0.168 0.008 0.333 0.0117 0.5 0.2647-10.846 9.0763-19.5 19.988-19.5s19.724 8.6539 19.988 19.5c0.004-0.16686 0.0117-0.33213 0.0117-0.5 0-11.08-8.92-20-20-20z"
     id="path4"
     style="opacity:0.1" />
  <path
     opacity=".2"
     d="m4.0117 24.5c-0.0041 0.167-0.0117 0.332-0.0117 0.5 0 11.08 8.92 20 20 20s20-8.92 20-20c0-0.16787-0.0076-0.33314-0.01172-0.5-0.264 10.846-9.076 19.5-19.988 19.5s-19.724-8.654-19.988-19.5z"
     id="path18" />
  <path
     id="path4533"
     d="M 24,10 A 15,15 0 0 0 9,25 15,15 0 0 0 24,40 15,15 0 0 0 32.09375,37.609375 L 29.912109,35.427734 A 12,12 0 0 1 24,37 12,12 0 0 1 12,25 12,12 0 0 1 24,13 a 12,12 0 0 1 6.160156,1.71875 l 2.173828,-2.175781 A 15,15 0 0 0 24,10 Z m 10.658203,4.462891 -2.115234,2.115234 A 12,12 0 0 1 36,25 12,12 0 0 1 32.347656,33.619141 l 2.111328,2.111328 A 15,15 0 0 0 39,25 15,15 0 0 0 34.658203,14.462891 Z M 20.388672,19 A 1.3561823,1.3249277 0 0 0 19,20.324219 V 25 29.675781 a 1.3561823,1.3249277 0 0 0 2.033203,1.146485 l 4.146485,-2.335938 4.144531,-2.339844 a 1.3561823,1.3249277 0 0 0 0,-2.291015 L 25.179688,21.515625 21.033203,19.179688 A 1.3561823,1.3249277 0 0 0 20.388672,19 Z"
     style="opacity:0.2;fill:#000000;fill-opacity:1;stroke:none;stroke-width:3.19437742;stroke-linecap:round;stroke-linejoin:round;stroke-miterlimit:4;stroke-dasharray:none;stroke-dashoffset:0;stroke-opacity:1"
     inkscape:connector-curvature="0" />
  <path
     style="opacity:1;fill:#ffffff;fill-opacity:1;stroke:none;stroke-width:3.19437742;stroke-linecap:round;stroke-linejoin:round;stroke-miterlimit:4;stroke-dasharray:none;stroke-dashoffset:0;stroke-opacity:1"
     d="M 24 9 A 15 15 0 0 0 9 24 A 15 15 0 0 0 24 39 A 15 15 0 0 0 32.09375 36.609375 L 29.912109 34.427734 A 12 12 0 0 1 24 36 A 12 12 0 0 1 12 24 A 12 12 0 0 1 24 12 A 12 12 0 0 1 30.160156 13.71875 L 32.333984 11.542969 A 15 15 0 0 0 24 9 z M 34.658203 13.462891 L 32.542969 15.578125 A 12 12 0 0 1 36 24 A 12 12 0 0 1 32.347656 32.619141 L 34.458984 34.730469 A 15 15 0 0 0 39 24 A 15 15 0 0 0 34.658203 13.462891 z M 20.388672 18 A 1.3561823 1.3249277 0 0 0 19 19.324219 L 19 24 L 19 28.675781 A 1.3561823 1.3249277 0 0 0 21.033203 29.822266 L 25.179688 27.486328 L 29.324219 25.146484 A 1.3561823 1.3249277 0 0 0 29.324219 22.855469 L 25.179688 20.515625 L 21.033203 18.179688 A 1.3561823 1.3249277 0 0 0 20.388672 18 z "
     id="path4514" />
</svg>
