<?xml version="1.0" encoding="UTF-8" standalone="no"?>
<svg
   xmlns:dc="http://purl.org/dc/elements/1.1/"
   xmlns:cc="http://creativecommons.org/ns#"
   xmlns:rdf="http://www.w3.org/1999/02/22-rdf-syntax-ns#"
   xmlns:svg="http://www.w3.org/2000/svg"
   xmlns="http://www.w3.org/2000/svg"
   xmlns:sodipodi="http://sodipodi.sourceforge.net/DTD/sodipodi-0.dtd"
   xmlns:inkscape="http://www.inkscape.org/namespaces/inkscape"
   height="48"
   width="48"
   version="1"
   id="svg18"
   sodipodi:docname="prosto-radio.svg"
   inkscape:version="0.91 r13725">
  <metadata
     id="metadata24">
    <rdf:RDF>
      <cc:Work
         rdf:about="">
        <dc:format>image/svg+xml</dc:format>
        <dc:type
           rdf:resource="http://purl.org/dc/dcmitype/StillImage" />
        <dc:title />
      </cc:Work>
    </rdf:RDF>
  </metadata>
  <defs
     id="defs22" />
  <sodipodi:namedview
     pagecolor="#ffffff"
     bordercolor="#666666"
     borderopacity="1"
     objecttolerance="10"
     gridtolerance="10"
     guidetolerance="10"
     inkscape:pageopacity="0"
     inkscape:pageshadow="2"
     inkscape:window-width="1920"
     inkscape:window-height="1018"
     id="namedview20"
     showgrid="false"
     inkscape:zoom="7.54"
     inkscape:cx="-39.411141"
     inkscape:cy="24"
     inkscape:window-x="0"
     inkscape:window-y="32"
     inkscape:window-maximized="1"
     inkscape:current-layer="svg18" />
  <rect
     ry="2"
     rx="2"
     transform="scale(-1,1)"
     height="32"
     width="40"
     y="8"
     x="-44"
     style="fill:#8e8e8e;fill-opacity:1"
     id="rect2" />
  <circle
     style="opacity:0.2;fill:#000000;fill-opacity:1"
     r="6"
     cx="33"
     cy="30"
     id="circle4" />
  <circle
     cy="29"
     cx="33"
     r="6"
     style="fill:#dddddd;fill-opacity:1"
     id="circle6" />
  <path
     opacity=".2"
     d="m6 8c-1.108 0-2 0.892-2 2v1c0-1.108 0.892-2 2-2h36c1.108 0 2 0.892 2 2v-1c0-1.108-0.892-2-2-2h-36z"
     fill="#fff"
     id="path8"
     style="opacity:0.1" />
  <path
     opacity=".2"
     d="m4 38v1c0 1.108 0.892 2 2 2h36c1.108 0 2-0.892 2-2v-1c0 1.108-0.892 2-2 2h-36c-1.108 0-2-0.892-2-2z"
     id="path10" />
  <rect
     style="opacity:1;fill:#ffc238;fill-opacity:1"
     width="34"
     height="7"
     x="7"
     y="11"
     id="rect12" />
  <rect
     style="opacity:1;fill:#ff5151;fill-opacity:1"
     width="5.25"
     height="4"
     x="12.75"
     y="-20"
     transform="matrix(0,1,-1,0,0,0)"
     id="rect14" />
  <path
     style="fill:#4d4d4d;fill-opacity:1"
     d="m 9,21 a 2,2 0 0 0 -2,2 2,2 0 0 0 2,2 2,2 0 0 0 2,-2 2,2 0 0 0 -2,-2 z m 6,0 a 2,2 0 0 0 -2,2 2,2 0 0 0 2,2 2,2 0 0 0 2,-2 2,2 0 0 0 -2,-2 z m 6,0 a 2,2 0 0 0 -2,2 2,2 0 0 0 2,2 2,2 0 0 0 2,-2 2,2 0 0 0 -2,-2 z M 9,27 a 2,2 0 0 0 -2,2 2,2 0 0 0 2,2 2,2 0 0 0 2,-2 2,2 0 0 0 -2,-2 z m 6,0 a 2,2 0 0 0 -2,2 2,2 0 0 0 2,2 2,2 0 0 0 2,-2 2,2 0 0 0 -2,-2 z m 6,0 a 2,2 0 0 0 -2,2 2,2 0 0 0 2,2 2,2 0 0 0 2,-2 2,2 0 0 0 -2,-2 z M 9,33 a 2,2 0 0 0 -2,2 2,2 0 0 0 2,2 2,2 0 0 0 2,-2 2,2 0 0 0 -2,-2 z m 6,0 a 2,2 0 0 0 -2,2 2,2 0 0 0 2,2 2,2 0 0 0 2,-2 2,2 0 0 0 -2,-2 z m 6,0 a 2,2 0 0 0 -2,2 2,2 0 0 0 2,2 2,2 0 0 0 2,-2 2,2 0 0 0 -2,-2 z"
     id="path16"
     inkscape:connector-curvature="0" />
  <path
     style="fill:#ffffff;fill-opacity:1;opacity:0.1"
     d="M 33 23 A 6 6 0 0 0 27 29 A 6 6 0 0 0 27.025391 29.498047 A 6 6 0 0 1 33 24 A 6 6 0 0 1 38.974609 29.501953 A 6 6 0 0 0 39 29 A 6 6 0 0 0 33 23 z "
     id="circle4489" />
  <path
     style="fill:#ffffff;fill-opacity:1;opacity:0.2"
     d="M 33 23 A 6 6 0 0 0 27 29 A 6 6 0 0 0 27.025391 29.498047 A 6 6 0 0 1 33 24 A 6 6 0 0 1 38.974609 29.501953 A 6 6 0 0 0 39 29 A 6 6 0 0 0 33 23 z "
     id="circle4141" />
</svg>
