<?xml version="1.0" encoding="UTF-8" standalone="no"?>
<svg
   xmlns:dc="http://purl.org/dc/elements/1.1/"
   xmlns:cc="http://creativecommons.org/ns#"
   xmlns:rdf="http://www.w3.org/1999/02/22-rdf-syntax-ns#"
   xmlns:svg="http://www.w3.org/2000/svg"
   xmlns="http://www.w3.org/2000/svg"
   xmlns:sodipodi="http://sodipodi.sourceforge.net/DTD/sodipodi-0.dtd"
   xmlns:inkscape="http://www.inkscape.org/namespaces/inkscape"
   height="48"
   width="48"
   version="1"
   id="svg20"
   sodipodi:docname="puffin-web-browser.svg"
   inkscape:version="0.92.1 r15371">
  <metadata
     id="metadata26">
    <rdf:RDF>
      <cc:Work
         rdf:about="">
        <dc:format>image/svg+xml</dc:format>
        <dc:type
           rdf:resource="http://purl.org/dc/dcmitype/StillImage" />
        <dc:title />
      </cc:Work>
    </rdf:RDF>
  </metadata>
  <defs
     id="defs24" />
  <sodipodi:namedview
     pagecolor="#ffffff"
     bordercolor="#666666"
     borderopacity="1"
     objecttolerance="10"
     gridtolerance="10"
     guidetolerance="10"
     inkscape:pageopacity="0"
     inkscape:pageshadow="2"
     inkscape:window-width="1600"
     inkscape:window-height="822"
     id="namedview22"
     showgrid="false"
     inkscape:zoom="10.66"
     inkscape:cx="10.700907"
     inkscape:cy="24.079366"
     inkscape:window-x="0"
     inkscape:window-y="0"
     inkscape:window-maximized="1"
     inkscape:current-layer="svg20">
    <inkscape:grid
       type="xygrid"
       id="grid4563" />
  </sodipodi:namedview>
  <rect
     transform="matrix(0,-1,-1,0,0,0)"
     rx="2"
     ry="2"
     height="40"
     width="40"
     y="-44"
     x="-44"
     fill="#1da6e8"
     id="rect2"
     style="fill:#96be45;fill-opacity:1" />
  <path
     sodipodi:nodetypes="csccsccc"
     inkscape:connector-curvature="0"
     id="path4606"
     d="m 29.650391,32.369141 c 0,0 -4.070633,3.253597 -8.675782,3.630859 C 17.843696,36.25649 7.875154,32.269219 4,30.940504 V 43 c 0,1.108 0.892,2 2,2 H 22.976562 C 27.306849,43.751421 30.98788,41.065682 31,36.5 31.07679,33.655947 29.650391,32.369141 29.650391,32.369141 Z"
     style="opacity:0.2;vector-effect:none;fill:#000000;fill-opacity:1;stroke:none;stroke-width:4;stroke-linecap:round;stroke-linejoin:round;stroke-miterlimit:4;stroke-dasharray:none;stroke-dashoffset:0;stroke-opacity:1" />
  <path
     style="opacity:1;vector-effect:none;fill:#ffffff;fill-opacity:1;stroke:none;stroke-width:4;stroke-linecap:round;stroke-linejoin:round;stroke-miterlimit:4;stroke-dasharray:none;stroke-dashoffset:0;stroke-opacity:1"
     d="m 29.650391,31.369141 c 0,0 -4.070633,3.253597 -8.675782,3.630859 C 17.843696,35.25649 7.875154,31.269219 4,29.940504 V 42 c 0,1.108 0.892,2 2,2 H 22.976562 C 27.306849,42.751421 30.98788,40.065682 31,35.5 31.07679,32.655947 29.650391,31.369141 29.650391,31.369141 Z"
     id="path4561"
     inkscape:connector-curvature="0"
     sodipodi:nodetypes="csccsccc" />
  <path
     sodipodi:nodetypes="ccccc"
     inkscape:connector-curvature="0"
     id="path4604"
     d="M 32.932166,24.929978 33,16.7 c 5.875363,4.594497 7.187826,8.806431 7,16.3 L 28,31 Z"
     style="opacity:0.2;vector-effect:none;fill:#000000;fill-opacity:1;stroke:none;stroke-width:4;stroke-linecap:round;stroke-linejoin:round;stroke-miterlimit:4;stroke-dasharray:none;stroke-dashoffset:0;stroke-opacity:1" />
  <path
     style="opacity:1;vector-effect:none;fill:#dc3042;fill-opacity:1;stroke:none;stroke-width:4;stroke-linecap:round;stroke-linejoin:round;stroke-miterlimit:4;stroke-dasharray:none;stroke-dashoffset:0;stroke-opacity:1"
     d="M 32.932166,23.929978 33,15.7 c 5.875363,4.594497 7.187826,8.806431 7,16.3 L 28,30 Z"
     id="rect4558"
     inkscape:connector-curvature="0"
     sodipodi:nodetypes="ccccc" />
  <path
     style="opacity:1;vector-effect:none;fill:#1f2930;fill-opacity:1;stroke:none;stroke-width:2.2511549;stroke-linecap:round;stroke-linejoin:round;stroke-miterlimit:4;stroke-dasharray:none;stroke-dashoffset:0;stroke-opacity:1"
     inkscape:transform-center-x="0.42479514"
     d="m 36,29 -7,1 5,-11 z"
     id="path4593"
     inkscape:connector-curvature="0"
     sodipodi:nodetypes="cccc"
     inkscape:transform-center-y="-0.56536724" />
  <path
     sodipodi:nodetypes="cccc"
     inkscape:connector-curvature="0"
     id="path4608"
     d="M 32.224609,26.253906 40,32 28,30 Z"
     style="opacity:0.1;vector-effect:none;fill:#ffffff;fill-opacity:1;stroke:none;stroke-width:4;stroke-linecap:round;stroke-linejoin:round;stroke-miterlimit:4;stroke-dasharray:none;stroke-dashoffset:0;stroke-opacity:1" />
  <path
     opacity=".2"
     d="m6 4c-1.108 0-2 0.892-2 2v1c0-1.108 0.892-2 2-2h36c1.108 0 2 0.892 2 2v-1c0-1.108-0.892-2-2-2h-36z"
     fill="#fff"
     id="path10" />
  <path
     opacity=".2"
     d="m6 45c-1.108 0-2-0.892-2-2v-1c0 1.108 0.892 2 2 2h36c1.108 0 2-0.892 2-2v1c0 1.108-0.892 2-2 2h-36z"
     id="path12" />
  <path
     style="opacity:1;vector-effect:none;fill:#293d46;fill-opacity:1;stroke:none;stroke-width:4;stroke-linecap:round;stroke-linejoin:round;stroke-miterlimit:4;stroke-dasharray:none;stroke-dashoffset:0;stroke-opacity:1"
     d="M 22 8 A 12 12 0 0 0 10.177734 18.017578 C 10.115046 18.072856 8.0085154 19.923653 6.6816406 20 C 5.903402 20.044779 4.8268249 19.538281 4 19.074219 L 4 29.941406 C 7.875154 31.270121 17.843696 35.25649 20.974609 35 C 25.579758 34.622738 29.650391 31.369141 29.650391 31.369141 C 29.650391 31.369141 29.933391 31.640122 30.240234 32.173828 C 29.700367 30.877174 29.14289 30.132538 28.886719 29.808594 A 12 12 0 0 0 34 20 A 12 12 0 0 0 22 8 z M 30.994141 35.597656 C 30.993141 35.666717 30.987053 35.732588 30.984375 35.800781 C 30.988833 35.76768 30.995853 35.736421 31 35.703125 C 30.999603 35.667393 30.994988 35.633201 30.994141 35.597656 z "
     id="rect4555" />
  <path
     sodipodi:nodetypes="ccsccsc"
     inkscape:connector-curvature="0"
     id="path4596"
     d="m 5,29.897534 c -0.3341496,0.0026 -0.6679017,0.01696 -1,0.04297 v 12.95703 c 0,0.35659 0.099473,0.685298 0.2617188,0.974609 0.2455626,0.01483 0.4918245,0.0233 0.7382812,0.02539 5.522847,0 10,-4 10,-7 0,-3 -4.477153,-7 -10,-7 z"
     style="opacity:0.2;vector-effect:none;fill:#000000;fill-opacity:1;stroke:none;stroke-width:3.87317753;stroke-linecap:round;stroke-linejoin:round;stroke-miterlimit:4;stroke-dasharray:none;stroke-dashoffset:0;stroke-opacity:1" />
  <path
     style="opacity:1;vector-effect:none;fill:#1f2930;fill-opacity:1;stroke:none;stroke-width:3.87317753;stroke-linecap:round;stroke-linejoin:round;stroke-miterlimit:4;stroke-dasharray:none;stroke-dashoffset:0;stroke-opacity:1"
     d="m 5,29 c -0.3341496,0.0026 -0.6679017,0.01696 -1,0.04297 V 42 c 0,0.35659 0.099473,0.685298 0.2617188,0.974609 C 4.5072814,42.989439 4.7535433,42.997908 5,43 10.522847,43 15,39 15,36 15,33 10.522847,29 5,29 Z"
     id="path4571"
     inkscape:connector-curvature="0"
     sodipodi:nodetypes="ccsccsc" />
  <path
     style="opacity:1;vector-effect:none;fill:#ffffff;fill-opacity:1;stroke:none;stroke-width:4;stroke-linecap:round;stroke-linejoin:round;stroke-miterlimit:4;stroke-dasharray:none;stroke-dashoffset:0;stroke-opacity:1"
     d="M 20.488281 9.7460938 C 18.470941 9.7675179 16.418212 10.087503 14.544922 10.597656 A 12 12 0 0 0 12.255859 13.013672 C 13.047266 18.20597 13.935004 22.920826 18.773438 26.371094 C 22.2591 28.40877 25.350388 28.951768 29.246094 29.255859 C 29.337221 29.294615 29.400806 29.337329 29.486328 29.376953 A 12 12 0 0 0 32.224609 26.253906 C 33.423459 21.510402 32.738175 14.310222 27.552734 11.316406 C 25.570252 10.17182 23.06066 9.7187751 20.488281 9.7460938 z "
     id="path4578" />
  <path
     inkscape:connector-curvature="0"
     id="path4612"
     d="m 24.249999,12.317278 a 6.0727572,4.3128465 10.368872 0 1 -0.08789,1.009766 6.0727572,4.3128465 10.368872 0 1 -7.03125,2.845703 A 6.0727572,4.3128465 10.368872 0 1 15,15.371966 a 5.5446912,3.9378165 10.368871 0 0 2.974609,1.439453 5.5446912,3.9378165 10.368871 0 0 6.419922,-2.599609 5.5446912,3.9378165 10.368871 0 0 -0.144532,-1.894532 z"
     style="opacity:0.2;vector-effect:none;fill:#000000;fill-opacity:1;stroke:none;stroke-width:3.86297321;stroke-linecap:round;stroke-linejoin:round;stroke-miterlimit:4;stroke-dasharray:none;stroke-dashoffset:0;stroke-opacity:1" />
  <ellipse
     transform="matrix(0.97220259,-0.23414124,0.28569013,0.95832205,0,0)"
     ry="2.5664723"
     rx="1.913954"
     cy="23.134184"
     cx="19.945217"
     id="ellipse4610"
     style="opacity:0.2;vector-effect:none;fill:#000000;fill-opacity:1;stroke:none;stroke-width:4.51532364;stroke-linecap:round;stroke-linejoin:round;stroke-miterlimit:4;stroke-dasharray:none;stroke-dashoffset:0;stroke-opacity:1" />
  <ellipse
     style="opacity:1;vector-effect:none;fill:#dc3042;fill-opacity:1;stroke:none;stroke-width:4.51532364;stroke-linecap:round;stroke-linejoin:round;stroke-miterlimit:4;stroke-dasharray:none;stroke-dashoffset:0;stroke-opacity:1"
     id="path4584"
     cx="20.231316"
     cy="22.160593"
     rx="1.913954"
     ry="2.5664723"
     transform="matrix(0.97220259,-0.23414124,0.28569013,0.95832205,0,0)" />
  <ellipse
     transform="matrix(0.96068495,-0.27764083,0.24110052,0.97050015,0,0)"
     ry="1.5205605"
     rx="0.96845019"
     cy="23.086485"
     cx="21.270069"
     id="ellipse4586"
     style="opacity:1;vector-effect:none;fill:#1f2930;fill-opacity:1;stroke:none;stroke-width:2.47226667;stroke-linecap:round;stroke-linejoin:round;stroke-miterlimit:4;stroke-dasharray:none;stroke-dashoffset:0;stroke-opacity:1" />
  <path
     style="opacity:1;vector-effect:none;fill:#1f2930;fill-opacity:1;stroke:none;stroke-width:3.86297321;stroke-linecap:round;stroke-linejoin:round;stroke-miterlimit:4;stroke-dasharray:none;stroke-dashoffset:0;stroke-opacity:1"
     d="m 24.249999,11.317278 a 6.0727572,4.3128465 10.368872 0 1 -0.08789,1.009766 6.0727572,4.3128465 10.368872 0 1 -7.03125,2.845703 A 6.0727572,4.3128465 10.368872 0 1 15,14.371966 a 5.5446912,3.9378165 10.368871 0 0 2.974609,1.439453 5.5446912,3.9378165 10.368871 0 0 6.419922,-2.599609 5.5446912,3.9378165 10.368871 0 0 -0.144532,-1.894532 z"
     id="path4588"
     inkscape:connector-curvature="0" />
</svg>
