<?xml version="1.0" encoding="UTF-8" standalone="no"?>
<svg
   xmlns:dc="http://purl.org/dc/elements/1.1/"
   xmlns:cc="http://creativecommons.org/ns#"
   xmlns:rdf="http://www.w3.org/1999/02/22-rdf-syntax-ns#"
   xmlns:svg="http://www.w3.org/2000/svg"
   xmlns="http://www.w3.org/2000/svg"
   xmlns:sodipodi="http://sodipodi.sourceforge.net/DTD/sodipodi-0.dtd"
   xmlns:inkscape="http://www.inkscape.org/namespaces/inkscape"
   height="48"
   width="48"
   version="1"
   id="svg20"
   sodipodi:docname="pulsar.svg"
   inkscape:version="0.92.1 r15371">
  <metadata
     id="metadata26">
    <rdf:RDF>
      <cc:Work
         rdf:about="">
        <dc:format>image/svg+xml</dc:format>
        <dc:type
           rdf:resource="http://purl.org/dc/dcmitype/StillImage" />
        <dc:title />
      </cc:Work>
    </rdf:RDF>
  </metadata>
  <defs
     id="defs24" />
  <sodipodi:namedview
     pagecolor="#ffffff"
     bordercolor="#666666"
     borderopacity="1"
     objecttolerance="10"
     gridtolerance="10"
     guidetolerance="10"
     inkscape:pageopacity="0"
     inkscape:pageshadow="2"
     inkscape:window-width="1600"
     inkscape:window-height="822"
     id="namedview22"
     showgrid="false"
     inkscape:zoom="6.93"
     inkscape:cx="-26.799423"
     inkscape:cy="14.867966"
     inkscape:window-x="0"
     inkscape:window-y="0"
     inkscape:window-maximized="1"
     inkscape:current-layer="svg20" />
  <path
     id="path4521"
     d="m 40.099609,13.142656 -3.580078,3.580078 C 38.085549,19.092695 39,21.93484 39,25.000078 c 0,8.31 -6.69,15 -15,15 -3.065238,0 -5.907383,-0.914451 -8.277344,-2.480469 L 14.166016,39.07625 12.142578,41.099687 7.5722656,45.67 17.730469,43.998125 l 0.0059,-0.0059 c 1.967384,0.65069 4.071161,1.007853 6.263631,1.007853 11.08,0 20,-8.92 20,-20 0,-4.452188 -1.458507,-8.541324 -3.900391,-11.857422 z"
     style="opacity:0.2;fill:#000000;fill-opacity:1"
     inkscape:connector-curvature="0" />
  <rect
     style="fill:#4b4b74;fill-opacity:1;stroke-width:0.8499999"
     id="rect4486"
     x="-41"
     y="-41"
     width="34"
     height="34"
     transform="matrix(0,-1,-1,0,0,0)"
     rx="17"
     ry="17" />
  <path
     id="path4519"
     d="m 40.427734,4.3301561 -10.152343,1.6660157 -0.01172,0.011719 C 28.296247,5.3572412 26.19247,5.000078 24,5.000078 c -11.08,0 -20,8.92 -20,20 0,4.452188 1.458507,8.541324 3.9003906,11.857422 L 11.480469,33.277422 C 9.9144502,30.907461 9,28.065316 9,25.000078 c 0,-8.31 6.69,-15 15,-15 3.065238,0 5.907383,0.91445 8.277344,2.480469 l 0.796875,-0.796875 z"
     style="opacity:0.2;fill:#000000;fill-opacity:1"
     inkscape:connector-curvature="0" />
  <path
     style="fill:#f7c560;fill-opacity:1"
     d="m 40.427734,3.3300781 -10.152343,1.6660157 -0.01172,0.011719 C 28.296247,4.3571632 26.19247,4 24,4 12.92,4 4,12.92 4,24 4,28.452188 5.458507,32.541324 7.9003906,35.857422 L 11.480469,32.277344 C 9.9144502,29.907383 9,27.065238 9,24 9,15.69 15.69,9 24,9 c 3.065238,0 5.907383,0.9144502 8.277344,2.480469 l 0.796875,-0.796875 z"
     id="path4517" />
  <path
     style="fill:#f6b435;fill-opacity:1"
     d="m 40.099609,12.142578 -3.580078,3.580078 C 38.085549,18.092617 39,20.934762 39,24 c 0,8.31 -6.69,15 -15,15 -3.065238,0 -5.907383,-0.914451 -8.277344,-2.480469 l -1.55664,1.556641 -2.023438,2.023437 -4.5703124,4.570313 10.1582034,-1.671875 0.0059,-0.0059 C 19.703753,43.642837 21.80753,44 24,44 35.08,44 44,35.08 44,24 44,19.547812 42.541493,15.458676 40.099609,12.142578 Z"
     id="rect2" />
  <path
     inkscape:connector-curvature="0"
     id="path4505"
     d="M 20.515063,18.000443 A 1.4796158,1.5458069 0 0 0 19,19.545424 v 5.455282 5.455283 a 1.4796158,1.5458069 0 0 0 2.218256,1.337615 l 4.52388,-2.725363 4.521745,-2.729921 a 1.4796158,1.5458069 0 0 0 0,-2.672951 l -4.521745,-2.72992 -4.52388,-2.725362 a 1.4796158,1.5458069 0 0 0 -0.703193,-0.209644 z"
     style="opacity:0.2;fill:#000000;fill-opacity:1;stroke:none;stroke-width:3.6039865;stroke-linecap:round;stroke-linejoin:round;stroke-miterlimit:4;stroke-dasharray:none;stroke-dashoffset:0;stroke-opacity:1" />
  <path
     style="opacity:1;fill:#ffffff;fill-opacity:1;stroke:none;stroke-width:3.6039865;stroke-linecap:round;stroke-linejoin:round;stroke-miterlimit:4;stroke-dasharray:none;stroke-dashoffset:0;stroke-opacity:1"
     d="M 20.515063,17.000443 A 1.4796158,1.5458069 0 0 0 19,18.545424 v 5.455282 5.455283 a 1.4796158,1.5458069 0 0 0 2.218256,1.337615 l 4.52388,-2.725363 4.521745,-2.729921 a 1.4796158,1.5458069 0 0 0 0,-2.672951 l -4.521745,-2.72992 -4.52388,-2.725362 a 1.4796158,1.5458069 0 0 0 -0.703193,-0.209644 z"
     id="path4514"
     inkscape:connector-curvature="0" />
  <path
     style="fill:#ffffff;fill-opacity:1;opacity:0.1"
     d="M 40.427734 3.3300781 L 30.275391 4.9960938 L 30.263672 5.0078125 C 28.296248 4.3571629 26.19247 4 24 4 C 12.92 4 4 12.92 4 24 C 4 24.125648 4.0133124 24.247986 4.015625 24.373047 C 4.3457291 13.586462 13.130506 5 24 5 C 26.19247 5 28.296248 5.3571629 30.263672 6.0078125 L 30.275391 5.9960938 L 39.230469 4.5273438 L 40.427734 3.3300781 z M 9.0214844 24.574219 C 9.0175005 24.717086 9 24.856135 9 25 C 9 27.803949 9.7723962 30.416328 11.101562 32.65625 L 11.480469 32.277344 C 10.013164 30.056774 9.1285238 27.418959 9.0214844 24.574219 z "
     id="path4523" />
  <path
     style="fill:#ffffff;fill-opacity:1;opacity:0.1"
     d="M 40.099609 12.142578 L 36.519531 15.722656 C 36.653023 15.924678 36.774578 16.135021 36.898438 16.34375 L 40.099609 13.142578 C 42.472579 16.36509 43.904743 20.320644 43.984375 24.626953 C 43.990768 24.418053 44 24.210506 44 24 C 44 19.547812 42.541493 15.458676 40.099609 12.142578 z M 38.978516 24.425781 C 38.752381 32.535303 32.166135 39 24 39 C 20.934762 39 18.092617 38.085549 15.722656 36.519531 L 14.166016 38.076172 L 12.142578 40.099609 L 7.5722656 44.669922 L 8.7695312 44.472656 L 12.142578 41.099609 L 14.166016 39.076172 L 15.722656 37.519531 C 18.092617 39.085549 20.934762 40 24 40 C 32.31 40 39 33.31 39 25 C 39 24.806782 38.985717 24.617164 38.978516 24.425781 z "
     id="path4525" />
</svg>
