<?xml version="1.0" encoding="UTF-8" standalone="no"?>
<svg
   xmlns:dc="http://purl.org/dc/elements/1.1/"
   xmlns:cc="http://creativecommons.org/ns#"
   xmlns:rdf="http://www.w3.org/1999/02/22-rdf-syntax-ns#"
   xmlns:svg="http://www.w3.org/2000/svg"
   xmlns="http://www.w3.org/2000/svg"
   xmlns:sodipodi="http://sodipodi.sourceforge.net/DTD/sodipodi-0.dtd"
   xmlns:inkscape="http://www.inkscape.org/namespaces/inkscape"
   height="48"
   width="48"
   version="1"
   id="svg24"
   sodipodi:docname="pyrope-browser.svg"
   inkscape:version="0.91 r13725">
  <metadata
     id="metadata30">
    <rdf:RDF>
      <cc:Work
         rdf:about="">
        <dc:format>image/svg+xml</dc:format>
        <dc:type
           rdf:resource="http://purl.org/dc/dcmitype/StillImage" />
        <dc:title />
      </cc:Work>
    </rdf:RDF>
  </metadata>
  <defs
     id="defs28" />
  <sodipodi:namedview
     pagecolor="#ffffff"
     bordercolor="#666666"
     borderopacity="1"
     objecttolerance="10"
     gridtolerance="10"
     guidetolerance="10"
     inkscape:pageopacity="0"
     inkscape:pageshadow="2"
     inkscape:window-width="1920"
     inkscape:window-height="1018"
     id="namedview26"
     showgrid="false"
     inkscape:zoom="6.93"
     inkscape:cx="9.0282918"
     inkscape:cy="19.085744"
     inkscape:window-x="0"
     inkscape:window-y="32"
     inkscape:window-maximized="1"
     inkscape:current-layer="svg24" />
  <rect
     transform="matrix(0,-1,-1,0,0,0)"
     rx="19.5"
     ry="19.5"
     height="39"
     width="39"
     y="-43.5"
     x="-43.5"
     id="rect2"
     style="fill:#ce3e3e;fill-opacity:1;stroke-width:0.9758783" />
  <path
     style="color:#000000;font-style:normal;font-variant:normal;font-weight:normal;font-stretch:normal;font-size:medium;line-height:normal;font-family:sans-serif;font-variant-ligatures:normal;font-variant-position:normal;font-variant-caps:normal;font-variant-numeric:normal;font-variant-alternates:normal;font-feature-settings:normal;text-indent:0;text-align:start;text-decoration:none;text-decoration-line:none;text-decoration-style:solid;text-decoration-color:#000000;letter-spacing:normal;word-spacing:normal;text-transform:none;writing-mode:lr-tb;direction:ltr;text-orientation:mixed;dominant-baseline:auto;baseline-shift:baseline;text-anchor:start;white-space:normal;shape-padding:0;clip-rule:nonzero;display:inline;overflow:visible;visibility:visible;opacity:1;isolation:auto;mix-blend-mode:normal;color-interpolation:sRGB;color-interpolation-filters:linearRGB;solid-color:#000000;solid-opacity:1;vector-effect:none;fill:#8d1e1e;fill-opacity:1;fill-rule:nonzero;stroke:none;stroke-width:2;stroke-linecap:square;stroke-linejoin:miter;stroke-miterlimit:4;stroke-dasharray:none;stroke-dashoffset:0;stroke-opacity:1;color-rendering:auto;image-rendering:auto;shape-rendering:auto;text-rendering:auto;enable-background:accumulate"
     d="M 24 4 C 21.003388 4 18.170597 4.6807756 15.617188 5.8652344 C 15.615327 5.8660921 15.613189 5.8663291 15.611328 5.8671875 C 13.772226 6.720987 12.089153 7.8444655 10.603516 9.1894531 L 10.597656 9.1835938 C 10.364418 9.3945666 10.12141 9.5947255 9.8984375 9.8164062 L 9.8164062 9.8984375 C 9.5947255 10.12141 9.3945666 10.364418 9.1835938 10.597656 L 9.1894531 10.603516 C 7.8848952 12.044495 6.7911822 13.672291 5.9472656 15.447266 C 5.9471442 15.447521 5.9454339 15.44701 5.9453125 15.447266 C 5.9419614 15.454357 5.9388891 15.461654 5.9355469 15.46875 C 4.707286 18.060304 4 20.945008 4 24 C 4 29.157468 5.9760369 33.847032 9.1894531 37.396484 L 9.1835938 37.402344 C 9.4069461 37.649196 9.620133 37.905289 9.8554688 38.140625 C 10.092137 38.377293 10.351296 38.589906 10.599609 38.814453 L 10.603516 38.810547 C 14.152968 42.023963 18.842532 44 24 44 C 29.157468 44 33.847032 42.023963 37.396484 38.810547 L 37.398438 38.8125 C 37.427847 38.785898 37.455136 38.757234 37.484375 38.730469 C 37.918016 38.333202 38.333202 37.918016 38.730469 37.484375 C 38.757234 37.455136 38.785898 37.427847 38.8125 37.398438 L 38.810547 37.396484 C 42.023963 33.847032 44 29.157468 44 24 C 44 18.842532 42.023963 14.152968 38.810547 10.603516 L 38.814453 10.599609 C 38.589906 10.351296 38.377293 10.092137 38.140625 9.8554688 C 37.905289 9.620133 37.649196 9.406946 37.402344 9.1835938 L 37.396484 9.1894531 C 35.955936 7.8852849 34.329047 6.7910818 32.554688 5.9472656 C 32.552836 5.94639 32.55068 5.9461875 32.548828 5.9453125 C 29.95265 4.711651 27.062127 4 24 4 z M 23 6.0507812 L 23 7.5839844 L 20.199219 6.4082031 C 21.107894 6.213291 22.045722 6.1031844 23 6.0507812 z M 25 6.0507812 C 26.008408 6.1061569 26.995997 6.2331125 27.953125 6.4472656 L 25 7.65625 L 25 6.0507812 z M 17.220703 7.328125 L 22.177734 9.40625 L 19.191406 12.392578 L 15.042969 12.392578 L 17.158203 7.3496094 C 17.178513 7.3412702 17.200355 7.336392 17.220703 7.328125 z M 30.943359 7.3867188 C 30.958138 7.3928908 30.973523 7.3980866 30.988281 7.4042969 L 33.029297 12.392578 L 28.808594 12.392578 L 25.875 9.4589844 L 30.943359 7.3867188 z M 14.380859 8.796875 L 13.148438 11.734375 L 12.007812 10.59375 C 12.747085 9.9322017 13.538987 9.3301527 14.380859 8.796875 z M 33.753906 8.8789062 C 34.54657 9.3908097 35.291941 9.9671246 35.992188 10.59375 L 34.900391 11.685547 L 33.753906 8.8789062 z M 24 10.414062 L 25.978516 12.392578 L 22.021484 12.392578 L 24 10.414062 z M 10.59375 12.007812 L 11.685547 13.099609 L 8.8789062 14.248047 C 9.39104 13.454865 9.966755 12.708472 10.59375 12.007812 z M 37.40625 12.007812 C 38.068168 12.747498 38.669625 13.540416 39.203125 14.382812 L 36.263672 13.150391 L 37.40625 12.007812 z M 14.392578 14.392578 L 17.191406 14.392578 L 14.392578 17.191406 L 14.392578 14.392578 z M 20.021484 14.392578 L 27.978516 14.392578 L 33.605469 20.017578 L 33.605469 27.978516 L 27.976562 33.607422 L 20.019531 33.607422 L 14.392578 27.978516 L 14.392578 20.021484 L 20.021484 14.392578 z M 30.808594 14.392578 L 33.605469 14.392578 L 33.605469 17.189453 L 30.808594 14.392578 z M 12.392578 14.970703 L 12.392578 19.191406 L 9.4589844 22.125 L 7.3867188 17.056641 C 7.3928908 17.041862 7.3980866 17.026477 7.4042969 17.011719 L 12.392578 14.970703 z M 35.605469 15.041016 L 40.650391 17.158203 C 40.65873 17.178513 40.663608 17.200355 40.671875 17.220703 L 38.59375 22.177734 L 35.605469 19.189453 L 35.605469 15.041016 z M 6.4492188 20.044922 L 7.65625 23 L 6.0507812 23 C 6.1062018 21.990773 6.2347683 21.00278 6.4492188 20.044922 z M 41.591797 20.199219 C 41.786709 21.107894 41.896816 22.045722 41.949219 23 L 40.416016 23 L 41.591797 20.199219 z M 35.605469 22.017578 L 37.585938 23.998047 L 35.605469 25.978516 L 35.605469 22.017578 z M 12.392578 22.021484 L 12.392578 25.978516 L 10.414062 24 L 12.392578 22.021484 z M 6.0507812 25 L 7.5839844 25 L 6.4082031 27.800781 C 6.213291 26.892106 6.1031844 25.954278 6.0507812 25 z M 40.341797 25 L 41.949219 25 C 41.893762 26.009878 41.765468 26.998593 41.550781 27.957031 L 40.341797 25 z M 9.40625 25.822266 L 12.392578 28.808594 L 12.392578 32.957031 L 7.3496094 30.841797 C 7.3412702 30.821487 7.336392 30.799645 7.328125 30.779297 L 9.40625 25.822266 z M 38.539062 25.873047 L 40.613281 30.943359 C 40.607109 30.958138 40.601913 30.973523 40.595703 30.988281 L 35.605469 33.029297 L 35.605469 28.806641 L 38.539062 25.873047 z M 33.605469 30.806641 L 33.605469 33.607422 L 30.804688 33.607422 L 33.605469 30.806641 z M 14.392578 30.808594 L 17.191406 33.607422 L 14.392578 33.607422 L 14.392578 30.808594 z M 8.796875 33.617188 L 11.734375 34.851562 L 10.59375 35.992188 C 9.9318322 35.252502 9.3303746 34.459584 8.796875 33.617188 z M 39.121094 33.751953 C 38.60896 34.545135 38.033245 35.291528 37.40625 35.992188 L 36.314453 34.900391 L 39.121094 33.751953 z M 14.970703 35.607422 L 19.191406 35.607422 L 22.125 38.541016 L 17.056641 40.613281 C 17.041862 40.607109 17.026477 40.601913 17.011719 40.595703 L 14.970703 35.607422 z M 22.019531 35.607422 L 25.976562 35.607422 L 23.998047 37.585938 L 22.019531 35.607422 z M 28.804688 35.607422 L 32.957031 35.607422 L 30.841797 40.650391 C 30.821487 40.65873 30.799645 40.663608 30.779297 40.671875 L 25.820312 38.591797 L 28.804688 35.607422 z M 34.851562 36.265625 L 35.992188 37.40625 C 35.252502 38.068168 34.459584 38.669625 33.617188 39.203125 L 34.851562 36.265625 z M 13.099609 36.314453 L 14.248047 39.121094 C 13.454865 38.60896 12.708472 38.033245 12.007812 37.40625 L 13.099609 36.314453 z M 23 40.34375 L 23 41.949219 C 21.991592 41.893843 21.004003 41.766888 20.046875 41.552734 L 23 40.34375 z M 25 40.416016 L 27.800781 41.591797 C 26.892106 41.786709 25.954278 41.896816 25 41.949219 L 25 40.416016 z "
     id="rect4549" />
  <path
     opacity=".2"
     fill="#fff"
     d="m24 4.0182c-11.07 0-19.982 8.9119-19.982 19.982 0 0.16757-0.004 0.33299 0 0.49955 0.2644-10.837 9.08-19.483 19.982-19.483s19.718 8.6458 19.982 19.482c0.004-0.16656 0-0.33198 0-0.49955 0-11.069-8.912-19.981-19.982-19.981z"
     id="path4"
     style="opacity:0.1" />
  <path
     opacity=".2"
     d="m4.0312 24.526c-0.0039 0.164-0.0136 0.327-0.0136 0.492 0 11.07 8.9124 19.982 19.982 19.982s19.982-8.912 19.982-19.982c0-0.165-0.009-0.328-0.013-0.492-0.26 10.841-9.064 19.492-19.969 19.492s-19.709-8.651-19.969-19.492z"
     id="path6" />
</svg>
