<?xml version="1.0" encoding="UTF-8" standalone="no"?>
<svg
   xmlns:dc="http://purl.org/dc/elements/1.1/"
   xmlns:cc="http://creativecommons.org/ns#"
   xmlns:rdf="http://www.w3.org/1999/02/22-rdf-syntax-ns#"
   xmlns:svg="http://www.w3.org/2000/svg"
   xmlns="http://www.w3.org/2000/svg"
   xmlns:sodipodi="http://sodipodi.sourceforge.net/DTD/sodipodi-0.dtd"
   xmlns:inkscape="http://www.inkscape.org/namespaces/inkscape"
   height="48"
   width="48"
   version="1"
   id="svg18"
   sodipodi:docname="quark-browser.svg"
   inkscape:version="0.92.1 r15371">
  <metadata
     id="metadata24">
    <rdf:RDF>
      <cc:Work
         rdf:about="">
        <dc:format>image/svg+xml</dc:format>
        <dc:type
           rdf:resource="http://purl.org/dc/dcmitype/StillImage" />
        <dc:title></dc:title>
      </cc:Work>
    </rdf:RDF>
  </metadata>
  <defs
     id="defs22" />
  <sodipodi:namedview
     pagecolor="#ffffff"
     bordercolor="#666666"
     borderopacity="1"
     objecttolerance="10"
     gridtolerance="10"
     guidetolerance="10"
     inkscape:pageopacity="0"
     inkscape:pageshadow="2"
     inkscape:window-width="1600"
     inkscape:window-height="822"
     id="namedview20"
     showgrid="false"
     inkscape:zoom="5.71"
     inkscape:cx="15.614711"
     inkscape:cy="24"
     inkscape:window-x="0"
     inkscape:window-y="0"
     inkscape:window-maximized="1"
     inkscape:current-layer="svg18">
    <inkscape:grid
       type="xygrid"
       id="grid4522" />
  </sodipodi:namedview>
  <rect
     transform="matrix(0,-1,-1,0,0,0)"
     rx="20"
     ry="20"
     height="40"
     width="40"
     y="-44"
     x="-45"
     id="rect4518"
     style="opacity:0.2;fill:#000000;fill-opacity:1;stroke-width:1.00090075" />
  <rect
     style="fill:#6868d1;fill-opacity:1;stroke-width:1.00090075"
     id="rect2"
     x="-44"
     y="-44"
     width="40"
     height="40"
     ry="20"
     rx="20"
     transform="matrix(0,-1,-1,0,0,0)" />
  <rect
     style="opacity:0.2;fill:#000000;fill-opacity:1;stroke-width:0.60054046"
     id="rect4499"
     x="-37"
     y="-36"
     width="24"
     height="24"
     ry="12"
     rx="12"
     transform="matrix(0,-1,-1,0,0,0)" />
  <rect
     transform="matrix(0,-1,-1,0,0,0)"
     rx="12"
     ry="12"
     height="24"
     width="24"
     y="-36"
     x="-36"
     id="rect4511"
     style="opacity:1;fill:#ffffff;fill-opacity:1;stroke-width:0.60054046" />
  <circle
     r="10"
     cy="35"
     cx="36"
     id="circle4492"
     style="opacity:0.2;vector-effect:none;fill:#000000;fill-opacity:1;stroke:none;stroke-width:2.76995325;stroke-linecap:round;stroke-linejoin:round;stroke-miterlimit:4;stroke-dasharray:none;stroke-dashoffset:0;stroke-opacity:1" />
  <circle
     style="opacity:1;vector-effect:none;fill:#5ccac2;fill-opacity:1;stroke:none;stroke-width:2.76995325;stroke-linecap:round;stroke-linejoin:round;stroke-miterlimit:4;stroke-dasharray:none;stroke-dashoffset:0;stroke-opacity:1"
     id="path4507"
     cx="36"
     cy="34"
     r="10" />
  <path
     style="fill:#ffffff;fill-opacity:1;stroke-width:1.00090075;opacity:0.1"
     d="M 24 4 C 12.92 4 4 12.92 4 24 C 4 24.167874 4.007647 24.333141 4.0117188 24.5 C 4.2763904 13.653863 13.087874 5 24 5 C 34.912126 5 43.72361 13.653863 43.988281 24.5 C 43.992353 24.333141 44 24.167874 44 24 C 44 12.92 35.08 4 24 4 z "
     id="rect4513" />
  <path
     style="opacity:0.1;vector-effect:none;fill:#ffffff;fill-opacity:1;stroke:none;stroke-width:2.76995325;stroke-linecap:round;stroke-linejoin:round;stroke-miterlimit:4;stroke-dasharray:none;stroke-dashoffset:0;stroke-opacity:1"
     d="M 36 24 A 10 10 0 0 0 26 34 A 10 10 0 0 0 26.021484 34.585938 A 10 10 0 0 1 36 25 A 10 10 0 0 1 45.978516 34.414062 A 10 10 0 0 0 46 34 A 10 10 0 0 0 36 24 z "
     id="circle4494" />
</svg>
