<?xml version="1.0" encoding="UTF-8" standalone="no"?>
<svg
   xmlns:dc="http://purl.org/dc/elements/1.1/"
   xmlns:cc="http://creativecommons.org/ns#"
   xmlns:rdf="http://www.w3.org/1999/02/22-rdf-syntax-ns#"
   xmlns:svg="http://www.w3.org/2000/svg"
   xmlns="http://www.w3.org/2000/svg"
   xmlns:sodipodi="http://sodipodi.sourceforge.net/DTD/sodipodi-0.dtd"
   xmlns:inkscape="http://www.inkscape.org/namespaces/inkscape"
   height="48"
   width="48"
   version="1"
   id="svg12"
   sodipodi:docname="reactive-fast-search.svg"
   inkscape:version="0.91 r13725">
  <metadata
     id="metadata18">
    <rdf:RDF>
      <cc:Work
         rdf:about="">
        <dc:format>image/svg+xml</dc:format>
        <dc:type
           rdf:resource="http://purl.org/dc/dcmitype/StillImage" />
        <dc:title />
      </cc:Work>
    </rdf:RDF>
  </metadata>
  <defs
     id="defs16">
    <style
       id="current-color-scheme"
       type="text/css">
   .ColorScheme-Text { color:#5c616c; } .ColorScheme-Highlight { color:#5294e2; } .ColorScheme-ButtonBackground { color:#d3dae3; }
  </style>
    <style
       id="current-color-scheme-3"
       type="text/css">
   .ColorScheme-Text { color:#5c616c; } .ColorScheme-Highlight { color:#5294e2; } .ColorScheme-ButtonBackground { color:#d3dae3; }
  </style>
    <style
       id="current-color-scheme-6"
       type="text/css">
   .ColorScheme-Text { color:#5c616c; } .ColorScheme-Highlight { color:#5294e2; } .ColorScheme-ButtonBackground { color:#d3dae3; }
  </style>
    <style
       id="current-color-scheme-7"
       type="text/css">
   .ColorScheme-Text { color:#5c616c; } .ColorScheme-Highlight { color:#5294e2; } .ColorScheme-ButtonBackground { color:#d3dae3; }
  </style>
  </defs>
  <sodipodi:namedview
     pagecolor="#ffffff"
     bordercolor="#666666"
     borderopacity="1"
     objecttolerance="10"
     gridtolerance="10"
     guidetolerance="10"
     inkscape:pageopacity="0"
     inkscape:pageshadow="2"
     inkscape:window-width="1920"
     inkscape:window-height="1018"
     id="namedview14"
     showgrid="false"
     inkscape:zoom="14.06"
     inkscape:cx="6.0338293"
     inkscape:cy="19.447968"
     inkscape:window-x="0"
     inkscape:window-y="32"
     inkscape:window-maximized="1"
     inkscape:current-layer="svg12">
    <inkscape:grid
       type="xygrid"
       id="grid4526" />
  </sodipodi:namedview>
  <path
     sodipodi:nodetypes="sssccsscccss"
     inkscape:connector-curvature="0"
     id="path4517"
     d="m 21,5.0000004 c -9.328127,0 -16.997282,7.6714646 -16.997282,17.0024006 0,9.330935 7.669155,17.0024 16.997282,17.0024 h 0.0078 c 1.861932,-0.0029 3.67184,-0.386868 5.417103,-0.980607 l 4.518808,4.520169 c 2.757627,2.75846 7.701522,3.612211 10.959186,0.353566 3.255314,-3.256295 2.40221,-8.204034 -0.35346,-10.960532 l -4.522702,-4.524076 c 0.58916,-1.743398 0.969847,-3.550265 0.970548,-5.408967 v -0.002 c 0,-9.330889 -7.669155,-17.0023536 -16.997281,-17.0023536 z"
     style="color:#000000;font-style:normal;font-variant:normal;font-weight:normal;font-stretch:normal;font-size:medium;line-height:normal;font-family:sans-serif;font-variant-ligatures:normal;font-variant-position:normal;font-variant-caps:normal;font-variant-numeric:normal;font-variant-alternates:normal;font-feature-settings:normal;text-indent:0;text-align:start;text-decoration:none;text-decoration-line:none;text-decoration-style:solid;text-decoration-color:#000000;letter-spacing:normal;word-spacing:normal;text-transform:none;writing-mode:lr-tb;direction:ltr;text-orientation:mixed;dominant-baseline:auto;baseline-shift:baseline;text-anchor:start;white-space:normal;shape-padding:0;clip-rule:nonzero;display:inline;overflow:visible;visibility:visible;opacity:0.2;isolation:auto;mix-blend-mode:normal;color-interpolation:sRGB;color-interpolation-filters:linearRGB;solid-color:#000000;solid-opacity:1;vector-effect:none;fill:#000000;fill-opacity:1;fill-rule:nonzero;stroke:none;stroke-width:9.99990654;stroke-linecap:round;stroke-linejoin:round;stroke-miterlimit:4;stroke-dasharray:none;stroke-dashoffset:0;stroke-opacity:1;color-rendering:auto;image-rendering:auto;shape-rendering:auto;text-rendering:auto;enable-background:accumulate" />
  <path
     style="color:#000000;font-style:normal;font-variant:normal;font-weight:normal;font-stretch:normal;font-size:medium;line-height:normal;font-family:sans-serif;font-variant-ligatures:normal;font-variant-position:normal;font-variant-caps:normal;font-variant-numeric:normal;font-variant-alternates:normal;font-feature-settings:normal;text-indent:0;text-align:start;text-decoration:none;text-decoration-line:none;text-decoration-style:solid;text-decoration-color:#000000;letter-spacing:normal;word-spacing:normal;text-transform:none;writing-mode:lr-tb;direction:ltr;text-orientation:mixed;dominant-baseline:auto;baseline-shift:baseline;text-anchor:start;white-space:normal;shape-padding:0;clip-rule:nonzero;display:inline;overflow:visible;visibility:visible;opacity:1;isolation:auto;mix-blend-mode:normal;color-interpolation:sRGB;color-interpolation-filters:linearRGB;solid-color:#000000;solid-opacity:1;vector-effect:none;fill:#32a0e0;fill-opacity:1;fill-rule:nonzero;stroke:none;stroke-width:9.99990654;stroke-linecap:round;stroke-linejoin:round;stroke-miterlimit:4;stroke-dasharray:none;stroke-dashoffset:0;stroke-opacity:1;color-rendering:auto;image-rendering:auto;shape-rendering:auto;text-rendering:auto;enable-background:accumulate"
     d="M 21,4 C 11.671873,4 4.002718,11.671465 4.002718,21.002401 c 0,9.330935 7.669155,17.0024 16.997282,17.0024 h 0.0078 c 1.861932,-0.0029 3.67184,-0.386868 5.417103,-0.980607 l 4.518808,4.520169 c 2.757627,2.75846 7.701522,3.612211 10.959186,0.353566 3.255314,-3.256295 2.40221,-8.204034 -0.35346,-10.960532 l -4.522702,-4.524076 c 0.58916,-1.743398 0.969847,-3.550265 0.970548,-5.408967 v -0.002 C 37.997283,11.671465 30.328128,4 21.000002,4 Z"
     id="path4501"
     inkscape:connector-curvature="0"
     sodipodi:nodetypes="sssccsscccss" />
  <path
     sodipodi:nodetypes="sssssss"
     inkscape:connector-curvature="0"
     id="path4508"
     d="m 26.851636,27.625282 c 0.979343,-0.979343 1.504772,-1.817391 2.679983,-0.64218 l 8.485282,8.485282 c 1.175211,1.175211 1.332896,2.909744 0.353553,3.889087 -0.979343,0.979343 -2.713876,0.821658 -3.889087,-0.353553 l -8.485282,-8.485282 c -1.175211,-1.175211 -0.123792,-1.914011 0.855551,-2.893354 z"
     style="opacity:0.2;vector-effect:none;fill:#000000;fill-opacity:1;stroke:none;stroke-width:13.2012949;stroke-linecap:round;stroke-linejoin:round;stroke-miterlimit:4;stroke-dasharray:none;stroke-dashoffset:0;stroke-opacity:1" />
  <path
     transform="rotate(-45)"
     style="opacity:1;vector-effect:none;fill:#824748;fill-opacity:1;stroke:none;stroke-width:13.2012949;stroke-linecap:round;stroke-linejoin:round;stroke-miterlimit:4;stroke-dasharray:none;stroke-dashoffset:0;stroke-opacity:1"
     d="m 0.16005586,37.813892 c 1.38500004,0 2.34912374,-0.221055 2.34912374,1.440945 l 0,12 c 0,1.662 -1.115,3 -2.50000001,3 -1.38499999,0 -2.49999999,-1.338 -2.49999999,-3 l 0,-12 c 0,-1.662 1.2658763,-1.440945 2.65087626,-1.440945 z"
     id="rect4495"
     inkscape:connector-curvature="0"
     sodipodi:nodetypes="sssssss" />
  <path
     id="path4510"
     d="M 21,9.9999988 A 12,12 0 0 0 9,21.999999 a 12,12 0 0 0 12,12 12,12 0 0 0 12,-12 A 12,12 0 0 0 21,9.9999988 Z m 0,5.0000002 a 7,7 0 0 1 7,7 7,7 0 0 1 -7,7 7,7 0 0 1 -7,-7 7,7 0 0 1 7,-7 z"
     style="opacity:0.2;vector-effect:none;fill:#000000;fill-opacity:1;stroke:none;stroke-width:14.99025726;stroke-linecap:round;stroke-linejoin:round;stroke-miterlimit:4;stroke-dasharray:none;stroke-dashoffset:0;stroke-opacity:1"
     inkscape:connector-curvature="0" />
  <path
     style="opacity:1;vector-effect:none;fill:#ffffff;fill-opacity:1;stroke:none;stroke-width:14.99025726;stroke-linecap:round;stroke-linejoin:round;stroke-miterlimit:4;stroke-dasharray:none;stroke-dashoffset:0;stroke-opacity:1"
     d="M 21 9 A 12 12 0 0 0 9 21 A 12 12 0 0 0 21 33 A 12 12 0 0 0 33 21 A 12 12 0 0 0 21 9 z M 21 14 A 7 7 0 0 1 28 21 A 7 7 0 0 1 21 28 A 7 7 0 0 1 14 21 A 7 7 0 0 1 21 14 z "
     id="path4491" />
  <path
     style="color:#000000;font-style:normal;font-variant:normal;font-weight:normal;font-stretch:normal;font-size:medium;line-height:normal;font-family:sans-serif;font-variant-ligatures:normal;font-variant-position:normal;font-variant-caps:normal;font-variant-numeric:normal;font-variant-alternates:normal;font-feature-settings:normal;text-indent:0;text-align:start;text-decoration:none;text-decoration-line:none;text-decoration-style:solid;text-decoration-color:#000000;letter-spacing:normal;word-spacing:normal;text-transform:none;writing-mode:lr-tb;direction:ltr;text-orientation:mixed;dominant-baseline:auto;baseline-shift:baseline;text-anchor:start;white-space:normal;shape-padding:0;clip-rule:nonzero;display:inline;overflow:visible;visibility:visible;opacity:0.2;isolation:auto;mix-blend-mode:normal;color-interpolation:sRGB;color-interpolation-filters:linearRGB;solid-color:#000000;solid-opacity:1;vector-effect:none;fill:#ffffff;fill-opacity:1;fill-rule:nonzero;stroke:none;stroke-width:9.99990654;stroke-linecap:round;stroke-linejoin:round;stroke-miterlimit:4;stroke-dasharray:none;stroke-dashoffset:0;stroke-opacity:1;color-rendering:auto;image-rendering:auto;shape-rendering:auto;text-rendering:auto;enable-background:accumulate"
     d="M 21 4 C 11.671873 4 4.0019531 11.671017 4.0019531 21.001953 C 4.0019531 21.170638 4.0223665 21.334389 4.0273438 21.501953 C 4.2976879 12.400546 11.840507 5 21 5 C 30.161463 5 37.705392 12.403758 37.972656 21.507812 C 37.97888 21.33959 37.997983 21.172995 37.998047 21.003906 L 37.998047 21.001953 C 37.998047 11.671064 30.328126 4 21 4 z M 37.259766 26.646484 C 37.183479 26.902483 37.112962 27.160709 37.027344 27.414062 L 41.548828 31.9375 C 42.933403 33.322491 43.836304 35.260902 43.980469 37.259766 C 44.116214 34.920827 43.163663 32.55282 41.548828 30.9375 L 37.259766 26.646484 z "
     id="path4512" />
</svg>
