<?xml version="1.0" encoding="UTF-8" standalone="no"?>
<svg
   xmlns:dc="http://purl.org/dc/elements/1.1/"
   xmlns:cc="http://creativecommons.org/ns#"
   xmlns:rdf="http://www.w3.org/1999/02/22-rdf-syntax-ns#"
   xmlns:svg="http://www.w3.org/2000/svg"
   xmlns="http://www.w3.org/2000/svg"
   xmlns:sodipodi="http://sodipodi.sourceforge.net/DTD/sodipodi-0.dtd"
   xmlns:inkscape="http://www.inkscape.org/namespaces/inkscape"
   height="48"
   width="48"
   version="1"
   id="svg12"
   sodipodi:docname="rocket-player.svg"
   inkscape:version="0.91 r13725">
  <metadata
     id="metadata18">
    <rdf:RDF>
      <cc:Work
         rdf:about="">
        <dc:format>image/svg+xml</dc:format>
        <dc:type
           rdf:resource="http://purl.org/dc/dcmitype/StillImage" />
        <dc:title />
      </cc:Work>
    </rdf:RDF>
  </metadata>
  <defs
     id="defs16" />
  <sodipodi:namedview
     pagecolor="#ffffff"
     bordercolor="#666666"
     borderopacity="1"
     objecttolerance="10"
     gridtolerance="10"
     guidetolerance="10"
     inkscape:pageopacity="0"
     inkscape:pageshadow="2"
     inkscape:window-width="1920"
     inkscape:window-height="1018"
     id="namedview14"
     showgrid="false"
     inkscape:zoom="7.54"
     inkscape:cx="-6.2485153"
     inkscape:cy="24"
     inkscape:window-x="0"
     inkscape:window-y="32"
     inkscape:window-maximized="1"
     inkscape:current-layer="svg12" />
  <path
     inkscape:connector-curvature="0"
     id="path4512"
     d="M 13.968002,27.905789 A 0.49963688,0.66020605 60 0 1 13.3786,27.957639 L 9.3177117,26.26183 5.2536164,24.565617 a 0.49963688,0.66020605 60 0 1 0.1210797,-0.935214 l 4.6249476,-2.670215 4.6249483,-2.670215 a 0.49963688,0.66020605 60 0 1 0.868225,0.364039 l -0.560851,4.366427 -0.561829,4.364739 a 0.49963688,0.66020605 60 0 1 -0.402135,0.520611 z"
     style="opacity:0.2;fill:#000000;fill-opacity:1;stroke:none;stroke-width:16.07983589;stroke-linecap:round;stroke-linejoin:round;stroke-miterlimit:4;stroke-dasharray:none;stroke-dashoffset:0;stroke-opacity:1" />
  <path
     style="opacity:1;fill:#ffd956;fill-opacity:1;stroke:none;stroke-width:16.07983589;stroke-linecap:round;stroke-linejoin:round;stroke-miterlimit:4;stroke-dasharray:none;stroke-dashoffset:0;stroke-opacity:1"
     d="M 13.968002,26.905789 A 0.49963688,0.66020605 60 0 1 13.3786,26.957639 L 9.3177117,25.26183 5.2536164,23.565617 a 0.49963688,0.66020605 60 0 1 0.1210797,-0.935214 l 4.6249476,-2.670215 4.6249483,-2.670215 a 0.49963688,0.66020605 60 0 1 0.868225,0.364039 l -0.560851,4.366427 -0.561829,4.364739 a 0.49963688,0.66020605 60 0 1 -0.402135,0.520611 z"
     id="path4508"
     inkscape:connector-curvature="0" />
  <path
     style="opacity:0.1;fill:#ffffff;fill-opacity:1;stroke:none;stroke-width:16.07983589;stroke-linecap:round;stroke-linejoin:round;stroke-miterlimit:4;stroke-dasharray:none;stroke-dashoffset:0;stroke-opacity:1"
     d="M 14.990234 17.179688 A 0.49963688 0.66020605 60 0 0 14.625 17.289062 L 10 19.960938 L 5.375 22.630859 A 0.49963688 0.66020605 60 0 0 5.2539062 23.566406 L 5.3886719 23.623047 L 10 20.960938 L 14.625 18.289062 A 0.49963688 0.66020605 60 0 1 15.404297 18.337891 L 15.492188 17.654297 A 0.49963688 0.66020605 60 0 0 14.990234 17.179688 z "
     id="path4524" />
  <path
     style="opacity:0.2;fill:#000000;fill-opacity:1;stroke:none;stroke-width:16.07983589;stroke-linecap:round;stroke-linejoin:round;stroke-miterlimit:4;stroke-dasharray:none;stroke-dashoffset:0;stroke-opacity:1"
     d="M 12.965187,25.999246 A 0.66020605,0.49963688 0 0 1 12.428823,25.749451 L 9.7598972,22.250391 7.0883936,18.74938 A 0.66020605,0.49963688 0 0 1 7.6608591,18 h 5.3404299 5.340429 a 0.66020605,0.49963688 0 0 1 0.569886,0.74938 l -2.668925,3.501011 -2.668927,3.49906 a 0.66020605,0.49963688 0 0 1 -0.608565,0.249795 z"
     id="path4514"
     inkscape:connector-curvature="0" />
  <path
     inkscape:connector-curvature="0"
     id="path4506"
     d="M 12.965187,24.999246 A 0.66020605,0.49963688 0 0 1 12.428823,24.749451 L 9.7598972,21.250391 7.0883936,17.74938 A 0.66020605,0.49963688 0 0 1 7.6608591,17 h 5.3404299 5.340429 a 0.66020605,0.49963688 0 0 1 0.569886,0.74938 l -2.668925,3.501011 -2.668927,3.49906 a 0.66020605,0.49963688 0 0 1 -0.608565,0.249795 z"
     style="opacity:1;fill:#ffab1e;fill-opacity:1;stroke:none;stroke-width:16.07983589;stroke-linecap:round;stroke-linejoin:round;stroke-miterlimit:4;stroke-dasharray:none;stroke-dashoffset:0;stroke-opacity:1" />
  <path
     inkscape:connector-curvature="0"
     style="opacity:0.2;fill:#000000;fill-opacity:1;stroke-width:0.85839182"
     id="path4520"
     d="M 18.534261,5.0008453 A 2.4767865,3.1387265 0 0 0 16,8.1383716 V 41.863582 a 2.4767865,3.1387265 0 0 0 3.715141,2.715936 l 11.523656,-8.429803 11.522919,-8.430803 a 2.4767865,3.1387265 0 0 0 0,-5.436274 L 31.238797,13.850837 19.715141,5.420235 A 2.4767865,3.1387265 0 0 0 18.534187,5.0008453 Z" />
  <path
     inkscape:connector-curvature="0"
     id="path4516"
     d="m 14.141188,23.202062 a 0.66020605,0.49963688 9.6312633 0 0 -0.570596,0.156537 l -3.216723,3.003211 -3.2195925,3.004704 a 0.66020605,0.49963688 9.6312633 0 0 0.4390202,0.834594 l 5.2651573,0.89349 5.265155,0.89349 a 0.66020605,0.49963688 9.6312633 0 0 0.68723,-0.643472 l -2.045564,-3.898193 -2.045892,-3.896269 a 0.66020605,0.49963688 9.6312633 0 0 -0.558195,-0.348092 z"
     style="opacity:0.2;fill:#000000;fill-opacity:1;stroke:none;stroke-width:16.07983589;stroke-linecap:round;stroke-linejoin:round;stroke-miterlimit:4;stroke-dasharray:none;stroke-dashoffset:0;stroke-opacity:1" />
  <path
     style="opacity:1;fill:#ff8818;fill-opacity:1;stroke:none;stroke-width:16.07983589;stroke-linecap:round;stroke-linejoin:round;stroke-miterlimit:4;stroke-dasharray:none;stroke-dashoffset:0;stroke-opacity:1"
     d="m 14.141188,22.202062 a 0.66020605,0.49963688 9.6312633 0 0 -0.570596,0.156537 l -3.216723,3.003211 -3.2195925,3.004704 a 0.66020605,0.49963688 9.6312633 0 0 0.4390202,0.834594 l 5.2651573,0.89349 5.265155,0.89349 a 0.66020605,0.49963688 9.6312633 0 0 0.68723,-0.643472 l -2.045564,-3.898193 -2.045892,-3.896269 a 0.66020605,0.49963688 9.6312633 0 0 -0.558195,-0.348092 z"
     id="path4510"
     inkscape:connector-curvature="0" />
  <rect
     ry="2"
     y="16"
     x="13"
     height="18"
     width="18"
     id="rect4518"
     style="opacity:0.2;fill:#000000;fill-opacity:1;stroke:none;stroke-width:15.28431511;stroke-linecap:round;stroke-linejoin:round;stroke-miterlimit:4;stroke-dasharray:none;stroke-dashoffset:0;stroke-opacity:1" />
  <path
     style="opacity:0.1;fill:#ffffff;fill-opacity:1;stroke:none;stroke-width:16.07983589;stroke-linecap:round;stroke-linejoin:round;stroke-miterlimit:4;stroke-dasharray:none;stroke-dashoffset:0;stroke-opacity:1"
     d="M 7.6601562 17 A 0.66020605 0.49963688 0 0 0 7.0878906 17.75 L 7.3300781 18.068359 A 0.66020605 0.49963688 0 0 1 7.6601562 18 L 13.001953 18 L 18.341797 18 A 0.66020605 0.49963688 0 0 1 18.669922 18.068359 L 18.912109 17.75 A 0.66020605 0.49963688 0 0 0 18.341797 17 L 13.001953 17 L 7.6601562 17 z "
     id="path4526" />
  <path
     style="opacity:0.1;fill:#ffffff;fill-opacity:1;stroke:none;stroke-width:16.07983589;stroke-linecap:round;stroke-linejoin:round;stroke-miterlimit:4;stroke-dasharray:none;stroke-dashoffset:0;stroke-opacity:1"
     d="M 14.009766 22.195312 A 0.66020605 0.49963688 9.6312633 0 0 13.570312 22.359375 L 10.353516 25.361328 L 7.1347656 28.367188 A 0.66020605 0.49963688 9.6312633 0 0 7.375 29.142578 L 10.353516 26.361328 L 13.570312 23.359375 A 0.66020605 0.49963688 9.6312633 0 1 14.140625 23.201172 A 0.66020605 0.49963688 9.6312633 0 1 14.699219 23.550781 L 16.746094 27.447266 L 18.572266 30.927734 A 0.66020605 0.49963688 9.6312633 0 0 18.791016 30.34375 L 16.746094 26.447266 L 14.699219 22.550781 A 0.66020605 0.49963688 9.6312633 0 0 14.140625 22.201172 A 0.66020605 0.49963688 9.6312633 0 0 14.009766 22.195312 z "
     id="path4528" />
  <rect
     style="opacity:1;fill:#0270af;fill-opacity:1;stroke:none;stroke-width:15.28431511;stroke-linecap:round;stroke-linejoin:round;stroke-miterlimit:4;stroke-dasharray:none;stroke-dashoffset:0;stroke-opacity:1"
     id="rect4497"
     width="18"
     height="18"
     x="13"
     y="15"
     ry="2" />
  <path
     style="opacity:0.1;fill:#ffffff;fill-opacity:1;stroke:none;stroke-width:15.28431511;stroke-linecap:round;stroke-linejoin:round;stroke-miterlimit:4;stroke-dasharray:none;stroke-dashoffset:0;stroke-opacity:1"
     d="M 15 15 C 13.892 15 13 15.892 13 17 L 13 18 C 13 16.892 13.892 16 15 16 L 29 16 C 30.108 16 31 16.892 31 18 L 31 17 C 31 15.892 30.108 15 29 15 L 15 15 z "
     id="rect4530" />
  <path
     d="M 18.534261,4.0008451 A 2.4767865,3.1387265 0 0 0 16,7.1383714 V 40.863582 a 2.4767865,3.1387265 0 0 0 3.715141,2.715936 l 11.523656,-8.429803 11.522919,-8.430803 a 2.4767865,3.1387265 0 0 0 0,-5.436274 L 31.238797,12.850837 19.715141,4.4202348 A 2.4767865,3.1387265 0 0 0 18.534187,4.0008451 Z"
     id="path2"
     style="opacity:1;fill:#2a91c6;fill-opacity:1;stroke-width:0.85839182"
     inkscape:connector-curvature="0" />
  <path
     inkscape:connector-curvature="0"
     id="path4522"
     d="m 34.870327,24.607495 a 0.87436464,1.1003436 0 0 1 -0.43714,0.89394 l -6.123355,4.448212 -6.126771,4.452506 a 0.87436464,1.1003436 0 0 1 -1.311414,-0.954107 v -8.900719 -8.900718 a 0.87436464,1.1003436 0 0 1 1.311414,-0.94981 l 6.126771,4.448208 6.123355,4.448212 a 0.87436464,1.1003436 0 0 1 0.43714,1.014276 z"
     style="opacity:0.2;fill:#000000;fill-opacity:1;stroke:none;stroke-width:27.46155167;stroke-linecap:round;stroke-linejoin:round;stroke-miterlimit:4;stroke-dasharray:none;stroke-dashoffset:0;stroke-opacity:1" />
  <path
     style="opacity:1;fill:#ffb445;fill-opacity:1;stroke:none;stroke-width:27.46155167;stroke-linecap:round;stroke-linejoin:round;stroke-miterlimit:4;stroke-dasharray:none;stroke-dashoffset:0;stroke-opacity:1"
     d="m 34.870327,23.607495 a 0.87436464,1.1003436 0 0 1 -0.43714,0.89394 l -6.123355,4.448212 -6.126771,4.452506 a 0.87436464,1.1003436 0 0 1 -1.311414,-0.954107 v -8.900719 -8.900718 a 0.87436464,1.1003436 0 0 1 1.311414,-0.94981 l 6.126771,4.448208 6.123355,4.448212 a 0.87436464,1.1003436 0 0 1 0.43714,1.014276 z"
     id="path4499"
     inkscape:connector-curvature="0" />
  <path
     style="opacity:0.2;fill:#ffffff;fill-opacity:1;stroke-width:0.85839182"
     d="M 18.535156 4 A 2.4767865 3.1387265 0 0 0 16 7.1386719 L 16 8.1386719 A 2.4767865 3.1387265 0 0 1 18.535156 5 A 2.4767865 3.1387265 0 0 1 19.714844 5.4199219 L 31.238281 13.851562 L 42.761719 22.283203 A 2.4767865 3.1387265 0 0 1 43.966797 24.498047 A 2.4767865 3.1387265 0 0 0 42.761719 21.283203 L 31.238281 12.851562 L 19.714844 4.4199219 A 2.4767865 3.1387265 0 0 0 18.535156 4 z "
     id="path4532" />
  <path
     style="opacity:0.1;fill:#ffffff;fill-opacity:1;stroke:none;stroke-width:27.46155167;stroke-linecap:round;stroke-linejoin:round;stroke-miterlimit:4;stroke-dasharray:none;stroke-dashoffset:0;stroke-opacity:1"
     d="M 21.773438 13.550781 A 0.87436464 1.1003436 0 0 0 20.871094 14.646484 L 20.871094 15.646484 A 0.87436464 1.1003436 0 0 1 22.183594 14.697266 L 28.310547 19.144531 L 34.433594 23.59375 A 0.87436464 1.1003436 0 0 1 34.775391 24.048828 A 0.87436464 1.1003436 0 0 0 34.871094 23.607422 A 0.87436464 1.1003436 0 0 0 34.433594 22.59375 L 28.310547 18.144531 L 22.183594 13.697266 A 0.87436464 1.1003436 0 0 0 21.773438 13.550781 z "
     id="path4534" />
</svg>
