<?xml version="1.0" encoding="UTF-8" standalone="no"?>
<svg
   xmlns:dc="http://purl.org/dc/elements/1.1/"
   xmlns:cc="http://creativecommons.org/ns#"
   xmlns:rdf="http://www.w3.org/1999/02/22-rdf-syntax-ns#"
   xmlns:svg="http://www.w3.org/2000/svg"
   xmlns="http://www.w3.org/2000/svg"
   xmlns:sodipodi="http://sodipodi.sourceforge.net/DTD/sodipodi-0.dtd"
   xmlns:inkscape="http://www.inkscape.org/namespaces/inkscape"
   height="48"
   width="48"
   version="1"
   id="svg10"
   sodipodi:docname="sberbank.svg"
   inkscape:version="0.91 r13725">
  <metadata
     id="metadata16">
    <rdf:RDF>
      <cc:Work
         rdf:about="">
        <dc:format>image/svg+xml</dc:format>
        <dc:type
           rdf:resource="http://purl.org/dc/dcmitype/StillImage" />
        <dc:title />
      </cc:Work>
    </rdf:RDF>
  </metadata>
  <defs
     id="defs14" />
  <sodipodi:namedview
     pagecolor="#ffffff"
     bordercolor="#666666"
     borderopacity="1"
     objecttolerance="10"
     gridtolerance="10"
     guidetolerance="10"
     inkscape:pageopacity="0"
     inkscape:pageshadow="2"
     inkscape:window-width="1920"
     inkscape:window-height="1018"
     id="namedview12"
     showgrid="false"
     inkscape:zoom="8.58"
     inkscape:cx="-0.41724942"
     inkscape:cy="24"
     inkscape:window-x="0"
     inkscape:window-y="32"
     inkscape:window-maximized="1"
     inkscape:current-layer="svg10" />
  <path
     d="M 23,4 C 11.92,4 3,12.92 3,24 3,35.08 11.92,44 23,44 34.08,44 43,35.08 43,24 43,12.92 34.08,4 23,4 Z"
     id="path4"
     inkscape:connector-curvature="0"
     style="fill:#259432;fill-opacity:1"
     sodipodi:nodetypes="sssss" />
  <path
     opacity=".1"
     d="m23 4c11.07 0 19.982 8.92 19.982 20 0 0.16787-0.008 0.33314-0.01169 0.5-0.264-10.846-9.068-19.5-19.97-19.5s-19.706 8.654-19.97 19.5c-0.004-0.16686-0.011689-0.33213-0.011689-0.5 0-11.08 8.9119-20 19.982-20z"
     fill="#fff"
     id="path6"
     style="opacity:0.2" />
  <path
     opacity=".2"
     d="m3.0117 24.5c-0.0041 0.167-0.0117 0.332-0.0117 0.5 0 11.08 8.92 20 20 20s20-8.92 20-20c0-0.168-0.008-0.333-0.012-0.5-0.264 10.846-9.076 19.5-19.988 19.5s-19.724-8.654-19.988-19.5z"
     id="path8" />
  <path
     sodipodi:nodetypes="cccccccccccccccccccccccccscc"
     inkscape:connector-curvature="0"
     id="path4499"
     d="M 24.851562,12.148438 18,19 14.332031,15.332031 c -0.351846,0.314256 -0.686325,0.647431 -1.001953,0.998047 L 18,21 26.505859,12.494141 c -0.54335,-0.150994 -1.09595,-0.266472 -1.654297,-0.345703 z M 27.998047,13.001953 18,23 12.439453,17.439453 c -0.282852,0.391424 -0.543673,0.798304 -0.78125,1.21875 L 18,25 29.341797,13.658203 c -0.434953,-0.244353 -0.883612,-0.463465 -1.34375,-0.65625 z m 2.5625,1.4375 L 18,27 11.001953,20.001953 c -0.199297,0.486667 -0.368879,0.984979 -0.507812,1.492188 L 18,29 31.669922,15.330078 C 31.316664,15.013176 30.946318,14.715856 30.560547,14.439453 Z M 32.667969,16.332031 18,31 10.148438,23.148438 C 10.054868,23.761296 10.005266,24.380063 10,25 c 0,7.179702 5.820298,13 13,13 7.179702,0 13,-5.820298 13,-13 -0.0056,-3.20101 -1.192068,-6.287411 -3.332031,-8.667969 z"
     style="opacity:0.2;fill:#000000;fill-opacity:1;stroke:none;stroke-width:2;stroke-linecap:round;stroke-linejoin:round;stroke-miterlimit:4;stroke-dasharray:none;stroke-opacity:1" />
  <path
     style="opacity:1;fill:#ffffff;fill-opacity:1;stroke:none;stroke-width:2;stroke-linecap:round;stroke-linejoin:round;stroke-miterlimit:4;stroke-dasharray:none;stroke-opacity:1"
     d="M 24.851562,11.148438 18,18 14.332031,14.332031 c -0.351846,0.314256 -0.686325,0.647431 -1.001953,0.998047 L 18,20 26.505859,11.494141 c -0.54335,-0.150994 -1.09595,-0.266472 -1.654297,-0.345703 z M 27.998047,12.001953 18,22 12.439453,16.439453 c -0.282852,0.391424 -0.543673,0.798304 -0.78125,1.21875 L 18,24 29.341797,12.658203 c -0.434953,-0.244353 -0.883612,-0.463465 -1.34375,-0.65625 z m 2.5625,1.4375 L 18,26 11.001953,19.001953 c -0.199297,0.486667 -0.368879,0.984979 -0.507812,1.492188 L 18,28 31.669922,14.330078 C 31.316664,14.013176 30.946318,13.715856 30.560547,13.439453 Z M 32.667969,15.332031 18,30 10.148438,22.148438 C 10.054868,22.761296 10.005266,23.380063 10,24 c 0,7.179702 5.820298,13 13,13 7.179702,0 13,-5.820298 13,-13 -0.0056,-3.20101 -1.192068,-6.287411 -3.332031,-8.667969 z"
     id="path4422"
     inkscape:connector-curvature="0"
     sodipodi:nodetypes="cccccccccccccccccccccccccscc" />
</svg>
