<?xml version="1.0" encoding="UTF-8" standalone="no"?>
<svg
   xmlns:dc="http://purl.org/dc/elements/1.1/"
   xmlns:cc="http://creativecommons.org/ns#"
   xmlns:rdf="http://www.w3.org/1999/02/22-rdf-syntax-ns#"
   xmlns:svg="http://www.w3.org/2000/svg"
   xmlns="http://www.w3.org/2000/svg"
   xmlns:sodipodi="http://sodipodi.sourceforge.net/DTD/sodipodi-0.dtd"
   xmlns:inkscape="http://www.inkscape.org/namespaces/inkscape"
   height="48"
   width="48"
   version="1"
   id="svg14"
   sodipodi:docname="shuttle-music-player.svg"
   inkscape:version="0.92.1 r15371">
  <metadata
     id="metadata20">
    <rdf:RDF>
      <cc:Work
         rdf:about="">
        <dc:format>image/svg+xml</dc:format>
        <dc:type
           rdf:resource="http://purl.org/dc/dcmitype/StillImage" />
        <dc:title />
      </cc:Work>
    </rdf:RDF>
  </metadata>
  <defs
     id="defs18" />
  <sodipodi:namedview
     pagecolor="#ffffff"
     bordercolor="#666666"
     borderopacity="1"
     objecttolerance="10"
     gridtolerance="10"
     guidetolerance="10"
     inkscape:pageopacity="0"
     inkscape:pageshadow="2"
     inkscape:window-width="1600"
     inkscape:window-height="822"
     id="namedview16"
     showgrid="false"
     inkscape:zoom="14.06"
     inkscape:cx="10.059744"
     inkscape:cy="29.09619"
     inkscape:window-x="0"
     inkscape:window-y="0"
     inkscape:window-maximized="1"
     inkscape:current-layer="svg14">
    <inkscape:grid
       type="xygrid"
       id="grid4497" />
  </sodipodi:namedview>
  <g
     transform="translate(1.000145,1)"
     id="g4505"
     style="opacity:0.1;fill:#ffffff;fill-opacity:1" />
  <g
     style="opacity:0.2;fill:#000000;fill-opacity:1"
     id="g4570"
     transform="translate(1.000145,-4.44e-5)">
    <path
       sodipodi:nodetypes="csccsccscccc"
       inkscape:connector-curvature="0"
       id="path4568"
       transform="translate(-1.000145,4.4348525e-5)"
       d="m 21,6 c -5,-8.87e-5 -6,2 -6,6 V 26.265625 C 14.347,26.092625 13.675,26.004 13,26 c -4.4183,0 -8,3.5817 -8,8 0,4.4183 3.5817,8 8,8 4.0287,-0.0038 7.426087,-3.0029 7.929688,-7 0,0 0.08269,-0.727601 0.07031,-1 V 12 H 30 L 28,6 Z"
       style="fill:#000000;fill-opacity:1" />
  </g>
  <g
     transform="translate(1.000145,1.9999557)"
     id="g4566"
     style="opacity:0.2;fill:#000000;fill-opacity:1">
    <path
       sodipodi:nodetypes="cccccscccccc"
       inkscape:connector-curvature="0"
       id="path4564"
       transform="translate(-1.000145,4.4348525e-5)"
       d="m 26,6 3,6 h 8 V 26.265625 C 36.347,26.092625 35.675,26.004 35,26 c -4.4183,0 -8,3.5817 -8,8 0,4.4183 3.5817,8 8,8 4.0287,-0.0038 7.426088,-3.0029 7.929688,-7 L 43,34 V 12 C 43.00029,8 41,5.9996822 37,6 Z"
       style="fill:#000000;fill-opacity:1" />
  </g>
  <g
     style="fill:#118dd9;fill-opacity:1"
     id="g4535"
     transform="translate(1.000145,0.9999557)">
    <path
       style="fill:#118dd9;fill-opacity:1"
       d="m 26,6 3,6 h 8 V 26.265625 C 36.347,26.092625 35.675,26.004 35,26 c -4.4183,0 -8,3.5817 -8,8 0,4.4183 3.5817,8 8,8 4.0287,-0.0038 7.426088,-3.0029 7.929688,-7 L 43,34 V 12 C 43.00029,8 41,5.9996822 37,6 Z"
       transform="translate(-1.000145,4.4348525e-5)"
       id="path4533"
       inkscape:connector-curvature="0"
       sodipodi:nodetypes="cccccscccccc" />
  </g>
  <g
     transform="translate(1.000145,0.9999557)"
     id="g4548"
     style="opacity:0.2;fill:#ffffff;fill-opacity:1">
    <path
       inkscape:connector-curvature="0"
       style="fill:#ffffff;fill-opacity:1"
       d="m 26,8 0.5,1 H 37 c 4,-3.178e-4 6.00029,2 6,6 v -1 c 2.9e-4,-4 -2,-6.0003178 -6,-6 z m 9,20 c -4.4183,0 -8,3.5817 -8,8 0,0.168723 0.0151,0.333869 0.02539,0.5 C 27.284646,32.315729 30.750423,29 35,29 c 0.675,0.004 1.347,0.09263 2,0.265625 v -1 C 36.347,28.092625 35.675,28.004 35,28 Z"
       transform="translate(-1.000145,-1.9999557)"
       id="path4546" />
  </g>
  <g
     transform="translate(1.000145,-1.0000443)"
     id="g4"
     style="fill:#48baf4;fill-opacity:1">
    <path
       style="fill:#48baf4;fill-opacity:1"
       d="m 21,6 c -5,-8.87e-5 -6,2 -6,6 V 26.265625 C 14.347,26.092625 13.675,26.004 13,26 c -4.4183,0 -8,3.5817 -8,8 0,4.4183 3.5817,8 8,8 4.0287,-0.0038 7.426087,-3.0029 7.929688,-7 0,0 0.08269,-0.727601 0.07031,-1 V 12 H 30 L 28,6 Z"
       transform="translate(-1.000145,4.4348525e-5)"
       id="path2"
       inkscape:connector-curvature="0"
       sodipodi:nodetypes="csccsccscccc" />
  </g>
  <g
     style="opacity:0.2;fill:#ffffff;fill-opacity:1"
     id="g4552"
     transform="translate(1.000145,-1.0000443)">
    <path
       inkscape:connector-curvature="0"
       style="fill:#ffffff;fill-opacity:1"
       d="m 21,6 c -5,-8.87e-5 -6,2 -6,6 v 1 c 0,-4 1,-6.0000887 6,-6 h 7 l 1.666016,5 H 30 L 28,6 Z m -8,20 c -4.4183,0 -8,3.5817 -8,8 0,0.168723 0.015097,0.333869 0.025391,0.5 C 5.2846459,30.315729 8.7504235,27 13,27 c 0.675,0.004 1.347,0.09263 2,0.265625 v -1 C 14.347,26.092625 13.675,26.004 13,26 Z"
       transform="translate(-1.000145,4.4348525e-5)"
       id="path4550" />
  </g>
  <path
     inkscape:connector-curvature="0"
     style="opacity:0.3;fill:#000000;fill-opacity:1;stroke:none;stroke-width:2.48161292;stroke-linecap:round;stroke-linejoin:round;stroke-miterlimit:4;stroke-dasharray:none;stroke-dashoffset:0;stroke-opacity:1"
     inkscape:transform-center-x="-0.26930583"
     inkscape:transform-center-y="1.6968065"
     d="M 30,11 29.5,12 29,13 28.5,12 28,11 h 1 z"
     id="path4543" />
  <g
     style="opacity:0.2;fill:#ffffff;fill-opacity:1"
     id="g4556"
     transform="translate(1.000145,1.9999557)" />
  <g
     transform="translate(1.000145,-4.44e-5)"
     id="g4560"
     style="opacity:0.2;fill:#ffffff;fill-opacity:1" />
</svg>
