<?xml version="1.0" encoding="UTF-8" standalone="no"?>
<svg
   xmlns:dc="http://purl.org/dc/elements/1.1/"
   xmlns:cc="http://creativecommons.org/ns#"
   xmlns:rdf="http://www.w3.org/1999/02/22-rdf-syntax-ns#"
   xmlns:svg="http://www.w3.org/2000/svg"
   xmlns="http://www.w3.org/2000/svg"
   xmlns:sodipodi="http://sodipodi.sourceforge.net/DTD/sodipodi-0.dtd"
   xmlns:inkscape="http://www.inkscape.org/namespaces/inkscape"
   height="48"
   width="48"
   version="1"
   id="svg20"
   sodipodi:docname="smart-eq.svg"
   inkscape:version="0.92.1 r15371">
  <metadata
     id="metadata26">
    <rdf:RDF>
      <cc:Work
         rdf:about="">
        <dc:format>image/svg+xml</dc:format>
        <dc:type
           rdf:resource="http://purl.org/dc/dcmitype/StillImage" />
        <dc:title />
      </cc:Work>
    </rdf:RDF>
  </metadata>
  <defs
     id="defs24" />
  <sodipodi:namedview
     pagecolor="#ffffff"
     bordercolor="#666666"
     borderopacity="1"
     objecttolerance="10"
     gridtolerance="10"
     guidetolerance="10"
     inkscape:pageopacity="0"
     inkscape:pageshadow="2"
     inkscape:window-width="1600"
     inkscape:window-height="822"
     id="namedview22"
     showgrid="true"
     inkscape:zoom="10.66"
     inkscape:cx="8.4038194"
     inkscape:cy="21.843666"
     inkscape:window-x="0"
     inkscape:window-y="0"
     inkscape:window-maximized="1"
     inkscape:current-layer="svg20">
    <inkscape:grid
       type="xygrid"
       id="grid4496" />
  </sodipodi:namedview>
  <path
     id="path4517"
     d="M 24,4.9994507 A 20,20 0 0 0 4,24.999451 a 20,20 0 0 0 20,20 20,20 0 0 0 12.433594,-4.335938 l 3.455078,3.455079 c 1.175211,1.175211 3.066976,1.175211 4.242187,0 1.175212,-1.175212 1.175212,-3.06893 0,-4.244141 L 40.521484,36.265076 A 20,20 0 0 0 44,24.999451 20,20 0 0 0 24,4.9994507 Z"
     style="opacity:0.2;fill:#000000;fill-opacity:1;stroke:none;stroke-width:9.93610191;stroke-linecap:square;stroke-linejoin:miter;stroke-miterlimit:4;stroke-dasharray:none;stroke-dashoffset:0;stroke-opacity:1"
     inkscape:connector-curvature="0" />
  <path
     style="opacity:1;fill:#fcbc30;fill-opacity:1;stroke:none;stroke-width:9.93610191;stroke-linecap:square;stroke-linejoin:miter;stroke-miterlimit:4;stroke-dasharray:none;stroke-dashoffset:0;stroke-opacity:1"
     d="M 24 4 A 20 20 0 0 0 4 24 A 20 20 0 0 0 24 44 A 20 20 0 0 0 36.433594 39.664062 L 39.888672 43.119141 C 41.063883 44.294352 42.955648 44.294352 44.130859 43.119141 C 45.306071 41.943929 45.306071 40.050211 44.130859 38.875 L 40.521484 35.265625 A 20 20 0 0 0 44 24 A 20 20 0 0 0 24 4 z "
     id="path4490" />
  <path
     style="enable-background:new;fill:#3f3f3f;fill-opacity:1"
     d="M 24 9 A 15 15 0 0 0 9.3203125 21 L 23 21 L 23 27 L 9.3046875 27 A 15 15 0 0 0 24 39 A 15 15 0 0 0 39 24 A 15 15 0 0 0 24 9 z "
     id="circle8" />
  <path
     style="enable-background:new;fill:#4f4f4f;fill-opacity:1"
     d="M 24 11 A 13 13 0 0 0 11.367188 21 L 23 21 L 23 27 L 11.365234 27 A 13 13 0 0 0 24 37 A 13 13 0 0 0 37 24 A 13 13 0 0 0 24 11 z "
     id="circle10" />
  <circle
     id="circle4488"
     r="6"
     cy="-24"
     transform="matrix(0,-1,-1,0,0,0)"
     cx="-25"
     style="opacity:0.2;fill:#000000;fill-opacity:1;enable-background:new" />
  <circle
     style="enable-background:new"
     cx="-24"
     transform="matrix(0,-1,-1,0,0,0)"
     cy="-24"
     r="6"
     fill="#3f3f3f"
     id="circle12" />
  <path
     style="opacity:0.2;fill:#fffdf9;fill-opacity:1;stroke:none;stroke-width:9.93610191;stroke-linecap:square;stroke-linejoin:miter;stroke-miterlimit:4;stroke-dasharray:none;stroke-dashoffset:0;stroke-opacity:1"
     d="M 24 4 A 20 20 0 0 0 4 24 A 20 20 0 0 0 4.0214844 24.417969 A 20 20 0 0 1 24 5 A 20 20 0 0 1 43.974609 24.5 A 20 20 0 0 0 44 24 A 20 20 0 0 0 24 4 z M 40.900391 35.644531 A 20 20 0 0 1 40.521484 36.265625 L 44.130859 39.875 C 44.590137 40.334277 44.864541 40.903116 44.964844 41.496094 C 45.120577 40.57223 44.846362 39.590502 44.130859 38.875 L 40.900391 35.644531 z "
     id="path4512" />
</svg>
