<?xml version="1.0" encoding="UTF-8" standalone="no"?>
<svg
   xmlns:dc="http://purl.org/dc/elements/1.1/"
   xmlns:cc="http://creativecommons.org/ns#"
   xmlns:rdf="http://www.w3.org/1999/02/22-rdf-syntax-ns#"
   xmlns:svg="http://www.w3.org/2000/svg"
   xmlns="http://www.w3.org/2000/svg"
   xmlns:sodipodi="http://sodipodi.sourceforge.net/DTD/sodipodi-0.dtd"
   xmlns:inkscape="http://www.inkscape.org/namespaces/inkscape"
   height="48"
   width="48"
   version="1"
   id="svg18"
   sodipodi:docname="sputnik.svg"
   inkscape:version="0.92.1 r15371">
  <metadata
     id="metadata24">
    <rdf:RDF>
      <cc:Work
         rdf:about="">
        <dc:format>image/svg+xml</dc:format>
        <dc:type
           rdf:resource="http://purl.org/dc/dcmitype/StillImage" />
        <dc:title></dc:title>
      </cc:Work>
    </rdf:RDF>
  </metadata>
  <defs
     id="defs22" />
  <sodipodi:namedview
     pagecolor="#ffffff"
     bordercolor="#666666"
     borderopacity="1"
     objecttolerance="10"
     gridtolerance="10"
     guidetolerance="10"
     inkscape:pageopacity="0"
     inkscape:pageshadow="2"
     inkscape:window-width="1600"
     inkscape:window-height="822"
     id="namedview20"
     showgrid="false"
     inkscape:zoom="2.49"
     inkscape:cx="14.424958"
     inkscape:cy="20.58133"
     inkscape:window-x="0"
     inkscape:window-y="0"
     inkscape:window-maximized="1"
     inkscape:current-layer="svg18">
    <inkscape:grid
       type="xygrid"
       id="grid4522" />
  </sodipodi:namedview>
  <rect
     transform="matrix(0,-1,-1,0,0,0)"
     rx="20"
     ry="20"
     height="40"
     width="40"
     y="-44"
     x="-45"
     id="rect4518"
     style="opacity:0.2;fill:#000000;fill-opacity:1;stroke-width:1.00090075" />
  <rect
     style="fill:#49a2e2;fill-opacity:1;stroke-width:1.00090075"
     id="rect2"
     x="-44"
     y="-44"
     width="40"
     height="40"
     ry="20"
     rx="20"
     transform="matrix(0,-1,-1,0,0,0)" />
  <path
     style="fill:#ffffff;fill-opacity:1;stroke-width:1.00090075;opacity:0.2"
     d="M 24 4 C 12.92 4 4 12.92 4 24 C 4 24.167874 4.007647 24.333141 4.0117188 24.5 C 4.2763904 13.653863 13.087874 5 24 5 C 34.912126 5 43.72361 13.653863 43.988281 24.5 C 43.992353 24.333141 44 24.167874 44 24 C 44 12.92 35.08 4 24 4 z "
     id="rect4513" />
  <path
     id="path4532"
     d="M 24,12 A 13,13 0 0 0 11.210938,22.732422 l 10.947265,-3.439453 0.01758,-0.002 A 6,6 0 0 1 24,19 a 6,6 0 0 1 6,6 6,6 0 0 1 -1.902344,4.376953 l -0.0078,0.01367 -8.44336,7.84375 A 13,13 0 0 0 24,38 13,13 0 0 0 37,25 13,13 0 0 0 24,12 Z m -5.458984,10.527344 -7.535157,2.367187 A 13,13 0 0 0 11,25 a 13,13 0 0 0 1.359375,5.775391 l 6.087891,-3.515625 A 6,6 0 0 1 18,25 6,6 0 0 1 18.541016,22.527344 Z m 0.96289,6.433594 -6.111328,3.527343 a 13,13 0 0 0 4.273438,3.857422 l 5.783203,-5.373047 a 6,6 0 0 1 -3.945313,-2.011718 z"
     style="opacity:0.2;vector-effect:none;fill:#000000;fill-opacity:1;stroke:none;stroke-width:10.96829224;stroke-linecap:round;stroke-linejoin:round;stroke-miterlimit:4;stroke-dasharray:none;stroke-dashoffset:0;stroke-opacity:1"
     inkscape:connector-curvature="0" />
  <path
     style="opacity:1;vector-effect:none;fill:#ffffff;fill-opacity:1;stroke:none;stroke-width:10.96829224;stroke-linecap:round;stroke-linejoin:round;stroke-miterlimit:4;stroke-dasharray:none;stroke-dashoffset:0;stroke-opacity:1"
     d="M 24 11 A 13 13 0 0 0 11.210938 21.732422 L 22.158203 18.292969 L 22.175781 18.291016 A 6 6 0 0 1 24 18 A 6 6 0 0 1 30 24 A 6 6 0 0 1 28.097656 28.376953 L 28.089844 28.390625 L 19.646484 36.234375 A 13 13 0 0 0 24 37 A 13 13 0 0 0 37 24 A 13 13 0 0 0 24 11 z M 18.541016 21.527344 L 11.005859 23.894531 A 13 13 0 0 0 11 24 A 13 13 0 0 0 12.359375 29.775391 L 18.447266 26.259766 A 6 6 0 0 1 18 24 A 6 6 0 0 1 18.541016 21.527344 z M 19.503906 27.960938 L 13.392578 31.488281 A 13 13 0 0 0 17.666016 35.345703 L 23.449219 29.972656 A 6 6 0 0 1 19.503906 27.960938 z "
     id="path4503" />
</svg>
