<?xml version="1.0" encoding="UTF-8" standalone="no"?>
<svg
   xmlns:dc="http://purl.org/dc/elements/1.1/"
   xmlns:cc="http://creativecommons.org/ns#"
   xmlns:rdf="http://www.w3.org/1999/02/22-rdf-syntax-ns#"
   xmlns:svg="http://www.w3.org/2000/svg"
   xmlns="http://www.w3.org/2000/svg"
   xmlns:sodipodi="http://sodipodi.sourceforge.net/DTD/sodipodi-0.dtd"
   xmlns:inkscape="http://www.inkscape.org/namespaces/inkscape"
   height="48"
   width="48"
   version="1"
   id="svg12"
   sodipodi:docname="stellio-player.svg"
   inkscape:version="0.92.1 r15371">
  <metadata
     id="metadata18">
    <rdf:RDF>
      <cc:Work
         rdf:about="">
        <dc:format>image/svg+xml</dc:format>
        <dc:type
           rdf:resource="http://purl.org/dc/dcmitype/StillImage" />
        <dc:title></dc:title>
      </cc:Work>
    </rdf:RDF>
  </metadata>
  <defs
     id="defs16" />
  <sodipodi:namedview
     pagecolor="#ffffff"
     bordercolor="#666666"
     borderopacity="1"
     objecttolerance="10"
     gridtolerance="10"
     guidetolerance="10"
     inkscape:pageopacity="0"
     inkscape:pageshadow="2"
     inkscape:window-width="1600"
     inkscape:window-height="822"
     id="namedview14"
     showgrid="false"
     inkscape:zoom="1"
     inkscape:cx="26.801097"
     inkscape:cy="15.232294"
     inkscape:window-x="0"
     inkscape:window-y="0"
     inkscape:window-maximized="1"
     inkscape:current-layer="svg12">
    <inkscape:grid
       type="xygrid"
       id="grid4500" />
  </sodipodi:namedview>
  <rect
     transform="matrix(0,-1,-1,0,0,0)"
     rx="2"
     ry="2"
     height="40"
     width="40"
     y="-44"
     x="-44"
     fill="#f59335"
     id="rect2"
     style="fill:#3f3f3f;fill-opacity:1" />
  <path
     opacity=".2"
     d="m6 4c-1.108 0-2 0.892-2 2v1c0-1.108 0.892-2 2-2h36c1.108 0 2 0.892 2 2v-1c0-1.108-0.892-2-2-2h-36z"
     fill="#fff"
     id="path4"
     style="opacity:0.1" />
  <path
     opacity=".2"
     d="m6 45c-1.108 0-2-0.892-2-2v-1c0 1.108 0.892 2 2 2h36c1.108 0 2-0.892 2-2v1c0 1.108-0.892 2-2 2h-36z"
     id="path6" />
  <path
     id="path4559"
     d="m 29.613281,11 0.148438,0.324219 c 0.27325,0.595211 0.31534,1.412241 0.09375,1.800781 -0.120503,0.211291 -0.586923,0.537737 -1.03711,0.724609 C 28.368171,14.03648 28,14.225745 28,14.271484 c 0,0.04574 0.207941,0.157087 0.462891,0.248047 0.370509,0.13219 0.464843,0.287013 0.464843,0.765625 0,0.597395 0.243826,0.824981 0.708985,0.664063 0.180076,-0.06229 0.213519,-0.299991 0.126953,-0.890625 l -0.117188,-0.804688 0.46875,-0.414062 c 0.258301,-0.227711 0.563607,-0.6794 0.677735,-1.003906 L 31,12.246094 30.705078,11.822266 C 30.54292,11.590028 30.231141,11.309417 30.011719,11.199219 Z m 1.591797,0.002 C 31.080769,11.018258 31,11.133855 31,11.371094 c 0,0.777912 1.412582,2.27512 3.380859,3.582031 l 1.322266,0.876953 -0.474609,0.222656 c -0.758892,0.35362 -0.543014,1.096454 0.478515,1.650391 0.678104,0.367712 1.514684,0.394176 2.365235,0.07813 0.747548,-0.277778 1.146578,-0.909029 0.804687,-1.275391 -0.125013,-0.133966 -1.104028,-0.648254 -2.173828,-1.142578 -2.164851,-1.000316 -3.990792,-2.34127 -4.404297,-3.232422 -0.33231,-0.716164 -0.820272,-1.164775 -1.09375,-1.128906 z m -7.628906,4 c -0.848589,-0.01667 -1.632658,0.102782 -2.039063,0.365235 l -0.326171,0.210937 1.623046,-0.02344 c 0.855214,-0.07325 1.491799,-0.09061 2.208985,0.28125 0.322154,0.16716 0.620981,0.397575 0.664062,0.511718 l 0.07813,0.207032 -0.958984,-0.107422 c -1.345853,-0.148508 -4.023519,0.164925 -5.875,0.6875 -0.970661,0.165382 -1.544093,0.421869 -2.173828,1.037109 -0.990628,0.968403 -1.042609,2.259964 -0.109375,2.693359 0.514063,0.23873 1.349052,0.152089 1.96289,-0.203125 0.659328,-0.381537 1.174471,-1.367299 1.154297,-2.208984 l -0.01758,-0.707031 0.888672,-0.175782 c 1.718316,-0.340385 4.503155,-0.351747 6.371094,-0.02539 0.942047,0.164589 1.771145,0.268232 1.841797,0.230469 0.257116,-0.137428 0.118274,-0.498106 -0.257813,-0.671875 -0.21196,-0.09794 -0.693493,-0.426961 -1.070312,-0.730469 C 27.164198,16.069539 26.471024,15.656826 26,15.455078 25.338245,15.171637 24.424763,15.018626 23.576172,15.001953 Z m 12.539062,1.707031 0.425782,0.05664 c 0.233589,0.03028 0.457538,0.142562 0.498046,0.251953 0.10601,0.286272 -0.405351,0.245563 -0.685546,-0.05469 z M 38.544922,19 c -0.02898,0.0016 -0.05902,0.0059 -0.08984,0.01367 -0.378309,0.09522 -0.642703,0.991351 -0.291016,0.986328 0.1226,-0.0016 0.394715,-0.08645 0.603516,-0.1875 C 39.194665,19.605804 38.979741,18.975653 38.544922,19 Z m 0.539062,0 0.08789,0.761719 c 0.134492,1.18046 -0.106671,1.371476 -2.496094,1.980469 -1.597001,0.407026 -2.176723,0.490908 -2.888672,0.419921 -1.049507,-0.104643 -1.049508,0.118431 0.002,0.570313 0.835471,0.359059 0.837233,0.358179 2.359376,-0.01367 0.707763,-0.172905 1.664837,-0.418797 2.126953,-0.546875 l 0.839843,-0.232422 0.458985,-0.701172 c 0.570509,-0.869083 0.570473,-1.039592 -0.01758,-1.705078 z m -11.625,2 c -0.07951,-7.88e-4 -0.147835,0.0089 -0.197265,0.0293 L 27,21.136719 l 0.476562,0.433593 0.478516,0.431641 -0.232422,0.482422 c -0.290176,0.604898 -0.293317,1.059345 -0.0098,1.650391 0.143446,0.299025 0.171724,0.548942 0.08008,0.705078 -0.251341,0.428219 -0.155653,1.001282 0.236328,1.423828 0.511169,0.551032 0.863281,0.535462 0.863281,-0.03711 0,-0.909137 0.844616,-1.327361 1.765625,-0.875 0.402773,0.197828 0.72461,0.789948 0.724609,1.332032 0,0.420334 0.254908,0.422875 0.462891,0.0039 0.203633,-0.410162 0.205508,-1.115447 0.0059,-1.517578 -0.253969,-0.511558 -1.156739,-1.011719 -1.828124,-1.011719 -0.601559,0 -1.441407,-0.495582 -1.441407,-0.849609 0,-0.08437 0.245229,-0.263454 0.544922,-0.398438 0.598488,-0.269565 0.666064,-0.503477 0.306641,-1.05664 C 29.196663,21.488871 28.01558,21.00554 27.458984,21 Z m -14.300781,1 c -0.127052,-0.01174 -0.541183,0.293923 -1.226562,0.923828 -3.622979,3.329736 -4.986378,9.024204 -3.0527348,12.748047 0.4249266,0.81833 1.5856798,2.014636 2.4218748,2.496094 1.345033,0.77443 3.043204,1.022175 4.679688,0.683593 2.016163,-0.417133 3.399677,-1.515493 3.857422,-3.0625 0.646062,-2.183431 -1.00393,-4.606368 -3.150391,-4.78125 -1.313397,-0.107009 -1.932578,0.06688 -2.693359,0.75586 -0.874689,0.792134 -0.982024,1.582204 -0.998047,2.466797 -0.0088,0.485196 0.06492,1.226074 0.498047,1.669922 0.92193,0.945426 2.452527,0.923279 3.505859,-0.05273 0.537372,-0.497927 0.687798,-1.071426 0.443359,-1.697265 -0.09614,-0.246158 -0.840566,-0.705078 -1.144531,-0.705079 -0.548653,0 -0.910873,1.306839 -0.414062,1.494141 0.371629,0.140109 0.27764,0.513729 -0.171875,0.681641 -0.901021,0.336563 -1.704827,-0.813581 -1.587891,-1.978516 0.07599,-0.75703 0.430021,-1.2221 1.164062,-1.527344 1.528962,-0.635801 3.246602,0.524993 3.580079,2.289063 0.155028,0.820089 -0.151574,1.556568 -0.945313,2.275391 -1.385015,1.254294 -3.834505,1.467284 -5.822266,0.505859 C 10.031002,35.938791 9.2584767,34.379021 9.1953125,32.197266 8.924212,29.247113 10.850921,25.432643 12.464844,23.246094 13.078372,22.433125 13.302196,22.013313 13.158203,22 Z m 5.552735,3 c -0.364306,0.0047 -0.857986,0.21037 -1.365235,0.634766 -0.474928,0.397355 -0.461126,0.552734 0.04492,0.552734 0.309779,0 0.476264,0.130209 0.6875,0.537109 0.17258,0.332436 0.51357,0.64856 0.892578,0.826172 0.454183,0.212842 0.613281,0.380163 0.613281,0.648438 0,0.420144 0.579136,0.856366 1.056641,0.794922 0.22514,-0.02897 0.307855,-0.135038 0.269531,-0.341797 -0.03046,-0.164348 -0.09171,-0.541656 -0.136718,-0.839844 l -0.08203,-0.542969 0.376953,-0.242187 c 0.472163,-0.303789 1.177324,-0.312028 1.44336,-0.01758 C 22.835949,27.368629 23,27.271028 23,26.720703 c 0,-1.095784 -0.968118,-1.250997 -2.427734,-0.390625 -0.425135,0.250597 -0.848349,0.455078 -0.941407,0.455078 -0.350213,0 -0.530641,-0.390991 -0.388671,-0.845703 C 19.435569,25.320066 19.179336,24.993969 18.710938,25 Z M 24,25 v 7 7 l 6,-3.5 6,-3.5 -6,-3.5 z"
     style="opacity:0.2;fill:#000000;fill-opacity:1;stroke-width:0.16872269"
     inkscape:connector-curvature="0" />
  <path
     style="fill:#eda903;stroke-width:0.16872269"
     d="M 29.613281 10 L 29.761719 10.324219 C 30.034969 10.91943 30.077059 11.73646 29.855469 12.125 C 29.734966 12.336291 29.268546 12.662737 28.818359 12.849609 C 28.368171 13.03648 28 13.225745 28 13.271484 C 28 13.317224 28.207941 13.428571 28.462891 13.519531 C 28.8334 13.651721 28.927734 13.806544 28.927734 14.285156 C 28.927734 14.882551 29.17156 15.110137 29.636719 14.949219 C 29.816795 14.886929 29.850238 14.649228 29.763672 14.058594 L 29.646484 13.253906 L 30.115234 12.839844 C 30.373535 12.612133 30.678841 12.160444 30.792969 11.835938 L 31 11.246094 L 30.705078 10.822266 C 30.54292 10.590028 30.231141 10.309417 30.011719 10.199219 L 29.613281 10 z M 31.205078 10.001953 C 31.080769 10.018258 31 10.133855 31 10.371094 C 31 11.149006 32.412582 12.646214 34.380859 13.953125 L 35.703125 14.830078 L 35.228516 15.052734 C 34.469624 15.406354 34.685502 16.149188 35.707031 16.703125 C 36.385135 17.070837 37.221715 17.097301 38.072266 16.78125 C 38.819814 16.503472 39.218844 15.872221 38.876953 15.505859 C 38.75194 15.371893 37.772925 14.857605 36.703125 14.363281 C 34.538274 13.362965 32.712333 12.022011 32.298828 11.130859 C 31.966518 10.414695 31.478556 9.9660837 31.205078 10.001953 z M 23.576172 14.001953 C 22.727583 13.985283 21.943514 14.104735 21.537109 14.367188 L 21.210938 14.578125 L 22.833984 14.554688 C 23.689198 14.481438 24.325783 14.46408 25.042969 14.835938 C 25.365123 15.003098 25.66395 15.233513 25.707031 15.347656 L 25.785156 15.554688 L 24.826172 15.447266 C 23.480319 15.298758 20.802653 15.612191 18.951172 16.134766 C 17.980511 16.300148 17.407079 16.556635 16.777344 17.171875 C 15.786716 18.140278 15.734735 19.431839 16.667969 19.865234 C 17.182032 20.103964 18.017021 20.017323 18.630859 19.662109 C 19.290187 19.280572 19.80533 18.29481 19.785156 17.453125 L 19.767578 16.746094 L 20.65625 16.570312 C 22.374566 16.229927 25.159405 16.218565 27.027344 16.544922 C 27.969391 16.709511 28.798489 16.813154 28.869141 16.775391 C 29.126257 16.637963 28.987415 16.277285 28.611328 16.103516 C 28.399368 16.005576 27.917835 15.676555 27.541016 15.373047 C 27.164198 15.069539 26.471024 14.656826 26 14.455078 C 25.338245 14.171637 24.424763 14.018626 23.576172 14.001953 z M 36.115234 15.708984 L 36.541016 15.765625 C 36.774605 15.795905 36.998554 15.908187 37.039062 16.017578 C 37.145072 16.30385 36.633711 16.263141 36.353516 15.962891 L 36.115234 15.708984 z M 38.544922 18 C 38.515942 18.0016 38.485898 18.005872 38.455078 18.013672 C 38.076769 18.108892 37.812375 19.005023 38.164062 19 C 38.286662 18.9984 38.558777 18.913554 38.767578 18.8125 C 39.194665 18.605804 38.979741 17.975653 38.544922 18 z M 39.083984 18 L 39.171875 18.761719 C 39.306367 19.942179 39.065204 20.133195 36.675781 20.742188 C 35.07878 21.149214 34.499058 21.233096 33.787109 21.162109 C 32.737602 21.057466 32.737601 21.28054 33.789062 21.732422 C 34.624533 22.091481 34.626295 22.090601 36.148438 21.71875 C 36.856201 21.545845 37.813275 21.299953 38.275391 21.171875 L 39.115234 20.939453 L 39.574219 20.238281 C 40.144728 19.369198 40.144692 19.198689 39.556641 18.533203 L 39.083984 18 z M 27.458984 20 C 27.379474 19.999212 27.311149 20.008877 27.261719 20.029297 L 27 20.136719 L 27.476562 20.570312 L 27.955078 21.001953 L 27.722656 21.484375 C 27.43248 22.089273 27.429339 22.54372 27.712891 23.134766 C 27.856337 23.433791 27.884615 23.683708 27.792969 23.839844 C 27.541628 24.268063 27.637316 24.841126 28.029297 25.263672 C 28.540466 25.814704 28.892578 25.799134 28.892578 25.226562 C 28.892578 24.317425 29.737194 23.899201 30.658203 24.351562 C 31.060976 24.54939 31.382813 25.14151 31.382812 25.683594 C 31.382812 26.103928 31.63772 26.106469 31.845703 25.6875 C 32.049336 25.277338 32.051211 24.572053 31.851562 24.169922 C 31.597593 23.658364 30.694823 23.158203 30.023438 23.158203 C 29.421879 23.158203 28.582031 22.662621 28.582031 22.308594 C 28.582031 22.224224 28.82726 22.04514 29.126953 21.910156 C 29.725441 21.640591 29.793017 21.406679 29.433594 20.853516 C 29.196663 20.488871 28.01558 20.00554 27.458984 20 z M 13.158203 21 C 13.031151 20.98826 12.61702 21.293923 11.931641 21.923828 C 8.308662 25.253564 6.945263 30.948032 8.8789062 34.671875 C 9.3038328 35.490205 10.464586 36.686511 11.300781 37.167969 C 12.645814 37.942399 14.343985 38.190144 15.980469 37.851562 C 17.996632 37.434429 19.380146 36.336069 19.837891 34.789062 C 20.483953 32.605631 18.833961 30.182694 16.6875 30.007812 C 15.374103 29.900803 14.754922 30.07469 13.994141 30.763672 C 13.119452 31.555806 13.012117 32.345876 12.996094 33.230469 C 12.987294 33.715665 13.061011 34.456543 13.494141 34.900391 C 14.416071 35.845817 15.946668 35.82367 17 34.847656 C 17.537372 34.349729 17.687798 33.77623 17.443359 33.150391 C 17.347219 32.904233 16.602793 32.445313 16.298828 32.445312 C 15.750175 32.445312 15.387955 33.752151 15.884766 33.939453 C 16.256395 34.079562 16.162406 34.453182 15.712891 34.621094 C 14.81187 34.957657 14.008064 33.807513 14.125 32.642578 C 14.20099 31.885548 14.555021 31.420478 15.289062 31.115234 C 16.818024 30.479433 18.535664 31.640227 18.869141 33.404297 C 19.024169 34.224386 18.717567 34.960865 17.923828 35.679688 C 16.538813 36.933982 14.089323 37.146972 12.101562 36.185547 C 10.031002 34.938791 9.2584767 33.379021 9.1953125 31.197266 C 8.924212 28.247113 10.850921 24.432643 12.464844 22.246094 C 13.078372 21.433125 13.302196 21.013313 13.158203 21 z M 18.710938 24 C 18.346632 24.0047 17.852952 24.21037 17.345703 24.634766 C 16.870775 25.032121 16.884577 25.1875 17.390625 25.1875 C 17.700404 25.1875 17.866889 25.317709 18.078125 25.724609 C 18.250705 26.057045 18.591695 26.373169 18.970703 26.550781 C 19.424886 26.763623 19.583984 26.930944 19.583984 27.199219 C 19.583984 27.619363 20.16312 28.055585 20.640625 27.994141 C 20.865765 27.965171 20.94848 27.859103 20.910156 27.652344 C 20.879696 27.487996 20.818446 27.110688 20.773438 26.8125 L 20.691406 26.269531 L 21.068359 26.027344 C 21.540522 25.723555 22.245683 25.715316 22.511719 26.009766 C 22.835949 26.368629 23 26.271028 23 25.720703 C 23 24.624919 22.031882 24.469706 20.572266 25.330078 C 20.147131 25.580675 19.723917 25.785156 19.630859 25.785156 C 19.280646 25.785156 19.100218 25.394165 19.242188 24.939453 C 19.435569 24.320066 19.179336 23.993969 18.710938 24 z M 24 24 L 24 31 L 24 38 L 30 34.5 L 36 31 L 30 27.5 L 24 24 z "
     id="path4544" />
</svg>
