<?xml version="1.0" encoding="UTF-8" standalone="no"?>
<svg
   xmlns:dc="http://purl.org/dc/elements/1.1/"
   xmlns:cc="http://creativecommons.org/ns#"
   xmlns:rdf="http://www.w3.org/1999/02/22-rdf-syntax-ns#"
   xmlns:svg="http://www.w3.org/2000/svg"
   xmlns="http://www.w3.org/2000/svg"
   xmlns:sodipodi="http://sodipodi.sourceforge.net/DTD/sodipodi-0.dtd"
   xmlns:inkscape="http://www.inkscape.org/namespaces/inkscape"
   height="48"
   width="48"
   version="1"
   id="svg18"
   sodipodi:docname="stream-djit.svg"
   inkscape:version="0.91 r13725">
  <metadata
     id="metadata24">
    <rdf:RDF>
      <cc:Work
         rdf:about="">
        <dc:format>image/svg+xml</dc:format>
        <dc:type
           rdf:resource="http://purl.org/dc/dcmitype/StillImage" />
        <dc:title />
      </cc:Work>
    </rdf:RDF>
  </metadata>
  <defs
     id="defs22" />
  <sodipodi:namedview
     pagecolor="#ffffff"
     bordercolor="#666666"
     borderopacity="1"
     objecttolerance="10"
     gridtolerance="10"
     guidetolerance="10"
     inkscape:pageopacity="0"
     inkscape:pageshadow="2"
     inkscape:window-width="1920"
     inkscape:window-height="1018"
     id="namedview20"
     showgrid="true"
     inkscape:zoom="60.26"
     inkscape:cx="41.599643"
     inkscape:cy="8.2347274"
     inkscape:window-x="0"
     inkscape:window-y="32"
     inkscape:window-maximized="1"
     inkscape:current-layer="svg18">
    <inkscape:grid
       type="xygrid"
       id="grid4146" />
  </sodipodi:namedview>
  <path
     d="m 20.710958,38.974835 c -6.61137,-0.125659 -9.29483,-0.236612 -10.9357502,-0.452161 -1.20335,-0.158076 -1.79431,-0.312183 -2.46082,-0.641719 -1.10082,-0.544259 -1.78544,-1.303201 -2.27951,-2.526969 -0.45172,-1.118836 -0.63565,-2.007476 -0.80445,-3.886686 -0.19049,-2.120698 -0.20538,-2.504621 -0.22516,-5.80883 -0.0233,-3.88576 0.0236,-5.15909 0.28455,-7.738247 0.13684,-1.352125 0.33628,-2.250726 0.71103,-3.203634 0.34129,-0.867795 0.65288,-1.346721 1.21955,-1.874493 0.7122,-0.663311 1.49437,-1.066538 2.48179,-1.2794 1.4738402,-0.317725 8.1353702,-0.562695 15.3012502,-0.562695 7.165881,0 13.827411,0.24497 15.301251,0.562695 1.06587,0.229777 1.84815,0.654198 2.61141,1.416801 0.59738,0.596864 0.90506,1.139213 1.27121,2.240835 0.37728,1.135093 0.52197,2.139642 0.73635,5.112325 0.1018,1.411685 0.10178,7.910134 0,9.321124 -0.11911,1.650636 -0.26528,3.12057 -0.36261,3.64654 -0.25022,1.352245 -0.74166,2.618321 -1.29573,3.338169 -0.38014,0.493871 -1.13056,1.082328 -1.75807,1.378621 -0.63541,0.300025 -1.2408,0.448768 -2.21675,0.544677 -3.02421,0.297189 -12.259171,0.51418 -17.579501,0.413047 z"
     style="opacity:0.2"
     id="path2" />
  <path
     style="fill:#f25c7c;fill-opacity:1"
     d="m 20.710958,37.974834 c -6.61137,-0.125659 -9.29483,-0.236612 -10.9357502,-0.452161 -1.20335,-0.158076 -1.79431,-0.312183 -2.46082,-0.641719 -1.10082,-0.544259 -1.78544,-1.303201 -2.27951,-2.526969 -0.45172,-1.118836 -0.63565,-2.007476 -0.80445,-3.886686 -0.19049,-2.120698 -0.20538,-2.504621 -0.22516,-5.80883 -0.0233,-3.88576 0.0236,-5.15909 0.28455,-7.738247 0.13684,-1.352125 0.33628,-2.250726 0.71103,-3.203634 0.34129,-0.867795 0.65288,-1.346721 1.21955,-1.874493 0.7122,-0.663311 1.49437,-1.066538 2.48179,-1.2794 C 10.176028,10.24497 16.837558,10 24.003438,10 c 7.165881,0 13.827411,0.24497 15.301251,0.562695 1.06587,0.229777 1.84815,0.654198 2.61141,1.416801 0.59738,0.596864 0.90506,1.139213 1.27121,2.240835 0.37728,1.135093 0.52197,2.139642 0.73635,5.112325 0.1018,1.411685 0.10178,7.910134 0,9.321124 -0.11911,1.650636 -0.26528,3.12057 -0.36261,3.64654 -0.25022,1.352245 -0.74166,2.618321 -1.29573,3.338169 -0.38014,0.493871 -1.13056,1.082328 -1.75807,1.378621 -0.63541,0.300025 -1.2408,0.448768 -2.21675,0.544677 -3.02421,0.297189 -12.259171,0.51418 -17.579501,0.413047 z"
     id="path4" />
  <path
     d="m 24.452263,28.397685 c 5.669439,-3.386921 5.547539,-3.312636 5.547539,-3.380633 0,-0.06363 -9.92357,-6.051366 -9.971956,-6.016909 -0.03268,0.02329 -0.03876,11.951433 -0.0066,11.989072 0.01208,0.01392 0.04644,0.01445 0.0763,0.0011 0.02987,-0.01327 1.98932,-1.17997 4.354226,-2.59276 z"
     style="opacity:0.2"
     id="path6" />
  <path
     style="fill:#ffffff"
     d="m 24.452263,27.397687 c 5.669439,-3.386921 5.547539,-3.312636 5.547539,-3.380633 0,-0.06363 -9.92357,-6.051366 -9.971956,-6.016909 -0.03268,0.02329 -0.03876,11.951433 -0.0066,11.989072 0.01208,0.01392 0.04644,0.01445 0.0763,0.0011 0.02987,-0.01327 1.98932,-1.17997 4.354226,-2.59276 z"
     id="path8" />
  <path
     style="opacity:0.2;fill:#ffffff"
     d="M 24.003906,10 C 16.838026,10 10.176965,10.244775 8.703125,10.5625 7.715705,10.775362 6.9329031,11.178486 6.2207031,11.841797 5.6540331,12.369569 5.34129,12.849002 5,13.716797 c -0.37475,0.952908 -0.5740975,1.851 -0.7109375,3.203125 -0.26095,2.579157 -0.3065031,3.852521 -0.2832031,7.738281 0.00105,0.175433 0.00481,0.195804 0.00586,0.355469 -0.011238,-3.260638 0.035685,-4.705258 0.2773437,-7.09375 C 4.4259025,16.567797 4.62525,15.669705 5,14.716797 5.34129,13.849002 5.6540331,13.369569 6.2207031,12.841797 6.9329031,12.178486 7.715705,11.775362 8.703125,11.5625 10.176965,11.244775 16.838026,11 24.003906,11 c 7.165881,0 13.826942,0.244775 15.300782,0.5625 1.065869,0.229777 1.848068,0.655366 2.611328,1.417969 0.59738,0.596864 0.905334,1.138612 1.271484,2.240234 0.37728,1.135093 0.521948,2.138645 0.736328,5.111328 0.04637,0.643014 0.06814,2.369847 0.07227,4.16211 0.0049,-2.142582 -0.01683,-4.393394 -0.07227,-5.16211 C 43.709448,16.359348 43.56478,15.355796 43.1875,14.220703 42.82135,13.119081 42.513396,12.577333 41.916016,11.980469 41.152756,11.217866 40.370557,10.792277 39.304688,10.5625 37.830848,10.244775 31.169787,10 24.003906,10 Z"
     id="path10" />
  <circle
     style="opacity:0.2"
     cx="36"
     cy="37"
     r="11"
     id="circle12" />
  <circle
     style="fill:#4f4f4f;fill-opacity:1"
     cx="36"
     cy="36"
     r="11"
     id="circle14" />
  <path
     inkscape:connector-curvature="0"
     style="opacity:1;fill:#ffffff;fill-opacity:1;fill-rule:evenodd;stroke:none;stroke-width:2;stroke-linecap:round;stroke-linejoin:round;stroke-miterlimit:4;stroke-dasharray:none;stroke-opacity:1"
     d="m 33,30 0,2 0,5.503906 C 32.567749,37.177956 32.041371,37.001126 31.5,37 30.119288,37 29,38.119288 29,39.5 c 0,1.380712 1.119288,2.5 2.5,2.5 1.187878,-1.29e-4 2.211643,-0.836122 2.449219,-2 L 34,39.5 l -10e-7,0 0,-7.5 7,0 0,5.503906 c -0.432251,-0.32595 -0.958629,-0.50278 -1.5,-0.503906 -1.380712,0 -2.5,1.119288 -2.5,2.5 0,1.380712 1.119288,2.5 2.5,2.5 1.187878,-1.29e-4 2.211643,-0.836122 2.449219,-2 l 0.05078,-0.5 0,0 0,-9.5 z"
     id="path4142"
     sodipodi:nodetypes="ccccsccccccccscccccc" />
</svg>
