<?xml version="1.0" encoding="UTF-8" standalone="no"?>
<svg
   xmlns:dc="http://purl.org/dc/elements/1.1/"
   xmlns:cc="http://creativecommons.org/ns#"
   xmlns:rdf="http://www.w3.org/1999/02/22-rdf-syntax-ns#"
   xmlns:svg="http://www.w3.org/2000/svg"
   xmlns="http://www.w3.org/2000/svg"
   xmlns:sodipodi="http://sodipodi.sourceforge.net/DTD/sodipodi-0.dtd"
   xmlns:inkscape="http://www.inkscape.org/namespaces/inkscape"
   height="48"
   width="48"
   version="1"
   id="svg12"
   sodipodi:docname="swf-player.svg"
   inkscape:version="0.91 r13725">
  <metadata
     id="metadata18">
    <rdf:RDF>
      <cc:Work
         rdf:about="">
        <dc:format>image/svg+xml</dc:format>
        <dc:type
           rdf:resource="http://purl.org/dc/dcmitype/StillImage" />
        <dc:title />
      </cc:Work>
    </rdf:RDF>
  </metadata>
  <defs
     id="defs16" />
  <sodipodi:namedview
     pagecolor="#ffffff"
     bordercolor="#666666"
     borderopacity="1"
     objecttolerance="10"
     gridtolerance="10"
     guidetolerance="10"
     inkscape:pageopacity="0"
     inkscape:pageshadow="2"
     inkscape:window-width="1920"
     inkscape:window-height="1018"
     id="namedview14"
     showgrid="true"
     inkscape:zoom="16.15"
     inkscape:cx="10.61944"
     inkscape:cy="21.52322"
     inkscape:window-x="0"
     inkscape:window-y="32"
     inkscape:window-maximized="1"
     inkscape:current-layer="svg12">
    <inkscape:grid
       type="xygrid"
       id="grid4141" />
  </sodipodi:namedview>
  <path
     fill="#4f4f4f"
     d="m8.4393 4.0008a3.3613 3.1388 0 0 0 -3.4393 3.1376v33.726a3.3613 3.1388 0 0 0 5.0419 2.716l15.639-8.43 15.638-8.431a3.3613 3.1388 0 0 0 0 -5.4364l-15.638-8.432-15.639-8.4308a3.3613 3.1388 0 0 0 -1.6027 -0.4194z"
     id="path2"
     style="fill:#ff4747;fill-opacity:1" />
  <path
     opacity=".1"
     fill="#fff"
     d="m8.4395 4.0016a3.3613 3.1388 0 0 0 -3.4395 3.1368v1a3.3613 3.1388 0 0 1 3.4395 -3.1387 3.3613 3.1388 0 0 1 1.6015 0.4199l15.639 8.4316 15.641 8.4316a3.3613 3.1388 0 0 1 1.6348 2.2148 3.3613 3.1388 0 0 0 -1.6348 -3.2148l-15.641-8.432-15.639-8.4314a3.3613 3.1388 0 0 0 -1.6015 -0.418z"
     id="path8"
     style="opacity:0.2" />
  <path
     opacity=".2"
     d="m42.955 24.498a3.3613 3.1388 0 0 1 -1.6348 2.2207l-15.64 8.431-15.639 8.43a3.3613 3.1388 0 0 1 -5.041 -2.717v1a3.3613 3.1388 0 0 0 5.041 2.7168l15.639-8.4297 15.641-8.4316a3.3613 3.1388 0 0 0 1.6348 -3.2207z"
     id="path10" />
  <path
     sodipodi:nodetypes="cssscsc"
     id="path4142"
     d="m 9.0089529,22.000064 c 0,0 0.767967,1.000658 2.9998101,0.999936 2.231833,-7.15e-4 2.991237,-0.999906 2.999894,-2.499906 0.0087,-1.5 -1.008657,-2.5 -3.008657,-2.5 -1.485452,0 -3,-1 -3,-2.5 0,-1.5 0.7462739,-2.499968 3.008763,-2.499968 2.262483,0 2.999728,0.999937 2.999728,0.999937"
     style="opacity:0.2;fill:none;stroke:#000000;stroke-width:2;stroke-linecap:round;stroke-linejoin:round;stroke-miterlimit:4;stroke-dasharray:none;stroke-opacity:1"
     inkscape:connector-curvature="0" />
  <path
     inkscape:connector-curvature="0"
     style="fill:none;stroke:#ffffff;stroke-width:2;stroke-linecap:round;stroke-linejoin:round;stroke-miterlimit:4;stroke-dasharray:none;stroke-opacity:1"
     d="m 9.0089529,20.99997 c 0,0 0.767967,1.000658 2.9998101,0.999936 C 14.240596,21.999191 15,21 15.008657,19.5 15.017314,18 14,17 12,17 10.514548,17 9,16 9,14.5 9,13 9.7462739,12.000032 12.008763,12.000032 c 2.262483,0 2.999728,0.999937 2.999728,0.999937"
     id="path192"
     sodipodi:nodetypes="cssscsc" />
  <path
     sodipodi:nodetypes="cscsccscsc"
     id="path4145"
     style="opacity:0.2;fill:none;stroke:#000000;stroke-width:2;stroke-linecap:round;stroke-linejoin:bevel;stroke-miterlimit:4;stroke-dasharray:none;stroke-opacity:1"
     d="m 30.999439,20.006363 -4e-6,6.999681 c -10e-7,2.260292 -1.573136,3.037064 -2.999807,3.000057 -1.336999,0.0053 -2.999812,-0.711322 -2.999811,-3.000057 l 4e-6,-6.999681 m -4e-6,0 -8e-6,6.999681 c -3e-6,2.260292 -1.573133,3.037064 -2.999803,3.000057 -1.337003,0.0053 -2.999673,-0.711321 -2.999671,-3.000057 l 7e-6,-6.999681"
     inkscape:connector-curvature="0" />
  <path
     inkscape:connector-curvature="0"
     d="m 30.999439,19.006605 -4e-6,6.999681 c -10e-7,2.260292 -1.573136,3.037064 -2.999807,3.000057 -1.336999,0.0053 -2.999812,-0.711322 -2.999811,-3.000057 l 4e-6,-6.999681 m -4e-6,0 -8e-6,6.999681 c -3e-6,2.260292 -1.573133,3.037064 -2.999803,3.000057 -1.337003,0.0053 -2.999673,-0.711321 -2.999671,-3.000057 l 7e-6,-6.999681"
     style="fill:none;stroke:#ffffff;stroke-width:2;stroke-linecap:round;stroke-linejoin:bevel;stroke-miterlimit:4;stroke-dasharray:none;stroke-opacity:1"
     id="path206"
     sodipodi:nodetypes="cscsccscsc" />
  <path
     sodipodi:nodetypes="cccccc"
     id="path4147"
     style="opacity:0.2;fill:none;stroke:#000000;stroke-width:2;stroke-linecap:round;stroke-linejoin:bevel;stroke-miterlimit:4;stroke-dasharray:none;stroke-opacity:1"
     d="m 9.0002425,33.999758 3.9999995,0 m -3.985757,-5.000076 5.999694,0 m -6.0139365,10.000076 0.01439,-9.999925"
     inkscape:connector-curvature="0" />
  <path
     inkscape:connector-curvature="0"
     d="m 9.0002425,33 3.9999995,0 m -3.985757,-5.000076 5.999694,0 M 9.0002425,38 l 0.01439,-9.999925"
     style="fill:none;stroke:#ffffff;stroke-width:2;stroke-linecap:round;stroke-linejoin:bevel;stroke-miterlimit:4;stroke-dasharray:none;stroke-opacity:1"
     id="path168"
     sodipodi:nodetypes="cccccc" />
</svg>
