<?xml version="1.0" encoding="UTF-8" standalone="no"?>
<svg
   xmlns:dc="http://purl.org/dc/elements/1.1/"
   xmlns:cc="http://creativecommons.org/ns#"
   xmlns:rdf="http://www.w3.org/1999/02/22-rdf-syntax-ns#"
   xmlns:svg="http://www.w3.org/2000/svg"
   xmlns="http://www.w3.org/2000/svg"
   xmlns:sodipodi="http://sodipodi.sourceforge.net/DTD/sodipodi-0.dtd"
   xmlns:inkscape="http://www.inkscape.org/namespaces/inkscape"
   height="48"
   width="48"
   version="1"
   id="svg12"
   sodipodi:docname="torrent-video-player-tvp.svg"
   inkscape:version="0.91 r13725">
  <metadata
     id="metadata18">
    <rdf:RDF>
      <cc:Work
         rdf:about="">
        <dc:format>image/svg+xml</dc:format>
        <dc:type
           rdf:resource="http://purl.org/dc/dcmitype/StillImage" />
        <dc:title />
      </cc:Work>
    </rdf:RDF>
  </metadata>
  <defs
     id="defs16" />
  <sodipodi:namedview
     pagecolor="#ffffff"
     bordercolor="#666666"
     borderopacity="1"
     objecttolerance="10"
     gridtolerance="10"
     guidetolerance="10"
     inkscape:pageopacity="0"
     inkscape:pageshadow="2"
     inkscape:window-width="1920"
     inkscape:window-height="1018"
     id="namedview14"
     showgrid="false"
     inkscape:zoom="6.97"
     inkscape:cx="3.7360375"
     inkscape:cy="24"
     inkscape:window-x="0"
     inkscape:window-y="32"
     inkscape:window-maximized="1"
     inkscape:current-layer="svg12" />
  <path
     inkscape:connector-curvature="0"
     d="M 33.103701,8.0007185 A 2.8306131,2.6679174 0 0 1 36,10.667616 v 28.666428 a 2.8306131,2.6679174 0 0 1 -4.245878,2.308545 L 18.58423,34.477257 5.4151802,27.311075 a 2.8306131,2.6679174 0 0 1 0,-4.620831 L 18.58423,15.523212 31.754122,8.3572002 a 2.8306131,2.6679174 0 0 1 1.349663,-0.3564817 z"
     id="path4518"
     style="opacity:0.2;fill:#000000;fill-opacity:1;stroke-width:0.84604019" />
  <path
     style="fill:#ff8f07;fill-opacity:1;stroke-width:0.84604019"
     id="path4500"
     d="M 33.103701,7.0007184 A 2.8306131,2.6679174 0 0 1 36,9.6676158 V 38.334044 a 2.8306131,2.6679174 0 0 1 -4.245878,2.308545 L 18.58423,33.477257 5.4151802,26.311075 a 2.8306131,2.6679174 0 0 1 0,-4.620831 L 18.58423,14.523212 31.754122,7.3572001 a 2.8306131,2.6679174 0 0 1 1.349663,-0.3564817 z"
     inkscape:connector-curvature="0" />
  <path
     style="opacity:0.2;fill:#000000;fill-opacity:1;stroke-width:0.84604019"
     id="path4520"
     d="M 14.896298,8.0007185 A 2.8306132,2.6679174 0 0 0 12,10.667616 v 28.666428 a 2.8306132,2.6679174 0 0 0 4.245877,2.308545 L 29.415769,34.477257 42.58482,27.311075 a 2.8306132,2.6679174 0 0 0 0,-4.620831 L 29.415769,15.523212 16.245877,8.3572002 A 2.8306132,2.6679174 0 0 0 14.896214,8.0007185 Z"
     inkscape:connector-curvature="0" />
  <path
     style="fill:#ffffff;fill-opacity:1;stroke-width:0.84604019;opacity:0.1"
     d="M 33.103516 7 A 2.8306131 2.6679174 0 0 0 31.753906 7.3574219 L 18.583984 14.523438 L 5.4160156 21.689453 A 2.8306131 2.6679174 0 0 0 4.0527344 24.5 A 2.8306131 2.6679174 0 0 1 5.4160156 22.689453 L 18.583984 15.523438 L 31.753906 8.3574219 A 2.8306131 2.6679174 0 0 1 33.103516 8 A 2.8306131 2.6679174 0 0 1 36 10.667969 L 36 9.6679688 A 2.8306131 2.6679174 0 0 0 33.103516 7 z "
     id="path4508" />
  <path
     inkscape:connector-curvature="0"
     d="M 14.896298,7.0007184 A 2.8306132,2.6679174 0 0 0 12,9.6676158 V 38.334044 a 2.8306132,2.6679174 0 0 0 4.245877,2.308545 L 29.415769,33.477257 42.58482,26.311075 a 2.8306132,2.6679174 0 0 0 0,-4.620831 L 29.415769,14.523212 16.245877,7.3572001 A 2.8306132,2.6679174 0 0 0 14.896214,7.0007184 Z"
     id="path2"
     style="fill:#6270cd;fill-opacity:1;stroke-width:0.84604019" />
</svg>
