<?xml version="1.0" encoding="UTF-8" standalone="no"?>
<svg
   xmlns:dc="http://purl.org/dc/elements/1.1/"
   xmlns:cc="http://creativecommons.org/ns#"
   xmlns:rdf="http://www.w3.org/1999/02/22-rdf-syntax-ns#"
   xmlns:svg="http://www.w3.org/2000/svg"
   xmlns="http://www.w3.org/2000/svg"
   xmlns:sodipodi="http://sodipodi.sourceforge.net/DTD/sodipodi-0.dtd"
   xmlns:inkscape="http://www.inkscape.org/namespaces/inkscape"
   height="48"
   width="48"
   version="1"
   id="svg12"
   sodipodi:docname="tunein.svg"
   inkscape:version="0.92.1 r15371">
  <metadata
     id="metadata18">
    <rdf:RDF>
      <cc:Work
         rdf:about="">
        <dc:format>image/svg+xml</dc:format>
        <dc:type
           rdf:resource="http://purl.org/dc/dcmitype/StillImage" />
        <dc:title></dc:title>
      </cc:Work>
    </rdf:RDF>
  </metadata>
  <defs
     id="defs16">
    <style
       id="current-color-scheme"
       type="text/css">
   .ColorScheme-Text { color:#5c616c; } .ColorScheme-Highlight { color:#5294e2; } .ColorScheme-ButtonBackground { color:#d3dae3; }
  </style>
    <style
       id="current-color-scheme-3"
       type="text/css">
   .ColorScheme-Text { color:#5c616c; } .ColorScheme-Highlight { color:#5294e2; } .ColorScheme-ButtonBackground { color:#d3dae3; }
  </style>
    <style
       id="current-color-scheme-6"
       type="text/css">
   .ColorScheme-Text { color:#5c616c; } .ColorScheme-Highlight { color:#5294e2; } .ColorScheme-ButtonBackground { color:#d3dae3; }
  </style>
    <style
       id="current-color-scheme-7"
       type="text/css">
   .ColorScheme-Text { color:#5c616c; } .ColorScheme-Highlight { color:#5294e2; } .ColorScheme-ButtonBackground { color:#d3dae3; }
  </style>
  </defs>
  <sodipodi:namedview
     pagecolor="#ffffff"
     bordercolor="#666666"
     borderopacity="1"
     objecttolerance="10"
     gridtolerance="10"
     guidetolerance="10"
     inkscape:pageopacity="0"
     inkscape:pageshadow="2"
     inkscape:window-width="1600"
     inkscape:window-height="822"
     id="namedview14"
     showgrid="false"
     inkscape:zoom="6.57"
     inkscape:cx="30.486948"
     inkscape:cy="29.094228"
     inkscape:window-x="0"
     inkscape:window-y="0"
     inkscape:window-maximized="1"
     inkscape:current-layer="svg12">
    <inkscape:grid
       type="xygrid"
       id="grid4526" />
  </sodipodi:namedview>
  <rect
     transform="matrix(0,-1,-1,0,0,0)"
     rx="20"
     ry="20"
     height="40"
     width="40"
     y="-44"
     x="-44"
     id="rect2"
     style="fill:#2cb4a7;fill-opacity:1;stroke-width:1.00005007" />
  <path
     opacity=".2"
     d="m24 4c-11.079 0-19.998 8.92-19.998 20 0 0.16772-0.004 0.33329 0 0.5 0.2642-10.846 9.087-19.5 19.998-19.5s19.734 8.6536 19.998 19.5c0.004-0.16671 0-0.33228 0-0.5 0-11.08-8.919-20-19.998-20z"
     fill="#fff"
     id="path8"
     style="opacity:0.2" />
  <path
     opacity=".2"
     d="m4.0117 24.5c-0.0041 0.167-0.0117 0.332-0.0117 0.5 0 11.08 8.92 20 20 20s20-8.92 20-20c0-0.168-0.008-0.333-0.012-0.5-0.264 10.846-9.076 19.5-19.988 19.5s-19.724-8.654-19.988-19.5z"
     id="path10" />
  <path
     id="path4531"
     d="m 24,12 a 4,4 0 0 0 -4,4 4,4 0 0 0 4,4 4,4 0 0 0 4,-4 4,4 0 0 0 -4,-4 z M 12.400391,21 C 12.178791,21 12,21.178791 12,21.400391 V 25 c 0,2.209137 1.790861,4 4,4 h 2.599609 1 8 C 27.821208,29 28,28.821208 28,28.599609 V 25 c 0,-2.209139 -1.790862,-4.000001 -4,-4 H 16 15 Z M 33,21 c -2.209139,0 -4,1.790862 -4,4 v 3.599609 C 29,28.821209 29.178791,29 29.400391,29 H 33 c 2.209138,0 4,-1.790861 4,-4 V 21.400391 C 37,21.178792 36.821208,21 36.599609,21 Z M 20.400391,30 C 20.178792,30 20,30.178792 20,30.400391 V 34 37.599609 C 20,37.821209 20.178791,38 20.400391,38 H 24 c 2.209138,0 4,-1.790861 4,-4 V 30.400391 C 28,30.178792 27.821208,30 27.599609,30 H 24 Z"
     style="opacity:0.2;vector-effect:none;fill:#000000;fill-opacity:1;stroke:none;stroke-width:3.64169025;stroke-linecap:butt;stroke-linejoin:miter;stroke-miterlimit:4;stroke-dasharray:none;stroke-dashoffset:0;stroke-opacity:1"
     inkscape:connector-curvature="0" />
  <path
     style="opacity:1;vector-effect:none;fill:#ffffff;fill-opacity:1;stroke:none;stroke-width:3.64169025;stroke-linecap:butt;stroke-linejoin:miter;stroke-miterlimit:4;stroke-dasharray:none;stroke-dashoffset:0;stroke-opacity:1"
     d="M 24 11 A 4 4 0 0 0 20 15 A 4 4 0 0 0 24 19 A 4 4 0 0 0 28 15 A 4 4 0 0 0 24 11 z M 12.400391 20 C 12.178791 20 12 20.178791 12 20.400391 L 12 24 C 12 26.209137 13.790861 28 16 28 L 18.599609 28 L 19.599609 28 L 27.599609 28 C 27.821208 28 28 27.821208 28 27.599609 L 28 24 C 28 21.790861 26.209138 19.999999 24 20 L 16 20 L 15 20 L 12.400391 20 z M 33 20 C 30.790861 20 29 21.790862 29 24 L 29 27.599609 C 29 27.821209 29.178791 28 29.400391 28 L 33 28 C 35.209138 28 37 26.209139 37 24 L 37 20.400391 C 37 20.178792 36.821208 20 36.599609 20 L 33 20 z M 20.400391 29 C 20.178792 29 20 29.178792 20 29.400391 L 20 33 L 20 36.599609 C 20 36.821209 20.178791 37 20.400391 37 L 24 37 C 26.209138 37 28 35.209139 28 33 L 28 29.400391 C 28 29.178792 27.821208 29 27.599609 29 L 24 29 L 20.400391 29 z "
     id="path4504" />
</svg>
