<?xml version="1.0" encoding="UTF-8" standalone="no"?>
<svg
   xmlns:dc="http://purl.org/dc/elements/1.1/"
   xmlns:cc="http://creativecommons.org/ns#"
   xmlns:rdf="http://www.w3.org/1999/02/22-rdf-syntax-ns#"
   xmlns:svg="http://www.w3.org/2000/svg"
   xmlns="http://www.w3.org/2000/svg"
   xmlns:sodipodi="http://sodipodi.sourceforge.net/DTD/sodipodi-0.dtd"
   xmlns:inkscape="http://www.inkscape.org/namespaces/inkscape"
   height="48"
   width="48"
   version="1"
   id="svg12"
   sodipodi:docname="turtlerun-music-player.svg"
   inkscape:version="0.91 r13725">
  <metadata
     id="metadata18">
    <rdf:RDF>
      <cc:Work
         rdf:about="">
        <dc:format>image/svg+xml</dc:format>
        <dc:type
           rdf:resource="http://purl.org/dc/dcmitype/StillImage" />
        <dc:title />
      </cc:Work>
    </rdf:RDF>
  </metadata>
  <defs
     id="defs16" />
  <sodipodi:namedview
     pagecolor="#ffffff"
     bordercolor="#666666"
     borderopacity="1"
     objecttolerance="10"
     gridtolerance="10"
     guidetolerance="10"
     inkscape:pageopacity="0"
     inkscape:pageshadow="2"
     inkscape:window-width="1920"
     inkscape:window-height="1018"
     id="namedview14"
     showgrid="true"
     inkscape:zoom="21.31"
     inkscape:cx="21.758613"
     inkscape:cy="24"
     inkscape:window-x="0"
     inkscape:window-y="32"
     inkscape:window-maximized="1"
     inkscape:current-layer="svg12">
    <inkscape:grid
       type="xygrid"
       id="grid4500" />
  </sodipodi:namedview>
  <rect
     transform="matrix(0,-1,-1,0,0,0)"
     rx="2"
     ry="2"
     height="40"
     width="40"
     y="-44"
     x="-44"
     fill="#f59335"
     id="rect2"
     style="fill:#3f3f3f;fill-opacity:1" />
  <path
     opacity=".2"
     d="m6 4c-1.108 0-2 0.892-2 2v1c0-1.108 0.892-2 2-2h36c1.108 0 2 0.892 2 2v-1c0-1.108-0.892-2-2-2h-36z"
     fill="#fff"
     id="path4"
     style="opacity:0.1" />
  <path
     opacity=".2"
     d="m6 45c-1.108 0-2-0.892-2-2v-1c0 1.108 0.892 2 2 2h36c1.108 0 2-0.892 2-2v1c0 1.108-0.892 2-2 2h-36z"
     id="path6" />
  <g
     id="g4504"
     transform="matrix(0.5,0,0,0.5,12,15)"
     style="opacity:0.2;fill:#000000;fill-opacity:1">
    <path
       style="fill:#000000;fill-opacity:1"
       sodipodi:nodetypes="ccccsccsccccsccccc"
       id="path4502"
       d="m 42,-6.0008 -28,5 0,27.2668 C 13.347,26.093 12.675,26.004 12,26 c -4.4183,0 -8,3.5817 -8,8 0,4.4183 3.5817,8 8,8 4.0287,-0.0038 7.4261,-3.0029 7.9297,-7 0,0 0.07031,-0.72732 0.07031,-1 l 0,-30.0708 16,-2.8574 0,19.1942 c -0.653,-0.173 -1.325,-0.262 -2,-0.266 -4.4183,0 -8,3.5817 -8,8 0,4.4183 3.5817,8 8,8 4.0287,-0.0038 7.4261,-3.0029 7.9297,-7 l 0.07,-1 0,-34.0012 z"
       inkscape:connector-curvature="0" />
  </g>
  <g
     style="fill:#5a7eff;fill-opacity:1"
     transform="matrix(0.5,0,0,0.5,12,14)"
     id="g4">
    <path
       inkscape:connector-curvature="0"
       d="m 42,-6.0008 -28,5 0,27.2668 C 13.347,26.093 12.675,26.004 12,26 c -4.4183,0 -8,3.5817 -8,8 0,4.4183 3.5817,8 8,8 4.0287,-0.0038 7.4261,-3.0029 7.9297,-7 0,0 0.07031,-0.72732 0.07031,-1 l 0,-30.0708 16,-2.8574 0,19.1942 c -0.653,-0.173 -1.325,-0.262 -2,-0.266 -4.4183,0 -8,3.5817 -8,8 0,4.4183 3.5817,8 8,8 4.0287,-0.0038 7.4261,-3.0029 7.9297,-7 l 0.07,-1 0,-34.0012 z"
       id="path2"
       sodipodi:nodetypes="ccccsccsccccsccccc"
       style="fill:#5a7eff;fill-opacity:1" />
  </g>
  <g
     id="g4140"
     transform="matrix(0.5,0,0,0.5,12,14)"
     style="fill:#ffffff;fill-opacity:1;opacity:0.2">
    <path
       style="fill:#ffffff;fill-opacity:1"
       d="M 33 11 L 19 13.5 L 19 14.5 L 33 12 L 33 11 z M 29 24 C 26.79085 24 25 25.79085 25 28 C 25 28.171167 25.029918 28.334494 25.050781 28.5 C 25.299191 26.529416 26.962017 25 29 25 C 29.3375 25.002 29.6735 25.046313 30 25.132812 L 30 24.132812 C 29.6735 24.046313 29.3375 24.002 29 24 z M 18 27 C 15.79085 27 14 28.79085 14 31 C 14 31.171167 14.029918 31.334494 14.050781 31.5 C 14.299191 29.529416 15.962017 28 18 28 C 18.3375 28.002 18.6735 28.046313 19 28.132812 L 19 27.132812 C 18.6735 27.046313 18.3375 27.002 18 27 z "
       transform="matrix(2,0,0,2,-24,-28)"
       id="path4142" />
  </g>
  <g
     style="opacity:0.2;fill:#ffffff;fill-opacity:1"
     transform="matrix(0.5,0,0,0.5,12,15)"
     id="g4144" />
</svg>
