<?xml version="1.0" encoding="UTF-8" standalone="no"?>
<svg
   xmlns:dc="http://purl.org/dc/elements/1.1/"
   xmlns:cc="http://creativecommons.org/ns#"
   xmlns:rdf="http://www.w3.org/1999/02/22-rdf-syntax-ns#"
   xmlns:svg="http://www.w3.org/2000/svg"
   xmlns="http://www.w3.org/2000/svg"
   xmlns:sodipodi="http://sodipodi.sourceforge.net/DTD/sodipodi-0.dtd"
   xmlns:inkscape="http://www.inkscape.org/namespaces/inkscape"
   height="48"
   width="48"
   version="1"
   id="svg12"
   sodipodi:docname="turtlerun-video-player.svg"
   inkscape:version="0.91 r13725">
  <metadata
     id="metadata18">
    <rdf:RDF>
      <cc:Work
         rdf:about="">
        <dc:format>image/svg+xml</dc:format>
        <dc:type
           rdf:resource="http://purl.org/dc/dcmitype/StillImage" />
        <dc:title />
      </cc:Work>
    </rdf:RDF>
  </metadata>
  <defs
     id="defs16" />
  <sodipodi:namedview
     pagecolor="#ffffff"
     bordercolor="#666666"
     borderopacity="1"
     objecttolerance="10"
     gridtolerance="10"
     guidetolerance="10"
     inkscape:pageopacity="0"
     inkscape:pageshadow="2"
     inkscape:window-width="1920"
     inkscape:window-height="1018"
     id="namedview14"
     showgrid="false"
     inkscape:zoom="16.15"
     inkscape:cx="24.627634"
     inkscape:cy="22.226179"
     inkscape:window-x="0"
     inkscape:window-y="32"
     inkscape:window-maximized="1"
     inkscape:current-layer="svg12" />
  <rect
     style="opacity:0.2;fill:#000000;fill-opacity:1;stroke-width:1.00005007"
     id="rect4526"
     x="-45"
     y="-44"
     width="40"
     height="40"
     ry="20"
     rx="20"
     transform="matrix(0,-1,-1,0,0,0)" />
  <rect
     transform="matrix(0,-1,-1,0,0,0)"
     rx="19.5"
     ry="19"
     height="38"
     width="39"
     y="-43"
     x="-43.5"
     id="rect4490"
     style="opacity:1;fill:#ffffff;fill-opacity:1;stroke-width:0.96246701" />
  <path
     style="fill:#4c8cf5;fill-opacity:1;stroke-width:1.00005007;opacity:1"
     d="M 34.992188 7.28125 C 36.266516 9.9166603 37 12.865985 37 16 C 37 27.08 28.08 36 17 36 C 12.931263 36 9.1592738 34.789673 6.0078125 32.71875 C 9.2387467 39.400573 16.054015 44 24 44 C 35.08 44 44 35.08 44 24 C 44 16.988737 40.422797 10.849872 34.992188 7.28125 z "
     id="rect4513" />
  <path
     id="path4172"
     d="m 22.773438,5.0407966 c -0.131512,0.00792 -0.261791,0.018864 -0.392579,0.029297 0.130548,-0.010378 0.261321,-0.021417 0.392579,-0.029297 z m 3.259765,0.060547 c 0.658581,0.065865 1.307554,0.1632746 1.945313,0.2910156 -0.63781,-0.1277483 -1.286737,-0.2251109 -1.945313,-0.2910156 z m -4.484375,0.052734 c -0.135014,0.016432 -0.270153,0.031683 -0.404297,0.050781 0.134017,-0.019002 0.269422,-0.03443 0.404297,-0.050781 z m 6.449219,0.2421875 c -4.464256,0.8996594 -8.37245,3.284828 -11.212891,6.6113276 0.07206,-7.69e-4 0.142593,-0.0078 0.214844,-0.0078 11.08,0 20,8.92 20,20 C 37,35.735503 35.968112,39.213449 34.199219,42.199 40.06869,38.721427 44,32.344059 44,24.999781 44,15.290347 37.150521,7.2394151 28,5.3962654 c -6.26e-4,-1.261e-4 -0.0013,1.26e-4 -0.002,0 z m -8.240235,0.058594 c -0.489715,0.1054604 -0.971915,0.2305677 -1.447265,0.3710938 0.475495,-0.1399978 0.957526,-0.2660413 1.447265,-0.3710938 z m -1.990234,0.5410157 c -0.445831,0.1458449 -0.885234,0.3028055 -1.316406,0.4785156 0.43152,-0.1751571 0.870301,-0.3331542 1.316406,-0.4785156 z m -1.943359,0.7519531 c -0.338814,0.1519318 -0.673581,0.310519 -1.001953,0.4804687 0.328515,-0.1693509 0.663037,-0.3290856 1.001953,-0.4804687 z m -1.716797,0.8671875 c -0.231032,0.1318215 -0.456547,0.2714368 -0.681641,0.4121094 0.225352,-0.1403028 0.450358,-0.28065 0.681641,-0.4121094 z m -1.949219,1.2734375 c -0.150486,0.1109662 -0.302014,0.2208809 -0.449219,0.3359375 0.147403,-0.1148272 0.298532,-0.2252025 0.449219,-0.3359375 z m -1.265625,1.0058593 c -0.0696,0.060578 -0.13633,0.1240228 -0.205078,0.1855468 0.06884,-0.06142 0.135385,-0.1250739 0.205078,-0.1855468 z M 9.1347656,11.626734 c -0.038803,0.04323 -0.078756,0.08533 -0.1171875,0.128906 0.038491,-0.04354 0.078322,-0.0857 0.1171875,-0.128906 z"
     style="opacity:0.2;fill:#000000;fill-opacity:1;stroke-width:1.00005007"
     inkscape:connector-curvature="0" />
  <path
     id="path4181"
     d="M 24,5 C 12.92,5 4,13.92 4,25 c 0,3.134015 0.733484,6.08334 2.0078125,8.71875 2.8832362,1.894664 6.2888095,3.056015 9.9628905,3.242188 C 13.483768,33.627397 12,29.497207 12,25 12,15.290566 18.849479,7.2396341 28,5.3964844 26.708329,5.1363086 25.370566,5 24,5 Z M 6.0078125,33.720703 C 6.6137717,34.973591 7.3445327,36.151079 8.1875,37.240234 7.3461994,36.150855 6.6134658,34.972964 6.0078125,33.720703 Z M 8.1875,37.240234 c 0.2643032,0.341493 0.5387389,0.67282 0.8242188,0.996094 C 8.7270989,37.913157 8.4510729,37.581528 8.1875,37.240234 Z m 0.9980469,1.1875 c 0.8125386,0.896474 1.7015891,1.716855 2.6640621,2.453125 -0.960171,-0.737113 -1.8533573,-1.556206 -2.6640621,-2.453125 z m 3.1328121,2.802735 c 0.268618,0.193292 0.537956,0.384416 0.816407,0.564453 -0.277836,-0.180301 -0.548394,-0.370914 -0.816407,-0.564453 z m 1.527344,0.996093 c 0.373021,0.21968 0.752447,0.4274 1.140625,0.623047 -0.387711,-0.196138 -0.768103,-0.402852 -1.140625,-0.623047 z m 2.039063,1.054688 c 0.231505,0.102465 0.465091,0.199116 0.701172,0.292969 -0.235713,-0.09405 -0.470049,-0.190308 -0.701172,-0.292969 z m 1.771484,0.683594 c 0.17225,0.05727 0.341299,0.119185 0.515625,0.171875 -0.173944,-0.05277 -0.343763,-0.114529 -0.515625,-0.171875 z m 2.154297,0.591797 c 0.402689,0.08523 0.807353,0.161904 1.21875,0.222656 -0.410977,-0.06091 -0.816554,-0.13724 -1.21875,-0.222656 z m 1.427734,0.25 c 0.356063,0.04879 0.716224,0.08726 1.078125,0.117187 -0.362307,-0.03004 -0.721743,-0.06819 -1.078125,-0.117187 z m 1.451172,0.146484 C 23.123286,44.980973 23.558894,45 24,45 c -0.440788,0 -0.877137,-0.019 -1.310547,-0.04687 z"
     style="opacity:0.2;fill:#000000;fill-opacity:1;stroke-width:1.00005007"
     inkscape:connector-curvature="0" />
  <path
     style="fill:#ffba43;fill-opacity:1;stroke-width:1.00005007;opacity:1"
     d="M 22.773438 4.0410156 C 22.641926 4.0489326 22.511647 4.0598798 22.380859 4.0703125 C 22.511407 4.0599349 22.64218 4.0488955 22.773438 4.0410156 z M 26.033203 4.1015625 C 26.691784 4.1674275 27.340757 4.2648371 27.978516 4.3925781 C 27.340706 4.2648298 26.691779 4.1674672 26.033203 4.1015625 z M 21.548828 4.1542969 C 21.413814 4.1707287 21.278675 4.1859804 21.144531 4.2050781 C 21.278548 4.1860761 21.413953 4.1706479 21.548828 4.1542969 z M 27.998047 4.3964844 C 23.533791 5.2961438 19.625597 7.6813124 16.785156 11.007812 C 16.857213 11.007043 16.927749 11 17 11 C 28.08 11 37 19.92 37 31 C 37 34.735722 35.968112 38.213668 34.199219 41.199219 C 40.06869 37.721646 44 31.344278 44 24 C 44 14.290566 37.150521 6.2396341 28 4.3964844 C 27.999374 4.3963583 27.998673 4.3966104 27.998047 4.3964844 z M 19.757812 4.4550781 C 19.268097 4.5605385 18.785897 4.6856458 18.310547 4.8261719 C 18.786042 4.6861741 19.268073 4.5601306 19.757812 4.4550781 z M 17.767578 4.9960938 C 17.321747 5.1419387 16.882344 5.2988993 16.451172 5.4746094 C 16.882692 5.2994523 17.321473 5.1414552 17.767578 4.9960938 z M 15.824219 5.7480469 C 15.485405 5.8999787 15.150638 6.0585659 14.822266 6.2285156 C 15.150781 6.0591647 15.485303 5.89943 15.824219 5.7480469 z M 14.107422 6.6152344 C 13.87639 6.7470559 13.650875 6.8866712 13.425781 7.0273438 C 13.651133 6.887041 13.876139 6.7466938 14.107422 6.6152344 z M 12.158203 7.8886719 C 12.007717 7.9996381 11.856189 8.1095528 11.708984 8.2246094 C 11.856387 8.1097822 12.007516 7.9994069 12.158203 7.8886719 z M 10.892578 8.8945312 C 10.822977 8.9551089 10.756248 9.0185545 10.6875 9.0800781 C 10.756338 9.018658 10.822885 8.9550041 10.892578 8.8945312 z M 9.1347656 10.626953 C 9.0959623 10.670186 9.0560092 10.712287 9.0175781 10.755859 C 9.0560693 10.712315 9.0959005 10.670156 9.1347656 10.626953 z "
     id="rect4510" />
  <path
     id="path4170"
     d="m 17,12 c 8.42265,0 15.586081,5.160522 18.542969,12.5 C 32.586081,31.839478 25.42265,37 17,37 16.653704,37 16.3125,36.978257 15.970703,36.960938 13.483768,33.627397 12,29.497207 12,25 12,20.028323 13.804056,15.499043 16.785156,12.007812 16.857213,12.007043 16.927749,12 17,12 Z"
     style="opacity:0.2;fill:#000000;fill-opacity:1;stroke-width:1.00005007"
     inkscape:connector-curvature="0" />
  <path
     style="fill:#ffffff;fill-opacity:1;stroke-width:1.00005007;opacity:1"
     d="m 17,11 c 8.42265,0 15.586081,5.160522 18.542969,12.5 C 32.586081,30.839478 25.42265,36 17,36 16.653704,36 16.3125,35.978257 15.970703,35.960938 13.483768,32.627397 12,28.497207 12,24 12,19.028323 13.804056,14.499043 16.785156,11.007812 16.857213,11.007043 16.927749,11 17,11 Z"
     id="path4157" />
  <path
     sodipodi:type="star"
     style="opacity:1;fill:#14aa63;fill-opacity:1;stroke:none;stroke-width:4;stroke-linecap:round;stroke-linejoin:round;stroke-miterlimit:4;stroke-dasharray:none;stroke-dashoffset:0;stroke-opacity:1"
     id="path4487"
     sodipodi:sides="3"
     sodipodi:cx="23.507109"
     sodipodi:cy="24.398106"
     sodipodi:r1="7.7777119"
     sodipodi:r2="3.8888559"
     sodipodi:arg1="0"
     sodipodi:arg2="1.0471976"
     inkscape:flatsided="false"
     inkscape:rounded="0"
     inkscape:randomized="0"
     d="m 31.284821,24.398106 -5.833285,3.367848 -5.833283,3.367848 0,-6.735697 0,-6.735695 5.833284,3.367848 z"
     inkscape:transform-center-x="-1.9999989"
     transform="matrix(1.0285801,0,0,1.0392393,-2.1789444,-1.3554703)" />
  <path
     style="fill:#e65246;fill-opacity:1;stroke-width:1.00005007;opacity:1"
     d="M 24 4 C 12.92 4 4 12.92 4 24 C 4 27.134015 4.733484 30.08334 6.0078125 32.71875 C 8.8910487 34.613414 12.296622 35.774765 15.970703 35.960938 C 13.483768 32.627397 12 28.497207 12 24 C 12 14.290566 18.849479 6.2396341 28 4.3964844 C 26.708329 4.1363086 25.370566 4 24 4 z M 6.0078125 32.720703 C 6.6137717 33.973591 7.3445327 35.151079 8.1875 36.240234 C 7.3461994 35.150855 6.6134658 33.972964 6.0078125 32.720703 z M 8.1875 36.240234 C 8.4518032 36.581727 8.7262389 36.913054 9.0117188 37.236328 C 8.7270989 36.913157 8.4510729 36.581528 8.1875 36.240234 z M 9.1855469 37.427734 C 9.9980855 38.324208 10.887136 39.144589 11.849609 39.880859 C 10.889438 39.143746 9.9962517 38.324653 9.1855469 37.427734 z M 12.318359 40.230469 C 12.586977 40.423761 12.856315 40.614885 13.134766 40.794922 C 12.85693 40.614621 12.586372 40.424008 12.318359 40.230469 z M 13.845703 41.226562 C 14.218724 41.446242 14.59815 41.653962 14.986328 41.849609 C 14.598617 41.653471 14.218225 41.446757 13.845703 41.226562 z M 15.884766 42.28125 C 16.116271 42.383715 16.349857 42.480366 16.585938 42.574219 C 16.350225 42.480174 16.115889 42.383911 15.884766 42.28125 z M 17.65625 42.964844 C 17.8285 43.02211 17.997549 43.084029 18.171875 43.136719 C 17.997931 43.083946 17.828112 43.02219 17.65625 42.964844 z M 19.810547 43.556641 C 20.213236 43.641875 20.6179 43.718545 21.029297 43.779297 C 20.61832 43.71839 20.212743 43.642057 19.810547 43.556641 z M 21.238281 43.806641 C 21.594344 43.855426 21.954505 43.8939 22.316406 43.923828 C 21.954099 43.893785 21.594663 43.855638 21.238281 43.806641 z M 22.689453 43.953125 C 23.123286 43.980973 23.558894 44 24 44 C 23.559212 44 23.122863 43.981003 22.689453 43.953125 z "
     id="rect4505" />
  <path
     style="fill:#ffffff;fill-opacity:1;stroke-width:1.00005007;opacity:0.2"
     d="M 24 4 C 12.92 4 4 12.92 4 24 C 4 24.167874 4.007647 24.333141 4.0117188 24.5 C 4.2763904 13.653863 13.087874 5 24 5 C 34.912126 5 43.72361 13.653863 43.988281 24.5 C 43.992353 24.333141 44 24.167874 44 24 C 44 12.92 35.08 4 24 4 z "
     id="rect4521" />
</svg>
