<?xml version="1.0" encoding="UTF-8" standalone="no"?>
<svg
   xmlns:dc="http://purl.org/dc/elements/1.1/"
   xmlns:cc="http://creativecommons.org/ns#"
   xmlns:rdf="http://www.w3.org/1999/02/22-rdf-syntax-ns#"
   xmlns:svg="http://www.w3.org/2000/svg"
   xmlns="http://www.w3.org/2000/svg"
   xmlns:sodipodi="http://sodipodi.sourceforge.net/DTD/sodipodi-0.dtd"
   xmlns:inkscape="http://www.inkscape.org/namespaces/inkscape"
   height="48"
   width="48"
   version="1"
   id="svg12"
   sodipodi:docname="uc-browser-alt.svg"
   inkscape:version="0.92.1 r15371">
  <metadata
     id="metadata18">
    <rdf:RDF>
      <cc:Work
         rdf:about="">
        <dc:format>image/svg+xml</dc:format>
        <dc:type
           rdf:resource="http://purl.org/dc/dcmitype/StillImage" />
        <dc:title></dc:title>
      </cc:Work>
    </rdf:RDF>
  </metadata>
  <defs
     id="defs16" />
  <sodipodi:namedview
     pagecolor="#ffffff"
     bordercolor="#666666"
     borderopacity="1"
     objecttolerance="10"
     gridtolerance="10"
     guidetolerance="10"
     inkscape:pageopacity="0"
     inkscape:pageshadow="2"
     inkscape:window-width="1600"
     inkscape:window-height="822"
     id="namedview14"
     showgrid="true"
     inkscape:zoom="11.420324"
     inkscape:cx="21.011331"
     inkscape:cy="18.094631"
     inkscape:window-x="0"
     inkscape:window-y="0"
     inkscape:window-maximized="1"
     inkscape:current-layer="svg12">
    <inkscape:grid
       type="xygrid"
       id="grid4500" />
  </sodipodi:namedview>
  <path
     sodipodi:nodetypes="csssssscccccccscsccssccccccccccc"
     inkscape:connector-curvature="0"
     id="path4500"
     d="M 17.582031,5.0097636 C 16.286842,5.059783 14.915052,5.3408429 13.761719,5.7226542 10.674171,6.7447908 8.174598,8.5033739 6.171875,11.066404 5.8488476,11.479806 5.5585736,11.878818 5.2578125,12.341795 5.107432,12.573283 4.9639753,12.788217 4.7402344,13.230467 c -0.1118705,0.221125 -0.251686,0.455717 -0.4472656,1.121093 -0.09779,0.332689 -0.2391611,0.763268 -0.25,1.652344 -0.010839,0.889077 0.1103604,2.684379 1.765625,4.337891 0.473557,0.473106 0.946403,0.655016 1.421875,0.908203 -1.4014733,2.009406 -2.4233568,4.025005 -2.8513358,6.050781 -0.4799699,2.271812 -0.4725099,3.476665 -0.072266,5.697266 0.5147688,2.856119 1.7616388,5.330837 3.7048515,7.386719 2.3748705,2.512553 5.7137995,3.996811 9.0839845,4.457031 0.716848,0.09794 1.268113,0.143095 1.847656,0.158203 0.05664,0 8.056641,0 12.133245,2e-6 1.718133,10e-7 3.199008,-0.454351 4.224177,-0.886711 0.654434,-0.280494 1.678974,-0.830675 2.552735,-2.023437 0.87376,-1.192763 1.222993,-2.870078 1.171875,-3.91211 -0.05705,-1.162822 -0.218882,-1.710379 -0.375,-2.039062 0.736644,-0.08769 1.857736,-0.361398 2.927734,-1.166016 1.101498,-0.828304 1.844799,-2.073546 2.099609,-2.912109 C 44,30.999998 44,30.03906 44,30.03906 v -5.044921 c 0.10298,-4.079261 -2.387214,-7.85157 -4.966795,-9.763672 -0.615442,-0.456181 -0.952719,-0.61867 -1.357422,-0.853516 -0.55118,-0.989347 -1.177318,-1.805185 -1.736329,-2.419922 C 34.139568,9.9794255 31.248309,9.4314405 28.849609,10.613279 28.01321,9.3586207 27.007912,8.1781599 25.679688,7.2246074 25.605996,7.1714815 25.531106,7.1200359 25.455078,7.0703105 23.603223,5.864052 21.022639,5.0965206 18.837891,5.0136699 c -0.38372,-0.014559 -0.797434,-0.021636 -1.25586,-0.00391 z"
     style="color:#000000;font-style:normal;font-variant:normal;font-weight:normal;font-stretch:normal;font-size:medium;line-height:normal;font-family:sans-serif;font-variant-ligatures:normal;font-variant-position:normal;font-variant-caps:normal;font-variant-numeric:normal;font-variant-alternates:normal;font-feature-settings:normal;text-indent:0;text-align:start;text-decoration:none;text-decoration-line:none;text-decoration-style:solid;text-decoration-color:#000000;letter-spacing:normal;word-spacing:normal;text-transform:none;writing-mode:lr-tb;direction:ltr;text-orientation:mixed;dominant-baseline:auto;baseline-shift:baseline;text-anchor:start;white-space:normal;shape-padding:0;clip-rule:nonzero;display:inline;overflow:visible;visibility:visible;opacity:0.2;isolation:auto;mix-blend-mode:normal;color-interpolation:sRGB;color-interpolation-filters:linearRGB;solid-color:#000000;solid-opacity:1;vector-effect:none;fill:#000000;fill-opacity:1;fill-rule:nonzero;stroke:none;stroke-width:12;stroke-linecap:round;stroke-linejoin:round;stroke-miterlimit:4;stroke-dasharray:none;stroke-dashoffset:0;stroke-opacity:1;color-rendering:auto;image-rendering:auto;shape-rendering:auto;text-rendering:auto;enable-background:accumulate" />
  <path
     style="color:#000000;font-style:normal;font-variant:normal;font-weight:normal;font-stretch:normal;font-size:medium;line-height:normal;font-family:sans-serif;font-variant-ligatures:normal;font-variant-position:normal;font-variant-caps:normal;font-variant-numeric:normal;font-variant-alternates:normal;font-feature-settings:normal;text-indent:0;text-align:start;text-decoration:none;text-decoration-line:none;text-decoration-style:solid;text-decoration-color:#000000;letter-spacing:normal;word-spacing:normal;text-transform:none;writing-mode:lr-tb;direction:ltr;text-orientation:mixed;dominant-baseline:auto;baseline-shift:baseline;text-anchor:start;white-space:normal;shape-padding:0;clip-rule:nonzero;display:inline;overflow:visible;visibility:visible;opacity:1;isolation:auto;mix-blend-mode:normal;color-interpolation:sRGB;color-interpolation-filters:linearRGB;solid-color:#000000;solid-opacity:1;vector-effect:none;fill:#ff9b1b;fill-opacity:1;fill-rule:nonzero;stroke:none;stroke-width:12;stroke-linecap:round;stroke-linejoin:round;stroke-miterlimit:4;stroke-dasharray:none;stroke-dashoffset:0;stroke-opacity:1;color-rendering:auto;image-rendering:auto;shape-rendering:auto;text-rendering:auto;enable-background:accumulate"
     d="M 17.582031,4.0097656 C 16.286842,4.059785 14.915052,4.3408449 13.761719,4.7226562 10.674171,5.7447928 8.174598,7.5033759 6.171875,10.066406 5.8488476,10.479808 5.5585736,10.87882 5.2578125,11.341797 5.107432,11.573285 4.9639753,11.788219 4.7402344,12.230469 c -0.1118705,0.221125 -0.251686,0.455717 -0.4472656,1.121093 -0.09779,0.332689 -0.2391611,0.763268 -0.25,1.652344 -0.010839,0.889077 0.1103604,2.684379 1.765625,4.337891 0.473557,0.473106 0.946403,0.655016 1.421875,0.908203 -1.4014733,2.009406 -2.4233568,4.025005 -2.8513358,6.050781 -0.4799699,2.271812 -0.4725099,3.476665 -0.072266,5.697266 0.5147688,2.856119 1.7616388,5.330837 3.7048515,7.386719 2.3748705,2.512553 5.7137995,3.996811 9.0839845,4.457031 0.716848,0.09794 1.268113,0.143095 1.847656,0.158203 0.05664,0 8.056641,0 12.133245,2e-6 1.718133,10e-7 3.199008,-0.454351 4.224177,-0.886711 0.654434,-0.280494 1.678974,-0.830675 2.552735,-2.023437 0.87376,-1.192763 1.222993,-2.870078 1.171875,-3.91211 -0.05705,-1.162822 -0.218882,-1.710379 -0.375,-2.039062 0.736644,-0.08769 1.857736,-0.361398 2.927734,-1.166016 1.101498,-0.828304 1.844799,-2.073546 2.099609,-2.912109 C 44,30 44,29.039062 44,29.039062 v -5.044921 c 0.10298,-4.079261 -2.387214,-7.85157 -4.966795,-9.763672 -0.615442,-0.456181 -0.952719,-0.61867 -1.357422,-0.853516 -0.55118,-0.989347 -1.177318,-1.805185 -1.736329,-2.419922 C 34.139568,8.9794275 31.248309,8.4314425 28.849609,9.6132812 28.01321,8.3586227 27.007912,7.1781619 25.679688,6.2246094 25.605996,6.1714835 25.531106,6.1200379 25.455078,6.0703125 23.603223,4.864054 21.022639,4.0965226 18.837891,4.0136719 c -0.38372,-0.014559 -0.797434,-0.021636 -1.25586,-0.00391 z"
     id="path4487"
     inkscape:connector-curvature="0"
     sodipodi:nodetypes="csssssscccccccscsccssccccccccccc" />
  <path
     sodipodi:nodetypes="sssccscscccccccccccccccscccccsccccccccccccccccscscccsccccccsccsccccscccccscccsccccscccccccccc"
     inkscape:connector-curvature="0"
     id="path4549"
     d="m 17.814453,11.005193 c -0.751178,0.02901 -1.395159,0.156271 -2.167969,0.41211 -1.77217,0.586679 -3.597761,1.872193 -4.746093,3.341797 -0.428557,0.548456 -0.9165328,1.272787 -0.851563,1.337688 0.021,0.02098 0.137465,-0.03723 0.257813,-0.128907 0.806681,-0.614535 2.020449,-1.124357 2.988281,-0.961547 1.501904,0.252651 2.707878,1.81212 2.705078,3.366047 -0.0025,1.36306 -0.627818,2.249496 -2.419922,4.296875 -2.284264,2.609642 -2.999016,3.832576 -3.429687,5.871094 -0.1827544,0.86502 -0.2015139,2.491265 -0.03906,3.392578 0.276223,1.532583 1.088782,3.089133 2.261719,4.330078 1.366275,1.445485 3.190556,2.312642 5.535156,2.632812 0.681445,0.0931 1.873242,0.124166 1.873047,0.04883 -4.2e-5,-0.01538 -0.195556,-0.0821 -0.328125,-0.132812 -0.0014,-5.19e-4 -0.0025,5.21e-4 -0.0039,0 -0.974236,-0.256192 -1.9341,-0.840086 -2.681641,-1.589844 -0.751734,-0.753953 -1.328506,-1.757524 -1.589853,-2.783205 -0.766952,-3.439453 0.416814,-5.801576 1.996094,-7.673828 1.152213,-1.159744 2.86907,-2.509575 4.53711,-3.527344 1.631288,-1.248489 3.331345,-3.649514 3.265624,-6.085937 2.27e-4,-1.668658 -0.818175,-3.63415 -2.796874,-5.054688 -1.116781,-0.727447 -2.121455,-1.03302 -3.56836,-1.08789 -0.282807,-0.01073 -0.546482,-0.01358 -0.796875,-0.0039 z m 13.685546,4.988282 c -1.211099,0.696011 -1.24443,1.88273 -1.436944,3.029297 -0.0222,0.354889 -0.07625,0.697105 -0.119141,0.759765 -0.397229,0.579851 -2.097672,1.887001 -4.309148,2.789063 -0.512327,0.209096 -0.725557,0.355403 -0.515625,0.355468 0.444713,1.88e-4 1.660974,0.159006 2.291015,0.298828 1.604134,0.356002 2.916119,0.645386 4.548828,1.554688 1.671369,0.930833 2.271261,1.093889 3.140625,1.193359 0.883321,0.101058 2.181349,-0.04207 2.703125,-0.296875 l 0.236328,-0.115234 0.01758,-0.720703 c 0.05268,-2.086764 -0.950303,-3.571371 -2.595703,-4.791016 -0.522275,-0.387123 -1.669025,-0.880908 -2.16211,-1.023437 -0.245608,-0.07099 -0.281147,-0.107908 -0.341797,-0.34375 -0.190185,-1.072468 -0.776945,-1.941572 -1.457031,-2.689453 z m -7.841796,8.005859 c -1.104688,0.03398 -1.721446,0.252459 -2.361328,0.535156 -0.419229,0.185201 -0.372898,0.276323 0.115234,0.226563 0.943206,-0.0961 2.768445,0.195947 3.820313,0.613281 1.977157,0.784442 3.771356,2.730955 4.943359,4.658203 0.222689,0.431085 0.355566,0.720839 0.91211,0.884766 0.195002,0.05664 0.545102,0.07575 1.064453,0.05859 0.869407,-0.02878 1.158368,-0.101663 2.236328,-0.572265 0.37664,-0.164426 0.717034,-0.207241 1.097656,-0.306641 0.380622,-0.0994 1.454957,-0.140506 1.986328,-0.002 C 37.997624,30.231909 38,30.231716 38,30.038396 38,29.612098 37.603042,28.545881 37.085938,28.235662 36.663524,27.982247 36.218208,27.867433 35.125,27.729803 33.469233,27.521355 32.597104,27.196094 30.824219,26.124334 29.325983,25.218602 28.434265,24.839385 26.923828,24.470037 25.628275,24.153235 24.862037,23.962344 23.658203,23.999334 Z m -1.46875,1.996094 c -1.652018,0.07754 -3.26382,0.663714 -4.566406,2.015625 0.177664,-0.11134 0.347634,-0.222636 0.556641,-0.332031 0.886887,-0.46419 1.835603,-0.681388 2.830078,-0.679688 0.939877,0.002 1.918127,0.237536 2.746093,0.669922 3.118859,1.628712 4.186262,5.665044 2.267579,8.615234 -0.733844,1.128367 -1.761706,1.955781 -3.009766,2.392578 -0.04842,0.01979 -0.09858,0.05077 -0.146484,0.06836 -0.204316,0.07502 -0.373047,0.166635 -0.373047,0.203125 0,0.133361 6.236393,-0.01114 9.337313,-0.220703 1.271452,-0.08592 1.302998,-0.09948 1.121093,-0.480469 -0.404702,-0.847635 -1.914532,-1.461847 -3.372469,-1.644531 -0.732126,-0.09173 -0.686515,0.0082 -0.443359,-0.933594 0.582991,-2.258091 0.08317,-4.953706 -1.238281,-6.666016 -1.150265,-1.490494 -2.944131,-2.904696 -4.839844,-3.003906 -0.290074,-0.01518 -0.57973,-0.01749 -0.869141,-0.0039 z m -1.183594,3.003906 c -0.650757,-0.0011 -1.352459,0.165412 -1.898437,0.451172 -0.550844,0.288317 -1.395208,1.152743 -1.66211,1.701172 -0.444556,0.91348 -0.560496,1.888635 -0.330078,2.792968 0.20613,0.808977 0.465759,1.260844 1.06836,1.865235 0.602405,0.604191 1.065272,0.882135 1.773437,1.068359 0.563627,0.148217 1.436695,0.162226 1.990235,0.03125 0.920465,-0.217791 1.865558,-0.892479 2.40039,-1.714844 1.29665,-1.993743 0.595531,-4.648458 -1.517578,-5.751953 -0.600397,-0.313542 -1.127854,-0.441859 -1.824219,-0.443359 z m 0.01172,2 c 0.780188,0.0059 1.393245,0.366 1.769531,1.039062 C 22.972801,32.370559 23,32.490418 23,32.989568 c 0,0.499144 -0.02719,0.620972 -0.212891,0.953125 -0.227313,0.406597 -0.589718,0.734433 -1,0.904297 h -0.002 c -1.010827,0.418483 -2.18659,-0.05462 -2.65039,-1.066406 -0.181132,-0.395556 -0.180526,-1.18777 0.002,-1.585938 0.343739,-0.750068 1.054719,-1.201712 1.880859,-1.195312 z"
     style="opacity:0.2;fill:#000000;fill-opacity:1;stroke-width:0.06456465" />
  <path
     style="fill:#ffffff;fill-opacity:1;stroke-width:0.06456465"
     d="m 17.814453,10.005859 c -0.751178,0.02901 -1.395159,0.156271 -2.167969,0.41211 -1.77217,0.586679 -3.597761,1.872193 -4.746093,3.341797 -0.428557,0.548456 -0.9165328,1.272787 -0.851563,1.337688 0.021,0.02098 0.137465,-0.03723 0.257813,-0.128907 C 11.113322,14.354012 12.32709,13.84419 13.294922,14.007 14.796826,14.259651 16.0028,15.81912 16,17.373047 c -0.0025,1.36306 -0.627818,2.249496 -2.419922,4.296875 -2.284264,2.609642 -2.999016,3.832576 -3.429687,5.871094 -0.1827544,0.86502 -0.2015139,2.491265 -0.03906,3.392578 0.276223,1.532583 1.088782,3.089133 2.261719,4.330078 1.366275,1.445485 3.190556,2.312642 5.535156,2.632812 0.681445,0.0931 1.873242,0.124166 1.873047,0.04883 -4.2e-5,-0.01538 -0.195556,-0.0821 -0.328125,-0.132812 -0.0014,-5.19e-4 -0.0025,5.21e-4 -0.0039,0 -0.974236,-0.256192 -1.9341,-0.840086 -2.681641,-1.589844 C 16.015853,35.468705 15.439081,34.465134 15.177734,33.439453 14.410782,30 15.594548,27.637877 17.173828,25.765625 c 1.152213,-1.159744 2.86907,-2.509575 4.53711,-3.527344 1.631288,-1.248489 3.331345,-3.649514 3.265624,-6.085937 2.27e-4,-1.668658 -0.818175,-3.63415 -2.796874,-5.054688 -1.116781,-0.727447 -2.121455,-1.03302 -3.56836,-1.08789 -0.282807,-0.01073 -0.546482,-0.013584 -0.796875,-0.0039 z m 13.685546,4.988282 c -1.211099,0.696011 -1.24443,1.88273 -1.436944,3.029297 -0.0222,0.354889 -0.07625,0.697105 -0.119141,0.759765 -0.397229,0.579851 -2.097672,1.887001 -4.309148,2.789063 -0.512327,0.209096 -0.725557,0.355403 -0.515625,0.355468 0.444713,1.88e-4 1.660974,0.159006 2.291015,0.298828 1.604134,0.356002 2.916119,0.645386 4.548828,1.554688 1.671369,0.930833 2.271261,1.093889 3.140625,1.193359 0.883321,0.101058 2.181349,-0.04207 2.703125,-0.296875 l 0.236328,-0.115234 0.01758,-0.720703 c 0.05268,-2.086764 -0.950303,-3.571371 -2.595703,-4.791016 -0.522275,-0.387123 -1.669025,-0.880908 -2.16211,-1.023437 -0.245608,-0.07099 -0.281147,-0.107908 -0.341797,-0.34375 -0.190185,-1.072468 -0.776945,-1.941572 -1.457031,-2.689453 z M 23.658203,23 c -1.104688,0.03398 -1.721446,0.252459 -2.361328,0.535156 -0.419229,0.185201 -0.372898,0.276323 0.115234,0.226563 0.943206,-0.0961 2.768445,0.195947 3.820313,0.613281 1.977157,0.784442 3.771356,2.730955 4.943359,4.658203 0.222689,0.431085 0.355566,0.720839 0.91211,0.884766 0.195002,0.05664 0.545102,0.07575 1.064453,0.05859 0.869407,-0.02878 1.158368,-0.101663 2.236328,-0.572265 0.37664,-0.164426 0.717034,-0.207241 1.097656,-0.306641 0.380622,-0.0994 1.454957,-0.140506 1.986328,-0.002 C 37.997624,29.232575 38,29.232382 38,29.039062 38,28.612764 37.603042,27.546547 37.085938,27.236328 36.663524,26.982913 36.218208,26.868099 35.125,26.730469 33.469233,26.522021 32.597104,26.19676 30.824219,25.125 29.325983,24.219268 28.434265,23.840051 26.923828,23.470703 25.628275,23.153901 24.862037,22.96301 23.658203,23 Z m -1.46875,1.996094 c -1.652018,0.07754 -3.26382,0.663714 -4.566406,2.015625 0.177664,-0.11134 0.347634,-0.222636 0.556641,-0.332031 C 19.066575,26.215498 20.015291,25.9983 21.009766,26 c 0.939877,0.002 1.918127,0.237536 2.746093,0.669922 3.118859,1.628712 4.186262,5.665044 2.267579,8.615234 -0.733844,1.128367 -1.761706,1.955781 -3.009766,2.392578 -0.04842,0.01979 -0.09858,0.05077 -0.146484,0.06836 -0.204316,0.07502 -0.373047,0.166635 -0.373047,0.203125 0,0.133361 6.236393,-0.01114 9.337313,-0.220703 1.271452,-0.08592 1.302998,-0.09948 1.121093,-0.480469 -0.404702,-0.847635 -1.914532,-1.461847 -3.372469,-1.644531 -0.732126,-0.09173 -0.686515,0.0082 -0.443359,-0.933594 0.582991,-2.258091 0.08317,-4.953706 -1.238281,-6.666016 C 26.748173,26.513412 24.954307,25.09921 23.058594,25 22.76852,24.98482 22.478864,24.98251 22.189453,24.9961 Z M 21.005859,28 c -0.650757,-0.0011 -1.352459,0.165412 -1.898437,0.451172 -0.550844,0.288317 -1.395208,1.152743 -1.66211,1.701172 -0.444556,0.91348 -0.560496,1.888635 -0.330078,2.792968 0.20613,0.808977 0.465759,1.260844 1.06836,1.865235 0.602405,0.604191 1.065272,0.882135 1.773437,1.068359 0.563627,0.148217 1.436695,0.162226 1.990235,0.03125 0.920465,-0.217791 1.865558,-0.892479 2.40039,-1.714844 1.29665,-1.993743 0.595531,-4.648458 -1.517578,-5.751953 C 22.229681,28.129817 21.702224,28.0015 21.005859,28 Z m 0.01172,2 c 0.780188,0.0059 1.393245,0.366 1.769531,1.039062 C 22.972801,31.371225 23,31.491084 23,31.990234 c 0,0.499144 -0.02719,0.620972 -0.212891,0.953125 -0.227313,0.406597 -0.589718,0.734433 -1,0.904297 h -0.002 c -1.010827,0.418483 -2.18659,-0.05462 -2.65039,-1.066406 -0.181132,-0.395556 -0.180526,-1.18777 0.002,-1.585938 C 19.480458,30.445244 20.191438,29.9936 21.017578,30 Z"
     id="path4512"
     inkscape:connector-curvature="0"
     sodipodi:nodetypes="sssccscscccccccccccccccscccccsccccccccccccccccscscccsccccccsccsccccscccccscccsccccscccccccccc" />
  <path
     style="color:#000000;font-style:normal;font-variant:normal;font-weight:normal;font-stretch:normal;font-size:medium;line-height:normal;font-family:sans-serif;font-variant-ligatures:normal;font-variant-position:normal;font-variant-caps:normal;font-variant-numeric:normal;font-variant-alternates:normal;font-feature-settings:normal;text-indent:0;text-align:start;text-decoration:none;text-decoration-line:none;text-decoration-style:solid;text-decoration-color:#000000;letter-spacing:normal;word-spacing:normal;text-transform:none;writing-mode:lr-tb;direction:ltr;text-orientation:mixed;dominant-baseline:auto;baseline-shift:baseline;text-anchor:start;white-space:normal;shape-padding:0;clip-rule:nonzero;display:inline;overflow:visible;visibility:visible;opacity:0.2;isolation:auto;mix-blend-mode:normal;color-interpolation:sRGB;color-interpolation-filters:linearRGB;solid-color:#000000;solid-opacity:1;vector-effect:none;fill:#ffffff;fill-opacity:1;fill-rule:nonzero;stroke:none;stroke-width:12;stroke-linecap:round;stroke-linejoin:round;stroke-miterlimit:4;stroke-dasharray:none;stroke-dashoffset:0;stroke-opacity:1;color-rendering:auto;image-rendering:auto;shape-rendering:auto;text-rendering:auto;enable-background:accumulate"
     d="M 17.582031 4.0097656 C 16.286842 4.059785 14.915052 4.3408449 13.761719 4.7226562 C 10.674171 5.7447928 8.174598 7.5033762 6.171875 10.066406 C 5.8488476 10.479808 5.5585736 10.87882 5.2578125 11.341797 C 5.107432 11.573285 4.9639753 11.788219 4.7402344 12.230469 C 4.6283639 12.451594 4.4885483 12.686186 4.2929688 13.351562 C 4.1951788 13.684252 4.0538077 14.11483 4.0429688 15.003906 C 4.0412785 15.142548 4.0563585 15.336884 4.0664062 15.515625 C 4.11206 14.950595 4.2155496 14.614948 4.2929688 14.351562 C 4.4885483 13.686186 4.6283639 13.451594 4.7402344 13.230469 C 4.9639753 12.788219 5.107432 12.573285 5.2578125 12.341797 C 5.5585736 11.87882 5.8488476 11.479808 6.171875 11.066406 C 8.174598 8.5033761 10.674171 6.7447928 13.761719 5.7226562 C 14.915052 5.340845 16.286842 5.059785 17.582031 5.0097656 C 18.040457 4.9920396 18.454171 4.9991129 18.837891 5.0136719 C 21.022639 5.0965226 23.603223 5.864054 25.455078 7.0703125 C 25.531106 7.1200379 25.605996 7.1714835 25.679688 7.2246094 C 27.007912 8.1781619 28.01321 9.3586229 28.849609 10.613281 C 31.248309 9.4314428 34.139567 9.9794278 35.939453 11.957031 C 36.498464 12.571768 37.124601 13.387606 37.675781 14.376953 C 38.080484 14.611799 38.417761 14.774288 39.033203 15.230469 C 41.612784 17.142571 44.10298 20.91488 44 24.994141 L 44 23.994141 C 44.10298 19.91488 41.612784 16.142571 39.033203 14.230469 C 38.417761 13.774288 38.080484 13.611799 37.675781 13.376953 C 37.124601 12.387606 36.498464 11.571768 35.939453 10.957031 C 34.139567 8.9794278 31.248309 8.4314425 28.849609 9.6132812 C 28.01321 8.3586228 27.007912 7.1781619 25.679688 6.2246094 C 25.605996 6.1714835 25.531106 6.1200379 25.455078 6.0703125 C 23.603223 4.864054 21.022639 4.0965226 18.837891 4.0136719 C 18.454171 3.9991129 18.040457 3.9920396 17.582031 4.0097656 z M 6.7460938 20.998047 C 5.6037954 22.759645 4.7538073 24.526242 4.3789062 26.300781 C 4.0861071 27.68667 3.9944658 28.685418 4.0429688 29.75 C 4.0791825 29.015665 4.1766232 28.258235 4.3789062 27.300781 C 4.8068853 25.275005 5.8289954 23.259406 7.2304688 21.25 C 7.0686155 21.163814 6.9074701 21.082012 6.7460938 20.998047 z M 38.914062 36.09375 C 38.827154 36.107778 38.72906 36.129307 38.650391 36.138672 C 38.788238 36.428888 38.925401 36.915942 38.996094 37.820312 C 39.014056 37.595356 39.034693 37.367363 39.025391 37.177734 C 39.00309 36.723183 38.961786 36.383947 38.914062 36.09375 z "
     id="path4495" />
</svg>
