<?xml version="1.0" encoding="UTF-8" standalone="no"?>
<svg
   xmlns:dc="http://purl.org/dc/elements/1.1/"
   xmlns:cc="http://creativecommons.org/ns#"
   xmlns:rdf="http://www.w3.org/1999/02/22-rdf-syntax-ns#"
   xmlns:svg="http://www.w3.org/2000/svg"
   xmlns="http://www.w3.org/2000/svg"
   xmlns:sodipodi="http://sodipodi.sourceforge.net/DTD/sodipodi-0.dtd"
   xmlns:inkscape="http://www.inkscape.org/namespaces/inkscape"
   height="48"
   width="48"
   version="1"
   id="svg18"
   sodipodi:docname="vc-browser.svg"
   inkscape:version="0.92.1 r15371">
  <metadata
     id="metadata24">
    <rdf:RDF>
      <cc:Work
         rdf:about="">
        <dc:format>image/svg+xml</dc:format>
        <dc:type
           rdf:resource="http://purl.org/dc/dcmitype/StillImage" />
        <dc:title></dc:title>
      </cc:Work>
    </rdf:RDF>
  </metadata>
  <defs
     id="defs22" />
  <sodipodi:namedview
     pagecolor="#ffffff"
     bordercolor="#666666"
     borderopacity="1"
     objecttolerance="10"
     gridtolerance="10"
     guidetolerance="10"
     inkscape:pageopacity="0"
     inkscape:pageshadow="2"
     inkscape:window-width="1600"
     inkscape:window-height="822"
     id="namedview20"
     showgrid="false"
     inkscape:zoom="1"
     inkscape:cx="18.517658"
     inkscape:cy="20.58133"
     inkscape:window-x="0"
     inkscape:window-y="0"
     inkscape:window-maximized="1"
     inkscape:current-layer="svg18">
    <inkscape:grid
       type="xygrid"
       id="grid4522" />
  </sodipodi:namedview>
  <rect
     transform="matrix(0,-1,-1,0,0,0)"
     rx="20"
     ry="20"
     height="40"
     width="40"
     y="-44"
     x="-45"
     id="rect4518"
     style="opacity:0.2;fill:#000000;fill-opacity:1;stroke-width:1.00090075" />
  <rect
     style="fill:#3aa33a;fill-opacity:1;stroke-width:1.00090075"
     id="rect2"
     x="-44"
     y="-44"
     width="40"
     height="40"
     ry="20"
     rx="20"
     transform="matrix(0,-1,-1,0,0,0)" />
  <path
     style="fill:#ffffff;fill-opacity:1;stroke-width:1.00090075;opacity:0.2"
     d="M 24 4 C 12.92 4 4 12.92 4 24 C 4 24.167874 4.007647 24.333141 4.0117188 24.5 C 4.2763904 13.653863 13.087874 5 24 5 C 34.912126 5 43.72361 13.653863 43.988281 24.5 C 43.992353 24.333141 44 24.167874 44 24 C 44 12.92 35.08 4 24 4 z "
     id="rect4513" />
  <path
     sodipodi:nodetypes="czzzc"
     inkscape:connector-curvature="0"
     id="path4508"
     d="m 35.005539,28.999541 c 0,0 -1,2 -3.5,2 -2.5,0 -5.5,0 -5.5,-6 0,-6 3,-6 5.5,-6 2.5,0 3.5,2 3.5,2"
     style="opacity:0.2;fill:none;stroke:#000000;stroke-width:2;stroke-linecap:round;stroke-linejoin:round;stroke-miterlimit:4;stroke-dasharray:none;stroke-opacity:1" />
  <path
     sodipodi:nodetypes="ccc"
     inkscape:connector-curvature="0"
     id="path4506"
     d="m 12.005539,18.999541 5,12 5,-12"
     style="opacity:0.2;fill:none;stroke:#000000;stroke-width:2;stroke-linecap:round;stroke-linejoin:round;stroke-miterlimit:4;stroke-dasharray:none;stroke-opacity:1" />
  <g
     id="g4504"
     transform="translate(0.00553942,-2.0004588)">
    <path
       sodipodi:nodetypes="ccc"
       inkscape:connector-curvature="0"
       id="path4498"
       d="m 12,20 5,12 5,-12"
       style="fill:none;stroke:#ffffff;stroke-width:2;stroke-linecap:round;stroke-linejoin:round;stroke-miterlimit:4;stroke-dasharray:none;stroke-opacity:1" />
    <path
       sodipodi:nodetypes="czzzc"
       inkscape:connector-curvature="0"
       id="path4500"
       d="m 35,30 c 0,0 -1,2 -3.5,2 -2.5,0 -5.5,0 -5.5,-6 0,-6 3,-6 5.5,-6 2.5,0 3.5,2 3.5,2"
       style="fill:none;stroke:#ffffff;stroke-width:2;stroke-linecap:round;stroke-linejoin:round;stroke-miterlimit:4;stroke-dasharray:none;stroke-opacity:1" />
  </g>
</svg>
