<?xml version="1.0" encoding="UTF-8" standalone="no"?>
<svg
   xmlns:dc="http://purl.org/dc/elements/1.1/"
   xmlns:cc="http://creativecommons.org/ns#"
   xmlns:rdf="http://www.w3.org/1999/02/22-rdf-syntax-ns#"
   xmlns:svg="http://www.w3.org/2000/svg"
   xmlns="http://www.w3.org/2000/svg"
   xmlns:sodipodi="http://sodipodi.sourceforge.net/DTD/sodipodi-0.dtd"
   xmlns:inkscape="http://www.inkscape.org/namespaces/inkscape"
   height="48"
   width="48"
   version="1"
   id="svg28"
   sodipodi:docname="video-player-perfect.svg"
   inkscape:version="0.92.1 r15371">
  <metadata
     id="metadata34">
    <rdf:RDF>
      <cc:Work
         rdf:about="">
        <dc:format>image/svg+xml</dc:format>
        <dc:type
           rdf:resource="http://purl.org/dc/dcmitype/StillImage" />
        <dc:title></dc:title>
      </cc:Work>
    </rdf:RDF>
  </metadata>
  <defs
     id="defs32" />
  <sodipodi:namedview
     pagecolor="#ffffff"
     bordercolor="#666666"
     borderopacity="1"
     objecttolerance="10"
     gridtolerance="10"
     guidetolerance="10"
     inkscape:pageopacity="0"
     inkscape:pageshadow="2"
     inkscape:window-width="1600"
     inkscape:window-height="822"
     id="namedview30"
     showgrid="false"
     inkscape:zoom="6.56"
     inkscape:cx="24"
     inkscape:cy="24"
     inkscape:window-x="0"
     inkscape:window-y="0"
     inkscape:window-maximized="1"
     inkscape:current-layer="svg28" />
  <path
     fill="#e44545"
     d="m24 4h-18c-1.108 0-2 0.892-2 2v18h20z"
     style="fill:#43c95a;fill-opacity:1"
     id="path2" />
  <path
     fill="#38ac52"
     d="m24 4h18c1.108 0 2 0.892 2 2v18h-20z"
     style="fill:#e4214c;fill-opacity:1"
     id="path4" />
  <path
     fill="#f2ae37"
     d="m24 44h-18c-1.108 0-2-0.892-2-2v-18h20z"
     style="fill:#2d8fc5;fill-opacity:1"
     id="path6" />
  <path
     fill="#37a0f2"
     d="m24 44h18c1.108 0 2-0.892 2-2v-18h-20z"
     style="fill:#ffd13e;fill-opacity:1"
     id="path8" />
  <path
     opacity=".2"
     fill="#fff"
     d="m6 4c-1.108 0-2 0.892-2 2v1c0-1.108 0.892-2 2-2h36c1.108 0 2 0.892 2 2v-1c0-1.108-0.892-2-2-2h-36z"
     id="path10" />
  <path
     opacity=".2"
     d="m6 45c-1.108 0-2-0.892-2-2v-1c0 1.108 0.892 2 2 2h36c1.108 0 2-0.892 2-2v1c0 1.108-0.892 2-2 2h-36z"
     id="path12" />
  <rect
     rx="3"
     ry="3"
     y="12"
     x="11"
     height="26"
     width="26"
     id="rect4515"
     style="opacity:0.2;fill:#000000;fill-opacity:1;stroke:none;stroke-width:7.58551264;stroke-linecap:square;stroke-linejoin:miter;stroke-miterlimit:4;stroke-dasharray:none;stroke-dashoffset:0;stroke-opacity:1" />
  <rect
     style="opacity:1;fill:#ffffff;fill-opacity:1;stroke:none;stroke-width:7.58551264;stroke-linecap:square;stroke-linejoin:miter;stroke-miterlimit:4;stroke-dasharray:none;stroke-dashoffset:0;stroke-opacity:1"
     id="rect4511"
     width="26"
     height="26"
     x="11"
     y="11"
     ry="3"
     rx="3" />
  <path
     sodipodi:type="star"
     style="opacity:1;fill:#714480;fill-opacity:1;stroke:none;stroke-width:8;stroke-linecap:square;stroke-linejoin:miter;stroke-miterlimit:4;stroke-dasharray:none;stroke-dashoffset:0;stroke-opacity:1"
     id="path4513"
     sodipodi:sides="3"
     sodipodi:cx="-20.135593"
     sodipodi:cy="12"
     sodipodi:r1="11.932589"
     sodipodi:r2="5.9662943"
     sodipodi:arg1="-0.52359878"
     sodipodi:arg2="0.52359878"
     inkscape:flatsided="false"
     inkscape:rounded="0"
     inkscape:randomized="0"
     d="m -9.8016686,6.0337057 -5.1669624,8.9494413 -5.166962,8.949442 -5.166963,-8.949442 -5.166962,-8.9494412 10.333925,-1e-7 z"
     transform="matrix(0,-0.67738058,0.6704329,0,14.954805,10.36054)"
     inkscape:transform-center-x="-2.0000009" />
</svg>
