<?xml version="1.0" encoding="UTF-8" standalone="no"?>
<svg
   xmlns:dc="http://purl.org/dc/elements/1.1/"
   xmlns:cc="http://creativecommons.org/ns#"
   xmlns:rdf="http://www.w3.org/1999/02/22-rdf-syntax-ns#"
   xmlns:svg="http://www.w3.org/2000/svg"
   xmlns="http://www.w3.org/2000/svg"
   xmlns:sodipodi="http://sodipodi.sourceforge.net/DTD/sodipodi-0.dtd"
   xmlns:inkscape="http://www.inkscape.org/namespaces/inkscape"
   height="48"
   width="48"
   version="1"
   id="svg20"
   sodipodi:docname="xbrowser.svg"
   inkscape:version="0.92.1 r15371">
  <metadata
     id="metadata26">
    <rdf:RDF>
      <cc:Work
         rdf:about="">
        <dc:format>image/svg+xml</dc:format>
        <dc:type
           rdf:resource="http://purl.org/dc/dcmitype/StillImage" />
        <dc:title></dc:title>
      </cc:Work>
    </rdf:RDF>
  </metadata>
  <defs
     id="defs24" />
  <sodipodi:namedview
     pagecolor="#ffffff"
     bordercolor="#666666"
     borderopacity="1"
     objecttolerance="10"
     gridtolerance="10"
     guidetolerance="10"
     inkscape:pageopacity="0"
     inkscape:pageshadow="2"
     inkscape:window-width="1600"
     inkscape:window-height="822"
     id="namedview22"
     showgrid="true"
     inkscape:zoom="8.56"
     inkscape:cx="24"
     inkscape:cy="23.006688"
     inkscape:window-x="0"
     inkscape:window-y="0"
     inkscape:window-maximized="1"
     inkscape:current-layer="svg20"
     showguides="false">
    <inkscape:grid
       type="xygrid"
       id="grid4558" />
  </sodipodi:namedview>
  <path
     inkscape:connector-curvature="0"
     id="path4606"
     d="M 10.609127,5.0132354 C 10.02914,5.0056218 9.6528712,4.9751373 8.8795713,5.0444739 8.4811289,5.0801995 7.976285,4.9955227 6.7083434,5.6692432 6.0743727,6.0061034 5.1633757,6.6847024 4.572293,7.8090782 3.9812104,8.933454 3.9186989,10.263318 4.0700377,11.094974 c 0.3026778,1.663313 0.8035457,2.00522 1.0377336,2.315551 0.234188,0.310332 0.3687245,0.453591 0.4827123,0.583769 0.2253815,0.257395 0.3714198,0.423031 0.5413412,0.652103 0.00195,0.0026 0.0039,0.0052 0.00586,0.0078 C 6.2430408,14.810418 10.082826,20.310472 13.448725,25 10.080233,29.69314 6.2325234,35.204289 6.1318248,35.353599 5.9619036,35.58267 5.8158661,35.748308 5.5904836,36.005703 5.4764953,36.135881 5.3419604,36.279139 5.1077713,36.589471 4.8735823,36.899803 4.372715,37.24171 4.0700377,38.905022 c -0.1513385,0.831656 -0.088823,2.161524 0.5022553,3.285897 0.5910786,1.124372 1.5020815,1.802972 2.1360504,2.139835 1.267938,0.673723 1.7727844,0.589043 2.1712279,0.624769 0.773302,0.06933 1.1495677,0.03886 1.7295557,0.03124 h 4.14898 c 1.144854,0.01765 2.810738,-0.07682 4.361999,-1.025013 1.549763,-0.947273 2.065999,-1.896362 2.52691,-2.510792 l 0.002,-0.002 2.350976,-3.127704 2.351023,3.127751 c 0.46125,0.614379 0.977606,1.564559 2.528865,2.512744 1.551259,0.948185 3.217149,1.042664 4.361999,1.025013 h 4.148979 c 0.579986,0.0076 0.956257,0.0381 1.729556,-0.03124 0.398442,-0.03573 0.903286,0.04895 2.171228,-0.624769 0.633972,-0.336861 1.544968,-1.015458 2.136051,-2.139835 0.591083,-1.124378 0.653594,-2.454241 0.502255,-3.285897 -0.302679,-1.663312 -0.803546,-2.005221 -1.037734,-2.315551 -0.234187,-0.31033 -0.368725,-0.45359 -0.482711,-0.583768 -0.225382,-0.257394 -0.371421,-0.423032 -0.541342,-0.652104 -0.002,-0.0026 -0.0039,-0.0052 -0.0059,-0.0078 -0.105314,-0.15622 -3.945099,-5.656275 -7.310999,-10.345802 3.3659,-4.689528 7.205685,-10.189582 7.311038,-10.34579 l 0.0059,-0.0078 c 0.169921,-0.229071 0.31596,-0.394709 0.541342,-0.652103 0.113986,-0.130178 0.248524,-0.273438 0.482711,-0.583769 0.234188,-0.31033 0.735055,-0.652239 1.037734,-2.315551 0.151299,-0.831665 0.08879,-2.1615277 -0.502295,-3.2859048 C 42.836609,6.684701 41.925613,6.0061034 41.291641,5.6692432 40.023699,4.9955226 39.518856,5.0801994 39.120413,5.0444739 38.347114,4.9751375 37.970843,5.0056222 37.390857,5.0132354 h -4.148976 c -1.144855,-0.017656 -2.810738,0.076824 -4.361999,1.0250122 -1.551261,0.9481879 -2.067617,1.8983673 -2.528865,2.5127442 l -2.351023,3.1277512 -2.351023,-3.1277512 -0.002,-0.00195 C 21.186105,7.934609 20.66987,6.9855208 19.120106,6.0382476 17.568844,5.0900595 15.902961,4.9955798 14.758107,5.0132354 h -4.096214 z"
     style="color:#000000;font-style:normal;font-variant:normal;font-weight:normal;font-stretch:normal;font-size:medium;line-height:normal;font-family:sans-serif;font-variant-ligatures:normal;font-variant-position:normal;font-variant-caps:normal;font-variant-numeric:normal;font-variant-alternates:normal;font-feature-settings:normal;text-indent:0;text-align:start;text-decoration:none;text-decoration-line:none;text-decoration-style:solid;text-decoration-color:#000000;letter-spacing:normal;word-spacing:normal;text-transform:none;writing-mode:lr-tb;direction:ltr;text-orientation:mixed;dominant-baseline:auto;baseline-shift:baseline;text-anchor:start;white-space:normal;shape-padding:0;clip-rule:nonzero;display:inline;overflow:visible;visibility:visible;opacity:0.2;isolation:auto;mix-blend-mode:normal;color-interpolation:sRGB;color-interpolation-filters:linearRGB;solid-color:#000000;solid-opacity:1;vector-effect:none;fill:#000000;fill-opacity:1;fill-rule:nonzero;stroke:none;stroke-width:10.00116253;stroke-linecap:round;stroke-linejoin:round;stroke-miterlimit:4;stroke-dasharray:none;stroke-dashoffset:0;stroke-opacity:1;color-rendering:auto;image-rendering:auto;shape-rendering:auto;text-rendering:auto;enable-background:accumulate" />
  <path
     style="color:#000000;font-style:normal;font-variant:normal;font-weight:normal;font-stretch:normal;font-size:medium;line-height:normal;font-family:sans-serif;font-variant-ligatures:normal;font-variant-position:normal;font-variant-caps:normal;font-variant-numeric:normal;font-variant-alternates:normal;font-feature-settings:normal;text-indent:0;text-align:start;text-decoration:none;text-decoration-line:none;text-decoration-style:solid;text-decoration-color:#000000;letter-spacing:normal;word-spacing:normal;text-transform:none;writing-mode:lr-tb;direction:ltr;text-orientation:mixed;dominant-baseline:auto;baseline-shift:baseline;text-anchor:start;white-space:normal;shape-padding:0;clip-rule:nonzero;display:inline;overflow:visible;visibility:visible;opacity:1;isolation:auto;mix-blend-mode:normal;color-interpolation:sRGB;color-interpolation-filters:linearRGB;solid-color:#000000;solid-opacity:1;vector-effect:none;fill:#cccccc;fill-opacity:1;fill-rule:nonzero;stroke:none;stroke-width:10.00116253;stroke-linecap:round;stroke-linejoin:round;stroke-miterlimit:4;stroke-dasharray:none;stroke-dashoffset:0;stroke-opacity:1;color-rendering:auto;image-rendering:auto;shape-rendering:auto;text-rendering:auto;enable-background:accumulate"
     d="M 10.609127,4.0132364 C 10.02914,4.0056228 9.6528712,3.9751383 8.8795713,4.0444749 8.4811289,4.0802005 7.976285,3.9955237 6.7083434,4.6692442 6.0743727,5.0061044 5.1633757,5.6847034 4.572293,6.8090792 3.9812104,7.933455 3.9186989,9.263319 4.0700377,10.094975 c 0.3026778,1.663313 0.8035457,2.00522 1.0377336,2.315551 0.234188,0.310332 0.3687245,0.453591 0.4827123,0.583769 0.2253815,0.257395 0.3714198,0.423031 0.5413412,0.652103 0.00195,0.0026 0.0039,0.0052 0.00586,0.0078 0.105356,0.156221 3.9451412,5.656275 7.3110402,10.345803 -3.368492,4.69314 -7.2162016,10.204289 -7.3169002,10.353599 -0.1699212,0.229071 -0.3159587,0.394709 -0.5413412,0.652104 -0.1139883,0.130178 -0.2485232,0.273436 -0.4827123,0.583768 -0.234189,0.310332 -0.7350563,0.652239 -1.0377336,2.315551 -0.1513385,0.831656 -0.088823,2.161524 0.5022553,3.285897 0.5910786,1.124372 1.5020815,1.802972 2.1360504,2.139835 1.267938,0.673723 1.7727844,0.589043 2.1712279,0.624769 0.773302,0.06933 1.1495677,0.03886 1.7295557,0.03124 h 4.14898 c 1.144854,0.01765 2.810738,-0.07682 4.361999,-1.025013 1.549763,-0.947273 2.065999,-1.896362 2.52691,-2.510792 l 0.002,-0.002 2.350976,-3.127704 2.351023,3.127751 c 0.46125,0.614379 0.977606,1.564559 2.528865,2.512744 1.551259,0.948185 3.217149,1.042664 4.361999,1.025013 h 4.148979 c 0.579986,0.0076 0.956257,0.0381 1.729556,-0.03124 0.398442,-0.03573 0.903286,0.04895 2.171228,-0.624769 0.633972,-0.336861 1.544968,-1.015458 2.136051,-2.139835 0.591083,-1.124378 0.653594,-2.454241 0.502255,-3.285897 -0.302679,-1.663312 -0.803546,-2.005221 -1.037734,-2.315551 -0.234187,-0.31033 -0.368725,-0.45359 -0.482711,-0.583768 -0.225382,-0.257394 -0.371421,-0.423032 -0.541342,-0.652104 -0.002,-0.0026 -0.0039,-0.0052 -0.0059,-0.0078 -0.105314,-0.15622 -3.945099,-5.656275 -7.310999,-10.345802 3.3659,-4.689528 7.205685,-10.189582 7.311038,-10.34579 l 0.0059,-0.0078 c 0.169921,-0.229071 0.31596,-0.394709 0.541342,-0.652103 0.113986,-0.130178 0.248524,-0.273438 0.482711,-0.583769 0.234188,-0.31033 0.735055,-0.652239 1.037734,-2.315551 C 44.081286,9.2633193 44.018777,7.9334563 43.427692,6.8090792 42.836609,5.684702 41.925613,5.0061044 41.291641,4.6692442 40.023699,3.9955236 39.518856,4.0802004 39.120413,4.0444749 38.347114,3.9751385 37.970843,4.0056232 37.390857,4.0132364 h -4.148976 c -1.144855,-0.017656 -2.810738,0.076824 -4.361999,1.0250122 -1.551261,0.9481879 -2.067617,1.8983673 -2.528865,2.5127442 l -2.351023,3.1277512 -2.351023,-3.1277512 -0.002,-0.00195 C 21.186105,6.93461 20.66987,5.9855218 19.120106,5.0382486 17.568844,4.0900605 15.902961,3.9955808 14.758107,4.0132364 h -4.096214 z"
     id="path4594"
     inkscape:connector-curvature="0" />
  <path
     style="opacity:0.2;vector-effect:none;fill:#000000;fill-opacity:1;stroke:none;stroke-width:4.35408926;stroke-linecap:round;stroke-linejoin:round;stroke-miterlimit:4;stroke-dasharray:none;stroke-dashoffset:0;stroke-opacity:1"
     d="m 10.617471,39.994762 c -2.4547988,0.0255 -1.7032374,0.02477 -0.44711,-1.675415 C 10.170361,38.319347 22.498882,20 24,20 c 1.501118,0 13.829639,18.319347 13.829639,18.319347 1.256127,1.700192 2.007689,1.70092 -0.44711,1.675415 h -4.224827 c -1.652221,0.0255 -1.867851,-0.288056 -2.807267,-1.540561 L 24,30 17.649565,38.454201 c -0.939417,1.252505 -1.155046,1.566066 -2.807267,1.540561 z"
     id="path4608"
     inkscape:connector-curvature="0"
     sodipodi:nodetypes="cczcccccccc" />
  <path
     sodipodi:nodetypes="cczcccccccc"
     inkscape:connector-curvature="0"
     id="path4563"
     d="m 10.617471,38.994762 c -2.4547988,0.0255 -1.7032374,0.02477 -0.44711,-1.675415 C 10.170361,37.319347 22.498882,19 24,19 c 1.501118,0 13.829639,18.319347 13.829639,18.319347 1.256127,1.700192 2.007689,1.70092 -0.44711,1.675415 h -4.224827 c -1.652221,0.0255 -1.867851,-0.288056 -2.807267,-1.540561 L 24,29 17.649565,37.454201 c -0.939417,1.252505 -1.155046,1.566066 -2.807267,1.540561 z"
     style="opacity:1;vector-effect:none;fill:#ea3b2e;fill-opacity:1;stroke:none;stroke-width:4.35408926;stroke-linecap:round;stroke-linejoin:round;stroke-miterlimit:4;stroke-dasharray:none;stroke-dashoffset:0;stroke-opacity:1" />
  <path
     sodipodi:nodetypes="cczcccccccc"
     inkscape:connector-curvature="0"
     id="path4610"
     d="M 10.617471,10.005238 C 8.1626722,9.9797328 8.9142336,9.9804618 10.170361,11.680653 10.170361,11.680653 22.498882,30 24,30 25.501118,30 37.829639,11.680653 37.829639,11.680653 39.085766,9.9804613 39.837328,9.9797331 37.382529,10.005238 h -4.224827 c -1.652221,-0.025505 -1.867851,0.288056 -2.807267,1.540561 L 24,20 17.649565,11.545799 C 16.710148,10.293294 16.494519,9.9797331 14.842298,10.005238 Z"
     style="opacity:0.2;vector-effect:none;fill:#000000;fill-opacity:1;stroke:none;stroke-width:4.35408926;stroke-linecap:round;stroke-linejoin:round;stroke-miterlimit:4;stroke-dasharray:none;stroke-dashoffset:0;stroke-opacity:1" />
  <path
     style="opacity:1;vector-effect:none;fill:#4b8ad0;fill-opacity:1;stroke:none;stroke-width:4.35408926;stroke-linecap:round;stroke-linejoin:round;stroke-miterlimit:4;stroke-dasharray:none;stroke-dashoffset:0;stroke-opacity:1"
     d="M 10.617471,9.0052381 C 8.1626722,8.9797331 8.9142336,8.9804621 10.170361,10.680653 10.170361,10.680653 22.498882,29 24,29 25.501118,29 37.829639,10.680653 37.829639,10.680653 39.085766,8.9804616 39.837328,8.9797334 37.382529,9.0052381 H 33.157702 C 31.505481,8.9797334 31.289851,9.2932939 30.350435,10.545799 L 24,19 17.649565,10.545799 C 16.710148,9.2932939 16.494519,8.9797334 14.842298,9.0052381 Z"
     id="path4519"
     inkscape:connector-curvature="0"
     sodipodi:nodetypes="cczcccccccc" />
  <path
     style="color:#000000;font-style:normal;font-variant:normal;font-weight:normal;font-stretch:normal;font-size:medium;line-height:normal;font-family:sans-serif;font-variant-ligatures:normal;font-variant-position:normal;font-variant-caps:normal;font-variant-numeric:normal;font-variant-alternates:normal;font-feature-settings:normal;text-indent:0;text-align:start;text-decoration:none;text-decoration-line:none;text-decoration-style:solid;text-decoration-color:#000000;letter-spacing:normal;word-spacing:normal;text-transform:none;writing-mode:lr-tb;direction:ltr;text-orientation:mixed;dominant-baseline:auto;baseline-shift:baseline;text-anchor:start;white-space:normal;shape-padding:0;clip-rule:nonzero;display:inline;overflow:visible;visibility:visible;opacity:0.2;isolation:auto;mix-blend-mode:normal;color-interpolation:sRGB;color-interpolation-filters:linearRGB;solid-color:#000000;solid-opacity:1;vector-effect:none;fill:#ffffff;fill-opacity:1;fill-rule:nonzero;stroke:none;stroke-width:10.00116253;stroke-linecap:round;stroke-linejoin:round;stroke-miterlimit:4;stroke-dasharray:none;stroke-dashoffset:0;stroke-opacity:1;color-rendering:auto;image-rendering:auto;shape-rendering:auto;text-rendering:auto;enable-background:accumulate"
     d="M 9.8164062 4 C 9.5531782 4.0000943 9.2655562 4.0102536 8.8789062 4.0449219 C 8.4804638 4.0806475 7.976926 3.9962014 6.7089844 4.6699219 C 6.0750137 5.0067821 5.1633483 5.684218 4.5722656 6.8085938 C 4.0579189 7.7870002 3.9563971 8.9025839 4.0351562 9.7285156 C 4.092762 9.1026504 4.2470343 8.427259 4.5722656 7.8085938 C 5.1633483 6.6842179 6.0750137 6.0067821 6.7089844 5.6699219 C 7.976926 4.9962014 8.4804638 5.0806475 8.8789062 5.0449219 C 9.6522061 4.9755853 10.029388 5.0060583 10.609375 5.0136719 L 10.662109 5.0136719 L 14.757812 5.0136719 C 15.902666 4.9960163 17.567879 5.0908744 19.119141 6.0390625 C 20.668905 6.9863357 21.185618 7.9343953 21.646484 8.5488281 L 21.648438 8.5507812 L 24 11.679688 L 26.351562 8.5507812 C 26.812811 7.9364044 27.327645 6.9872504 28.878906 6.0390625 C 30.430167 5.0908743 32.097333 4.9960159 33.242188 5.0136719 L 37.390625 5.0136719 C 37.970611 5.0060587 38.347795 4.9755855 39.121094 5.0449219 C 39.519537 5.0806474 40.023074 4.9962013 41.291016 5.6699219 C 41.924988 6.0067821 42.836651 6.6842166 43.427734 7.8085938 C 43.752967 8.4272597 43.907232 9.1026491 43.964844 9.7285156 C 44.043577 8.9025783 43.942083 7.7870013 43.427734 6.8085938 C 42.836651 5.6842165 41.924988 5.0067821 41.291016 4.6699219 C 40.023074 3.9962013 39.519537 4.0806474 39.121094 4.0449219 C 38.347795 3.9755855 37.970611 4.0060587 37.390625 4.0136719 L 33.242188 4.0136719 C 32.097333 3.9960159 30.430167 4.0908743 28.878906 5.0390625 C 27.327645 5.9872504 26.812811 6.9364044 26.351562 7.5507812 L 24 10.679688 L 21.648438 7.5507812 L 21.646484 7.5488281 C 21.185618 6.9343953 20.668905 5.9863357 19.119141 5.0390625 C 17.567879 4.0908744 15.902666 3.9960163 14.757812 4.0136719 L 10.662109 4.0136719 L 10.609375 4.0136719 C 10.319381 4.0098651 10.079634 3.9999058 9.8164062 4 z M 13.09375 24.5 C 9.8195122 29.071982 6.2278975 34.209633 6.1308594 34.353516 C 5.9609382 34.582587 5.8152262 34.748464 5.5898438 35.005859 C 5.4758555 35.136037 5.341611 35.279512 5.1074219 35.589844 C 4.8732329 35.900176 4.3729898 36.240985 4.0703125 37.904297 C 4.002245 38.278351 3.9880675 38.759888 4.0351562 39.271484 C 4.0469063 39.148263 4.0506653 39.012265 4.0703125 38.904297 C 4.3729898 37.240985 4.8732329 36.900176 5.1074219 36.589844 C 5.341611 36.279512 5.4758555 36.136037 5.5898438 36.005859 C 5.8152262 35.748464 5.9609382 35.582587 6.1308594 35.353516 C 6.231558 35.204206 10.080727 29.69314 13.449219 25 C 13.326725 24.829337 13.217296 24.672514 13.09375 24.5 z M 34.90625 24.5 C 34.782704 24.672514 34.673275 24.829337 34.550781 25 C 37.916681 29.689527 41.756014 35.189483 41.861328 35.345703 C 41.863328 35.348303 41.865187 35.350916 41.867188 35.353516 C 42.037108 35.582588 42.184774 35.748465 42.410156 36.005859 C 42.524142 36.136037 42.658391 36.279514 42.892578 36.589844 C 43.126766 36.900174 43.627009 37.240985 43.929688 38.904297 C 43.949335 39.012265 43.953094 39.148263 43.964844 39.271484 C 44.011932 38.759888 43.997755 38.278351 43.929688 37.904297 C 43.627009 36.240985 43.126766 35.900174 42.892578 35.589844 C 42.658391 35.279514 42.524142 35.136037 42.410156 35.005859 C 42.184774 34.748465 42.037108 34.582588 41.867188 34.353516 C 41.865187 34.350916 41.863328 34.348303 41.861328 34.345703 C 41.759847 34.195168 38.177522 29.067857 34.90625 24.5 z "
     id="path4601" />
</svg>
