<?xml version="1.0" encoding="UTF-8" standalone="no"?>
<svg
   xmlns:dc="http://purl.org/dc/elements/1.1/"
   xmlns:cc="http://creativecommons.org/ns#"
   xmlns:rdf="http://www.w3.org/1999/02/22-rdf-syntax-ns#"
   xmlns:svg="http://www.w3.org/2000/svg"
   xmlns="http://www.w3.org/2000/svg"
   xmlns:sodipodi="http://sodipodi.sourceforge.net/DTD/sodipodi-0.dtd"
   xmlns:inkscape="http://www.inkscape.org/namespaces/inkscape"
   height="48"
   width="48"
   version="1"
   id="svg10"
   sodipodi:docname="yo-browser.svg"
   inkscape:version="0.92.1 r15371">
  <metadata
     id="metadata16">
    <rdf:RDF>
      <cc:Work
         rdf:about="">
        <dc:format>image/svg+xml</dc:format>
        <dc:type
           rdf:resource="http://purl.org/dc/dcmitype/StillImage" />
        <dc:title></dc:title>
      </cc:Work>
    </rdf:RDF>
  </metadata>
  <defs
     id="defs14" />
  <sodipodi:namedview
     pagecolor="#ffffff"
     bordercolor="#666666"
     borderopacity="1"
     objecttolerance="10"
     gridtolerance="10"
     guidetolerance="10"
     inkscape:pageopacity="0"
     inkscape:pageshadow="2"
     inkscape:window-width="1600"
     inkscape:window-height="822"
     id="namedview12"
     showgrid="true"
     inkscape:zoom="11.6"
     inkscape:cx="34.241542"
     inkscape:cy="35.584586"
     inkscape:window-x="0"
     inkscape:window-y="0"
     inkscape:window-maximized="1"
     inkscape:current-layer="svg10">
    <inkscape:grid
       type="xygrid"
       id="grid4505" />
  </sodipodi:namedview>
  <path
     opacity=".2"
     d="m3.0117 24.5c-0.0041 0.167-0.0117 0.332-0.0117 0.5 0 11.08 8.92 20 20 20s20-8.92 20-20c0-0.168-0.008-0.333-0.012-0.5-0.264 10.846-9.076 19.5-19.988 19.5s-19.724-8.654-19.988-19.5z"
     id="path8"
     style="opacity:0.2;fill:#000000;fill-opacity:1" />
  <path
     d="M 23,4 C 11.92,4 3,12.92 3,24 3,35.08 11.92,44 23,44 34.08,44 43,35.08 43,24 43,12.92 34.08,4 23,4 Z"
     id="path4"
     inkscape:connector-curvature="0"
     style="fill:#e4e4e4"
     sodipodi:nodetypes="sssss" />
  <path
     opacity=".1"
     d="m23 4c11.07 0 19.982 8.92 19.982 20 0 0.16787-0.008 0.33314-0.01169 0.5-0.264-10.846-9.068-19.5-19.97-19.5s-19.706 8.654-19.97 19.5c-0.004-0.16686-0.011689-0.33213-0.011689-0.5 0-11.08 8.9119-20 19.982-20z"
     fill="#fff"
     id="path6" />
  <path
     id="path4528"
     d="M 29.279297,6.9565372 C 29.189309,6.9580975 29.096247,6.9725175 29,6.999506 28.737495,7.270372 28.075219,8.7997522 27.730469,9.0209904 L 27.103516,9.4233341 25.861328,9.2202091 C 23.386784,8.8185542 20.593759,9.043076 18.287109,9.827631 c -2.583107,0.878574 -4.366953,3.188506 -4.376953,4.685547 -0.0038,0.572565 -0.192143,0.745392 -2.289062,2.111328 -0.914072,0.595432 -2.1088979,1.486274 -2.6562502,1.980469 -0.5473426,0.494205 -1.4230015,0.940344 -1.5800782,0.990234 -0.3929677,0.124725 -0.4796327,0.595808 -0.2832031,1.548828 0.1942406,0.942391 0.4042442,1.395508 0.8261719,1.777344 0.1675386,0.151623 0.5244298,0.718616 0.7929687,1.261719 0.5802566,1.173519 1.4504849,2.23741 2.0332029,2.482422 0.381725,0.16039 0.41754,0.22825 0.38086,0.736328 -0.08818,1.221392 0.795076,2.943441 2.384765,3.736328 0.991308,0.494431 1.730572,1.129508 1.638672,0.800781 -0.218714,-0.782385 -0.165691,-1.708655 0.210938,-2.15625 0.503129,-0.597936 1.503208,-0.783203 2.498047,-0.783203 0.717237,0 0.943915,0.02495 2.044921,0.65625 1.520439,0.87181 1.596803,1.085471 2.75,1.205078 0.820811,0.08514 0.915102,0.130248 1.101563,0.509766 0.335318,0.682381 0.348665,2.226665 0.02539,3.15039 -0.722216,2.06367 -1.873488,3.634199 -3.998046,4.28125 -0.789308,0.240422 -1.174084,0.277081 -2.285157,0.212891 -0.734829,-0.04249 -1.486626,-0.122224 -1.669921,-0.177734 -0.584358,-0.176916 -0.192734,0.194905 0.654296,0.621093 1.056743,0.531704 2.761712,1.077528 4.111328,1.316407 3.298551,0.583826 6.924073,0.01965 9.960938,-1.548829 3.947909,-2.039009 6.877887,-5.69942 8.0625,-10.072265 0.344625,-1.272035 0.375414,-1.593995 0.375,-3.947266 -3.75e-4,-2.333914 -0.03293,-2.684187 -0.367188,-3.93164 -0.95946,-3.580638 -3.230146,-6.861531 -6.232421,-9.003907 -0.834902,-0.595777 -1.059554,-0.911321 -1.064453,-1.498047 -0.058,-1.1447845 -0.706821,-3.8398092 -2.056641,-3.8164058 z M 17.875,24.005365 c 0.2464,-0.02994 0.38746,0.06985 0.816406,0.427735 0.640102,0.534044 1.432799,1.57899 1.291016,1.701172 -0.04633,0.03991 -0.518256,-0.02163 -1.050781,-0.136719 -1.485874,0.0026 -2.930784,0.0027 -4.640625,0.117187 l -0.234375,-0.589843 c 1.228156,-0.556541 3.182251,-1.353762 3.523437,-1.451172 0.120021,-0.03427 0.212789,-0.05838 0.294922,-0.06836 z"
     style="opacity:0.2;fill:#0a0600;fill-opacity:1;stroke-width:0.13849609"
     inkscape:connector-curvature="0" />
  <path
     style="fill:#f87a06;fill-opacity:1;stroke-width:0.13849609"
     d="M 29.279297,5.9570312 C 29.189309,5.9585915 29.096247,5.9730115 29,6 28.737495,6.270866 26.97532,7.8002462 26.63057,8.0214844 L 26.003617,8.4238281 24.761429,8.2207031 C 22.286885,7.8190482 20.593759,8.04357 18.287109,8.828125 c -2.583107,0.8785741 -4.366953,3.188506 -4.376953,4.685547 -0.0038,0.572565 -0.192143,0.745392 -2.289062,2.111328 -0.914072,0.595432 -2.1088979,1.486274 -2.6562502,1.980469 -0.5473426,0.494205 -1.4230015,0.940344 -1.5800782,0.990234 -0.3929677,0.124725 -0.4796327,0.595808 -0.2832031,1.548828 0.1942406,0.942391 0.4042442,1.395508 0.8261719,1.777344 0.1675386,0.151623 0.5244298,0.718616 0.7929687,1.261719 0.5802566,1.173519 1.4504849,2.23741 2.0332029,2.482422 0.381725,0.16039 0.41754,0.22825 0.38086,0.736328 -0.08818,1.221392 0.795076,2.943441 2.384765,3.736328 0.991308,0.494431 1.730572,1.129508 1.638672,0.800781 -0.218714,-0.782385 -0.165691,-1.708655 0.210938,-2.15625 C 15.87227,28.185267 16.872349,28 17.867188,28 c 0.717237,0 0.943915,0.02495 2.044921,0.65625 1.520439,0.87181 1.596803,1.085471 2.75,1.205078 0.820811,0.08514 0.915102,0.130248 1.101563,0.509766 0.335318,0.682381 0.348665,2.226665 0.02539,3.15039 -0.722216,2.06367 -1.873488,3.634199 -3.998046,4.28125 -0.789308,0.240422 -1.174084,0.277081 -2.285157,0.212891 -0.734829,-0.04249 -1.486626,-0.122224 -1.669921,-0.177734 -0.584358,-0.176916 -0.192734,0.194905 0.654296,0.621093 1.056743,0.531704 2.761712,1.077528 4.111328,1.316407 3.298551,0.583826 6.924073,0.01965 9.960938,-1.548829 3.947909,-2.039009 6.877887,-5.69942 8.0625,-10.072265 0.344625,-1.272035 0.375414,-1.593995 0.375,-3.947266 -3.75e-4,-2.333914 -0.03293,-2.684187 -0.367188,-3.93164 -0.95946,-3.580638 -3.230146,-6.861531 -6.232421,-9.003907 -0.834902,-0.595777 -1.059554,-0.911321 -1.064453,-1.4980465 -0.058,-1.144785 -0.706821,-3.8398097 -2.056641,-3.8164063 z M 17.875,23.005859 c 0.2464,-0.02994 0.38746,0.06985 0.816406,0.427735 0.640102,0.534044 1.432799,1.57899 1.291016,1.701172 -0.04633,0.03991 -0.518256,-0.02163 -1.050781,-0.136719 -1.485874,0.0026 -2.930784,0.0027 -4.640625,0.117187 l -0.234375,-0.589843 c 1.228156,-0.556541 3.182251,-1.353762 3.523437,-1.451172 0.120021,-0.03427 0.212789,-0.05838 0.294922,-0.06836 z"
     id="path4509"
     inkscape:connector-curvature="0"
     sodipodi:nodetypes="scccccccccccccccccscccccccccccccccssccccccs" />
  <path
     sodipodi:nodetypes="ccccc"
     inkscape:connector-curvature="0"
     id="path4530"
     d="M 15,28 C 14.761985,27.35571 14.21049,26.183102 14.290159,26.114446 L 14.090092,25.510537 C 13.592562,25.735367 13.208185,25.922754 13.087551,26.012 13.065184,26.861893 14.199526,27.713537 15,28 Z"
     style="opacity:0.2;fill:#000000;fill-opacity:1;stroke-width:0.14087185" />
  <path
     style="fill:#ffffff;fill-opacity:1;stroke-width:0.14087185"
     d="M 15,27 C 14.761985,26.35571 14.21049,25.183102 14.290159,25.114446 L 14.090092,24.510537 C 13.592562,24.735367 13.208185,24.922754 13.087551,25.012 13.065184,25.861893 14.199526,26.713537 15,27 Z"
     id="path4499"
     inkscape:connector-curvature="0"
     sodipodi:nodetypes="ccccc" />
  <path
     sodipodi:nodetypes="ccccccc"
     inkscape:connector-curvature="0"
     id="path4532"
     d="m 7.7575698,19.000215 c -0.410412,-0.01015 -0.7482667,0.339617 -0.7481958,0.774576 0,0 -0.049544,1.008019 0.079168,1.484518 C 7.4772495,22.361257 7.9744508,22.90668 8.7384631,23 c 0,0 1.3353689,-0.351431 1.9521219,-0.663163 1.290546,-0.621679 1.479015,-1.343273 1.194386,-2.104148 -0.977012,-1.294436 -2.7578535,-1.039473 -4.1274012,-1.232474 z"
     style="opacity:0.2;vector-effect:none;fill:#000000;fill-opacity:1;stroke:none;stroke-width:3.01001501;stroke-linecap:round;stroke-linejoin:round;stroke-miterlimit:4;stroke-dasharray:none;stroke-dashoffset:0;stroke-opacity:1" />
  <path
     style="opacity:1;vector-effect:none;fill:#3a3a3a;fill-opacity:1;stroke:none;stroke-width:3.01001501;stroke-linecap:round;stroke-linejoin:round;stroke-miterlimit:4;stroke-dasharray:none;stroke-dashoffset:0;stroke-opacity:1"
     d="m 7.7575698,18.000215 c -0.410412,-0.01015 -0.7482667,0.339617 -0.7481958,0.774576 0,0 -0.049544,1.008019 0.079168,1.484518 C 7.4772495,21.361257 7.9744508,21.90668 8.7384631,22 c 0,0 1.3353689,-0.351431 1.9521219,-0.663163 1.290546,-0.621679 1.479015,-1.343273 1.194386,-2.104148 -0.977012,-1.294436 -2.7578535,-1.039473 -4.1274012,-1.232474 z"
     id="path4513"
     inkscape:connector-curvature="0"
     sodipodi:nodetypes="ccccccc" />
  <path
     sodipodi:nodetypes="ccccccc"
     inkscape:connector-curvature="0"
     id="path4534"
     d="m 17,13 4,-1 -3,3 h -1 l 1,1 -2,-1 z"
     style="opacity:0.2;vector-effect:none;fill:#000000;fill-opacity:1;stroke:none;stroke-width:1.32312882;stroke-linecap:round;stroke-linejoin:round;stroke-miterlimit:4;stroke-dasharray:none;stroke-dashoffset:0;stroke-opacity:1" />
  <path
     style="opacity:1;vector-effect:none;fill:#3a3a3a;fill-opacity:1;stroke:none;stroke-width:1.32312882;stroke-linecap:round;stroke-linejoin:round;stroke-miterlimit:4;stroke-dasharray:none;stroke-dashoffset:0;stroke-opacity:1"
     d="m 17,12 4,-1 -3,3 h -1 l 1,1 -2,-1 z"
     id="rect4522"
     inkscape:connector-curvature="0"
     sodipodi:nodetypes="ccccccc" />
  <path
     style="fill:#010101;stroke-width:0.14484742;fill-opacity:1;opacity:0.3"
     d="M 29.363281 7.0078125 C 29.223201 7.0411592 29.067363 7.1914519 28.904297 7.4746094 C 28.369941 8.4024858 25.969397 9.2324219 24.65625 9.2324219 C 23.929058 9.2324219 23.827682 9.4983327 24.40625 9.8867188 C 24.693952 10.079847 25.039628 10.127866 25.945312 10.097656 C 27.287275 10.052861 27.329663 10.554818 26.503906 11.351562 C 26.230856 11.615023 26.007812 11.890084 26.007812 11.964844 C 26.007812 12.039614 26.704514 11.97494 27 12 C 27 12 27.078766 12.226244 27.041016 12.595703 C 27.005985 12.93861 27.05256 13 27.353516 13 C 27.905459 13 28.47093 12.731264 28.992188 12.220703 C 29.744006 11.484315 29.915691 11.013112 29.988281 9.4765625 C 30.064478 7.8636034 29.783523 6.9077723 29.363281 7.0078125 z M 34.916016 14.994141 C 34.361144 14.994141 33.72997 16.526848 34.123047 16.919922 C 34.189288 16.986142 34.625585 17.017674 35.09375 16.990234 C 35.711819 16.953987 35.958904 16.865834 35.996094 16.669922 C 36.06065 16.329927 35.199854 14.994141 34.916016 14.994141 z M 36.277344 18 C 36.203936 18.002295 36.118508 18.014599 36.013672 18.035156 C 34.981612 18.237551 34.644889 18.925009 35.439453 19.208984 C 35.694241 19.300046 36.002738 19.518863 36.123047 19.695312 C 36.495463 20.241508 36.80586 20.048098 36.972656 19.166016 C 37.03815 18.819661 36.994082 18.628826 36.78125 18.328125 C 36.605607 18.079955 36.497568 17.993116 36.277344 18 z M 36.820312 21.003906 C 36.445906 21.05499 36 21.658721 36 22.191406 C 36 22.547859 36.119158 22.73145 36.421875 22.841797 C 37.061926 23.075142 37.876116 23.045643 37.986328 22.785156 C 38.112632 22.486661 37.3454 21.146623 36.974609 21.017578 C 36.925562 21.000509 36.873799 20.996609 36.820312 21.003906 z M 35.498047 23 C 35.397683 22.996345 35.292618 23.020634 35.193359 23.078125 C 34.951757 23.218048 34.942467 23.321765 35.132812 23.667969 C 35.395287 24.145408 35.874897 24.098046 35.988281 23.583984 C 36.058392 23.266175 35.799137 23.010964 35.498047 23 z M 34.458984 25 C 34.0327 25 34 25.024167 34 25.351562 C 34 25.545213 34.061669 25.772469 34.136719 25.855469 C 34.356634 26.098638 34.663553 26.030416 34.863281 25.693359 C 35.136579 25.232146 35.001548 25 34.458984 25 z M 36.671875 25.005859 C 36.415355 25.054424 35.973636 25.371099 35.236328 25.976562 C 34.911591 26.243226 34.91993 26.393683 35.273438 26.728516 C 35.559805 26.999762 36.207463 27.08963 36.509766 26.898438 C 36.801588 26.713871 37 26.206035 37 25.642578 C 37 25.176699 36.928395 24.957295 36.671875 25.005859 z M 30 26 C 28.880403 27.02716 28.578066 27.93321 27.15625 28.875 C 25.734434 29.81679 24.952115 29.703479 23.697266 29.933594 C 23.637806 29.969984 23.695066 30.205377 23.824219 30.455078 C 23.949449 30.697261 23.988914 31.041086 23.996094 31.519531 C 24.024914 31.950532 24.013906 32.400498 23.947266 32.828125 C 23.867456 33.779005 23.659501 34.2911 22.982422 35.259766 C 22.263655 36.453926 21.264957 37.353834 19.791016 37.802734 C 19.001708 38.043156 18.616932 38.079815 17.505859 38.015625 C 16.77103 37.973135 16.019233 37.893401 15.835938 37.837891 C 15.25158 37.660975 15.643204 38.032796 16.490234 38.458984 C 17.546977 38.990688 19.251946 39.536512 20.601562 39.775391 C 23.900113 40.359217 27.525635 39.795041 30.5625 38.226562 C 31.808862 37.582845 32.938421 36.762539 33.958984 35.824219 C 34.36333 35.273042 34.347339 34.569189 34.427734 33.988281 C 33.87041 34.905037 33.220021 35.573142 32.304688 36 C 31.989781 36 31.973135 35.732962 32.25 35.302734 C 32.955797 34.206003 33.214923 32.344429 32.900391 30.626953 C 32.402356 28.756285 31.375232 27.285791 30 26 z M 36.347656 28 C 36.081434 28 36 28.090569 36 28.390625 C 36 28.605732 36.044146 28.833071 36.097656 28.894531 C 36.250484 29.070057 36.50474 29.025014 36.806641 28.771484 C 37.042676 28.573282 37.054181 28.498555 36.888672 28.269531 C 36.781534 28.121278 36.538499 28 36.347656 28 z M 34.464844 29.015625 C 34.283148 28.992754 34.153441 28.993457 34.119141 29.023438 C 33.902308 29.212875 33.983579 29.714171 34.335938 30.367188 C 34.570502 30.8019 34.787034 31 35.029297 31 C 35.459395 31 36 30.320813 36 29.78125 C 36 29.442902 35.872381 29.351323 35.123047 29.150391 C 34.88167 29.085486 34.646539 29.038496 34.464844 29.015625 z "
     id="path4597" />
</svg>
