<?xml version="1.0" encoding="UTF-8" standalone="no"?>
<svg
   xmlns:dc="http://purl.org/dc/elements/1.1/"
   xmlns:cc="http://creativecommons.org/ns#"
   xmlns:rdf="http://www.w3.org/1999/02/22-rdf-syntax-ns#"
   xmlns:svg="http://www.w3.org/2000/svg"
   xmlns="http://www.w3.org/2000/svg"
   xmlns:sodipodi="http://sodipodi.sourceforge.net/DTD/sodipodi-0.dtd"
   xmlns:inkscape="http://www.inkscape.org/namespaces/inkscape"
   height="48"
   width="48"
   version="1"
   id="svg24"
   sodipodi:docname="zgz-video-player.svg"
   inkscape:version="0.92.1 r15371">
  <metadata
     id="metadata30">
    <rdf:RDF>
      <cc:Work
         rdf:about="">
        <dc:format>image/svg+xml</dc:format>
        <dc:type
           rdf:resource="http://purl.org/dc/dcmitype/StillImage" />
        <dc:title></dc:title>
      </cc:Work>
    </rdf:RDF>
  </metadata>
  <defs
     id="defs28" />
  <sodipodi:namedview
     pagecolor="#ffffff"
     bordercolor="#666666"
     borderopacity="1"
     objecttolerance="10"
     gridtolerance="10"
     guidetolerance="10"
     inkscape:pageopacity="0"
     inkscape:pageshadow="2"
     inkscape:window-width="1600"
     inkscape:window-height="822"
     id="namedview26"
     showgrid="false"
     inkscape:zoom="9.95"
     inkscape:cx="25.259294"
     inkscape:cy="26.168148"
     inkscape:window-x="0"
     inkscape:window-y="0"
     inkscape:window-maximized="1"
     inkscape:current-layer="svg24">
    <inkscape:grid
       type="xygrid"
       id="grid4531" />
  </sodipodi:namedview>
  <path
     style="enable-background:new;fill:#289cc1;fill-opacity:1"
     fill="#c2352a"
     d="m7 6c-1.662 0-3 1.338-3 3v25h40v-25c0-1.662-1.338-3-3-3z"
     id="path2" />
  <path
     opacity=".2"
     style="enable-background:new"
     fill="#fff"
     d="m7 6c-1.662 0-3 1.338-3 3v1c0-1.662 1.338-3 3-3h34c1.662 0 3 1.338 3 3v-1c0-1.662-1.338-3-3-3h-34z"
     id="path4" />
  <path
     style="enable-background:new;fill:#cccccc;fill-opacity:1"
     fill="#f2f2f2"
     d="m4 34v5c0 1.662 1.338 3 3 3h34c1.662 0 3-1.338 3-3v-5z"
     id="path6" />
  <rect
     style="enable-background:new"
     rx="1"
     ry=".928"
     height="2"
     width="13"
     y="37"
     x="28"
     fill="#999"
     id="rect8" />
  <rect
     style="enable-background:new;fill:#289cc1;fill-opacity:1"
     rx="1"
     ry="1"
     height="2"
     width="21"
     y="37"
     x="7"
     fill="#c2352a"
     id="rect10" />
  <circle
     opacity=".2"
     style="enable-background:new"
     cx="28"
     cy="39"
     r="2"
     id="circle12" />
  <circle
     style="enable-background:new;fill:#ffffff;fill-opacity:1"
     cx="28"
     cy="38"
     r="2"
     fill="#fff"
     id="circle14" />
  <rect
     style="enable-background:new;opacity:0.2"
     height="1"
     width="40"
     y="34"
     x="4"
     fill="#fff"
     id="rect16" />
  <path
     opacity=".2"
     style="enable-background:new"
     d="m4 39v1c0 1.662 1.338 3 3 3h34c1.662 0 3-1.338 3-3v-1c0 1.662-1.338 3-3 3h-34c-1.662 0-3-1.338-3-3z"
     id="path22" />
  <path
     id="path4504"
     d="m 24,12 a 9,9 0 0 0 -9,9 9,9 0 0 0 9,9 9,9 0 0 0 9,-9 9,9 0 0 0 -9,-9 z m -1.990234,4 a 0.98641049,1.1041478 0 0 1 0.46875,0.150391 l 3.015625,1.947265 3.015625,1.949219 a 0.98641049,1.1041478 0 0 1 0,1.908203 l -3.015625,1.951172 -3.015625,1.947266 A 0.98641049,1.1041478 0 0 1 21,24.896484 V 21 17.103516 A 0.98641049,1.1041478 0 0 1 22.009766,16 Z"
     style="opacity:0.2;fill:#000000;fill-opacity:1;stroke:none;stroke-width:2.02946997;stroke-linecap:round;stroke-linejoin:round;stroke-miterlimit:4;stroke-dasharray:none;stroke-dashoffset:0;stroke-opacity:1"
     inkscape:connector-curvature="0" />
  <path
     style="opacity:1;fill:#ffffff;fill-opacity:1;stroke:none;stroke-width:2.02946997;stroke-linecap:round;stroke-linejoin:round;stroke-miterlimit:4;stroke-dasharray:none;stroke-dashoffset:0;stroke-opacity:1"
     d="M 24 11 A 9 9 0 0 0 15 20 A 9 9 0 0 0 24 29 A 9 9 0 0 0 33 20 A 9 9 0 0 0 24 11 z M 22.009766 15 A 0.98641049 1.1041478 0 0 1 22.478516 15.150391 L 25.494141 17.097656 L 28.509766 19.046875 A 0.98641049 1.1041478 0 0 1 28.509766 20.955078 L 25.494141 22.90625 L 22.478516 24.853516 A 0.98641049 1.1041478 0 0 1 21 23.896484 L 21 20 L 21 16.103516 A 0.98641049 1.1041478 0 0 1 22.009766 15 z "
     id="path4501" />
</svg>
